<svg width="47" height="40" viewBox="0 0 47 40" fill="none" xmlns="http://www.w3.org/2000/svg">
<path d="M28.7289 36.9779L29.5286 35.5673L28.7289 36.9779ZM26.0093 20.3457L27.2156 21.4294L26.0093 20.3457ZM35.3513 23.1351C35.8886 22.4186 35.7436 21.4022 35.027 20.8649C34.3105 20.3276 33.2941 20.4726 32.7568 21.1892L35.3513 23.1351ZM30.8108 26.4865L29.5135 25.5135C29.2009 25.9306 29.1075 26.4724 29.2629 26.9699C29.4184 27.4675 29.8035 27.8601 30.2979 28.0249L30.8108 26.4865ZM37.2973 28.6486L38.5946 29.6216C38.9072 29.2045 39.0006 28.6627 38.8452 28.1652C38.6897 27.6677 38.3046 27.275 37.8102 27.1103L37.2973 28.6486ZM32.7568 32C32.2195 32.7165 32.3645 33.733 33.0811 34.2703C33.7976 34.8076 34.8141 34.6625 35.3513 33.9459L32.7568 32ZM43.2432 27.5676C43.2432 32.6426 39.1291 36.7568 34.0541 36.7568V40C40.9202 40 46.4865 34.4337 46.4865 27.5676H43.2432ZM34.0541 36.7568C32.4056 36.7568 30.8631 36.3241 29.5286 35.5673L27.9289 38.3885C29.7382 39.4147 31.8303 40 34.0541 40V36.7568ZM29.5286 35.5673C27.1732 34.2316 25.4685 31.8878 24.997 29.1302L21.8 29.677C22.4404 33.4195 24.7496 36.5855 27.9289 38.3885L29.5286 35.5673ZM24.997 29.1302C24.9103 28.6234 24.8649 28.1014 24.8649 27.5676H21.6216C21.6216 28.2854 21.6826 28.9903 21.8 29.677L24.997 29.1302ZM24.8649 27.5676C24.8649 25.2071 25.7529 23.0577 27.2156 21.4294L24.8028 19.2621C22.8262 21.4625 21.6216 24.3762 21.6216 27.5676H24.8649ZM27.2156 21.4294C28.9001 19.5542 31.3386 18.3784 34.0541 18.3784V15.1351C30.3801 15.1351 27.0765 16.7308 24.8028 19.2621L27.2156 21.4294ZM34.0541 18.3784C39.1291 18.3784 43.2432 22.4925 43.2432 27.5676H46.4865C46.4865 20.7014 40.9202 15.1351 34.0541 15.1351V18.3784ZM28.2595 35.4257C25.5654 36.2402 21.9085 36.7568 17.8378 36.7568V40C22.1511 40 26.1353 39.4562 29.1981 38.5302L28.2595 35.4257ZM17.8378 36.7568C13.4856 36.7568 9.61276 36.1663 6.88404 35.2569C5.5112 34.7991 4.51719 34.2899 3.89972 33.8032C3.26396 33.3023 3.24324 33.0095 3.24324 32.973H0C0 34.4292 0.886832 35.5583 1.89222 36.3507C2.91591 37.1574 4.29671 37.813 5.85842 38.3336C8.99881 39.3803 13.2341 40 17.8378 40V36.7568ZM3.24324 32.973V24.3243H0V32.973H3.24324ZM3.24324 24.3243V15.6757H0V24.3243H3.24324ZM3.24324 15.6757V7.02703H0V15.6757H3.24324ZM32.4324 7.02703C32.4324 7.06352 32.4117 7.35637 31.776 7.8574C31.1585 8.34404 30.1645 8.85319 28.7916 9.31081C26.0629 10.2204 22.1901 10.8108 17.8378 10.8108V14.0541C22.4417 14.0541 26.677 13.4344 29.8173 12.3876C31.379 11.867 32.7598 11.2114 33.7833 10.4047C34.7888 9.61235 35.6757 8.48318 35.6757 7.02703H32.4324ZM17.8378 10.8108C13.4856 10.8108 9.61276 10.2204 6.88404 9.31081C5.5112 8.85319 4.51719 8.34404 3.89972 7.8574C3.26396 7.35637 3.24324 7.06352 3.24324 7.02703H0C0 8.48318 0.886832 9.61235 1.89222 10.4047C2.91591 11.2114 4.29671 11.867 5.85842 12.3876C8.99881 13.4344 13.2341 14.0541 17.8378 14.0541V10.8108ZM3.24324 7.02703C3.24324 6.99053 3.26396 6.69769 3.89972 6.19665C4.51719 5.71001 5.5112 5.20084 6.88404 4.74324C9.61276 3.83366 13.4856 3.24324 17.8378 3.24324V0C13.2341 0 8.99881 0.619632 5.85842 1.66642C4.29671 2.18701 2.91591 2.84259 1.89222 3.64936C0.886811 4.44171 0 5.57085 0 7.02703H3.24324ZM17.8378 3.24324C22.1901 3.24324 26.0629 3.83366 28.7916 4.74324C30.1645 5.20084 31.1585 5.71001 31.776 6.19665C32.4117 6.69769 32.4324 6.99053 32.4324 7.02703H35.6757C35.6757 5.57085 34.7888 4.44171 33.7833 3.64936C32.7598 2.84259 31.379 2.18701 29.8173 1.66642C26.677 0.619632 22.4417 0 17.8378 0V3.24324ZM0 24.3243C0 25.7805 0.886832 26.9096 1.89222 27.7021C2.91591 28.5088 4.29671 29.1643 5.85842 29.685C8.99881 30.7317 13.2341 31.3514 17.8378 31.3514V28.1081C13.4856 28.1081 9.61276 27.5176 6.88404 26.6082C5.5112 26.1505 4.51719 25.6413 3.89972 25.1546C3.26396 24.6536 3.24324 24.3609 3.24324 24.3243H0ZM17.8378 31.3514C19.8541 31.3514 21.7924 31.2326 23.5944 31.0134L23.2026 27.7937C21.5358 27.9965 19.7286 28.1081 17.8378 28.1081V31.3514ZM0 15.6757C0 17.1319 0.886832 18.261 1.89222 19.0534C2.91591 19.8601 4.29671 20.5157 5.85842 21.0363C8.99881 22.083 13.2341 22.7027 17.8378 22.7027V19.4595C13.4856 19.4595 9.61276 18.869 6.88404 17.9596C5.5112 17.5018 4.51719 16.9926 3.89972 16.5059C3.26396 16.005 3.24324 15.7122 3.24324 15.6757H0ZM17.8378 22.7027C20.9107 22.7027 23.8074 22.4268 26.3193 21.9375L25.699 18.7539C23.4121 19.1996 20.7245 19.4595 17.8378 19.4595V22.7027ZM32.7568 21.1892L29.5135 25.5135L32.1081 27.4595L35.3513 23.1351L32.7568 21.1892ZM30.2979 28.0249L36.7844 30.187L37.8102 27.1103L31.3237 24.9481L30.2979 28.0249ZM36 27.6757L32.7568 32L35.3513 33.9459L38.5946 29.6216L36 27.6757ZM32.4324 7.02703V16.7568H35.6757V7.02703H32.4324Z" fill="url(#paint0_linear_73_1892)"/>
<defs>
<linearGradient id="paint0_linear_73_1892" x1="46.4865" y1="40" x2="-7.36409" y2="21.8546" gradientUnits="userSpaceOnUse">
<stop stop-color="#335EF7"/>
<stop offset="1" stop-color="#5F82FF"/>
</linearGradient>
</defs>
</svg>
