<svg width="41" height="48" viewBox="0 0 41 48" fill="none" xmlns="http://www.w3.org/2000/svg">
<path d="M39.18 28.5547C38.6108 27.9854 37.9133 27.591 37.1527 27.3976C37.5025 25.9492 37.1133 24.357 35.9847 23.2285C35.4044 22.6481 34.7013 22.264 33.9583 22.0746C34.2884 20.7099 33.9831 19.0966 32.7887 17.9023C32.388 17.5017 31.9286 17.1955 31.4382 16.9811L35.9854 12.4345C37.7099 10.7079 37.713 7.91312 35.9847 6.18505C34.2586 4.45886 31.4635 4.45586 29.7347 6.18505L15.5505 20.3693L14.721 16.7745C14.2447 14.7095 12.6831 13.0637 10.6456 12.4794C8.6086 11.895 6.41218 12.4632 4.91374 13.9624C4.91355 13.9626 4.91336 13.9628 4.91308 13.9629C4.64933 14.227 4.5009 14.5855 4.50127 14.9588L4.51881 32.4531L0.411951 36.56C-0.137317 37.1093 -0.137317 37.9998 0.411951 38.549L9.45069 47.5879C9.71435 47.8516 10.0722 47.9999 10.4451 47.9999H23.5311C25.1134 47.9999 26.6013 47.3833 27.7208 46.2638L39.1799 34.8047C40.8848 33.1014 40.9274 30.2996 39.18 28.5547ZM31.7237 25.2174C32.3519 24.5892 33.3683 24.59 33.9957 25.2174C34.6221 25.8439 34.6221 26.8631 33.9957 27.4895L30.7997 30.6854C30.1704 31.3148 29.1538 31.3117 28.528 30.6857C27.9015 30.0589 27.9014 29.0395 28.5276 28.4134L31.7237 25.2174ZM26.5387 26.4244C25.9123 27.0508 24.8931 27.0504 24.2667 26.4244C23.6402 25.798 23.6402 24.7788 24.2667 24.1524L28.5277 19.8914C29.1546 19.2645 30.1738 19.2654 30.7997 19.8914C31.428 20.5196 31.427 21.5362 30.7997 22.1633C30.7996 22.1634 30.7993 22.1637 30.7994 22.1636C30.7997 22.1633 26.5387 26.4244 26.5387 26.4244ZM25.7319 44.2746C25.1522 44.8544 24.3501 45.1869 23.5312 45.1869H11.0278L3.39552 37.5545L6.92038 34.0295C7.18451 33.7654 7.33266 33.4071 7.33238 33.0336L7.31494 15.6064C8.05192 15.0939 8.98984 14.9307 9.8701 15.1833C10.925 15.4858 11.7336 16.3377 11.9801 17.4067L13.3805 23.4743C13.4407 23.7353 13.5732 23.9677 13.7558 24.1508C13.7559 24.1512 14.8215 25.2174 14.8215 25.2174C17.2099 27.6059 17.2099 31.4922 14.8215 33.8807C14.2722 34.43 14.2722 35.3205 14.8215 35.8697C15.3707 36.4191 16.2614 36.4189 16.8105 35.8697C20.2957 32.3845 20.2957 26.7137 16.8105 23.2285L16.7399 23.1579L31.7238 8.17397C32.3666 7.53103 33.3841 7.56235 33.9957 8.17406C34.6228 8.80106 34.6232 9.81774 33.9957 10.4461L22.2777 22.1633C20.5545 23.8864 20.5545 26.6903 22.278 28.4137C23.101 29.2362 24.1701 29.6649 25.2504 29.7019C25.2874 30.7821 25.7162 31.8514 26.5387 32.6745C27.3611 33.497 28.4296 33.9258 29.5095 33.9631C29.5475 35.0862 30.0015 36.1365 30.799 36.9342C31.1941 37.3298 31.6515 37.64 32.1487 37.8582L25.7319 44.2746ZM37.1916 32.815C37.1913 32.8152 37.1911 32.8155 37.1908 32.8157L35.0601 34.9464C34.4409 35.5664 33.4225 35.5805 32.7887 34.9459C32.1566 34.3138 32.1663 33.2969 32.7892 32.6741L34.9196 30.5437C35.5518 29.9115 36.5685 29.9214 37.1915 30.5443C37.8274 31.1792 37.8094 32.1979 37.1916 32.815Z" fill="url(#paint0_linear_73_1899)"/>
<path d="M14.9651 8.83132C15.7418 8.83132 16.3715 8.2016 16.3715 7.42486V1.39904C16.2972 -0.467049 13.6322 -0.465643 13.5586 1.39904V7.42496C13.5586 8.2017 14.1883 8.83132 14.9651 8.83132Z" fill="url(#paint1_linear_73_1899)"/>
<path d="M7.94387 8.41958C8.49314 8.96894 9.3838 8.96875 9.93288 8.41958C10.4822 7.87031 10.4822 6.97984 9.93288 6.43057L8.42648 4.92416C7.8773 4.37489 6.98673 4.37489 6.43746 4.92416C5.8882 5.47343 5.8882 6.3639 6.43746 6.91317L7.94387 8.41958Z" fill="url(#paint2_linear_73_1899)"/>
<path d="M21.9849 8.41958L23.4914 6.91317C24.0406 6.3639 24.0406 5.47343 23.4914 4.92416C22.9422 4.37489 22.0516 4.37489 21.5023 4.92416L19.9959 6.43057C19.4467 6.97984 19.4467 7.87031 19.9959 8.41958C20.5452 8.96894 21.4358 8.96875 21.9849 8.41958Z" fill="url(#paint3_linear_73_1899)"/>
<defs>
<linearGradient id="paint0_linear_73_1899" x1="40.4746" y1="47.9999" x2="-8.1334" y2="34.7682" gradientUnits="userSpaceOnUse">
<stop stop-color="#335EF7"/>
<stop offset="1" stop-color="#5F82FF"/>
</linearGradient>
<linearGradient id="paint1_linear_73_1899" x1="16.3715" y1="8.83132" x2="12.7737" y2="8.49906" gradientUnits="userSpaceOnUse">
<stop stop-color="#335EF7"/>
<stop offset="1" stop-color="#5F82FF"/>
</linearGradient>
<linearGradient id="paint2_linear_73_1899" x1="10.3448" y1="8.83153" x2="5.20523" y2="7.34135" gradientUnits="userSpaceOnUse">
<stop stop-color="#335EF7"/>
<stop offset="1" stop-color="#5F82FF"/>
</linearGradient>
<linearGradient id="paint3_linear_73_1899" x1="23.9033" y1="8.83153" x2="18.7637" y2="7.34135" gradientUnits="userSpaceOnUse">
<stop stop-color="#335EF7"/>
<stop offset="1" stop-color="#5F82FF"/>
</linearGradient>
</defs>
</svg>
