<svg width="40" height="40" viewBox="0 0 40 40" fill="none" xmlns="http://www.w3.org/2000/svg">
<path d="M20.0004 0C8.97174 0 0 8.97132 0 19.9992C0 31.0278 8.97215 40 20 40C31.0274 40 39.9988 31.0278 39.9988 19.9992C39.9992 8.97174 31.0278 0 20.0004 0V0ZM2.01829 19.9992C2.01829 17.3928 2.57731 14.9173 3.57523 12.6816L12.153 36.1829C6.15503 33.2677 2.01829 27.1168 2.01829 19.9992ZM20.0004 37.9821C18.2352 37.9821 16.5316 37.7232 14.9206 37.2494L20.3155 21.5723L25.8437 36.7149C25.8795 36.8042 25.9231 36.8857 25.9717 36.9626C24.1027 37.6201 22.0943 37.9821 20.0004 37.9821ZM22.478 11.5686C23.5603 11.5116 24.5366 11.3973 24.5366 11.3973C25.505 11.2826 25.3915 9.8591 24.4214 9.91604C24.4214 9.91604 21.5091 10.1442 19.6284 10.1442C17.862 10.1442 14.8919 9.91604 14.8919 9.91604C13.9227 9.8591 13.8096 11.3404 14.7785 11.3973C14.7785 11.3973 15.6962 11.5116 16.6642 11.5686L19.4655 19.2448L15.5303 31.0465L8.98337 11.569C10.0673 11.5125 11.0416 11.3978 11.0416 11.3978C12.01 11.2835 11.8957 9.8591 10.926 9.91729C10.926 9.91729 8.01496 10.1455 6.13383 10.1455C5.79593 10.1455 5.39817 10.1367 4.97672 10.1239C8.19119 5.24148 13.7186 2.01829 20.0004 2.01829C24.6825 2.01829 28.9443 3.80798 32.143 6.73857C32.0653 6.73441 31.99 6.72402 31.9094 6.72402C30.1438 6.72402 28.8903 8.26268 28.8903 9.91563C28.8903 11.3969 29.7444 12.6513 30.6559 14.1326C31.3404 15.3304 32.1384 16.8695 32.1384 19.0919C32.1384 20.6313 31.5474 22.4169 30.7697 24.9048L28.9763 30.8986L22.478 11.5686ZM29.0399 35.5428L34.5324 19.6625C35.5594 17.0977 35.8998 15.0466 35.8998 13.2215C35.8998 12.5603 35.8566 11.9456 35.7785 11.3724C37.1833 13.9339 37.9825 16.8736 37.9817 20C37.9813 26.6334 34.3853 32.4256 29.0399 35.5428Z" fill="url(#paint0_linear_73_1907)"/>
<defs>
<linearGradient id="paint0_linear_73_1907" x1="39.9988" y1="40" x2="-7.5964" y2="26.2007" gradientUnits="userSpaceOnUse">
<stop stop-color="#335EF7"/>
<stop offset="1" stop-color="#5F82FF"/>
</linearGradient>
</defs>
</svg>
