<svg width="134" height="26" viewBox="0 0 134 26" fill="none" xmlns="http://www.w3.org/2000/svg">
<path d="M0 0.15332H25.125V25.14H0V0.15332ZM27.2188 0.15332H52.3438V25.14H27.2188V0.15332ZM54.4375 0.15332H79.5625V25.14H54.4375V0.15332ZM81.6562 0.15332H106.781V25.14H81.6562V0.15332ZM108.875 0.15332H134V25.14H108.875V0.15332Z" fill="#00B67A"/>
<path d="M12.5633 16.9933L16.3844 16.0303L17.9809 20.9235L12.5633 16.9933ZM21.357 10.6686H14.6309L12.5633 4.36987L10.4957 10.6686H3.76953L9.21328 14.5728L7.1457 20.8715L12.5895 16.9673L15.9395 14.5728L21.357 10.6686ZM39.782 16.9933L43.6031 16.0303L45.1996 20.9235L39.782 16.9933ZM48.5758 10.6686H41.8496L39.782 4.36987L37.7145 10.6686H30.9883L36.432 14.5728L34.3645 20.8715L39.8082 16.9673L43.1582 14.5728L48.5758 10.6686ZM67.0008 16.9933L70.8219 16.0303L72.4184 20.9235L67.0008 16.9933ZM75.7945 10.6686H69.0684L67.0008 4.36987L64.9332 10.6686H58.207L63.6508 14.5728L61.5832 20.8715L67.027 16.9673L70.3769 14.5728L75.7945 10.6686ZM94.2195 16.9933L98.0406 16.0303L99.6371 20.9235L94.2195 16.9933ZM103.013 10.6686H96.2871L94.2195 4.36987L92.1519 10.6686H85.4258L90.8695 14.5728L88.8019 20.8715L94.2457 16.9673L97.5957 14.5728L103.013 10.6686ZM121.438 16.9933L125.259 16.0303L126.856 20.9235L121.438 16.9933ZM130.232 10.6686H123.506L121.438 4.36987L119.371 10.6686H112.645L118.088 14.5728L116.021 20.8715L121.464 16.9673L124.814 14.5728L130.232 10.6686Z" fill="white"/>
</svg>
