<svg width="124" height="18" viewBox="0 0 124 18" fill="none" xmlns="http://www.w3.org/2000/svg">
<path d="M9.50943 13.7266L13.6415 12.6795L15.3679 18.0002L9.50943 13.7266ZM19.0189 6.84929H11.7453L9.50943 0.000228882L7.27359 6.84929H0L5.88679 11.0946L3.65094 17.9436L9.53774 13.6983L13.1604 11.0946L19.0189 6.84929Z" fill="#F8B800"/>
<path d="M35.693 13.7266L39.8251 12.6795L41.5515 18.0002L35.693 13.7266ZM45.2025 6.84929H37.9289L35.693 0.000228882L33.4572 6.84929H26.1836L32.0704 11.0946L29.8345 17.9436L35.7213 13.6983L39.344 11.0946L45.2025 6.84929Z" fill="#F8B800"/>
<path d="M61.8766 13.7266L66.0087 12.6795L67.7351 18.0002L61.8766 13.7266ZM71.3861 6.84929H64.1125L61.8766 0.000228882L59.6408 6.84929H52.3672L58.254 11.0946L56.0181 17.9436L61.9049 13.6983L65.5276 11.0946L71.3861 6.84929Z" fill="#F8B800"/>
<path d="M88.0602 13.7266L92.1923 12.6795L93.9187 18.0002L88.0602 13.7266ZM97.5697 6.84929H90.2961L88.0602 0.000228882L85.8244 6.84929H78.5508L84.4376 11.0946L82.2017 17.9436L88.0885 13.6983L91.7112 11.0946L97.5697 6.84929Z" fill="#F8B800"/>
<path d="M114.244 13.7266L118.376 12.6795L120.102 18.0002L114.244 13.7266ZM123.753 6.84929H116.48L114.244 0.000228882L112.008 6.84929H104.734L110.621 11.0946L108.385 17.9436L114.272 13.6983L117.895 11.0946L123.753 6.84929Z" fill="#F8B800"/>
</svg>
