<svg width="96" height="18" viewBox="0 0 96 18" fill="none" xmlns="http://www.w3.org/2000/svg">
<path d="M18 0H0V18H18V0Z" fill="#FF8622"/>
<path d="M37.5 0H19.5V18H37.5V0Z" fill="#FF8622"/>
<path d="M57 0H39V18H57V0Z" fill="#DCDCE6"/>
<path d="M76.5 0H58.5V18H76.5V0Z" fill="#DCDCE6"/>
<path d="M96 0H78V18H96V0Z" fill="#DCDCE6"/>
<path d="M8.99922 12.1309L11.7367 11.4371L12.8805 14.9621L8.99922 12.1309ZM15.2992 7.57461H10.4805L8.99922 3.03711L7.51797 7.57461H2.69922L6.59922 10.3871L5.11797 14.9246L9.01797 12.1121L11.418 10.3871L15.2992 7.57461Z" fill="white"/>
<path d="M28.4992 12.1309L31.2367 11.4371L32.3805 14.9621L28.4992 12.1309ZM34.7992 7.57461H29.9805L28.4992 3.03711L27.018 7.57461H22.1992L26.0992 10.3871L24.618 14.9246L28.518 12.1121L30.918 10.3871L34.7992 7.57461Z" fill="white"/>
<path d="M47.9992 12.1309L50.7367 11.4371L51.8805 14.9621L47.9992 12.1309ZM54.2992 7.57461H49.4805L47.9992 3.03711L46.518 7.57461H41.6992L45.5992 10.3871L44.118 14.9246L48.018 12.1121L50.418 10.3871L54.2992 7.57461Z" fill="white"/>
<path d="M67.4992 12.1309L70.2367 11.4371L71.3805 14.9621L67.4992 12.1309ZM73.7992 7.57461H68.9805L67.4992 3.03711L66.018 7.57461H61.1992L65.0992 10.3871L63.618 14.9246L67.518 12.1121L69.918 10.3871L73.7992 7.57461Z" fill="white"/>
<path d="M86.9992 12.1309L89.7367 11.4371L90.8805 14.9621L86.9992 12.1309ZM93.2992 7.57461H88.4805L86.9992 3.03711L85.518 7.57461H80.6992L84.5992 10.3871L83.118 14.9246L87.018 12.1121L89.418 10.3871L93.2992 7.57461Z" fill="white"/>
</svg>
