<svg width="35" height="31" viewBox="0 0 35 31" fill="none" xmlns="http://www.w3.org/2000/svg">
<path d="M34.9994 16.694C34.9164 17.078 34.8473 17.4619 34.7367 17.8458C33.9626 20.6469 31.5298 22.6376 28.696 22.7514C27.9219 22.7798 27.1478 22.7798 26.3737 22.7656C25.6687 22.7514 25.1987 22.2963 25.1987 21.628C25.2125 20.974 25.6825 20.5332 26.3875 20.519C27.2031 20.5047 28.0325 20.5616 28.848 20.4763C30.5621 20.2915 31.7924 19.3388 32.4559 17.7036C33.0918 16.1111 32.9121 14.5754 31.82 13.2246C31.0459 12.2719 29.9954 11.8169 28.8204 11.6463C28.4057 11.5894 27.9772 11.561 27.5625 11.561C26.6363 11.561 26.2493 11.2055 26.2078 10.2528C26.111 8.46123 25.5581 6.82605 24.4384 5.4468C22.2958 2.80206 19.545 1.73564 16.2827 2.47503C13.0481 3.2002 11.1128 5.41836 10.2973 8.6603C10.0761 9.57032 10.0623 10.5372 9.99317 11.4757C9.93787 12.1724 9.56465 12.6701 8.97025 12.6985C8.33438 12.7412 7.79528 12.2861 7.8091 11.6463C7.85057 10.6367 7.96115 9.62719 8.04409 8.60343C8.04409 8.54655 8.05792 8.48967 8.07174 8.40436C7.17323 8.40436 6.31619 8.61764 5.51444 9.01578C3.12303 10.2102 1.78217 12.9829 2.32128 15.6276C2.88803 18.4003 5.09975 20.3768 7.8091 20.5047C7.93351 20.5047 8.05792 20.5047 8.18233 20.5332C8.81819 20.6043 9.21907 21.0877 9.19142 21.7276C9.16378 22.3248 8.69379 22.7798 8.07174 22.7656C5.69415 22.7371 3.66213 21.8413 2.10011 19.9929C0.0128005 17.5472 -0.540129 14.7034 0.538083 11.6463C1.60247 8.60342 3.80036 6.82605 6.89677 6.25729C7.43587 6.15775 7.9888 6.17197 8.52791 6.17197C8.73526 6.17197 8.84584 6.1151 8.9426 5.91603C10.4217 2.85894 12.7716 0.953591 16.0063 0.228421C21.5632 -1.00863 27.2446 2.91582 28.2398 8.68874C28.3504 9.3286 28.3504 9.30016 28.9586 9.39969C31.6956 9.82626 33.7415 11.1771 34.6814 13.9782C34.8197 14.4048 34.8888 14.8598 34.9856 15.3006C34.9994 15.7556 34.9994 16.2248 34.9994 16.694Z" fill="#001042"/>
<path d="M14.637 25.8367C15.0379 25.5665 15.4111 25.467 15.812 25.6519C16.4341 25.9362 16.6967 26.7325 16.282 27.3013C15.66 28.1544 14.9964 28.9791 14.3329 29.7896C13.932 30.273 13.2132 30.2873 12.7847 29.818C12.0521 29.0218 11.3471 28.2255 10.6559 27.4008C10.2689 26.9458 10.3242 26.2775 10.7389 25.8794C11.1536 25.4812 11.7756 25.467 12.2318 25.8651C12.2871 25.922 12.3286 25.9931 12.37 26.0642C12.3977 26.05 12.4391 26.0358 12.4668 26.0215C12.4668 25.9078 12.4668 25.7798 12.4668 25.6661C12.4668 23.2062 12.4668 20.7463 12.4668 18.2864C12.4668 17.7176 12.8124 17.2768 13.3238 17.1773C13.8491 17.0636 14.3606 17.3195 14.5541 17.8314C14.6232 18.0162 14.6509 18.2437 14.6509 18.4428C14.6509 20.7605 14.6509 23.0782 14.6509 25.3959C14.637 25.5239 14.637 25.6519 14.637 25.8367Z" fill="#001042"/>
<path d="M19.0198 21.4007C18.771 21.4718 18.5636 21.5713 18.3563 21.5998C17.9139 21.6424 17.5545 21.4434 17.3334 21.0452C17.1122 20.6471 17.1122 20.2205 17.3887 19.8508C18.0245 19.0119 18.6742 18.173 19.3516 17.3767C19.7663 16.879 20.4712 16.8933 20.9274 17.3909C21.6324 18.173 22.3236 18.955 23.0147 19.7513C23.4018 20.2063 23.3603 20.8604 22.9594 21.2727C22.5447 21.6993 21.9089 21.6993 21.4527 21.3012C21.3974 21.2443 21.3421 21.2016 21.2315 21.0879C21.2315 21.2727 21.2315 21.4007 21.2315 21.5287C21.2315 23.9601 21.2315 26.3916 21.2315 28.823C21.2315 29.7188 20.4298 30.2734 19.6971 29.9179C19.241 29.6904 19.0475 29.2923 19.0475 28.7804C19.0475 26.4342 19.0475 24.1023 19.0475 21.7562C19.0198 21.6424 19.0198 21.5145 19.0198 21.4007Z" fill="#001042"/>
</svg>
