<svg width="33" height="31" viewBox="0 0 33 31" fill="none" xmlns="http://www.w3.org/2000/svg">
<path d="M6.937 19.1733C8.19272 18.7559 9.44308 18.3823 10.6622 17.9247C12.0993 17.3849 13.5007 17.3876 14.9441 17.897C16.6574 18.5012 18.3958 19.0357 20.1216 19.6086C21.4042 20.034 21.9064 20.7123 21.9699 22.0744C21.9717 22.1066 21.986 22.1379 21.9976 22.1852C23.4231 21.9743 24.846 21.7634 26.2688 21.5525C27.2296 21.4095 28.1877 21.2531 29.1503 21.1262C30.3488 20.9671 31.3668 21.523 31.8056 22.5472C32.2284 23.5339 31.9495 24.6922 31.0951 25.3554C30.8448 25.5493 30.5445 25.7022 30.2434 25.8032C26.3108 27.125 22.3748 28.4379 18.4378 29.7455C17.0918 30.1924 15.7753 30.0941 14.5035 29.4649C13.4739 28.9554 12.4345 28.4621 11.4254 27.9151C10.7998 27.5764 10.1777 27.4932 9.49045 27.6327C8.71467 27.7891 7.92996 27.9053 7.14703 28.0268C6.95935 28.0563 6.86997 28.1385 6.79222 28.3155C6.4222 29.161 5.76887 29.6239 4.83848 29.6454C4.12348 29.6624 3.40847 29.6597 2.69347 29.6472C1.4601 29.6257 0.542214 28.749 0.532383 27.512C0.510039 24.8862 0.510039 22.2603 0.532383 19.6345C0.543108 18.3877 1.48423 17.5038 2.72833 17.4939C3.33161 17.4895 3.93489 17.4931 4.53818 17.4931C5.81266 17.4931 6.46957 17.9453 6.937 19.1733ZM6.9799 26.6075C7.59927 26.5056 8.20077 26.4458 8.7826 26.3028C10.0705 25.9864 11.2645 26.1222 12.4228 26.8068C13.2665 27.3047 14.1737 27.6952 15.0487 28.1403C16.0256 28.6372 17.0275 28.7069 18.0669 28.3602C21.9699 27.0571 25.8738 25.7585 29.7768 24.4563C30.389 24.2516 30.6786 23.7743 30.5311 23.2283C30.3917 22.7108 29.9064 22.4534 29.2817 22.5472C26.6326 22.944 23.9817 23.3346 21.3327 23.7332C21.195 23.7538 21.0502 23.8038 20.9331 23.8789C20.3781 24.2319 19.7847 24.3419 19.1385 24.2221C17.8434 23.9826 16.5466 23.7538 15.2507 23.5187C14.4159 23.3677 13.5811 23.2166 12.7482 23.0593C12.3674 22.9869 12.1306 22.726 12.1127 22.3846C12.0966 22.0816 12.2888 21.7589 12.5837 21.6883C12.7705 21.6436 12.9832 21.6553 13.1763 21.6892C15.2641 22.061 17.3501 22.4418 19.4361 22.8207C19.8124 22.8886 20.1252 22.776 20.3567 22.4775C20.581 22.1888 20.6498 21.8412 20.4496 21.5382C20.3066 21.3228 20.068 21.1119 19.8276 21.0305C17.8631 20.3647 15.8888 19.7274 13.9154 19.0857C13.1334 18.8319 12.354 18.873 11.58 19.1331C10.142 19.6157 8.70395 20.0992 7.26054 20.5693C7.03174 20.6435 6.95398 20.7463 6.95488 20.9912C6.9656 22.7572 6.96024 24.5233 6.96203 26.2894C6.96203 26.3868 6.97275 26.4833 6.9799 26.6075ZM1.96507 23.5697C1.96507 24.8325 1.96328 26.0945 1.96596 27.3574C1.96775 27.9803 2.2171 28.2225 2.8472 28.2243C3.45048 28.2261 4.05376 28.2261 4.65704 28.2243C5.27552 28.2225 5.53471 27.9651 5.5356 27.3493C5.5365 24.8352 5.5365 22.3211 5.5356 19.807C5.5356 19.193 5.27195 18.9239 4.66598 18.9195C4.0627 18.915 3.45942 18.9159 2.85614 18.9195C2.21442 18.9231 1.96685 19.1715 1.96596 19.8159C1.96417 21.0663 1.96507 22.3184 1.96507 23.5697Z" fill="#001042" stroke="#FFB217" stroke-width="0.0836976" stroke-miterlimit="10"/>
<path d="M9.11229 8.31789C9.27585 3.88757 12.9143 0.538684 17.2106 0.689728C21.682 0.847028 25.03 4.51141 24.8405 8.9471C24.6573 13.2478 20.9429 16.6056 16.5832 16.4126C12.3584 16.2258 8.93175 12.5123 9.11229 8.31789ZM10.5503 8.53329C10.5584 12.1056 13.4282 14.9951 16.9639 14.9897C20.5514 14.9835 23.4347 12.0851 23.4195 8.50111C23.4043 4.96186 20.496 2.10275 16.9299 2.11973C13.4086 2.13582 10.5423 5.01816 10.5503 8.53329Z" fill="#001042" stroke="#FFB217" stroke-width="0.0836976" stroke-miterlimit="10"/>
<path d="M29.21 16.7874C29.4728 16.5193 29.7311 16.2467 29.9992 15.9848C30.3451 15.6461 30.7723 15.6264 31.0681 15.9249C31.3684 16.2279 31.3515 16.6453 31.0065 16.9948C30.3397 17.6704 29.6694 18.3425 28.9937 19.0084C28.6166 19.3802 28.2305 19.3766 27.8515 19.0012C27.1767 18.3336 26.5064 17.6615 25.8388 16.9867C25.4992 16.6435 25.475 16.2145 25.7655 15.9178C26.0747 15.6023 26.4894 15.6264 26.8586 15.9884C27.1204 16.2449 27.3769 16.5077 27.7148 16.8473C27.7148 16.6426 27.7148 16.5309 27.7148 16.4192C27.7148 14.3868 27.7148 12.3535 27.7148 10.3211C27.7148 10.2317 27.713 10.1424 27.7157 10.053C27.7273 9.57573 28.0222 9.2504 28.4351 9.25845C28.8507 9.26649 29.1376 9.59003 29.1385 10.0727C29.1412 12.1721 29.1394 14.2724 29.1394 16.3718C29.1394 16.4943 29.1394 16.6167 29.1394 16.7391C29.1627 16.7552 29.1859 16.7713 29.21 16.7874Z" fill="#001042" stroke="#FFB217" stroke-width="0.0836976" stroke-miterlimit="10"/>
<path d="M16.2672 12.2433C15.7533 11.9841 15.2921 11.7857 14.8667 11.5283C14.4537 11.2789 14.3679 10.8428 14.6048 10.4933C14.8425 10.143 15.2545 10.0822 15.6666 10.3548C16.1796 10.6944 16.7176 10.8973 17.3406 10.7266C17.4362 10.7007 17.5524 10.681 17.6167 10.6158C17.7749 10.4558 18.0162 10.2743 18.0198 10.0965C18.0234 9.92578 17.8044 9.68804 17.623 9.59062C17.2235 9.37344 16.7838 9.23134 16.3646 9.04901C16.0786 8.92478 15.7863 8.8068 15.52 8.64682C14.1552 7.82815 14.1239 6.17292 15.4574 5.3024C15.6978 5.1451 15.9731 5.04143 16.2672 4.89575C16.2672 4.70806 16.26 4.48552 16.2689 4.26476C16.2859 3.83755 16.5907 3.53635 16.9893 3.54082C17.3826 3.54529 17.7177 3.83218 17.6748 4.2451C17.6203 4.77152 17.8312 4.98423 18.313 5.10667C18.6052 5.18085 18.8769 5.37301 19.1334 5.54729C19.5115 5.80469 19.5866 6.22654 19.3479 6.56796C19.1236 6.88881 18.7017 6.96657 18.3389 6.72436C17.8795 6.41691 17.3933 6.18543 16.8347 6.29626C16.5648 6.34988 16.2913 6.4902 16.0705 6.65912C15.8355 6.83876 15.8507 7.11046 16.0911 7.28743C16.3208 7.45724 16.5889 7.58058 16.8508 7.69855C17.328 7.91305 17.8268 8.08465 18.2942 8.31882C19.0494 8.69777 19.5276 9.2939 19.4766 10.1796C19.4275 11.0376 18.9171 11.615 18.1592 11.926C17.766 12.0878 17.6561 12.2835 17.682 12.6794C17.7141 13.1764 17.4898 13.4686 17.1135 13.533C16.6729 13.608 16.2949 13.3051 16.2698 12.8439C16.2564 12.624 16.2672 12.4006 16.2672 12.2433Z" fill="#001042" stroke="#FFB217" stroke-width="0.0836976" stroke-miterlimit="10"/>
</svg>
