<svg width="75" height="63" viewBox="0 0 75 63" fill="none" xmlns="http://www.w3.org/2000/svg">
<path d="M35.3859 52.4507L0 37.3198V41.1388L31.9053 59.7502L35.3859 52.4507Z" fill="url(#paint0_linear_4957_6002)"/>
<path d="M63.8091 40.9454V37.2715L31.9038 54.9644V59.7502L63.8091 40.9454Z" fill="url(#paint1_linear_4957_6002)"/>
<circle cx="52.3017" cy="40.415" r="22.5849" fill="#0082F8" fill-opacity="0.15"/>
<path d="M0 37.3199L31.9053 55.883L63.8106 37.2716L32.002 18.7085L0 37.3199Z" fill="url(#paint2_linear_4957_6002)"/>
<path opacity="0.3" fill-rule="evenodd" clip-rule="evenodd" d="M20.448 47.6163L26.5874 49.1149L29.7779 46.5528C30.4063 46.5528 31.0831 46.5528 31.8082 46.5045L34.6604 49.1149L40.9931 47.713L40.0746 44.7159C40.6547 44.4258 41.1865 44.1358 41.7182 43.7974L47.0358 44.5225L49.9362 41.0903L45.4888 39.4466C45.5855 39.0599 45.5855 38.6248 45.5372 38.1898L50.2263 36.5945L47.8576 33.1139L42.4433 33.694C41.9599 33.3556 41.4282 33.0656 40.8964 32.8239L42.2983 29.8267L36.159 28.3281L32.8234 31.0836C32.0983 31.0352 31.3732 31.0836 30.648 31.0836L27.8926 28.3765L21.4632 29.8267L22.6234 32.8722C22.0916 33.1139 21.5599 33.404 21.0281 33.7424L15.6622 33.0172L12.8101 36.4495L17.4508 38.1414C17.3542 38.5282 17.3542 38.9632 17.4025 39.3983L12.7134 40.9936L15.0821 44.5225L20.3997 43.8457C20.8831 44.1841 21.3665 44.4741 21.8982 44.7642L20.448 47.6163Z" fill="white"/>
<path fill-rule="evenodd" clip-rule="evenodd" d="M20.8362 40.4617L26.9272 41.9603L30.1177 39.3499C30.7462 39.3499 31.4229 39.3499 32.1481 39.3016L35.0002 41.912L41.3329 40.5101C41.3329 40.5101 41.3813 38.1414 41.4296 36.4978L47.3756 37.3196L50.2277 33.839L50.2761 29.4883L50.4211 29.4399L50.5661 21.8503L42.5415 22.6238V15.0825L36.3538 21.0769L28.5708 21.1252L21.8514 15.0342L21.803 22.5754L13.1499 21.7536V26.2977V33.7906L15.3736 37.1745L20.8362 36.4978V40.4617Z" fill="url(#paint3_linear_4957_6002)"/>
<path fill-rule="evenodd" clip-rule="evenodd" d="M21.0295 32.8722L27.1206 34.3708L30.3111 31.7603C30.9395 31.7603 31.6163 31.7603 32.3414 31.712L35.1452 34.3224L41.4296 32.9205L40.4628 29.9717C41.0429 29.6817 41.5746 29.3916 42.1064 29.0532L47.4239 29.7783L50.2761 26.3461L45.877 24.6542C45.9737 24.2674 45.9737 23.8324 45.9254 23.3973L50.5661 21.802L48.1974 18.3214L42.7832 18.9499C42.2998 18.6115 41.768 18.3214 41.2362 18.0797L42.6381 15.0826L36.5955 13.5356L33.2599 16.2911C32.5348 16.2428 31.8097 16.2911 31.0846 16.2911L28.3291 13.584L21.948 14.9859L23.1082 18.0314C22.5765 18.2731 22.0447 18.5631 21.513 18.9015L16.002 18.3214L13.1499 21.7537L17.984 23.3006C17.8874 23.6873 17.8874 24.1224 17.9357 24.5575L13.2949 26.1527L15.6637 29.6817L20.9812 29.0049C21.4646 29.3433 21.948 29.6333 22.4798 29.9234L21.0295 32.8722Z" fill="url(#paint4_linear_4957_6002)"/>
<path fill-rule="evenodd" clip-rule="evenodd" d="M20.8362 27.0233L26.9755 28.5219L30.1661 25.9114C30.7945 25.9114 31.4713 25.9114 32.1964 25.8631L35.0485 28.4735L41.3813 27.0716C41.3813 27.0716 41.4296 24.7029 41.478 23.0593L47.4239 23.8811L50.1794 20.5455V15.9531L50.7112 15.8564V8.3635L42.5415 9.13696V1.45068L36.4021 7.5417L28.4741 7.59004L21.803 1.54737V8.99194L13.1499 8.07345V12.7626V20.3038L15.4219 23.7361L20.8362 23.0593V27.0233Z" fill="url(#paint5_linear_4957_6002)"/>
<path fill-rule="evenodd" clip-rule="evenodd" d="M21.0295 19.4332L27.1206 20.9318L30.3111 18.3214C30.9395 18.3214 31.6163 18.3214 32.3414 18.273L35.1452 20.8835L41.4296 19.4816L40.5111 16.4844C41.0912 16.1944 41.623 15.9043 42.1547 15.5659L47.4723 16.291L50.3244 12.8588L45.9254 11.2152C46.022 10.8285 46.022 10.3934 45.9737 9.95832L50.7112 8.31472L48.2457 4.83414L42.8799 5.41423C42.2998 5.07585 41.7197 4.73745 41.0912 4.44741L42.5415 1.35356L36.6438 0L33.2599 2.85214C32.5348 2.8038 31.8097 2.8038 31.0846 2.85214L28.1841 0.0966827L21.803 1.54692L23.1082 4.59243C22.5765 4.88248 22.0447 5.12419 21.513 5.46258L16.002 4.68911L13.1499 8.12135L17.984 9.90998C17.8874 10.2967 17.839 10.6834 17.8874 11.1185L13.2466 12.7138L15.6153 16.2427L20.9329 15.5659C21.4163 15.9043 21.8997 16.1944 22.4314 16.4844L21.0295 19.4332Z" fill="url(#paint6_linear_4957_6002)"/>
<path opacity="0.6" fill-rule="evenodd" clip-rule="evenodd" d="M27.8454 8.16971C30.3108 6.91283 33.2113 6.91283 35.6767 8.16971C37.8521 9.47492 37.8521 11.5053 35.6767 12.8105C33.2113 14.1157 30.3108 14.1157 27.8454 12.8105C25.67 11.5536 25.67 9.47492 27.8454 8.16971Z" fill="#818696"/>
<path fill-rule="evenodd" clip-rule="evenodd" d="M29.0043 8.8948C30.6963 8.02465 32.7266 8.02465 34.4669 8.8948C35.9655 9.76494 35.9655 11.2152 34.4669 12.1337C32.7749 13.0038 30.7446 13.0038 29.0043 12.1337C27.5057 11.2152 27.5057 9.76494 29.0043 8.8948Z" fill="url(#paint7_linear_4957_6002)"/>
<path fill-rule="evenodd" clip-rule="evenodd" d="M47.1306 19.1915V19.4815C47.1306 19.3849 47.1306 19.2882 47.1306 19.1915C45.6321 22.0436 43.6501 25.1858 38.3325 26.7811C39.0576 35.0958 41.5714 38.383 43.6984 39.5916L46.3088 41.1385L46.8406 40.365L58.5876 18.0313C58.5876 18.0313 56.9923 17.1128 55.9288 16.436C50.6596 21.0768 48.6776 20.255 47.1306 19.1915Z" fill="url(#paint8_linear_4957_6002)"/>
<path fill-rule="evenodd" clip-rule="evenodd" d="M47.1306 19.1915V19.4815C47.1306 19.3849 47.1306 19.2882 47.1306 19.1915C45.6321 22.0436 43.6501 25.1858 38.3325 26.7811C40.7012 28.1347 40.9913 28.328 40.9913 28.328L48.5325 28.473L58.6359 18.0313C58.6359 18.0313 57.0406 17.1128 55.9771 16.436C50.6596 21.0768 48.6776 20.255 47.1306 19.1915Z" fill="url(#paint9_linear_4957_6002)"/>
<path fill-rule="evenodd" clip-rule="evenodd" d="M49.7913 20.7384V21.0284C49.7913 20.9317 49.7913 20.8351 49.7913 20.7384C48.2927 23.5905 46.3107 26.7327 40.9932 28.328C42.2984 43.4105 49.5496 41.8636 49.5496 41.8636C49.5496 41.8636 57.8643 33.9356 58.6378 17.9346C53.3686 22.6237 51.3382 21.8019 49.7913 20.7384Z" fill="url(#paint10_linear_4957_6002)"/>
<path d="M47.5679 32.0988L49.5015 33.694L52.257 28.0381" stroke="url(#paint11_linear_4957_6002)" stroke-width="1.71" stroke-linecap="round" stroke-linejoin="round"/>
<defs>
<linearGradient id="paint0_linear_4957_6002" x1="35.3859" y1="54.9984" x2="-1.52532" y2="45.4618" gradientUnits="userSpaceOnUse">
<stop stop-color="#001DAC"/>
<stop offset="1" stop-color="#000F57"/>
</linearGradient>
<linearGradient id="paint1_linear_4957_6002" x1="63.8091" y1="54.9882" x2="30.1269" y2="47.1587" gradientUnits="userSpaceOnUse">
<stop stop-color="#001DAC"/>
<stop offset="1" stop-color="#000F57"/>
</linearGradient>
<linearGradient id="paint2_linear_4957_6002" x1="-4.45686e-07" y1="21.4286" x2="66.4362" y2="32.3164" gradientUnits="userSpaceOnUse">
<stop stop-color="#0082F8"/>
<stop offset="1" stop-color="#1C40F2"/>
</linearGradient>
<linearGradient id="paint3_linear_4957_6002" x1="50.2654" y1="28.6702" x2="1.01221" y2="28.1985" gradientUnits="userSpaceOnUse">
<stop offset="0.36" stop-color="#E7E9E9"/>
<stop offset="0.53" stop-color="#B1B4C3"/>
<stop offset="0.67" stop-color="#8F92AA"/>
<stop offset="0.74" stop-color="#8285A1"/>
</linearGradient>
<linearGradient id="paint4_linear_4957_6002" x1="52.5614" y1="24.4709" x2="15.0283" y2="23.5324" gradientUnits="userSpaceOnUse">
<stop offset="0.02" stop-color="#CDD3DB"/>
<stop offset="0.92" stop-color="#ACB0C2"/>
</linearGradient>
<linearGradient id="paint5_linear_4957_6002" x1="50.4776" y1="15.1359" x2="0.944815" y2="14.6643" gradientUnits="userSpaceOnUse">
<stop offset="0.36" stop-color="#E7E9E9"/>
<stop offset="0.53" stop-color="#B1B4C3"/>
<stop offset="0.67" stop-color="#8F92AA"/>
<stop offset="0.74" stop-color="#8285A1"/>
</linearGradient>
<linearGradient id="paint6_linear_4957_6002" x1="36.2886" y1="10.5759" x2="-1.32157" y2="9.63729" gradientUnits="userSpaceOnUse">
<stop offset="0.02" stop-color="#CDD3DB"/>
<stop offset="0.92" stop-color="#ACB0C2"/>
</linearGradient>
<linearGradient id="paint7_linear_4957_6002" x1="27.8804" y1="8.57468" x2="35.9129" y2="9.87596" gradientUnits="userSpaceOnUse">
<stop stop-color="#0082F8"/>
<stop offset="1" stop-color="#1C40F2"/>
</linearGradient>
<linearGradient id="paint8_linear_4957_6002" x1="48.4961" y1="19.6132" x2="48.1126" y2="49.2867" gradientUnits="userSpaceOnUse">
<stop stop-color="#989AAD"/>
<stop offset="1" stop-color="#98A0B7"/>
</linearGradient>
<linearGradient id="paint9_linear_4957_6002" x1="54.8313" y1="21.4726" x2="35.6156" y2="27.9504" gradientUnits="userSpaceOnUse">
<stop offset="0.08" stop-color="#CDD3DB"/>
<stop offset="1" stop-color="#ACB0C2"/>
</linearGradient>
<linearGradient id="paint10_linear_4957_6002" x1="65.9113" y1="24.1613" x2="25.0296" y2="42.1334" gradientUnits="userSpaceOnUse">
<stop offset="0.25" stop-color="#E7E9E9"/>
<stop offset="1" stop-color="#98AACD"/>
</linearGradient>
<linearGradient id="paint11_linear_4957_6002" x1="47.5679" y1="28.4519" x2="52.5498" y2="28.8463" gradientUnits="userSpaceOnUse">
<stop stop-color="#0082F8"/>
<stop offset="1" stop-color="#1C40F2"/>
</linearGradient>
</defs>
</svg>
