<svg width="114" height="100" viewBox="0 0 114 100" fill="none" xmlns="http://www.w3.org/2000/svg">
<path d="M44.5797 93.2324C37.1227 93.2324 29.6518 90.1793 24.4319 84.8399C24.2279 84.6288 24.2279 84.2912 24.439 84.0801C24.65 83.8761 24.9877 83.8761 25.1987 84.0872C31.0306 90.0456 39.7819 93.0495 48.0408 91.9239C48.3363 91.8817 48.6036 92.0858 48.6458 92.3812C48.688 92.6767 48.4769 92.944 48.1885 92.9862C46.9926 93.155 45.7826 93.2324 44.5797 93.2324Z" fill="black"/>
<path d="M43.4329 95.9479C43.2148 95.9479 43.0108 95.8142 42.9334 95.5961C42.8279 95.3218 42.9756 95.0123 43.25 94.9067C44.7484 94.358 46.1483 93.5912 47.4146 92.6345C46.0006 91.8325 44.6499 90.911 43.3907 89.8768C43.1655 89.6869 43.1304 89.3492 43.3203 89.1241C43.5102 88.899 43.8479 88.8638 44.073 89.0538C45.48 90.2145 47.0136 91.2346 48.6316 92.0787C48.7864 92.1632 48.8989 92.3179 48.913 92.4938C48.9341 92.6697 48.8637 92.8455 48.7231 92.9581C47.1965 94.2314 45.48 95.2233 43.6158 95.9057C43.5525 95.9338 43.4891 95.9479 43.4329 95.9479Z" fill="black"/>
<path d="M101.548 31.734C101.533 31.734 101.519 31.734 101.505 31.734C101.21 31.7129 100.992 31.4526 101.013 31.1572C101.632 23.7003 98.0583 16.1308 91.9169 11.8607C91.6706 11.6918 91.6144 11.3612 91.7832 11.115C91.952 10.8688 92.2827 10.8125 92.5289 10.9813C98.9798 15.4625 102.729 23.4118 102.082 31.2416C102.054 31.523 101.822 31.734 101.548 31.734Z" fill="black"/>
<path d="M93.8585 17.1509C93.6264 17.1509 93.4083 16.9961 93.345 16.764C92.8244 14.9419 92.1913 13.134 91.4526 11.3894C91.3752 11.1994 91.4104 10.9813 91.5441 10.8266C91.6777 10.6718 91.8958 10.6085 92.0928 10.6648L97.6221 12.2124C97.9106 12.2898 98.0724 12.5853 97.995 12.8737C97.9176 13.1621 97.6221 13.3239 97.3337 13.2466L92.8525 11.9944C93.4294 13.4576 93.9429 14.9631 94.372 16.4755C94.4565 16.7569 94.2876 17.0594 94.0062 17.1368C93.957 17.1438 93.9007 17.1509 93.8585 17.1509Z" fill="black"/>
<path d="M109.405 30.7562C109.384 30.7562 109.37 30.7562 109.349 30.7562C109.054 30.7281 108.843 30.4608 108.871 30.1653C109.363 25.4379 108.568 20.6542 106.57 16.3419C106.444 16.0745 106.563 15.758 106.831 15.6313C107.098 15.5047 107.415 15.6243 107.541 15.8916C109.617 20.3799 110.447 25.3535 109.933 30.2779C109.912 30.5522 109.68 30.7562 109.405 30.7562Z" fill="black"/>
<path d="M34.773 100C34.7378 100 34.7027 100 34.6675 99.993C29.2366 98.9237 24.1223 96.1449 20.2602 92.1773C20.0562 91.9662 20.0562 91.6286 20.2742 91.4175C20.4853 91.2135 20.823 91.2135 21.034 91.4316C24.7414 95.2445 29.6587 97.9177 34.8785 98.9448C35.167 99.0011 35.3569 99.2825 35.3006 99.5709C35.2514 99.8241 35.0263 100 34.773 100Z" fill="black"/>
<path d="M44.5797 93.2324C37.1227 93.2324 29.6518 90.1793 24.4319 84.8399C24.2279 84.6288 24.2279 84.2912 24.439 84.0801C24.65 83.8761 24.9877 83.8761 25.1987 84.0872C31.0306 90.0456 39.7819 93.0495 48.0408 91.9239C48.3363 91.8817 48.6036 92.0858 48.6458 92.3812C48.688 92.6767 48.4769 92.944 48.1885 92.9862C46.9926 93.155 45.7826 93.2324 44.5797 93.2324Z" fill="black"/>
<path d="M43.4329 95.9479C43.2148 95.9479 43.0108 95.8142 42.9334 95.5961C42.8279 95.3218 42.9756 95.0123 43.25 94.9067C44.7484 94.358 46.1483 93.5912 47.4146 92.6345C46.0006 91.8325 44.6499 90.911 43.3907 89.8768C43.1655 89.6869 43.1304 89.3492 43.3203 89.1241C43.5102 88.899 43.8479 88.8638 44.073 89.0538C45.48 90.2145 47.0136 91.2346 48.6316 92.0787C48.7864 92.1632 48.8989 92.3179 48.913 92.4938C48.9341 92.6697 48.8637 92.8455 48.7231 92.9581C47.1965 94.2314 45.48 95.2233 43.6158 95.9057C43.5525 95.9338 43.4891 95.9479 43.4329 95.9479Z" fill="black"/>
<path d="M101.548 31.734C101.533 31.734 101.519 31.734 101.505 31.734C101.21 31.7129 100.992 31.4526 101.013 31.1572C101.632 23.7003 98.0583 16.1308 91.9169 11.8607C91.6706 11.6918 91.6144 11.3612 91.7832 11.115C91.952 10.8688 92.2827 10.8125 92.5289 10.9813C98.9798 15.4625 102.729 23.4118 102.082 31.2416C102.054 31.523 101.822 31.734 101.548 31.734Z" fill="black"/>
<path d="M93.8585 17.1509C93.6264 17.1509 93.4083 16.9961 93.345 16.764C92.8244 14.9419 92.1913 13.134 91.4526 11.3894C91.3752 11.1994 91.4104 10.9813 91.5441 10.8266C91.6777 10.6718 91.8958 10.6085 92.0928 10.6648L97.6221 12.2124C97.9106 12.2898 98.0724 12.5853 97.995 12.8737C97.9176 13.1621 97.6221 13.3239 97.3337 13.2466L92.8525 11.9944C93.4294 13.4576 93.9429 14.9631 94.372 16.4755C94.4565 16.7569 94.2876 17.0594 94.0062 17.1368C93.957 17.1438 93.9007 17.1509 93.8585 17.1509Z" fill="black"/>
<path d="M24.4601 34.752C21.2593 35.8213 18.4243 38.0794 16.9048 41.0974C15.3923 44.1153 15.3008 47.8649 16.9048 50.8336C19.2403 55.153 25.03 57.0805 29.6167 55.3359C34.6114 53.4294 37.6575 47.4287 36.1942 42.2863C34.731 37.1368 28.8499 33.2887 24.4601 34.752ZM30.5382 48.2448C30.088 49.3 29.068 50.2778 28.0409 50.7773C25.7053 51.9169 23.0532 50.9391 21.6744 48.8216C20.2533 46.6479 20.4573 43.7073 21.9276 41.5968C22.6592 40.5487 23.5808 39.7256 24.8682 39.4794C26.0571 39.2543 27.2459 39.4723 28.1816 40.2251C28.7866 40.3306 29.3634 40.5838 29.8418 40.9778C30.7633 41.7446 31.1573 43.2711 31.2347 44.4248C31.3121 45.6911 31.0307 47.084 30.5382 48.2448Z" fill="white"/>
<path d="M48.5473 44.4249C47.2178 44.0239 45.9374 43.3275 45.0581 42.2441C43.834 40.7386 43.5385 38.6071 44.038 36.7288C44.5375 34.8505 45.7545 33.2255 47.2389 31.9733C45.9304 29.8909 44.5093 27.9353 43.018 26.0359C41.21 27.3725 39.4794 28.6387 37.4745 28.7372C35.5399 28.8357 33.6687 27.7735 32.4657 26.261C31.2628 24.7415 30.6648 22.8209 30.4256 20.9004C30.3553 20.7175 30.2568 20.6824 30.1864 20.6753C28.1604 20.5276 26.1274 20.3728 24.1013 20.2251C23.7355 22.1175 22.8702 23.8129 21.5477 25.0369C20.2251 26.261 18.4242 26.9926 16.6233 26.9363C15.8847 26.9152 15.153 26.7604 14.4284 26.6057C13.2466 26.3454 11.9944 26.0288 11.1572 25.1495C9.54628 26.2469 8.0971 27.4147 6.69717 28.6317C7.41472 29.1171 7.71722 29.7925 7.97048 30.4467C8.51216 31.8466 8.92018 33.3802 8.58251 34.8435C8.23076 36.3559 7.09112 37.6081 5.72637 38.3538C4.36161 39.0995 2.79285 39.395 1.24519 39.4864C0.816061 41.7024 0.605016 44.0731 0.534668 46.4509C1.85721 46.9222 3.10941 47.3232 4.24202 47.9845C5.36759 48.6387 6.38061 49.5814 6.88008 50.7844C7.44286 52.1421 7.3092 53.7249 6.71828 55.0686C6.12735 56.4122 5.11434 57.5378 3.96766 58.4664C5.35352 60.7105 6.6831 62.7928 8.04786 64.847C10.1583 63.4611 12.8175 63.032 15.1319 63.7777C15.7088 63.9606 16.2645 64.2209 16.7429 64.6008C17.3338 65.0721 17.77 65.7123 18.1147 66.3876C18.9307 68.0056 19.2403 69.8769 18.98 71.6708C21.4422 72.1632 23.827 72.4798 26.2188 72.6697C26.0781 70.1794 27.1474 67.682 29.1172 66.3173C31.0869 64.9525 33.8938 64.861 35.8776 66.2117C36.8133 66.8519 37.5378 67.7594 38.2343 68.6528C40.394 67.1263 42.5255 65.5716 44.5234 63.8551C43.4049 62.1175 42.2723 60.3799 42.223 58.4242C42.1738 56.3841 43.4049 54.4425 45.1143 53.331C46.8238 52.2265 48.9624 51.8888 50.9884 52.0999C51.6849 49.7291 52.2758 47.4147 52.7682 45.0791C51.2768 44.9595 49.8839 44.8259 48.5473 44.4249ZM35.8213 49.6307C34.9983 51.4456 33.6616 53.0144 32.0577 54.1963C31.1221 54.8857 30.088 55.4414 28.9835 55.8002C24.4531 57.2494 19.1418 54.7028 17.0384 50.4326C15.5048 47.3232 15.5751 43.4682 17.2142 40.415C18.8533 37.3619 22.0261 35.1741 25.4731 34.7379C28.5544 34.344 32.4587 36.0112 34.6817 39.0081C36.9047 42.0049 37.3549 46.2328 35.8213 49.6307Z" fill="#FFB217"/>
<g opacity="0.1294">
<path d="M38.5859 44.6852C38.5367 44.3334 38.4663 43.9817 38.3819 43.637C38.3397 43.5526 38.3045 43.4752 38.2623 43.3908C37.6221 42.1245 36.8553 40.9286 35.983 39.8101C35.8423 39.9085 35.7298 40.0563 35.6805 40.2321C35.5891 40.8301 36.0604 41.3859 36.2081 41.9557C36.7357 43.5315 37.0875 44.2912 36.9187 45.7263C36.9398 46.2751 36.0323 49.3282 35.7438 49.7081C35.3991 50.3764 35.0052 51.0236 34.5479 51.6286C34.4072 51.7974 34.365 51.8677 34.3791 51.8748C34.154 52.0506 33.957 52.2828 33.7319 52.4657C33.2605 52.8667 32.7892 53.2677 32.3108 53.6687C32.1842 53.7601 31.9802 53.9289 31.8325 54.0767C31.9099 53.9641 31.6988 54.1611 31.5089 54.3229C31.4034 54.3932 30.932 54.7168 30.6928 54.8364C29.0326 55.4203 27.3091 55.7439 26.3946 55.7932C25.1775 55.9057 23.9816 55.5962 23.046 55.3781C22.3777 55.1882 21.7938 54.5269 21.0762 54.6606C20.7667 54.738 20.5627 54.9701 20.4783 55.2445C20.5486 55.3218 20.619 55.3922 20.6893 55.4625C20.9355 55.6595 21.1747 55.8635 21.4209 56.0605C22.3073 56.6374 23.2007 57.2212 24.0942 57.7911C25.5715 58.2202 27.1543 58.3046 29.0396 57.9458C29.0045 57.9458 28.9693 57.9529 28.9271 57.9599C30.9109 57.5378 31.53 57.2775 32.9792 56.5248C34.2454 55.7721 35.2655 54.6746 36.0534 53.4295C36.0745 53.3943 36.1026 53.3591 36.1237 53.324C36.1237 53.3169 36.1308 53.3169 36.1308 53.3169C37.0523 52.1632 37.7558 50.8477 38.2482 49.4548C38.7407 47.9282 38.7336 46.2751 38.5859 44.6852Z" fill="black"/>
</g>
<g opacity="0.1294">
<path d="M43.419 60.9075C43.222 60.9215 43.0251 60.9638 42.8562 61.0622C42.603 61.2029 42.4412 61.4351 42.2794 61.6672C42.1316 61.8572 41.9769 62.0401 41.8432 62.2441C41.4493 62.7506 41.3367 62.9687 40.4644 63.8551C39.979 64.3756 39.2192 64.6992 38.9027 65.3464C38.8956 65.3605 38.8956 65.3675 38.8886 65.3816C38.6986 65.4871 38.5157 65.5997 38.3258 65.6982C37.9741 65.9163 37.5168 66.0218 37.2706 66.3735C36.5038 67.281 37.6927 68.6176 38.6986 67.9986C39.7468 67.4428 40.7317 66.7815 41.6181 65.9866C41.6603 65.9444 41.7025 65.8952 41.7518 65.853C42.4412 65.2972 43.1095 64.7203 43.7285 64.0872C43.9537 63.848 44.221 63.5666 44.4391 63.2641C44.2069 62.7998 44.0099 62.3215 43.827 61.8431C43.6723 61.5406 43.5386 61.224 43.419 60.9075Z" fill="black"/>
</g>
<g opacity="0.1294">
<path d="M50.2497 44.9666C49.8487 46.5001 49.3985 48.0197 48.9061 49.5322C48.6809 50.2286 48.4558 50.9391 48.2307 51.6426C48.498 51.9732 48.9553 52.1632 49.3774 52.0295C49.3985 52.0225 49.4196 52.0084 49.4407 52.0014C49.8065 52.5149 50.7632 52.4516 50.9462 51.7341C51.0376 51.4034 51.1783 51.0728 51.2909 50.7421C51.3612 50.707 51.4386 50.6648 51.5019 50.6085C51.9381 50.2919 52.0577 49.694 52.2195 49.2085C52.4586 48.2237 52.5923 47.2107 52.6345 46.2047C52.6345 46.1484 52.6415 46.0851 52.6486 46.0218C51.8396 45.6841 51.0376 45.3324 50.2497 44.9666Z" fill="black"/>
</g>
<path d="M26.2188 73.2043C26.2047 73.2043 26.1906 73.2043 26.1766 73.2043C23.644 73.0073 21.2592 72.6767 18.8744 72.1983C18.593 72.1421 18.4101 71.8747 18.4523 71.5933C18.6986 69.912 18.4101 68.1463 17.6363 66.6268C17.2775 65.9092 16.8765 65.3816 16.4122 65.0158C16.0394 64.7133 15.5681 64.4741 14.9701 64.2842C12.8385 63.5947 10.3623 63.9746 8.35033 65.2901C8.10411 65.4519 7.77348 65.3816 7.61167 65.1354C6.25395 63.1164 4.91734 61.027 3.51741 58.7478C3.37671 58.5156 3.42596 58.2201 3.637 58.0513C4.86106 57.0664 5.73338 55.9901 6.23285 54.8575C6.8097 53.549 6.86598 52.135 6.38762 50.9883C5.86704 49.7432 4.79071 48.9201 3.97467 48.4417C3.02497 47.9001 1.96975 47.5272 0.85121 47.1333L0.358773 46.9574C0.140693 46.88 -0.00703814 46.669 -3.31679e-06 46.4368C0.0773797 43.8269 0.316564 41.4562 0.717549 39.3879C0.766792 39.1487 0.970802 38.9729 1.20999 38.9588C2.95462 38.8533 4.34752 38.5015 5.46605 37.8895C6.79564 37.1579 7.76644 35.976 8.05487 34.7238C8.38551 33.3098 7.91417 31.7973 7.46394 30.6366C7.23179 30.0386 6.97854 29.4688 6.39465 29.0678C6.26099 28.9764 6.16954 28.8216 6.1625 28.6598C6.15547 28.491 6.21878 28.3362 6.34541 28.2237C7.95638 26.8167 9.39149 25.6982 10.8547 24.6992C11.0728 24.5515 11.3612 24.5796 11.5441 24.7766C12.2617 25.5293 13.3662 25.8248 14.541 26.078C15.2867 26.2398 15.955 26.3805 16.6374 26.4016C18.2624 26.4509 19.9156 25.8107 21.1818 24.6429C22.3918 23.5244 23.2149 21.9627 23.5737 20.1266C23.6229 19.8593 23.8692 19.6764 24.1365 19.6975L30.2216 20.1477C30.5452 20.1688 30.7985 20.3798 30.9251 20.7175C30.9391 20.7597 30.9462 20.7949 30.9532 20.8371C31.2135 22.9335 31.8677 24.65 32.8808 25.9303C34.0626 27.4147 35.8072 28.2799 37.4464 28.2026C39.3176 28.1111 41.0341 26.8378 42.7014 25.5997C42.9335 25.4238 43.2642 25.473 43.44 25.6982C45.1073 27.8297 46.5002 29.7854 47.6891 31.6778C47.8298 31.9029 47.7875 32.1983 47.5835 32.3742C46.5002 33.2887 45.1002 34.8012 44.5515 36.8554C44.0661 38.6704 44.4179 40.5979 45.4661 41.8923C46.1906 42.7857 47.3021 43.4752 48.695 43.8972C49.9754 44.2842 51.312 44.4178 52.8034 44.5374C52.9581 44.5515 53.0988 44.6289 53.1903 44.7485C53.2817 44.868 53.3169 45.0299 53.2888 45.1776C52.8034 47.478 52.2195 49.7854 51.5019 52.2405C51.4316 52.4868 51.1924 52.6486 50.9321 52.6204C48.8498 52.4094 46.8871 52.8104 45.4027 53.7671C43.7566 54.8294 42.7154 56.6443 42.7576 58.396C42.7999 60.1758 43.834 61.7868 44.9314 63.4892L44.9666 63.5455C45.1143 63.7706 45.0651 64.0661 44.8681 64.242C42.7928 66.0147 40.598 67.6116 38.5368 69.0678C38.3046 69.2296 37.981 69.1874 37.8051 68.9623C37.179 68.1603 36.4685 67.2458 35.5681 66.6338C33.8164 65.4379 31.2276 65.4871 29.4196 66.7393C27.6609 67.9563 26.6127 70.2638 26.7534 72.6204C26.7605 72.7752 26.7042 72.9229 26.5916 73.0355C26.4931 73.148 26.3595 73.2043 26.2188 73.2043ZM19.5638 71.2416C21.5617 71.6215 23.5667 71.9029 25.6701 72.0858C25.7052 69.5532 26.8801 67.2106 28.8146 65.874C31.0165 64.3545 34.0415 64.3053 36.1801 65.7685C37.0594 66.3665 37.7418 67.1614 38.3398 67.9212C40.1407 66.6408 42.026 65.262 43.8199 63.7495C42.7647 62.0963 41.7376 60.3869 41.6884 58.4312C41.6391 56.3207 42.8702 54.1399 44.8259 52.8807C46.4017 51.8607 48.4347 51.3964 50.5944 51.53C51.1924 49.4688 51.6919 47.5061 52.114 45.5645C50.8336 45.4519 49.5814 45.2972 48.3925 44.9384C46.7956 44.453 45.5012 43.637 44.643 42.5817C43.3837 41.027 42.9546 38.7337 43.5244 36.5951C43.9817 34.8856 45.0229 33.2606 46.5424 31.8818C45.5012 30.2638 44.3123 28.5895 42.9194 26.7886C41.2592 28.0126 39.5287 29.1804 37.5026 29.2859C35.5329 29.3914 33.4365 28.3573 32.0436 26.6057C30.9391 25.2128 30.2286 23.3978 29.9191 21.2099L24.5234 20.809C24.0802 22.6732 23.1797 24.2701 21.9064 25.4449C20.4362 26.8026 18.5016 27.5483 16.6022 27.485C15.8283 27.4639 15.0756 27.3091 14.3088 27.1403C13.1692 26.8941 11.9944 26.5845 11.1009 25.8459C9.93317 26.6549 8.77946 27.5624 7.51319 28.6387C7.99859 29.1452 8.25184 29.7291 8.46289 30.2638C8.96236 31.5652 9.48997 33.2817 9.09602 34.9771C8.73021 36.5459 7.59761 37.9528 5.9796 38.8392C4.81182 39.4794 3.40485 39.8663 1.68835 40.007C1.36475 41.8149 1.16074 43.8621 1.07632 46.0921L1.19592 46.1343C2.3637 46.5423 3.46816 46.9363 4.50228 47.5342C5.45902 48.09 6.73232 49.0749 7.36546 50.5944C7.95638 52.0084 7.89307 53.7249 7.20365 55.3007C6.69011 56.4755 5.8389 57.58 4.66408 58.593C5.87407 60.5487 7.03482 62.3637 8.2026 64.1294C10.3975 62.8631 13.0074 62.5395 15.2867 63.2782C16.0042 63.5103 16.5881 63.8058 17.0665 64.1927C17.6504 64.657 18.1498 65.3042 18.579 66.1625C19.3739 67.7101 19.7186 69.497 19.5638 71.2416Z" fill="black"/>
<path d="M25.9443 51.7692C24.1434 51.7692 22.3144 50.7703 21.2943 49.1593C20.218 47.4639 20.0492 45.1565 20.8371 43.1516C21.3717 41.7939 22.2933 40.6542 23.4399 39.9437C24.7062 39.1558 26.2117 38.9096 27.5624 39.2754C29.0959 39.6905 30.2426 40.3658 30.9672 41.2944C31.8395 42.4129 32.3109 43.9043 32.3038 45.5083C32.2968 46.5987 32.0717 47.5343 31.6214 48.2941C31.2275 48.9624 30.6788 49.4689 30.1934 49.8839C28.9693 50.9251 27.8719 51.5019 26.7463 51.6989C26.486 51.7481 26.2187 51.7692 25.9443 51.7692ZM26.3102 40.1899C25.5223 40.1899 24.7062 40.4221 24.0027 40.8582C23.053 41.4492 22.2862 42.4059 21.836 43.5526C21.1677 45.248 21.3084 47.1826 22.2018 48.5965C23.1445 50.0879 24.9454 50.9391 26.5704 50.6507C27.499 50.4889 28.4347 49.9894 29.504 49.0749C29.919 48.7232 30.3904 48.287 30.6999 47.7594C31.0516 47.1685 31.2275 46.4087 31.2345 45.5153C31.2416 44.1576 30.8476 42.8913 30.123 41.9697C29.5462 41.2311 28.5894 40.6753 27.288 40.3236C26.9785 40.2321 26.6478 40.1899 26.3102 40.1899Z" fill="black"/>
<path d="M26.3313 56.7428C22.3989 56.7428 18.382 54.3791 16.56 50.6717C14.949 47.4005 15.0193 43.3766 16.7429 40.1617C18.4664 36.9538 21.7868 34.6675 25.4027 34.2032C28.7865 33.7741 32.8667 35.6594 35.1108 38.6844C37.4675 41.8641 37.9318 46.2468 36.3067 49.8487C35.4696 51.6988 34.1118 53.345 32.3672 54.6253C31.3261 55.3851 30.2427 55.9549 29.1382 56.3066C28.2307 56.6021 27.281 56.7428 26.3313 56.7428ZM26.4087 35.2162C26.1132 35.2162 25.8248 35.2373 25.5364 35.2725C22.2582 35.6946 19.2473 37.7628 17.6855 40.6753C16.1238 43.5877 16.0535 47.2387 17.5167 50.2004C19.5638 54.351 24.6289 56.6373 28.8146 55.2936C29.8065 54.9771 30.7914 54.4635 31.7341 53.7671C33.3239 52.5993 34.5691 51.0938 35.3289 49.4125C36.778 46.2046 36.3419 42.1526 34.2455 39.3246C32.4165 36.8483 29.2367 35.2162 26.4087 35.2162Z" fill="black"/>
<path d="M48.5473 44.4249C47.2178 44.0239 45.9374 43.3275 45.0581 42.2441C43.834 40.7386 43.5385 38.6071 44.038 36.7288C44.5375 34.8505 45.7545 33.2255 47.2389 31.9733C45.9304 29.8909 44.5093 27.9353 43.018 26.0359C41.21 27.3725 39.4794 28.6387 37.4745 28.7372C35.5399 28.8357 33.6687 27.7735 32.4657 26.261C31.2628 24.7415 30.6648 22.8209 30.4256 20.9004C30.3553 20.7175 30.2568 20.6824 30.1864 20.6753C28.1604 20.5276 26.1274 20.3728 24.1013 20.2251C23.7355 22.1175 22.8702 23.8129 21.5477 25.0369C20.2251 26.261 18.4242 26.9926 16.6233 26.9363C15.8847 26.9152 15.153 26.7604 14.4284 26.6057C13.2466 26.3454 11.9944 26.0288 11.1572 25.1495C9.54628 26.2469 8.0971 27.4147 6.69717 28.6317C7.41472 29.1171 7.71722 29.7925 7.97048 30.4467C8.51216 31.8466 8.92018 33.3802 8.58251 34.8435C8.23076 36.3559 7.09112 37.6081 5.72637 38.3538C4.36161 39.0995 2.79285 39.395 1.24519 39.4864C0.816061 41.7024 0.605016 44.0731 0.534668 46.4509C1.85721 46.9222 3.10941 47.3232 4.24202 47.9845C5.36759 48.6387 6.38061 49.5814 6.88008 50.7844C7.44286 52.1421 7.3092 53.7249 6.71828 55.0686C6.12735 56.4122 5.11434 57.5378 3.96766 58.4664C5.35352 60.7105 6.6831 62.7928 8.04786 64.847C10.1583 63.4611 12.8175 63.032 15.1319 63.7777C15.7088 63.9606 16.2645 64.2209 16.7429 64.6008C17.3338 65.0721 17.77 65.7123 18.1147 66.3876C18.9307 68.0056 19.2403 69.8769 18.98 71.6708C21.4422 72.1632 23.827 72.4798 26.2188 72.6697C26.0781 70.1794 27.1474 67.682 29.1172 66.3173C31.0869 64.9525 33.8938 64.861 35.8776 66.2117C36.8133 66.8519 37.5378 67.7594 38.2343 68.6528C40.394 67.1263 42.5255 65.5716 44.5234 63.8551C43.4049 62.1175 42.2723 60.3799 42.223 58.4242C42.1738 56.3841 43.4049 54.4425 45.1143 53.331C46.8238 52.2265 48.9624 51.8888 50.9884 52.0999C51.6849 49.7291 52.2758 47.4147 52.7682 45.0791C51.2768 44.9595 49.8839 44.8259 48.5473 44.4249ZM35.8213 49.6307C34.9983 51.4456 33.6616 53.0144 32.0577 54.1963C31.1221 54.8857 30.088 55.4414 28.9835 55.8002C24.4531 57.2494 19.1418 54.7028 17.0384 50.4326C15.5048 47.3232 15.5751 43.4682 17.2142 40.415C18.8533 37.3619 22.0261 35.1741 25.4731 34.7379C28.5544 34.344 32.4587 36.0112 34.6817 39.0081C36.9047 42.0049 37.3549 46.2328 35.8213 49.6307Z" fill="#FFB217"/>
<g opacity="0.1294">
<path d="M38.5859 44.6852C38.5367 44.3334 38.4663 43.9817 38.3819 43.637C38.3397 43.5526 38.3045 43.4752 38.2623 43.3908C37.6221 42.1245 36.8553 40.9286 35.983 39.8101C35.8423 39.9085 35.7298 40.0563 35.6805 40.2321C35.5891 40.8301 36.0604 41.3859 36.2081 41.9557C36.7357 43.5315 37.0875 44.2912 36.9187 45.7263C36.9398 46.2751 36.0323 49.3282 35.7438 49.7081C35.3991 50.3764 35.0052 51.0236 34.5479 51.6286C34.4072 51.7974 34.365 51.8677 34.3791 51.8748C34.154 52.0506 33.957 52.2828 33.7319 52.4657C33.2605 52.8667 32.7892 53.2677 32.3108 53.6687C32.1842 53.7601 31.9802 53.9289 31.8325 54.0767C31.9099 53.9641 31.6988 54.1611 31.5089 54.3229C31.4034 54.3932 30.932 54.7168 30.6928 54.8364C29.0326 55.4203 27.3091 55.7439 26.3946 55.7932C25.1775 55.9057 23.9816 55.5962 23.046 55.3781C22.3777 55.1882 21.7938 54.5269 21.0762 54.6606C20.7667 54.738 20.5627 54.9701 20.4783 55.2445C20.5486 55.3218 20.619 55.3922 20.6893 55.4625C20.9355 55.6595 21.1747 55.8635 21.4209 56.0605C22.3073 56.6374 23.2007 57.2212 24.0942 57.7911C25.5715 58.2202 27.1543 58.3046 29.0396 57.9458C29.0045 57.9458 28.9693 57.9529 28.9271 57.9599C30.9109 57.5378 31.53 57.2775 32.9792 56.5248C34.2454 55.7721 35.2655 54.6746 36.0534 53.4295C36.0745 53.3943 36.1026 53.3591 36.1237 53.324C36.1237 53.3169 36.1308 53.3169 36.1308 53.3169C37.0523 52.1632 37.7558 50.8477 38.2482 49.4548C38.7407 47.9282 38.7336 46.2751 38.5859 44.6852Z" fill="black"/>
</g>
<g opacity="0.1294">
<path d="M43.419 60.9075C43.222 60.9215 43.0251 60.9638 42.8562 61.0622C42.603 61.2029 42.4412 61.4351 42.2794 61.6672C42.1316 61.8572 41.9769 62.0401 41.8432 62.2441C41.4493 62.7506 41.3367 62.9687 40.4644 63.8551C39.979 64.3756 39.2192 64.6992 38.9027 65.3464C38.8956 65.3605 38.8956 65.3675 38.8886 65.3816C38.6986 65.4871 38.5157 65.5997 38.3258 65.6982C37.9741 65.9163 37.5168 66.0218 37.2706 66.3735C36.5038 67.281 37.6927 68.6176 38.6986 67.9986C39.7468 67.4428 40.7317 66.7815 41.6181 65.9866C41.6603 65.9444 41.7025 65.8952 41.7518 65.853C42.4412 65.2972 43.1095 64.7203 43.7285 64.0872C43.9537 63.848 44.221 63.5666 44.4391 63.2641C44.2069 62.7998 44.0099 62.3215 43.827 61.8431C43.6723 61.5406 43.5386 61.224 43.419 60.9075Z" fill="black"/>
</g>
<g opacity="0.1294">
<path d="M50.2497 44.9666C49.8487 46.5001 49.3985 48.0197 48.9061 49.5322C48.6809 50.2286 48.4558 50.9391 48.2307 51.6426C48.498 51.9732 48.9553 52.1632 49.3774 52.0295C49.3985 52.0225 49.4196 52.0084 49.4407 52.0014C49.8065 52.5149 50.7632 52.4516 50.9462 51.7341C51.0376 51.4034 51.1783 51.0728 51.2909 50.7421C51.3612 50.707 51.4386 50.6648 51.5019 50.6085C51.9381 50.2919 52.0577 49.694 52.2195 49.2085C52.4586 48.2237 52.5923 47.2107 52.6345 46.2047C52.6345 46.1484 52.6415 46.0851 52.6486 46.0218C51.8396 45.6841 51.0376 45.3324 50.2497 44.9666Z" fill="black"/>
</g>
<path d="M26.2188 73.2043C26.2047 73.2043 26.1906 73.2043 26.1766 73.2043C23.644 73.0073 21.2592 72.6767 18.8744 72.1983C18.593 72.1421 18.4101 71.8747 18.4523 71.5933C18.6986 69.912 18.4101 68.1463 17.6363 66.6268C17.2775 65.9092 16.8765 65.3816 16.4122 65.0158C16.0394 64.7133 15.5681 64.4741 14.9701 64.2842C12.8385 63.5947 10.3623 63.9746 8.35033 65.2901C8.10411 65.4519 7.77348 65.3816 7.61167 65.1354C6.25395 63.1164 4.91734 61.027 3.51741 58.7478C3.37671 58.5156 3.42596 58.2201 3.637 58.0513C4.86106 57.0664 5.73338 55.9901 6.23285 54.8575C6.8097 53.549 6.86598 52.135 6.38762 50.9883C5.86704 49.7432 4.79071 48.9201 3.97467 48.4417C3.02497 47.9001 1.96975 47.5272 0.85121 47.1333L0.358773 46.9574C0.140693 46.88 -0.00703814 46.669 -3.31679e-06 46.4368C0.0773797 43.8269 0.316564 41.4562 0.717549 39.3879C0.766792 39.1487 0.970802 38.9729 1.20999 38.9588C2.95462 38.8533 4.34752 38.5015 5.46605 37.8895C6.79564 37.1579 7.76644 35.976 8.05487 34.7238C8.38551 33.3098 7.91417 31.7973 7.46394 30.6366C7.23179 30.0386 6.97854 29.4688 6.39465 29.0678C6.26099 28.9764 6.16954 28.8216 6.1625 28.6598C6.15547 28.491 6.21878 28.3362 6.34541 28.2237C7.95638 26.8167 9.39149 25.6982 10.8547 24.6992C11.0728 24.5515 11.3612 24.5796 11.5441 24.7766C12.2617 25.5293 13.3662 25.8248 14.541 26.078C15.2867 26.2398 15.955 26.3805 16.6374 26.4016C18.2624 26.4509 19.9156 25.8107 21.1818 24.6429C22.3918 23.5244 23.2149 21.9627 23.5737 20.1266C23.6229 19.8593 23.8692 19.6764 24.1365 19.6975L30.2216 20.1477C30.5452 20.1688 30.7985 20.3798 30.9251 20.7175C30.9391 20.7597 30.9462 20.7949 30.9532 20.8371C31.2135 22.9335 31.8677 24.65 32.8808 25.9303C34.0626 27.4147 35.8072 28.2799 37.4464 28.2026C39.3176 28.1111 41.0341 26.8378 42.7014 25.5997C42.9335 25.4238 43.2642 25.473 43.44 25.6982C45.1073 27.8297 46.5002 29.7854 47.6891 31.6778C47.8298 31.9029 47.7875 32.1983 47.5835 32.3742C46.5002 33.2887 45.1002 34.8012 44.5515 36.8554C44.0661 38.6704 44.4179 40.5979 45.4661 41.8923C46.1906 42.7857 47.3021 43.4752 48.695 43.8972C49.9754 44.2842 51.312 44.4178 52.8034 44.5374C52.9581 44.5515 53.0988 44.6289 53.1903 44.7485C53.2817 44.868 53.3169 45.0299 53.2888 45.1776C52.8034 47.478 52.2195 49.7854 51.5019 52.2405C51.4316 52.4868 51.1924 52.6486 50.9321 52.6204C48.8498 52.4094 46.8871 52.8104 45.4027 53.7671C43.7566 54.8294 42.7154 56.6443 42.7576 58.396C42.7999 60.1758 43.834 61.7868 44.9314 63.4892L44.9666 63.5455C45.1143 63.7706 45.0651 64.0661 44.8681 64.242C42.7928 66.0147 40.598 67.6116 38.5368 69.0678C38.3046 69.2296 37.981 69.1874 37.8051 68.9623C37.179 68.1603 36.4685 67.2458 35.5681 66.6338C33.8164 65.4379 31.2276 65.4871 29.4196 66.7393C27.6609 67.9563 26.6127 70.2638 26.7534 72.6204C26.7605 72.7752 26.7042 72.9229 26.5916 73.0355C26.4931 73.148 26.3595 73.2043 26.2188 73.2043ZM19.5638 71.2416C21.5617 71.6215 23.5667 71.9029 25.6701 72.0858C25.7052 69.5532 26.8801 67.2106 28.8146 65.874C31.0165 64.3545 34.0415 64.3053 36.1801 65.7685C37.0594 66.3665 37.7418 67.1614 38.3398 67.9212C40.1407 66.6408 42.026 65.262 43.8199 63.7495C42.7647 62.0963 41.7376 60.3869 41.6884 58.4312C41.6391 56.3207 42.8702 54.1399 44.8259 52.8807C46.4017 51.8607 48.4347 51.3964 50.5944 51.53C51.1924 49.4688 51.6919 47.5061 52.114 45.5645C50.8336 45.4519 49.5814 45.2972 48.3925 44.9384C46.7956 44.453 45.5012 43.637 44.643 42.5817C43.3837 41.027 42.9546 38.7337 43.5244 36.5951C43.9817 34.8856 45.0229 33.2606 46.5424 31.8818C45.5012 30.2638 44.3123 28.5895 42.9194 26.7886C41.2592 28.0126 39.5287 29.1804 37.5026 29.2859C35.5329 29.3914 33.4365 28.3573 32.0436 26.6057C30.9391 25.2128 30.2286 23.3978 29.9191 21.2099L24.5234 20.809C24.0802 22.6732 23.1797 24.2701 21.9064 25.4449C20.4362 26.8026 18.5016 27.5483 16.6022 27.485C15.8283 27.4639 15.0756 27.3091 14.3088 27.1403C13.1692 26.8941 11.9944 26.5845 11.1009 25.8459C9.93317 26.6549 8.77946 27.5624 7.51319 28.6387C7.99859 29.1452 8.25184 29.7291 8.46289 30.2638C8.96236 31.5652 9.48997 33.2817 9.09602 34.9771C8.73021 36.5459 7.59761 37.9528 5.9796 38.8392C4.81182 39.4794 3.40485 39.8663 1.68835 40.007C1.36475 41.8149 1.16074 43.8621 1.07632 46.0921L1.19592 46.1343C2.3637 46.5423 3.46816 46.9363 4.50228 47.5342C5.45902 48.09 6.73232 49.0749 7.36546 50.5944C7.95638 52.0084 7.89307 53.7249 7.20365 55.3007C6.69011 56.4755 5.8389 57.58 4.66408 58.593C5.87407 60.5487 7.03482 62.3637 8.2026 64.1294C10.3975 62.8631 13.0074 62.5395 15.2867 63.2782C16.0042 63.5103 16.5881 63.8058 17.0665 64.1927C17.6504 64.657 18.1498 65.3042 18.579 66.1625C19.3739 67.7101 19.7186 69.497 19.5638 71.2416Z" fill="black"/>
<path d="M25.9443 51.7692C24.1434 51.7692 22.3144 50.7703 21.2943 49.1593C20.218 47.4639 20.0492 45.1565 20.8371 43.1516C21.3717 41.7939 22.2933 40.6542 23.4399 39.9437C24.7062 39.1558 26.2117 38.9096 27.5624 39.2754C29.0959 39.6905 30.2426 40.3658 30.9672 41.2944C31.8395 42.4129 32.3109 43.9043 32.3038 45.5083C32.2968 46.5987 32.0717 47.5343 31.6214 48.2941C31.2275 48.9624 30.6788 49.4689 30.1934 49.8839C28.9693 50.9251 27.8719 51.5019 26.7463 51.6989C26.486 51.7481 26.2187 51.7692 25.9443 51.7692ZM26.3102 40.1899C25.5223 40.1899 24.7062 40.4221 24.0027 40.8582C23.053 41.4492 22.2862 42.4059 21.836 43.5526C21.1677 45.248 21.3084 47.1826 22.2018 48.5965C23.1445 50.0879 24.9454 50.9391 26.5704 50.6507C27.499 50.4889 28.4347 49.9894 29.504 49.0749C29.919 48.7232 30.3904 48.287 30.6999 47.7594C31.0516 47.1685 31.2275 46.4087 31.2345 45.5153C31.2416 44.1576 30.8476 42.8913 30.123 41.9697C29.5462 41.2311 28.5894 40.6753 27.288 40.3236C26.9785 40.2321 26.6478 40.1899 26.3102 40.1899Z" fill="black"/>
<path d="M26.3313 56.7428C22.3989 56.7428 18.382 54.3791 16.56 50.6717C14.949 47.4005 15.0193 43.3766 16.7429 40.1617C18.4664 36.9538 21.7868 34.6675 25.4027 34.2032C28.7865 33.7741 32.8667 35.6594 35.1108 38.6844C37.4675 41.8641 37.9318 46.2468 36.3067 49.8487C35.4696 51.6988 34.1118 53.345 32.3672 54.6253C31.3261 55.3851 30.2427 55.9549 29.1382 56.3066C28.2307 56.6021 27.281 56.7428 26.3313 56.7428ZM26.4087 35.2162C26.1132 35.2162 25.8248 35.2373 25.5364 35.2725C22.2582 35.6946 19.2473 37.7628 17.6855 40.6753C16.1238 43.5877 16.0535 47.2387 17.5167 50.2004C19.5638 54.351 24.6289 56.6373 28.8146 55.2936C29.8065 54.9771 30.7914 54.4635 31.7341 53.7671C33.3239 52.5993 34.5691 51.0938 35.3289 49.4125C36.778 46.2046 36.3419 42.1526 34.2455 39.3246C32.4165 36.8483 29.2367 35.2162 26.4087 35.2162Z" fill="black"/>
<path d="M78.6775 12.2757L77.5027 8.41355L79.979 4.93131L73.8868 0.724487C73.0989 2.00483 72.318 3.27813 71.5301 4.55847C71.4879 4.62881 71.4457 4.69916 71.3754 4.74137C71.2839 4.79765 71.1714 4.80468 71.0588 4.79765C69.7011 4.77655 68.3434 4.75544 66.9856 4.72027C66.3173 3.454 65.6701 2.25104 64.9385 1.09733C64.8822 1.00588 64.8119 0.907393 64.7064 0.879253C64.6008 0.851114 64.4953 0.914428 64.4039 0.970706C62.7929 1.93448 61.1749 2.90528 59.5639 3.86905C59.5217 3.89719 59.4795 3.9183 59.4513 3.96051C59.381 4.06603 59.4443 4.19969 59.5006 4.30521C60.1126 5.37451 60.8372 6.38049 61.6603 7.30205C60.9287 8.63866 60.1619 9.88383 59.3247 11.0797C59.1207 11.3682 58.8956 11.6707 58.5579 11.7692C58.2765 11.8536 57.974 11.7762 57.6926 11.6988C56.56 11.3822 55.4345 11.0164 54.323 10.6154C53.3733 12.8455 53.1974 15.3851 53.8164 17.7277C53.9079 17.9035 58.1218 17.3056 58.1218 17.3056L60.6332 21.646L58.6142 24.9454L63.2361 28.301L65.6349 24.8117L69.8699 24.8961L71.502 28.5824L77.8122 26.4086L76.2857 22.6309L78.5579 18.9658L82.8421 18.6211L82.9758 13.4223L78.6775 12.2757ZM71.3965 14.2454C71.4387 14.4283 71.2769 14.7871 71.2065 14.9559C71.1432 15.0966 71.0799 15.2373 70.9955 15.371C70.8337 15.6172 70.6297 15.8494 70.4116 16.0463C69.9614 16.4614 69.4549 16.7639 68.878 16.982C68.6459 17.0664 68.3926 17.1227 68.1534 17.1649C67.9353 17.2 67.7384 17.2211 67.5203 17.2C67.3866 17.186 67.2459 17.1438 67.1123 17.1438C67.4921 17.1438 67.0771 17.1508 66.9294 17.1086C66.2822 16.9257 65.642 16.3981 65.3254 15.8071C65.1355 15.4554 64.9596 15.0544 64.9455 14.6464C64.9315 14.2806 65.03 13.9007 65.1706 13.563C65.3747 13.0776 65.6068 12.5922 65.9093 12.1631C66.247 11.6777 66.6691 11.1712 67.2107 10.9039C67.7595 10.6295 68.3504 10.5873 68.878 10.7913C69.0961 10.6928 69.3493 10.6577 69.5604 10.735C69.9543 10.8828 70.292 11.0727 70.5593 11.3963C70.8266 11.7199 71.0096 12.0294 71.1643 12.4234C71.2136 12.543 71.2558 12.6696 71.2839 12.7962C71.305 12.8666 71.312 12.944 71.3261 13.0214C71.3402 13.1339 71.3613 13.2535 71.3754 13.3731C71.3754 13.345 71.3683 13.3239 71.3683 13.2957C71.3543 13.1972 71.3613 13.1902 71.3754 13.2816C71.3965 13.4012 71.4105 13.5138 71.4246 13.6334C71.4316 13.6897 71.4316 13.753 71.4316 13.8093C71.4457 13.9429 71.4316 14.1047 71.3965 14.2454Z" fill="white"/>
<path d="M60.1124 16.9398C60.0983 16.9398 60.0772 16.9398 60.0632 16.9328C59.9717 16.9046 59.9154 16.8062 59.9436 16.7147C61.1465 12.6064 62.5746 8.50506 64.1785 4.53039C64.2137 4.43893 64.3192 4.39673 64.4107 4.4319C64.5021 4.46707 64.5443 4.5726 64.5092 4.66405C62.9123 8.62465 61.4912 12.7119 60.2883 16.8132C60.2601 16.8906 60.1898 16.9398 60.1124 16.9398Z" fill="black"/>
<path d="M61.9698 17.6081C61.9557 17.6081 61.9346 17.6081 61.9206 17.601C61.8291 17.5729 61.7728 17.4744 61.801 17.3829C62.9125 13.4997 64.3898 9.69388 66.1766 6.07095C66.2189 5.98653 66.3244 5.94432 66.4158 5.98653C66.5073 6.02874 66.5425 6.13426 66.4932 6.22571C64.7134 9.82754 63.2502 13.6123 62.1387 17.4744C62.1176 17.5588 62.0472 17.6081 61.9698 17.6081Z" fill="black"/>
<path d="M61.2732 25.0439C61.2521 25.0439 61.224 25.0369 61.2029 25.0299C61.1114 24.9947 61.0692 24.8892 61.1044 24.7977L64.1716 17.4322C64.2067 17.3408 64.3123 17.2986 64.4037 17.3338C64.4952 17.3689 64.5374 17.4745 64.5022 17.5659L61.435 24.9314C61.4069 25.0017 61.3436 25.0439 61.2732 25.0439Z" fill="black"/>
<path d="M65.2971 23.4682C65.276 23.4682 65.2549 23.4611 65.2268 23.4541C65.1353 23.4189 65.0931 23.3134 65.1283 23.2219L66.8448 18.994C66.88 18.9026 66.9855 18.8603 67.077 18.8955C67.1684 18.9307 67.2106 19.0362 67.1754 19.1277L65.466 23.3556C65.4378 23.4259 65.3675 23.4682 65.2971 23.4682Z" fill="black"/>
<path d="M68.4981 9.52506C68.477 9.52506 68.4629 9.52506 68.4418 9.51803C68.3504 9.48989 68.2941 9.3914 68.3222 9.29291L69.1383 6.69706C69.1664 6.60561 69.2649 6.54933 69.3634 6.57747C69.4548 6.60561 69.5111 6.7041 69.483 6.80259L68.6669 9.39844C68.6458 9.47582 68.5755 9.52506 68.4981 9.52506Z" fill="black"/>
<path d="M71.72 10.2004C71.6989 10.2004 71.6778 10.2004 71.6567 10.1863C71.5653 10.1512 71.516 10.0456 71.5512 9.95419C72.3883 7.73118 73.3451 5.52225 74.4073 3.3907C74.4495 3.29924 74.5551 3.26407 74.6465 3.31331C74.738 3.35552 74.7732 3.46808 74.7239 3.5525C73.6687 5.66998 72.7119 7.87188 71.8818 10.0808C71.8607 10.1582 71.7974 10.2004 71.72 10.2004Z" fill="black"/>
<path d="M68.491 23.5033C68.4629 23.5033 68.4418 23.4963 68.4137 23.4893C68.3222 23.4471 68.287 23.3415 68.3292 23.2501L76.1168 6.81674C76.159 6.72529 76.2645 6.69011 76.356 6.73232C76.4474 6.77453 76.4826 6.88005 76.4404 6.9715L68.6528 23.4049C68.6247 23.4682 68.5614 23.5033 68.491 23.5033Z" fill="black"/>
<path d="M71.6075 24.1716C71.5794 24.1716 71.5583 24.1646 71.5301 24.1576C71.4387 24.1153 71.4035 24.0098 71.4457 23.9184L76.6726 12.733C76.7148 12.6415 76.8203 12.6064 76.9118 12.6486C77.0032 12.6908 77.0384 12.7963 76.9962 12.8878L71.7693 24.0731C71.7412 24.1294 71.6708 24.1716 71.6075 24.1716Z" fill="black"/>
<path d="M77.1787 18.5717C77.1506 18.5717 77.1225 18.5647 77.0943 18.5506C77.0099 18.5014 76.9747 18.3958 77.024 18.3044L79.3244 14.1468C79.3736 14.0624 79.4791 14.0272 79.5706 14.0765C79.655 14.1257 79.6902 14.2312 79.6409 14.3227L77.3405 18.4803C77.2983 18.5365 77.2421 18.5717 77.1787 18.5717Z" fill="black"/>
<path d="M73.317 26.4368C73.2888 26.4368 73.2607 26.4298 73.2396 26.4157C73.1481 26.3735 73.1129 26.261 73.1622 26.1765L74.2033 24.1013C74.2456 24.0098 74.3511 23.9746 74.4425 24.0239C74.534 24.0661 74.5692 24.1787 74.5199 24.2631L73.4788 26.3383C73.4506 26.4017 73.3873 26.4368 73.317 26.4368Z" fill="black"/>
<path d="M55.7369 15.976C55.7088 15.976 55.6806 15.969 55.6595 15.9549C55.5681 15.9127 55.5329 15.8072 55.5751 15.7157L56.9821 12.8244C57.0243 12.733 57.1298 12.6978 57.2212 12.74C57.3127 12.7822 57.3479 12.8877 57.3057 12.9792L55.8987 15.8705C55.8635 15.9409 55.8002 15.976 55.7369 15.976Z" fill="black"/>
<path d="M61.6743 5.07211C61.6462 5.07211 61.6181 5.06507 61.5899 5.051C61.5055 5.00176 61.4703 4.89624 61.5196 4.80479L62.5607 2.94759C62.61 2.86317 62.7155 2.828 62.807 2.87724C62.8914 2.92649 62.9265 3.03201 62.8773 3.12346L61.8361 4.98066C61.7939 5.03693 61.7377 5.07211 61.6743 5.07211Z" fill="black"/>
<g opacity="0.1294">
<path d="M72.6345 15.0193C72.5853 14.3721 71.5863 14.3088 71.4316 14.9349C71.2346 15.547 71.312 15.4414 70.6507 16.0675C70.0176 16.574 70.2427 16.4263 69.2508 16.7851C68.3292 17.0594 68.702 17.0032 67.9212 17.0032C67.8157 16.9821 67.7101 16.9539 67.6046 16.9258C67.2247 16.7851 67.3443 16.8554 66.6197 16.4545C66.3172 16.2997 66.0499 16.0324 65.7052 16.0113C64.65 15.8213 64.1364 17.3408 65.065 17.8614C66.7182 18.987 68.3784 19.4935 70.2708 18.5649C71.2486 18.0373 71.9521 17.1368 72.3109 16.0957C72.4586 15.758 72.6626 15.3922 72.6345 15.0193Z" fill="black"/>
</g>
<g opacity="0.1294">
<path d="M75.4836 25.459C74.8646 25.6841 74.6465 25.8318 73.4787 26.0358C72.923 26.2117 72.2547 26.1202 71.7833 26.479C70.7914 27.1755 71.6145 28.8005 72.7682 28.4558C74.1541 28.1674 75.7439 28.1111 76.8203 27.091C77.6644 26.1413 76.5951 24.9032 75.4836 25.459Z" fill="black"/>
</g>
<g opacity="0.1294">
<path d="M83.7847 16.6655C83.7847 16.6514 83.7917 16.6444 83.7917 16.6303C83.7847 16.6444 83.7847 16.6584 83.7847 16.6655C83.7917 16.4333 83.7355 16.2012 83.6229 16.0042C83.1445 15.1108 81.7376 15.2585 81.4069 16.1801C81.3858 16.2223 81.3647 16.2715 81.3296 16.3348C81.2381 16.5177 81.1748 16.7077 81.1044 16.8976C81.0411 17.0383 80.9567 17.2353 80.9004 17.3478C80.7808 17.5519 80.7246 17.777 80.7175 18.0162C80.7316 19.5357 82.8913 19.8241 83.3063 18.3679C83.5174 17.8966 83.6862 17.4112 83.7495 16.9047C83.7706 16.8202 83.7777 16.7429 83.7847 16.6655Z" fill="black"/>
</g>
<path d="M71.4526 29.0608C71.2346 29.0608 71.0376 28.9271 70.9532 28.7231C70.4889 27.5765 70.0457 26.4931 69.3703 25.4027C68.0619 25.5504 66.7534 25.4801 65.5082 25.3605C65.1424 26.0077 64.7907 26.6619 64.4178 27.3584C64.1997 27.7664 63.9746 28.1815 63.7425 28.6106C63.6158 28.8498 63.3274 28.9483 63.0812 28.8568C61.027 28.0619 59.2332 26.7745 57.9036 25.1354C57.7488 24.9454 57.7418 24.6781 57.8895 24.4811C58.5719 23.5455 59.2754 22.5747 60.0281 21.414C59.2402 20.3939 58.5367 19.1698 57.8895 17.7136C57.6081 17.7699 57.3197 17.8332 57.0313 17.8895C56.0393 18.0935 55.0193 18.3116 53.9078 18.4593C53.6405 18.4945 53.3872 18.3327 53.3169 18.0724C52.6837 15.7791 52.8596 13.1902 53.8374 10.3763C53.9289 10.116 54.2033 9.9683 54.4706 10.0316C55.8635 10.3763 57.2564 10.721 58.7266 11.0728C59.3176 9.85574 60.0351 8.70906 60.7949 7.52018C60.1195 6.62676 59.3668 5.59264 58.6915 4.38968C58.5719 4.1716 58.6141 3.89725 58.804 3.72841C60.3306 2.37069 62.2511 1.1818 64.5163 0.210999C64.7696 0.105477 65.058 0.203964 65.1916 0.436114C65.874 1.625 66.4931 2.87016 67.0348 4.13643C68.4347 3.92539 69.8487 3.87614 71.2627 3.9887C71.9029 2.78574 72.5712 1.54762 73.4083 0.253208C73.5561 0.021059 73.8585 -0.0563241 74.1048 0.0632679C75.765 0.907447 77.3337 1.93453 78.7618 3.11638C79.1487 3.43295 79.5216 3.76358 79.9015 4.09422C80.0984 4.26306 80.3376 4.4741 80.422 4.80474C80.4642 4.95247 80.4361 5.11427 80.3447 5.2409C80.0211 5.71926 79.6834 6.1906 79.3387 6.66897C78.8814 7.30913 78.4171 7.97041 77.9247 8.69499C78.3397 9.70097 78.7548 10.7351 79.1417 11.7692C80.3447 11.8818 81.8782 12.121 83.5174 12.7822C83.7073 12.8596 83.841 13.0425 83.855 13.2465C83.9817 15.364 83.7003 17.2986 82.9827 19.1558C82.8983 19.3668 82.7084 19.5146 82.4621 19.5005L81.9908 19.4794C80.9356 19.4372 79.8452 19.395 78.6774 19.4794C78.2272 20.5276 77.5589 21.5758 76.6021 22.7435C77.2212 23.8199 77.8543 24.9454 78.4171 26.268C78.5226 26.5212 78.4171 26.8167 78.1779 26.9504C75.9971 28.1111 73.753 28.8216 71.5089 29.0538C71.4878 29.0538 71.4667 29.0608 71.4526 29.0608ZM69.6377 24.2912C69.8135 24.2912 69.9824 24.3827 70.0879 24.5304C70.8476 25.6771 71.3401 26.8237 71.7973 27.9423C73.6194 27.7031 75.4484 27.1262 77.2423 26.2328C76.7006 25.0369 76.0886 23.9817 75.4977 22.9616C75.3851 22.7646 75.4062 22.5184 75.5539 22.3496C76.6654 21.0411 77.383 19.9085 77.8121 18.7829C77.8825 18.593 78.0583 18.4593 78.2623 18.4453C79.613 18.3186 80.8441 18.3679 82.033 18.4171H82.1174C82.645 16.9117 82.8702 15.3499 82.8068 13.6545C81.2592 13.0777 79.817 12.9018 78.7196 12.8104C78.5086 12.7963 78.3327 12.6556 78.2623 12.4586C77.8192 11.2486 77.3197 10.0246 76.8343 8.84273C76.7639 8.68093 76.785 8.49098 76.8835 8.34325C77.4322 7.51314 77.9599 6.76745 78.4734 6.0499C78.7407 5.67706 79.001 5.31125 79.2543 4.94544C79.2332 4.93137 79.2191 4.9173 79.205 4.90323C78.8322 4.57962 78.4664 4.25602 78.0935 3.94649C76.8484 2.91941 75.4906 2.01191 74.0626 1.24512C73.2958 2.46918 72.6697 3.65103 72.0576 4.80474C71.9591 4.99468 71.7481 5.11427 71.53 5.09317C69.9542 4.9384 68.3714 4.99468 66.8167 5.262C66.5705 5.30421 66.3243 5.17055 66.2328 4.9384C65.7333 3.72841 65.1565 2.53953 64.5233 1.39285C62.7154 2.20889 61.1537 3.17266 59.8663 4.24899C60.5276 5.36752 61.2522 6.33833 61.8923 7.16844C62.033 7.34431 62.04 7.59756 61.9205 7.7875C61.02 9.18743 60.1758 10.51 59.5356 11.9169C59.4301 12.1491 59.1698 12.2757 58.9236 12.2194C57.4674 11.8747 56.0886 11.53 54.7168 11.1924C54.0063 13.4294 53.8515 15.4906 54.2595 17.3267C55.153 17.186 56.0042 17.0102 56.8343 16.8413C57.2704 16.7499 57.6996 16.6654 58.1287 16.581C58.3749 16.5318 58.6282 16.6655 58.7266 16.8976C59.4442 18.593 60.2251 19.9507 61.1185 21.0481C61.2662 21.224 61.2803 21.4773 61.1607 21.6742C60.408 22.8702 59.7045 23.848 59.0291 24.7836C60.1125 26.0218 61.4913 27.0137 63.0601 27.689C63.2149 27.4076 63.3626 27.1333 63.5033 26.8589C63.9394 26.0499 64.3475 25.2901 64.7836 24.5304C64.8891 24.3475 65.0932 24.242 65.3042 24.2631C66.6901 24.4038 68.1674 24.5093 69.5954 24.2982C69.5884 24.2912 69.6095 24.2912 69.6377 24.2912Z" fill="black"/>
<path d="M67.696 17.3478C67.1192 17.3478 66.5282 17.2282 65.9866 16.9961C65.5152 16.7921 65.1705 16.5388 64.9454 16.2152C64.6359 15.7791 64.5585 15.2585 64.5233 14.8575C64.4178 13.4646 64.7555 12.1913 65.4871 11.2768C66.3805 10.1583 67.8649 9.66581 69.096 10.0809C69.1804 10.109 69.2507 10.1583 69.307 10.2145C69.314 10.2145 69.314 10.2145 69.3211 10.2216C70.6225 10.6507 71.5863 11.931 71.6707 13.331C71.7481 14.6816 71.0305 16.0253 69.8416 16.7569C69.2015 17.1438 68.4558 17.3478 67.696 17.3478ZM68.1955 11.0095C67.5202 11.0095 66.7956 11.3542 66.3242 11.9451C65.7614 12.6486 65.5012 13.6475 65.5926 14.7731C65.6137 15.0334 65.6559 15.364 65.8177 15.5891C65.9303 15.7509 66.1273 15.8846 66.4157 16.0112C67.3513 16.4192 68.4488 16.3559 69.2859 15.8424C70.1301 15.3218 70.6577 14.3369 70.6014 13.3943C70.5451 12.4375 69.8698 11.53 68.9904 11.2416L68.8919 11.2135C68.8075 11.1924 68.6598 11.1431 68.5332 11.0446C68.4206 11.0165 68.3081 11.0095 68.1955 11.0095Z" fill="black"/>
<path d="M60.1124 16.9398C60.0983 16.9398 60.0772 16.9398 60.0632 16.9328C59.9717 16.9046 59.9154 16.8062 59.9436 16.7147C61.1465 12.6064 62.5746 8.50506 64.1785 4.53039C64.2137 4.43893 64.3192 4.39673 64.4107 4.4319C64.5021 4.46707 64.5443 4.5726 64.5092 4.66405C62.9123 8.62465 61.4912 12.7119 60.2883 16.8132C60.2601 16.8906 60.1898 16.9398 60.1124 16.9398Z" fill="black"/>
<path d="M61.9698 17.6081C61.9557 17.6081 61.9346 17.6081 61.9206 17.601C61.8291 17.5729 61.7728 17.4744 61.801 17.3829C62.9125 13.4997 64.3898 9.69388 66.1766 6.07095C66.2189 5.98653 66.3244 5.94432 66.4158 5.98653C66.5073 6.02874 66.5425 6.13426 66.4932 6.22571C64.7134 9.82754 63.2502 13.6123 62.1387 17.4744C62.1176 17.5588 62.0472 17.6081 61.9698 17.6081Z" fill="black"/>
<path d="M61.2732 25.0439C61.2521 25.0439 61.224 25.0369 61.2029 25.0299C61.1114 24.9947 61.0692 24.8892 61.1044 24.7977L64.1716 17.4322C64.2067 17.3408 64.3123 17.2986 64.4037 17.3338C64.4952 17.3689 64.5374 17.4745 64.5022 17.5659L61.435 24.9314C61.4069 25.0017 61.3436 25.0439 61.2732 25.0439Z" fill="black"/>
<path d="M65.2971 23.4682C65.276 23.4682 65.2549 23.4611 65.2268 23.4541C65.1353 23.4189 65.0931 23.3134 65.1283 23.2219L66.8448 18.994C66.88 18.9026 66.9855 18.8603 67.077 18.8955C67.1684 18.9307 67.2106 19.0362 67.1754 19.1277L65.466 23.3556C65.4378 23.4259 65.3675 23.4682 65.2971 23.4682Z" fill="black"/>
<path d="M68.4981 9.52506C68.477 9.52506 68.4629 9.52506 68.4418 9.51803C68.3504 9.48989 68.2941 9.3914 68.3222 9.29291L69.1383 6.69706C69.1664 6.60561 69.2649 6.54933 69.3634 6.57747C69.4548 6.60561 69.5111 6.7041 69.483 6.80259L68.6669 9.39844C68.6458 9.47582 68.5755 9.52506 68.4981 9.52506Z" fill="black"/>
<path d="M71.72 10.2004C71.6989 10.2004 71.6778 10.2004 71.6567 10.1863C71.5653 10.1512 71.516 10.0456 71.5512 9.95419C72.3883 7.73118 73.3451 5.52225 74.4073 3.3907C74.4495 3.29924 74.5551 3.26407 74.6465 3.31331C74.738 3.35552 74.7732 3.46808 74.7239 3.5525C73.6687 5.66998 72.7119 7.87188 71.8818 10.0808C71.8607 10.1582 71.7974 10.2004 71.72 10.2004Z" fill="black"/>
<path d="M68.491 23.5033C68.4629 23.5033 68.4418 23.4963 68.4137 23.4893C68.3222 23.4471 68.287 23.3415 68.3292 23.2501L76.1168 6.81674C76.159 6.72529 76.2645 6.69011 76.356 6.73232C76.4474 6.77453 76.4826 6.88005 76.4404 6.9715L68.6528 23.4049C68.6247 23.4682 68.5614 23.5033 68.491 23.5033Z" fill="black"/>
<path d="M71.6075 24.1716C71.5794 24.1716 71.5583 24.1646 71.5301 24.1576C71.4387 24.1153 71.4035 24.0098 71.4457 23.9184L76.6726 12.733C76.7148 12.6415 76.8203 12.6064 76.9118 12.6486C77.0032 12.6908 77.0384 12.7963 76.9962 12.8878L71.7693 24.0731C71.7412 24.1294 71.6708 24.1716 71.6075 24.1716Z" fill="black"/>
<path d="M77.1787 18.5717C77.1506 18.5717 77.1225 18.5647 77.0943 18.5506C77.0099 18.5014 76.9747 18.3958 77.024 18.3044L79.3244 14.1468C79.3736 14.0624 79.4791 14.0272 79.5706 14.0765C79.655 14.1257 79.6902 14.2312 79.6409 14.3227L77.3405 18.4803C77.2983 18.5365 77.2421 18.5717 77.1787 18.5717Z" fill="black"/>
<path d="M73.317 26.4368C73.2888 26.4368 73.2607 26.4298 73.2396 26.4157C73.1481 26.3735 73.1129 26.261 73.1622 26.1765L74.2033 24.1013C74.2456 24.0098 74.3511 23.9746 74.4425 24.0239C74.534 24.0661 74.5692 24.1787 74.5199 24.2631L73.4788 26.3383C73.4506 26.4017 73.3873 26.4368 73.317 26.4368Z" fill="black"/>
<path d="M55.7369 15.976C55.7088 15.976 55.6806 15.969 55.6595 15.9549C55.5681 15.9127 55.5329 15.8072 55.5751 15.7157L56.9821 12.8244C57.0243 12.733 57.1298 12.6978 57.2212 12.74C57.3127 12.7822 57.3479 12.8877 57.3057 12.9792L55.8987 15.8705C55.8635 15.9409 55.8002 15.976 55.7369 15.976Z" fill="black"/>
<path d="M61.6743 5.07211C61.6462 5.07211 61.6181 5.06507 61.5899 5.051C61.5055 5.00176 61.4703 4.89624 61.5196 4.80479L62.5607 2.94759C62.61 2.86317 62.7155 2.828 62.807 2.87724C62.8914 2.92649 62.9265 3.03201 62.8773 3.12346L61.8361 4.98066C61.7939 5.03693 61.7377 5.07211 61.6743 5.07211Z" fill="black"/>
<g opacity="0.1294">
<path d="M72.6345 15.0193C72.5853 14.3721 71.5863 14.3088 71.4316 14.9349C71.2346 15.547 71.312 15.4414 70.6507 16.0675C70.0176 16.574 70.2427 16.4263 69.2508 16.7851C68.3292 17.0594 68.702 17.0032 67.9212 17.0032C67.8157 16.9821 67.7101 16.9539 67.6046 16.9258C67.2247 16.7851 67.3443 16.8554 66.6197 16.4545C66.3172 16.2997 66.0499 16.0324 65.7052 16.0113C64.65 15.8213 64.1364 17.3408 65.065 17.8614C66.7182 18.987 68.3784 19.4935 70.2708 18.5649C71.2486 18.0373 71.9521 17.1368 72.3109 16.0957C72.4586 15.758 72.6626 15.3922 72.6345 15.0193Z" fill="black"/>
</g>
<g opacity="0.1294">
<path d="M75.4836 25.459C74.8646 25.6841 74.6465 25.8318 73.4787 26.0358C72.923 26.2117 72.2547 26.1202 71.7833 26.479C70.7914 27.1755 71.6145 28.8005 72.7682 28.4558C74.1541 28.1674 75.7439 28.1111 76.8203 27.091C77.6644 26.1413 76.5951 24.9032 75.4836 25.459Z" fill="black"/>
</g>
<g opacity="0.1294">
<path d="M83.7847 16.6655C83.7847 16.6514 83.7917 16.6444 83.7917 16.6303C83.7847 16.6444 83.7847 16.6584 83.7847 16.6655C83.7917 16.4333 83.7355 16.2012 83.6229 16.0042C83.1445 15.1108 81.7376 15.2585 81.4069 16.1801C81.3858 16.2223 81.3647 16.2715 81.3296 16.3348C81.2381 16.5177 81.1748 16.7077 81.1044 16.8976C81.0411 17.0383 80.9567 17.2353 80.9004 17.3478C80.7808 17.5519 80.7246 17.777 80.7175 18.0162C80.7316 19.5357 82.8913 19.8241 83.3063 18.3679C83.5174 17.8966 83.6862 17.4112 83.7495 16.9047C83.7706 16.8202 83.7777 16.7429 83.7847 16.6655Z" fill="black"/>
</g>
<path d="M71.4526 29.0608C71.2346 29.0608 71.0376 28.9271 70.9532 28.7231C70.4889 27.5765 70.0457 26.4931 69.3703 25.4027C68.0619 25.5504 66.7534 25.4801 65.5082 25.3605C65.1424 26.0077 64.7907 26.6619 64.4178 27.3584C64.1997 27.7664 63.9746 28.1815 63.7425 28.6106C63.6158 28.8498 63.3274 28.9483 63.0812 28.8568C61.027 28.0619 59.2332 26.7745 57.9036 25.1354C57.7488 24.9454 57.7418 24.6781 57.8895 24.4811C58.5719 23.5455 59.2754 22.5747 60.0281 21.414C59.2402 20.3939 58.5367 19.1698 57.8895 17.7136C57.6081 17.7699 57.3197 17.8332 57.0313 17.8895C56.0393 18.0935 55.0193 18.3116 53.9078 18.4593C53.6405 18.4945 53.3872 18.3327 53.3169 18.0724C52.6837 15.7791 52.8596 13.1902 53.8374 10.3763C53.9289 10.116 54.2033 9.9683 54.4706 10.0316C55.8635 10.3763 57.2564 10.721 58.7266 11.0728C59.3176 9.85574 60.0351 8.70906 60.7949 7.52018C60.1195 6.62676 59.3668 5.59264 58.6915 4.38968C58.5719 4.1716 58.6141 3.89725 58.804 3.72841C60.3306 2.37069 62.2511 1.1818 64.5163 0.210999C64.7696 0.105477 65.058 0.203964 65.1916 0.436114C65.874 1.625 66.4931 2.87016 67.0348 4.13643C68.4347 3.92539 69.8487 3.87614 71.2627 3.9887C71.9029 2.78574 72.5712 1.54762 73.4083 0.253208C73.5561 0.021059 73.8585 -0.0563241 74.1048 0.0632679C75.765 0.907447 77.3337 1.93453 78.7618 3.11638C79.1487 3.43295 79.5216 3.76358 79.9015 4.09422C80.0984 4.26306 80.3376 4.4741 80.422 4.80474C80.4642 4.95247 80.4361 5.11427 80.3447 5.2409C80.0211 5.71926 79.6834 6.1906 79.3387 6.66897C78.8814 7.30913 78.4171 7.97041 77.9247 8.69499C78.3397 9.70097 78.7548 10.7351 79.1417 11.7692C80.3447 11.8818 81.8782 12.121 83.5174 12.7822C83.7073 12.8596 83.841 13.0425 83.855 13.2465C83.9817 15.364 83.7003 17.2986 82.9827 19.1558C82.8983 19.3668 82.7084 19.5146 82.4621 19.5005L81.9908 19.4794C80.9356 19.4372 79.8452 19.395 78.6774 19.4794C78.2272 20.5276 77.5589 21.5758 76.6021 22.7435C77.2212 23.8199 77.8543 24.9454 78.4171 26.268C78.5226 26.5212 78.4171 26.8167 78.1779 26.9504C75.9971 28.1111 73.753 28.8216 71.5089 29.0538C71.4878 29.0538 71.4667 29.0608 71.4526 29.0608ZM69.6377 24.2912C69.8135 24.2912 69.9824 24.3827 70.0879 24.5304C70.8476 25.6771 71.3401 26.8237 71.7973 27.9423C73.6194 27.7031 75.4484 27.1262 77.2423 26.2328C76.7006 25.0369 76.0886 23.9817 75.4977 22.9616C75.3851 22.7646 75.4062 22.5184 75.5539 22.3496C76.6654 21.0411 77.383 19.9085 77.8121 18.7829C77.8825 18.593 78.0583 18.4593 78.2623 18.4453C79.613 18.3186 80.8441 18.3679 82.033 18.4171H82.1174C82.645 16.9117 82.8702 15.3499 82.8068 13.6545C81.2592 13.0777 79.817 12.9018 78.7196 12.8104C78.5086 12.7963 78.3327 12.6556 78.2623 12.4586C77.8192 11.2486 77.3197 10.0246 76.8343 8.84273C76.7639 8.68093 76.785 8.49098 76.8835 8.34325C77.4322 7.51314 77.9599 6.76745 78.4734 6.0499C78.7407 5.67706 79.001 5.31125 79.2543 4.94544C79.2332 4.93137 79.2191 4.9173 79.205 4.90323C78.8322 4.57962 78.4664 4.25602 78.0935 3.94649C76.8484 2.91941 75.4906 2.01191 74.0626 1.24512C73.2958 2.46918 72.6697 3.65103 72.0576 4.80474C71.9591 4.99468 71.7481 5.11427 71.53 5.09317C69.9542 4.9384 68.3714 4.99468 66.8167 5.262C66.5705 5.30421 66.3243 5.17055 66.2328 4.9384C65.7333 3.72841 65.1565 2.53953 64.5233 1.39285C62.7154 2.20889 61.1537 3.17266 59.8663 4.24899C60.5276 5.36752 61.2522 6.33833 61.8923 7.16844C62.033 7.34431 62.04 7.59756 61.9205 7.7875C61.02 9.18743 60.1758 10.51 59.5356 11.9169C59.4301 12.1491 59.1698 12.2757 58.9236 12.2194C57.4674 11.8747 56.0886 11.53 54.7168 11.1924C54.0063 13.4294 53.8515 15.4906 54.2595 17.3267C55.153 17.186 56.0042 17.0102 56.8343 16.8413C57.2704 16.7499 57.6996 16.6654 58.1287 16.581C58.3749 16.5318 58.6282 16.6655 58.7266 16.8976C59.4442 18.593 60.2251 19.9507 61.1185 21.0481C61.2662 21.224 61.2803 21.4773 61.1607 21.6742C60.408 22.8702 59.7045 23.848 59.0291 24.7836C60.1125 26.0218 61.4913 27.0137 63.0601 27.689C63.2149 27.4076 63.3626 27.1333 63.5033 26.8589C63.9394 26.0499 64.3475 25.2901 64.7836 24.5304C64.8891 24.3475 65.0932 24.242 65.3042 24.2631C66.6901 24.4038 68.1674 24.5093 69.5954 24.2982C69.5884 24.2912 69.6095 24.2912 69.6377 24.2912Z" fill="black"/>
<path d="M67.696 17.3478C67.1192 17.3478 66.5282 17.2282 65.9866 16.9961C65.5152 16.7921 65.1705 16.5388 64.9454 16.2152C64.6359 15.7791 64.5585 15.2585 64.5233 14.8575C64.4178 13.4646 64.7555 12.1913 65.4871 11.2768C66.3805 10.1583 67.8649 9.66581 69.096 10.0809C69.1804 10.109 69.2507 10.1583 69.307 10.2145C69.314 10.2145 69.314 10.2145 69.3211 10.2216C70.6225 10.6507 71.5863 11.931 71.6707 13.331C71.7481 14.6816 71.0305 16.0253 69.8416 16.7569C69.2015 17.1438 68.4558 17.3478 67.696 17.3478ZM68.1955 11.0095C67.5202 11.0095 66.7956 11.3542 66.3242 11.9451C65.7614 12.6486 65.5012 13.6475 65.5926 14.7731C65.6137 15.0334 65.6559 15.364 65.8177 15.5891C65.9303 15.7509 66.1273 15.8846 66.4157 16.0112C67.3513 16.4192 68.4488 16.3559 69.2859 15.8424C70.1301 15.3218 70.6577 14.3369 70.6014 13.3943C70.5451 12.4375 69.8698 11.53 68.9904 11.2416L68.8919 11.2135C68.8075 11.1924 68.6598 11.1431 68.5332 11.0446C68.4206 11.0165 68.3081 11.0095 68.1955 11.0095Z" fill="black"/>
<path d="M105.959 66.9715C104.404 64.5304 103.806 61.4491 104.559 58.6493C105.206 56.2715 106.768 54.2173 108.66 52.4235C106.444 49.1171 104.003 45.9655 101.344 43.0038C101.104 42.7436 100.865 42.4762 100.577 42.2722C100.127 41.9486 99.5428 41.7376 98.98 41.3436C96.567 43.9676 92.9722 45.4449 89.3634 45.3816C84.6782 44.7977 80.4714 41.3647 78.8674 36.8835C74.33 37.6011 69.8839 38.8955 65.7334 40.6753C66.5916 42.1034 66.8168 43.834 66.7886 45.5012C66.7605 47.3021 66.4509 49.1312 65.6701 50.7492C64.8822 52.3742 63.5807 53.7812 61.9276 54.4987C60.9708 54.9138 59.9226 55.0826 58.8885 55.1741C57.0876 55.3429 55.2656 55.2937 53.4858 55.1459C53.4858 55.1459 50.0598 67.8579 50.4467 67.8579C51.5582 68.1322 52.6697 68.4418 53.7672 68.7724C54.9842 69.1452 56.2012 69.5603 57.2635 70.2638C58.3257 70.9673 59.2192 71.9873 59.5357 73.2184C59.7468 74.0415 59.6834 74.9068 59.5428 75.7439C59.0292 78.7759 57.4534 81.6109 55.146 83.644C55.146 83.644 63.63 92.0647 63.7707 91.9803C64.7345 90.5522 66.3314 89.708 67.8579 88.9201C68.5051 88.5895 69.1523 88.2518 69.8417 88.0337C72.3532 87.2318 75.2304 88.0548 77.158 89.8487C79.0855 91.6426 80.1055 94.2877 80.2533 96.9609C83.2642 96.7921 86.2751 96.567 89.2719 96.2645C90.5874 96.1379 91.9452 95.9761 93.1692 95.0053C93.0918 92.3391 93.6687 89.6517 94.8224 87.2458C95.3852 86.0781 96.0887 84.9666 97.0806 84.1294C98.5579 82.8913 100.556 82.3918 102.476 82.4973C104.397 82.6029 106.254 83.2782 108.111 84.0028C110.081 80.2814 112.072 76.4896 112.712 72.1913C109.975 71.2135 107.52 69.4126 105.959 66.9715ZM91.4597 67.7664C91.2487 69.5111 90.4608 71.122 89.3704 72.4797C88.8217 73.1621 88.1815 73.746 87.478 74.2666C86.7886 74.7801 85.9093 75.2655 85.0721 75.4766C84.1717 75.7017 83.1587 75.6032 82.2441 75.6032C81.2804 75.6032 80.2955 75.5962 79.3739 75.2655C78.4946 74.956 77.7418 74.3862 77.0735 73.746C76.4193 73.1199 75.6455 72.5431 75.1952 71.7481C73.4295 68.6247 73.943 64.4812 76.0464 61.6532C77.172 60.1407 78.7549 58.994 80.4221 58.1287C82.216 57.1931 84.3264 56.8624 86.2821 57.4323C86.8801 57.6081 87.0911 58.1287 87.0137 58.6071C90.2216 60.2743 91.8818 64.242 91.4597 67.7664Z" fill="white"/>
<path d="M91.2416 55.2586C88.505 53.4577 84.9595 52.7682 82.2933 53.0496C77.6714 53.5491 74.2525 55.8987 71.8255 59.8664C69.3985 63.834 69.0186 69.0046 70.925 73.2396C72.8385 77.4745 77.0242 80.6332 81.6391 81.196C85.5012 81.6673 89.511 80.3518 92.4446 77.7911C95.371 75.2304 96.574 71.4949 96.9539 67.6258C97.1438 65.6842 96.3629 58.6212 91.2416 55.2586ZM86.0077 75.5962C82.3074 76.8484 77.8825 75.4344 75.561 72.2899C74.8716 71.3613 74.358 70.292 74.1681 69.1524C73.9781 68.0127 74.1188 66.8379 74.4002 65.7123C75.0756 62.9758 76.6373 60.394 78.9869 58.8393C81.3436 57.2846 84.5233 56.8977 87.0277 58.1921C90.1371 59.796 92.0647 63.2079 92.2054 66.5917C92.3742 70.503 89.708 74.344 86.0077 75.5962Z" fill="#88E0EF"/>
<g opacity="0.1294">
<path d="M97.8543 66.1695C97.6995 65.7052 97.5448 65.2409 97.383 64.7837C97.0805 63.9184 96.7287 63.0742 96.4544 62.2019C96.3981 62.2019 96.3488 62.2089 96.2926 62.223C95.3429 62.6451 95.8564 63.3345 95.8845 64.1998C95.983 65.051 96.173 65.8882 96.2855 66.7323C96.391 67.5835 96.4192 68.4488 96.3559 69.3071C96.3488 69.3211 96.3418 69.3423 96.3348 69.3774C96.2081 69.8558 95.9901 70.299 95.8634 70.7774C95.2866 72.7541 95.0615 73.3591 93.95 74.9209C93.8796 75.0053 93.7741 75.146 93.7037 75.2515C93.6193 75.3992 93.2957 75.8424 93.1972 75.9831C93.1691 76.0183 93.148 76.0464 93.1339 76.0605C93.0847 76.1238 93.0354 76.1801 92.9862 76.2434C92.8455 76.4474 92.142 77.1509 92.142 77.179C91.1782 77.9177 91.2697 77.9036 90.2145 78.6704C89.4336 79.191 88.5965 79.6342 87.7523 80.0352C86.7041 80.4784 85.4097 81.0623 83.8128 81.1537C82.5606 81.1748 81.3084 81.1537 80.0632 81.013C78.1357 80.6402 77.6855 80.3166 76.0323 79.395C75.5328 79.1136 75.0544 78.5016 74.4354 78.6141C74.4283 78.6141 74.4213 78.6212 74.4072 78.6282C74.8504 79.1136 75.3007 79.592 75.7579 80.0633C76.3418 80.6683 76.9398 81.2592 77.5377 81.8431C79.4582 82.5888 81.5194 83.0109 83.5806 82.9265C84.7414 82.8772 85.9162 82.828 87.0488 82.5255C89.0467 81.9979 90.9039 80.999 92.5078 79.6975C93.6756 78.6282 94.963 77.6574 95.9268 76.3911C97.3056 74.1189 97.9528 71.4597 97.9739 69.4759C98.0653 68.7443 98.0091 67.464 97.8543 66.1695Z" fill="black"/>
</g>
<g opacity="0.1294">
<path d="M113.155 72.4517C113.007 71.8467 112.121 71.7271 111.819 72.2758C110.496 74.5832 109.173 76.8977 107.781 79.17C107.204 80.0845 106.458 80.9076 106.043 81.9135C105.909 82.1668 105.726 82.413 105.712 82.7085C105.536 83.5667 106.592 84.2491 107.323 83.7848C107.605 83.6371 107.731 83.3557 107.872 83.0954C107.992 82.9758 108.111 82.8492 108.203 82.7085C109.553 80.7387 110.222 78.3891 111.368 76.2997C111.938 75.2093 112.515 74.1119 113.078 73.0215C113.183 72.8456 113.204 72.6416 113.155 72.4517Z" fill="black"/>
</g>
<g opacity="0.1294">
<path d="M91.6213 92.8454C91.0937 92.6836 90.5942 92.979 90.0807 93.0775C86.6758 94.0202 84.3895 94.0694 80.4852 93.9428C78.7195 93.985 78.7195 96.5738 80.4852 96.6231C83.4539 96.7075 86.4648 96.7426 89.3561 96.004C90.0385 95.8422 90.7209 95.6945 91.3962 95.5045C91.8042 95.399 92.2122 95.202 92.4233 94.8151C92.8665 94.0835 92.4444 93.0634 91.6213 92.8454Z" fill="black"/>
</g>
<path d="M80.0141 97.2986C79.7327 97.2986 79.4935 97.0806 79.4794 96.7921C79.3387 94.2526 78.185 91.7974 76.3278 90.0528C75.554 89.3282 74.3229 88.4348 72.8596 88.2941C71.5934 88.1745 70.3201 88.6106 69.1171 89.0679C67.2388 89.7925 65.3324 90.707 64.1505 92.522C64.0661 92.6486 63.9395 92.733 63.7918 92.7542C63.644 92.7823 63.4963 92.7401 63.3767 92.6486C59.7116 89.8488 56.8343 87.07 54.6043 84.1646C54.4284 83.9395 54.4636 83.6089 54.6887 83.426C56.9047 81.5899 58.4734 78.9166 58.987 76.0816C59.191 74.9701 59.1769 74.1119 58.9377 73.3732C58.5227 72.0788 57.376 70.9954 55.4344 70.0598C53.6827 69.2156 51.7622 68.6247 49.7362 68.3081C49.5955 68.287 49.4689 68.2096 49.3844 68.0901C49.3 67.9705 49.2648 67.8298 49.293 67.6891C50.0176 63.3697 51.2416 59.0081 52.937 54.7309C53.0425 54.4636 53.345 54.3299 53.6124 54.4214C55.9057 55.2374 61.6391 55.3148 63.9676 52.5361C67.8368 47.9283 66.0007 42.6521 65.3465 41.1396C65.2339 40.8723 65.3465 40.5698 65.6067 40.4432C67.8086 39.388 71.4949 38.3117 75.3922 37.172C76.5951 36.8203 77.8262 36.4615 79.0503 36.0957C79.2402 36.0394 79.4372 36.0886 79.5779 36.2223C79.7186 36.356 79.7749 36.56 79.7186 36.7499C79.4935 37.566 81.618 41.6251 84.9455 43.3345C92.5712 47.2388 97.4112 42.3567 98.7126 40.7668C98.8111 40.6472 98.9518 40.5769 99.0995 40.5698C99.2543 40.5628 99.402 40.6191 99.5076 40.7316C103.243 44.5164 106.416 48.273 109.195 52.2195C109.363 52.4587 109.307 52.7893 109.068 52.9652C105.839 55.2867 104.172 59.6272 105.009 63.5174C105.846 67.3725 109.138 70.6718 113.204 71.7271C113.345 71.7622 113.465 71.8537 113.535 71.9803C113.605 72.1069 113.626 72.2547 113.584 72.3954C112.29 76.764 110.433 81.0271 108.217 84.7274C108.076 84.9596 107.795 85.051 107.541 84.9455C104.622 83.6863 101.787 82.624 99.1699 83.5245C97.2916 84.1717 95.6595 85.9233 94.7942 88.2167C94.1259 89.9895 93.9149 91.91 93.6897 93.9501C93.6405 94.3792 93.5913 94.8154 93.542 95.2585C93.5139 95.4837 93.345 95.6736 93.1199 95.7158C88.5684 96.6514 84.2842 97.1579 80.0211 97.2705C80.0211 97.2986 80.0211 97.2986 80.0141 97.2986ZM72.4235 87.2107C72.5994 87.2107 72.7823 87.2177 72.9581 87.2388C74.3581 87.3725 75.7721 88.083 77.0594 89.2789C78.994 91.0869 80.2321 93.5913 80.5065 96.2153C84.4249 96.0816 88.3644 95.6103 92.536 94.7731C92.5712 94.4636 92.6064 94.1611 92.6416 93.8586C92.8737 91.7552 93.0988 89.7643 93.8093 87.8649C94.8013 85.2339 96.6303 83.2923 98.8392 82.5325C101.667 81.5617 104.678 82.5818 107.548 83.7988C109.525 80.4151 111.199 76.5741 112.416 72.6275C108.217 71.3331 104.861 67.8298 103.982 63.7636C103.088 59.6412 104.749 55.0686 108.034 52.4376C105.459 48.8357 102.547 45.3887 99.1629 41.9205C97.5026 43.7214 92.2406 48.2941 84.4741 44.3124C81.4703 42.7717 79.0714 39.3036 78.7056 37.3479C77.6996 37.6504 76.6936 37.9388 75.7017 38.2272C72.1069 39.2754 68.7021 40.2673 66.5353 41.2241C67.3373 43.3275 68.7091 48.5825 64.7907 53.2466C62.2722 56.2505 56.5811 56.3771 53.7531 55.6032C52.2476 59.4865 51.1291 63.44 50.4397 67.3514C52.3742 67.7031 54.2103 68.287 55.9057 69.1031C58.1287 70.1794 59.4583 71.4738 59.9648 73.0566C60.2532 73.9641 60.2814 74.9912 60.0422 76.2786C59.5146 79.184 57.9669 81.9416 55.765 83.9184C57.8051 86.4861 60.3728 88.9624 63.5877 91.4668C64.9384 89.7081 66.8519 88.7935 68.7372 88.069C69.8417 87.6469 71.115 87.2107 72.4235 87.2107Z" fill="black"/>
<path d="M82.7366 76.5952C79.6483 76.5952 76.553 75.139 74.6888 72.6135C73.9009 71.5512 73.3874 70.3835 73.1974 69.2438C73.0145 68.1605 73.0919 66.9645 73.4366 65.5927C74.1893 62.5396 75.948 59.9227 78.2484 58.4032C80.8865 56.6656 84.2562 56.3982 86.8309 57.7278C89.9966 59.3599 92.1422 62.8351 92.304 66.5776C92.4799 70.686 89.6589 74.7802 85.7405 76.1098C84.7627 76.4334 83.7496 76.5952 82.7366 76.5952ZM83.2431 57.9529C81.7377 57.9529 80.183 58.4102 78.8393 59.2966C76.757 60.6684 75.1672 63.0602 74.4777 65.853C74.1753 67.0841 74.0979 68.1394 74.2597 69.075C74.4215 70.0528 74.8717 71.0588 75.5541 71.9804C77.7278 74.9209 81.9628 76.2575 85.4028 75.0968C88.8851 73.9149 91.3895 70.2779 91.2347 66.6269C91.094 63.2642 89.1735 60.1408 86.3455 58.6845C85.3958 58.1921 84.3335 57.9529 83.2431 57.9529Z" fill="black"/>
<path d="M82.7507 81.8361C82.209 81.8361 81.6744 81.8009 81.1397 81.7376C76.3771 81.1537 72.0085 77.9106 70.0036 73.4717C68.0268 69.089 68.3786 63.7707 70.9322 59.599C73.4929 55.4062 77.151 53.0285 81.801 52.529C84.84 52.2054 88.4911 53.1059 91.101 54.8224C96.6656 58.4805 97.2143 66.0218 97.0525 67.6961C96.5882 72.4235 95.0546 75.8635 92.3673 78.2131C89.6941 80.5346 86.1978 81.8361 82.7507 81.8361ZM81.9065 53.5913C77.5449 54.0626 74.2526 56.2082 71.8397 60.1548C69.469 64.0309 69.1383 68.9623 70.9744 73.0285C72.8246 77.1368 76.8625 80.1337 81.2663 80.6753C84.9104 81.1185 88.7936 79.8945 91.6568 77.3971C94.133 75.2374 95.547 72.0225 95.9832 67.5835C96.1872 65.5083 95.2656 58.8322 90.5101 55.7087C88.0901 54.1189 84.7134 53.2888 81.9065 53.5913Z" fill="black"/>
<path d="M91.2416 55.2586C88.505 53.4577 84.9595 52.7682 82.2933 53.0496C77.6714 53.5491 74.2525 55.8987 71.8255 59.8664C69.3985 63.834 69.0186 69.0046 70.925 73.2396C72.8385 77.4745 77.0242 80.6332 81.6391 81.196C85.5012 81.6673 89.511 80.3518 92.4446 77.7911C95.371 75.2304 96.574 71.4949 96.9539 67.6258C97.1438 65.6842 96.3629 58.6212 91.2416 55.2586ZM86.0077 75.5962C82.3074 76.8484 77.8825 75.4344 75.561 72.2899C74.8716 71.3613 74.358 70.292 74.1681 69.1524C73.9781 68.0127 74.1188 66.8379 74.4002 65.7123C75.0756 62.9758 76.6373 60.394 78.9869 58.8393C81.3436 57.2846 84.5233 56.8977 87.0277 58.1921C90.1371 59.796 92.0647 63.2079 92.2054 66.5917C92.3742 70.503 89.708 74.344 86.0077 75.5962Z" fill="#88E0EF"/>
<g opacity="0.1294">
<path d="M97.8543 66.1695C97.6995 65.7052 97.5448 65.2409 97.383 64.7837C97.0805 63.9184 96.7287 63.0742 96.4544 62.2019C96.3981 62.2019 96.3488 62.2089 96.2926 62.223C95.3429 62.6451 95.8564 63.3345 95.8845 64.1998C95.983 65.051 96.173 65.8882 96.2855 66.7323C96.391 67.5835 96.4192 68.4488 96.3559 69.3071C96.3488 69.3211 96.3418 69.3423 96.3348 69.3774C96.2081 69.8558 95.9901 70.299 95.8634 70.7774C95.2866 72.7541 95.0615 73.3591 93.95 74.9209C93.8796 75.0053 93.7741 75.146 93.7037 75.2515C93.6193 75.3992 93.2957 75.8424 93.1972 75.9831C93.1691 76.0183 93.148 76.0464 93.1339 76.0605C93.0847 76.1238 93.0354 76.1801 92.9862 76.2434C92.8455 76.4474 92.142 77.1509 92.142 77.179C91.1782 77.9177 91.2697 77.9036 90.2145 78.6704C89.4336 79.191 88.5965 79.6342 87.7523 80.0352C86.7041 80.4784 85.4097 81.0623 83.8128 81.1537C82.5606 81.1748 81.3084 81.1537 80.0632 81.013C78.1357 80.6402 77.6855 80.3166 76.0323 79.395C75.5328 79.1136 75.0544 78.5016 74.4354 78.6141C74.4283 78.6141 74.4213 78.6212 74.4072 78.6282C74.8504 79.1136 75.3007 79.592 75.7579 80.0633C76.3418 80.6683 76.9398 81.2592 77.5377 81.8431C79.4582 82.5888 81.5194 83.0109 83.5806 82.9265C84.7414 82.8772 85.9162 82.828 87.0488 82.5255C89.0467 81.9979 90.9039 80.999 92.5078 79.6975C93.6756 78.6282 94.963 77.6574 95.9268 76.3911C97.3056 74.1189 97.9528 71.4597 97.9739 69.4759C98.0653 68.7443 98.0091 67.464 97.8543 66.1695Z" fill="black"/>
</g>
<g opacity="0.1294">
<path d="M113.155 72.4517C113.007 71.8467 112.121 71.7271 111.819 72.2758C110.496 74.5832 109.173 76.8977 107.781 79.17C107.204 80.0845 106.458 80.9076 106.043 81.9135C105.909 82.1668 105.726 82.413 105.712 82.7085C105.536 83.5667 106.592 84.2491 107.323 83.7848C107.605 83.6371 107.731 83.3557 107.872 83.0954C107.992 82.9758 108.111 82.8492 108.203 82.7085C109.553 80.7387 110.222 78.3891 111.368 76.2997C111.938 75.2093 112.515 74.1119 113.078 73.0215C113.183 72.8456 113.204 72.6416 113.155 72.4517Z" fill="black"/>
</g>
<g opacity="0.1294">
<path d="M91.6213 92.8454C91.0937 92.6836 90.5942 92.979 90.0807 93.0775C86.6758 94.0202 84.3895 94.0694 80.4852 93.9428C78.7195 93.985 78.7195 96.5738 80.4852 96.6231C83.4539 96.7075 86.4648 96.7426 89.3561 96.004C90.0385 95.8422 90.7209 95.6945 91.3962 95.5045C91.8042 95.399 92.2122 95.202 92.4233 94.8151C92.8665 94.0835 92.4444 93.0634 91.6213 92.8454Z" fill="black"/>
</g>
<path d="M80.0141 97.2986C79.7327 97.2986 79.4935 97.0806 79.4794 96.7921C79.3387 94.2526 78.185 91.7974 76.3278 90.0528C75.554 89.3282 74.3229 88.4348 72.8596 88.2941C71.5934 88.1745 70.3201 88.6106 69.1171 89.0679C67.2388 89.7925 65.3324 90.707 64.1505 92.522C64.0661 92.6486 63.9395 92.733 63.7918 92.7542C63.644 92.7823 63.4963 92.7401 63.3767 92.6486C59.7116 89.8488 56.8343 87.07 54.6043 84.1646C54.4284 83.9395 54.4636 83.6089 54.6887 83.426C56.9047 81.5899 58.4734 78.9166 58.987 76.0816C59.191 74.9701 59.1769 74.1119 58.9377 73.3732C58.5227 72.0788 57.376 70.9954 55.4344 70.0598C53.6827 69.2156 51.7622 68.6247 49.7362 68.3081C49.5955 68.287 49.4689 68.2096 49.3844 68.0901C49.3 67.9705 49.2648 67.8298 49.293 67.6891C50.0176 63.3697 51.2416 59.0081 52.937 54.7309C53.0425 54.4636 53.345 54.3299 53.6124 54.4214C55.9057 55.2374 61.6391 55.3148 63.9676 52.5361C67.8368 47.9283 66.0007 42.6521 65.3465 41.1396C65.2339 40.8723 65.3465 40.5698 65.6067 40.4432C67.8086 39.388 71.4949 38.3117 75.3922 37.172C76.5951 36.8203 77.8262 36.4615 79.0503 36.0957C79.2402 36.0394 79.4372 36.0886 79.5779 36.2223C79.7186 36.356 79.7749 36.56 79.7186 36.7499C79.4935 37.566 81.618 41.6251 84.9455 43.3345C92.5712 47.2388 97.4112 42.3567 98.7126 40.7668C98.8111 40.6472 98.9518 40.5769 99.0995 40.5698C99.2543 40.5628 99.402 40.6191 99.5076 40.7316C103.243 44.5164 106.416 48.273 109.195 52.2195C109.363 52.4587 109.307 52.7893 109.068 52.9652C105.839 55.2867 104.172 59.6272 105.009 63.5174C105.846 67.3725 109.138 70.6718 113.204 71.7271C113.345 71.7622 113.465 71.8537 113.535 71.9803C113.605 72.1069 113.626 72.2547 113.584 72.3954C112.29 76.764 110.433 81.0271 108.217 84.7274C108.076 84.9596 107.795 85.051 107.541 84.9455C104.622 83.6863 101.787 82.624 99.1699 83.5245C97.2916 84.1717 95.6595 85.9233 94.7942 88.2167C94.1259 89.9895 93.9149 91.91 93.6897 93.9501C93.6405 94.3792 93.5913 94.8154 93.542 95.2585C93.5139 95.4837 93.345 95.6736 93.1199 95.7158C88.5684 96.6514 84.2842 97.1579 80.0211 97.2705C80.0211 97.2986 80.0211 97.2986 80.0141 97.2986ZM72.4235 87.2107C72.5994 87.2107 72.7823 87.2177 72.9581 87.2388C74.3581 87.3725 75.7721 88.083 77.0594 89.2789C78.994 91.0869 80.2321 93.5913 80.5065 96.2153C84.4249 96.0816 88.3644 95.6103 92.536 94.7731C92.5712 94.4636 92.6064 94.1611 92.6416 93.8586C92.8737 91.7552 93.0988 89.7643 93.8093 87.8649C94.8013 85.2339 96.6303 83.2923 98.8392 82.5325C101.667 81.5617 104.678 82.5818 107.548 83.7988C109.525 80.4151 111.199 76.5741 112.416 72.6275C108.217 71.3331 104.861 67.8298 103.982 63.7636C103.088 59.6412 104.749 55.0686 108.034 52.4376C105.459 48.8357 102.547 45.3887 99.1629 41.9205C97.5026 43.7214 92.2406 48.2941 84.4741 44.3124C81.4703 42.7717 79.0714 39.3036 78.7056 37.3479C77.6996 37.6504 76.6936 37.9388 75.7017 38.2272C72.1069 39.2754 68.7021 40.2673 66.5353 41.2241C67.3373 43.3275 68.7091 48.5825 64.7907 53.2466C62.2722 56.2505 56.5811 56.3771 53.7531 55.6032C52.2476 59.4865 51.1291 63.44 50.4397 67.3514C52.3742 67.7031 54.2103 68.287 55.9057 69.1031C58.1287 70.1794 59.4583 71.4738 59.9648 73.0566C60.2532 73.9641 60.2814 74.9912 60.0422 76.2786C59.5146 79.184 57.9669 81.9416 55.765 83.9184C57.8051 86.4861 60.3728 88.9624 63.5877 91.4668C64.9384 89.7081 66.8519 88.7935 68.7372 88.069C69.8417 87.6469 71.115 87.2107 72.4235 87.2107Z" fill="black"/>
<path d="M82.7366 76.5952C79.6483 76.5952 76.553 75.139 74.6888 72.6135C73.9009 71.5512 73.3874 70.3835 73.1974 69.2438C73.0145 68.1605 73.0919 66.9645 73.4366 65.5927C74.1893 62.5396 75.948 59.9227 78.2484 58.4032C80.8865 56.6656 84.2562 56.3982 86.8309 57.7278C89.9966 59.3599 92.1422 62.8351 92.304 66.5776C92.4799 70.686 89.6589 74.7802 85.7405 76.1098C84.7627 76.4334 83.7496 76.5952 82.7366 76.5952ZM83.2431 57.9529C81.7377 57.9529 80.183 58.4102 78.8393 59.2966C76.757 60.6684 75.1672 63.0602 74.4777 65.853C74.1753 67.0841 74.0979 68.1394 74.2597 69.075C74.4215 70.0528 74.8717 71.0588 75.5541 71.9804C77.7278 74.9209 81.9628 76.2575 85.4028 75.0968C88.8851 73.9149 91.3895 70.2779 91.2347 66.6269C91.094 63.2642 89.1735 60.1408 86.3455 58.6845C85.3958 58.1921 84.3335 57.9529 83.2431 57.9529Z" fill="black"/>
<path d="M82.7507 81.8361C82.209 81.8361 81.6744 81.8009 81.1397 81.7376C76.3771 81.1537 72.0085 77.9106 70.0036 73.4717C68.0268 69.089 68.3786 63.7707 70.9322 59.599C73.4929 55.4062 77.151 53.0285 81.801 52.529C84.84 52.2054 88.4911 53.1059 91.101 54.8224C96.6656 58.4805 97.2143 66.0218 97.0525 67.6961C96.5882 72.4235 95.0546 75.8635 92.3673 78.2131C89.6941 80.5346 86.1978 81.8361 82.7507 81.8361ZM81.9065 53.5913C77.5449 54.0626 74.2526 56.2082 71.8397 60.1548C69.469 64.0309 69.1383 68.9623 70.9744 73.0285C72.8246 77.1368 76.8625 80.1337 81.2663 80.6753C84.9104 81.1185 88.7936 79.8945 91.6568 77.3971C94.133 75.2374 95.547 72.0225 95.9832 67.5835C96.1872 65.5083 95.2656 58.8322 90.5101 55.7087C88.0901 54.1189 84.7134 53.2888 81.9065 53.5913Z" fill="black"/>
<path d="M109.405 30.7562C109.384 30.7562 109.37 30.7562 109.349 30.7562C109.054 30.7281 108.843 30.4608 108.871 30.1653C109.363 25.4379 108.568 20.6542 106.57 16.3419C106.444 16.0745 106.563 15.758 106.831 15.6313C107.098 15.5047 107.415 15.6243 107.541 15.8916C109.617 20.3799 110.447 25.3535 109.933 30.2779C109.912 30.5522 109.68 30.7562 109.405 30.7562Z" fill="black"/>
<path d="M34.773 100C34.7378 100 34.7027 100 34.6675 99.993C29.2366 98.9237 24.1223 96.1449 20.2602 92.1773C20.0562 91.9662 20.0562 91.6286 20.2742 91.4175C20.4853 91.2135 20.823 91.2135 21.034 91.4316C24.7414 95.2445 29.6587 97.9177 34.8785 98.9448C35.167 99.0011 35.3569 99.2825 35.3006 99.5709C35.2514 99.8241 35.0263 100 34.773 100Z" fill="black"/>
</svg>
