<svg width="141" height="109" viewBox="0 0 141 109" fill="none" xmlns="http://www.w3.org/2000/svg">
<path d="M135.033 63.3722L75.8917 22.199C75.7205 22.0793 75.5402 21.9642 75.351 21.8536C73.9475 21.0431 72.1137 20.5419 70.1132 20.4313C67.8445 20.3071 65.6323 20.709 63.8886 21.5511L6.38258 49.3528C2.77578 51.0934 2.29367 54.2178 5.30797 56.3196L64.454 97.4883C64.6252 97.608 64.8055 97.7231 64.9947 97.8337C66.4027 98.6464 68.2365 99.1476 70.2326 99.256C72.4989 99.3756 74.7089 98.9783 76.4572 98.1362L94.0518 89.6275L98.7242 87.3677L103.255 85.1801H103.257L107.492 83.1325L112.068 80.9201L133.959 70.3367C137.568 68.5939 138.048 65.4695 135.033 63.3722ZM133.718 70.1629L111.795 80.7599L107.224 82.97L102.987 85.0176L98.4584 87.2074L76.2116 97.9601C74.5445 98.7661 72.4358 99.1431 70.2686 99.028C68.3605 98.9264 66.6122 98.4478 65.2673 97.6689C65.0893 97.5673 64.9181 97.459 64.7537 97.3438L5.6076 56.1751C2.73072 54.1704 3.19256 51.1882 6.63264 49.5266L64.1386 21.7271C65.8035 20.9212 67.9121 20.5442 70.0794 20.6593C71.9875 20.7609 73.7357 21.2395 75.0784 22.0138C75.2586 22.1177 75.4299 22.2306 75.5966 22.3435L134.74 63.5144C137.615 65.5191 137.158 68.5014 133.718 70.1629Z" fill="#BEBEBE"/>
<path d="M125.61 44.1896C125.606 44.3093 125.592 44.4267 125.57 44.5441C125.567 44.5554 125.565 44.5667 125.563 44.5779C125.538 44.6999 125.504 44.8218 125.457 44.9437V44.9459C125.41 45.0723 125.351 45.1965 125.281 45.3207C125.277 45.3297 125.272 45.3387 125.266 45.35C125.243 45.3907 125.216 45.4313 125.191 45.4719C125.173 45.499 125.157 45.5284 125.139 45.5555C125.11 45.6006 125.076 45.6435 125.043 45.6864C125.025 45.709 125.009 45.7338 124.991 45.7564C124.934 45.8286 124.871 45.9009 124.806 45.9709C124.786 45.9912 124.765 46.0137 124.745 46.0341C124.698 46.0837 124.648 46.1334 124.599 46.1808C124.578 46.1989 124.558 46.2169 124.538 46.2372C124.428 46.3388 124.308 46.4382 124.18 46.533C124.164 46.5443 124.148 46.5556 124.132 46.5668C123.997 46.6662 123.855 46.761 123.702 46.8536C123.693 46.8581 123.684 46.8648 123.675 46.8694C123.508 46.9687 123.333 47.0658 123.143 47.1561L75.5431 70.1673C75.3742 70.2486 75.1985 70.3253 75.0205 70.3953C74.9597 70.4201 74.8988 70.4382 74.838 70.4608C74.7186 70.5059 74.5992 70.5511 74.4753 70.5894C74.2748 70.6527 74.072 70.7114 73.867 70.7633C73.8242 70.7746 73.7792 70.7813 73.7364 70.7926C73.5719 70.831 73.4052 70.8694 73.2385 70.8987C73.1912 70.9078 73.1416 70.9145 73.0943 70.9213C72.8758 70.9597 72.655 70.989 72.432 71.0139C72.3576 71.0229 72.281 71.0297 72.2067 71.0364C72.0445 71.05 71.8823 71.0613 71.7201 71.068C71.648 71.0726 71.5759 71.0771 71.5038 71.0793C71.3348 71.0839 71.1659 71.0838 70.9969 71.0816C70.9428 71.0816 70.8888 71.0816 70.8347 71.0816C70.6162 71.0748 70.3999 71.0635 70.1836 71.0477C70.1431 71.0455 70.1048 71.0387 70.0642 71.0342C69.8885 71.0184 69.7128 71.0003 69.5393 70.9755C69.4695 70.9665 69.4019 70.9529 69.3343 70.9416C69.1856 70.919 69.0392 70.8942 68.8928 70.8649C68.8207 70.8513 68.7486 70.8333 68.6765 70.8175C68.5188 70.7836 68.3633 70.7452 68.2102 70.7023C68.1403 70.6843 68.0705 70.6639 68.0029 70.6436C67.7506 70.5691 67.5005 70.4879 67.264 70.393C67.1446 70.3456 67.0319 70.2937 66.917 70.2418C66.863 70.217 66.8066 70.1966 66.7526 70.1695C66.5859 70.0905 66.4259 70.0047 66.2705 69.9167C66.1195 69.8287 65.9753 69.7384 65.8357 69.6413L16.877 35.5658C15.7956 34.814 15.2707 33.8997 15.2729 32.9922L15.2144 53.9987C15.2121 54.9062 15.737 55.8205 16.8184 56.5723L65.7748 90.6523C65.9145 90.7494 66.0587 90.8397 66.2096 90.9277C66.3651 91.018 66.525 91.1016 66.6917 91.1806C66.7481 91.2077 66.8066 91.2302 66.863 91.2551C66.9733 91.3047 67.0815 91.3544 67.1964 91.3995C67.1986 91.3995 67.2009 91.4018 67.2031 91.4018C67.4419 91.4966 67.6898 91.5779 67.9421 91.6524C67.9714 91.6614 67.9984 91.6727 68.0299 91.6817C68.0682 91.693 68.111 91.6998 68.1493 91.7111C68.3025 91.7517 68.458 91.7901 68.6157 91.8262C68.663 91.8375 68.7103 91.8511 68.7598 91.8624C68.7846 91.8669 68.8094 91.8691 68.8319 91.8759C68.9784 91.9053 69.1271 91.9301 69.2758 91.9526C69.3321 91.9617 69.3861 91.973 69.4425 91.982C69.4537 91.9843 69.4672 91.9843 69.4785 91.9865C69.652 92.0114 69.8277 92.0294 70.0057 92.0452C70.0417 92.0475 70.0778 92.0542 70.1161 92.0565C70.1183 92.0565 70.1228 92.0565 70.1251 92.0565C70.3413 92.0746 70.5599 92.0859 70.7761 92.0904C70.7829 92.0904 70.7897 92.0904 70.7942 92.0904C70.8415 92.0926 70.8888 92.0881 70.9361 92.0904C71.1051 92.0926 71.274 92.0926 71.4452 92.0881C71.4633 92.0881 71.4835 92.0881 71.5016 92.0881C71.5556 92.0859 71.6074 92.0791 71.6615 92.0768C71.8237 92.07 71.9859 92.0588 72.1481 92.0452C72.1842 92.043 72.2225 92.0407 72.2585 92.0384C72.2968 92.0339 72.3351 92.0271 72.3734 92.0226C72.5964 91.9978 72.8172 91.9685 73.0357 91.9301C73.0695 91.9233 73.1056 91.9211 73.1394 91.9165C73.1529 91.9143 73.1664 91.9098 73.1799 91.9075C73.3489 91.8759 73.5133 91.8398 73.6778 91.8014C73.7206 91.7901 73.7657 91.7833 73.8085 91.772C74.0157 91.7201 74.2185 91.6614 74.4167 91.5982C74.4235 91.596 74.4302 91.596 74.4347 91.5937C74.5519 91.5553 74.6645 91.5124 74.7794 91.4695C74.8403 91.447 74.9033 91.4266 74.9619 91.4041C75.1399 91.3341 75.3156 91.2573 75.4846 91.1761L123.085 68.1648C123.272 68.0745 123.448 67.9775 123.614 67.8781C123.621 67.8736 123.628 67.8714 123.635 67.8668C123.637 67.8646 123.639 67.8646 123.641 67.8623C123.794 67.7698 123.936 67.6749 124.069 67.5756C124.085 67.5643 124.103 67.553 124.119 67.5395C124.247 67.4424 124.364 67.3453 124.477 67.2438C124.486 67.2347 124.5 67.2257 124.509 67.2167C124.52 67.2076 124.529 67.1963 124.538 67.1873C124.59 67.1399 124.637 67.0902 124.684 67.0406C124.705 67.0203 124.725 66.9977 124.745 66.9774C124.81 66.9074 124.871 66.8351 124.93 66.7629L124.932 66.7606C124.948 66.7403 124.964 66.7177 124.979 66.6952C125.013 66.65 125.047 66.6071 125.076 66.562C125.094 66.5349 125.11 66.5078 125.128 66.4807C125.155 66.4401 125.18 66.3994 125.205 66.3565C125.207 66.352 125.209 66.3498 125.211 66.3452C125.214 66.3385 125.216 66.334 125.221 66.3272C125.288 66.203 125.349 66.0789 125.396 65.9524V65.9502C125.441 65.8283 125.475 65.7064 125.502 65.5845C125.504 65.5777 125.507 65.5687 125.509 65.5619C125.509 65.5596 125.509 65.5551 125.511 65.5528C125.534 65.4355 125.547 65.3158 125.552 65.1984C125.552 65.1871 125.554 65.1781 125.556 65.1668C125.556 65.1465 125.556 65.1262 125.556 65.1059L125.615 44.0993C125.615 44.1287 125.61 44.158 125.61 44.1896Z" fill="#BEC1D0"/>
<path d="M74.615 7.16599C74.766 7.25403 74.9124 7.34659 75.0521 7.44366L124.009 41.5237C126.451 43.2236 126.061 45.7453 123.141 47.1585L75.5432 70.1675C72.7902 71.4994 68.7644 71.3662 66.2683 69.9214C66.1173 69.8334 65.9731 69.7431 65.8335 69.646L16.877 35.566C14.4349 33.866 14.8247 31.3444 17.7444 29.9311L65.3446 6.92217C68.0976 5.59022 72.1211 5.72115 74.615 7.16599Z" fill="white"/>
<path d="M96.1816 40.2842L96.193 36.4893C96.1998 36.4938 96.2043 36.4983 96.2111 36.5028L96.1998 40.2977C96.193 40.2932 96.1862 40.2887 96.1816 40.2842Z" fill="#141EA7"/>
<path d="M97.5562 38.6766C97.5562 38.6676 97.5562 38.6586 97.5562 38.6496C97.5562 38.5863 97.5517 38.5254 97.545 38.4622C97.5427 38.4441 97.5405 38.4261 97.536 38.408C97.5337 38.3922 97.5315 38.3764 97.5292 38.3606C97.5247 38.338 97.5247 38.3177 97.5202 38.2951C97.5089 38.2409 97.4977 38.1868 97.4819 38.1348C97.4797 38.1258 97.4774 38.119 97.4751 38.11C97.4729 38.0987 97.4684 38.0897 97.4661 38.0784C97.4571 38.0468 97.4481 38.0152 97.4368 37.9836C97.4188 37.9339 97.4008 37.8865 97.3805 37.8391C97.3783 37.8323 97.376 37.8278 97.3715 37.8233C97.3693 37.8165 97.3648 37.8075 97.3603 37.8007C97.3445 37.7669 97.3287 37.733 97.3129 37.6991C97.2904 37.654 97.2634 37.6088 97.2386 37.5637C97.2341 37.5569 97.2296 37.5501 97.2273 37.5434C97.2228 37.5366 97.2183 37.5276 97.2116 37.5208C97.1935 37.4892 97.1733 37.4598 97.153 37.4282C97.1237 37.3831 97.0922 37.3402 97.0584 37.2973C97.0516 37.2883 97.0449 37.2792 97.0381 37.2724C97.0313 37.2634 97.0246 37.2544 97.0178 37.2454C96.9975 37.2183 96.9773 37.1934 96.9547 37.1663C96.9164 37.1235 96.8781 37.0783 96.8376 37.0354C96.8286 37.0241 96.8173 37.0151 96.8083 37.0061C96.7993 36.997 96.7903 36.988 96.779 36.9767C96.7565 36.9541 96.734 36.9293 96.7092 36.9067C96.6619 36.8616 96.6146 36.8187 96.5627 36.7758C96.5537 36.7668 96.5425 36.7577 96.5312 36.751C96.5199 36.7397 96.5064 36.7306 96.4952 36.7193C96.4636 36.6923 96.4321 36.6674 96.4005 36.6403C96.342 36.5952 96.2789 36.5478 96.2158 36.5049V36.5071C96.209 36.5026 96.2045 36.4981 96.1978 36.4936L96.1865 40.2885C96.2924 40.363 96.3915 40.4375 96.4839 40.5165C96.4974 40.5278 96.5087 40.5369 96.5222 40.5482C96.6101 40.6227 96.6934 40.6994 96.77 40.7762C96.779 40.7852 96.7903 40.7965 96.7993 40.8055C96.8759 40.8845 96.9457 40.9635 97.0088 41.0448C97.0156 41.0538 97.0223 41.0629 97.0291 41.0719C97.0922 41.1532 97.1507 41.2367 97.2025 41.3202C97.2071 41.327 97.2116 41.336 97.2183 41.3428C97.2701 41.4286 97.3152 41.5144 97.3535 41.6002C97.358 41.6069 97.3602 41.616 97.3648 41.6227C97.4031 41.7085 97.4346 41.7943 97.4594 41.8801C97.4616 41.8914 97.4661 41.9004 97.4684 41.9117C97.4932 41.9952 97.5089 42.0788 97.5225 42.1623C97.5247 42.1781 97.527 42.1939 97.5292 42.2097C97.5405 42.2978 97.5472 42.3881 97.5472 42.4761L97.5562 38.6766Z" fill="#B3B4C8"/>
<path d="M74.277 21.2327C74.2139 21.1875 74.1486 21.1446 74.081 21.104C74.0247 21.0679 73.9661 21.034 73.9075 20.9979C73.8805 20.9821 73.8535 20.9663 73.8264 20.9527C73.7296 20.8986 73.6304 20.8466 73.5291 20.797C73.5223 20.7947 73.5156 20.7902 73.5088 20.7879C73.475 20.7721 73.439 20.7586 73.4052 20.7428C73.3241 20.7044 73.243 20.666 73.1574 20.6322C73.1393 20.6254 73.1213 20.6186 73.1055 20.6119C73.0244 20.578 72.9388 20.5486 72.8555 20.5193C72.7992 20.499 72.7451 20.4764 72.6865 20.4561C72.6685 20.4493 72.6482 20.4448 72.6302 20.438C72.5874 20.4245 72.5423 20.4109 72.4973 20.3974C72.3936 20.3658 72.29 20.3364 72.1841 20.3071C72.1346 20.2935 72.085 20.2823 72.0332 20.2687C71.9971 20.2597 71.9633 20.2507 71.9273 20.2416C71.8867 20.2326 71.8462 20.2258 71.8056 20.219C71.675 20.192 71.5443 20.1649 71.4114 20.1423C71.3731 20.1355 71.3348 20.1265 71.2942 20.1197C71.2627 20.1152 71.2289 20.1129 71.1974 20.1084C71.0983 20.0949 70.9991 20.0813 70.9 20.07C70.8459 20.0633 70.7941 20.0542 70.7401 20.0497C70.7018 20.0452 70.6657 20.043 70.6274 20.0407C70.5869 20.0362 70.5463 20.0339 70.5058 20.0317C70.4652 20.0294 70.4247 20.0249 70.3819 20.0226C70.285 20.0159 70.1881 20.0113 70.0912 20.0091C70.08 20.0091 70.0665 20.0091 70.0552 20.0091C70.0394 20.0091 70.0237 20.0091 70.0101 20.0091C69.9516 20.0068 69.8907 20.0068 69.8322 20.0046C69.7488 20.0046 69.6632 20.0046 69.5798 20.0068C69.5641 20.0068 69.546 20.0068 69.5303 20.0091C69.5145 20.0091 69.4987 20.0091 69.483 20.0114C69.4334 20.0136 69.3861 20.0136 69.3365 20.0159C69.2554 20.0181 69.1743 20.0226 69.0955 20.0294C69.0662 20.0317 69.0369 20.0339 69.0076 20.0362C68.9896 20.0384 68.9716 20.0384 68.9536 20.0407C68.9198 20.043 68.8882 20.0452 68.8544 20.0475C68.7756 20.0542 68.6945 20.0633 68.6156 20.0723C68.5706 20.0768 68.5278 20.0836 68.4827 20.0881C68.4669 20.0904 68.4512 20.0926 68.4354 20.0949C68.4174 20.0971 68.3971 20.0994 68.3791 20.1017C68.3002 20.1129 68.2214 20.1242 68.1448 20.1378C68.0817 20.1491 68.0186 20.1603 67.9533 20.1716C67.9443 20.1739 67.9375 20.1739 67.9285 20.1762C67.9217 20.1762 67.9172 20.1784 67.9105 20.1784C67.8339 20.1942 67.7573 20.2078 67.6807 20.2258C67.6041 20.2416 67.5298 20.2597 67.4554 20.2777C67.4487 20.28 67.4441 20.28 67.4374 20.2823C67.4306 20.2845 67.4216 20.2868 67.4149 20.289C67.354 20.3048 67.2932 20.3206 67.2324 20.3364C67.158 20.3568 67.0814 20.3793 67.0094 20.4019C66.9936 20.4064 66.9756 20.4132 66.9598 20.4177C66.944 20.4222 66.9305 20.4267 66.9147 20.4313C66.8719 20.4448 66.8291 20.4583 66.7863 20.4719C66.7097 20.499 66.6331 20.5261 66.5588 20.5532C66.5363 20.5622 66.5137 20.5712 66.4912 20.5803C66.4732 20.587 66.4552 20.5938 66.4371 20.6028C66.4011 20.6164 66.365 20.6299 66.3312 20.6457C66.2501 20.6796 66.1713 20.7134 66.0947 20.7496C66.0677 20.7609 66.0429 20.7744 66.0158 20.7879L45.3843 30.7641C45.3258 30.7912 45.2695 30.8205 45.2154 30.8499C45.2019 30.8566 45.1906 30.8634 45.1771 30.8724C45.132 30.8973 45.087 30.9221 45.0419 30.9469C45.0149 30.9627 44.9878 30.9763 44.9631 30.9898C44.9541 30.9966 44.945 31.0011 44.936 31.0079C44.8662 31.0485 44.8009 31.0914 44.7355 31.1343C44.722 31.1433 44.7062 31.1524 44.6927 31.1614C44.6905 31.1637 44.6882 31.1637 44.6882 31.1659C44.5868 31.2336 44.4945 31.3036 44.4044 31.3759C44.3931 31.3849 44.3818 31.3917 44.3728 31.3984C44.3616 31.4075 44.3525 31.4165 44.3435 31.4255C44.2692 31.4865 44.1994 31.5497 44.1318 31.6129C44.1273 31.6174 44.1228 31.6219 44.1183 31.6265C44.0484 31.6942 43.9831 31.7619 43.9223 31.8319C43.9065 31.8499 43.8907 31.8703 43.8749 31.8883C43.8254 31.947 43.7803 32.0057 43.7375 32.0644C43.7285 32.078 43.7172 32.0915 43.706 32.1073C43.6564 32.1796 43.6114 32.2518 43.5708 32.324C43.5618 32.3421 43.5528 32.3602 43.5438 32.376C43.5122 32.4369 43.4829 32.4956 43.4582 32.5566C43.4492 32.5746 43.4424 32.5949 43.4334 32.613C43.4041 32.6875 43.3793 32.7643 43.3568 32.8388C43.3523 32.8523 43.35 32.8636 43.3478 32.8771C43.332 32.9426 43.3185 33.0081 43.3095 33.0735C43.3072 33.0939 43.3027 33.1142 43.3005 33.1368C43.2915 33.2135 43.2847 33.2925 43.2847 33.3693L43.2734 37.1642C43.2734 37.0875 43.2802 37.0085 43.2892 36.9317C43.2915 36.9114 43.296 36.8888 43.2982 36.8685C43.3072 36.803 43.3207 36.7375 43.3365 36.6743C43.3388 36.6608 43.341 36.6472 43.3455 36.6337C43.3658 36.5569 43.3928 36.4824 43.4221 36.4079C43.4289 36.3899 43.4379 36.3696 43.4469 36.3515C43.4717 36.2906 43.501 36.2319 43.5325 36.1709C43.5415 36.1528 43.5505 36.1348 43.5595 36.1167C43.6001 36.0445 43.6452 35.97 43.6947 35.9C43.7037 35.8865 43.715 35.8729 43.7263 35.8571C43.7691 35.7984 43.8141 35.7375 43.8637 35.681C43.8795 35.663 43.8952 35.6426 43.911 35.6246C43.9718 35.5546 44.0371 35.4869 44.107 35.4191C44.1115 35.4146 44.116 35.4101 44.1205 35.4056C44.1858 35.3424 44.2579 35.2792 44.3323 35.2182C44.3525 35.2024 44.3728 35.1844 44.3931 35.1685C44.4832 35.0963 44.5756 35.0263 44.677 34.9586C44.6927 34.9473 44.7085 34.9383 44.7243 34.9292C44.7896 34.8864 44.8549 34.8435 44.9248 34.8028C44.9586 34.7825 44.9969 34.7622 45.0329 34.7419C45.078 34.717 45.1208 34.6922 45.1681 34.6674C45.2357 34.6313 45.3055 34.5951 45.3776 34.5613L66.0091 24.5851C66.1465 24.5197 66.2884 24.4587 66.4326 24.4C66.4506 24.3933 66.4687 24.3865 66.4867 24.3775C66.6241 24.3233 66.766 24.2736 66.908 24.2285C66.9237 24.2239 66.9395 24.2194 66.953 24.2127C67.1017 24.1652 67.2549 24.1224 67.4081 24.084C67.4171 24.0817 67.4239 24.0795 67.4329 24.0772C67.5951 24.0366 67.7573 24.0004 67.924 23.9688C67.9308 23.9666 67.9398 23.9666 67.9465 23.9643C68.1065 23.935 68.2664 23.9079 68.4286 23.8876C68.4444 23.8853 68.4602 23.8831 68.4782 23.8808C68.6336 23.8605 68.7913 23.8447 68.949 23.8311C68.9671 23.8289 68.9851 23.8289 69.0031 23.8266C69.1608 23.8153 69.3208 23.8063 69.4785 23.8018C69.4942 23.8018 69.51 23.8018 69.5235 23.7995C69.6857 23.795 69.8457 23.7973 70.0079 23.8018C70.0236 23.8018 70.0372 23.8018 70.0529 23.8018C70.2039 23.8063 70.3526 23.8153 70.5035 23.8266C70.5441 23.8289 70.5846 23.8334 70.6229 23.8356C70.7153 23.8447 70.8054 23.8537 70.8955 23.865C70.9946 23.8763 71.0938 23.8876 71.1929 23.9034C71.265 23.9147 71.3348 23.9259 71.4069 23.9372C71.5398 23.9598 71.6705 23.9846 71.8011 24.014C71.8777 24.0298 71.9543 24.0456 72.0287 24.0637C72.0782 24.0749 72.1278 24.0885 72.1774 24.102C72.2832 24.1291 72.3891 24.1607 72.4928 24.1923C72.5356 24.2059 72.5806 24.2194 72.6234 24.233C72.7 24.2578 72.7744 24.2872 72.851 24.3142C72.9343 24.3436 73.0177 24.3729 73.0988 24.4068C73.2024 24.4474 73.3015 24.4926 73.4007 24.5377C73.4344 24.5535 73.4705 24.5671 73.502 24.5829C73.6395 24.6484 73.7724 24.7183 73.9008 24.7928C74.0292 24.8673 74.1531 24.9441 74.2703 25.0276L96.1836 40.2842L96.1949 36.4892L74.277 21.2327Z" fill="#B3B4C8"/>
<path d="M73.896 24.7929C74.0244 24.8674 74.1483 24.9441 74.2655 25.0276L96.1789 40.2842C98.2537 41.729 97.9248 43.8737 95.4422 45.0747L74.8084 55.0486C72.4677 56.1796 69.0457 56.069 66.9212 54.8386C66.7928 54.7641 66.6689 54.6874 66.5518 54.6038L44.6384 39.3496C42.5613 37.9047 42.8924 35.76 45.3751 34.559L66.0066 24.5829C68.3518 23.4519 71.7739 23.5648 73.896 24.7929Z" fill="#D4D7E0"/>
<path d="M119.615 41.1805C121.868 42.7495 121.508 45.0838 118.816 46.3841L75.845 67.1581C74.5384 67.788 72.887 68.086 71.1929 67.9934C69.6993 67.9144 68.3295 67.5397 67.2797 66.9324C67.1378 66.8511 67.0026 66.7631 66.8765 66.675L22.678 35.9114C20.4252 34.3424 20.7856 32.0081 23.48 30.7054L66.4507 9.93146C67.7551 9.3016 69.4086 9.0036 71.1005 9.0939C72.5964 9.17518 73.9661 9.54993 75.016 10.1572C75.1556 10.2385 75.2908 10.3243 75.4192 10.4146L119.615 41.1805ZM118.631 46.2577C121.201 45.0138 121.546 42.7856 119.395 41.2888L75.1984 10.5207C75.0745 10.4349 74.9461 10.3536 74.811 10.2746C73.8084 9.69441 72.5018 9.33772 71.0757 9.26096C69.456 9.17518 67.8812 9.45737 66.6354 10.0601L23.6625 30.8319C21.092 32.0758 20.7473 34.304 22.8988 35.8007L67.095 66.5666C67.2166 66.6524 67.345 66.7337 67.4802 66.8105C68.4827 67.3907 69.7916 67.7473 71.2177 67.8241C72.8375 67.9099 74.4122 67.6277 75.658 67.0249L118.631 46.2577Z" fill="#E1E2E7"/>
<path d="M130.592 34.225L130.585 36.986L126.542 39.3406L126.548 36.5796L130.592 34.225Z" fill="#07B182"/>
<path d="M126.548 36.5796L126.541 39.3406L122.47 36.986L122.477 34.225L126.548 36.5796Z" fill="#057B5A"/>
<path d="M130.592 34.2249L126.548 36.5796L122.478 34.2249L126.521 31.8703L130.592 34.2249Z" fill="#08C591"/>
<path d="M135.185 26.213L135.179 28.4209L132.966 29.71L132.971 27.5021L135.185 26.213Z" fill="#07B182"/>
<path d="M132.973 27.502L132.968 29.7099L130.74 28.4208L130.745 26.213L132.973 27.502Z" fill="#057B5A"/>
<path d="M135.186 26.2129L132.972 27.502L130.744 26.2129L132.958 24.9238L135.186 26.2129Z" fill="#08C591"/>
<path d="M6.28448 12.3741L6.27997 14.582L4.06543 15.8711L4.07219 13.6632L6.28448 12.3741Z" fill="#07B182"/>
<path d="M4.07173 13.6631L4.06497 15.871L1.83691 14.582L1.84367 12.3741L4.07173 13.6631Z" fill="#057B5A"/>
<path d="M6.2841 12.3741L4.07181 13.6632L1.84375 12.3741L4.05604 11.0851L6.2841 12.3741Z" fill="#08C591"/>
<path d="M141 35.4554L140.991 38.2164L138.513 39.6589L138.52 36.9002L141 35.4554Z" fill="#07B182"/>
<path d="M138.521 36.9001L138.514 39.6589L135.612 37.9815L135.619 35.2205L138.521 36.9001Z" fill="#057B5A"/>
<path d="M141 35.4554L138.52 36.9002L135.618 35.2206L138.099 33.7758L141 35.4554Z" fill="#08C591"/>
<path d="M8.12043 23.7138L8.11367 26.4748L4.06982 28.8294L4.07658 26.0707L8.12043 23.7138Z" fill="#07B182"/>
<path d="M4.07764 26.0706L4.07088 28.8294L0 26.4747L0.00675852 23.7137L4.07764 26.0706Z" fill="#057B5A"/>
<path d="M8.12156 23.7138L4.07772 26.0707L0.00683594 23.7138L4.05294 21.3592L8.12156 23.7138Z" fill="#08C591"/>
<path d="M18.5345 17.3069L18.5277 20.0656L16.0474 21.5104L16.0541 18.7495L18.5345 17.3069Z" fill="#07B182"/>
<path d="M16.0537 18.7495L16.047 21.5105L13.1431 19.8309L13.1498 17.0699L16.0537 18.7495Z" fill="#057B5A"/>
<path d="M18.5327 17.3069L16.0523 18.7495L13.1484 17.0698L15.6288 15.625L18.5327 17.3069Z" fill="#08C591"/>
<path d="M123.328 100.495H123.055V98.0911C123.055 97.3529 122.661 96.6576 122.028 96.2806L102.833 85.0899L103.048 84.9815L122.165 96.0458C122.884 96.4724 123.328 97.2558 123.328 98.0911V100.495Z" fill="#BEBEBE"/>
<path d="M103.238 98.7502H102.965V95.2601C102.952 94.9666 102.787 94.6979 102.528 94.5489L93.7354 89.6049L93.8683 89.3656L102.663 94.3119C103.006 94.5083 103.222 94.8605 103.24 95.2556L103.238 98.7502Z" fill="#BEBEBE"/>
<path d="M102.992 101.947C102.343 101.947 101.699 101.814 101.194 101.543C100.64 101.245 100.327 100.827 100.311 100.367C100.295 99.9084 100.579 99.4749 101.106 99.1453C102.147 98.4929 103.88 98.4387 104.968 99.0234C105.522 99.3214 105.835 99.7391 105.851 100.2C105.867 100.658 105.583 101.091 105.056 101.421C104.499 101.769 103.742 101.947 102.992 101.947ZM103.17 98.888C102.474 98.888 101.771 99.0528 101.253 99.3779C100.811 99.6533 100.575 100.003 100.586 100.358C100.597 100.717 100.861 101.051 101.325 101.301C102.334 101.843 103.945 101.793 104.911 101.188C105.353 100.913 105.59 100.563 105.578 100.209C105.567 99.8497 105.303 99.5156 104.839 99.265C104.371 99.0099 103.772 98.888 103.17 98.888Z" fill="#BEBEBE"/>
<path d="M123.105 103.683C122.457 103.683 121.812 103.55 121.308 103.279C120.753 102.981 120.44 102.563 120.424 102.103C120.409 101.644 120.693 101.211 121.22 100.881C122.261 100.229 123.993 100.175 125.081 100.76C125.635 101.058 125.948 101.475 125.964 101.936C125.98 102.394 125.696 102.827 125.169 103.157C124.61 103.507 123.853 103.683 123.105 103.683ZM123.281 100.624C122.585 100.624 121.882 100.789 121.364 101.114C120.922 101.389 120.686 101.739 120.697 102.094C120.708 102.453 120.972 102.787 121.436 103.037C122.445 103.579 124.056 103.53 125.023 102.925C125.464 102.649 125.701 102.299 125.689 101.945C125.678 101.586 125.414 101.252 124.95 101.001C124.482 100.748 123.885 100.624 123.281 100.624Z" fill="#BEBEBE"/>
<path d="M113.351 104.819H113.078V97.2716C113.078 96.5334 112.684 95.8381 112.051 95.461L98.2949 87.2706L98.6058 87.1375L112.19 95.2263C112.907 95.6529 113.353 96.4363 113.353 97.2716V104.819H113.351Z" fill="#BEBEBE"/>
<path d="M113.126 108.083C112.477 108.083 111.833 107.95 111.328 107.679C110.774 107.381 110.461 106.963 110.445 106.503C110.429 106.044 110.713 105.611 111.24 105.281C112.281 104.629 114.013 104.575 115.102 105.159C115.656 105.457 115.969 105.875 115.985 106.336C116 106.794 115.717 107.227 115.189 107.557C114.631 107.905 113.876 108.083 113.126 108.083ZM113.304 105.024C112.608 105.024 111.905 105.189 111.387 105.514C110.945 105.789 110.709 106.139 110.72 106.494C110.731 106.853 110.995 107.187 111.459 107.437C112.468 107.979 114.079 107.929 115.045 107.324C115.487 107.049 115.723 106.699 115.712 106.345C115.701 105.986 115.437 105.652 114.973 105.401C114.505 105.148 113.905 105.024 113.304 105.024Z" fill="#BEBEBE"/>
<path d="M133.377 89.7878H118.461L107.111 83.0219L107.37 82.8978L118.535 89.5146H133.377V89.7878Z" fill="#BEBEBE"/>
<path d="M123.743 83.9723L116.656 83.7488L111.647 80.832L111.943 80.6876L116.732 83.4779L123.752 83.6991L123.743 83.9723Z" fill="#BEBEBE"/>
<path d="M135.92 91.1492C135.271 91.1492 134.627 91.016 134.122 90.7451C133.568 90.4471 133.255 90.0294 133.239 89.5689C133.223 89.1106 133.507 88.6771 134.034 88.3475C135.075 87.6951 136.807 87.6409 137.896 88.2256C138.45 88.5236 138.763 88.9413 138.779 89.4018C138.794 89.8601 138.511 90.2936 137.983 90.6232C137.427 90.9731 136.67 91.1492 135.92 91.1492ZM136.096 88.0902C135.399 88.0902 134.696 88.255 134.178 88.5801C133.737 88.8555 133.5 89.2054 133.512 89.5598C133.523 89.9188 133.786 90.2529 134.25 90.5035C135.262 91.0453 136.87 90.9957 137.837 90.3906C138.279 90.1152 138.515 89.7653 138.504 89.4108C138.493 89.0519 138.229 88.7178 137.765 88.4672C137.299 88.2143 136.699 88.0902 136.096 88.0902Z" fill="#BEBEBE"/>
<path d="M126.344 85.5008C125.695 85.5008 125.051 85.3676 124.546 85.0967C123.992 84.7987 123.679 84.381 123.663 83.9205C123.647 83.4622 123.931 83.0288 124.458 82.6992C125.499 82.0467 127.232 81.9926 128.32 82.5773C128.874 82.8753 129.187 83.2929 129.203 83.7534C129.219 84.2117 128.935 84.6452 128.408 84.9748C127.849 85.3224 127.094 85.5008 126.344 85.5008ZM126.52 82.4395C125.824 82.4395 125.121 82.6043 124.603 82.9294C124.161 83.2049 123.925 83.5548 123.936 83.9092C123.947 84.2682 124.211 84.6023 124.675 84.8529C125.684 85.3947 127.295 85.345 128.261 84.74C128.703 84.4646 128.939 84.1146 128.928 83.7602C128.917 83.4013 128.653 83.0671 128.189 82.8166C127.723 82.5637 127.124 82.4395 126.52 82.4395Z" fill="#BEBEBE"/>
<path d="M16.9458 91.9009L17.2184 91.9212L17.3896 89.5237C17.4414 88.7855 17.8852 88.124 18.5453 87.7921L37.6088 78.4368L37.4016 78.3127L18.4237 87.5461C17.678 87.9208 17.1778 88.6703 17.117 89.5034L16.9458 91.9009Z" fill="#BEBEBE"/>
<path d="M37.1084 91.6051L37.381 91.6254L37.6311 88.1442C37.6648 87.853 37.8473 87.5957 38.1177 87.467L45.5182 83.9587L45.2704 83.7759L38.0005 87.2186C37.6446 87.3902 37.4058 87.7266 37.3585 88.1172L37.1084 91.6051Z" fill="#BEBEBE"/>
<path d="M35.1034 94.1359C34.601 93.7679 34.3487 93.3141 34.3982 92.8604C34.4455 92.4021 34.7902 92.007 35.3647 91.7519C36.4911 91.2485 38.2145 91.4268 39.208 92.1515C39.7104 92.5195 39.9627 92.971 39.9132 93.427C39.8659 93.8853 39.5234 94.2804 38.949 94.5377C38.4263 94.7725 37.7752 94.8583 37.1287 94.8109C36.3785 94.7567 35.6373 94.5242 35.1034 94.1359ZM35.4751 92.0002C34.993 92.2147 34.7069 92.5308 34.6708 92.8875C34.6325 93.2419 34.8443 93.6054 35.2656 93.9146C36.187 94.5874 37.7887 94.7545 38.8363 94.2849C39.3184 94.0682 39.6045 93.7544 39.6406 93.3954C39.6789 93.041 39.4671 92.6775 39.0458 92.3705C38.5525 92.0093 37.8631 91.7948 37.1692 91.7451C36.5677 91.7022 35.9617 91.7835 35.4751 92.0002Z" fill="#BEBEBE"/>
<path d="M14.9227 94.4249C14.4203 94.057 14.168 93.6054 14.2176 93.1494C14.2649 92.6911 14.6073 92.2961 15.1818 92.041C16.3082 91.5375 18.0316 91.7159 19.0251 92.4406C19.5275 92.8085 19.7798 93.26 19.7303 93.7161C19.6829 94.1744 19.3405 94.5694 18.766 94.8245C18.2434 95.0593 17.5923 95.1451 16.9457 95.0977C16.1956 95.0435 15.4544 94.8132 14.9227 94.4249ZM15.2922 92.2893C14.8101 92.5038 14.5239 92.8198 14.4879 93.1765C14.4496 93.531 14.6614 93.8944 15.0826 94.2014C16.0041 94.8742 17.6058 95.0413 18.6534 94.5717C19.1355 94.3572 19.4216 94.0412 19.4577 93.6845C19.496 93.33 19.2842 92.9666 18.8629 92.6595C18.3695 92.2983 17.6802 92.0839 16.9863 92.0342C16.3848 91.989 15.7788 92.0703 15.2922 92.2893Z" fill="#BEBEBE"/>
<path d="M26.5874 96.9284L26.86 96.9488L27.4007 89.4221C27.4525 88.6839 27.8963 88.0224 28.5564 87.6905L41.5327 81.173L41.2331 81.0172L28.4347 87.4445C27.689 87.8192 27.1889 88.5687 27.1303 89.4018L26.5874 96.9284Z" fill="#BEBEBE"/>
<path d="M24.5575 99.5293C24.0551 99.1613 23.8028 98.7098 23.8523 98.2537C23.8996 97.7955 24.2421 97.4004 24.8165 97.143C25.943 96.6396 27.6664 96.8179 28.6599 97.5426C29.1623 97.9106 29.4146 98.3621 29.365 98.8181C29.3177 99.2764 28.9753 99.6715 28.4008 99.9266C27.8781 100.161 27.2271 100.247 26.5805 100.2C25.8303 100.148 25.0891 99.9176 24.5575 99.5293ZM24.9292 97.3936C24.4471 97.6103 24.161 97.9241 24.1249 98.2808C24.0866 98.6353 24.2984 98.9987 24.7197 99.3058C25.6411 99.9785 27.2428 100.146 28.2904 99.676C28.7725 99.4615 29.0586 99.1455 29.0947 98.7888C29.133 98.4343 28.9212 98.0709 28.4999 97.7638C28.0066 97.4026 27.3172 97.1882 26.6233 97.1385C26.0196 97.0956 25.4135 97.1746 24.9292 97.3936Z" fill="#BEBEBE"/>
<path d="M7.69189 80.498L22.5696 81.5703L33.9104 75.8768L33.6897 75.721L22.5133 81.2926L7.71217 80.2248L7.69189 80.498Z" fill="#BEBEBE"/>
<path d="M17.7163 75.3914L24.8015 75.6781L30.0055 73.1271L29.7194 72.9623L24.7429 75.4027L17.7276 75.116L17.7163 75.3914Z" fill="#BEBEBE"/>
<path d="M3.03451 81.0015C2.53213 80.6335 2.27981 80.182 2.32937 79.726C2.37668 79.2677 2.72137 78.8726 3.29584 78.6153C4.42226 78.1096 6.14568 78.2902 7.13919 79.0148C7.64157 79.3828 7.89389 79.8343 7.84432 80.2904C7.79701 80.7486 7.45458 81.1437 6.88011 81.3988C6.35745 81.6336 5.70638 81.7194 5.05756 81.672C4.30737 81.6201 3.56618 81.3898 3.03451 81.0015ZM3.40623 78.8658C2.92412 79.0826 2.63801 79.3964 2.59971 79.7531C2.56142 80.1075 2.77318 80.471 3.19446 80.778C4.11588 81.4507 5.71764 81.6178 6.76521 81.1482C7.24732 80.9338 7.53343 80.6177 7.56948 80.261C7.60778 79.9066 7.39601 79.5431 6.97473 79.2361C6.48136 78.8749 5.79199 78.6604 5.09811 78.6107C4.4966 78.5678 3.89284 78.6469 3.40623 78.8658Z" fill="#BEBEBE"/>
<path d="M12.9935 76.0529C12.4911 75.685 12.2388 75.2334 12.2884 74.7774C12.3357 74.3191 12.6781 73.9241 13.2526 73.669C14.379 73.1655 16.1024 73.3439 17.0959 74.0685C17.5983 74.4365 17.8506 74.888 17.8011 75.3441C17.7537 75.8023 17.4113 76.1974 16.8368 76.4525C16.3142 76.6873 15.6631 76.7731 15.0165 76.7257C14.2664 76.6738 13.5252 76.4412 12.9935 76.0529ZM13.3652 73.9173C12.8831 74.1318 12.597 74.4478 12.561 74.8045C12.5227 75.1589 12.7344 75.5224 13.1557 75.8294C14.0771 76.5022 15.6789 76.6692 16.7265 76.1997C17.2086 75.9852 17.4947 75.6692 17.5307 75.3125C17.569 74.958 17.3572 74.5946 16.936 74.2875C16.4426 73.9263 15.7532 73.7119 15.0593 73.6622C14.4556 73.6193 13.8496 73.7006 13.3652 73.9173Z" fill="#BEBEBE"/>
<mask id="mask0_4912_4237" style="mask-type:luminance" maskUnits="userSpaceOnUse" x="40" y="15" width="2" height="6">
<path d="M40.6379 19.395L40.879 15.7219C40.8497 16.1667 41.1155 16.6295 41.6787 17.0042L41.4377 20.6772C40.8745 20.3025 40.6086 19.8374 40.6379 19.395Z" fill="white"/>
</mask>
<g mask="url(#mask0_4912_4237)">
<path d="M41.6802 17.0042L41.4392 20.6772C40.8737 20.3002 40.6101 19.8374 40.6394 19.395L40.8805 15.7219C40.8489 16.1667 41.1148 16.6295 41.6802 17.0042Z" fill="#0B1160"/>
</g>
<path d="M104.028 28.2333C104.041 28.2265 104.053 28.2197 104.066 28.2152C104.095 28.1994 104.12 28.1836 104.147 28.1678C104.186 28.1475 104.224 28.1249 104.258 28.1046C104.289 28.0843 104.316 28.064 104.345 28.0436C104.377 28.0211 104.411 27.9985 104.44 27.9737C104.447 27.9691 104.454 27.9646 104.46 27.9601C104.472 27.9511 104.481 27.9398 104.494 27.9285C104.544 27.8879 104.587 27.845 104.629 27.7998C104.638 27.7908 104.65 27.7818 104.659 27.7727C104.668 27.7637 104.672 27.7524 104.681 27.7434C104.708 27.7118 104.733 27.6779 104.758 27.6441C104.767 27.6305 104.78 27.617 104.789 27.6034C104.794 27.5966 104.796 27.5876 104.801 27.5808C104.819 27.5515 104.834 27.5221 104.85 27.4905C104.859 27.4725 104.87 27.4567 104.879 27.4386C104.882 27.4318 104.884 27.4273 104.886 27.4206C104.897 27.3912 104.909 27.3619 104.918 27.3325C104.924 27.3122 104.933 27.2941 104.938 27.2738C104.94 27.2693 104.94 27.2625 104.94 27.258C104.947 27.2264 104.951 27.1971 104.956 27.1655C104.958 27.1451 104.965 27.1248 104.967 27.1045C104.967 27.0955 104.97 27.0864 104.97 27.0774L105.211 23.4044C105.208 23.4337 105.202 23.4608 105.197 23.4902C105.193 23.5218 105.188 23.5534 105.181 23.585C105.175 23.6098 105.166 23.6346 105.157 23.6595C105.147 23.6888 105.138 23.7182 105.125 23.7475C105.114 23.7724 105.102 23.7949 105.089 23.8175C105.073 23.8469 105.057 23.8785 105.039 23.9078C105.026 23.9304 105.01 23.9507 104.994 23.971C104.972 24.0049 104.945 24.0387 104.918 24.0703C104.902 24.0907 104.884 24.1087 104.866 24.1268C104.825 24.1697 104.78 24.2126 104.731 24.2555C104.713 24.2713 104.697 24.2848 104.679 24.3006C104.65 24.3255 104.616 24.348 104.582 24.3706C104.553 24.3909 104.526 24.4112 104.494 24.4316C104.458 24.4541 104.42 24.4745 104.384 24.497C104.345 24.5196 104.307 24.5422 104.267 24.5625L77.1943 38.1236C77.1019 38.1688 77.005 38.2094 76.9059 38.2478C76.8766 38.2591 76.8473 38.2681 76.818 38.2794C76.7392 38.3065 76.6603 38.3313 76.5792 38.3539C76.55 38.3629 76.5207 38.3697 76.4914 38.3787C76.4396 38.3923 76.3877 38.4013 76.3359 38.4126C76.2976 38.4216 76.2571 38.4306 76.2165 38.4374C76.1625 38.4464 76.1061 38.4555 76.0498 38.4622C76.0115 38.4668 75.9755 38.4735 75.9372 38.478C75.8245 38.4916 75.7119 38.4984 75.597 38.5029C75.561 38.5051 75.5272 38.5051 75.4911 38.5051C75.4235 38.5074 75.3559 38.5074 75.2884 38.5051C75.2456 38.5051 75.2028 38.5029 75.1577 38.5006C75.1036 38.4984 75.0496 38.4961 74.9955 38.4916C74.9504 38.4871 74.9054 38.4848 74.8603 38.4803C74.8108 38.4758 74.7589 38.469 74.7094 38.4622C74.6643 38.4555 74.617 38.4487 74.572 38.4419C74.5224 38.4329 74.4728 38.4261 74.4255 38.4171C74.3805 38.4081 74.3377 38.399 74.2926 38.39C74.2408 38.3787 74.189 38.3652 74.1372 38.3516C74.0966 38.3403 74.0561 38.3313 74.0155 38.3178C73.9547 38.2997 73.8939 38.2816 73.833 38.2613C73.7992 38.25 73.7654 38.2387 73.7339 38.2275C73.6258 38.1891 73.5221 38.1462 73.4208 38.0988C73.3712 38.0762 73.3239 38.0514 73.2743 38.0265C73.2495 38.013 73.2225 38.0017 73.2 37.9882C73.1279 37.9475 73.0558 37.9046 72.9882 37.8595L41.6805 17.0042L41.4395 20.6772L72.7562 41.528C72.8238 41.5731 72.8936 41.616 72.9679 41.6567C72.9927 41.6702 73.0175 41.6815 73.0423 41.6951C73.0851 41.7176 73.1279 41.7402 73.1729 41.7628C73.1775 41.765 73.1842 41.7673 73.1887 41.7696C73.2901 41.817 73.3937 41.8576 73.5019 41.8982C73.5109 41.9005 73.5176 41.905 73.5266 41.9095C73.5514 41.9186 73.5762 41.9253 73.601 41.9321C73.6618 41.9524 73.7204 41.9705 73.7835 41.9885C73.7992 41.9931 73.815 41.9998 73.833 42.0043C73.8578 42.0111 73.8826 42.0156 73.9051 42.0224C73.9569 42.0359 74.0087 42.0472 74.0606 42.0608C74.0808 42.0653 74.1011 42.0721 74.1236 42.0766C74.1462 42.0811 74.1687 42.0833 74.1912 42.0879C74.2408 42.0969 74.2904 42.1059 74.3399 42.115C74.3647 42.1195 74.3872 42.124 74.4098 42.1285C74.4323 42.1308 74.4526 42.133 74.4751 42.1353C74.5246 42.142 74.5742 42.1466 74.626 42.1533C74.6508 42.1556 74.6756 42.1601 74.7026 42.1624C74.7229 42.1646 74.7432 42.1646 74.7635 42.1669C74.8175 42.1714 74.8716 42.1737 74.9257 42.1759C74.9527 42.1782 74.9797 42.1804 75.0068 42.1804C75.0225 42.1804 75.0383 42.1804 75.0541 42.1804C75.1217 42.1827 75.1892 42.1804 75.2568 42.1804C75.2839 42.1804 75.3109 42.1804 75.3379 42.1804C75.3469 42.1804 75.3537 42.1782 75.3627 42.1782C75.4776 42.1737 75.5902 42.1646 75.7029 42.1533C75.7074 42.1533 75.7141 42.1533 75.7209 42.1511C75.7547 42.1466 75.7862 42.142 75.8178 42.1375C75.8741 42.1308 75.9282 42.1217 75.9845 42.1127C76.025 42.1059 76.0633 42.0969 76.1039 42.0879C76.1557 42.0766 76.2075 42.0675 76.2593 42.054C76.2706 42.0517 76.2819 42.0495 76.2931 42.0472C76.3112 42.0427 76.3292 42.0359 76.3472 42.0314C76.4283 42.0089 76.5072 41.984 76.586 41.9569C76.6153 41.9456 76.6446 41.9366 76.6739 41.9253C76.773 41.8869 76.8699 41.8463 76.9622 41.8012L104.028 28.2333Z" fill="#0B1160"/>
<path d="M104.409 22.1198C105.531 22.867 105.468 23.9597 104.272 24.5602L77.1992 38.1213C76.0006 38.7218 74.1195 38.6022 72.9976 37.8549L41.6809 17.0042C40.559 16.2569 40.6221 15.1665 41.8206 14.5638L68.8907 1.0049C70.0892 0.404388 71.9703 0.521781 73.0922 1.26903L104.409 22.1198Z" fill="#0854F5"/>
<path d="M48.3253 16.1979C48.3621 15.638 47.6099 15.1327 46.6452 15.0691C45.6806 15.0056 44.8689 15.4079 44.8321 15.9677C44.7954 16.5276 45.5476 17.0329 46.5122 17.0965C47.4769 17.16 48.2886 16.7577 48.3253 16.1979Z" fill="#426CF6"/>
<path d="M72.4752 4.31462C72.512 3.75479 71.7598 3.24944 70.7951 3.18589C69.8305 3.12234 69.0188 3.52465 68.982 4.08448C68.9453 4.64431 69.6975 5.14966 70.6621 5.21321C71.6268 5.27677 72.4385 4.87445 72.4752 4.31462Z" fill="#426CF6"/>
<path d="M101.123 23.0094C101.16 22.4496 100.408 21.9442 99.4431 21.8807C98.4785 21.8171 97.6667 22.2194 97.63 22.7792C97.5933 23.3391 98.3455 23.8444 99.3101 23.908C100.275 23.9715 101.086 23.5692 101.123 23.0094Z" fill="#426CF6"/>
<path d="M76.8429 35.2079C76.8796 34.6481 76.1274 34.1428 75.1628 34.0792C74.1982 34.0156 73.3864 34.418 73.3497 34.9778C73.313 35.5376 74.0652 36.043 75.0298 36.1065C75.9944 36.1701 76.8062 35.7678 76.8429 35.2079Z" fill="#426CF6"/>
<path d="M62.5217 16.5048C63.4586 14.4862 66.1895 12.9095 69.6857 12.3686L71.5677 12.0775C75.0639 11.5366 78.7944 12.1137 81.3538 13.5914L82.7315 14.3868C85.291 15.8645 86.2905 18.0183 85.3537 20.0369L84.8494 21.1234C83.9126 23.142 81.1817 24.7187 77.6855 25.2595L75.8035 25.5507C72.3073 26.0916 68.5768 25.5144 66.0174 24.0368L64.6397 23.2413C62.0802 21.7637 61.0807 19.6099 62.0175 17.5913L62.5217 16.5048Z" fill="white"/>
<path d="M69.759 14.9714L69.4272 15.1629L73.6777 17.6169L72.1694 18.4877L69.6336 17.0237L66.6189 18.7642L73.0632 22.4848C74.5815 23.3614 77.0202 23.3797 78.4996 22.5256L78.8314 22.334L74.8341 20.0262L76.3424 19.1554L78.9804 20.6784L81.995 18.9379L75.1954 15.0122C73.6771 14.1355 71.2384 14.1172 69.759 14.9714ZM77.4587 22.3078C76.3397 22.7659 74.7535 22.6944 73.7268 22.1016L72.4831 21.3836L74.1705 20.4093L77.4587 22.3078ZM80.6504 18.9278L78.9629 19.9021L76.3249 18.379L71.802 20.9904L67.9636 18.7743L69.6511 17.8L72.1869 19.2641L76.7098 16.6528L80.6504 18.9278ZM76.0287 16.2595L74.3413 17.2338L70.7999 15.1892C71.9189 14.731 73.5048 14.8024 74.5318 15.3953L76.0287 16.2595Z" fill="#00165B"/>
</svg>
