<svg width="117" height="89" viewBox="0 0 117 89" fill="none" xmlns="http://www.w3.org/2000/svg">
<path d="M112.048 51.9705L62.9737 17.8707C62.8316 17.7716 62.6821 17.6763 62.525 17.5847C61.3604 16.9134 59.8388 16.4984 58.1788 16.4068C56.2963 16.3039 54.4606 16.6367 53.0137 17.3341L5.29625 40.3596C2.30339 41.8012 1.90335 44.3889 4.40456 46.1296L53.4829 80.2256C53.625 80.3247 53.7745 80.4201 53.9316 80.5117C55.0999 81.1848 56.6216 81.5999 58.2778 81.6896C60.1584 81.7887 61.9923 81.4596 63.4429 80.7622L78.0427 73.7153L81.9197 71.8437L85.679 70.032H85.6809L89.1953 68.3361L92.992 66.5038L111.157 57.7386C114.151 56.2952 114.55 53.7075 112.048 51.9705ZM110.957 57.5946L92.7658 66.3711L88.9728 68.2015L85.4566 69.8973L81.6991 71.711L63.2391 80.6164C61.8558 81.2839 60.1061 81.5961 58.3078 81.5008C56.7244 81.4166 55.2738 81.0203 54.1578 80.3752C54.0101 80.2911 53.868 80.2013 53.7315 80.106L4.65319 46.0099C2.266 44.3496 2.64923 41.8797 5.50375 40.5036L53.2212 17.48C54.6027 16.8125 56.3524 16.5002 58.1507 16.5956C59.7341 16.6797 61.1847 17.0761 62.2989 17.7174C62.4484 17.8034 62.5905 17.8969 62.7288 17.9904L111.805 52.0883C114.191 53.7486 113.811 56.2185 110.957 57.5946Z" fill="#BEBEBE"/>
<path d="M104.23 36.0833C104.226 36.1824 104.215 36.2797 104.196 36.3769C104.194 36.3862 104.192 36.3956 104.19 36.4049C104.17 36.5059 104.142 36.6069 104.102 36.7078V36.7097C104.063 36.8144 104.015 36.9172 103.957 37.0201C103.953 37.0275 103.949 37.035 103.944 37.0444C103.925 37.078 103.902 37.1117 103.882 37.1453C103.867 37.1678 103.854 37.1921 103.839 37.2145C103.815 37.2519 103.787 37.2874 103.758 37.323C103.744 37.3417 103.73 37.3622 103.716 37.3809C103.669 37.4408 103.616 37.5006 103.562 37.5585C103.545 37.5754 103.529 37.5941 103.512 37.6109C103.472 37.652 103.431 37.6932 103.39 37.7324C103.373 37.7474 103.357 37.7623 103.34 37.7792C103.248 37.8633 103.149 37.9456 103.043 38.0241C103.029 38.0335 103.016 38.0428 103.003 38.0521C102.891 38.1344 102.773 38.2129 102.646 38.2896C102.639 38.2933 102.631 38.299 102.624 38.3027C102.485 38.385 102.34 38.4654 102.183 38.5401L62.6848 57.5981C62.5446 57.6654 62.3988 57.729 62.2511 57.787C62.2006 57.8075 62.1501 57.8225 62.0997 57.8412C62.0006 57.8786 61.9015 57.916 61.7987 57.9478C61.6323 58.0001 61.4641 58.0487 61.294 58.0917C61.2585 58.1011 61.2211 58.1067 61.1855 58.116C61.0491 58.1478 60.9107 58.1796 60.7724 58.2039C60.7332 58.2114 60.692 58.217 60.6528 58.2226C60.4714 58.2544 60.2882 58.2787 60.1032 58.2993C60.0415 58.3067 59.9779 58.3123 59.9162 58.318C59.7817 58.3292 59.6471 58.3385 59.5125 58.3441C59.4526 58.3479 59.3928 58.3516 59.333 58.3535C59.1928 58.3572 59.0526 58.3572 58.9124 58.3553C58.8675 58.3553 58.8227 58.3553 58.7778 58.3553C58.5965 58.3497 58.417 58.3404 58.2376 58.3273C58.2039 58.3254 58.1721 58.3198 58.1385 58.3161C57.9927 58.303 57.8469 58.288 57.7029 58.2675C57.645 58.26 57.5889 58.2488 57.5328 58.2394C57.4094 58.2207 57.2879 58.2002 57.1664 58.1759C57.1066 58.1646 57.0468 58.1497 56.9869 58.1366C56.8561 58.1085 56.7271 58.0768 56.6 58.0412C56.542 58.0263 56.4841 58.0095 56.428 57.9926C56.2186 57.9309 56.0111 57.8636 55.8149 57.7851C55.7158 57.7458 55.6223 57.7028 55.527 57.6598C55.4821 57.6393 55.4354 57.6224 55.3905 57.6C55.2522 57.5345 55.1195 57.4635 54.9905 57.3906C54.8652 57.3177 54.7456 57.2429 54.6297 57.1625L14.0046 28.941C13.1073 28.3184 12.6717 27.5612 12.6736 26.8096L12.625 44.2072C12.6231 44.9589 13.0587 45.7161 13.956 46.3387L54.5792 74.5639C54.6951 74.6443 54.8147 74.7191 54.94 74.792C55.069 74.8668 55.2017 74.936 55.34 75.0014C55.3868 75.0238 55.4354 75.0425 55.4821 75.0631C55.5737 75.1042 55.6634 75.1454 55.7588 75.1828C55.7606 75.1828 55.7625 75.1846 55.7644 75.1846C55.9625 75.2631 56.1682 75.3305 56.3775 75.3922C56.4018 75.3996 56.4243 75.409 56.4504 75.4165C56.4822 75.4258 56.5177 75.4314 56.5495 75.4408C56.6766 75.4744 56.8056 75.5062 56.9365 75.5361C56.9757 75.5455 57.015 75.5567 57.0561 75.5661C57.0767 75.5698 57.0972 75.5717 57.1159 75.5773C57.2374 75.6016 57.3608 75.6221 57.4842 75.6408C57.5309 75.6483 57.5758 75.6577 57.6225 75.6651C57.6319 75.667 57.6431 75.667 57.6524 75.6689C57.7964 75.6894 57.9422 75.7044 58.0899 75.7175C58.1198 75.7194 58.1497 75.725 58.1815 75.7268C58.1833 75.7268 58.1871 75.7268 58.189 75.7268C58.3684 75.7418 58.5497 75.7512 58.7292 75.7549C58.7348 75.7549 58.7404 75.7549 58.7442 75.7549C58.7834 75.7568 58.8227 75.753 58.8619 75.7549C59.0021 75.7568 59.1423 75.7568 59.2844 75.753C59.2994 75.753 59.3162 75.753 59.3311 75.753C59.376 75.7512 59.419 75.7455 59.4639 75.7437C59.5985 75.7381 59.7331 75.7287 59.8676 75.7175C59.8976 75.7156 59.9293 75.7138 59.9592 75.7119C59.991 75.7081 60.0228 75.7025 60.0546 75.6988C60.2397 75.6782 60.4228 75.6539 60.6042 75.6221C60.6322 75.6165 60.6621 75.6147 60.6902 75.6109C60.7014 75.6091 60.7126 75.6053 60.7238 75.6034C60.864 75.5773 61.0005 75.5473 61.1369 75.5156C61.1725 75.5062 61.2098 75.5006 61.2454 75.4913C61.4173 75.4483 61.5856 75.3996 61.7501 75.3473C61.7557 75.3454 61.7613 75.3454 61.765 75.3436C61.8623 75.3118 61.9557 75.2762 62.0511 75.2407C62.1015 75.222 62.1539 75.2052 62.2025 75.1865C62.3502 75.1285 62.496 75.065 62.6362 74.9977L102.134 55.9397C102.289 55.8649 102.435 55.7845 102.573 55.7022C102.579 55.6985 102.585 55.6966 102.59 55.6929C102.592 55.691 102.594 55.691 102.596 55.6891C102.723 55.6125 102.841 55.534 102.951 55.4517C102.964 55.4423 102.979 55.433 102.992 55.4218C103.099 55.3414 103.196 55.261 103.289 55.1768C103.297 55.1694 103.308 55.1619 103.315 55.1544C103.325 55.1469 103.332 55.1376 103.34 55.1301C103.383 55.0908 103.422 55.0497 103.461 55.0086C103.478 54.9917 103.495 54.973 103.512 54.9562C103.566 54.8983 103.616 54.8384 103.665 54.7786L103.667 54.7767C103.68 54.7599 103.693 54.7412 103.706 54.7225C103.734 54.6851 103.762 54.6496 103.787 54.6122C103.801 54.5897 103.815 54.5673 103.83 54.5449C103.852 54.5112 103.873 54.4776 103.893 54.442C103.895 54.4383 103.897 54.4364 103.899 54.4327C103.901 54.4271 103.902 54.4233 103.906 54.4177C103.962 54.3149 104.013 54.2121 104.052 54.1074V54.1055C104.089 54.0045 104.117 53.9036 104.14 53.8026C104.142 53.797 104.144 53.7895 104.145 53.7839C104.145 53.782 104.145 53.7783 104.147 53.7764C104.166 53.6792 104.177 53.5801 104.181 53.4829C104.181 53.4735 104.183 53.4661 104.185 53.4567C104.185 53.4399 104.185 53.4231 104.185 53.4062L104.233 36.0086C104.233 36.0329 104.23 36.0572 104.23 36.0833Z" fill="#BEC1D0"/>
<path d="M61.9143 5.42017C62.0395 5.49309 62.161 5.56975 62.2769 5.65015L102.9 33.8753C104.927 35.2832 104.603 37.3717 102.18 38.5421L62.6845 57.5982C60.4001 58.7014 57.0595 58.591 54.9883 57.3944C54.863 57.3215 54.7434 57.2467 54.6275 57.1663L14.0043 28.9411C11.9779 27.5333 12.3013 25.4448 14.724 24.2743L54.2218 5.21824C56.5062 4.11511 59.8449 4.22356 61.9143 5.42017Z" fill="white"/>
<path d="M79.8096 32.8488L79.819 29.7058C79.8246 29.7095 79.8284 29.7133 79.834 29.717L79.8246 32.86C79.819 32.8563 79.8133 32.8525 79.8096 32.8488Z" fill="#141EA7"/>
<path d="M80.95 31.5175C80.95 31.51 80.95 31.5025 80.95 31.495C80.95 31.4427 80.9463 31.3922 80.9407 31.3399C80.9388 31.3249 80.937 31.3099 80.9332 31.295C80.9314 31.2819 80.9295 31.2688 80.9276 31.2557C80.9239 31.237 80.9239 31.2202 80.9201 31.2015C80.9108 31.1566 80.9014 31.1118 80.8884 31.0688C80.8865 31.0613 80.8846 31.0557 80.8828 31.0482C80.8809 31.0388 80.8771 31.0314 80.8753 31.022C80.8678 30.9958 80.8603 30.9697 80.851 30.9435C80.836 30.9024 80.8211 30.8631 80.8042 30.8238C80.8024 30.8182 80.8005 30.8145 80.7968 30.8107C80.7949 30.8051 80.7912 30.7976 80.7874 30.792C80.7743 30.764 80.7612 30.7359 80.7482 30.7079C80.7295 30.6705 80.707 30.6331 80.6865 30.5957C80.6827 30.5901 80.679 30.5845 80.6771 30.5789C80.6734 30.5733 80.6696 30.5658 80.664 30.5602C80.6491 30.534 80.6323 30.5097 80.6154 30.4835C80.5911 30.4461 80.565 30.4106 80.5369 30.3751C80.5313 30.3676 80.5257 30.3601 80.5201 30.3545C80.5145 30.347 80.5089 30.3396 80.5033 30.3321C80.4864 30.3097 80.4696 30.2891 80.4509 30.2666C80.4191 30.2311 80.3874 30.1937 80.3537 30.1582C80.3462 30.1489 80.3369 30.1414 80.3294 30.1339C80.3219 30.1264 80.3145 30.1189 80.3051 30.1096C80.2864 30.0909 80.2677 30.0703 80.2472 30.0516C80.2079 30.0142 80.1687 29.9787 80.1257 29.9432C80.1182 29.9357 80.1088 29.9282 80.0995 29.9226C80.0901 29.9133 80.0789 29.9058 80.0696 29.8964C80.0434 29.874 80.0172 29.8534 79.9911 29.831C79.9425 29.7936 79.8901 29.7543 79.8378 29.7188V29.7207C79.8322 29.717 79.8284 29.7132 79.8228 29.7095L79.8135 32.8525C79.9013 32.9142 79.9836 32.9759 80.0602 33.0413C80.0714 33.0506 80.0808 33.0581 80.092 33.0675C80.1649 33.1292 80.2341 33.1927 80.2976 33.2563C80.3051 33.2638 80.3145 33.2731 80.3219 33.2806C80.3855 33.3461 80.4435 33.4115 80.4958 33.4788C80.5014 33.4863 80.507 33.4938 80.5126 33.5012C80.565 33.5686 80.6136 33.6377 80.6566 33.7069C80.6603 33.7125 80.664 33.72 80.6696 33.7256C80.7126 33.7967 80.75 33.8677 80.7818 33.9388C80.7855 33.9444 80.7874 33.9518 80.7912 33.9575C80.8229 34.0285 80.8491 34.0996 80.8697 34.1706C80.8715 34.18 80.8753 34.1874 80.8771 34.1968C80.8977 34.266 80.9108 34.3351 80.922 34.4043C80.9239 34.4174 80.9257 34.4305 80.9276 34.4436C80.937 34.5165 80.9426 34.5913 80.9426 34.6642L80.95 31.5175Z" fill="#B3B4C8"/>
<path d="M61.6335 17.0703C61.5811 17.033 61.5269 16.9974 61.4708 16.9638C61.4241 16.9339 61.3755 16.9058 61.3269 16.8759C61.3044 16.8628 61.282 16.8497 61.2596 16.8385C61.1792 16.7936 61.0969 16.7506 61.0128 16.7095C61.0072 16.7076 61.0016 16.7039 60.996 16.702C60.968 16.6889 60.938 16.6777 60.91 16.6646C60.8427 16.6328 60.7754 16.601 60.7044 16.573C60.6894 16.5674 60.6745 16.5618 60.6614 16.5562C60.5941 16.5281 60.5231 16.5038 60.4539 16.4795C60.4072 16.4627 60.3623 16.444 60.3137 16.4272C60.2987 16.4216 60.2819 16.4178 60.2669 16.4122C60.2314 16.401 60.194 16.3898 60.1567 16.3786C60.0707 16.3524 59.9847 16.3281 59.8968 16.3038C59.8557 16.2925 59.8146 16.2832 59.7716 16.272C59.7417 16.2645 59.7136 16.257 59.6837 16.2495C59.6501 16.2421 59.6164 16.2365 59.5828 16.2308C59.4743 16.2084 59.3659 16.186 59.2556 16.1673C59.2238 16.1617 59.1921 16.1542 59.1584 16.1486C59.1322 16.1448 59.1042 16.143 59.078 16.1392C58.9958 16.128 58.9135 16.1168 58.8313 16.1074C58.7864 16.1018 58.7434 16.0944 58.6985 16.0906C58.6668 16.0869 58.6369 16.085 58.6051 16.0831C58.5714 16.0794 58.5378 16.0775 58.5041 16.0757C58.4705 16.0738 58.4368 16.0701 58.4013 16.0682C58.3209 16.0626 58.2406 16.0588 58.1602 16.057C58.1508 16.057 58.1396 16.057 58.1303 16.057C58.1172 16.057 58.1041 16.057 58.0929 16.057C58.0443 16.0551 57.9938 16.0551 57.9452 16.0532C57.876 16.0532 57.805 16.0532 57.7358 16.0551C57.7227 16.0551 57.7078 16.0551 57.6947 16.057C57.6816 16.057 57.6685 16.057 57.6554 16.0588C57.6143 16.0607 57.5751 16.0607 57.5339 16.0626C57.4666 16.0644 57.3993 16.0682 57.3339 16.0738C57.3096 16.0757 57.2853 16.0775 57.261 16.0794C57.246 16.0813 57.2311 16.0813 57.2161 16.0831C57.1881 16.085 57.1619 16.0869 57.1339 16.0887C57.0685 16.0944 57.0012 16.1018 56.9357 16.1093C56.8983 16.1131 56.8628 16.1187 56.8254 16.1224C56.8124 16.1243 56.7993 16.1261 56.7862 16.128C56.7712 16.1299 56.7544 16.1318 56.7394 16.1336C56.674 16.143 56.6086 16.1523 56.545 16.1635C56.4927 16.1729 56.4404 16.1822 56.3861 16.1916C56.3787 16.1935 56.3731 16.1935 56.3656 16.1953C56.36 16.1953 56.3562 16.1972 56.3506 16.1972C56.2871 16.2103 56.2235 16.2215 56.1599 16.2365C56.0964 16.2495 56.0347 16.2645 55.973 16.2795C55.9674 16.2813 55.9637 16.2813 55.9581 16.2832C55.9524 16.2851 55.945 16.2869 55.9394 16.2888C55.8889 16.3019 55.8384 16.315 55.7879 16.3281C55.7263 16.3449 55.6627 16.3636 55.6029 16.3823C55.5898 16.386 55.5748 16.3916 55.5617 16.3954C55.5487 16.3991 55.5374 16.4029 55.5244 16.4066C55.4888 16.4178 55.4533 16.429 55.4178 16.4403C55.3543 16.4627 55.2907 16.4851 55.229 16.5076C55.2103 16.515 55.1916 16.5225 55.1729 16.53C55.158 16.5356 55.143 16.5412 55.1281 16.5487C55.0981 16.5599 55.0682 16.5711 55.0402 16.5842C54.9729 16.6123 54.9075 16.6403 54.8439 16.6702C54.8215 16.6796 54.8009 16.6908 54.7785 16.702L37.6588 24.9643C37.6102 24.9867 37.5635 25.011 37.5186 25.0353C37.5074 25.0409 37.4981 25.0465 37.4868 25.054C37.4495 25.0746 37.4121 25.0951 37.3747 25.1157C37.3522 25.1288 37.3298 25.14 37.3093 25.1512C37.3018 25.1569 37.2943 25.1606 37.2868 25.1662C37.2289 25.1999 37.1747 25.2354 37.1204 25.2709C37.1092 25.2784 37.0961 25.2859 37.0849 25.2933C37.0831 25.2952 37.0812 25.2952 37.0812 25.2971C36.9971 25.3532 36.9204 25.4111 36.8456 25.471C36.8363 25.4784 36.827 25.4841 36.8195 25.4897C36.8101 25.4971 36.8027 25.5046 36.7952 25.5121C36.7335 25.5626 36.6755 25.6149 36.6195 25.6673C36.6157 25.671 36.612 25.6748 36.6082 25.6785C36.5503 25.7346 36.4961 25.7907 36.4456 25.8486C36.4325 25.8636 36.4194 25.8804 36.4063 25.8954C36.3652 25.944 36.3278 25.9926 36.2923 26.0412C36.2848 26.0524 36.2755 26.0637 36.2661 26.0767C36.225 26.1366 36.1876 26.1964 36.154 26.2562C36.1465 26.2712 36.139 26.2862 36.1315 26.2992C36.1054 26.3497 36.0811 26.3983 36.0605 26.4488C36.053 26.4638 36.0474 26.4806 36.0399 26.4956C36.0156 26.5573 35.9951 26.6208 35.9764 26.6825C35.9727 26.6938 35.9708 26.7031 35.9689 26.7143C35.9558 26.7685 35.9446 26.8228 35.9371 26.877C35.9353 26.8938 35.9315 26.9106 35.9297 26.9293C35.9222 26.9929 35.9166 27.0583 35.9166 27.1219L35.9072 30.2649C35.9072 30.2013 35.9128 30.1359 35.9203 30.0723C35.9222 30.0555 35.9259 30.0368 35.9278 30.02C35.9353 29.9657 35.9465 29.9115 35.9596 29.8592C35.9614 29.848 35.9633 29.8367 35.967 29.8255C35.9839 29.762 36.0063 29.7003 36.0306 29.6386C36.0362 29.6236 36.0437 29.6068 36.0512 29.5918C36.0717 29.5413 36.096 29.4927 36.1222 29.4422C36.1297 29.4273 36.1372 29.4123 36.1446 29.3974C36.1783 29.3375 36.2157 29.2758 36.2568 29.2179C36.2643 29.2066 36.2736 29.1954 36.283 29.1823C36.3185 29.1337 36.3559 29.0832 36.397 29.0365C36.4101 29.0215 36.4232 29.0047 36.4363 28.9898C36.4867 28.9318 36.5409 28.8757 36.5989 28.8196C36.6026 28.8159 36.6064 28.8121 36.6101 28.8084C36.6643 28.756 36.7241 28.7037 36.7858 28.6532C36.8027 28.6401 36.8195 28.6252 36.8363 28.6121C36.9111 28.5522 36.9877 28.4943 37.0718 28.4382C37.0849 28.4288 37.098 28.4214 37.1111 28.4139C37.1653 28.3784 37.2195 28.3428 37.2775 28.3092C37.3055 28.2924 37.3373 28.2755 37.3672 28.2587C37.4046 28.2381 37.4401 28.2176 37.4794 28.197C37.5354 28.1671 37.5934 28.1372 37.6532 28.1091L54.7729 19.8469C54.8869 19.7926 55.0047 19.7422 55.1243 19.6936C55.1393 19.6879 55.1542 19.6823 55.1692 19.6749C55.2832 19.63 55.401 19.5888 55.5188 19.5515C55.5318 19.5477 55.5449 19.544 55.5561 19.5384C55.6795 19.4991 55.8066 19.4636 55.9338 19.4318C55.9412 19.4299 55.9468 19.4281 55.9543 19.4262C56.0889 19.3925 56.2235 19.3626 56.3618 19.3364C56.3674 19.3346 56.3749 19.3346 56.3805 19.3327C56.5133 19.3084 56.646 19.286 56.7806 19.2691C56.7937 19.2673 56.8067 19.2654 56.8217 19.2635C56.9507 19.2467 57.0815 19.2336 57.2124 19.2224C57.2274 19.2205 57.2423 19.2205 57.2573 19.2186C57.3881 19.2093 57.5208 19.2018 57.6517 19.1981C57.6648 19.1981 57.6779 19.1981 57.6891 19.1962C57.8237 19.1925 57.9564 19.1943 58.091 19.1981C58.1041 19.1981 58.1153 19.1981 58.1284 19.1981C58.2536 19.2018 58.377 19.2093 58.5023 19.2186C58.5359 19.2205 58.5696 19.2243 58.6013 19.2261C58.678 19.2336 58.7528 19.2411 58.8275 19.2504C58.9098 19.2598 58.992 19.2691 59.0743 19.2822C59.1341 19.2916 59.1921 19.3009 59.2519 19.3103C59.3622 19.329 59.4706 19.3495 59.579 19.3738C59.6426 19.3869 59.7061 19.4 59.7678 19.415C59.809 19.4243 59.8501 19.4355 59.8912 19.4468C59.9791 19.4692 60.0669 19.4954 60.1529 19.5215C60.1884 19.5328 60.2258 19.544 60.2613 19.5552C60.3249 19.5758 60.3866 19.6001 60.4501 19.6225C60.5193 19.6468 60.5885 19.6711 60.6558 19.6992C60.7418 19.7328 60.824 19.7702 60.9063 19.8076C60.9343 19.8207 60.9642 19.8319 60.9904 19.845C61.1044 19.8992 61.2147 19.9572 61.3213 20.0189C61.4278 20.0806 61.5306 20.1442 61.6278 20.2133L79.8112 32.8488L79.8205 29.7059L61.6335 17.0703Z" fill="#B3B4C8"/>
<path d="M61.3173 20.0189C61.4239 20.0806 61.5267 20.1441 61.6239 20.2133L79.8072 32.8488C81.5289 34.0454 81.256 35.8217 79.1959 36.8164L62.0744 45.0767C60.1321 46.0135 57.2926 45.9219 55.5298 44.9029C55.4232 44.8412 55.3204 44.7776 55.2232 44.7084L37.0398 32.0748C35.3163 30.8781 35.5911 29.1019 37.6511 28.1072L54.7708 19.845C56.7168 18.9083 59.5564 19.0017 61.3173 20.0189Z" fill="#D4D7E0"/>
<path d="M99.2547 33.5912C101.124 34.8907 100.825 36.824 98.5911 37.9009L62.9348 55.106C61.8505 55.6277 60.4803 55.8745 59.0745 55.7978C57.8351 55.7324 56.6986 55.422 55.8274 54.919C55.7097 54.8517 55.5975 54.7788 55.4928 54.7059L18.8177 29.2273C16.9484 27.9279 17.2475 25.9946 19.4832 24.9158L55.1395 7.71069C56.2219 7.18904 57.594 6.94224 58.9979 7.01703C60.2392 7.08433 61.3757 7.39471 62.2469 7.89766C62.3628 7.96497 62.4749 8.03602 62.5815 8.11081L99.2547 33.5912ZM98.4378 37.7962C100.571 36.766 100.857 34.9206 99.0715 33.681L62.3983 8.19868C62.2955 8.12763 62.1889 8.06032 62.0767 7.99488C61.2449 7.51437 60.1606 7.21895 58.9773 7.15538C57.6333 7.08434 56.3266 7.31805 55.2928 7.81726L19.6346 25.0205C17.5017 26.0507 17.2157 27.8961 19.0009 29.1357L55.6742 54.6161C55.7751 54.6872 55.8817 54.7545 55.9938 54.8181C56.8257 55.2986 57.9118 55.594 59.0951 55.6576C60.4392 55.7286 61.7459 55.4949 62.7796 54.9957L98.4378 37.7962Z" fill="#E1E2E7"/>
<path d="M108.363 27.8303L108.357 30.117L105.002 32.0671L105.008 29.7804L108.363 27.8303Z" fill="#07B182"/>
<path d="M105.008 29.7804L105.002 32.0671L101.624 30.117L101.63 27.8303L105.008 29.7804Z" fill="#057B5A"/>
<path d="M108.364 27.8302L105.008 29.7803L101.63 27.8302L104.986 25.8801L108.364 27.8302Z" fill="#08C591"/>
<path d="M112.175 21.1948L112.169 23.0234L110.333 24.091L110.337 22.2624L112.175 21.1948Z" fill="#07B182"/>
<path d="M110.338 22.2624L110.335 24.091L108.486 23.0234L108.49 21.1948L110.338 22.2624Z" fill="#057B5A"/>
<path d="M112.175 21.1948L110.338 22.2624L108.489 21.1948L110.326 20.1272L112.175 21.1948Z" fill="#08C591"/>
<path d="M5.21486 9.73389L5.21112 11.5625L3.37354 12.6301L3.37914 10.8015L5.21486 9.73389Z" fill="#07B182"/>
<path d="M3.37834 10.8015L3.37273 12.6301L1.52393 11.5625L1.52953 9.73389L3.37834 10.8015Z" fill="#057B5A"/>
<path d="M5.21431 9.73387L3.37859 10.8015L1.52979 9.73387L3.3655 8.66626L5.21431 9.73387Z" fill="#08C591"/>
<path d="M116.999 28.8496L116.991 31.1363L114.935 32.331L114.941 30.0462L116.999 28.8496Z" fill="#07B182"/>
<path d="M114.941 30.0459L114.936 32.3306L112.528 30.9414L112.533 28.6548L114.941 30.0459Z" fill="#057B5A"/>
<path d="M116.999 28.8496L114.94 30.0462L112.533 28.6551L114.591 27.4585L116.999 28.8496Z" fill="#08C591"/>
<path d="M6.73759 19.1252L6.73198 21.4119L3.37646 23.362L3.38207 21.0772L6.73759 19.1252Z" fill="#07B182"/>
<path d="M3.38355 21.0772L3.37795 23.362L0 21.4119L0.0056081 19.1252L3.38355 21.0772Z" fill="#057B5A"/>
<path d="M6.73932 19.1252L3.38381 21.0771L0.00585938 19.1252L3.36324 17.175L6.73932 19.1252Z" fill="#08C591"/>
<path d="M15.3797 13.8186L15.3741 16.1034L13.3159 17.3L13.3215 15.0133L15.3797 13.8186Z" fill="#07B182"/>
<path d="M13.3215 15.0136L13.3159 17.3003L10.9062 15.9092L10.9119 13.6226L13.3215 15.0136Z" fill="#057B5A"/>
<path d="M15.3789 13.8187L13.3207 15.0135L10.9111 13.6224L12.9693 12.4258L15.3789 13.8187Z" fill="#08C591"/>
<path d="M102.335 82.7158H102.109V80.7246C102.109 80.1132 101.781 79.5373 101.256 79.2251L85.3291 69.9569L85.5067 69.8672L101.37 79.0306C101.966 79.384 102.335 80.0328 102.335 80.7246V82.7158Z" fill="#BEBEBE"/>
<path d="M85.6648 81.2707H85.4386V78.3801C85.4274 78.137 85.2909 77.9145 85.0759 77.7911L77.7798 73.6965L77.8901 73.4983L85.1881 77.5948C85.4722 77.7575 85.6517 78.0492 85.6666 78.3764L85.6648 81.2707Z" fill="#BEBEBE"/>
<path d="M85.4609 83.9181C84.9225 83.9181 84.3879 83.8078 83.9692 83.5834C83.5093 83.3366 83.2494 82.9907 83.2364 82.6093C83.2233 82.2297 83.4588 81.8708 83.8962 81.5978C84.7599 81.0574 86.1974 81.0126 87.1003 81.4968C87.5602 81.7436 87.82 82.0895 87.8331 82.4709C87.8462 82.8505 87.6107 83.2095 87.1732 83.4825C86.7115 83.7704 86.0834 83.9181 85.4609 83.9181ZM85.6086 81.3846C85.0309 81.3846 84.4477 81.5211 84.0178 81.7904C83.6514 82.0185 83.4551 82.3083 83.4644 82.6018C83.4738 82.8991 83.6925 83.1758 84.0776 83.3834C84.915 83.8321 86.2516 83.791 87.0536 83.2899C87.42 83.0618 87.6163 82.772 87.6069 82.4784C87.5976 82.1811 87.3789 81.9044 86.9938 81.6969C86.605 81.4856 86.1077 81.3846 85.6086 81.3846Z" fill="#BEBEBE"/>
<path d="M102.151 85.3558C101.612 85.3558 101.078 85.2455 100.659 85.0212C100.199 84.7744 99.9394 84.4285 99.9263 84.047C99.9132 83.6675 100.149 83.3085 100.586 83.0355C101.45 82.4952 102.887 82.4503 103.79 82.9346C104.25 83.1814 104.51 83.5273 104.523 83.9087C104.536 84.2882 104.301 84.6472 103.863 84.9202C103.4 85.21 102.771 85.3558 102.151 85.3558ZM102.297 82.8224C101.719 82.8224 101.136 82.9589 100.706 83.2281C100.339 83.4562 100.143 83.746 100.152 84.0396C100.162 84.3369 100.381 84.6136 100.766 84.8211C101.603 85.2698 102.94 85.2287 103.742 84.7276C104.108 84.4995 104.304 84.2097 104.295 83.9162C104.286 83.6189 104.067 83.3422 103.682 83.1346C103.293 82.9252 102.798 82.8224 102.297 82.8224Z" fill="#BEBEBE"/>
<path d="M94.0565 86.2964H93.8303V80.046C93.8303 79.4346 93.5031 78.8587 92.9778 78.5465L81.5635 71.7631L81.8215 71.6528L93.0937 78.352C93.6882 78.7054 94.0583 79.3542 94.0583 80.046V86.2964H94.0565Z" fill="#BEBEBE"/>
<path d="M93.8696 88.9999C93.3312 88.9999 92.7966 88.8896 92.3778 88.6652C91.918 88.4184 91.6581 88.0725 91.645 87.6911C91.632 87.3115 91.8675 86.9526 92.3049 86.6796C93.1686 86.1392 94.6061 86.0944 95.509 86.5786C95.9689 86.8254 96.2287 87.1713 96.2418 87.5527C96.2549 87.9323 96.0194 88.2913 95.5819 88.5642C95.1183 88.8522 94.4921 88.9999 93.8696 88.9999ZM94.0173 86.4664C93.4396 86.4664 92.8564 86.6029 92.4264 86.8722C92.06 87.1003 91.8638 87.3901 91.8731 87.6836C91.8825 87.9809 92.1012 88.2576 92.4863 88.4651C93.3237 88.9139 94.6603 88.8727 95.4623 88.3717C95.8287 88.1436 96.025 87.8538 96.0156 87.5602C96.0063 87.2629 95.7876 86.9862 95.4025 86.7787C95.0136 86.5693 94.5164 86.4664 94.0173 86.4664Z" fill="#BEBEBE"/>
<path d="M110.674 73.8477H98.2973L88.8794 68.2442L89.0944 68.1414L98.3589 73.6215H110.674V73.8477Z" fill="#BEBEBE"/>
<path d="M102.68 69.0315L96.7987 68.8464L92.6431 66.4307L92.888 66.311L96.8622 68.622L102.687 68.8052L102.68 69.0315Z" fill="#BEBEBE"/>
<path d="M112.784 74.9755C112.245 74.9755 111.711 74.8652 111.292 74.6408C110.832 74.394 110.572 74.0481 110.559 73.6667C110.546 73.2871 110.782 72.9281 111.219 72.6552C112.083 72.1148 113.52 72.0699 114.423 72.5542C114.883 72.801 115.143 73.1469 115.156 73.5283C115.169 73.9079 114.933 74.2669 114.496 74.5398C114.034 74.8296 113.406 74.9755 112.784 74.9755ZM112.929 72.442C112.352 72.442 111.769 72.5785 111.339 72.8477C110.972 73.0758 110.776 73.3656 110.785 73.6592C110.795 73.9565 111.013 74.2332 111.398 74.4407C112.238 74.8895 113.573 74.8483 114.374 74.3473C114.741 74.1191 114.937 73.8293 114.928 73.5358C114.918 73.2385 114.7 72.9618 114.315 72.7543C113.928 72.5448 113.43 72.442 112.929 72.442Z" fill="#BEBEBE"/>
<path d="M104.838 70.2972C104.3 70.2972 103.765 70.1869 103.347 69.9626C102.887 69.7158 102.627 69.3699 102.614 68.9885C102.601 68.6089 102.836 68.2499 103.274 67.9769C104.137 67.4366 105.575 67.3917 106.478 67.876C106.938 68.1228 107.197 68.4687 107.211 68.8501C107.224 69.2296 106.988 69.5886 106.551 69.8616C106.087 70.1495 105.461 70.2972 104.838 70.2972ZM104.984 67.7619C104.407 67.7619 103.823 67.8984 103.393 68.1676C103.027 68.3958 102.831 68.6856 102.84 68.9791C102.849 69.2764 103.068 69.5531 103.453 69.7606C104.291 70.2094 105.627 70.1682 106.429 69.6672C106.796 69.439 106.992 69.1492 106.983 68.8557C106.973 68.5584 106.754 68.2817 106.369 68.0742C105.982 67.8648 105.485 67.7619 104.984 67.7619Z" fill="#BEBEBE"/>
<path d="M14.0615 75.598L14.2877 75.6149L14.4298 73.6292C14.4728 73.0178 14.841 72.47 15.3888 72.1952L31.2074 64.4471L31.0354 64.3442L15.2878 71.9914C14.6691 72.3017 14.2541 72.9225 14.2036 73.6124L14.0615 75.598Z" fill="#BEBEBE"/>
<path d="M30.792 75.3531L31.0182 75.3699L31.2257 72.4868C31.2537 72.2456 31.4051 72.0325 31.6295 71.9259L37.7703 69.0203L37.5647 68.8689L31.5323 71.7202C31.2369 71.8623 31.0387 72.1409 30.9995 72.4644L30.792 75.3531Z" fill="#BEBEBE"/>
<path d="M29.1278 77.4486C28.7109 77.1438 28.5016 76.768 28.5427 76.3922C28.5819 76.0127 28.868 75.6855 29.3446 75.4742C30.2793 75.0572 31.7094 75.205 32.5338 75.8051C32.9507 76.1099 33.16 76.4838 33.1189 76.8615C33.0796 77.2411 32.7955 77.5683 32.3188 77.7814C31.8851 77.9759 31.3449 78.0469 30.8084 78.0077C30.1859 77.9628 29.5708 77.7702 29.1278 77.4486ZM29.4362 75.6799C29.0362 75.8575 28.7988 76.1192 28.7689 76.4147C28.7371 76.7082 28.9128 77.0092 29.2624 77.2654C30.027 77.8226 31.3561 77.9609 32.2253 77.572C32.6254 77.3925 32.8628 77.1326 32.8927 76.8353C32.9245 76.5418 32.7488 76.2408 32.3992 75.9865C31.9898 75.6873 31.4178 75.5097 30.842 75.4686C30.3429 75.4331 29.84 75.5004 29.4362 75.6799Z" fill="#BEBEBE"/>
<path d="M12.3832 77.6884C11.9663 77.3836 11.7569 77.0096 11.7981 76.632C11.8373 76.2524 12.1215 75.9252 12.5981 75.7139C13.5328 75.297 14.9629 75.4447 15.7873 76.0449C16.2042 76.3496 16.4135 76.7236 16.3724 77.1013C16.3331 77.4808 16.049 77.808 15.5723 78.0193C15.1386 78.2137 14.5984 78.2848 14.0619 78.2455C13.4394 78.2007 12.8243 78.0099 12.3832 77.6884ZM12.6897 75.9196C12.2897 76.0972 12.0523 76.359 12.0224 76.6544C11.9906 76.948 12.1663 77.249 12.5159 77.5033C13.2805 78.0604 14.6096 78.1988 15.4788 77.8099C15.8789 77.6323 16.1163 77.3705 16.1462 77.0751C16.178 76.7815 16.0023 76.4805 15.6527 76.2262C15.2433 75.9271 14.6713 75.7495 14.0955 75.7083C13.5964 75.6709 13.0935 75.7382 12.6897 75.9196Z" fill="#BEBEBE"/>
<path d="M22.061 79.7617L22.2872 79.7785L22.7359 73.5449C22.7789 72.9335 23.1471 72.3857 23.6949 72.1109L34.4624 66.713L34.2138 66.584L23.5939 71.9071C22.9752 72.2174 22.5602 72.8382 22.5116 73.5281L22.061 79.7617Z" fill="#BEBEBE"/>
<path d="M20.3768 81.9156C19.96 81.6108 19.7506 81.2369 19.7917 80.8592C19.831 80.4796 20.1151 80.1524 20.5918 79.9393C21.5265 79.5223 22.9565 79.67 23.7809 80.2702C24.1978 80.575 24.4072 80.9489 24.3661 81.3266C24.3268 81.7062 24.0427 82.0334 23.566 82.2446C23.1323 82.4391 22.592 82.5101 22.0555 82.4709C21.433 82.4279 20.818 82.2372 20.3768 81.9156ZM20.6853 80.1468C20.2852 80.3263 20.0478 80.5862 20.0179 80.8816C19.9861 81.1752 20.1618 81.4762 20.5114 81.7305C21.276 82.2876 22.6051 82.426 23.4744 82.0371C23.8744 81.8595 24.1118 81.5977 24.1417 81.3023C24.1735 81.0088 23.9978 80.7077 23.6482 80.4535C23.2388 80.1543 22.6668 79.9767 22.091 79.9355C21.59 79.9 21.0872 79.9655 20.6853 80.1468Z" fill="#BEBEBE"/>
<path d="M6.38281 66.1543L18.7281 67.0424L28.1385 62.327L27.9553 62.198L18.6814 66.8124L6.39964 65.9281L6.38281 66.1543Z" fill="#BEBEBE"/>
<path d="M14.7002 61.9249L20.5794 62.1623L24.8976 60.0496L24.6602 59.9131L20.5308 61.9342L14.7095 61.6968L14.7002 61.9249Z" fill="#BEBEBE"/>
<path d="M2.51793 66.5712C2.10107 66.2664 1.8917 65.8925 1.93282 65.5148C1.97208 65.1352 2.25809 64.808 2.73478 64.5949C3.66946 64.1761 5.09953 64.3256 5.92392 64.9258C6.34079 65.2306 6.55016 65.6045 6.50903 65.9822C6.46978 66.3618 6.18563 66.689 5.70894 66.9002C5.27525 67.0947 4.735 67.1657 4.19663 67.1265C3.57413 67.0835 2.9591 66.8928 2.51793 66.5712ZM2.82638 64.8024C2.42634 64.9819 2.18893 65.2418 2.15715 65.5372C2.12537 65.8308 2.30109 66.1318 2.65066 66.3861C3.41523 66.9432 4.74435 67.0816 5.61361 66.6927C6.01365 66.5151 6.25106 66.2533 6.28097 65.9579C6.31275 65.6644 6.13703 65.3633 5.78746 65.1091C5.37806 64.8099 4.80604 64.6323 4.23027 64.5911C3.73115 64.5556 3.23016 64.6211 2.82638 64.8024Z" fill="#BEBEBE"/>
<path d="M10.7816 62.4728C10.3647 62.168 10.1554 61.7941 10.1965 61.4164C10.2358 61.0368 10.5199 60.7096 10.9966 60.4984C11.9313 60.0814 13.3613 60.2291 14.1857 60.8293C14.6026 61.1341 14.812 61.508 14.7708 61.8857C14.7316 62.2652 14.4474 62.5924 13.9707 62.8037C13.5371 62.9982 12.9968 63.0692 12.4603 63.03C11.8378 62.9869 11.2228 62.7944 10.7816 62.4728ZM11.0901 60.704C10.69 60.8817 10.4526 61.1434 10.4227 61.4388C10.3909 61.7324 10.5666 62.0334 10.9162 62.2877C11.6808 62.8449 13.0099 62.9832 13.8791 62.5943C14.2792 62.4167 14.5166 62.1549 14.5465 61.8595C14.5783 61.566 14.4026 61.2649 14.053 61.0107C13.6436 60.7115 13.0716 60.5339 12.4958 60.4928C11.9948 60.4572 11.492 60.5245 11.0901 60.704Z" fill="#BEBEBE"/>
<mask id="mask0_4950_3688" style="mask-type:luminance" maskUnits="userSpaceOnUse" x="33" y="12" width="2" height="5">
<path d="M33.7206 15.5481L33.9206 12.5061C33.8963 12.8744 34.1169 13.2577 34.5842 13.5681L34.3842 16.6101C33.9168 16.2997 33.6963 15.9146 33.7206 15.5481Z" fill="white"/>
</mask>
<g mask="url(#mask0_4950_3688)">
<path d="M34.5857 13.5681L34.3857 16.6101C33.9165 16.2979 33.6977 15.9146 33.722 15.5481L33.9221 12.5061C33.8959 12.8744 34.1165 13.2577 34.5857 13.5681Z" fill="#0B1160"/>
</g>
<path d="M86.3205 22.8683C86.3317 22.8627 86.341 22.8571 86.3523 22.8533C86.3766 22.8403 86.3971 22.8272 86.4196 22.8141C86.4513 22.7973 86.4831 22.7786 86.5112 22.7617C86.5373 22.7449 86.5598 22.7281 86.5841 22.7113C86.6102 22.6926 86.6383 22.6739 86.6626 22.6533C86.6682 22.6496 86.6738 22.6458 86.6794 22.6421C86.6888 22.6346 86.6962 22.6252 86.7074 22.6159C86.7486 22.5822 86.7841 22.5467 86.8196 22.5093C86.8271 22.5018 86.8364 22.4944 86.8439 22.4869C86.8514 22.4794 86.8551 22.4701 86.8626 22.4626C86.885 22.4364 86.9056 22.4084 86.9262 22.3803C86.9336 22.3691 86.9449 22.3579 86.9523 22.3467C86.9561 22.341 86.9579 22.3336 86.9617 22.328C86.9766 22.3037 86.9897 22.2793 87.0028 22.2532C87.0103 22.2382 87.0196 22.2251 87.0271 22.2102C87.029 22.2046 87.0308 22.2008 87.0327 22.1952C87.0421 22.1709 87.0514 22.1466 87.0589 22.1223C87.0645 22.1055 87.072 22.0905 87.0757 22.0737C87.0776 22.0699 87.0776 22.0643 87.0776 22.0606C87.0832 22.0344 87.0869 22.0101 87.0907 21.9839C87.0925 21.9671 87.0981 21.9503 87.1 21.9335C87.1 21.926 87.1019 21.9185 87.1019 21.911L87.3019 18.869C87.3 18.8933 87.2944 18.9157 87.2907 18.94C87.287 18.9662 87.2832 18.9924 87.2776 19.0186C87.272 19.0391 87.2645 19.0597 87.257 19.0803C87.2496 19.1046 87.2421 19.1289 87.2309 19.1532C87.2215 19.1738 87.2122 19.1925 87.201 19.2112C87.1879 19.2355 87.1748 19.2616 87.1598 19.2859C87.1486 19.3046 87.1355 19.3215 87.1224 19.3383C87.1038 19.3663 87.0813 19.3944 87.0589 19.4206C87.0458 19.4374 87.0308 19.4523 87.0159 19.4673C86.9822 19.5028 86.9449 19.5384 86.9037 19.5739C86.8888 19.587 86.8757 19.5982 86.8607 19.6113C86.8364 19.6318 86.8084 19.6505 86.7804 19.6692C86.7561 19.6861 86.7336 19.7029 86.7074 19.7197C86.6775 19.7384 86.6458 19.7552 86.6158 19.7739C86.5841 19.7926 86.5523 19.8113 86.5186 19.8282L64.0545 31.0595C63.9778 31.0969 63.8974 31.1306 63.8152 31.1623C63.7909 31.1717 63.7666 31.1792 63.7423 31.1885C63.6769 31.211 63.6114 31.2315 63.5441 31.2502C63.5198 31.2577 63.4955 31.2633 63.4712 31.2708C63.4282 31.282 63.3852 31.2895 63.3422 31.2988C63.3105 31.3063 63.2768 31.3138 63.2432 31.3194C63.1983 31.3269 63.1516 31.3344 63.1048 31.34C63.073 31.3437 63.0431 31.3493 63.0114 31.3531C62.9179 31.3643 62.8244 31.3699 62.7291 31.3736C62.6992 31.3755 62.6711 31.3755 62.6412 31.3755C62.5851 31.3774 62.5291 31.3774 62.473 31.3755C62.4375 31.3755 62.4019 31.3736 62.3646 31.3718C62.3197 31.3699 62.2748 31.368 62.23 31.3643C62.1926 31.3605 62.1552 31.3587 62.1178 31.3549C62.0767 31.3512 62.0337 31.3456 61.9925 31.34C61.9552 31.3344 61.9159 31.3288 61.8785 31.3231C61.8374 31.3157 61.7963 31.3101 61.757 31.3026C61.7196 31.2951 61.6841 31.2876 61.6467 31.2801C61.6037 31.2708 61.5607 31.2596 61.5177 31.2484C61.4841 31.239 61.4504 31.2315 61.4168 31.2203C61.3663 31.2054 61.3158 31.1904 61.2654 31.1736C61.2373 31.1642 61.2093 31.1549 61.1831 31.1455C61.0934 31.1137 61.0074 31.0782 60.9233 31.0389C60.8821 31.0203 60.8429 30.9997 60.8018 30.9791C60.7812 30.9679 60.7588 30.9586 60.7401 30.9473C60.6803 30.9137 60.6204 30.8782 60.5644 30.8408L34.5858 13.5684L34.3857 16.6104L60.3718 33.879C60.4279 33.9164 60.4858 33.952 60.5475 33.9856C60.5681 33.9968 60.5887 34.0062 60.6092 34.0174C60.6447 34.0361 60.6803 34.0548 60.7176 34.0735C60.7214 34.0754 60.727 34.0772 60.7307 34.0791C60.8148 34.1184 60.9008 34.152 60.9906 34.1857C60.998 34.1875 61.0037 34.1913 61.0111 34.195C61.0317 34.2025 61.0523 34.2081 61.0728 34.2137C61.1233 34.2305 61.1719 34.2455 61.2242 34.2605C61.2373 34.2642 61.2504 34.2698 61.2654 34.2736C61.2859 34.2792 61.3065 34.2829 61.3252 34.2885C61.3682 34.2997 61.4112 34.3091 61.4542 34.3203C61.471 34.324 61.4878 34.3296 61.5065 34.3334C61.5252 34.3371 61.5439 34.339 61.5626 34.3427C61.6037 34.3502 61.6448 34.3577 61.686 34.3652C61.7065 34.3689 61.7252 34.3726 61.7439 34.3764C61.7626 34.3783 61.7794 34.3801 61.7981 34.382C61.8393 34.3876 61.8804 34.3913 61.9234 34.397C61.9439 34.3988 61.9645 34.4026 61.9869 34.4044C62.0038 34.4063 62.0206 34.4063 62.0374 34.4082C62.0823 34.4119 62.1271 34.4138 62.172 34.4156C62.1944 34.4175 62.2169 34.4194 62.2393 34.4194C62.2524 34.4194 62.2655 34.4194 62.2786 34.4194C62.3346 34.4213 62.3907 34.4194 62.4468 34.4194C62.4692 34.4194 62.4917 34.4194 62.5141 34.4194C62.5216 34.4194 62.5272 34.4175 62.5347 34.4175C62.63 34.4138 62.7235 34.4063 62.8169 34.397C62.8207 34.397 62.8263 34.397 62.8319 34.3951C62.8599 34.3913 62.8861 34.3876 62.9123 34.3839C62.959 34.3783 63.0039 34.3708 63.0506 34.3633C63.0843 34.3577 63.116 34.3502 63.1497 34.3427C63.1927 34.3334 63.2357 34.3259 63.2787 34.3147C63.288 34.3128 63.2974 34.3109 63.3067 34.3091C63.3217 34.3053 63.3366 34.2997 63.3516 34.296C63.4189 34.2773 63.4843 34.2567 63.5497 34.2343C63.574 34.2249 63.5983 34.2175 63.6226 34.2081C63.7049 34.1763 63.7853 34.1427 63.8619 34.1053L86.3205 22.8683Z" fill="#0B1160"/>
<path d="M86.6365 17.805C87.5675 18.4239 87.5151 19.3288 86.5225 19.8261L64.0583 31.0575C63.0638 31.5548 61.5029 31.4557 60.5719 30.8369L34.5859 13.5682C33.6549 12.9493 33.7073 12.0463 34.7018 11.5471L57.1641 0.317564C58.1586 -0.17978 59.7195 -0.0825546 60.6505 0.53632L86.6365 17.805Z" fill="#0854F5"/>
<path d="M40.0993 12.9004C40.1298 12.4367 39.5056 12.0182 38.7052 11.9656C37.9048 11.9129 37.2312 12.2461 37.2007 12.7098C37.1702 13.1735 37.7944 13.592 38.5948 13.6446C39.3952 13.6973 40.0688 13.3641 40.0993 12.9004Z" fill="#426CF6"/>
<path d="M60.1388 3.0586C60.1693 2.59495 59.5452 2.17642 58.7447 2.12378C57.9443 2.07115 57.2707 2.40435 57.2402 2.868C57.2098 3.33165 57.8339 3.75019 58.6344 3.80282C59.4348 3.85545 60.1084 3.52226 60.1388 3.0586Z" fill="#426CF6"/>
<path d="M83.9103 18.5418C83.9408 18.0781 83.3166 17.6596 82.5162 17.6069C81.7158 17.5543 81.0422 17.8875 81.0117 18.3512C80.9812 18.8148 81.6054 19.2333 82.4058 19.286C83.2063 19.3386 83.8799 19.0054 83.9103 18.5418Z" fill="#426CF6"/>
<path d="M63.7629 28.6445C63.7933 28.1809 63.1692 27.7624 62.3688 27.7097C61.5683 27.6571 60.8947 27.9903 60.8643 28.4539C60.8338 28.9176 61.458 29.3361 62.2584 29.3888C63.0588 29.4414 63.7324 29.1082 63.7629 28.6445Z" fill="#426CF6"/>
<g clip-path="url(#clip0_4950_3688)">
<path fill-rule="evenodd" clip-rule="evenodd" d="M74.1188 13.2781L74.1969 13.3232C74.3277 13.4036 74.4333 13.4965 74.5092 13.5978L74.5301 13.6257C74.8572 14.0621 75.8632 15.3253 75.8632 15.7802C75.8632 16.4585 75.4034 17.0355 74.6139 17.5329C73.7317 18.0885 72.5118 18.4929 71.3205 18.7847C68.3016 19.5242 64.5845 19.7862 61.3266 19.786C58.0686 19.7859 54.3518 19.5242 51.3322 18.7847C50.216 18.5113 49.0866 18.1423 48.2235 17.6441C48.1605 17.6077 48.0989 17.5706 48.0387 17.5327C47.2494 17.0354 46.7894 16.4583 46.7895 15.7801C46.7895 15.3151 47.7842 14.07 48.1201 13.6287L48.1414 13.6008C48.2977 13.3908 48.5801 13.2204 48.9368 13.121C49.2934 13.0216 49.7001 12.9999 50.0822 13.0599L54.5947 13.758C55.0171 13.8238 55.3771 13.9836 55.5958 14.2023C55.8145 14.4211 55.8742 14.681 55.7617 14.9251C55.5548 15.3715 55.5856 15.8484 56.0387 16.244C56.2478 16.4321 56.5257 16.5916 56.8529 16.7113C57.1801 16.8309 57.5487 16.9077 57.9328 16.9364C59.0578 17.0228 60.192 17.0636 61.3269 17.0585C62.4616 17.0636 63.5955 17.0228 64.7203 16.9363C65.1044 16.9077 65.473 16.8309 65.8003 16.7113C66.1275 16.5916 66.4054 16.4321 66.6146 16.2439C67.0673 15.8482 67.0982 15.371 66.8911 14.9248C66.779 14.6808 66.8388 14.421 67.0575 14.2023C67.2761 13.9836 67.6358 13.8238 68.058 13.7578L72.5703 13.0597C72.8392 13.0168 73.1227 13.0143 73.3938 13.0525C73.6648 13.0908 73.9144 13.1684 74.1188 13.2781ZM68.9025 11.037C68.9901 10.9864 69.0597 10.9263 69.1071 10.8602C69.1545 10.7941 69.1789 10.7233 69.1789 10.6518C69.179 10.5802 69.1545 10.5094 69.1071 10.4433C69.0597 10.3772 68.9902 10.3171 68.9025 10.2665C67.9078 9.69217 66.7268 9.23659 65.4271 8.92576C64.1274 8.61494 62.7343 8.45497 61.3275 8.45498C59.9207 8.45499 58.5276 8.61498 57.2279 8.92583C55.9282 9.23667 54.7473 9.69227 53.7525 10.2666C53.6637 10.317 53.593 10.3771 53.5445 10.4434C53.4961 10.5097 53.4709 10.5809 53.4703 10.6528C53.4698 10.7247 53.4939 10.796 53.5413 10.8625C53.5888 10.9291 53.6585 10.9895 53.7467 11.0404C53.8348 11.0913 53.9394 11.1315 54.0547 11.1589C54.1699 11.1863 54.2934 11.2002 54.418 11.1999C54.5426 11.1996 54.6658 11.1851 54.7806 11.1571C54.8954 11.1291 54.9995 11.0883 55.0868 11.037C55.9063 10.5638 56.8793 10.1884 57.95 9.93235C59.0208 9.67625 60.1685 9.54444 61.3275 9.54443C62.4865 9.54442 63.6342 9.67622 64.7049 9.9323C65.7757 10.1884 66.7487 10.5637 67.5682 11.0369C67.6558 11.0875 67.7598 11.1276 67.8743 11.155C67.9888 11.1824 68.1115 11.1965 68.2354 11.1965C68.3593 11.1965 68.482 11.1824 68.5965 11.155C68.711 11.1276 68.815 11.0875 68.9026 11.0369L68.9025 11.037ZM66.1994 12.5976C66.287 12.547 66.3566 12.487 66.404 12.4209C66.4514 12.3548 66.4758 12.284 66.4759 12.2124C66.4759 12.1409 66.4515 12.07 66.4041 12.0039C66.3567 11.9378 66.2872 11.8778 66.1996 11.8272C65.5598 11.4578 64.8002 11.1647 63.9643 10.9648C63.1283 10.7649 62.2324 10.662 61.3275 10.662C60.4227 10.662 59.5267 10.7649 58.6908 10.9648C57.8549 11.1647 57.0953 11.4578 56.4555 11.8272C56.2786 11.9294 56.1792 12.0679 56.1792 12.2124C56.1792 12.3569 56.2786 12.4954 56.4555 12.5976C56.6325 12.6997 56.8725 12.7571 57.1227 12.7571C57.3729 12.7571 57.6129 12.6997 57.7899 12.5976C58.2544 12.3294 58.806 12.1166 59.4129 11.9715C60.0199 11.8263 60.6705 11.7516 61.3274 11.7516C61.9844 11.7516 62.635 11.8263 63.2419 11.9715C63.8489 12.1166 64.4004 12.3294 64.865 12.5976C64.9526 12.6482 65.0566 12.6883 65.1711 12.7157C65.2856 12.7431 65.4083 12.7572 65.5322 12.7572C65.6561 12.7572 65.7788 12.7431 65.8933 12.7157C66.0078 12.6883 66.1118 12.6482 66.1994 12.5976ZM63.4964 14.1582C63.584 14.1076 63.6535 14.0475 63.7009 13.9815C63.7484 13.9154 63.7728 13.8445 63.7728 13.773C63.7728 13.7014 63.7483 13.6306 63.7009 13.5645C63.6535 13.4984 63.584 13.4384 63.4964 13.3878C63.2115 13.2233 62.8734 13.0929 62.5013 13.0039C62.1291 12.9149 61.7303 12.8691 61.3275 12.8691C60.9247 12.8691 60.5258 12.9149 60.1537 13.0039C59.7815 13.0929 59.4434 13.2234 59.1586 13.3878C58.9817 13.49 58.8823 13.6285 58.8823 13.773C58.8823 13.9175 58.9817 14.0561 59.1586 14.1582C59.3356 14.2604 59.5756 14.3178 59.8258 14.3178C60.076 14.3178 60.316 14.2604 60.493 14.1582C60.7143 14.0304 61.0145 13.9586 61.3275 13.9586C61.6405 13.9586 61.9407 14.0304 62.1621 14.1581C62.2497 14.2087 62.3537 14.2489 62.4682 14.2762C62.5827 14.3036 62.7054 14.3177 62.8293 14.3177C62.9532 14.3177 63.0759 14.3036 63.1904 14.2762C63.3049 14.2489 63.4089 14.2087 63.4965 14.1581L63.4964 14.1582Z" fill="white"/>
</g>
<defs>
<clipPath id="clip0_4950_3688">
<rect width="30.4305" height="30.4305" fill="white" transform="matrix(-0.866025 -0.5 -0.866025 0.5 87.6807 15.551)"/>
</clipPath>
</defs>
</svg>
