<svg width="29" height="32" viewBox="0 0 29 32" fill="none" xmlns="http://www.w3.org/2000/svg">
<path d="M14.2084 32C14.0423 32 13.871 32 13.7049 32C13.6582 31.9794 13.6115 31.9535 13.5648 31.9381C11.8881 31.5561 10.2633 31.0142 8.70084 30.2968C6.34934 29.2232 4.1899 27.871 2.4717 25.9097C0.950748 24.1755 0.011185 22.1935 0.005994 19.8555C-0.00438791 14.8542 0.000803043 9.84258 0.005994 4.83613C0.005994 4.18064 0.36417 3.81419 1.02342 3.78323C2.02527 3.73677 3.03232 3.70581 4.03417 3.62323C6.07422 3.4529 8.07793 3.10194 10.0193 2.43613C11.2963 1.99742 12.5006 1.43484 13.4713 0.464516C13.653 0.283871 13.8814 0.149677 14.0839 0C14.2292 0 14.3797 0 14.5251 0C14.7379 0.180645 14.9507 0.350968 15.1584 0.536774C15.3972 0.753548 15.61 1.00129 15.8644 1.20258C16.9025 2.0129 18.1172 2.4671 19.3734 2.8129C21.8288 3.48903 24.3464 3.74194 26.8848 3.78839C27.679 3.80387 28.0008 4.13419 28.0008 4.92387C28.0008 9.8271 28.0112 14.7303 27.9904 19.6335C27.9852 20.3665 27.9126 21.1148 27.7465 21.8271C27.2377 24.0206 25.94 25.7342 24.2581 27.1845C22.0312 29.0994 19.4513 30.3742 16.6793 31.3032C15.8644 31.5768 15.0338 31.7729 14.2084 32ZM1.90069 5.6671C1.8955 5.76516 1.89031 5.83742 1.89031 5.90968C1.89031 10.5652 1.89031 15.2206 1.89031 19.8761C1.89031 20.7587 2.07718 21.6103 2.41979 22.4258C3.13614 24.1239 4.37159 25.3935 5.84063 26.4568C8.24923 28.2013 10.9693 29.2852 13.8243 30.0542C13.9541 30.0903 14.115 30.0748 14.25 30.0387C14.9144 29.8477 15.5789 29.6619 16.2277 29.4348C18.7246 28.5677 21.0916 27.4529 23.1005 25.7032C24.9797 24.0671 26.1321 22.0903 26.1165 19.5148C26.0853 15.0245 26.1061 10.5394 26.1061 6.04903C26.1061 5.92516 26.1061 5.80645 26.1061 5.67742C25.9867 5.66194 25.9037 5.65161 25.8206 5.64645C24.6942 5.55871 23.5625 5.5071 22.4413 5.3729C20.5051 5.13548 18.6156 4.69161 16.8195 3.89161C15.8903 3.47871 15.0234 2.95226 14.2604 2.30194C10.5436 4.88774 6.29224 5.48129 1.90069 5.6671Z" fill="#001042"/>
<path d="M11.182 15.0709C11.3378 15.0709 11.4623 15.0709 11.5869 15.0709C14.1928 15.0709 16.8038 15.0709 19.4097 15.0709C20.261 15.0709 20.6036 15.4168 20.6036 16.2684C20.6036 18.6219 20.6036 20.9755 20.6036 23.329C20.6036 24.1393 20.2506 24.4955 19.4408 24.4955C15.8072 24.4955 12.1735 24.4955 8.53983 24.4955C7.76119 24.4955 7.4082 24.1445 7.4082 23.3703C7.4082 20.9755 7.4082 18.5806 7.4082 16.1858C7.4082 15.4322 7.76638 15.0761 8.52426 15.0761C8.77342 15.0761 9.02259 15.0761 9.29771 15.0761C9.29771 14.1471 9.27695 13.249 9.30809 12.3613C9.32367 11.8555 9.37038 11.3342 9.51573 10.8542C10.149 8.70707 12.2358 7.35998 14.5198 7.57675C16.7104 7.78836 18.4909 9.57933 18.6933 11.7832C18.7089 11.938 18.7297 12.098 18.7193 12.2477C18.6881 12.769 18.2936 13.1613 17.7901 13.1664C17.2918 13.1768 16.8765 12.7948 16.8454 12.2735C16.809 11.6697 16.6689 11.1019 16.3107 10.6064C15.5943 9.62062 14.3537 9.20772 13.1598 9.56901C12.0126 9.91482 11.2184 10.9471 11.1976 12.1548C11.1716 13.1045 11.182 14.0593 11.182 15.0709ZM9.31328 22.5858C12.459 22.5858 15.5736 22.5858 18.7037 22.5858C18.7037 20.7071 18.7037 18.849 18.7037 16.9703C15.5684 16.9703 12.4538 16.9703 9.31328 16.9703C9.31328 18.849 9.31328 20.7071 9.31328 22.5858Z" fill="#001042"/>
<path d="M13.0665 19.7728C13.0716 19.2567 13.4869 18.8438 14.0008 18.8386C14.5095 18.8386 14.9404 19.2618 14.9456 19.7677C14.9508 20.2838 14.5043 20.7225 13.9853 20.7173C13.4713 20.7122 13.0613 20.2889 13.0665 19.7728Z" fill="#001042"/>
</svg>
