<svg width="72" height="81" viewBox="0 0 72 81" fill="none" xmlns="http://www.w3.org/2000/svg">
<g clip-path="url(#clip0_4830_1617)">
<path d="M48.4126 80.8429H1.01023C0.820587 80.8429 0.666504 80.5872 0.666504 80.2725C0.666504 79.9578 0.820587 79.7021 1.01023 79.7021H48.4126C48.6022 79.7021 48.7563 79.9578 48.7563 80.2725C48.7563 80.5872 48.6022 80.8429 48.4126 80.8429Z" fill="black"/>
<path d="M44.445 1.50488H28.072V72.0391H44.445V1.50488Z" fill="white"/>
<path d="M44.4384 72.6095H28.0719C27.7616 72.6095 27.5095 72.3538 27.5095 72.0391V1.50493C27.5095 1.19025 27.7616 0.93457 28.0719 0.93457H44.4448C44.7551 0.93457 45.0072 1.19025 45.0072 1.50493V72.0391C45.0007 72.3538 44.7486 72.6095 44.4384 72.6095ZM28.6342 71.4688H43.8825V2.07529H28.6342V71.4688Z" fill="black"/>
<path d="M17.6068 23.9785H1.23389V72.0393H17.6068V23.9785Z" fill="#FFB217"/>
<path d="M17.6002 72.6097H1.23374C0.923476 72.6097 0.671387 72.354 0.671387 72.0394V23.9786C0.671387 23.6639 0.923476 23.4082 1.23374 23.4082H17.6067C17.917 23.4082 18.169 23.6639 18.169 23.9786V72.0394C18.1626 72.354 17.9105 72.6097 17.6002 72.6097ZM1.7961 71.469H17.0443V24.5489H1.7961V71.469Z" fill="black"/>
<path d="M46.1448 53.9573C50.0683 57.8777 53.9984 61.7916 57.9219 65.7119C59.9968 67.7836 62.0717 69.8552 64.3341 71.6515C65.5557 72.6218 66.9067 73.5331 68.3934 73.5331C69.8736 73.5331 71.4508 72.2678 71.4378 70.5633C71.4314 69.239 70.5264 68.1704 69.6797 67.2657C63.4291 60.5787 56.8942 54.2392 50.1071 48.2734C48.8661 50.1222 47.625 51.9709 46.1448 53.9573Z" fill="white"/>
<path d="M68.3934 74.1033C66.7386 74.1033 65.2972 73.1396 63.985 72.0972C61.6968 70.2813 59.5767 68.1637 57.5276 66.1183L45.7505 54.3637C45.5501 54.1605 45.5242 53.8392 45.6988 53.6098C47.166 51.6365 48.4265 49.7681 49.6482 47.9587C49.7387 47.821 49.8809 47.7357 50.0425 47.7095C50.1976 47.6899 50.3657 47.7358 50.482 47.8406C57.2561 53.7933 63.8557 60.1984 70.0933 66.8722C71.0112 67.8556 71.9937 69.0356 72.0067 70.5566C72.0131 71.4416 71.6576 72.3004 71.0048 72.9626C70.3002 73.6772 69.3306 74.1033 68.3934 74.1033ZM46.8881 53.8982L58.3162 65.2988C60.3458 67.3246 62.4401 69.4159 64.6831 71.1925C65.8337 72.1103 67.0812 72.956 68.3934 72.956C69.0333 72.956 69.712 72.6545 70.2032 72.1562C70.6428 71.7104 70.8819 71.1401 70.8755 70.5632C70.869 69.4552 70.0804 68.5177 69.2724 67.6589C63.2029 61.1686 56.7972 54.9341 50.217 49.1256C49.1828 50.6597 48.1098 52.2462 46.8881 53.8982Z" fill="black"/>
<path d="M30.8191 10.6299C17.2967 10.6299 6.33398 21.7486 6.33398 35.4634C6.33398 49.1782 17.2967 60.2969 30.8191 60.2969C44.3415 60.2969 55.3042 49.1782 55.3042 35.4634C55.3042 21.7486 44.3415 10.6299 30.8191 10.6299ZM30.8191 54.331C20.548 54.331 12.2226 45.8871 12.2226 35.4699C12.2226 25.0527 20.548 16.6022 30.8191 16.6022C41.0901 16.6022 49.4156 25.0462 49.4156 35.4634C49.4156 45.8806 41.0901 54.331 30.8191 54.331ZM30.8191 54.331C20.548 54.331 12.2226 45.8871 12.2226 35.4699C12.2226 25.0527 20.548 16.6022 30.8191 16.6022C41.0901 16.6022 49.4156 25.0462 49.4156 35.4634C49.4156 45.8806 41.0901 54.331 30.8191 54.331Z" fill="white"/>
<path d="M30.8189 60.8741C17.0057 60.8741 5.77148 49.4801 5.77148 35.4703C5.77148 21.4604 17.0057 10.0664 30.8189 10.0664C44.6322 10.0664 55.8664 21.4604 55.8664 35.4703C55.8664 49.4735 44.6322 60.8741 30.8189 60.8741ZM30.8189 11.2006C17.6262 11.2006 6.89619 22.0832 6.89619 35.4637C6.89619 48.8441 17.6262 59.7268 30.8189 59.7268C44.0117 59.7268 54.7417 48.8441 54.7417 35.4637C54.7417 22.0898 44.0117 11.2006 30.8189 11.2006ZM30.8189 54.9017C20.257 54.9017 11.6601 46.1825 11.6601 35.4703C11.6601 24.758 20.257 16.0388 30.8189 16.0388C41.3809 16.0388 49.9778 24.758 49.9778 35.4703C49.9778 46.1825 41.3873 54.9017 30.8189 54.9017ZM12.7848 35.4637C12.7848 45.5531 20.8775 53.7545 30.8189 53.7545C40.7603 53.7545 48.8531 45.5466 48.8531 35.4637C48.8531 25.3743 40.7603 17.1729 30.8189 17.1729C20.8775 17.1729 12.7848 25.3808 12.7848 35.4637Z" fill="black"/>
<path d="M49.2992 54.6656C49.2798 54.6656 49.2669 54.6656 49.2475 54.659C49.1505 54.6328 49.0923 54.5279 49.1182 54.423L49.5513 52.8955C49.5771 52.7972 49.6806 52.7316 49.784 52.7644C49.8809 52.7906 49.9391 52.8955 49.9133 53.0004L49.4802 54.5279C49.4543 54.6131 49.3832 54.6656 49.2992 54.6656Z" fill="black"/>
<path d="M51.3608 57.3475C51.3544 57.3475 51.3415 57.3475 51.335 57.3475C51.2316 57.3344 51.1605 57.2361 51.1734 57.1312C51.4061 55.348 51.684 53.5386 52.0008 51.7685C52.0202 51.6636 52.1171 51.5981 52.2205 51.6177C52.324 51.6374 52.3886 51.7357 52.3692 51.8406C52.0525 53.6107 51.7745 55.407 51.5483 57.1902C51.5354 57.2754 51.4513 57.3475 51.3608 57.3475Z" fill="black"/>
<path d="M54.0371 59.9431C53.9336 59.9431 53.8496 59.8579 53.8496 59.753C53.8496 58.8614 53.9853 57.3601 54.1017 56.0359C54.1728 55.2295 54.2374 54.5346 54.2568 54.0953C54.2633 53.9904 54.3409 53.9052 54.4507 53.9183C54.5542 53.9249 54.6317 54.0101 54.6253 54.115C54.6059 54.5608 54.5412 55.2623 54.4637 56.0752C54.3473 57.3929 54.2116 58.8811 54.2116 59.7596C54.2245 59.8579 54.1405 59.9431 54.0371 59.9431Z" fill="black"/>
<path d="M56.7715 62.5066C56.6681 62.5066 56.5841 62.4213 56.5841 62.323L56.4419 55.9769C56.4419 55.8721 56.5195 55.7868 56.6229 55.7803C56.6229 55.7803 56.6229 55.7803 56.6293 55.7803C56.7328 55.7803 56.8168 55.8655 56.8168 55.9638L56.959 62.3099C56.9655 62.4148 56.8814 62.5 56.7715 62.5066C56.778 62.5066 56.778 62.5066 56.7715 62.5066Z" fill="black"/>
<path d="M59.3763 65.3123C59.2729 65.3123 59.1953 65.2336 59.1889 65.1287L58.9432 58.4877C58.9368 58.3828 59.0208 58.2976 59.1242 58.291C59.2212 58.291 59.3117 58.3697 59.3181 58.4746L59.5638 65.1156C59.5702 65.2205 59.4862 65.3058 59.3828 65.3123C59.3828 65.3123 59.3828 65.3123 59.3763 65.3123Z" fill="black"/>
<path d="M62.0329 67.6723C61.9359 67.6723 61.8519 67.5936 61.8454 67.4953L61.5158 61.2935C61.5093 61.1886 61.5869 61.0968 61.6903 61.0902C61.8066 61.0837 61.8842 61.1623 61.8907 61.2672L62.2203 67.469C62.2268 67.5739 62.1492 67.6657 62.0458 67.6723C62.0393 67.6723 62.0329 67.6723 62.0329 67.6723Z" fill="black"/>
<path d="M64.657 69.8619C64.5601 69.8619 64.476 69.7832 64.4696 69.6849L64.0106 63.647C64.0042 63.5421 64.0817 63.4503 64.1851 63.4437C64.2821 63.4306 64.3791 63.5158 64.3855 63.6207L64.8445 69.6586C64.8509 69.7635 64.7734 69.8553 64.6699 69.8619C64.6699 69.8619 64.6635 69.8619 64.657 69.8619Z" fill="black"/>
<path d="M67.1458 71.8223C67.0488 71.8223 66.9712 71.7502 66.9583 71.6519L66.4218 66.3548C66.4089 66.2499 66.4865 66.1581 66.5899 66.145C66.6868 66.1319 66.7838 66.2105 66.7967 66.3154L67.3332 71.6125C67.3462 71.7174 67.2686 71.8092 67.1652 71.8223C67.1587 71.8223 67.1522 71.8223 67.1458 71.8223Z" fill="black"/>
<path d="M69.5763 71.5404C69.4858 71.5404 69.4082 71.4749 69.3888 71.3831L69.0139 69.0165C68.9945 68.9116 69.0656 68.8132 69.1691 68.8001C69.2725 68.7804 69.3695 68.8526 69.3824 68.9575L69.7573 71.3241C69.7767 71.429 69.7056 71.5273 69.6021 71.5404C69.5957 71.5404 69.5892 71.5404 69.5763 71.5404Z" fill="black"/>
<g opacity="0.1294">
<path d="M48.142 41.4756C47.5279 42.0001 47.2435 42.8524 46.72 43.4752C46.623 43.6522 45.369 45.0879 44.658 45.7763C44.0439 46.3335 43.4557 46.8252 42.8546 47.2841C42.7512 47.3038 42.6413 47.3431 42.5378 47.4087C39.474 49.6573 37.1793 50.4768 33.3075 51.1979C31.4717 51.5454 29.3516 51.8404 26.4622 51.1127C24.4326 50.6341 23.4565 50.0703 21.3364 48.6215C20.4379 47.979 18.4341 46.1893 17.0703 44.5175C15.603 42.4852 15.1052 40.7086 14.8014 39.9022C14.4976 39.0696 14.2649 38.2174 14.0258 37.3651C13.6703 36.1982 13.5604 35.7852 13.5604 34.7887C13.3341 34.1528 13.1338 33.5169 12.9463 32.8678C12.7653 32.7826 12.5649 32.7433 12.3646 32.7564C12.0349 35.3197 12.0866 37.8961 12.4034 40.4529C12.9528 42.6622 13.6315 45.0551 15.7193 47.4349C17.3999 49.3164 18.5569 49.9654 19.2809 50.5686C20.968 51.8011 22.7649 52.9287 24.7493 53.5843C25.8352 53.9055 26.9664 54.0366 28.0847 54.1743C28.0911 54.1743 28.0976 54.1743 28.1041 54.1808C29.3257 54.4037 30.5668 54.4103 31.7949 54.2726C32.758 54.1939 33.6888 53.9055 34.6196 53.6498C36.5523 53.1712 38.4785 52.5681 40.2432 51.6241C40.9607 51.1783 41.2063 51.0013 41.5424 50.7456C43.7078 49.3754 45.9443 47.4742 47.0884 46.1499C47.3857 45.5271 47.6766 44.8978 47.9416 44.2619C48.2778 43.3113 48.6203 42.3607 48.95 41.4101C48.6979 41.3117 48.3941 41.3183 48.142 41.4756Z" fill="black"/>
</g>
<g opacity="0.1294">
<path d="M52.1367 49.5782C51.2059 49.3094 50.5789 49.965 50.12 50.6861C50.1006 50.7123 50.0812 50.732 50.0554 50.7648C49.2409 51.7285 49.0147 51.6433 47.6702 52.8758C47.6637 52.8823 47.6573 52.8823 47.6508 52.8889C47.3858 53.079 47.0691 53.2101 46.901 53.5051C45.7698 54.9146 47.4957 56.8814 49.0276 55.9636C50.0942 55.367 51.012 54.5213 51.7489 53.5379C52.2208 53.0134 52.6797 52.4693 53.0417 51.8596C53.5652 51.0073 53.0805 49.8338 52.1367 49.5782Z" fill="black"/>
</g>
<path d="M27.4902 30.5801C25.8548 30.4227 24.5362 28.8755 24.4005 27.2169C24.2712 25.5583 25.1955 23.9193 26.5529 22.9818C27.9103 22.0444 29.6362 21.769 31.2651 21.9722C33.3529 22.2345 35.389 23.3096 36.5525 25.0863C37.716 26.8629 37.8647 29.3541 36.6753 31.1111C35.6153 32.6845 33.605 33.6482 33.1913 35.51C32.894 36.8212 33.4369 38.4471 32.4868 39.3845C31.7369 40.1253 30.3989 39.8893 29.6879 39.1157C28.9769 38.3422 28.7765 37.208 28.8088 36.1525C28.8282 35.5363 28.9122 34.92 29.1385 34.3497C30.0628 31.9961 33.1848 30.7112 33.2301 28.1806C33.256 26.9743 32.4157 25.8009 31.2845 25.4468C30.3731 25.1649 29.1643 25.5648 28.9833 26.5089C28.8605 27.1514 29.2484 27.7742 29.3324 28.4166C29.4423 29.2886 28.9446 30.2064 27.4902 30.5801Z" fill="#FFB217"/>
<path d="M31.3233 40.4003C31.3039 40.4003 31.2781 40.4003 31.2587 40.4003C30.5153 40.3806 29.772 40.0463 29.2743 39.5021C28.5568 38.722 28.2013 37.5616 28.2401 36.1324C28.2595 35.3588 28.3823 34.7032 28.6085 34.1329C29.048 33.0118 29.9013 32.1465 30.7222 31.3139C31.7047 30.3174 32.6355 29.3734 32.6549 28.1605C32.6743 27.2034 32.0085 26.2659 31.1036 25.984C30.7093 25.8594 30.2245 25.9184 29.8883 26.1217C29.6815 26.2462 29.5587 26.4101 29.5199 26.6134C29.4682 26.8756 29.5652 27.1772 29.675 27.5246C29.7526 27.7803 29.8366 28.0491 29.8754 28.3375C30.0112 29.3734 29.4941 30.6452 27.6195 31.1303C27.5549 31.15 27.4903 31.15 27.4256 31.1434C25.5705 30.9664 23.9869 29.2554 23.8317 27.2558C23.6895 25.4661 24.6332 23.6042 26.2298 22.5028C27.6131 21.5523 29.423 21.1655 31.3298 21.4015C33.702 21.6965 35.8286 22.9552 37.018 24.7646C38.356 26.81 38.4012 29.5504 37.1343 31.4253C36.6883 32.0809 36.113 32.6251 35.5507 33.1495C34.7298 33.9231 33.9477 34.6508 33.7343 35.6211C33.6439 36.0275 33.6438 36.493 33.6438 36.9781C33.6438 37.9287 33.6503 39.0104 32.8682 39.7775C32.4804 40.1839 31.9309 40.4003 31.3233 40.4003ZM30.6705 24.7777C30.9355 24.7777 31.194 24.8171 31.4461 24.8957C32.8359 25.3284 33.8184 26.7117 33.7925 28.1868C33.7602 29.8585 32.629 31.0058 31.5302 32.1203C30.7545 32.907 30.0176 33.6543 29.6621 34.559C29.4876 35.0048 29.3906 35.5293 29.3712 36.1652C29.3519 36.9453 29.4553 38.0271 30.1017 38.722C30.399 39.0432 30.8515 39.2464 31.291 39.2596C31.5237 39.2596 31.8469 39.2202 32.099 38.9711C32.5385 38.5384 32.5385 37.8238 32.5321 36.9912C32.5321 36.4602 32.5256 35.9095 32.6484 35.3719C32.9458 34.0542 33.8895 33.1692 34.8009 32.3169C35.3374 31.8121 35.848 31.3336 36.2229 30.7829C37.2378 29.275 37.1925 27.0657 36.1001 25.394C35.0918 23.8599 33.2689 22.7913 31.2134 22.5356C29.5781 22.3324 28.0397 22.6602 26.8827 23.4534C25.6093 24.3254 24.8595 25.7808 24.9758 27.1706C25.0857 28.5801 26.191 29.8257 27.4579 30.0027C28.3887 29.7339 28.8671 29.1832 28.7766 28.4883C28.7507 28.2916 28.6861 28.0819 28.615 27.8655C28.4792 27.4328 28.3306 26.9411 28.4275 26.397C28.5245 25.8791 28.8412 25.4333 29.3195 25.1448C29.7138 24.9023 30.1921 24.7777 30.6705 24.7777Z" fill="black"/>
<path d="M31.8918 42.3809C31.1096 42.1055 30.1982 42.2432 29.5325 42.7415C28.8667 43.2397 28.4724 44.092 28.5306 44.9311C28.6146 46.0718 29.5777 47.0749 30.696 47.1929C31.8142 47.3109 32.9583 46.5242 33.2686 45.4228C33.5788 44.3214 33.1199 42.807 31.8918 42.3809Z" fill="#FFB217"/>
<path d="M30.9222 47.7696C30.8318 47.7696 30.7348 47.7631 30.6443 47.7565C29.2481 47.6123 28.0782 46.3863 27.9747 44.9703C27.9036 43.9541 28.382 42.8986 29.2029 42.2824C30.0173 41.6727 31.1162 41.5022 32.0793 41.8431C33.5983 42.3742 34.1994 44.2032 33.8181 45.58C33.4561 46.8518 32.2215 47.7696 30.9222 47.7696ZM31.0645 42.8068C30.6378 42.8068 30.2112 42.938 29.8686 43.1936C29.3515 43.5804 29.0477 44.2426 29.093 44.8785C29.1576 45.7439 29.901 46.524 30.7542 46.6158C31.601 46.7076 32.493 46.0979 32.7321 45.2587C32.9713 44.4065 32.6093 43.233 31.7108 42.9183C31.504 42.8462 31.2842 42.8068 31.0645 42.8068Z" fill="black"/>
<g opacity="0.1294">
<path d="M17.5679 57.0196C17.5744 56.6656 17.6455 56.3378 17.7554 56.0362C16.4626 55.1577 15.2409 54.1809 14.0645 53.1517C13.3341 52.5157 12.8493 51.6832 12.1577 51.0145C11.4725 50.3458 10.9942 49.8344 10.5934 49.0215C9.64322 49.3231 9.04855 50.2736 9.66262 51.0341C11.1881 53.1254 12.6166 55.2954 14.6269 57.1376C14.8272 57.3277 15.0276 57.5178 15.2215 57.7145C15.3508 57.8784 15.9196 58.5078 16.1782 58.6258C16.6371 58.9405 17.2253 59.0126 17.7618 58.9142C17.6455 58.2914 17.555 57.6555 17.5679 57.0196Z" fill="black"/>
</g>
<g opacity="0.1294">
<path d="M43.8695 59.5303C43.8566 59.5434 43.8372 59.55 43.8242 59.5631C43.7855 59.5959 43.7467 59.6222 43.7144 59.655C43.7661 59.6156 43.8566 59.5565 43.8695 59.5303Z" fill="black"/>
</g>
<g opacity="0.1294">
<path d="M43.7154 59.6543C43.7084 59.6543 43.7084 59.6613 43.7014 59.6613C43.7014 59.6613 43.7084 59.6613 43.7154 59.6543Z" fill="black"/>
</g>
<g opacity="0.1294">
<path d="M43.7026 59.668C43.6557 59.7016 43.6624 59.6949 43.7026 59.668V59.668Z" fill="black"/>
</g>
<g opacity="0.1294">
<path d="M43.4882 57.1962C42.732 57.5568 43.0616 57.524 42.6221 57.7797C41.3745 58.5795 41.1418 58.5598 40.1399 58.9925C37.1924 60.1857 33.6955 60.3823 31.5689 60.0939C30.9677 60.0283 30.386 59.9038 29.8107 59.7399C29.2742 59.7595 28.7377 59.7923 28.2012 59.7399C28.0719 59.7268 27.9556 59.7071 27.8328 59.694C27.8457 60.3692 27.8845 61.0445 27.9233 61.7197C29.4293 62.1655 30.9483 62.5392 32.5191 62.6179C34.7491 62.6703 36.9856 62.336 39.1316 61.746C40.586 61.2936 42.0662 60.7822 43.3525 59.9365C43.5141 59.8251 43.6757 59.7005 43.8308 59.576C44.2768 59.222 44.8392 58.8614 44.8262 58.232C44.8392 57.5371 44.1411 57.0061 43.4882 57.1962Z" fill="black"/>
</g>
</g>
<defs>
<clipPath id="clip0_4830_1617">
<rect width="72" height="79.909" fill="white" transform="translate(0 0.93457)"/>
</clipPath>
</defs>
</svg>
