<svg width="104" height="100" viewBox="0 0 104 100" fill="none" xmlns="http://www.w3.org/2000/svg">
<path d="M34.0173 82.8445L46.2445 99.3273L58.4639 82.8445H51.5875V0.680664H40.9015V82.8445H34.0173Z" fill="#FFB217"/>
<path d="M46.2445 100C46.0255 100 45.8299 99.8983 45.6969 99.7262L33.4776 83.2512C33.3211 83.0478 33.2976 82.7662 33.415 82.5393C33.5323 82.3124 33.767 82.1638 34.0252 82.1638H40.2287V0.680591C40.2209 0.305093 40.526 0 40.9015 0H51.5876C51.9631 0 52.2681 0.305093 52.2681 0.680591V82.1638H58.4717C58.7299 82.1638 58.9645 82.3124 59.0819 82.5393C59.1992 82.7662 59.1758 83.0478 59.0193 83.2512L46.7999 99.7262C46.6591 99.8983 46.4557 100 46.2445 100ZM35.3707 83.525L46.2445 98.1773L57.1105 83.525H51.5797C51.2042 83.525 50.8991 83.2199 50.8991 82.8444V1.36118H41.5821V82.8444C41.5821 83.2199 41.277 83.525 40.9015 83.525H35.3707Z" fill="black"/>
<path d="M72.4358 61.488C77.1843 66.1661 81.9406 70.8364 86.6891 75.5145C89.2002 77.9865 91.7114 80.4585 94.4494 82.602C95.9279 83.7598 97.5629 84.8472 99.3622 84.8472C101.161 84.8472 103.062 83.3373 103.047 81.3034C103.039 79.7232 101.944 78.448 100.919 77.3685C93.3542 69.3891 85.4453 61.8244 77.2312 54.7056C75.7292 56.9116 74.2272 59.1177 72.4358 61.488Z" fill="white"/>
<path d="M99.3622 85.5278C97.3596 85.5278 95.615 84.3779 94.027 83.134C91.2499 80.9593 88.6918 78.4403 86.2119 75.9995L71.9586 61.9731C71.7161 61.7306 71.6848 61.3473 71.896 61.0735C73.6797 58.7188 75.2051 56.4814 76.6758 54.3223C76.7854 54.158 76.9575 54.0563 77.153 54.0329C77.3408 54.0094 77.5363 54.0642 77.685 54.1971C85.8834 61.3003 93.8705 68.9433 101.42 76.907C102.53 78.0804 103.72 79.4886 103.735 81.3035C103.743 82.3596 103.313 83.3843 102.523 84.1745C101.67 85.0193 100.497 85.5278 99.3622 85.5278ZM73.3355 61.4177L87.1663 75.0217C89.6227 77.439 92.1573 79.9345 94.8719 82.0545C96.2643 83.1497 97.7742 84.1588 99.3622 84.1588C100.137 84.1588 100.958 83.799 101.553 83.2044C102.085 82.6725 102.374 81.9919 102.366 81.3035C102.358 79.9814 101.404 78.8627 100.426 77.8379C93.0804 70.0933 85.3279 62.6537 77.3642 55.7226C76.1126 57.5532 74.814 59.4385 73.3355 61.4177Z" fill="black"/>
<path d="M53.8877 9.78662C37.5223 9.78662 24.2546 23.0542 24.2546 39.4275C24.2546 55.793 37.5223 69.0607 53.8877 69.0607C70.2532 69.0607 83.5209 55.793 83.5209 39.4275C83.5209 23.0542 70.2532 9.78662 53.8877 9.78662ZM53.8877 61.934C41.4572 61.934 31.3813 51.8581 31.3813 39.4275C31.3813 26.997 41.4572 16.9211 53.8877 16.9211C66.3183 16.9211 76.3942 26.997 76.3942 39.4275C76.3942 51.8581 66.3183 61.934 53.8877 61.934ZM53.8877 61.934C41.4572 61.934 31.3813 51.8581 31.3813 39.4275C31.3813 26.997 41.4572 16.9211 53.8877 16.9211C66.3183 16.9211 76.3942 26.997 76.3942 39.4275C76.3942 51.8581 66.3183 61.934 53.8877 61.934Z" fill="white"/>
<path d="M53.8877 69.7412C37.1702 69.7412 23.574 56.145 23.574 39.4275C23.574 22.71 37.1702 9.11377 53.8877 9.11377C70.6052 9.11377 84.2014 22.71 84.2014 39.4275C84.2014 56.1372 70.6052 69.7412 53.8877 69.7412ZM53.8877 10.4671C37.9212 10.4671 24.9352 23.4531 24.9352 39.4196C24.9352 55.3862 37.9212 68.3722 53.8877 68.3722C69.8542 68.3722 82.8402 55.3862 82.8402 39.4196C82.8402 23.4609 69.8542 10.4671 53.8877 10.4671ZM53.8877 62.6145C41.1051 62.6145 30.7006 52.2101 30.7006 39.4275C30.7006 26.6449 41.1051 16.2404 53.8877 16.2404C66.6703 16.2404 77.0747 26.6449 77.0747 39.4275C77.0747 52.2101 66.6781 62.6145 53.8877 62.6145ZM32.0618 39.4275C32.0618 51.4669 41.8561 61.2533 53.8877 61.2533C65.9193 61.2533 75.7135 51.4591 75.7135 39.4275C75.7135 27.3959 65.9193 17.6016 53.8877 17.6016C41.8561 17.6016 32.0618 27.388 32.0618 39.4275Z" fill="black"/>
<path d="M76.2533 62.3328C76.2299 62.3328 76.2142 62.3328 76.1907 62.3249C76.0734 62.2937 76.003 62.1685 76.0343 62.0433L76.5584 60.2206C76.5897 60.1032 76.7149 60.025 76.84 60.0641C76.9574 60.0954 77.0278 60.2206 76.9965 60.3458L76.4724 62.1685C76.4411 62.2702 76.355 62.3328 76.2533 62.3328Z" fill="black"/>
<path d="M78.7487 65.5325C78.7409 65.5325 78.7252 65.5325 78.7174 65.5325C78.5923 65.5169 78.5062 65.3995 78.5219 65.2744C78.8035 63.1387 79.1399 60.9874 79.5232 58.8752C79.5467 58.7501 79.664 58.6718 79.7892 58.6953C79.9143 58.7188 79.9926 58.8361 79.9691 58.9613C79.5858 61.0657 79.2494 63.2169 78.9756 65.3448C78.9599 65.4465 78.8582 65.5325 78.7487 65.5325Z" fill="black"/>
<path d="M81.9876 68.6304C81.8624 68.6304 81.7607 68.5287 81.7607 68.4036C81.7607 67.3396 81.925 65.5482 82.0658 63.968C82.1519 63.0058 82.2301 62.1765 82.2536 61.6524C82.2614 61.5272 82.3475 61.4177 82.4883 61.4412C82.6134 61.449 82.7073 61.5507 82.6995 61.6759C82.676 62.2078 82.5978 63.0449 82.5117 64.0149C82.3709 65.5873 82.2066 67.3631 82.2066 68.4114C82.2145 68.5287 82.1128 68.6304 81.9876 68.6304Z" fill="black"/>
<path d="M85.2967 71.6891C85.1715 71.6891 85.0698 71.5874 85.0698 71.4701L84.8977 63.8975C84.8977 63.7724 84.9916 63.6707 85.1168 63.6628C85.2497 63.6785 85.3436 63.7567 85.3514 63.8819L85.5235 71.4544C85.5314 71.5796 85.4297 71.6891 85.2967 71.6891Z" fill="black"/>
<path d="M88.4569 75.0372C88.3318 75.0372 88.2379 74.9433 88.2301 74.8181L87.9328 66.8936C87.925 66.7684 88.0267 66.6667 88.1518 66.6589C88.277 66.651 88.3787 66.7527 88.3865 66.8779L88.6838 74.8025C88.6916 74.9277 88.5899 75.0294 88.4648 75.0372C88.4569 75.0372 88.4569 75.0372 88.4569 75.0372Z" fill="black"/>
<path d="M91.6644 77.8612C91.547 77.8612 91.4453 77.7674 91.4375 77.65L91.0385 70.2417C91.0307 70.1166 91.1246 70.0071 91.2498 69.9992C91.3827 69.9914 91.4844 70.0853 91.4923 70.2105L91.8912 77.6187C91.8991 77.7439 91.8052 77.8534 91.68 77.8612C91.6722 77.8612 91.6644 77.8612 91.6644 77.8612Z" fill="black"/>
<path d="M94.8406 80.4664C94.7233 80.4664 94.6216 80.3725 94.6137 80.2551L94.0583 73.0503C94.0505 72.9251 94.1444 72.8156 94.2695 72.8077C94.3869 72.7921 94.5042 72.8938 94.512 73.019L95.0675 80.2238C95.0753 80.349 94.9814 80.4585 94.8562 80.4664C94.8562 80.4664 94.8484 80.4664 94.8406 80.4664Z" fill="black"/>
<path d="M97.8522 82.8132C97.7349 82.8132 97.641 82.7271 97.6254 82.6098L96.9761 76.2889C96.9604 76.1637 97.0543 76.0542 97.1795 76.0386C97.289 76.0229 97.4142 76.1168 97.4298 76.242L98.0791 82.5629C98.0947 82.688 98.0009 82.7976 97.8757 82.8132C97.8679 82.8132 97.8601 82.8132 97.8522 82.8132Z" fill="black"/>
<path d="M100.794 82.4767C100.684 82.4767 100.59 82.3985 100.567 82.289L100.113 79.4649C100.09 79.3397 100.176 79.2224 100.301 79.2067C100.426 79.1833 100.543 79.2693 100.559 79.3945L101.013 82.2186C101.036 82.3437 100.95 82.4611 100.825 82.4767C100.817 82.4767 100.809 82.4767 100.794 82.4767Z" fill="black"/>
<g opacity="0.1294">
<path d="M74.853 46.5932C74.1098 47.219 73.7656 48.236 73.132 48.9792C73.0146 49.1904 71.497 50.9036 70.6365 51.725C69.8933 52.3899 69.1814 52.9767 68.4539 53.5243C68.3287 53.5477 68.1957 53.5947 68.0706 53.6729C64.3625 56.3562 61.5776 57.334 56.8995 58.1945C54.6778 58.6091 52.1119 58.9612 48.615 58.0928C46.1586 57.5218 44.9774 56.849 42.4115 55.1201C41.3241 54.3535 38.899 52.2178 37.2484 50.223C35.4726 47.7979 34.8702 45.6779 34.5025 44.7157C34.1349 43.7222 33.8532 42.7052 33.5638 41.6882C33.1335 40.2958 33.0005 39.8029 33.0005 38.6138C32.7267 37.855 32.4842 37.0962 32.2574 36.3217C32.0383 36.22 31.7958 36.1731 31.5533 36.1887C31.1543 39.2475 31.2169 42.3219 31.6002 45.3728C32.2652 48.0091 33.0866 50.8645 35.6134 53.7042C37.6473 55.9494 39.0476 56.7238 39.9238 57.4435C41.9656 58.9142 44.1403 60.2598 46.542 61.0421C47.8562 61.4254 49.2252 61.5818 50.5786 61.7461C50.5864 61.7461 50.5942 61.7461 50.602 61.7539C52.0806 62.0199 53.5826 62.0277 55.0689 61.8635C56.2345 61.7696 57.361 61.4254 58.4875 61.1203C60.8266 60.5492 63.1578 59.8295 65.2934 58.703C66.1618 58.1711 66.459 57.9598 66.8658 57.6547C69.4865 56.0198 72.1932 53.7511 73.5779 52.1709C73.9377 51.4277 74.2898 50.6767 74.6105 49.9179C75.0173 48.7836 75.4319 47.6493 75.8309 46.515C75.5258 46.4054 75.1581 46.4054 74.853 46.5932Z" fill="black"/>
</g>
<g opacity="0.1294">
<path d="M79.6874 56.2624C78.561 55.9417 77.8021 56.724 77.2467 57.5845C77.2232 57.6158 77.1998 57.6393 77.1685 57.6784C76.1828 58.8283 75.909 58.7266 74.2818 60.1973C74.274 60.2052 74.2662 60.2052 74.2584 60.213C73.9376 60.4399 73.5543 60.5963 73.3509 60.9483C71.9819 62.6303 74.0706 64.9771 75.9246 63.8819C77.2154 63.17 78.3263 62.1609 79.2181 60.9875C79.7891 60.3616 80.3446 59.7123 80.7827 58.9848C81.4163 57.9678 80.8296 56.5675 79.6874 56.2624Z" fill="black"/>
</g>
<path d="M45.8615 51.2321C45.486 51.2321 45.1809 50.927 45.1809 50.5515V35.6098C45.1809 35.2343 45.486 34.9292 45.8615 34.9292C46.237 34.9292 46.5421 35.2343 46.5421 35.6098V50.5515C46.5421 50.927 46.237 51.2321 45.8615 51.2321Z" fill="black"/>
<path d="M60.8342 51.2321C60.4587 51.2321 60.1536 50.927 60.1536 50.5515V35.6098C60.1536 35.2343 60.4587 34.9292 60.8342 34.9292C61.2097 34.9292 61.5147 35.2343 61.5147 35.6098V50.5515C61.5147 50.927 61.2097 51.2321 60.8342 51.2321Z" fill="black"/>
<path d="M53.3478 51.2322C52.9723 51.2322 52.6672 50.9271 52.6672 50.5516V26.5041C52.6672 26.1286 52.9723 25.8235 53.3478 25.8235C53.7233 25.8235 54.0284 26.1286 54.0284 26.5041V50.5516C54.0284 50.9271 53.7233 51.2322 53.3478 51.2322Z" fill="black"/>
<path d="M0.684082 64.8988L12.9034 81.3738L25.1306 64.8988H18.2465L18.7002 19.2131H8.02195L7.56822 64.8988H0.684082Z" fill="white"/>
<path d="M12.9035 82.0543C12.6844 82.0543 12.4888 81.9526 12.3559 81.7805L0.136499 65.2977C-0.0199591 65.0943 -0.0434278 64.8127 0.0739155 64.5858C0.191259 64.359 0.425946 64.2103 0.684101 64.2103H6.88765L7.33356 19.1974C7.33356 18.8219 7.63865 18.5247 8.01415 18.5247H18.7002C18.8801 18.5247 19.0522 18.5951 19.1852 18.7281C19.3104 18.861 19.3808 19.0331 19.3808 19.2131L18.9349 64.2182H25.1306C25.3888 64.2182 25.6235 64.3668 25.7408 64.5937C25.8582 64.8205 25.8347 65.1021 25.6782 65.3055L13.4589 81.7805C13.3259 81.9526 13.1225 82.0543 12.9035 82.0543ZM2.03746 65.5793L12.9113 80.2316L23.7851 65.5793H18.2543C18.0744 65.5793 17.9023 65.5089 17.7693 65.3759C17.6441 65.243 17.5737 65.0709 17.5737 64.8909L18.0196 19.8937H8.69474L8.24884 64.9066C8.24884 65.2821 7.94374 65.5793 7.56824 65.5793H2.03746Z" fill="black"/>
<g opacity="0.1294">
<path d="M51.8927 70.5467C51.7128 69.8818 51.0557 69.3733 50.3673 69.3811C50.1482 69.389 49.937 69.3968 49.718 69.3811C49.5146 69.342 49.319 69.2951 49.1234 69.2481C47.5823 68.857 46.0178 68.5128 44.5314 67.9261C43.6552 67.574 42.9042 66.8622 41.9811 66.6901C40.088 66.3615 39.1806 69.0448 40.839 69.9913C42.9042 71.243 45.2276 71.9783 47.6136 72.3147C48.7167 72.4242 49.9057 72.8076 50.9775 72.4242C51.7206 72.1583 52.0883 71.2821 51.8927 70.5467Z" fill="black"/>
</g>
</svg>
