<svg width="33" height="32" viewBox="0 0 33 32" fill="none" xmlns="http://www.w3.org/2000/svg">
<path d="M32.0107 15.0585C32.0107 15.848 32.0107 16.6428 32.0107 17.4322C31.824 17.7683 31.5466 17.891 31.1625 17.875C30.4477 17.8536 29.733 17.8696 29.0715 17.8696C28.7941 18.8938 28.5274 19.8753 28.25 20.8941C28.7461 21.1822 29.2902 21.4916 29.8236 21.8063C30.2877 22.0783 30.3677 22.3771 30.101 22.8465C29.7543 23.4546 29.4076 24.0573 29.0555 24.6601C28.6981 25.2789 28.4474 25.3429 27.818 24.9855C27.3165 24.6974 26.8151 24.4094 26.4737 24.212C25.6949 24.9908 24.9748 25.711 24.2174 26.4684C24.4467 26.8685 24.7615 27.4072 25.0708 27.946C25.3269 28.3941 25.2415 28.7088 24.8041 28.9648C24.1694 29.3382 23.5239 29.7063 22.8838 30.0743C22.3771 30.3624 22.0943 30.2877 21.8063 29.7863C21.4969 29.2582 21.1929 28.7301 20.9101 28.2394C19.886 28.5168 18.8991 28.7835 17.8856 29.0555C17.8856 29.7383 17.8696 30.4424 17.891 31.1519C17.9016 31.5359 17.7843 31.8186 17.4482 32C16.4881 32 15.5333 32 14.5731 32C14.237 31.8133 14.1144 31.5359 14.1304 31.1519C14.1517 30.4371 14.1357 29.7223 14.1357 29.0608C13.1008 28.7781 12.114 28.5114 11.1112 28.2394C10.8125 28.7515 10.5084 29.2849 10.199 29.813C9.92699 30.277 9.62827 30.3571 9.15886 30.0903C8.54542 29.7383 7.93199 29.3809 7.31855 29.0288C6.73712 28.6928 6.66244 28.4314 7.00383 27.8393C7.29722 27.3272 7.5906 26.8205 7.7933 26.4684C7.0145 25.6896 6.29438 24.9748 5.53159 24.212C5.13686 24.4414 4.5981 24.7508 4.05401 25.0602C3.60593 25.3162 3.29121 25.2309 3.03517 24.7935C2.66178 24.1534 2.29372 23.5133 1.92565 22.8731C1.63761 22.3664 1.71229 22.0837 2.2137 21.7956C2.74179 21.4862 3.26988 21.1822 3.76063 20.8995C3.48325 19.8753 3.21654 18.8885 2.94449 17.875C2.26704 17.875 1.55759 17.859 0.848141 17.8803C0.464077 17.891 0.181364 17.7736 0 17.4376C0 16.6481 0 15.8533 0 15.0638C0.048008 14.6744 0.0906818 14.285 0.144024 13.8956C0.58143 10.9085 1.77096 8.24671 3.70195 5.93699C6.16103 2.9925 9.25487 1.07218 13.0262 0.304051C13.6983 0.165361 14.3811 0.10135 15.0585 0C15.6826 0 16.3067 0 16.9362 0C17.4802 0.0746791 18.0297 0.122687 18.5738 0.218703C21.913 0.810802 24.7775 2.33106 27.1779 4.71012C29.5996 7.11585 31.1625 9.991 31.76 13.3676C31.872 13.9277 31.9307 14.4931 32.0107 15.0585ZM9.36156 28.7621C9.67628 28.2127 9.97499 27.6899 10.279 27.1725C10.5138 26.7725 10.7805 26.6711 11.1912 26.8525C12.3434 27.3539 13.5436 27.6793 14.7918 27.818C15.1705 27.8606 15.3732 28.106 15.3732 28.5007C15.3786 29.1249 15.3732 29.749 15.3732 30.3784C15.3732 30.5011 15.3732 30.6184 15.3732 30.7411C15.8106 30.7411 16.2 30.7411 16.6214 30.7411C16.6214 29.989 16.6161 29.2529 16.6214 28.5168C16.6268 28.09 16.8295 27.866 17.2562 27.818C18.4511 27.6793 19.6033 27.3806 20.7128 26.8951C21.2409 26.6658 21.4756 26.7458 21.7636 27.2472C22.057 27.7486 22.3451 28.25 22.6438 28.7675C23.0118 28.5541 23.3586 28.3514 23.7213 28.1434C23.4119 27.6046 23.1185 27.0978 22.8305 26.5964C22.5638 26.1324 22.6171 25.871 23.0438 25.5509C23.9933 24.8415 24.8255 24.0147 25.5349 23.0652C25.8656 22.6224 26.1217 22.5744 26.6018 22.8518C27.1032 23.1399 27.6099 23.4279 28.138 23.732C28.3514 23.3639 28.5541 23.0172 28.7461 22.6811C28.7248 22.6491 28.7194 22.6384 28.7088 22.6331C28.186 22.3291 27.6633 22.025 27.1459 21.721C26.7831 21.5023 26.6711 21.2302 26.8365 20.8515C27.3486 19.6779 27.6793 18.4617 27.818 17.1869C27.8553 16.8455 28.106 16.6374 28.4634 16.6321C29.0235 16.6214 29.5889 16.6321 30.149 16.6268C30.3411 16.6268 30.5384 16.6268 30.7251 16.6268C30.7251 16.1947 30.7251 15.8 30.7251 15.3946C29.3489 15.3946 27.9887 15.3946 26.6178 15.3946C26.6178 15.5706 26.6178 15.7253 26.6178 15.88C26.6284 16.8775 26.5324 17.8643 26.2284 18.8085C25.9723 19.5979 25.6309 20.3607 25.2949 21.1182C25.1455 21.4489 24.7668 21.5343 24.4681 21.3742C24.1694 21.2142 24.0573 20.8781 24.2014 20.5421C24.2387 20.4567 24.2867 20.3767 24.3294 20.2914C25.9937 16.7601 25.6843 13.4156 23.4012 10.2524C23.3212 10.1404 23.2252 10.0337 23.1238 9.91632C23.0225 10.0443 22.9532 10.135 22.8891 10.2257C21.7049 11.8366 20.5261 13.4529 19.3366 15.0585C19.1605 15.2932 19.0485 15.5119 19.1018 15.8213C19.1445 16.0507 19.0965 16.3014 19.0592 16.5361C18.7978 18.147 17.2242 19.3259 15.6399 19.1019C13.9116 18.8618 12.6848 17.3416 12.8768 15.6773C13.0795 13.949 14.6104 12.7061 16.3014 12.8768C16.4454 12.8928 16.6321 12.8501 16.7495 12.7648C18.4511 11.5326 20.1474 10.2844 21.8436 9.04151C21.913 8.98816 21.9823 8.92949 22.0623 8.86014C21.9183 8.74279 21.801 8.64144 21.6783 8.55076C19.5446 6.95583 17.1602 6.35839 14.5251 6.74246C9.24421 7.52125 5.62227 12.8341 6.83847 18.0243C8.15069 23.6359 13.869 26.7405 19.2832 24.7668C19.6833 24.6228 20.062 24.4254 20.4514 24.244C20.8408 24.0627 21.1929 24.1427 21.3636 24.4734C21.5343 24.8041 21.4116 25.1402 21.0275 25.3536C20.9528 25.3962 20.8835 25.4336 20.8088 25.4709C17.923 26.8791 14.9412 27.0765 11.97 25.8016C8.10802 24.1427 5.93165 21.1609 5.43557 16.9788C5.37156 16.4561 5.38223 15.928 5.36089 15.3946C3.99533 15.3946 2.64044 15.3946 1.26954 15.3946C1.26954 15.8106 1.26954 16.2 1.26954 16.6214C1.98966 16.6214 2.69378 16.6214 3.40323 16.6214C3.94199 16.6214 4.13936 16.7921 4.20337 17.3202C4.34739 18.4937 4.64611 19.6246 5.12085 20.7128C5.35022 21.2355 5.26488 21.4756 4.76346 21.769C4.26204 22.0623 3.76063 22.3504 3.24854 22.6491C3.46191 23.0225 3.66461 23.3639 3.87798 23.7266C4.41674 23.4119 4.92349 23.1239 5.4249 22.8305C5.88365 22.5638 6.15036 22.6171 6.47041 23.0438C7.17986 23.9933 8.00667 24.8255 8.95616 25.5349C9.3989 25.8656 9.44157 26.1217 9.16953 26.6018C8.88148 27.1032 8.59343 27.6099 8.28938 28.1327C8.64677 28.3461 8.98816 28.5434 9.36156 28.7621ZM29.0182 9.2122C28.8848 9.28688 28.7941 9.33489 28.7034 9.38823C28.1914 9.68161 27.6793 9.991 27.1619 10.2737C26.7511 10.4977 26.2977 10.2844 26.223 9.84697C26.1697 9.52692 26.3351 9.31355 26.6018 9.15886C27.1832 8.8228 27.7646 8.48675 28.3781 8.12935C27.1779 6.30505 25.6896 4.82214 23.8813 3.63794C23.812 3.74996 23.7586 3.82464 23.7106 3.90465C23.4066 4.4274 23.1132 4.95016 22.8038 5.47291C22.6598 5.71829 22.4304 5.84097 22.1424 5.7823C21.8703 5.72895 21.6783 5.55293 21.6569 5.28088C21.6409 5.11018 21.7049 4.90748 21.7903 4.75279C22.105 4.17136 22.4464 3.6006 22.7985 2.99783C20.8621 1.95766 18.8351 1.37623 16.6374 1.26954C16.6374 1.95233 16.6374 2.59777 16.6374 3.23787C16.6374 3.82464 16.4187 4.12869 16.0027 4.12335C15.5973 4.11802 15.3892 3.8193 15.3892 3.24854C15.3892 2.59243 15.3892 1.94166 15.3892 1.26954C13.1809 1.38156 11.1539 1.96833 9.23354 3.00317C9.4309 3.34456 9.6016 3.63794 9.77229 3.93666C9.94832 4.24604 10.135 4.54476 10.3004 4.85948C10.4764 5.19553 10.3751 5.55293 10.0657 5.72362C9.76696 5.88898 9.4309 5.7983 9.2282 5.48358C9.12685 5.32889 9.04151 5.15819 8.94549 4.99817C8.68411 4.55009 8.42807 4.10735 8.15602 3.63794C6.33172 4.84347 4.83814 6.32105 3.65394 8.13469C4.27805 8.49742 4.86481 8.83347 5.44624 9.17486C5.77163 9.36689 5.88365 9.62827 5.7823 9.93232C5.65427 10.3324 5.24354 10.4871 4.84347 10.263C4.23537 9.92699 3.63794 9.57493 3.0085 9.2122C2.17103 10.7591 1.63761 12.3754 1.39757 14.1037C2.7898 14.1037 4.17136 14.1037 5.54759 14.1037C6.49175 9.11085 10.6684 5.6116 15.5119 5.38223C17.907 5.27021 20.1153 5.88898 22.0783 7.27588C24.4627 8.95616 25.903 11.2552 26.4791 14.109C27.866 14.109 29.2369 14.109 30.6291 14.109C30.3891 12.3754 29.8503 10.7645 29.0182 9.2122ZM20.0193 12.0393C20.0033 12.0233 19.9873 12.0073 19.9713 11.9913C19.8966 12.0447 19.822 12.0927 19.7473 12.146C18.9418 12.7381 18.1257 13.3196 17.3309 13.9223C17.0162 14.1624 16.7175 14.2477 16.3227 14.157C15.5546 13.981 14.7385 14.4024 14.3544 15.1119C13.9597 15.8426 14.0983 16.7441 14.6904 17.3256C15.2772 17.9017 16.1627 18.035 16.8828 17.6456C17.5976 17.2615 18.019 16.4454 17.8483 15.6826C17.7576 15.2879 17.843 14.9838 18.0777 14.6744C18.7391 13.805 19.3739 12.9195 20.0193 12.0393Z" fill="#001042"/>
<path d="M14.1306 22.2545C14.1252 22.6012 13.8319 22.8839 13.4905 22.8733C13.1597 22.8626 12.8877 22.5799 12.8877 22.2438C12.8877 21.8971 13.1864 21.6144 13.5278 21.625C13.8585 21.6357 14.1306 21.9184 14.1306 22.2545Z" fill="#001042"/>
<path d="M16.6325 22.2491C16.6325 22.5958 16.3338 22.8786 15.9924 22.8679C15.6617 22.8572 15.3896 22.5745 15.3896 22.2384C15.3896 21.8917 15.6884 21.609 16.0298 21.6197C16.3605 21.6357 16.6325 21.9184 16.6325 22.2491Z" fill="#001042"/>
<path d="M19.1282 22.2384C19.1335 22.5852 18.8454 22.8732 18.4987 22.8732C18.168 22.8732 17.8853 22.5958 17.88 22.2598C17.8746 21.913 18.1627 21.625 18.5094 21.625C18.8454 21.625 19.1228 21.9024 19.1282 22.2384Z" fill="#001042"/>
<path d="M23.0439 23.6837C22.6972 23.6677 22.4252 23.3637 22.4465 23.0223C22.4678 22.6916 22.7612 22.4249 23.0919 22.4409C23.4387 22.4569 23.7107 22.7609 23.6894 23.1023C23.668 23.433 23.3746 23.6944 23.0439 23.6837Z" fill="#001042"/>
<path d="M16.014 16.6213C15.6673 16.6213 15.3793 16.3332 15.3899 15.9865C15.3953 15.6558 15.678 15.3784 16.0087 15.3784C16.3554 15.3784 16.6435 15.6665 16.6328 16.0132C16.6221 16.3386 16.3448 16.616 16.014 16.6213Z" fill="#001042"/>
</svg>
