<svg width="93" height="100" viewBox="0 0 93 100" fill="none" xmlns="http://www.w3.org/2000/svg">
<path d="M15.8571 74.8553C15.7399 74.8553 15.6228 74.814 15.5263 74.7382C10.2066 70.4107 7.04366 63.7335 7.07122 56.8771C7.07122 56.5877 7.30551 56.3534 7.59493 56.3534C7.88434 56.3534 8.11863 56.5877 8.11863 56.8771C8.09107 63.4234 11.1093 69.7905 16.1878 73.9182C16.4152 74.1042 16.4497 74.4281 16.2636 74.6555C16.1603 74.7864 16.0087 74.8553 15.8571 74.8553Z" fill="black"/>
<path d="M15.8709 75.1448C15.8365 75.1448 15.7951 75.1379 15.7607 75.131C13.8037 74.7107 11.8673 74.1318 10.0068 73.4014C9.73808 73.298 9.60026 72.9879 9.71051 72.7192C9.81388 72.4505 10.1171 72.3195 10.3927 72.4229C11.9845 73.0431 13.6314 73.5599 15.299 73.9458C15.1612 72.3953 14.8304 70.8656 14.3205 69.3909C14.224 69.1153 14.3687 68.819 14.6444 68.7225C14.92 68.6329 15.2163 68.7707 15.3128 69.0464C15.9261 70.8311 16.2913 72.6916 16.3946 74.5797C16.4015 74.7451 16.3326 74.9036 16.2086 75.007C16.1121 75.1034 15.995 75.1448 15.8709 75.1448Z" fill="black"/>
<path d="M69.0682 85.4189C68.8684 85.4189 68.6754 85.3018 68.5858 85.1088C68.4687 84.847 68.5858 84.5369 68.8546 84.4129C75.1184 81.6152 79.942 75.7235 81.4373 69.0256C81.4993 68.7431 81.7818 68.5639 82.0643 68.6259C82.3469 68.6879 82.526 68.9705 82.464 69.253C80.8998 76.2679 75.8488 82.4421 69.2887 85.3707C69.2129 85.3982 69.144 85.4189 69.0682 85.4189Z" fill="black"/>
<path d="M82.8911 74.1386C82.6017 74.1386 82.3674 73.9043 82.3674 73.6149C82.3674 72.347 82.1951 71.0929 81.8437 69.8801C80.8445 70.7208 79.7626 71.4719 78.6394 72.1334C78.3913 72.2781 78.0675 72.1954 77.9228 71.9473C77.7781 71.6993 77.8607 71.3754 78.1088 71.2307C79.4043 70.4727 80.6309 69.5838 81.7472 68.5777C81.8781 68.4606 82.0573 68.4192 82.2295 68.4606C82.4018 68.5019 82.5327 68.6259 82.5948 68.7913C83.146 70.3487 83.4217 71.968 83.4217 73.6218C83.4148 73.9043 83.1805 74.1386 82.8911 74.1386Z" fill="black"/>
<path d="M45.5013 11.2597C45.3359 11.2597 45.1705 11.177 45.0672 11.0254C44.9018 10.7842 44.9707 10.4603 45.205 10.295C50.6074 6.64969 57.8841 6.13288 63.7483 8.98569C64.0101 9.10972 64.1204 9.4267 63.9894 9.68856C63.8654 9.95041 63.5484 10.0607 63.2866 9.92974C57.7532 7.2423 50.8899 7.72466 45.7907 11.1701C45.708 11.2321 45.6047 11.2597 45.5013 11.2597Z" fill="black"/>
<path d="M49.9941 11.556C49.9804 11.556 49.9597 11.556 49.9459 11.556C48.3886 11.4113 46.8106 11.363 45.2463 11.4044C45.0465 11.4182 44.8604 11.301 44.764 11.1219C44.6744 10.9427 44.6882 10.7291 44.8122 10.5637L47.6512 6.76684C47.8235 6.53255 48.1543 6.48431 48.3886 6.66347C48.6229 6.83575 48.6711 7.16651 48.4919 7.40079L46.2937 10.3363C46.3213 10.3363 46.3489 10.3363 46.3695 10.3363C47.5961 10.3363 48.8227 10.3914 50.0424 10.5086C50.3318 10.5361 50.5454 10.7911 50.5178 11.0805C50.4903 11.3493 50.2629 11.556 49.9941 11.556Z" fill="black"/>
<path d="M67.3317 4.67889C67.2352 4.67889 67.1457 4.65132 67.0561 4.60309C63.3419 2.30843 58.8904 1.04741 54.5216 1.04741C54.5147 1.04741 54.5147 1.04741 54.5078 1.04741C54.2184 1.04741 53.9841 0.81312 53.9841 0.523705C53.9841 0.227398 54.2184 0 54.5285 0C59.1523 0 63.6727 1.2817 67.6142 3.70728C67.8623 3.85888 67.9381 4.18274 67.7865 4.43082C67.6763 4.58931 67.504 4.67889 67.3317 4.67889Z" fill="black"/>
<path d="M72.5133 92.9231C72.3273 92.9231 72.1481 92.8266 72.0517 92.6474C71.9138 92.3925 72.0103 92.0755 72.2653 91.9377C76.0621 89.8842 79.3422 86.6937 81.4921 82.952C81.6368 82.697 81.9607 82.6144 82.2088 82.7591C82.4568 82.9038 82.5464 83.2276 82.4017 83.4757C80.1208 87.4448 76.7857 90.6904 72.7614 92.8679C72.6856 92.9024 72.596 92.9231 72.5133 92.9231Z" fill="black"/>
<path d="M4.72134 69.1359C4.56285 69.1359 4.41125 69.067 4.30789 68.9292C1.48264 65.2701 -0.0471291 60.7084 0.00110686 56.0915C0.00110686 55.8021 0.235396 55.5747 0.524811 55.5747C0.524811 55.5747 0.524811 55.5747 0.531702 55.5747C0.821118 55.5747 1.05541 55.8159 1.04852 56.1053C1.00717 60.4879 2.46114 64.8153 5.13479 68.2883C5.31395 68.5157 5.27261 68.8465 5.03832 69.0256C4.94874 69.1014 4.83159 69.1359 4.72134 69.1359Z" fill="black"/>
<path d="M5.58276 11.6249C6.32698 22.9603 6.50614 34.3371 6.18916 45.7415C9.42786 44.8319 12.8182 44.4942 16.174 44.7561C16.615 44.7905 17.0905 44.8525 17.4144 45.1557C17.7865 45.5141 17.8209 46.1205 17.6486 46.6097C17.4764 47.099 17.1456 47.5124 16.8562 47.9465C16.429 48.5874 16.0706 49.304 16.0293 50.0758C15.9328 51.7503 17.3661 53.1974 18.9648 53.7004C20.5635 54.2034 22.2862 53.976 24.0778 53.4385C25.4008 52.9562 26.1933 51.3437 25.7592 50C25.5662 49.4005 25.1734 48.8837 24.946 48.2911C24.5671 47.3126 24.7324 46.0791 25.5387 45.4107C26.2829 44.7905 27.3372 44.7699 28.3088 44.7836C31.5475 44.825 34.7862 44.8732 37.9215 44.8663C37.763 40.3873 37.8388 35.9082 38.1351 31.2707C37.4323 31.884 36.4744 32.1665 35.5442 32.132C34.6139 32.0976 33.7043 31.7668 32.9119 31.2845C32.3675 30.9537 31.8507 30.5334 31.5544 29.9683C31.1892 29.2861 31.1892 28.4661 31.2787 27.7012C31.3959 26.7296 31.6922 25.7098 32.4364 25.0689C32.7878 24.7657 33.2082 24.5659 33.6354 24.3867C34.4141 24.056 35.2341 23.7666 36.0817 23.7872C36.9292 23.801 37.8113 24.1731 38.3212 25.0069C38.142 21.8371 37.956 18.6535 38.3143 15.4975C38.4521 14.2985 38.6657 13.0995 38.3005 12.0039C37.4874 11.7213 36.6054 11.7627 35.744 11.7971C26.8341 12.1968 17.9036 12.4242 9.00752 11.8729C7.80162 11.7971 6.62328 11.7145 5.58276 11.6249Z" fill="white"/>
<g opacity="0.1294">
<path d="M38.4178 12.7342C38.4109 12.3552 38.528 11.9005 38.2179 11.611C38.1215 11.5077 37.9974 11.4457 37.8734 11.4181C37.5909 13.0443 37.3084 14.6775 37.0052 16.2968C36.5504 18.7775 36.068 21.2513 35.5925 23.7251C35.7717 23.9732 36.0956 24.1248 36.4125 24.0766C36.6882 24.745 37.7011 24.8966 38.1008 24.2006C38.1766 24.0421 38.2248 23.8767 38.2248 23.7045C38.2248 23.7114 38.2248 23.7114 38.2248 23.7183C38.2248 23.7114 38.2248 23.7045 38.2248 23.6976C38.2248 23.6769 38.2248 23.6631 38.2248 23.6425C38.2248 23.6218 38.2248 23.6011 38.2248 23.5804C38.2248 23.5184 38.2317 23.4564 38.2386 23.3944C38.2593 23.1808 38.2937 22.8293 38.2593 22.7053C38.0939 20.2039 38.0595 17.0066 38.2593 15.1529C38.3695 14.3467 38.3833 13.5405 38.4178 12.7342Z" fill="black"/>
</g>
<g opacity="0.1294">
<path d="M37.6047 43.6259C37.6047 43.5984 37.5978 43.5777 37.5978 43.5501C37.46 41.8825 37.4944 40.2081 37.5495 38.5336C37.5151 36.549 37.7425 34.5713 37.8734 32.5937C37.8527 31.6083 36.7915 31.3464 36.2058 31.7943C35.7855 31.6221 35.2273 31.9253 35.2411 32.4283C35.3996 34.7436 35.5236 37.0589 35.5098 39.3812C35.4685 40.463 35.5098 41.5449 35.5374 42.6199C34.9724 42.9162 35.1584 42.8404 34.6829 43.0195C31.4925 43.7362 30.0041 43.5846 25.9867 44.4666C25.1736 44.7009 25.5043 45.9206 26.3312 45.7138C28.5363 45.2659 30.8585 45.2659 33.3668 44.9352C34.111 44.8594 34.869 44.7767 35.5719 44.4873C35.5856 44.5424 35.5925 44.5975 35.6132 44.6527C35.7304 44.9834 36.0749 45.1281 36.3988 45.0868C36.826 45.2246 37.3497 45.0868 37.5771 44.6595C37.7218 44.4253 37.7356 44.1496 37.6736 43.8878C37.6322 43.7706 37.6116 43.6673 37.6047 43.6259Z" fill="black"/>
</g>
<g opacity="0.1294">
<path d="M25.8625 48.925C25.7867 48.6011 25.7936 48.2152 25.5938 47.9396C25.3388 47.5537 24.6979 47.6088 24.4774 48.0085C24.3672 48.2083 24.3672 48.4219 24.4292 48.6355C24.5326 49.2006 24.4981 48.9525 24.5395 49.3935C24.567 49.4969 24.5395 49.8414 24.5326 49.9793C24.3327 51.0818 23.5541 51.4194 21.8865 51.7709C20.8873 51.9914 19.5849 51.8742 17.7244 51.1576C16.298 50.7993 15.7192 52.8803 17.1318 53.3144C18.6616 53.845 20.3085 54.3687 21.9416 54.1069C23.0373 53.9208 24.0847 53.3489 24.8978 52.5909C25.8143 51.64 26.0761 50.2067 25.8625 48.925Z" fill="black"/>
</g>
<path d="M21.6247 54.6582C21.418 54.6582 21.2044 54.6513 20.9907 54.6375C19.0613 54.5204 17.504 53.914 16.4841 52.8873C16.0845 52.4807 15.5883 51.8261 15.5056 50.9854C15.4229 50.124 15.8019 49.3385 16.112 48.7114L17.063 46.7613C17.2352 46.403 17.3799 46.086 17.3386 45.8241C17.3248 45.7414 17.2628 45.6519 17.1801 45.5899C17.1181 45.5485 17.0216 45.5003 16.9045 45.5209C16.8562 45.5278 16.8011 45.5278 16.7529 45.5278C13.3074 45.1488 9.7311 45.3693 6.12029 46.1825C5.96181 46.2169 5.79642 46.1825 5.67239 46.0791C5.54835 45.9757 5.47945 45.8241 5.47945 45.6588C5.71373 34.8126 5.52768 23.7321 4.9144 11.7696C4.90751 11.6249 4.96263 11.4801 5.0591 11.3768C5.16247 11.2734 5.29339 11.2114 5.44499 11.2183C16.4152 11.4388 27.5371 11.4595 38.5004 11.2941C38.7347 11.2872 38.9414 11.4388 39.0103 11.6662C39.1068 11.9694 39.1068 12.2244 39.0241 12.4242C38.7691 16.2004 38.6933 20.2177 38.7898 25.0551C38.7967 25.2618 38.6727 25.4548 38.4866 25.5444C38.3006 25.634 38.0732 25.5995 37.9216 25.4617C36.95 24.6141 35.5235 24.3178 34.2901 24.7037C33.0566 25.0896 32.0643 26.1508 31.7543 27.4049C31.4924 28.473 31.7611 29.5962 32.4433 30.2715C32.8223 30.6505 33.3667 30.9468 34.1523 31.1949C34.862 31.4223 36.6399 31.8426 37.8458 30.9123C38.0111 30.7883 38.2317 30.7676 38.4177 30.8641C38.6038 30.9606 38.7071 31.1604 38.6933 31.3602C38.3901 35.6877 38.3143 40.1185 38.4659 44.9145C38.4728 45.0593 38.4108 45.204 38.3074 45.3073C38.2041 45.4107 38.0663 45.4658 37.9147 45.4589C34.5175 45.2798 31.0721 45.2729 27.6749 45.4245C26.7791 45.4658 25.9039 45.583 25.518 46.1618C25.1184 46.7613 25.4216 47.6847 25.6421 48.1739C25.7179 48.3462 25.8006 48.5185 25.8832 48.6838C26.2071 49.3454 26.5379 50.0345 26.5654 50.8269C26.6068 52.081 25.8212 53.3283 24.5602 54.0036C23.7471 54.4446 22.7824 54.6582 21.6247 54.6582ZM16.9665 44.4666C17.2559 44.4666 17.5453 44.5562 17.7865 44.7354C18.1035 44.9628 18.3171 45.3004 18.3722 45.6588C18.4618 46.2652 18.2 46.8164 18.007 47.2161L17.0561 49.1662C16.7391 49.8139 16.5048 50.3583 16.553 50.882C16.6013 51.4126 16.9458 51.8605 17.2283 52.143C18.2826 53.2042 19.8882 53.5143 21.0528 53.5832C22.3 53.659 23.2854 53.4937 24.0503 53.0802C24.9461 52.5978 25.5249 51.7089 25.5043 50.8613C25.4836 50.2894 25.2148 49.7312 24.9323 49.1386C24.8427 48.9595 24.76 48.7803 24.6774 48.5943C24.1399 47.3815 24.1261 46.341 24.636 45.5692C25.2837 44.6045 26.5034 44.4184 27.6197 44.3702C30.8653 44.2255 34.1454 44.2255 37.391 44.3771C37.2738 40.1185 37.3289 36.1287 37.577 32.2492C36.2195 32.7798 34.7104 32.4628 33.8353 32.1871C33.2358 31.9942 32.3675 31.6703 31.706 31.0088C30.7689 30.0785 30.3899 28.5626 30.7413 27.143C31.1341 25.5444 32.4089 24.1869 33.98 23.6907C35.2066 23.3048 36.5916 23.4496 37.7286 24.0491C37.6597 19.6251 37.7424 15.8765 37.9836 12.3415C27.3717 12.5 16.6151 12.4724 5.98937 12.2726C6.5682 23.7941 6.74736 34.5231 6.54064 45.011C10.0205 44.2944 13.4659 44.1083 16.8011 44.4666C16.8562 44.4666 16.9114 44.4666 16.9665 44.4666Z" fill="black"/>
<g opacity="0.1294">
<path d="M38.4178 12.7342C38.4109 12.3552 38.528 11.9005 38.2179 11.611C38.1215 11.5077 37.9974 11.4457 37.8734 11.4181C37.5909 13.0443 37.3084 14.6775 37.0052 16.2968C36.5504 18.7775 36.068 21.2513 35.5925 23.7251C35.7717 23.9732 36.0956 24.1248 36.4125 24.0766C36.6882 24.745 37.7011 24.8966 38.1008 24.2006C38.1766 24.0421 38.2248 23.8767 38.2248 23.7045C38.2248 23.7114 38.2248 23.7114 38.2248 23.7183C38.2248 23.7114 38.2248 23.7045 38.2248 23.6976C38.2248 23.6769 38.2248 23.6631 38.2248 23.6425C38.2248 23.6218 38.2248 23.6011 38.2248 23.5804C38.2248 23.5184 38.2317 23.4564 38.2386 23.3944C38.2593 23.1808 38.2937 22.8293 38.2593 22.7053C38.0939 20.2039 38.0595 17.0066 38.2593 15.1529C38.3695 14.3467 38.3833 13.5405 38.4178 12.7342Z" fill="black"/>
</g>
<g opacity="0.1294">
<path d="M37.6047 43.6259C37.6047 43.5984 37.5978 43.5777 37.5978 43.5501C37.46 41.8825 37.4944 40.2081 37.5495 38.5336C37.5151 36.549 37.7425 34.5713 37.8734 32.5937C37.8527 31.6083 36.7915 31.3464 36.2058 31.7943C35.7855 31.6221 35.2273 31.9253 35.2411 32.4283C35.3996 34.7436 35.5236 37.0589 35.5098 39.3812C35.4685 40.463 35.5098 41.5449 35.5374 42.6199C34.9724 42.9162 35.1584 42.8404 34.6829 43.0195C31.4925 43.7362 30.0041 43.5846 25.9867 44.4666C25.1736 44.7009 25.5043 45.9206 26.3312 45.7138C28.5363 45.2659 30.8585 45.2659 33.3668 44.9352C34.111 44.8594 34.869 44.7767 35.5719 44.4873C35.5856 44.5424 35.5925 44.5975 35.6132 44.6527C35.7304 44.9834 36.0749 45.1281 36.3988 45.0868C36.826 45.2246 37.3497 45.0868 37.5771 44.6595C37.7218 44.4253 37.7356 44.1496 37.6736 43.8878C37.6322 43.7706 37.6116 43.6673 37.6047 43.6259Z" fill="black"/>
</g>
<g opacity="0.1294">
<path d="M25.8625 48.925C25.7867 48.6011 25.7936 48.2152 25.5938 47.9396C25.3388 47.5537 24.6979 47.6088 24.4774 48.0085C24.3672 48.2083 24.3672 48.4219 24.4292 48.6355C24.5326 49.2006 24.4981 48.9525 24.5395 49.3935C24.567 49.4969 24.5395 49.8414 24.5326 49.9793C24.3327 51.0818 23.5541 51.4194 21.8865 51.7709C20.8873 51.9914 19.5849 51.8742 17.7244 51.1576C16.298 50.7993 15.7192 52.8803 17.1318 53.3144C18.6616 53.845 20.3085 54.3687 21.9416 54.1069C23.0373 53.9208 24.0847 53.3489 24.8978 52.5909C25.8143 51.64 26.0761 50.2067 25.8625 48.925Z" fill="black"/>
</g>
<path d="M21.6247 54.6582C21.418 54.6582 21.2044 54.6513 20.9907 54.6375C19.0613 54.5204 17.504 53.914 16.4841 52.8873C16.0845 52.4807 15.5883 51.8261 15.5056 50.9854C15.4229 50.124 15.8019 49.3385 16.112 48.7114L17.063 46.7613C17.2352 46.403 17.3799 46.086 17.3386 45.8241C17.3248 45.7414 17.2628 45.6519 17.1801 45.5899C17.1181 45.5485 17.0216 45.5003 16.9045 45.5209C16.8562 45.5278 16.8011 45.5278 16.7529 45.5278C13.3074 45.1488 9.7311 45.3693 6.12029 46.1825C5.96181 46.2169 5.79642 46.1825 5.67239 46.0791C5.54835 45.9757 5.47945 45.8241 5.47945 45.6588C5.71373 34.8126 5.52768 23.7321 4.9144 11.7696C4.90751 11.6249 4.96263 11.4801 5.0591 11.3768C5.16247 11.2734 5.29339 11.2114 5.44499 11.2183C16.4152 11.4388 27.5371 11.4595 38.5004 11.2941C38.7347 11.2872 38.9414 11.4388 39.0103 11.6662C39.1068 11.9694 39.1068 12.2244 39.0241 12.4242C38.7691 16.2004 38.6933 20.2177 38.7898 25.0551C38.7967 25.2618 38.6727 25.4548 38.4866 25.5444C38.3006 25.634 38.0732 25.5995 37.9216 25.4617C36.95 24.6141 35.5235 24.3178 34.2901 24.7037C33.0566 25.0896 32.0643 26.1508 31.7543 27.4049C31.4924 28.473 31.7611 29.5962 32.4433 30.2715C32.8223 30.6505 33.3667 30.9468 34.1523 31.1949C34.862 31.4223 36.6399 31.8426 37.8458 30.9123C38.0111 30.7883 38.2317 30.7676 38.4177 30.8641C38.6038 30.9606 38.7071 31.1604 38.6933 31.3602C38.3901 35.6877 38.3143 40.1185 38.4659 44.9145C38.4728 45.0593 38.4108 45.204 38.3074 45.3073C38.2041 45.4107 38.0663 45.4658 37.9147 45.4589C34.5175 45.2798 31.0721 45.2729 27.6749 45.4245C26.7791 45.4658 25.9039 45.583 25.518 46.1618C25.1184 46.7613 25.4216 47.6847 25.6421 48.1739C25.7179 48.3462 25.8006 48.5185 25.8832 48.6838C26.2071 49.3454 26.5379 50.0345 26.5654 50.8269C26.6068 52.081 25.8212 53.3283 24.5602 54.0036C23.7471 54.4446 22.7824 54.6582 21.6247 54.6582ZM16.9665 44.4666C17.2559 44.4666 17.5453 44.5562 17.7865 44.7354C18.1035 44.9628 18.3171 45.3004 18.3722 45.6588C18.4618 46.2652 18.2 46.8164 18.007 47.2161L17.0561 49.1662C16.7391 49.8139 16.5048 50.3583 16.553 50.882C16.6013 51.4126 16.9458 51.8605 17.2283 52.143C18.2826 53.2042 19.8882 53.5143 21.0528 53.5832C22.3 53.659 23.2854 53.4937 24.0503 53.0802C24.9461 52.5978 25.5249 51.7089 25.5043 50.8613C25.4836 50.2894 25.2148 49.7312 24.9323 49.1386C24.8427 48.9595 24.76 48.7803 24.6774 48.5943C24.1399 47.3815 24.1261 46.341 24.636 45.5692C25.2837 44.6045 26.5034 44.4184 27.6197 44.3702C30.8653 44.2255 34.1454 44.2255 37.391 44.3771C37.2738 40.1185 37.3289 36.1287 37.577 32.2492C36.2195 32.7798 34.7104 32.4628 33.8353 32.1871C33.2358 31.9942 32.3675 31.6703 31.706 31.0088C30.7689 30.0785 30.3899 28.5626 30.7413 27.143C31.1341 25.5444 32.4089 24.1869 33.98 23.6907C35.2066 23.3048 36.5916 23.4496 37.7286 24.0491C37.6597 19.6251 37.7424 15.8765 37.9836 12.3415C27.3717 12.5 16.6151 12.4724 5.98937 12.2726C6.5682 23.7941 6.74736 34.5231 6.54064 45.011C10.0205 44.2944 13.4659 44.1083 16.8011 44.4666C16.8562 44.4666 16.9114 44.4666 16.9665 44.4666Z" fill="black"/>
<path d="M54.4663 46.6787C53.4534 42.7991 50.9175 39.4777 49.7461 35.5155C52.8401 33.8961 56.0099 32.4215 59.2417 31.1053C59.9101 30.8297 60.5785 30.5678 61.2469 30.2991C61.7224 30.1131 62.2461 29.8788 62.4666 29.4171C62.6527 29.0174 62.5631 28.5282 62.3357 28.1423C62.1083 27.7633 61.7637 27.467 61.371 27.1155C60.0479 26.0474 59.6276 24.0767 60.1857 22.4711C60.7439 20.8655 62.1565 19.6321 63.7621 19.067C64.8026 18.7018 66.0636 18.6191 66.9043 19.3289C67.1179 19.508 67.2971 19.7285 67.4487 19.9628C68.1309 20.9965 68.4134 22.285 68.2136 23.5116C68.1102 24.1318 67.8897 24.7451 67.8966 25.379C67.9035 26.013 68.2205 26.7021 68.9027 27.0053C72.6168 25.2619 76.4412 23.7597 80.5 22.6296C81.5956 24.2903 82.2158 26.2128 82.8911 28.0871C84.7861 33.3311 87.191 38.3683 89.5959 43.3986C90.3332 44.9422 91.0705 46.4857 91.6907 48.0982C91.732 48.4565 91.4151 48.7528 91.1256 48.9664C87.8663 51.3713 83.9247 52.6186 80.3759 54.5618C80.0658 54.7341 79.7488 54.9132 79.5352 55.1957C79.3147 55.4714 79.2183 55.8779 79.5008 56.1329C79.4112 56.6635 79.7764 57.1734 80.2036 57.4973C80.6309 57.828 81.1339 58.0554 81.5198 58.4276C82.1675 59.0615 82.388 60.0676 82.1675 60.9427C81.947 61.8247 81.3269 62.5758 80.5689 63.0651C79.804 63.5543 78.9082 63.8093 78.0055 63.9058C77.3026 63.9816 76.5239 63.954 75.9864 63.4923C75.3525 62.9479 75.2767 62.0108 75.2422 61.177C75.2078 60.3432 75.1251 59.4061 74.4842 58.8686C73.9468 58.4207 73.0785 58.4207 72.5961 58.8961C68.8269 60.0745 65.1127 61.432 61.4743 62.9342C61.0471 62.5276 60.861 61.9281 60.675 61.3699C59.6276 58.1657 58.1185 55.1406 56.506 52.1844C57.6223 52.4394 58.8351 52.3085 59.8412 51.7503C60.8404 51.1922 61.6121 50.2068 61.8326 49.0836C61.8671 48.8975 61.8947 48.6977 61.8671 48.5116C61.8326 48.2773 61.7224 48.0637 61.6121 47.857C61.2262 47.1679 60.7301 46.5271 60.103 46.0447C59.476 45.5623 58.7111 45.2385 57.9186 45.2109C57.4225 45.1902 56.9264 45.2867 56.4578 45.4383C55.6998 45.6726 55.0038 46.0516 54.4663 46.6787Z" fill="white"/>
<path d="M53.8806 44.005C53.8737 44.005 53.8668 44.005 53.8599 44.005C53.7634 43.9912 53.6945 43.9017 53.7083 43.8121C54.1217 40.601 54.4525 37.3347 54.7006 34.1098C54.7075 34.0133 54.7833 33.9444 54.8866 33.9513C54.9831 33.9582 55.052 34.0409 55.0451 34.1373C54.797 37.3691 54.4663 40.6423 54.0528 43.8603C54.046 43.943 53.9702 44.005 53.8806 44.005Z" fill="black"/>
<path d="M57.8705 44.136H57.8636C57.7671 44.1291 57.6913 44.0464 57.6982 43.9499L58.2701 33.0486C58.277 32.9521 58.3597 32.8694 58.4562 32.8832C58.5527 32.8901 58.6285 32.9728 58.6216 33.0693L58.0496 43.9706C58.0427 44.0671 57.96 44.136 57.8705 44.136Z" fill="black"/>
<path d="M61.1161 44.8801C61.1092 44.8801 61.1092 44.8801 61.1023 44.8801C61.0058 44.8732 60.9369 44.7906 60.9438 44.6941L62.0464 31.4499C62.0533 31.3534 62.1428 31.2914 62.2324 31.2914C62.3289 31.2983 62.3978 31.381 62.3909 31.4774L61.2884 44.7216C61.2884 44.8112 61.2057 44.8801 61.1161 44.8801Z" fill="black"/>
<path d="M62.5702 25.9923H62.5633C62.4668 25.9854 62.391 25.9028 62.3979 25.8063L62.6184 21.5133C62.6253 21.4168 62.7011 21.3479 62.7907 21.3479H62.7976C62.894 21.3548 62.9698 21.4375 62.9629 21.534L62.7424 25.827C62.7424 25.9234 62.6597 25.9923 62.5702 25.9923Z" fill="black"/>
<path d="M64.389 60.0056H64.3821C64.2857 59.9987 64.2099 59.916 64.2167 59.8195L66.3253 22.0094C66.3322 21.913 66.408 21.8372 66.5114 21.8441C66.6079 21.851 66.6837 21.9336 66.6768 22.0301L64.5682 59.8402C64.5613 59.9298 64.4855 60.0056 64.389 60.0056Z" fill="black"/>
<path d="M67.8622 58.5792C67.7588 58.5792 67.683 58.4965 67.6899 58.4C67.9517 48.5392 68.3721 38.5544 68.9578 28.7211C68.9647 28.6246 69.0405 28.5488 69.1439 28.5557C69.2403 28.5626 69.3161 28.6453 69.3092 28.7418C68.7304 38.575 68.3032 48.553 68.0413 58.4138C68.0344 58.5034 67.9586 58.5792 67.8622 58.5792Z" fill="black"/>
<path d="M71.0389 57.1252C70.9356 57.1183 70.8598 57.0425 70.8666 56.9461C71.2319 47.037 71.5351 37.0039 71.7625 27.1225C71.7625 27.026 71.8383 26.9571 71.9416 26.9502C72.0381 26.9502 72.1139 27.0329 72.1139 27.1294C71.8865 37.0108 71.5902 47.0508 71.2181 56.9598C71.2112 57.0563 71.1354 57.1252 71.0389 57.1252Z" fill="black"/>
<path d="M74.2567 55.8917C74.2498 55.8917 74.2498 55.8917 74.2567 55.8917C74.1533 55.8917 74.0775 55.809 74.0844 55.7125L74.9664 25.9992C74.9664 25.9027 75.0422 25.8338 75.1456 25.8269C75.2421 25.8269 75.3179 25.9096 75.3179 26.0061L74.4358 55.7194C74.429 55.8159 74.3463 55.8917 74.2567 55.8917Z" fill="black"/>
<path d="M77.1028 63.2443C77.0132 63.2443 76.9305 63.1754 76.9305 63.0789C76.4895 55.1682 76.9925 47.1266 77.4749 39.3468C77.7643 34.6541 78.0675 29.803 78.1571 25.0276C78.1571 24.9311 78.2398 24.8553 78.3293 24.8553C78.3293 24.8553 78.3293 24.8553 78.3362 24.8553C78.4327 24.8553 78.5085 24.938 78.5085 25.0345C78.4189 29.8168 78.1157 34.6679 77.8194 39.3675C77.3371 47.1335 76.8409 55.1682 77.275 63.0582C77.2819 63.1547 77.2061 63.2374 77.1097 63.2443H77.1028Z" fill="black"/>
<path d="M80.1761 52.3085C80.0728 52.3085 79.997 52.2258 80.0039 52.1293C80.1899 44.7975 80.7894 37.3967 81.7886 30.1269C81.8024 30.0304 81.8919 29.9684 81.9884 29.9753C82.0849 29.989 82.1538 30.0786 82.14 30.1751C81.1408 37.4243 80.5413 44.8181 80.3553 52.1362C80.3484 52.2327 80.2657 52.3085 80.1761 52.3085Z" fill="black"/>
<path d="M83.0838 50.8269H83.0769C82.9805 50.82 82.9047 50.7373 82.9116 50.6408C83.1459 45.9344 83.5662 41.1728 84.1657 36.4939C84.1795 36.3975 84.2691 36.3286 84.3586 36.3423C84.4551 36.3561 84.524 36.4457 84.5102 36.5353C83.9107 41.2073 83.4904 45.9551 83.263 50.6546C83.2561 50.758 83.1803 50.8269 83.0838 50.8269Z" fill="black"/>
<path d="M86.371 49.7244C86.3641 49.7244 86.3641 49.7244 86.3572 49.7244C86.2607 49.7175 86.1918 49.6348 86.1987 49.5383C86.371 47.2299 86.6191 44.8939 86.936 42.5993C86.9498 42.5028 87.0394 42.4408 87.1359 42.4477C87.2323 42.4614 87.3013 42.551 87.2875 42.6475C86.9705 44.9353 86.7224 47.2644 86.5502 49.5659C86.5364 49.6555 86.4606 49.7244 86.371 49.7244Z" fill="black"/>
<g opacity="0.1294">
<path d="M74.2222 56.126C74.2291 56.126 74.2291 56.126 74.236 56.126C74.2773 56.1329 74.3186 56.1329 74.36 56.1398C74.3118 56.1398 74.2497 56.126 74.2222 56.126Z" fill="black"/>
</g>
<g opacity="0.1294">
<path d="M75.7589 57.6626C75.7452 57.3939 75.6625 57.1183 75.5109 56.8909C75.442 56.8082 75.442 56.8013 75.504 56.884C75.6556 57.07 75.1732 56.4705 75.311 56.6635C75.3731 56.7462 75.3662 56.7393 75.3041 56.6497C75.0905 56.3672 74.7529 56.2018 74.4083 56.1467C74.4014 56.1467 74.4014 56.1467 74.3877 56.1398C74.3808 56.1398 74.367 56.1398 74.3601 56.1329C74.3739 56.1329 74.3808 56.1398 74.3946 56.1398C74.3394 56.1329 74.2912 56.1191 74.2361 56.1191C73.8433 56.0709 73.4505 56.1398 73.0646 56.2225C72.1068 56.4016 71.1972 56.7393 70.3152 57.1527C69.571 57.4353 68.179 58.1174 66.16 58.8134C64.8507 59.1993 63.5759 59.6886 62.308 60.1778C61.805 60.3983 61.1503 60.4534 60.854 60.9703C60.3579 61.7627 61.1779 62.8377 62.0737 62.562C64.6509 61.6662 67.2763 60.9014 69.7639 59.7644C70.2876 59.6128 72.7339 58.3655 73.6159 57.959C73.6228 57.959 73.6228 57.959 73.6297 57.9521C73.8708 57.8556 74.1396 57.8349 74.367 57.7109C74.3946 57.6971 74.429 57.6833 74.4566 57.6695C74.622 57.828 74.8149 57.959 75.0285 58.0485C75.0147 58.0416 75.0009 58.0348 74.9941 58.0348C75.0216 58.0485 75.0767 58.0692 75.1043 58.083C75.1388 58.1243 75.1663 58.1726 75.1939 58.2139C75.2835 58.3793 75.5178 58.4413 75.6763 58.338C76.0346 58.1037 75.7383 57.7316 75.7589 57.6626Z" fill="black"/>
</g>
<g opacity="0.1294">
<path d="M91.2909 47.0715C91.1738 46.7545 91.0773 46.4237 90.9946 46.0999C90.8499 46.1205 90.7121 46.1757 90.6018 46.2859C90.4089 46.4582 90.4158 46.72 90.3331 46.9474C90.0574 47.478 90.1401 47.3264 89.6509 47.8157C87.9144 49.373 84.5034 50.7029 82.3466 51.6814C82.1192 51.771 81.6299 51.9777 81.4783 52.0329C80.8788 52.3499 80.0382 52.3705 79.6454 52.97C79.1768 53.7142 79.9486 54.7203 80.7893 54.4585C83.3871 53.5213 85.8609 52.2809 88.2038 50.827C89.4235 50.0483 90.7948 49.2903 91.4701 47.9535C91.4976 47.8915 91.5252 47.8226 91.5528 47.7537C91.4632 47.5263 91.3736 47.2989 91.2909 47.0715Z" fill="black"/>
</g>
<path d="M77.7919 64.7189C76.7513 64.7189 75.7177 64.3606 75.132 63.4441C74.6841 62.7343 74.6496 61.9419 74.6221 61.177C74.6083 60.8256 74.5945 60.4879 74.5394 60.1778C74.4567 59.6817 74.057 59.1442 73.6573 58.9719C73.4231 58.8686 73.2852 58.9375 73.1957 58.9995C73.1612 59.0271 73.1199 59.0477 73.0716 59.0615C70.6598 59.9091 68.1929 60.8738 65.8156 61.7972C64.3892 62.3553 62.9076 62.9273 61.4468 63.4785C61.3089 63.5268 61.1573 63.5199 61.0264 63.4579C60.8955 63.389 60.799 63.2718 60.7577 63.134C59.662 59.1924 58.0565 55.6092 55.9892 52.4807C55.8721 52.3085 55.8721 52.0811 55.9823 51.9088C56.0926 51.7365 56.2993 51.6401 56.506 51.6745C57.5603 51.8399 58.5388 51.7848 59.4829 51.516C60.2133 51.3093 60.7094 51.0199 61.0057 50.6271C61.2538 50.2963 61.3916 49.8209 61.3847 49.2972C61.371 47.8639 60.2891 46.4513 58.8558 46.0033C57.457 45.5692 55.7825 46.0171 54.7006 47.1197C54.5766 47.2437 54.4043 47.2988 54.232 47.2713C54.0598 47.2368 53.9151 47.1266 53.8462 46.9681C53.3776 45.9138 52.9297 44.8732 52.4818 43.8465C51.3172 41.166 50.2147 38.6301 48.9812 36.1288C48.8572 35.8738 48.9537 35.5706 49.2017 35.4397C53.3431 33.1657 57.6844 31.1467 62.1014 29.4515C62.1634 29.424 62.1772 29.4033 62.191 29.3688C62.2599 29.1414 62.0876 28.6177 61.812 28.2318C61.619 27.9631 61.3779 27.7219 61.116 27.467C60.8817 27.2327 60.6336 26.9915 60.42 26.7159C59.2693 25.2481 59.1728 23.0361 60.1788 21.3341C61.0884 19.7974 62.8525 18.7225 64.775 18.5295C65.6709 18.44 66.4357 18.5571 67.0421 18.8879C67.9104 19.3564 68.5443 20.3143 68.7304 21.4513C68.9027 22.478 68.7235 23.4841 68.5237 24.3316L68.4892 24.4694C68.3858 24.9105 68.2894 25.3239 68.3307 25.7029C68.3583 25.9579 68.4754 26.2542 68.6822 26.3989C71.9484 25.1241 76.207 23.4841 80.562 21.9336C80.6929 21.8854 80.8376 21.8923 80.9616 21.9543C81.0857 22.0163 81.1822 22.1197 81.2304 22.2575C84.4277 31.4705 88.1626 40.2633 92.3178 48.3945C92.4487 48.6494 92.3522 48.9526 92.1042 49.0904C88.3831 51.1577 84.4346 53.0665 80.6171 54.9132C80.1968 55.1131 79.8109 55.3267 79.6868 55.6299C79.5352 56.0158 79.8453 56.5257 80.2037 56.8427C80.3897 57.008 80.6033 57.1527 80.8238 57.3112C81.1753 57.5593 81.5405 57.8074 81.8437 58.1588C82.7188 59.1511 82.8911 60.7498 82.2502 62.0452C81.7059 63.1409 80.6309 64.0298 79.2872 64.4846C78.8324 64.6293 78.3156 64.7189 77.7919 64.7189ZM73.4299 57.8625C73.6367 57.8625 73.8572 57.9107 74.0639 58.0003C74.7943 58.3104 75.4283 59.1511 75.573 59.9987C75.635 60.3777 75.6557 60.7635 75.6695 61.1357C75.697 61.7903 75.7177 62.4105 76.0209 62.879C76.5722 63.7404 77.9228 63.83 78.9702 63.4785C80.0452 63.1133 80.9065 62.4173 81.3269 61.5698C81.7817 60.6464 81.6783 59.5232 81.0719 58.841C80.8445 58.586 80.5482 58.3793 80.2312 58.1588C79.99 57.9934 79.7489 57.8212 79.5146 57.6144C78.9151 57.0838 78.35 56.1467 78.7152 55.2233C78.9771 54.5687 79.5766 54.2379 80.1623 53.9554C83.8145 52.1913 87.5838 50.3653 91.1532 48.4014C87.1427 40.5044 83.5319 31.9943 80.4173 23.0844C76.1518 24.6073 72.0173 26.2059 68.8544 27.4394C68.7442 27.4807 68.6201 27.4876 68.503 27.4532C67.8484 27.2465 67.366 26.5918 67.2833 25.7925C67.2213 25.2274 67.3453 24.7106 67.4625 24.2076L67.4969 24.0698C67.6692 23.3187 67.8277 22.4435 67.6899 21.596C67.5521 20.7759 67.1179 20.1006 66.5322 19.7837C66.1119 19.5563 65.5537 19.4736 64.8646 19.5425C63.2659 19.701 61.812 20.583 61.0678 21.8371C60.2891 23.1533 60.358 24.9173 61.2331 26.0337C61.4123 26.2611 61.619 26.4678 61.8464 26.6883C62.1221 26.9639 62.4115 27.2465 62.6596 27.591C63.0317 28.1147 63.39 28.9623 63.1833 29.6376C63.073 29.989 62.8249 30.2646 62.4666 30.3956C58.2494 32.0149 54.108 33.9237 50.1389 36.0805C51.2965 38.4579 52.3371 40.8628 53.4396 43.3917C53.791 44.2048 54.1494 45.0248 54.5146 45.8586C55.8445 44.8526 57.6292 44.4943 59.1659 44.9697C61.0471 45.5554 62.4184 47.354 62.4322 49.2558C62.439 49.7864 62.3357 50.5651 61.8464 51.2266C61.4123 51.8054 60.7301 52.2258 59.7723 52.4945C59.0212 52.7081 58.2494 52.8046 57.4501 52.7839C59.2072 55.6299 60.6061 58.8134 61.6121 62.2726C62.8938 61.7834 64.1824 61.2804 65.4366 60.798C67.807 59.8746 70.2602 58.9168 72.672 58.0692C72.8994 57.9383 73.1612 57.8625 73.4299 57.8625Z" fill="black"/>
<path d="M53.8806 44.005C53.8737 44.005 53.8668 44.005 53.8599 44.005C53.7634 43.9912 53.6945 43.9017 53.7083 43.8121C54.1217 40.601 54.4525 37.3347 54.7006 34.1098C54.7075 34.0133 54.7833 33.9444 54.8866 33.9513C54.9831 33.9582 55.052 34.0409 55.0451 34.1373C54.797 37.3691 54.4663 40.6423 54.0528 43.8603C54.046 43.943 53.9702 44.005 53.8806 44.005Z" fill="black"/>
<path d="M57.8705 44.136H57.8636C57.7671 44.1291 57.6913 44.0464 57.6982 43.9499L58.2701 33.0486C58.277 32.9521 58.3597 32.8694 58.4562 32.8832C58.5527 32.8901 58.6285 32.9728 58.6216 33.0693L58.0496 43.9706C58.0427 44.0671 57.96 44.136 57.8705 44.136Z" fill="black"/>
<path d="M61.1161 44.8801C61.1092 44.8801 61.1092 44.8801 61.1023 44.8801C61.0058 44.8732 60.9369 44.7906 60.9438 44.6941L62.0464 31.4499C62.0533 31.3534 62.1428 31.2914 62.2324 31.2914C62.3289 31.2983 62.3978 31.381 62.3909 31.4774L61.2884 44.7216C61.2884 44.8112 61.2057 44.8801 61.1161 44.8801Z" fill="black"/>
<path d="M62.5702 25.9923H62.5633C62.4668 25.9854 62.391 25.9028 62.3979 25.8063L62.6184 21.5133C62.6253 21.4168 62.7011 21.3479 62.7907 21.3479H62.7976C62.894 21.3548 62.9698 21.4375 62.9629 21.534L62.7424 25.827C62.7424 25.9234 62.6597 25.9923 62.5702 25.9923Z" fill="black"/>
<path d="M64.389 60.0056H64.3821C64.2857 59.9987 64.2099 59.916 64.2167 59.8195L66.3253 22.0094C66.3322 21.913 66.408 21.8372 66.5114 21.8441C66.6079 21.851 66.6837 21.9336 66.6768 22.0301L64.5682 59.8402C64.5613 59.9298 64.4855 60.0056 64.389 60.0056Z" fill="black"/>
<path d="M67.8622 58.5792C67.7588 58.5792 67.683 58.4965 67.6899 58.4C67.9517 48.5392 68.3721 38.5544 68.9578 28.7211C68.9647 28.6246 69.0405 28.5488 69.1439 28.5557C69.2403 28.5626 69.3161 28.6453 69.3092 28.7418C68.7304 38.575 68.3032 48.553 68.0413 58.4138C68.0344 58.5034 67.9586 58.5792 67.8622 58.5792Z" fill="black"/>
<path d="M71.0389 57.1252C70.9356 57.1183 70.8598 57.0425 70.8666 56.9461C71.2319 47.037 71.5351 37.0039 71.7625 27.1225C71.7625 27.026 71.8383 26.9571 71.9416 26.9502C72.0381 26.9502 72.1139 27.0329 72.1139 27.1294C71.8865 37.0108 71.5902 47.0508 71.2181 56.9598C71.2112 57.0563 71.1354 57.1252 71.0389 57.1252Z" fill="black"/>
<path d="M74.2567 55.8917C74.2498 55.8917 74.2498 55.8917 74.2567 55.8917C74.1533 55.8917 74.0775 55.809 74.0844 55.7125L74.9664 25.9992C74.9664 25.9027 75.0422 25.8338 75.1456 25.8269C75.2421 25.8269 75.3179 25.9096 75.3179 26.0061L74.4358 55.7194C74.429 55.8159 74.3463 55.8917 74.2567 55.8917Z" fill="black"/>
<path d="M77.1028 63.2443C77.0132 63.2443 76.9305 63.1754 76.9305 63.0789C76.4895 55.1682 76.9925 47.1266 77.4749 39.3468C77.7643 34.6541 78.0675 29.803 78.1571 25.0276C78.1571 24.9311 78.2398 24.8553 78.3293 24.8553C78.3293 24.8553 78.3293 24.8553 78.3362 24.8553C78.4327 24.8553 78.5085 24.938 78.5085 25.0345C78.4189 29.8168 78.1157 34.6679 77.8194 39.3675C77.3371 47.1335 76.8409 55.1682 77.275 63.0582C77.2819 63.1547 77.2061 63.2374 77.1097 63.2443H77.1028Z" fill="black"/>
<path d="M80.1761 52.3085C80.0728 52.3085 79.997 52.2258 80.0039 52.1293C80.1899 44.7975 80.7894 37.3967 81.7886 30.1269C81.8024 30.0304 81.8919 29.9684 81.9884 29.9753C82.0849 29.989 82.1538 30.0786 82.14 30.1751C81.1408 37.4243 80.5413 44.8181 80.3553 52.1362C80.3484 52.2327 80.2657 52.3085 80.1761 52.3085Z" fill="black"/>
<path d="M83.0838 50.8269H83.0769C82.9805 50.82 82.9047 50.7373 82.9116 50.6408C83.1459 45.9344 83.5662 41.1728 84.1657 36.4939C84.1795 36.3975 84.2691 36.3286 84.3586 36.3423C84.4551 36.3561 84.524 36.4457 84.5102 36.5353C83.9107 41.2073 83.4904 45.9551 83.263 50.6546C83.2561 50.758 83.1803 50.8269 83.0838 50.8269Z" fill="black"/>
<path d="M86.371 49.7244C86.3641 49.7244 86.3641 49.7244 86.3572 49.7244C86.2607 49.7175 86.1918 49.6348 86.1987 49.5383C86.371 47.2299 86.6191 44.8939 86.936 42.5993C86.9498 42.5028 87.0394 42.4408 87.1359 42.4477C87.2323 42.4614 87.3013 42.551 87.2875 42.6475C86.9705 44.9353 86.7224 47.2644 86.5502 49.5659C86.5364 49.6555 86.4606 49.7244 86.371 49.7244Z" fill="black"/>
<g opacity="0.1294">
<path d="M74.2222 56.126C74.2291 56.126 74.2291 56.126 74.236 56.126C74.2773 56.1329 74.3186 56.1329 74.36 56.1398C74.3118 56.1398 74.2497 56.126 74.2222 56.126Z" fill="black"/>
</g>
<g opacity="0.1294">
<path d="M75.7589 57.6626C75.7452 57.3939 75.6625 57.1183 75.5109 56.8909C75.442 56.8082 75.442 56.8013 75.504 56.884C75.6556 57.07 75.1732 56.4705 75.311 56.6635C75.3731 56.7462 75.3662 56.7393 75.3041 56.6497C75.0905 56.3672 74.7529 56.2018 74.4083 56.1467C74.4014 56.1467 74.4014 56.1467 74.3877 56.1398C74.3808 56.1398 74.367 56.1398 74.3601 56.1329C74.3739 56.1329 74.3808 56.1398 74.3946 56.1398C74.3394 56.1329 74.2912 56.1191 74.2361 56.1191C73.8433 56.0709 73.4505 56.1398 73.0646 56.2225C72.1068 56.4016 71.1972 56.7393 70.3152 57.1527C69.571 57.4353 68.179 58.1174 66.16 58.8134C64.8507 59.1993 63.5759 59.6886 62.308 60.1778C61.805 60.3983 61.1503 60.4534 60.854 60.9703C60.3579 61.7627 61.1779 62.8377 62.0737 62.562C64.6509 61.6662 67.2763 60.9014 69.7639 59.7644C70.2876 59.6128 72.7339 58.3655 73.6159 57.959C73.6228 57.959 73.6228 57.959 73.6297 57.9521C73.8708 57.8556 74.1396 57.8349 74.367 57.7109C74.3946 57.6971 74.429 57.6833 74.4566 57.6695C74.622 57.828 74.8149 57.959 75.0285 58.0485C75.0147 58.0416 75.0009 58.0348 74.9941 58.0348C75.0216 58.0485 75.0767 58.0692 75.1043 58.083C75.1388 58.1243 75.1663 58.1726 75.1939 58.2139C75.2835 58.3793 75.5178 58.4413 75.6763 58.338C76.0346 58.1037 75.7383 57.7316 75.7589 57.6626Z" fill="black"/>
</g>
<g opacity="0.1294">
<path d="M91.2909 47.0715C91.1738 46.7545 91.0773 46.4237 90.9946 46.0999C90.8499 46.1205 90.7121 46.1757 90.6018 46.2859C90.4089 46.4582 90.4158 46.72 90.3331 46.9474C90.0574 47.478 90.1401 47.3264 89.6509 47.8157C87.9144 49.373 84.5034 50.7029 82.3466 51.6814C82.1192 51.771 81.6299 51.9777 81.4783 52.0329C80.8788 52.3499 80.0382 52.3705 79.6454 52.97C79.1768 53.7142 79.9486 54.7203 80.7893 54.4585C83.3871 53.5213 85.8609 52.2809 88.2038 50.827C89.4235 50.0483 90.7948 49.2903 91.4701 47.9535C91.4976 47.8915 91.5252 47.8226 91.5528 47.7537C91.4632 47.5263 91.3736 47.2989 91.2909 47.0715Z" fill="black"/>
</g>
<path d="M77.7919 64.7189C76.7513 64.7189 75.7177 64.3606 75.132 63.4441C74.6841 62.7343 74.6496 61.9419 74.6221 61.177C74.6083 60.8256 74.5945 60.4879 74.5394 60.1778C74.4567 59.6817 74.057 59.1442 73.6573 58.9719C73.4231 58.8686 73.2852 58.9375 73.1957 58.9995C73.1612 59.0271 73.1199 59.0477 73.0716 59.0615C70.6598 59.9091 68.1929 60.8738 65.8156 61.7972C64.3892 62.3553 62.9076 62.9273 61.4468 63.4785C61.3089 63.5268 61.1573 63.5199 61.0264 63.4579C60.8955 63.389 60.799 63.2718 60.7577 63.134C59.662 59.1924 58.0565 55.6092 55.9892 52.4807C55.8721 52.3085 55.8721 52.0811 55.9823 51.9088C56.0926 51.7365 56.2993 51.6401 56.506 51.6745C57.5603 51.8399 58.5388 51.7848 59.4829 51.516C60.2133 51.3093 60.7094 51.0199 61.0057 50.6271C61.2538 50.2963 61.3916 49.8209 61.3847 49.2972C61.371 47.8639 60.2891 46.4513 58.8558 46.0033C57.457 45.5692 55.7825 46.0171 54.7006 47.1197C54.5766 47.2437 54.4043 47.2988 54.232 47.2713C54.0598 47.2368 53.9151 47.1266 53.8462 46.9681C53.3776 45.9138 52.9297 44.8732 52.4818 43.8465C51.3172 41.166 50.2147 38.6301 48.9812 36.1288C48.8572 35.8738 48.9537 35.5706 49.2017 35.4397C53.3431 33.1657 57.6844 31.1467 62.1014 29.4515C62.1634 29.424 62.1772 29.4033 62.191 29.3688C62.2599 29.1414 62.0876 28.6177 61.812 28.2318C61.619 27.9631 61.3779 27.7219 61.116 27.467C60.8817 27.2327 60.6336 26.9915 60.42 26.7159C59.2693 25.2481 59.1728 23.0361 60.1788 21.3341C61.0884 19.7974 62.8525 18.7225 64.775 18.5295C65.6709 18.44 66.4357 18.5571 67.0421 18.8879C67.9104 19.3564 68.5443 20.3143 68.7304 21.4513C68.9027 22.478 68.7235 23.4841 68.5237 24.3316L68.4892 24.4694C68.3858 24.9105 68.2894 25.3239 68.3307 25.7029C68.3583 25.9579 68.4754 26.2542 68.6822 26.3989C71.9484 25.1241 76.207 23.4841 80.562 21.9336C80.6929 21.8854 80.8376 21.8923 80.9616 21.9543C81.0857 22.0163 81.1822 22.1197 81.2304 22.2575C84.4277 31.4705 88.1626 40.2633 92.3178 48.3945C92.4487 48.6494 92.3522 48.9526 92.1042 49.0904C88.3831 51.1577 84.4346 53.0665 80.6171 54.9132C80.1968 55.1131 79.8109 55.3267 79.6868 55.6299C79.5352 56.0158 79.8453 56.5257 80.2037 56.8427C80.3897 57.008 80.6033 57.1527 80.8238 57.3112C81.1753 57.5593 81.5405 57.8074 81.8437 58.1588C82.7188 59.1511 82.8911 60.7498 82.2502 62.0452C81.7059 63.1409 80.6309 64.0298 79.2872 64.4846C78.8324 64.6293 78.3156 64.7189 77.7919 64.7189ZM73.4299 57.8625C73.6367 57.8625 73.8572 57.9107 74.0639 58.0003C74.7943 58.3104 75.4283 59.1511 75.573 59.9987C75.635 60.3777 75.6557 60.7635 75.6695 61.1357C75.697 61.7903 75.7177 62.4105 76.0209 62.879C76.5722 63.7404 77.9228 63.83 78.9702 63.4785C80.0452 63.1133 80.9065 62.4173 81.3269 61.5698C81.7817 60.6464 81.6783 59.5232 81.0719 58.841C80.8445 58.586 80.5482 58.3793 80.2312 58.1588C79.99 57.9934 79.7489 57.8212 79.5146 57.6144C78.9151 57.0838 78.35 56.1467 78.7152 55.2233C78.9771 54.5687 79.5766 54.2379 80.1623 53.9554C83.8145 52.1913 87.5838 50.3653 91.1532 48.4014C87.1427 40.5044 83.5319 31.9943 80.4173 23.0844C76.1518 24.6073 72.0173 26.2059 68.8544 27.4394C68.7442 27.4807 68.6201 27.4876 68.503 27.4532C67.8484 27.2465 67.366 26.5918 67.2833 25.7925C67.2213 25.2274 67.3453 24.7106 67.4625 24.2076L67.4969 24.0698C67.6692 23.3187 67.8277 22.4435 67.6899 21.596C67.5521 20.7759 67.1179 20.1006 66.5322 19.7837C66.1119 19.5563 65.5537 19.4736 64.8646 19.5425C63.2659 19.701 61.812 20.583 61.0678 21.8371C60.2891 23.1533 60.358 24.9173 61.2331 26.0337C61.4123 26.2611 61.619 26.4678 61.8464 26.6883C62.1221 26.9639 62.4115 27.2465 62.6596 27.591C63.0317 28.1147 63.39 28.9623 63.1833 29.6376C63.073 29.989 62.8249 30.2646 62.4666 30.3956C58.2494 32.0149 54.108 33.9237 50.1389 36.0805C51.2965 38.4579 52.3371 40.8628 53.4396 43.3917C53.791 44.2048 54.1494 45.0248 54.5146 45.8586C55.8445 44.8526 57.6292 44.4943 59.1659 44.9697C61.0471 45.5554 62.4184 47.354 62.4322 49.2558C62.439 49.7864 62.3357 50.5651 61.8464 51.2266C61.4123 51.8054 60.7301 52.2258 59.7723 52.4945C59.0212 52.7081 58.2494 52.8046 57.4501 52.7839C59.2072 55.6299 60.6061 58.8134 61.6121 62.2726C62.8938 61.7834 64.1824 61.2804 65.4366 60.798C67.807 59.8746 70.2602 58.9168 72.672 58.0692C72.8994 57.9383 73.1612 57.8625 73.4299 57.8625Z" fill="black"/>
<path d="M39.5958 66.1729C40.4709 65.1875 39.9472 63.6646 39.9955 62.3553C40.1126 59.4749 43.7923 57.5179 46.3695 58.8272C48.9398 60.1365 49.6633 63.9471 47.9544 66.2693C47.5961 66.7586 47.1344 67.3925 47.4789 67.8956C47.6305 68.1161 47.9062 68.2194 48.1611 68.309C52.2129 69.7216 56.2579 71.1412 60.3097 72.5538C59.0831 76.137 57.6705 79.6582 56.0787 83.1037C54.4731 81.4843 51.7857 80.7746 49.8425 81.9736C47.8993 83.1657 47.5409 86.4802 49.4773 87.6792C50.8003 88.4992 52.5092 88.1271 54.0735 88.2511C53.6256 92.3236 52.3301 96.2997 50.0148 99.4901C46.5624 98.0086 43.1032 96.5202 39.6509 95.0386C39.4373 94.949 39.2168 94.8526 39.0514 94.6803C38.638 94.26 38.7344 93.5364 39.0514 93.0403C39.3684 92.5441 39.8508 92.172 40.2091 91.7035C41.3943 90.1737 40.9326 87.7136 39.3684 86.5767C37.8111 85.4397 35.4682 85.6602 34.0211 86.935C32.5671 88.2098 32.0296 90.3597 32.512 92.2272C28.7909 90.1186 24.7529 88.575 19.9155 87.7894C22.6098 79.3482 25.3042 70.9069 27.9158 62.4173C31.8574 63.6921 35.792 64.9807 39.5958 66.1729Z" fill="#FFB217"/>
<g opacity="0.1294">
<path d="M59.6207 72.0645C59.1797 71.8716 58.7386 71.6648 58.3114 71.4443C57.8428 71.6373 57.4776 72.0714 57.4845 72.6847C57.4294 73.4082 57.1813 74.8209 56.7196 76.3851C56.127 78.1216 55.9685 78.3076 55.369 79.7823C55.2381 80.1888 55.1072 80.5954 54.9625 80.9951C54.8798 81.2362 54.7764 81.4843 54.8453 81.7393C54.8867 82.4008 55.6378 82.8694 56.2579 82.6833C57.1882 82.2836 56.9884 81.8082 57.2433 81.4636C57.9806 80.1199 58.4906 78.6591 58.966 77.2051C59.3037 76.0268 59.9101 74.9311 60.0892 73.7045C60.1375 73.2497 60.296 72.7605 60.1719 72.3126C59.9859 72.2299 59.8067 72.1472 59.6207 72.0645Z" fill="black"/>
</g>
<g opacity="0.1294">
<path d="M53.4809 87.6792C53.1226 87.6861 52.7573 87.6861 52.4059 87.6861C52.3577 87.6861 52.3094 87.6792 52.2612 87.6654C52.0062 87.8377 51.8271 88.1133 51.8271 88.4854C51.7719 89.6155 51.7306 89.6913 51.3792 91.0281C50.6625 93.9085 50.4282 94.3151 49.2086 96.5891C49.181 96.6442 49.1534 96.7062 49.119 96.7613C48.2783 96.3617 47.3549 96.1549 46.4591 95.9069C44.4332 95.3142 42.3659 94.8595 40.3331 94.2668C40.1333 94.2048 39.9059 94.0946 39.7061 94.2255C39.3684 94.4115 39.4373 94.9628 39.8163 95.0524C40.5605 95.3418 41.6079 95.5554 42.0007 95.769C44.5986 96.9198 46.2179 97.6571 48.1611 98.3669C48.2163 98.3876 48.2645 98.4082 48.3196 98.4289C48.6297 98.5874 48.9743 98.6701 49.305 98.7872C49.305 98.7872 49.3119 98.7872 49.3119 98.7941C49.6427 99.0077 50.1044 99.1318 50.4213 98.8355C50.6832 98.6563 50.7797 98.3187 50.7176 98.0224C50.9795 97.7054 51.1724 97.3126 51.3792 96.9749C52.592 95.0731 52.9916 92.8198 53.5774 90.6767C53.7152 90.1323 53.791 89.5673 53.8392 89.0091C53.8461 88.7059 53.9426 88.3683 53.7841 88.0857C53.7083 87.9135 53.6049 87.7757 53.4809 87.6792Z" fill="black"/>
</g>
<path d="M50.0218 100C49.9528 100 49.8839 99.9862 49.815 99.9587L39.4512 95.5072C39.2169 95.4038 38.9206 95.2798 38.6794 95.0386C38.0455 94.3909 38.2039 93.3986 38.6105 92.7509C38.8241 92.4201 39.0791 92.1513 39.334 91.8895C39.5063 91.7172 39.6648 91.5518 39.7957 91.3727C40.2505 90.787 40.4366 90.0083 40.3194 89.1745C40.1954 88.2787 39.7337 87.4793 39.0653 86.9901C37.7423 86.0254 35.6819 86.1632 34.3726 87.314C33.1185 88.4165 32.5741 90.3322 33.0289 92.0824C33.084 92.2892 33.0082 92.5028 32.8429 92.6337C32.6775 92.7646 32.4501 92.7784 32.264 92.675C28.2811 90.4217 24.3327 89.0298 19.8467 88.2994C19.6951 88.2718 19.5642 88.1891 19.4815 88.0582C19.3988 87.9273 19.385 87.7688 19.4264 87.6241C22.0725 79.3344 24.8012 70.769 27.4267 62.2588C27.468 62.121 27.5645 62.0108 27.6885 61.9488C27.8125 61.8867 27.9573 61.8729 28.0951 61.9143C31.8299 63.1409 35.6819 64.4019 39.3823 65.5664C39.6441 65.0496 39.589 64.3399 39.527 63.5957C39.4925 63.1822 39.4581 62.755 39.4719 62.3346C39.5339 60.8669 40.4297 59.4818 41.863 58.6411C43.379 57.7522 45.1982 57.642 46.6039 58.3586C47.9063 59.0201 48.8641 60.3018 49.2362 61.873C49.6359 63.5405 49.312 65.3046 48.3748 66.5794C48.1612 66.8688 47.7753 67.3994 47.9063 67.5924C47.9683 67.6819 48.1888 67.7577 48.3335 67.8129L60.4821 72.0576C60.7577 72.1541 60.8955 72.4504 60.8059 72.726C59.5794 76.3162 58.1461 79.8856 56.5543 83.3242C56.4854 83.4827 56.3407 83.5929 56.1684 83.6205C55.9961 83.648 55.8238 83.5929 55.7067 83.4758C54.3699 82.1183 51.9512 81.2914 50.1182 82.4215C49.2707 82.9452 48.7194 84.0064 48.7194 85.1365C48.7194 86.0667 49.0984 86.8316 49.7599 87.2382C50.5661 87.7412 51.5998 87.7205 52.6885 87.7067C53.1571 87.6999 53.6463 87.693 54.1218 87.7274C54.2665 87.7412 54.3974 87.8032 54.487 87.9135C54.5766 88.0237 54.618 88.1615 54.6042 88.3062C54.108 92.7577 52.6747 96.7269 50.449 99.7933C50.3456 99.9242 50.1871 100 50.0218 100ZM36.998 85.3087C37.9697 85.3087 38.9206 85.5844 39.6855 86.1425C40.5813 86.7972 41.1946 87.8515 41.36 89.0229C41.5184 90.1392 41.2566 91.2004 40.6295 92.0135C40.4573 92.234 40.2712 92.427 40.092 92.613C39.8646 92.8473 39.6579 93.0609 39.4994 93.3021C39.2996 93.6191 39.2169 94.0808 39.4305 94.2944C39.527 94.3909 39.6993 94.4667 39.8646 94.5356L49.8357 98.8217C51.7238 96.0791 52.9848 92.613 53.4879 88.7335C53.2329 88.7266 52.971 88.7335 52.7023 88.7335C51.5102 88.7473 50.2767 88.7679 49.2086 88.1064C48.2301 87.5 47.672 86.4113 47.672 85.1089C47.672 83.6274 48.4231 82.2147 49.5739 81.505C51.6273 80.244 54.2183 80.8917 55.9065 82.2216C57.2916 79.169 58.5457 76.0268 59.6483 72.8639L47.9958 68.7914C47.7202 68.6949 47.3137 68.5502 47.0518 68.1781C46.4936 67.365 47.1414 66.476 47.5342 65.9454C48.2922 64.9187 48.5471 63.4785 48.2232 62.1072C47.92 60.8324 47.1621 59.8057 46.1353 59.282C45.0466 58.7307 43.6133 58.8272 42.4005 59.537C41.2704 60.1985 40.5744 61.2528 40.5262 62.3622C40.5124 62.7136 40.5399 63.0926 40.5744 63.4923C40.6571 64.5053 40.7536 65.6491 39.9887 66.5105C39.8509 66.6621 39.6372 66.7241 39.4374 66.6621C35.7784 65.5182 31.9746 64.271 28.2742 63.0582C25.7591 71.2101 23.1474 79.4033 20.6116 87.3484C24.5807 88.0582 28.2742 89.333 31.8368 91.228C31.7197 89.4363 32.4019 87.6447 33.6836 86.5146C34.6 85.7222 35.8128 85.3087 36.998 85.3087Z" fill="black"/>
<path d="M39.5958 66.1729C40.4709 65.1875 39.9472 63.6646 39.9955 62.3553C40.1126 59.4749 43.7923 57.5179 46.3695 58.8272C48.9398 60.1365 49.6633 63.9471 47.9544 66.2693C47.5961 66.7586 47.1344 67.3925 47.4789 67.8956C47.6305 68.1161 47.9062 68.2194 48.1611 68.309C52.2129 69.7216 56.2579 71.1412 60.3097 72.5538C59.0831 76.137 57.6705 79.6582 56.0787 83.1037C54.4731 81.4843 51.7857 80.7746 49.8425 81.9736C47.8993 83.1657 47.5409 86.4802 49.4773 87.6792C50.8003 88.4992 52.5092 88.1271 54.0735 88.2511C53.6256 92.3236 52.3301 96.2997 50.0148 99.4901C46.5624 98.0086 43.1032 96.5202 39.6509 95.0386C39.4373 94.949 39.2168 94.8526 39.0514 94.6803C38.638 94.26 38.7344 93.5364 39.0514 93.0403C39.3684 92.5441 39.8508 92.172 40.2091 91.7035C41.3943 90.1737 40.9326 87.7136 39.3684 86.5767C37.8111 85.4397 35.4682 85.6602 34.0211 86.935C32.5671 88.2098 32.0296 90.3597 32.512 92.2272C28.7909 90.1186 24.7529 88.575 19.9155 87.7894C22.6098 79.3482 25.3042 70.9069 27.9158 62.4173C31.8574 63.6921 35.792 64.9807 39.5958 66.1729Z" fill="#FFB217"/>
<g opacity="0.1294">
<path d="M59.6207 72.0645C59.1797 71.8716 58.7386 71.6648 58.3114 71.4443C57.8428 71.6373 57.4776 72.0714 57.4845 72.6847C57.4294 73.4082 57.1813 74.8209 56.7196 76.3851C56.127 78.1216 55.9685 78.3076 55.369 79.7823C55.2381 80.1888 55.1072 80.5954 54.9625 80.9951C54.8798 81.2362 54.7764 81.4843 54.8453 81.7393C54.8867 82.4008 55.6378 82.8694 56.2579 82.6833C57.1882 82.2836 56.9884 81.8082 57.2433 81.4636C57.9806 80.1199 58.4906 78.6591 58.966 77.2051C59.3037 76.0268 59.9101 74.9311 60.0892 73.7045C60.1375 73.2497 60.296 72.7605 60.1719 72.3126C59.9859 72.2299 59.8067 72.1472 59.6207 72.0645Z" fill="black"/>
</g>
<g opacity="0.1294">
<path d="M53.4809 87.6792C53.1226 87.6861 52.7573 87.6861 52.4059 87.6861C52.3577 87.6861 52.3094 87.6792 52.2612 87.6654C52.0062 87.8377 51.8271 88.1133 51.8271 88.4854C51.7719 89.6155 51.7306 89.6913 51.3792 91.0281C50.6625 93.9085 50.4282 94.3151 49.2086 96.5891C49.181 96.6442 49.1534 96.7062 49.119 96.7613C48.2783 96.3617 47.3549 96.1549 46.4591 95.9069C44.4332 95.3142 42.3659 94.8595 40.3331 94.2668C40.1333 94.2048 39.9059 94.0946 39.7061 94.2255C39.3684 94.4115 39.4373 94.9628 39.8163 95.0524C40.5605 95.3418 41.6079 95.5554 42.0007 95.769C44.5986 96.9198 46.2179 97.6571 48.1611 98.3669C48.2163 98.3876 48.2645 98.4082 48.3196 98.4289C48.6297 98.5874 48.9743 98.6701 49.305 98.7872C49.305 98.7872 49.3119 98.7872 49.3119 98.7941C49.6427 99.0077 50.1044 99.1318 50.4213 98.8355C50.6832 98.6563 50.7797 98.3187 50.7176 98.0224C50.9795 97.7054 51.1724 97.3126 51.3792 96.9749C52.592 95.0731 52.9916 92.8198 53.5774 90.6767C53.7152 90.1323 53.791 89.5673 53.8392 89.0091C53.8461 88.7059 53.9426 88.3683 53.7841 88.0857C53.7083 87.9135 53.6049 87.7757 53.4809 87.6792Z" fill="black"/>
</g>
<path d="M50.0218 100C49.9528 100 49.8839 99.9862 49.815 99.9587L39.4512 95.5072C39.2169 95.4038 38.9206 95.2798 38.6794 95.0386C38.0455 94.3909 38.2039 93.3986 38.6105 92.7509C38.8241 92.4201 39.0791 92.1513 39.334 91.8895C39.5063 91.7172 39.6648 91.5518 39.7957 91.3727C40.2505 90.787 40.4366 90.0083 40.3194 89.1745C40.1954 88.2787 39.7337 87.4793 39.0653 86.9901C37.7423 86.0254 35.6819 86.1632 34.3726 87.314C33.1185 88.4165 32.5741 90.3322 33.0289 92.0824C33.084 92.2892 33.0082 92.5028 32.8429 92.6337C32.6775 92.7646 32.4501 92.7784 32.264 92.675C28.2811 90.4217 24.3327 89.0298 19.8467 88.2994C19.6951 88.2718 19.5642 88.1891 19.4815 88.0582C19.3988 87.9273 19.385 87.7688 19.4264 87.6241C22.0725 79.3344 24.8012 70.769 27.4267 62.2588C27.468 62.121 27.5645 62.0108 27.6885 61.9488C27.8125 61.8867 27.9573 61.8729 28.0951 61.9143C31.8299 63.1409 35.6819 64.4019 39.3823 65.5664C39.6441 65.0496 39.589 64.3399 39.527 63.5957C39.4925 63.1822 39.4581 62.755 39.4719 62.3346C39.5339 60.8669 40.4297 59.4818 41.863 58.6411C43.379 57.7522 45.1982 57.642 46.6039 58.3586C47.9063 59.0201 48.8641 60.3018 49.2362 61.873C49.6359 63.5405 49.312 65.3046 48.3748 66.5794C48.1612 66.8688 47.7753 67.3994 47.9063 67.5924C47.9683 67.6819 48.1888 67.7577 48.3335 67.8129L60.4821 72.0576C60.7577 72.1541 60.8955 72.4504 60.8059 72.726C59.5794 76.3162 58.1461 79.8856 56.5543 83.3242C56.4854 83.4827 56.3407 83.5929 56.1684 83.6205C55.9961 83.648 55.8238 83.5929 55.7067 83.4758C54.3699 82.1183 51.9512 81.2914 50.1182 82.4215C49.2707 82.9452 48.7194 84.0064 48.7194 85.1365C48.7194 86.0667 49.0984 86.8316 49.7599 87.2382C50.5661 87.7412 51.5998 87.7205 52.6885 87.7067C53.1571 87.6999 53.6463 87.693 54.1218 87.7274C54.2665 87.7412 54.3974 87.8032 54.487 87.9135C54.5766 88.0237 54.618 88.1615 54.6042 88.3062C54.108 92.7577 52.6747 96.7269 50.449 99.7933C50.3456 99.9242 50.1871 100 50.0218 100ZM36.998 85.3087C37.9697 85.3087 38.9206 85.5844 39.6855 86.1425C40.5813 86.7972 41.1946 87.8515 41.36 89.0229C41.5184 90.1392 41.2566 91.2004 40.6295 92.0135C40.4573 92.234 40.2712 92.427 40.092 92.613C39.8646 92.8473 39.6579 93.0609 39.4994 93.3021C39.2996 93.6191 39.2169 94.0808 39.4305 94.2944C39.527 94.3909 39.6993 94.4667 39.8646 94.5356L49.8357 98.8217C51.7238 96.0791 52.9848 92.613 53.4879 88.7335C53.2329 88.7266 52.971 88.7335 52.7023 88.7335C51.5102 88.7473 50.2767 88.7679 49.2086 88.1064C48.2301 87.5 47.672 86.4113 47.672 85.1089C47.672 83.6274 48.4231 82.2147 49.5739 81.505C51.6273 80.244 54.2183 80.8917 55.9065 82.2216C57.2916 79.169 58.5457 76.0268 59.6483 72.8639L47.9958 68.7914C47.7202 68.6949 47.3137 68.5502 47.0518 68.1781C46.4936 67.365 47.1414 66.476 47.5342 65.9454C48.2922 64.9187 48.5471 63.4785 48.2232 62.1072C47.92 60.8324 47.1621 59.8057 46.1353 59.282C45.0466 58.7307 43.6133 58.8272 42.4005 59.537C41.2704 60.1985 40.5744 61.2528 40.5262 62.3622C40.5124 62.7136 40.5399 63.0926 40.5744 63.4923C40.6571 64.5053 40.7536 65.6491 39.9887 66.5105C39.8509 66.6621 39.6372 66.7241 39.4374 66.6621C35.7784 65.5182 31.9746 64.271 28.2742 63.0582C25.7591 71.2101 23.1474 79.4033 20.6116 87.3484C24.5807 88.0582 28.2742 89.333 31.8368 91.228C31.7197 89.4363 32.4019 87.6447 33.6836 86.5146C34.6 85.7222 35.8128 85.3087 36.998 85.3087Z" fill="black"/>
<path d="M15.8571 74.8553C15.7399 74.8553 15.6228 74.814 15.5263 74.7382C10.2066 70.4107 7.04366 63.7335 7.07122 56.8771C7.07122 56.5877 7.30551 56.3534 7.59493 56.3534C7.88434 56.3534 8.11863 56.5877 8.11863 56.8771C8.09107 63.4234 11.1093 69.7905 16.1878 73.9182C16.4152 74.1042 16.4497 74.4281 16.2636 74.6555C16.1603 74.7864 16.0087 74.8553 15.8571 74.8553Z" fill="black"/>
<path d="M15.8709 75.1448C15.8365 75.1448 15.7951 75.1379 15.7607 75.131C13.8037 74.7107 11.8673 74.1318 10.0068 73.4014C9.73808 73.298 9.60026 72.9879 9.71051 72.7192C9.81388 72.4505 10.1171 72.3195 10.3927 72.4229C11.9845 73.0431 13.6314 73.5599 15.299 73.9458C15.1612 72.3953 14.8304 70.8656 14.3205 69.3909C14.224 69.1153 14.3687 68.819 14.6444 68.7225C14.92 68.6329 15.2163 68.7707 15.3128 69.0464C15.9261 70.8311 16.2913 72.6916 16.3946 74.5797C16.4015 74.7451 16.3326 74.9036 16.2086 75.007C16.1121 75.1034 15.995 75.1448 15.8709 75.1448Z" fill="black"/>
<path d="M69.0682 85.4189C68.8684 85.4189 68.6754 85.3018 68.5858 85.1088C68.4687 84.847 68.5858 84.5369 68.8546 84.4129C75.1184 81.6152 79.942 75.7235 81.4373 69.0256C81.4993 68.7431 81.7818 68.5639 82.0643 68.6259C82.3469 68.6879 82.526 68.9705 82.464 69.253C80.8998 76.2679 75.8488 82.4421 69.2887 85.3707C69.2129 85.3982 69.144 85.4189 69.0682 85.4189Z" fill="black"/>
<path d="M82.8911 74.1386C82.6017 74.1386 82.3674 73.9043 82.3674 73.6149C82.3674 72.347 82.1951 71.0929 81.8437 69.8801C80.8445 70.7208 79.7626 71.4719 78.6394 72.1334C78.3913 72.2781 78.0675 72.1954 77.9228 71.9473C77.7781 71.6993 77.8607 71.3754 78.1088 71.2307C79.4043 70.4727 80.6309 69.5838 81.7472 68.5777C81.8781 68.4606 82.0573 68.4192 82.2295 68.4606C82.4018 68.5019 82.5327 68.6259 82.5948 68.7913C83.146 70.3487 83.4217 71.968 83.4217 73.6218C83.4148 73.9043 83.1805 74.1386 82.8911 74.1386Z" fill="black"/>
<path d="M45.5013 11.2597C45.3359 11.2597 45.1705 11.177 45.0672 11.0254C44.9018 10.7842 44.9707 10.4603 45.205 10.295C50.6074 6.64969 57.8841 6.13288 63.7483 8.98569C64.0101 9.10972 64.1204 9.4267 63.9894 9.68856C63.8654 9.95041 63.5484 10.0607 63.2866 9.92974C57.7532 7.2423 50.8899 7.72466 45.7907 11.1701C45.708 11.2321 45.6047 11.2597 45.5013 11.2597Z" fill="black"/>
<path d="M49.9941 11.556C49.9804 11.556 49.9597 11.556 49.9459 11.556C48.3886 11.4113 46.8106 11.363 45.2463 11.4044C45.0465 11.4182 44.8604 11.301 44.764 11.1219C44.6744 10.9427 44.6882 10.7291 44.8122 10.5637L47.6512 6.76684C47.8235 6.53255 48.1543 6.48431 48.3886 6.66347C48.6229 6.83575 48.6711 7.16651 48.4919 7.40079L46.2937 10.3363C46.3213 10.3363 46.3489 10.3363 46.3695 10.3363C47.5961 10.3363 48.8227 10.3914 50.0424 10.5086C50.3318 10.5361 50.5454 10.7911 50.5178 11.0805C50.4903 11.3493 50.2629 11.556 49.9941 11.556Z" fill="black"/>
<path d="M67.3317 4.67889C67.2352 4.67889 67.1457 4.65132 67.0561 4.60309C63.3419 2.30843 58.8904 1.04741 54.5216 1.04741C54.5147 1.04741 54.5147 1.04741 54.5078 1.04741C54.2184 1.04741 53.9841 0.81312 53.9841 0.523705C53.9841 0.227398 54.2184 0 54.5285 0C59.1523 0 63.6727 1.2817 67.6142 3.70728C67.8623 3.85888 67.9381 4.18274 67.7865 4.43082C67.6763 4.58931 67.504 4.67889 67.3317 4.67889Z" fill="black"/>
<path d="M72.5133 92.9231C72.3273 92.9231 72.1481 92.8266 72.0517 92.6474C71.9138 92.3925 72.0103 92.0755 72.2653 91.9377C76.0621 89.8842 79.3422 86.6937 81.4921 82.952C81.6368 82.697 81.9607 82.6144 82.2088 82.7591C82.4568 82.9038 82.5464 83.2276 82.4017 83.4757C80.1208 87.4448 76.7857 90.6904 72.7614 92.8679C72.6856 92.9024 72.596 92.9231 72.5133 92.9231Z" fill="black"/>
<path d="M4.72134 69.1359C4.56285 69.1359 4.41125 69.067 4.30789 68.9292C1.48264 65.2701 -0.0471291 60.7084 0.00110686 56.0915C0.00110686 55.8021 0.235396 55.5747 0.524811 55.5747C0.524811 55.5747 0.524811 55.5747 0.531702 55.5747C0.821118 55.5747 1.05541 55.8159 1.04852 56.1053C1.00717 60.4879 2.46114 64.8153 5.13479 68.2883C5.31395 68.5157 5.27261 68.8465 5.03832 69.0256C4.94874 69.1014 4.83159 69.1359 4.72134 69.1359Z" fill="black"/>
</svg>
