<svg width="50" height="50" viewBox="0 0 50 50" fill="none" xmlns="http://www.w3.org/2000/svg">
<path d="M1.28126 47.049C5.33033 44.316 9.37941 41.5798 13.4317 38.8469C13.9907 38.4699 14.5659 38.0832 15.2158 37.9045C15.7585 37.7517 16.3337 37.7517 16.8959 37.7517C22.9012 37.742 28.9066 37.7322 34.9152 37.7192L48.6418 47.1433L48.7263 49.691L1.23901 49.483L1.28126 47.049Z" fill="white"/>
<path d="M45.1415 44.2403C45.1415 44.2403 39.0907 40.058 39.0972 39.9215C39.2434 38.2382 39.4449 36.5548 39.8641 34.917C40.1013 33.9844 40.4393 33.0257 41.164 32.3953C41.8886 31.7616 43.1008 31.6024 43.7799 32.2815C44.1959 32.7008 44.3226 33.3182 44.4201 33.8999C44.9888 37.3283 45.2098 40.8151 45.1415 44.2403Z" fill="white"/>
<path d="M39.5069 29.9302C39.1786 28.6791 39.5004 27.2752 40.342 26.2938C40.927 25.6081 41.7654 25.1272 42.6623 25.0492C43.5592 24.9712 44.5016 25.3254 45.067 26.0273C45.6032 26.6935 45.7592 27.5969 45.7202 28.4516C45.6715 29.5467 45.2718 30.7036 44.3619 31.321C43.8842 31.646 43.3057 31.7922 42.7305 31.8215C42.2561 31.8442 41.7719 31.789 41.3234 31.6265C40.5013 31.3275 39.7083 30.7036 39.5069 29.9302Z" fill="white"/>
<path d="M21.5332 26.4363C21.205 25.1202 21.5267 23.6416 22.3684 22.6082C22.9533 21.8868 23.7917 21.3799 24.6886 21.2986C25.5856 21.2174 26.528 21.5878 27.0901 22.3288C27.6263 23.0307 27.7823 23.9828 27.7433 24.8797C27.6946 26.0334 27.2949 27.252 26.385 27.8987C25.9073 28.2399 25.3288 28.3959 24.7536 28.4251C24.2792 28.4511 23.795 28.3926 23.3465 28.2204C22.5276 27.9084 21.7347 27.2487 21.5332 26.4363Z" fill="white"/>
<path d="M4.90463 30.0795C4.58291 28.8089 4.89813 27.3856 5.71704 26.3879C6.28898 25.6925 7.1079 25.2018 7.98206 25.1238C8.85621 25.0458 9.77587 25.4033 10.3251 26.115C10.8483 26.7941 11.001 27.7073 10.962 28.575C10.9132 29.6863 10.5233 30.8627 9.63938 31.4867C9.17468 31.8149 8.60924 31.9644 8.04705 31.9936C7.58235 32.0163 7.11115 31.9611 6.67569 31.7954C5.87628 31.4996 5.10286 30.8627 4.90463 30.0795Z" fill="white"/>
<path d="M5.10254 44.4976C5.18703 41.8199 5.31052 39.1454 5.4665 36.471C5.5185 35.5643 5.58349 34.6349 5.93445 33.7965C6.28541 32.9581 6.98734 32.2107 7.88425 32.0514C8.13122 32.0092 8.38794 32.0092 8.62517 32.0839C9.35309 32.3049 9.7333 33.0913 9.98678 33.8095C10.7309 35.9315 11.1047 38.1803 11.0852 40.4291C10.2987 41.0107 9.50908 41.5859 8.70966 42.1514C7.54628 42.98 6.36016 43.7957 5.10254 44.4976Z" fill="white"/>
<g opacity="0.1294">
<path d="M49.0051 47.484C48.9207 47.3637 48.8232 47.263 48.7094 47.185C48.4559 47.1883 48.2025 47.1883 47.9523 47.185C47.559 47.1785 47.1561 47.1558 46.7791 47.0388C46.7564 47.0323 46.7369 47.0225 46.7174 47.0128C43.4872 47.042 40.2571 46.9478 37.0269 46.899C37.0139 46.9023 37.0009 46.9055 36.9847 46.9055C36.5784 46.9478 36.1625 46.9283 35.753 46.9315C35.3436 46.9348 34.9341 46.9413 34.5247 46.9445C33.709 46.951 32.8933 46.9445 32.0777 46.9478C30.4431 46.951 28.8085 46.9608 27.1707 46.9705C27.0797 46.9705 27.0147 46.9315 26.9757 46.873C24.4377 46.9543 21.8997 47.029 19.3618 46.912C18.4941 46.8958 17.6264 46.8893 16.7588 46.886C14.3183 46.9055 11.8778 46.938 9.43729 46.9673C8.06919 46.9835 6.69783 46.9673 5.32972 46.977C4.64405 46.9835 3.96162 47.0193 3.27594 47.042C2.60001 47.0648 1.92083 47.0713 1.2449 47.1005C1.14741 47.1038 1.07592 47.0745 1.02393 47.0225C1.06942 47.536 1.10192 48.0527 1.13766 48.5694C1.16041 48.9138 1.20591 49.2713 1.2254 49.6255C1.22865 49.6255 1.23515 49.6255 1.2384 49.6288C2.34654 49.8822 3.50017 49.957 4.6343 49.9082C5.66119 49.8627 6.68158 49.7555 7.70848 49.7555C8.73862 49.7555 9.76551 49.7685 10.7957 49.7685C11.842 49.7685 12.8884 49.7327 13.9316 49.7717C14.2013 49.7815 14.471 49.788 14.7407 49.7945C16.7393 49.645 18.7378 49.4955 20.7429 49.5183C21.8575 49.5248 22.9656 49.6288 24.0803 49.6645C25.5296 49.723 26.979 49.71 28.4283 49.7327C30.7908 49.7912 33.1501 49.918 35.5126 49.866C37.3454 49.8367 39.1814 49.8205 41.0175 49.8107C43.497 49.7262 45.9797 49.6808 48.4592 49.8367C48.6509 49.8432 48.8362 49.7847 48.9954 49.684C48.9629 49.4468 48.9369 49.2063 48.9272 48.9691C48.9142 48.6474 48.9337 48.3289 48.9369 48.0072C48.9434 47.8219 48.9499 47.6367 49.0051 47.484Z" fill="black"/>
</g>
<path d="M6.17284 36.1144C6.15659 36.1144 6.14034 36.1111 6.12734 36.1014C6.08835 36.0754 6.0786 36.0234 6.1046 35.9877C6.87802 34.86 7.72618 33.7681 8.63283 32.7412C8.66208 32.7087 8.71407 32.7022 8.74982 32.7347C8.78557 32.764 8.78882 32.816 8.75632 32.8517C7.85616 33.8721 7.01125 34.9608 6.24108 36.0819C6.22483 36.1014 6.19884 36.1144 6.17284 36.1144Z" fill="black"/>
<path d="M6.05223 38.6321C6.03599 38.6321 6.01974 38.6289 6.00674 38.6191C5.96774 38.5931 5.95799 38.5412 5.98399 38.5054C7.02713 36.9553 8.15476 35.4345 9.33439 33.9851C9.36364 33.9494 9.41563 33.9461 9.45138 33.9721C9.48712 34.0014 9.49037 34.0534 9.46438 34.0891C8.28475 35.532 7.16037 37.0496 6.12048 38.5964C6.10423 38.6191 6.07823 38.6321 6.05223 38.6321Z" fill="black"/>
<path d="M6.18474 40.6014C6.16849 40.6014 6.149 40.5949 6.136 40.5852C6.10025 40.5592 6.0905 40.5072 6.11975 40.4715L9.60013 35.8049C9.62613 35.7692 9.67813 35.7594 9.71387 35.7887C9.74962 35.8147 9.75937 35.8667 9.73012 35.9057L6.24974 40.5722C6.23349 40.5884 6.21074 40.6014 6.18474 40.6014Z" fill="black"/>
<path d="M6.09008 43.2922C6.07383 43.2922 6.05758 43.289 6.04458 43.2792C6.00559 43.2532 5.99584 43.2045 6.02183 43.1655C7.20796 41.3457 8.46558 39.5421 9.76869 37.8035C9.79469 37.7678 9.84668 37.7613 9.88568 37.7873C9.92142 37.8133 9.92792 37.8653 9.90193 37.9043C8.60206 39.6396 7.34445 41.4399 6.16157 43.2565C6.14532 43.2792 6.11607 43.2922 6.09008 43.2922Z" fill="black"/>
<path d="M8.61328 42.0414C8.59703 42.0414 8.57753 42.0349 8.56453 42.0252C8.52879 41.9992 8.52229 41.9472 8.54828 41.9082L10.0854 39.8934C10.1146 39.8576 10.1666 39.8511 10.2024 39.8771C10.2381 39.9031 10.2446 39.9551 10.2186 39.9941L8.68152 42.0089C8.66202 42.0317 8.63602 42.0414 8.61328 42.0414Z" fill="black"/>
<g opacity="0.1294">
<path d="M11.1607 27.4207C11.1575 27.3784 11.1542 27.3427 11.1542 27.3232C11.125 27.1347 11.1412 26.9105 11.0307 26.748C10.9462 26.6213 10.761 26.5953 10.6343 26.67C10.4653 26.7642 10.4718 26.956 10.5108 27.1185C10.5303 27.3037 10.5335 27.4922 10.5465 27.6807C10.54 27.9244 10.5173 28.3858 10.4003 28.805C10.0818 30.1536 9.35715 30.7678 8.53824 30.9173C8.13853 30.9466 7.97605 30.9823 7.38136 30.9661C7.28712 30.9628 6.91016 30.9271 6.81917 30.9206C6.56894 30.8848 6.31872 30.8426 6.0685 30.8068C5.984 30.7841 5.88652 30.7938 5.81177 30.8393C5.56155 30.9758 5.61354 31.382 5.89301 31.4503C5.98076 31.473 6.06525 31.4958 6.15299 31.5185C6.18223 31.5607 6.22448 31.5932 6.27972 31.6062C6.58844 31.7037 6.89716 31.8142 7.22213 31.837C7.41061 31.8435 7.60234 31.837 7.79082 31.8337C7.97605 31.8435 8.15803 31.8435 8.34326 31.8272C8.35301 31.8272 8.36601 31.8272 8.37575 31.8272C9.22392 31.8662 9.97784 31.3625 10.5238 30.7516C11.099 30.1179 11.3687 28.8895 11.3914 28.3923C11.4272 28.0901 11.4174 27.5637 11.1607 27.4207Z" fill="black"/>
</g>
<g opacity="0.1294">
<path d="M9.8089 36.734C9.89339 38.2906 9.87389 39.8472 9.86739 41.4071C10.0039 41.3063 10.1404 41.2056 10.2769 41.1081C10.5466 40.9099 10.813 40.6986 11.0828 40.4939C11.0113 39.8895 10.9365 39.259 10.878 38.6058C10.7383 37.592 10.5433 35.2587 10.1989 33.6956C10.1176 33.4876 10.0851 33.1984 9.90964 33.0489C9.86089 32.9482 9.81215 32.8474 9.76016 32.75C9.63342 32.5745 9.57493 32.3048 9.35395 32.2333C9.08748 32.152 8.84375 32.4672 8.98999 32.7045C9.8414 33.9231 9.7959 35.1547 9.8089 36.734Z" fill="black"/>
</g>
<path d="M7.86882 32.1296C7.38787 32.1296 6.89717 32.0484 6.42597 31.8826C6.11725 31.7754 5.87678 31.6519 5.6753 31.5024C5.25934 31.1937 4.94737 30.7193 4.72315 30.0563C4.58341 29.6469 4.51192 29.2764 4.50542 28.919C4.49567 28.4867 4.57691 28.0318 4.75564 27.5248C5.05786 26.6702 5.54206 25.9553 6.153 25.4548C6.85492 24.8829 7.73233 24.6034 8.55775 24.6911C9.36366 24.7756 10.1468 25.3346 10.7025 26.2185C11.138 26.9107 11.3687 27.7751 11.3687 28.7142C11.3687 29.0879 11.333 29.4129 11.2582 29.7021C11.0145 30.638 10.2703 31.4634 9.31492 31.8534C8.86971 32.0386 8.37577 32.1296 7.86882 32.1296ZM8.25553 25.1721C7.63484 25.1721 6.99466 25.4093 6.46497 25.8415C5.92227 26.2835 5.49332 26.9237 5.22035 27.6906C5.06111 28.139 4.98962 28.5355 4.99937 28.906C5.00587 29.2114 5.07086 29.5331 5.1911 29.8971C5.38283 30.4593 5.6363 30.8557 5.96777 31.1027C6.13025 31.223 6.32523 31.3204 6.58845 31.4147C7.44311 31.7137 8.36927 31.7072 9.12969 31.3952C9.9421 31.0637 10.5758 30.365 10.7805 29.5786C10.8455 29.3317 10.8748 29.0489 10.8748 28.7175C10.8748 27.8693 10.67 27.0991 10.2833 26.485C10.0591 26.1275 9.43515 25.2858 8.50575 25.1851C8.42126 25.1786 8.34002 25.1721 8.25553 25.1721Z" fill="black"/>
<path d="M5.01887 44.7114C4.97662 44.7114 4.93112 44.6984 4.89213 44.6756C4.81414 44.6301 4.76864 44.5457 4.77189 44.4579C4.85313 41.2862 5.02861 38.4233 5.31458 35.7098C5.41857 34.7349 5.54856 33.7958 6.02951 32.9964C6.50071 32.2132 7.49186 31.4788 8.56099 31.7193C9.63013 31.9597 10.3386 33.0256 10.6635 34.8877C10.9495 36.5157 11.1835 38.2706 11.3979 40.4186C11.4077 40.5063 11.3687 40.5908 11.3005 40.6428C11.1737 40.7371 11.0502 40.8313 10.9267 40.9255C10.7578 41.0555 10.592 41.1823 10.423 41.3057C10.2248 41.452 10.0266 41.595 9.82836 41.7412C9.38641 42.0207 8.95745 42.2936 8.5285 42.5634C7.9858 42.9013 7.44636 43.2425 6.90367 43.5805C6.35772 43.9217 5.81178 44.2629 5.26584 44.6041C5.25284 44.6139 5.23334 44.6301 5.22034 44.6366L5.14235 44.6821C5.10336 44.7016 5.06111 44.7114 5.01887 44.7114ZM8.15479 32.1677C7.46261 32.1677 6.79968 32.6779 6.45521 33.2498C6.02626 33.9648 5.90927 34.8097 5.80853 35.7618C5.53881 38.3323 5.36658 41.0328 5.27884 44.0095C5.73379 43.7267 6.18874 43.4408 6.64045 43.158C7.18314 42.8201 7.72258 42.4821 8.26528 42.1442C8.69423 41.8744 9.12319 41.6047 9.54889 41.3317C9.73412 41.1953 9.93235 41.0523 10.1306 40.906C10.2963 40.7825 10.462 40.6591 10.6278 40.5323C10.7155 40.4641 10.8065 40.3958 10.8942 40.3276C10.683 38.2576 10.4555 36.5515 10.1793 34.9722C9.8901 33.3246 9.31167 32.3919 8.457 32.2002C8.35302 32.1807 8.25228 32.1677 8.15479 32.1677Z" fill="black"/>
<g opacity="0.1294">
<path d="M45.4868 27.7388C45.1748 27.7973 45.1521 28.1158 45.1196 28.3725C45.1618 28.1353 45.1033 28.4863 45.0773 28.639C44.8888 29.4319 44.6809 29.8381 44.3981 30.1176C43.9562 30.5433 42.8416 30.982 42.3834 31.0048C42.3639 31.0048 42.3574 31.0048 42.3574 31.0048C42.2924 30.9918 42.1851 30.969 42.1364 30.956C41.9804 30.9235 41.8179 30.8943 41.6554 30.904C41.6067 30.9073 41.5612 30.9105 41.5319 30.9138C41.389 30.9138 41.2395 30.8878 41.1062 30.9398C40.6155 31.0892 40.726 31.8497 41.2362 31.8692C41.7659 31.9114 41.3142 31.9114 41.9154 31.9277C42.0519 31.9212 42.1851 31.9082 42.3216 31.8952C42.8871 31.8854 43.511 31.7652 44.2682 31.4175C45.3048 30.891 45.8995 29.7309 45.9905 28.6033C45.9937 28.1938 46.0815 27.7064 45.4868 27.7388Z" fill="black"/>
</g>
<g opacity="0.1294">
<path d="M43.6831 37.1311C43.7091 38.0345 43.6409 38.9379 43.6896 39.8381C43.7384 40.8032 43.8684 41.5214 43.8391 43.2275C43.8326 43.3445 43.8261 43.4517 43.8164 43.5492C43.9853 43.6694 44.1511 43.7897 44.3201 43.9132C44.541 44.0757 44.762 44.2381 44.983 44.4006C44.9797 44.2056 44.9797 44.0074 44.9472 43.8222C44.892 43.4062 44.8952 43.3932 44.879 43.2535C44.8822 42.4833 44.9797 40.1208 44.8985 38.8112C44.8822 37.9955 44.8043 36.9687 44.762 36.4747C44.723 35.568 44.6678 34.6581 44.45 33.7742C44.2973 33.186 44.0601 32.4939 43.5824 32.1007C43.2119 31.8992 42.8317 32.3996 43.1144 32.7083C44.0341 33.849 43.7839 35.2756 43.6831 37.1311Z" fill="black"/>
</g>
<path d="M42.5078 32.0643C41.9456 32.0643 41.3704 31.9505 40.8309 31.723C40.5287 31.5963 40.298 31.4598 40.103 31.2973C39.7066 30.9626 39.4238 30.4719 39.2419 29.796C39.1281 29.38 39.0794 29.0031 39.0924 28.6489C39.1086 28.2167 39.2191 27.7682 39.4271 27.2743C39.7813 26.4391 40.3078 25.7567 40.9479 25.2952C41.6856 24.7655 42.576 24.5413 43.3917 24.6778C44.1911 24.811 44.9385 25.4155 45.439 26.3319C45.8322 27.05 46.0077 27.9242 45.9524 28.8633C45.9297 29.2371 45.8744 29.5588 45.7834 29.8415C45.4845 30.7611 44.6915 31.5411 43.7134 31.8725C43.3364 31.9993 42.9237 32.0643 42.5078 32.0643ZM42.914 25.1327C42.342 25.1327 41.7474 25.3277 41.2372 25.6949C40.6685 26.1044 40.2005 26.7153 39.882 27.466C39.6968 27.9047 39.5993 28.2979 39.5863 28.6684C39.5733 28.9738 39.6188 29.2988 39.7163 29.6693C39.8723 30.2445 40.103 30.6539 40.4182 30.9204C40.571 31.0504 40.7627 31.1609 41.0194 31.2681C41.8546 31.6191 42.7775 31.6678 43.5574 31.4046C44.3893 31.1219 45.062 30.4654 45.3155 29.692C45.3935 29.4483 45.4422 29.1688 45.4617 28.8373C45.5105 27.9924 45.3545 27.2093 45.0068 26.5723C44.8053 26.2019 44.2333 25.3212 43.3104 25.1685C43.1805 25.1425 43.0472 25.1327 42.914 25.1327Z" fill="black"/>
<path d="M45.1327 44.7614C45.0807 44.7614 45.0287 44.7452 44.9865 44.7127C44.7168 44.5112 44.4438 44.3097 44.1708 44.1115C43.5242 43.6403 42.8645 43.1691 42.2113 42.7109C41.8863 42.4834 41.5614 42.2527 41.2396 42.0219C40.4955 41.4922 39.7253 40.9431 38.9486 40.4426C38.8706 40.3906 38.8251 40.2996 38.8381 40.2054C39.0234 38.6358 39.2151 37.0922 39.4848 35.4739C39.6473 34.5087 39.8358 33.5761 40.3622 32.8092C40.8789 32.0552 41.9156 31.3858 42.9685 31.688C44.0213 31.9935 44.6615 33.0984 44.8728 34.9767C45.2367 38.2068 45.3245 41.4565 45.3797 44.5079C45.383 44.6022 45.331 44.6899 45.2465 44.7322C45.2107 44.7549 45.1717 44.7614 45.1327 44.7614ZM39.3483 40.1144C40.0893 40.5986 40.8204 41.1185 41.5289 41.6222C41.8506 41.853 42.1723 42.0804 42.4973 42.3079C43.1537 42.7661 43.8134 43.2406 44.4633 43.715C44.603 43.8158 44.7395 43.9165 44.876 44.0205C44.8175 41.1283 44.7233 38.0704 44.3821 35.0384C44.1936 33.3778 43.6736 32.4127 42.832 32.169C42.0521 31.9447 41.2039 32.4647 40.7717 33.0951C40.3005 33.7808 40.1315 34.6192 39.9723 35.5616C39.7123 37.1117 39.5271 38.6 39.3483 40.1144Z" fill="black"/>
<path d="M23.6656 37.7027C24.3481 37.7092 25.0272 37.706 25.7064 37.6735C26.4018 37.6443 27.094 37.6085 27.7894 37.5858C27.8414 37.5825 27.8934 37.5825 27.9454 37.5793C27.8414 36.5004 27.7375 35.4247 27.6335 34.3459C27.4742 32.6983 27.3052 31.0117 26.5806 29.5234C26.3986 29.1496 26.1711 28.7824 25.8267 28.5517C25.0402 28.022 23.8996 28.4315 23.3212 29.1821C22.7427 29.9328 22.5835 30.9175 22.46 31.8566C22.2033 33.7934 22.0246 35.74 21.9141 37.6898C22.499 37.7027 23.0807 37.6962 23.6656 37.7027Z" fill="#FFB217"/>
<g opacity="0.1294">
<path d="M27.9586 24.3457C27.8189 24.1963 27.5492 24.31 27.5557 24.5115C27.5589 24.7227 27.3509 25.2231 27.2372 25.5904C26.974 26.3183 26.4053 26.9032 25.4791 27.3354C25.1672 27.4557 24.4035 27.6149 23.7081 27.5954C23.5586 27.5922 23.3376 27.5304 22.9931 27.4589C22.9054 27.4362 22.8079 27.4459 22.7299 27.4947C22.4732 27.6344 22.5252 28.0536 22.8111 28.1218C23.9875 28.5053 25.3394 28.2811 26.4053 27.6831C26.831 27.3777 27.2697 27.0332 27.4647 26.5295C27.4614 26.5458 27.4289 26.6075 27.4419 26.5913C27.6076 26.3248 27.7376 26.0388 27.8351 25.7398C27.9489 25.4604 27.9944 24.9794 27.9944 24.8429C28.0041 24.6805 28.0886 24.479 27.9586 24.3457Z" fill="black"/>
</g>
<g opacity="0.1294">
<path d="M26.1004 30.1085C26.1653 30.5407 26.1783 30.5504 26.2466 31.1549C26.2531 31.2881 26.2498 31.4213 26.2531 31.5546C26.2563 31.5383 26.2596 31.5123 26.2628 31.4896C26.2563 31.9088 26.3668 32.3377 26.3798 32.7634C26.4221 34.164 26.4838 35.5614 26.5163 36.962C26.5228 37.1862 26.5326 37.4105 26.5423 37.6347C26.9583 37.6152 27.3775 37.5989 27.7967 37.5827C27.8097 37.5827 27.8259 37.5827 27.8389 37.5827C27.8129 36.4583 27.7609 35.3339 27.6732 34.2128C27.5497 32.601 27.4815 31.6943 27.2865 30.9956C27.1922 30.3067 27.0525 29.9557 26.942 29.725C26.773 29.3188 26.5098 28.9613 26.2173 28.6364C26.0646 28.4869 25.9476 28.2399 25.7071 28.2399C25.4017 28.2302 25.2294 28.6364 25.4537 28.8476C25.9736 29.4455 25.9801 29.608 26.1004 30.1085Z" fill="black"/>
</g>
<path d="M24.644 28.5774C24.163 28.5774 23.6723 28.4961 23.2011 28.3304C22.8891 28.2232 22.6519 28.0997 22.4504 27.9502C22.0345 27.6415 21.7225 27.167 21.4983 26.5041C21.3586 26.0946 21.2871 25.7242 21.2806 25.3667C21.2708 24.9345 21.3521 24.4795 21.5308 23.9726C21.833 23.1179 22.3172 22.403 22.9281 21.9026C23.6301 21.3306 24.5075 21.0512 25.3329 21.1389C26.1388 21.2234 26.922 21.7823 27.4777 22.6662C27.9131 23.3584 28.1438 24.2228 28.1438 25.162C28.1438 25.5357 28.1081 25.8607 28.0334 26.1499C27.7896 27.0858 27.0455 27.9112 26.0901 28.3011C25.6449 28.4864 25.1509 28.5774 24.644 28.5774ZM25.0339 21.6198C24.4132 21.6198 23.7731 21.8571 23.2434 22.2893C22.7007 22.7312 22.2717 23.3714 21.9987 24.1383C21.8395 24.5868 21.768 24.9832 21.7778 25.3537C21.7843 25.6592 21.8493 25.9809 21.9695 26.3449C22.1612 26.907 22.4147 27.3035 22.7462 27.5505C22.9086 27.6707 23.1036 27.7682 23.3668 27.8624C24.2215 28.1614 25.1477 28.1549 25.9081 27.8429C26.7205 27.5115 27.3542 26.8128 27.5589 26.0264C27.6239 25.7794 27.6531 25.4967 27.6531 25.1652C27.6531 24.3171 27.4484 23.5469 27.0617 22.9327C26.8375 22.5752 26.2135 21.7336 25.2841 21.6328C25.1997 21.6263 25.1152 21.6198 25.0339 21.6198Z" fill="black"/>
<path d="M24.1822 37.9537C24.0132 37.9537 23.841 37.9537 23.6623 37.9504C23.412 37.9472 23.1618 37.9472 22.9116 37.9472C22.5769 37.9472 22.2422 37.9439 21.9107 37.9407C21.8425 37.9407 21.7807 37.9114 21.7352 37.8627C21.6897 37.8139 21.667 37.749 21.6702 37.6807C21.771 35.7179 21.9075 33.9111 22.0927 32.1595C22.1934 31.1846 22.3267 30.2455 22.8076 29.4461C23.2788 28.6629 24.2732 27.9285 25.3391 28.169C26.4082 28.4094 27.1134 29.4753 27.4416 31.3374C27.7601 33.1474 28.0136 35.1232 28.2475 37.5605C28.254 37.6287 28.2313 37.697 28.1858 37.749C28.1403 37.801 28.0753 37.8302 28.0071 37.8334L27.7991 37.8399C27.2921 37.8562 26.7852 37.8789 26.2782 37.9017L25.7193 37.9277C25.2384 37.9439 24.7314 37.9537 24.1822 37.9537ZM22.1739 37.45C22.4209 37.4532 22.6646 37.4532 22.9116 37.4532C23.1618 37.4532 23.4153 37.4532 23.6655 37.4565C24.4129 37.463 25.0759 37.4565 25.6933 37.4272L26.2522 37.4012C26.7429 37.3785 27.2336 37.3557 27.7243 37.3395C27.5001 35.0387 27.2531 33.1507 26.9477 31.4186C26.6585 29.771 26.08 28.8416 25.2254 28.6499C24.4324 28.4712 23.62 29.0431 23.2268 29.6995C22.7979 30.4145 22.6809 31.2594 22.5801 32.2115C22.4079 33.8754 22.2747 35.5912 22.1739 37.45Z" fill="black"/>
<path d="M1.09303 47.5032C0.985787 47.5032 0.888298 47.4317 0.855801 47.331C0.823304 47.227 0.8623 47.1133 0.953291 47.0515C4.1802 44.9003 6.97816 43.009 9.44465 41.3419C11.4042 40.0193 13.2533 38.7714 14.9496 37.6373C14.9886 37.6113 15.0373 37.595 15.0828 37.595C18.5729 37.5528 22.1606 37.491 25.628 37.4358C28.6566 37.3838 31.7926 37.3318 34.8895 37.2896C34.9317 37.2896 34.9805 37.2993 35.0195 37.3253C38.0352 39.0996 41.0671 41.3191 43.9983 43.4639C45.7303 44.7313 47.3682 45.9304 49.0125 47.0515C49.1035 47.1133 49.1425 47.2238 49.11 47.3277C49.0775 47.4317 48.9833 47.5032 48.8728 47.5032C48.3073 47.5032 46.7735 47.4935 44.6547 47.4772C35.2437 47.409 13.2013 47.2465 1.09628 47.5032C1.09628 47.5032 1.09628 47.5032 1.09303 47.5032ZM19.4211 46.8663C29.1408 46.8663 39.101 46.941 44.6612 46.98C46.1171 46.9898 47.2967 46.9995 48.0766 47.0028C46.6338 45.9986 45.1519 44.9165 43.7123 43.8604C40.8104 41.7351 37.8109 39.5383 34.8342 37.7835C31.7601 37.8257 28.6501 37.8777 25.6442 37.9265C22.1996 37.985 18.6379 38.0435 15.1706 38.0857C13.4905 39.2068 11.6642 40.4417 9.73062 41.7481C7.44286 43.2917 4.87563 45.027 1.94119 46.9865C6.78968 46.8988 13.055 46.8663 19.4211 46.8663Z" fill="black"/>
<path d="M41.7528 50.0004C35.5849 50.0004 24.3444 49.9647 4.10225 49.8607C2.32794 49.8509 1.2328 49.8444 1.09307 49.8444C1.02482 49.8444 0.95983 49.8152 0.914335 49.7665C0.86884 49.7177 0.842843 49.6495 0.846092 49.5845C0.891587 48.7428 0.891587 48.0246 0.846092 47.3942C0.836343 47.2577 0.940332 47.1407 1.07682 47.131C1.21005 47.118 1.33029 47.2252 1.34004 47.3617C1.38229 47.9499 1.38554 48.6031 1.35304 49.3537C1.79499 49.357 2.75364 49.3602 4.1055 49.3667C31.8251 49.5097 46.7898 49.5455 48.6453 49.4707C48.6681 49.058 48.6551 48.5673 48.6421 48.0896C48.6323 47.7907 48.6258 47.5079 48.6291 47.2577C48.6291 47.1212 48.7396 47.0107 48.8761 47.0107C48.8761 47.0107 48.8761 47.0107 48.8793 47.0107C49.0158 47.0107 49.1263 47.1245 49.1263 47.261C49.123 47.5014 49.1328 47.7809 49.1393 48.0766C49.1555 48.6518 49.1718 49.2465 49.123 49.7275C49.1133 49.8249 49.0483 49.9062 48.9573 49.9387C48.8468 49.9679 47.5047 50.0004 41.7528 50.0004Z" fill="black"/>
<path d="M9.0642 21.0713C9.99685 19.5245 10.1203 17.5162 9.38592 15.8653C8.90497 14.7832 8.0958 13.8831 7.44912 12.8919C6.80244 11.9008 6.29874 10.7114 6.55221 9.45377C6.7147 8.57311 6.93892 7.6957 7.30938 6.88004C8.27778 4.73851 10.1951 3.12018 12.3366 2.14853C14.4781 1.17688 16.8406 0.799922 19.2129 0.585445C21.4422 0.422962 23.6779 0.312474 25.9137 0.289726C28.6142 0.263729 31.3861 0.380716 33.8689 1.42711C35.0907 1.9373 36.2086 2.71722 37.0535 3.73761C37.8984 4.75801 38.4606 6.02538 38.5484 7.35124C39.0651 7.59171 39.5005 7.98167 39.871 8.41712C41.0798 9.82423 41.6583 11.7545 41.4243 13.5938C41.1903 15.4331 40.1504 17.1587 38.6296 18.2213C38.5191 18.2993 38.4021 18.3806 38.3501 18.5041C38.3079 18.6113 38.3241 18.7348 38.3404 18.8485C38.4931 19.8754 38.6459 20.9023 38.7206 21.9487C38.1357 21.562 37.645 21.0518 37.1023 20.6098C35.5977 19.3912 33.6641 18.712 31.6851 18.7283C30.1155 18.7608 28.5622 19.0435 26.9991 19.1962C25.436 19.349 23.8242 19.3652 22.3326 18.8745C20.841 18.3871 19.4696 17.3277 18.8587 15.8686C16.9739 15.5696 15.0338 16.1968 13.4187 17.214C11.8069 18.2311 10.4616 19.6154 9.0642 21.0713Z" fill="#FFB217"/>
<g opacity="0.1294">
<path d="M41.5319 12.1484C41.4604 11.297 41.2361 10.4651 40.9404 9.66567C40.6999 9.45119 40.5147 9.17822 40.3555 8.8825C40.2742 8.72652 40.1962 8.57053 40.1183 8.41455C39.7965 8.55429 40.0598 8.94425 40.1085 9.19122C40.2515 9.67217 40.3977 10.1564 40.5017 10.6471C40.6772 11.336 40.6577 12.2037 40.5472 12.7171C40.492 13.4125 40.1897 14.5564 39.8713 15.1218C39.2051 16.1292 38.9679 16.4542 38.24 17.2991C38.188 17.3219 38.136 17.3544 38.0905 17.3999C38.0125 17.4779 37.941 17.5623 37.8727 17.6501C37.6583 17.7768 37.5608 17.8256 37.2423 17.9101C36.7906 18.014 36.7159 18.053 36.1439 18.014C36.0952 18.0075 36.0302 17.9978 35.9944 17.988C35.793 17.9685 35.5785 17.8678 35.377 17.8906C35.286 17.8613 35.1853 17.8353 35.0748 17.8061C34.5548 17.6566 34.0284 17.5331 33.489 17.4778C31.7406 17.2894 29.7811 17.6956 29.2319 17.7443C28.2278 17.8256 26.3332 17.8548 25.927 17.975C25.1731 18.014 24.4192 17.9231 23.6685 17.9101C23.5385 17.9003 23.4085 17.8906 23.2785 17.8743C23.1973 17.8613 23.116 17.8483 23.0381 17.8288C22.0209 17.5493 21.5855 17.3349 20.6008 16.7044C20.2466 16.4965 20.1166 16.4022 19.8826 16.152C21.2702 16.152 22.6578 16.191 24.0422 16.113C25.9985 15.9765 27.9613 15.918 29.9176 15.7523C31.5327 15.7133 33.3232 15.2941 34.2949 14.8651C35.6012 14.3289 37.0928 13.3118 37.8857 11.4075C38.0807 10.9135 38.2107 10.3903 38.3569 9.88015C38.3959 9.72416 38.4317 9.56818 38.4512 9.40895C38.4252 9.64617 38.4934 9.28221 38.4057 9.19772C38.3927 9.17172 38.3732 9.14897 38.3537 9.12948C38.3082 9.23347 38.2595 9.33745 38.214 9.44144C38.019 9.86715 37.7818 10.2409 37.4795 10.5983C37.2196 10.907 37.0083 11.2548 36.7126 11.531C36.7029 11.5407 36.6899 11.5505 36.6769 11.5635C36.3194 12.0282 36.0009 12.2849 35.3413 12.7658C35.1105 12.9348 33.5929 14.03 31.1947 14.2152C30.7365 14.2509 30.2815 14.3062 29.8168 14.3029C29.7129 14.3029 28.6015 14.4199 28.0263 14.4914C27.0709 14.6149 26.1057 14.6376 25.1438 14.6864C23.8147 14.8229 22.4791 14.8456 21.1435 14.8554C20.2531 14.8651 19.3627 14.7839 18.4723 14.8066C17.5624 14.8261 16.6557 14.9431 15.7653 15.1316C14.8294 15.3818 14.1112 15.5411 13.0031 16.1097C12.4539 16.3957 11.9372 16.7337 11.4335 17.0911C11.1183 17.3446 10.7446 17.5851 10.5561 17.9523C10.5756 17.9068 10.5756 17.8873 10.5009 18.001C10.2604 18.365 10.3026 18.2415 10.1921 18.4657C10.1986 18.4462 10.2084 18.43 10.2149 18.4138C9.97767 18.807 9.6982 19.1677 9.42848 19.5349C9.39923 19.6779 9.36998 19.8176 9.34074 19.9606C9.32449 20.0418 9.30824 20.1231 9.29199 20.2043C9.40248 20.4155 9.6592 20.5455 9.89318 20.4935C10.1921 20.1003 10.5204 19.7299 10.8746 19.3789C11.3815 18.8817 11.9145 18.417 12.4604 17.9653C13.0388 17.4876 13.6205 17.0781 14.3127 16.7824C14.9951 16.49 15.7133 16.2397 16.4412 16.0902C16.8117 16.0155 17.1854 15.9603 17.5624 15.9213C17.9458 15.8823 18.3325 15.8855 18.716 15.8465C19.0442 15.814 19.1482 16.191 19.028 16.425C19.2619 16.7239 19.1872 16.6719 19.6324 17.1691C20.4383 17.9588 21.6829 18.5957 22.3264 18.8265C23.207 19.1352 24.1559 19.1904 25.0788 19.2359C26.7849 19.2392 26.2162 19.1222 27.4576 19.0442C28.3317 18.9304 29.2189 18.9012 30.0866 18.742C31.1914 18.6477 32.3028 18.599 33.411 18.6152C34.1226 18.677 34.0804 18.5892 35.0618 18.9239C35.0618 18.9239 35.065 18.9239 35.065 18.9272C35.2015 19.0019 35.143 18.9499 35.0585 18.8915C35.4128 19.1417 35.2178 18.9629 35.6337 19.1839C35.9392 19.3529 36.0919 19.4179 36.2382 19.4829C36.2284 19.5024 36.2187 19.5251 36.2122 19.5446C36.6964 19.8534 37.1286 20.2531 37.5218 20.6625C37.7785 20.9322 38.0287 21.202 38.2854 21.4717C38.2887 21.4749 38.2919 21.4782 38.2952 21.4814C38.6494 21.5237 38.8996 21.15 38.7014 20.8607C38.6884 20.8315 38.6754 20.8023 38.6624 20.773C38.6039 20.1946 38.4642 20.2336 38.3309 19.5771C38.2497 19.3009 38.3504 18.9077 38.4089 18.6445C38.4154 18.612 38.4252 18.5827 38.4349 18.5535C38.4447 18.534 38.4609 18.5015 38.4804 18.4625C38.6527 18.1928 38.5162 18.3683 38.7826 18.092C38.8704 18.001 38.9126 17.9003 38.9256 17.8028C39.2344 17.4876 39.5723 17.1984 39.868 16.8702C40.3717 16.256 40.7389 15.5541 41.0379 14.8229C41.0444 14.8099 41.0509 14.7936 41.0574 14.7741C41.0282 14.8456 41.3076 14.1892 41.3434 14.0495C41.4929 13.4288 41.5644 12.7853 41.5319 12.1484Z" fill="black"/>
</g>
<path d="M8.8179 21.5842C8.76266 21.5842 8.70741 21.5647 8.66192 21.5289C8.56443 21.4509 8.54168 21.3112 8.60993 21.2039C9.69206 19.4816 9.7733 17.2069 8.8179 15.4098C8.56118 14.9289 8.22971 14.4707 7.90475 14.0287C7.54404 13.5347 7.17358 13.0246 6.89086 12.4591C5.15229 8.99498 7.37505 4.76067 10.4297 2.82387C13.6339 0.789584 17.7317 0.493865 21.0236 0.25664C24.3708 0.0129157 27.8382 -0.237308 31.2536 0.422373C33.5998 0.874075 35.3644 1.68649 36.6447 2.90186C38.1298 4.31222 38.9 6.50899 38.705 8.78375C38.51 11.0585 37.3759 13.0928 35.6698 14.2269C33.2813 15.816 30.1877 15.8485 27.6984 15.8713L20.5394 15.9427C18.5994 15.9622 16.3994 15.985 14.5211 16.8299C12.8312 17.5903 11.4924 18.9682 10.1958 20.3005C9.80255 20.7035 9.39634 21.1227 8.98689 21.5159C8.94139 21.5614 8.87965 21.5842 8.8179 21.5842ZM26.3498 0.493865C24.5723 0.493865 22.7979 0.623852 21.0561 0.747339C17.6505 0.997563 13.7931 1.27703 10.693 3.24308C7.82026 5.06614 5.71448 9.02422 7.32956 12.2381C7.59278 12.7646 7.95349 13.2585 8.30121 13.7362C8.63267 14.1912 8.97714 14.6624 9.25011 15.1758C10.0625 16.6967 10.186 18.5327 9.64332 20.1576C9.70831 20.0893 9.77655 20.0211 9.84155 19.9561C11.1707 18.5912 12.5453 17.1776 14.3196 16.3782C16.2921 15.4878 18.5474 15.4683 20.5362 15.4488L27.6984 15.3773C30.1194 15.3546 33.1319 15.3253 35.3969 13.8142C36.9762 12.7613 38.0291 10.8635 38.2111 8.7415C38.3931 6.61622 37.6814 4.56894 36.3035 3.26258C35.0914 2.1122 33.4081 1.34528 31.1561 0.909822C29.5702 0.601104 27.9584 0.493865 26.3498 0.493865Z" fill="black"/>
<path d="M38.8903 22.5013C38.8221 22.5013 38.7571 22.472 38.7083 22.42C37.7887 21.4159 36.8398 20.376 35.6211 19.7488C33.7851 18.7999 31.5428 18.9234 29.7913 19.1379C29.3883 19.1866 28.9853 19.2451 28.5791 19.3003C26.9705 19.5246 25.3035 19.7585 23.6591 19.5376C21.8523 19.2971 19.4768 18.2345 18.7262 16.0344C18.6807 15.9045 18.7522 15.7647 18.8789 15.7192C19.0089 15.6737 19.1486 15.7452 19.1941 15.872C19.8733 17.8575 22.0603 18.8226 23.7241 19.0436C25.3035 19.2549 26.9348 19.0274 28.5109 18.8064C28.9171 18.7479 29.3233 18.6927 29.7295 18.6439C31.5493 18.4197 33.8923 18.2962 35.8486 19.3068C36.882 19.843 37.7464 20.6652 38.5101 21.4776L38.1364 19.1899C38.0974 18.9526 38.0454 18.6244 38.1949 18.3319C38.3021 18.124 38.4808 17.994 38.6368 17.8802L38.6661 17.8575C40.2649 16.6811 41.2528 14.7216 41.2528 12.736C41.2496 10.7537 40.2552 8.7942 38.6531 7.62107C38.5426 7.53983 38.5198 7.38709 38.5978 7.27661C38.6791 7.16612 38.8318 7.14337 38.9423 7.22136C40.6679 8.48223 41.7403 10.5945 41.7435 12.7328C41.7468 14.8711 40.6776 16.9866 38.9553 18.254L38.926 18.2767C38.8026 18.3677 38.6856 18.4554 38.6303 18.5594C38.5588 18.6959 38.5848 18.8909 38.6206 19.1086L39.1308 22.2088C39.147 22.316 39.0918 22.4233 38.9943 22.472C38.965 22.4948 38.9293 22.5013 38.8903 22.5013Z" fill="black"/>
<path d="M16.9737 9.98593C16.2003 9.98593 15.5698 9.35549 15.5698 8.58208C15.5698 7.80866 16.2003 7.17822 16.9737 7.17822C17.7471 7.17822 18.3775 7.80866 18.3775 8.58208C18.3775 9.35549 17.7471 9.98593 16.9737 9.98593ZM16.9737 7.67542C16.4732 7.67542 16.067 8.08163 16.067 8.58208C16.067 9.08252 16.4732 9.48873 16.9737 9.48873C17.4741 9.48873 17.8803 9.08252 17.8803 8.58208C17.8803 8.08488 17.4741 7.67542 16.9737 7.67542Z" fill="black"/>
<path d="M22.483 9.98593C21.7095 9.98593 21.0791 9.35549 21.0791 8.58208C21.0791 7.80866 21.7095 7.17822 22.483 7.17822C23.2564 7.17822 23.8868 7.80866 23.8868 8.58208C23.8868 9.35549 23.2564 9.98593 22.483 9.98593ZM22.483 7.67542C21.9825 7.67542 21.5763 8.08163 21.5763 8.58208C21.5763 9.08252 21.9825 9.48873 22.483 9.48873C22.9834 9.48873 23.3896 9.08252 23.3896 8.58208C23.3929 8.08488 22.9834 7.67542 22.483 7.67542Z" fill="black"/>
<path d="M28.0425 9.98593C27.2691 9.98593 26.6387 9.35549 26.6387 8.58208C26.6387 7.80866 27.2691 7.17822 28.0425 7.17822C28.8159 7.17822 29.4464 7.80866 29.4464 8.58208C29.4464 9.35549 28.8159 9.98593 28.0425 9.98593ZM28.0425 7.67542C27.5421 7.67542 27.1359 8.08163 27.1359 8.58208C27.1359 9.08252 27.5421 9.48873 28.0425 9.48873C28.543 9.48873 28.9492 9.08252 28.9492 8.58208C28.9492 8.08488 28.543 7.67542 28.0425 7.67542Z" fill="black"/>
</svg>
