<svg width="70" height="50" viewBox="0 0 70 50" fill="none" xmlns="http://www.w3.org/2000/svg">
<path d="M53.3741 4.7417H1.27295V46.845H53.3741V4.7417Z" fill="white"/>
<path d="M53.3742 47.2099H1.27299C1.07213 47.2099 0.908936 47.0462 0.908936 46.8448V4.74152C0.908936 4.54011 1.07213 4.37646 1.27299 4.37646H53.3742C53.575 4.37646 53.7382 4.54011 53.7382 4.74152V46.8448C53.7382 47.0462 53.575 47.2099 53.3742 47.2099ZM1.63704 46.4798H53.0101V5.10658H1.63704V46.4798Z" fill="black"/>
<path d="M53.3741 0.364746H1.27295V7.42252H53.3741V0.364746Z" fill="#FFB217"/>
<path d="M53.3742 7.78789H1.27299C1.07213 7.78789 0.908936 7.62425 0.908936 7.42283V0.365057C0.908936 0.163646 1.07213 0 1.27299 0H53.3742C53.575 0 53.7382 0.163646 53.7382 0.365057V7.42283C53.7382 7.62425 53.575 7.78789 53.3742 7.78789ZM1.63704 7.05778H53.0101V0.730115H1.63704V7.05778Z" fill="black"/>
<path d="M9.76733 15.7726C9.76733 15.0592 10.3448 14.4844 11.052 14.4844C11.7592 14.4844 12.3366 15.0634 12.3366 15.7726C12.3366 16.4859 11.7592 17.0608 11.052 17.0608C10.3448 17.0608 9.76733 16.4817 9.76733 15.7726Z" fill="white"/>
<path d="M11.0562 17.4261C10.1481 17.4261 9.40747 16.6834 9.40747 15.7729C9.40747 14.8623 10.1481 14.1196 11.0562 14.1196C11.9642 14.1196 12.7049 14.8623 12.7049 15.7729C12.7049 16.6834 11.9642 17.4261 11.0562 17.4261ZM11.0562 14.8497C10.5498 14.8497 10.1356 15.2652 10.1356 15.7729C10.1356 16.2806 10.5498 16.696 11.0562 16.696C11.5625 16.696 11.9768 16.2806 11.9768 15.7729C11.9768 15.261 11.5625 14.8497 11.0562 14.8497Z" fill="black"/>
<path d="M15.9941 15.7726C15.9941 15.0592 16.5716 14.4844 17.2788 14.4844C17.9901 14.4844 18.5634 15.0634 18.5634 15.7726C18.5634 16.4859 17.986 17.0608 17.2788 17.0608C16.5674 17.0608 15.9941 16.4817 15.9941 15.7726Z" fill="white"/>
<path d="M17.2788 17.4261C16.3708 17.4261 15.6301 16.6834 15.6301 15.7729C15.6301 14.8623 16.3708 14.1196 17.2788 14.1196C18.1869 14.1196 18.9275 14.8623 18.9275 15.7729C18.9275 16.6834 18.1869 17.4261 17.2788 17.4261ZM17.2788 14.8497C16.7725 14.8497 16.3582 15.2652 16.3582 15.7729C16.3582 16.2806 16.7725 16.696 17.2788 16.696C17.7851 16.696 18.1994 16.2806 18.1994 15.7729C18.1994 15.261 17.7851 14.8497 17.2788 14.8497Z" fill="black"/>
<path d="M22.2161 15.7726C22.2161 15.0592 22.7935 14.4844 23.5007 14.4844C24.2121 14.4844 24.7853 15.0634 24.7853 15.7726C24.7853 16.4859 24.2079 17.0608 23.5007 17.0608C22.7935 17.0608 22.2161 16.4817 22.2161 15.7726Z" fill="white"/>
<path d="M23.5007 17.4261C22.5927 17.4261 21.8521 16.6834 21.8521 15.7729C21.8521 14.8623 22.5927 14.1196 23.5007 14.1196C24.4088 14.1196 25.1494 14.8623 25.1494 15.7729C25.1494 16.6834 24.413 17.4261 23.5007 17.4261ZM23.5007 14.8497C22.9944 14.8497 22.5802 15.2652 22.5802 15.7729C22.5802 16.2806 22.9944 16.696 23.5007 16.696C24.0071 16.696 24.4213 16.2806 24.4213 15.7729C24.4213 15.261 24.0113 14.8497 23.5007 14.8497Z" fill="black"/>
<path d="M10.5668 35.3144C10.4622 35.3144 10.3617 35.2724 10.2906 35.1843C10.1609 35.0291 10.1818 34.7983 10.3324 34.6682L19.1952 27.1572C19.3166 27.0565 19.4881 27.044 19.622 27.1279L28.6396 32.78L42.4736 16.4069C42.5405 16.3272 42.6368 16.2811 42.7414 16.2769C42.8502 16.2769 42.9464 16.3146 43.0176 16.3943L48.9261 22.743C49.0642 22.8898 49.0558 23.1206 48.9093 23.2591C48.7629 23.3976 48.5327 23.3892 48.3946 23.2423L42.7665 17.1916L28.9953 33.4933C28.8781 33.6318 28.6773 33.6611 28.5266 33.5688L19.463 27.8874L10.8011 35.2263C10.7342 35.285 10.6505 35.3144 10.5668 35.3144Z" fill="black"/>
<path d="M19.3665 43.6515C19.2995 43.6515 19.2451 43.5969 19.2451 43.5298V27.8155C19.2451 27.7484 19.2995 27.6938 19.3665 27.6938C19.4334 27.6938 19.4878 27.7484 19.4878 27.8155V43.5256C19.4878 43.5969 19.4334 43.6515 19.3665 43.6515Z" fill="black"/>
<path d="M11.751 43.6513C11.684 43.6513 11.6296 43.5967 11.6296 43.5296L11.7217 33.5514C11.7217 33.4842 11.7761 33.4297 11.843 33.4297C11.91 33.4297 11.9644 33.4842 11.9644 33.5514L11.8723 43.5296C11.8723 43.5967 11.8179 43.6513 11.751 43.6513Z" fill="black"/>
<path d="M28.6397 43.694C28.5727 43.694 28.5183 43.6394 28.5183 43.5723L28.6104 32.9689C28.6104 32.9017 28.6648 32.8472 28.7317 32.8472C28.7987 32.8472 28.8531 32.9017 28.8531 32.9689L28.761 43.5723C28.7568 43.6394 28.7066 43.694 28.6397 43.694Z" fill="black"/>
<path d="M42.7036 43.53C42.6367 43.53 42.5823 43.4755 42.5823 43.4084L42.6743 16.6459C42.6743 16.5787 42.7287 16.5242 42.7957 16.5242C42.8626 16.5158 42.917 16.5787 42.917 16.6459L42.825 43.4084C42.825 43.4755 42.7706 43.53 42.7036 43.53Z" fill="black"/>
<g opacity="0.1294">
<path d="M52.303 7.54922C51.1021 7.54503 49.9011 7.4695 48.7002 7.42334C44.2604 7.23452 39.8123 7.4611 35.3725 7.27228C32.8409 7.12962 30.3093 7.10024 27.7735 7.16738C24.2878 7.12542 20.8021 7.12122 17.3164 7.02891C14.9982 6.91562 12.6884 7.17158 10.3702 7.17577C8.0938 7.28487 5.80488 7.1422 3.53689 7.37718C2.92176 7.44432 2.31501 7.52824 1.70408 7.63314C1.44882 7.70028 1.23541 7.87232 1.10151 8.09891C0.645397 8.85 1.39024 9.83608 2.23969 9.58431C2.95942 9.47941 3.69171 9.36612 4.98054 9.33255C6.56228 9.32835 8.14402 9.39549 9.72576 9.33674C11.6506 9.33674 13.5671 9.21086 15.492 9.1689C17.1867 9.15212 18.8773 9.24023 20.572 9.24863C23.0408 9.24443 25.5055 9.29478 27.9743 9.29478C29.4013 9.28639 30.8282 9.17729 32.2551 9.21506C36.0504 9.34514 39.8416 9.45004 43.6369 9.39968C45.8296 9.41227 48.0223 9.45423 50.2108 9.53815C50.784 9.55494 51.3573 9.58012 51.9306 9.56333C52.3156 9.57172 52.7298 9.56753 53.0102 9.26541C53.6337 8.66118 53.1818 7.52824 52.303 7.54922Z" fill="black"/>
</g>
<g opacity="0.1294">
<path d="M12.7428 16.8807C12.5586 16.3604 11.8096 16.2849 11.479 16.7087C11.4749 16.7129 11.4749 16.7129 11.4707 16.7129C11.4246 16.7464 11.3786 16.7758 11.3284 16.8052C11.2698 16.8262 11.2071 16.8429 11.1443 16.8555C11.1317 16.8555 11.1234 16.8555 11.1108 16.8597C11.0857 16.8597 11.0606 16.8555 11.0355 16.8555C11.0104 16.8513 10.9811 16.8429 10.9476 16.8345C10.8807 16.8178 10.8304 16.7968 10.797 16.7884C10.7593 16.7674 10.7217 16.7464 10.684 16.7254C10.638 16.6793 10.5877 16.6373 10.525 16.5996C9.96007 16.2135 9.19431 16.7758 9.38261 17.4346C9.55836 17.9591 10.1819 18.1899 10.6798 18.3074C11.4498 18.5298 13.1361 17.8668 12.7428 16.8807Z" fill="black"/>
</g>
<g opacity="0.1294">
<path d="M19.1365 16.8137C18.9775 16.3606 18.3289 16.2431 18.0067 16.5871C17.969 16.6249 17.9314 16.6585 17.8895 16.6962C17.877 16.7046 17.8686 16.713 17.8519 16.7214C17.5882 16.8389 17.6343 16.8179 17.2911 16.8515C17.2451 16.8515 17.2033 16.8473 17.1572 16.8431C17.107 16.8305 17.0526 16.8137 17.015 16.8011C16.9396 16.7634 16.8643 16.7256 16.7932 16.6795C16.7806 16.6711 16.7723 16.6669 16.7639 16.6585C16.6802 16.5829 16.6049 16.5032 16.4961 16.4738C15.8391 16.1633 15.2366 17.0739 15.7554 17.5732C16.3622 18.19 17.2786 18.3663 18.0946 18.1271C18.6218 17.9551 19.4211 17.4767 19.1365 16.8137Z" fill="black"/>
</g>
<g opacity="0.1294">
<path d="M25.3213 16.9521C25.1916 16.4654 24.5723 16.3269 24.2124 16.6416C24.1664 16.671 24.1162 16.6962 24.0659 16.7171C24.0408 16.7297 24.0157 16.7381 23.9906 16.7507C23.9655 16.7591 23.8986 16.7843 23.8232 16.8053C23.7939 16.8137 23.7647 16.8178 23.7395 16.8262C23.681 16.8262 23.6224 16.8262 23.5638 16.822C23.2207 16.7507 23.2249 16.7213 23.1286 16.6794C22.8273 16.5199 22.5051 16.2514 22.1411 16.3521C21.5971 16.4822 21.4925 17.2836 21.9862 17.5522C22.2708 17.6864 22.5177 17.8878 22.819 17.9927C23.1579 18.1186 23.5303 18.1522 23.8902 18.1354C24.5179 18.1102 25.5138 17.7452 25.3213 16.9521Z" fill="black"/>
</g>
<path d="M53.696 38.1418C56.0352 40.4497 58.3701 42.7533 60.7093 45.0611C61.9437 46.278 63.1823 47.499 64.5255 48.5564C65.2494 49.1271 66.0571 49.6642 66.94 49.6642C67.8229 49.6642 68.7602 48.9173 68.7561 47.9186C68.7519 47.1382 68.2121 46.513 67.7099 45.9801C63.9899 42.0442 60.0983 38.3097 56.0561 34.8018C55.3154 35.8843 54.5748 36.9753 53.696 38.1418Z" fill="white"/>
<path d="M66.9441 50.0003C65.9565 50.0003 65.1029 49.4338 64.3204 48.8212C62.9604 47.7512 61.6967 46.5049 60.4749 45.3007L53.4616 38.3814C53.3403 38.2639 53.3277 38.075 53.4282 37.9408C54.3027 36.7827 55.0517 35.6833 55.7757 34.6217C55.8301 34.542 55.9179 34.4874 56.0142 34.4748C56.1104 34.4622 56.2067 34.4874 56.2778 34.5504C60.3117 38.0541 64.2367 41.8221 67.9526 45.7538C68.5007 46.3329 69.0824 47.0252 69.0907 47.9232C69.0949 48.4435 68.8815 48.947 68.4924 49.3415C68.0781 49.7527 67.5006 50.0003 66.9441 50.0003ZM54.1395 38.1086L60.9435 44.8223C62.1528 46.014 63.3998 47.2476 64.7347 48.2925C65.4209 48.8296 66.1616 49.3289 66.9441 49.3289C67.3249 49.3289 67.7308 49.1527 68.0195 48.8589C68.2789 48.5946 68.4254 48.2631 68.4212 47.919C68.417 47.2644 67.9484 46.7147 67.4672 46.207C63.8559 42.3844 60.0397 38.717 56.123 35.2973C55.5037 36.2078 54.8634 37.1351 54.1395 38.1086Z" fill="black"/>
<path d="M44.5739 12.6387C36.5229 12.6387 29.9951 19.1845 29.9951 27.2578C29.9951 35.331 36.5229 41.8768 44.5739 41.8768C52.6249 41.8768 59.1527 35.331 59.1527 27.2578C59.1527 19.1845 52.6249 12.6387 44.5739 12.6387ZM44.5739 38.3605C38.4604 38.3605 33.5017 33.3882 33.5017 27.2578C33.5017 21.1273 38.4604 16.155 44.5739 16.155C50.6875 16.155 55.6461 21.1273 55.6461 27.2578C55.6461 33.3924 50.6875 38.3605 44.5739 38.3605ZM44.5739 38.3605C38.4604 38.3605 33.5017 33.3882 33.5017 27.2578C33.5017 21.1273 38.4604 16.155 44.5739 16.155C50.6875 16.155 55.6461 21.1273 55.6461 27.2578C55.6461 33.3924 50.6875 38.3605 44.5739 38.3605Z" fill="white"/>
<path d="M44.5742 42.2128C36.3517 42.2128 29.6606 35.5033 29.6606 27.258C29.6606 19.0127 36.3517 12.3032 44.5742 12.3032C52.7967 12.3032 59.4877 19.0127 59.4877 27.258C59.4877 35.5033 52.7967 42.2128 44.5742 42.2128ZM44.5742 12.9746C36.7199 12.9746 30.3302 19.382 30.3302 27.258C30.3302 35.134 36.7199 41.5414 44.5742 41.5414C52.4285 41.5414 58.8182 35.134 58.8182 27.258C58.8182 19.382 52.4285 12.9746 44.5742 12.9746ZM44.5742 38.6965C38.2849 38.6965 33.1673 33.5647 33.1673 27.258C33.1673 20.9513 38.2849 15.8195 44.5742 15.8195C50.8635 15.8195 55.9811 20.9513 55.9811 27.258C55.9811 33.5647 50.8635 38.6965 44.5742 38.6965ZM33.8368 27.258C33.8368 33.1954 38.6531 38.0251 44.5742 38.0251C50.4953 38.0251 55.3116 33.1954 55.3116 27.258C55.3116 21.3206 50.4953 16.4909 44.5742 16.4909C38.6531 16.4909 33.8368 21.3206 33.8368 27.258Z" fill="black"/>
<path d="M55.575 38.5618C55.5666 38.5618 55.5541 38.5617 55.5457 38.5576C55.4871 38.5408 55.4536 38.4778 55.4704 38.4191L55.7256 37.5169C55.7424 37.4582 55.8051 37.4204 55.8637 37.4414C55.9223 37.4582 55.9558 37.5211 55.939 37.5799L55.6838 38.482C55.667 38.5282 55.6252 38.5618 55.575 38.5618Z" fill="black"/>
<path d="M56.8008 40.1395C56.7966 40.1395 56.7924 40.1395 56.7882 40.1395C56.7255 40.1312 56.6836 40.0766 56.692 40.0137C56.8301 38.9605 56.9933 37.8988 57.1816 36.854C57.1941 36.7953 57.2485 36.7533 57.3113 36.7659C57.3699 36.7785 57.4117 36.8372 57.3992 36.896C57.2109 37.9366 57.0477 38.994 56.9096 40.043C56.9054 40.0976 56.8552 40.1395 56.8008 40.1395Z" fill="black"/>
<path d="M58.3952 41.667C58.3324 41.667 58.2822 41.6166 58.2822 41.5537C58.2822 41.0292 58.3617 40.1438 58.4329 39.3634C58.4747 38.8892 58.5124 38.478 58.5249 38.222C58.5291 38.1591 58.5793 38.1087 58.6421 38.1171C58.7049 38.1213 58.7509 38.1717 58.7467 38.2346C58.7342 38.499 58.6965 38.9102 58.6505 39.3885C58.5793 40.1648 58.4998 41.0418 58.4998 41.5579C58.504 41.6166 58.458 41.667 58.3952 41.667Z" fill="black"/>
<path d="M60.0233 43.1737C59.9647 43.1737 59.9145 43.1233 59.9103 43.0646L59.8267 39.3301C59.8267 39.2672 59.8727 39.2168 59.9355 39.2168C60.0024 39.2252 60.0484 39.263 60.0484 39.3259L60.1321 43.0604C60.1363 43.1233 60.0903 43.1737 60.0233 43.1737C60.0275 43.1737 60.0275 43.1737 60.0233 43.1737Z" fill="black"/>
<path d="M61.5754 44.8268C61.5168 44.8268 61.4666 44.7806 61.4624 44.7177L61.3159 40.8069C61.3117 40.744 61.3619 40.6936 61.4247 40.6895C61.4875 40.6936 61.5377 40.7356 61.5419 40.7986L61.6883 44.7093C61.6925 44.7722 61.6423 44.8226 61.5795 44.8268C61.5795 44.8268 61.5795 44.8268 61.5754 44.8268Z" fill="black"/>
<path d="M63.1573 46.2196C63.0987 46.2196 63.0485 46.1734 63.0443 46.1147L62.8477 42.4641C62.8435 42.4012 62.8895 42.3508 62.9523 42.3466C63.0067 42.3382 63.0653 42.3886 63.0695 42.4515L63.2661 46.1021C63.2703 46.165 63.2201 46.2154 63.1615 46.2196H63.1573Z" fill="black"/>
<path d="M64.7182 47.5037C64.6597 47.5037 64.6094 47.4576 64.6053 47.3988L64.3333 43.8448C64.3291 43.7818 64.3751 43.7273 64.4379 43.7231C64.5007 43.7147 64.555 43.765 64.5592 43.828L64.8312 47.3821C64.8354 47.445 64.7894 47.4953 64.7266 47.5037C64.7266 47.5037 64.7224 47.5037 64.7182 47.5037Z" fill="black"/>
<path d="M66.1994 48.6619C66.1408 48.6619 66.0947 48.6199 66.0864 48.5611L65.7684 45.4435C65.7642 45.3805 65.806 45.326 65.8688 45.3218C65.9316 45.3134 65.9859 45.3596 65.9901 45.4225L66.3082 48.5402C66.3123 48.6031 66.2705 48.6577 66.2077 48.6619C66.2077 48.6619 66.2035 48.6619 66.1994 48.6619Z" fill="black"/>
<path d="M67.6474 48.4935C67.593 48.4935 67.5469 48.4558 67.5385 48.4012L67.3126 47.0081C67.3042 46.9452 67.3461 46.8906 67.4046 46.8781C67.4674 46.8655 67.5218 46.9116 67.5344 46.9704L67.7603 48.3635C67.7687 48.4264 67.7269 48.481 67.6683 48.4935C67.6599 48.4935 67.6557 48.4935 67.6474 48.4935Z" fill="black"/>
<g opacity="0.1294">
<path d="M54.8887 30.7946C54.5205 31.1051 54.3531 31.6045 54.0435 31.9737C53.9849 32.0786 53.24 32.922 52.8174 33.3248C52.4533 33.6521 52.1018 33.9417 51.742 34.2144C51.6792 34.227 51.6164 34.2522 51.5537 34.2899C49.7292 35.6117 48.3609 36.0943 46.0552 36.5223C44.9589 36.7279 43.6994 36.8999 41.9795 36.4719C40.7744 36.1908 40.1886 35.8593 38.929 35.0075C38.3934 34.6298 37.2008 33.5766 36.3891 32.5947C35.5187 31.3989 35.2174 30.354 35.0375 29.8757C34.8575 29.3847 34.7194 28.8854 34.5772 28.3819C34.3679 27.6937 34.301 27.4504 34.301 26.8671C34.1671 26.4937 34.0457 26.116 33.9369 25.7342C33.8281 25.6838 33.711 25.6628 33.5938 25.6712C33.3971 27.1818 33.4264 28.6966 33.6189 30.203C33.9453 31.5038 34.3512 32.9136 35.594 34.3151C36.5983 35.4229 37.2845 35.8047 37.7155 36.1614C38.7198 36.8873 39.7869 37.5503 40.9711 37.9363C41.6197 38.1251 42.2892 38.2049 42.9587 38.2804C42.9629 38.2804 42.9629 38.2804 42.9713 38.2846C43.6952 38.4189 44.4358 38.4189 45.1681 38.3391C45.7414 38.293 46.2938 38.1251 46.8461 37.9741C47.9968 37.693 49.1434 37.3405 50.1937 36.7824C50.6205 36.5181 50.767 36.4173 50.9678 36.2663C52.2567 35.4606 53.5873 34.3403 54.2694 33.5598C54.4452 33.1906 54.6167 32.8213 54.7799 32.4479C54.9808 31.8898 55.1816 31.3317 55.3825 30.7694C55.2193 30.7023 55.0394 30.7023 54.8887 30.7946Z" fill="black"/>
</g>
<g opacity="0.1294">
<path d="M57.2656 35.5655C56.7091 35.4061 56.3409 35.7921 56.0647 36.2159C56.0521 36.2285 56.0438 36.2453 56.027 36.2621C55.5416 36.8286 55.4077 36.7824 54.6085 37.5041C54.6043 37.5083 54.6001 37.5083 54.6001 37.5125C54.4411 37.6216 54.2528 37.7013 54.1524 37.8734C53.4787 38.7042 54.5039 39.8581 55.4203 39.321C56.0563 38.9685 56.6003 38.4734 57.0397 37.8944C57.32 37.5838 57.592 37.2649 57.8096 36.9041C58.1151 36.4047 57.8264 35.7124 57.2656 35.5655Z" fill="black"/>
</g>
<path d="M40.6238 33.0816C40.4397 33.0816 40.2891 32.9306 40.2891 32.746V25.3777C40.2891 25.1931 40.4397 25.042 40.6238 25.042C40.8079 25.042 40.9586 25.1931 40.9586 25.3777V32.746C40.9586 32.9306 40.8121 33.0816 40.6238 33.0816Z" fill="black"/>
<path d="M47.9927 33.0816C47.8086 33.0816 47.658 32.9306 47.658 32.746V25.3777C47.658 25.1931 47.8086 25.042 47.9927 25.042C48.1768 25.042 48.3275 25.1931 48.3275 25.3777V32.746C48.3275 32.9306 48.1768 33.0816 47.9927 33.0816Z" fill="black"/>
<path d="M44.3106 33.082C44.1265 33.082 43.9758 32.9309 43.9758 32.7463V20.884C43.9758 20.6994 44.1265 20.5483 44.3106 20.5483C44.4947 20.5483 44.6453 20.6994 44.6453 20.884V32.7463C44.6453 32.9309 44.4947 33.082 44.3106 33.082Z" fill="black"/>
</svg>
