<svg width="62" height="50" viewBox="0 0 62 50" fill="none" xmlns="http://www.w3.org/2000/svg">
<g clip-path="url(#clip0_4800_1841)">
<path d="M5.87866 35.8619L15.2101 49.6644L24.5416 35.8619H19.2885L19.0637 14.9941H10.9069L11.1317 35.8619H5.87866Z" fill="#FFB217"/>
<path d="M15.2101 49.9996C15.0976 49.9996 14.993 49.9456 14.9309 49.853L5.59947 36.0466C5.52968 35.9425 5.52193 35.8114 5.58008 35.7034C5.63823 35.5954 5.75454 35.526 5.8786 35.526H10.7905L10.5695 15.0015C10.5695 14.9128 10.6044 14.8241 10.6664 14.7624C10.7285 14.6968 10.8176 14.6621 10.9068 14.6621H19.0636C19.2497 14.6621 19.397 14.8087 19.4009 14.9938L19.6219 35.526H24.5415C24.6656 35.526 24.7819 35.5954 24.84 35.7034C24.8982 35.8114 24.8904 35.9463 24.8206 36.0466L15.4892 49.853C15.4272 49.9456 15.3186 49.9996 15.2101 49.9996ZM6.51051 36.197L15.2101 49.0663L23.9096 36.197H19.2885C19.1024 36.197 18.955 36.0505 18.9512 35.8654L18.7302 15.3331H11.248L11.4689 35.8576C11.4689 35.9463 11.4341 36.035 11.372 36.0967C11.31 36.1623 11.2208 36.197 11.1317 36.197H6.51051Z" fill="black"/>
<path d="M8.89056 22.0166C18.0592 22.1169 27.2317 22.221 36.4003 22.3213C38.9164 22.3483 41.4634 22.3752 43.9097 21.7891C46.356 21.2029 48.7325 19.9379 50.1436 17.867C51.5548 15.7921 51.7874 12.838 50.2871 10.8288C49.0814 9.20903 46.9414 8.43772 44.9216 8.56499C42.8979 8.69611 42.1225 9.18975 40.5369 10.447C40.8974 9.30159 41.1456 8.68069 41.0486 7.30776C40.9517 5.93483 40.2655 4.65446 39.3583 3.6132C36.9857 0.882769 32.9694 -0.305044 29.4803 0.689942C25.995 1.68493 23.2192 4.80872 22.6571 8.37216C21.7344 4.83572 17.2645 2.84575 13.8645 4.22639C10.4645 5.60703 8.64633 9.78751 9.6194 13.3085C8.82078 11.7852 6.87463 11.064 5.18046 11.3957C3.48243 11.7274 2.05964 12.9499 1.15634 14.4154C0.660114 15.2214 0.295695 16.1547 0.404245 17.0918C0.582578 18.6383 1.97823 19.7528 3.37388 20.4585C5.58753 21.5769 8.08031 22.0089 8.89056 22.0166Z" fill="white"/>
<path d="M37.9938 22.6688C37.4588 22.6688 36.9277 22.6649 36.3966 22.6572L8.88677 22.3525C8.0804 22.3448 5.53334 21.9322 3.21889 20.7598C1.8969 20.0926 0.276397 18.9202 0.0670494 17.1346C-0.0376242 16.2515 0.233752 15.2796 0.869547 14.2461C1.90853 12.5531 3.45925 11.3961 5.11464 11.0722C6.55681 10.7906 8.03775 11.1956 9.0496 12.071C8.72007 8.65025 10.6391 5.17551 13.7405 3.91828C15.5122 3.20096 17.6794 3.32437 19.5363 4.24994C20.8971 4.92869 21.9632 5.96995 22.5758 7.20019C23.5023 3.97227 26.123 1.29969 29.3873 0.370263C33.0276 -0.667146 37.1331 0.547664 39.6104 3.39379C40.3548 4.24608 41.2658 5.61515 41.3821 7.28503C41.4519 8.26074 41.355 8.87778 41.1689 9.53725C42.3242 8.70038 43.1848 8.34172 44.8945 8.22989C47.1741 8.08334 49.3412 9.00119 50.5546 10.6287C52.0705 12.6572 52.0123 15.7116 50.4189 18.0563C49.097 20 46.8096 21.4424 43.9835 22.1173C42.0179 22.5878 39.9903 22.6688 37.9938 22.6688ZM6.01406 11.6545C5.75819 11.6545 5.49845 11.6776 5.24646 11.7278C3.77327 12.017 2.38925 13.0621 1.44719 14.5932C0.892808 15.4956 0.656323 16.3209 0.741613 17.0536C0.916069 18.5423 2.35436 19.5642 3.52903 20.1582C5.61475 21.2148 8.05714 21.6699 8.8984 21.6776L36.4082 21.9823C38.87 22.0093 41.4131 22.0363 43.8361 21.4578C46.4995 20.8215 48.6395 19.4794 49.8684 17.6707C51.2835 15.592 51.3455 12.796 50.0235 11.0182C48.9458 9.57196 46.9957 8.75823 44.9488 8.88935C43.0336 9.01276 42.3164 9.45626 40.7541 10.6981C40.6378 10.7906 40.475 10.7945 40.3548 10.7135C40.2307 10.6287 40.1803 10.4782 40.223 10.3356L40.3121 10.0579C40.6184 9.09375 40.8045 8.51527 40.7192 7.31974C40.6145 5.83498 39.7849 4.59703 39.1103 3.82186C36.8385 1.21099 32.9191 0.0540267 29.5811 1.00273C26.2432 1.9553 23.5372 5.00196 22.9983 8.415C22.9751 8.57312 22.8433 8.68881 22.6804 8.69653C22.5254 8.70424 22.378 8.60011 22.3354 8.44585C21.9438 6.93794 20.8118 5.62287 19.2378 4.83613C17.5514 3.99541 15.5936 3.87971 14.0003 4.52375C10.8562 5.80027 8.9992 9.77636 9.94902 13.2087C9.99554 13.3745 9.90637 13.5481 9.74742 13.6098C9.58847 13.6715 9.40626 13.6059 9.32485 13.4516C8.73945 12.3564 7.40196 11.6545 6.01406 11.6545Z" fill="black"/>
<g opacity="0.1294">
<path d="M47.3408 19.3445C47.3292 19.3522 47.3176 19.356 47.3059 19.3599C46.6857 19.5913 46.0227 19.6838 45.3792 19.8304C43.7742 20.1698 40.979 20.1042 38.746 20.1582C37.7109 20.162 36.6796 20.2739 35.6445 20.2045C34.1403 20.0733 32.6323 20.1235 31.1242 20.1042C28.2864 20.0502 25.4524 20.0078 22.6146 20.0348C20.8235 20.0502 19.0324 20.1813 17.2375 20.0656C15.4115 19.9962 13.5855 20.0155 11.7596 19.9962C10.5771 19.8959 9.39471 19.9037 8.20841 19.8458C7.64239 19.8111 6.87866 19.6106 5.33182 19.2943C4.80845 19.1786 4.27733 19.0976 3.75784 18.9742C3.45545 18.8971 3.12204 18.8045 2.83516 18.9858C2.23426 19.3136 2.35056 20.2893 3.029 20.4513C4.57972 20.7675 6.09555 21.2033 7.59975 21.4964C8.40612 21.6275 9.22413 21.6198 10.0383 21.6352C10.8369 21.6777 11.6277 21.7741 12.4264 21.7741C14.5741 21.7664 16.718 21.8358 18.8657 21.9091C20.2498 21.9013 21.6299 21.8204 23.01 21.8011C22.9441 22.1404 23.169 22.5454 23.5916 22.5338C26.6736 22.4682 29.7557 22.395 32.8338 22.341C35.0475 22.395 37.265 22.5107 39.4787 22.3448C40.7697 22.2716 42.0723 22.2908 43.3439 22.0363C43.7044 21.963 44.0572 21.8589 44.3983 21.7278C44.6232 21.6815 44.8248 21.535 44.9256 21.3421C46.3678 21.1377 48.0542 20.7367 48.4186 19.9615C48.5659 19.2789 47.8758 18.9742 47.3408 19.3445Z" fill="black"/>
</g>
<path d="M46.4414 37.2577C48.7946 39.5639 51.1517 41.8662 53.5049 44.1725C54.7494 45.3911 55.9938 46.6098 57.3507 47.6665C58.0834 48.2372 58.8937 48.7733 59.7854 48.7733C60.6731 48.7733 61.6191 48.029 61.6113 47.0263C61.6075 46.2473 61.0647 45.6187 60.5568 45.0864C56.808 41.1528 52.8885 37.4235 48.8179 33.9141C48.0735 35.0016 47.3292 36.0891 46.4414 37.2577Z" fill="white"/>
<path d="M59.7852 49.1091C58.7927 49.1091 57.9282 48.5422 57.1412 47.929C55.7688 46.8607 54.4972 45.6151 53.2683 44.4118L46.2047 37.4971C46.0845 37.3775 46.069 37.1885 46.1737 37.0536C47.0615 35.8889 47.8136 34.7898 48.5424 33.7254C48.5967 33.6444 48.682 33.5943 48.7789 33.5827C48.872 33.5711 48.9689 33.5981 49.0425 33.6637C53.1054 37.1654 57.0637 40.9332 60.8048 44.8592C61.3553 45.4377 61.9445 46.128 61.9523 47.0266C61.9562 47.5472 61.743 48.0524 61.3514 48.4419C60.9327 48.8584 60.3473 49.1091 59.7852 49.1091ZM46.887 37.2233L53.7412 43.9298C54.9585 45.1214 56.2185 46.3517 57.5599 47.3968C58.25 47.9367 58.9982 48.4342 59.7852 48.4342C60.169 48.4342 60.576 48.2568 60.8707 47.9637C61.1343 47.7015 61.2777 47.3659 61.2739 47.0266C61.27 46.3748 60.797 45.8233 60.3124 45.3181C56.6721 41.5002 52.8302 37.8326 48.8836 34.4157C48.2672 35.3181 47.6236 36.2475 46.887 37.2233Z" fill="black"/>
<path d="M37.2534 11.7705C29.1432 11.7705 22.5681 18.3112 22.5681 26.3791C22.5681 34.4469 29.1432 40.9876 37.2534 40.9876C45.3637 40.9876 51.9388 34.4469 51.9388 26.3791C51.9388 18.3112 45.3637 11.7705 37.2534 11.7705ZM37.2534 37.4782C31.0932 37.4782 26.0999 32.511 26.0999 26.3829C26.0999 20.2549 31.0932 15.2877 37.2534 15.2877C43.4137 15.2877 48.407 20.2549 48.407 26.3829C48.407 32.5071 43.4137 37.4782 37.2534 37.4782ZM37.2534 37.4782C31.0932 37.4782 26.0999 32.511 26.0999 26.3829C26.0999 20.2549 31.0932 15.2877 37.2534 15.2877C43.4137 15.2877 48.407 20.2549 48.407 26.3829C48.407 32.5071 43.4137 37.4782 37.2534 37.4782Z" fill="white"/>
<path d="M37.2533 41.3266C28.9686 41.3266 22.2307 34.624 22.2307 26.3826C22.2307 18.1411 28.9686 11.4385 37.2533 11.4385C45.538 11.4385 52.2759 18.1411 52.2759 26.3826C52.2759 34.6201 45.5342 41.3266 37.2533 41.3266ZM37.2533 12.1057C29.3408 12.1057 22.9053 18.5075 22.9053 26.3787C22.9053 34.2499 29.3408 40.6517 37.2533 40.6517C45.1659 40.6517 51.6014 34.2499 51.6014 26.3787C51.6014 18.5114 45.162 12.1057 37.2533 12.1057ZM37.2533 37.8133C30.9186 37.8133 25.7625 32.6841 25.7625 26.3826C25.7625 20.081 30.9186 14.9518 37.2533 14.9518C43.588 14.9518 48.7442 20.081 48.7442 26.3826C48.7442 32.6841 43.588 37.8133 37.2533 37.8133ZM26.4332 26.3787C26.4332 32.3139 31.2869 37.1384 37.2494 37.1384C43.212 37.1384 48.0657 32.3101 48.0657 26.3787C48.0657 20.4473 43.212 15.619 37.2494 15.619C31.2869 15.619 26.4332 20.4473 26.4332 26.3787Z" fill="black"/>
<path d="M31.5237 27.3738C32.1596 27.3738 32.6751 26.861 32.6751 26.2284C32.6751 25.5958 32.1596 25.083 31.5237 25.083C30.8878 25.083 30.3723 25.5958 30.3723 26.2284C30.3723 26.861 30.8878 27.3738 31.5237 27.3738Z" fill="white"/>
<path d="M31.5236 27.7089C30.7017 27.7089 30.0349 27.0456 30.0349 26.228C30.0349 25.4104 30.7017 24.7471 31.5236 24.7471C32.3455 24.7471 33.0123 25.4104 33.0123 26.228C33.0123 27.0456 32.3416 27.7089 31.5236 27.7089ZM31.5236 25.4181C31.0739 25.4181 30.7095 25.7806 30.7095 26.228C30.7095 26.6753 31.0739 27.0379 31.5236 27.0379C31.9733 27.0379 32.3377 26.6753 32.3377 26.228C32.3377 25.7806 31.9694 25.4181 31.5236 25.4181Z" fill="black"/>
<path d="M37.1023 27.3738C37.7382 27.3738 38.2537 26.861 38.2537 26.2284C38.2537 25.5958 37.7382 25.083 37.1023 25.083C36.4664 25.083 35.9509 25.5958 35.9509 26.2284C35.9509 26.861 36.4664 27.3738 37.1023 27.3738Z" fill="white"/>
<path d="M37.1022 27.7089C36.2803 27.7089 35.6135 27.0456 35.6135 26.228C35.6135 25.4104 36.2803 24.7471 37.1022 24.7471C37.9241 24.7471 38.5909 25.4104 38.5909 26.228C38.5909 27.0456 37.9241 27.7089 37.1022 27.7089ZM37.1022 25.4181C36.6525 25.4181 36.2881 25.7806 36.2881 26.228C36.2881 26.6753 36.6525 27.0379 37.1022 27.0379C37.5519 27.0379 37.9163 26.6753 37.9163 26.228C37.9163 25.7806 37.5519 25.4181 37.1022 25.4181Z" fill="black"/>
<path d="M42.681 27.3738C43.3169 27.3738 43.8324 26.861 43.8324 26.2284C43.8324 25.5958 43.3169 25.083 42.681 25.083C42.045 25.083 41.5295 25.5958 41.5295 26.2284C41.5295 26.861 42.045 27.3738 42.681 27.3738Z" fill="white"/>
<path d="M42.6808 27.7089C41.859 27.7089 41.1921 27.0456 41.1921 26.228C41.1921 25.4104 41.859 24.7471 42.6808 24.7471C43.5027 24.7471 44.1695 25.4104 44.1695 26.228C44.1734 27.0456 43.5027 27.7089 42.6808 27.7089ZM42.6808 25.4181C42.2311 25.4181 41.8667 25.7806 41.8667 26.228C41.8667 26.6753 42.2311 27.0379 42.6808 27.0379C43.1305 27.0379 43.495 26.6753 43.495 26.228C43.4988 25.7806 43.1305 25.4181 42.6808 25.4181Z" fill="black"/>
<path d="M48.3371 37.6742C48.3255 37.6742 48.3177 37.6742 48.3061 37.6703C48.2479 37.6549 48.213 37.5932 48.2285 37.5315L48.4883 36.6329C48.5038 36.5751 48.5658 36.5365 48.6278 36.5558C48.686 36.5712 48.7209 36.6329 48.7054 36.6946L48.4456 37.5932C48.4301 37.6433 48.3836 37.6742 48.3371 37.6742Z" fill="black"/>
<path d="M49.5701 39.2515C49.5662 39.2515 49.5585 39.2515 49.5546 39.2515C49.4926 39.2438 49.4499 39.186 49.4577 39.1242C49.5973 38.0714 49.764 37.007 49.9539 35.9657C49.9656 35.904 50.0237 35.8655 50.0857 35.877C50.1478 35.8886 50.1865 35.9465 50.1749 36.0082C49.9849 37.0456 49.8182 38.1023 49.6826 39.1551C49.6748 39.2091 49.6283 39.2515 49.5701 39.2515Z" fill="black"/>
<path d="M51.1749 40.7791C51.1129 40.7791 51.0625 40.729 51.0625 40.6673C51.0625 40.1428 51.1439 39.2597 51.2137 38.4806C51.2563 38.0063 51.2951 37.5975 51.3067 37.3391C51.3106 37.2774 51.3533 37.2234 51.423 37.235C51.4851 37.2388 51.5316 37.289 51.5277 37.3507C51.5161 37.6129 51.4773 38.0256 51.4347 38.4999C51.3649 39.2751 51.2835 40.1505 51.2835 40.6673C51.2874 40.729 51.237 40.7791 51.1749 40.7791Z" fill="black"/>
<path d="M52.8186 42.2869C52.7565 42.2869 52.7061 42.2368 52.7061 42.1789L52.6208 38.4458C52.6208 38.3841 52.6674 38.3339 52.7294 38.3301C52.7914 38.3339 52.8418 38.3764 52.8457 38.4381L52.931 42.1712C52.931 42.2329 52.8806 42.283 52.8186 42.2869Z" fill="black"/>
<path d="M54.3808 43.938C54.3188 43.938 54.2723 43.8917 54.2684 43.83L54.1211 39.9233C54.1172 39.8616 54.1676 39.8115 54.2296 39.8076C54.2955 39.8115 54.342 39.8539 54.3459 39.9156L54.4932 43.8223C54.4971 43.884 54.4467 43.9341 54.3847 43.938H54.3808Z" fill="black"/>
<path d="M55.9705 45.3259C55.9124 45.3259 55.862 45.2796 55.8581 45.2217L55.6604 41.5735C55.6565 41.5118 55.703 41.4578 55.7651 41.4539C55.8387 41.4462 55.8814 41.4963 55.8852 41.558L56.083 45.2063C56.0868 45.268 56.0403 45.322 55.9783 45.3259C55.9744 45.3259 55.9744 45.3259 55.9705 45.3259Z" fill="black"/>
<path d="M57.5483 46.6142C57.4902 46.6142 57.4398 46.5679 57.4359 46.5101L57.1606 42.9582C57.1567 42.8965 57.2033 42.8425 57.2653 42.8387C57.3234 42.831 57.3816 42.8811 57.3855 42.9428L57.6607 46.4947C57.6646 46.5564 57.6181 46.6104 57.5561 46.6142C57.5522 46.6142 57.5483 46.6142 57.5483 46.6142Z" fill="black"/>
<path d="M59.0369 47.7674C58.9787 47.7674 58.9322 47.7249 58.9244 47.6671L58.6027 44.551C58.5949 44.4893 58.6414 44.4353 58.7035 44.4276C58.7616 44.4199 58.8198 44.4662 58.8275 44.5279L59.1493 47.644C59.157 47.7057 59.1105 47.7596 59.0485 47.7674C59.0446 47.7674 59.0407 47.7674 59.0369 47.7674Z" fill="black"/>
<path d="M60.4986 47.6012C60.4443 47.6012 60.3978 47.5627 60.3862 47.5087L60.1613 46.1165C60.1497 46.0548 60.1924 45.9969 60.2544 45.9892C60.3125 45.9776 60.3746 46.0201 60.3823 46.0818L60.6072 47.474C60.6188 47.5357 60.5762 47.5935 60.5141 47.6012C60.5103 47.6012 60.5025 47.6012 60.4986 47.6012Z" fill="black"/>
<g opacity="0.1294">
<path d="M47.6431 29.9148C47.2748 30.2234 47.1042 30.7247 46.7902 31.0911C46.732 31.1952 45.9799 32.0398 45.5535 32.4447C45.1852 32.7725 44.8324 33.0618 44.4719 33.3317C44.4098 33.3433 44.3439 33.3664 44.2819 33.405C42.4443 34.7278 41.0642 35.2099 38.7458 35.6341C37.6448 35.8385 36.3732 36.012 34.6403 35.5839C33.423 35.3024 32.8376 34.9707 31.566 34.1185C31.0271 33.7405 29.8253 32.6877 29.0073 31.7043C28.1273 30.5087 27.8288 29.4636 27.6466 28.9893C27.4643 28.4995 27.3248 27.9981 27.1813 27.4968C26.9681 26.8103 26.9022 26.5674 26.9022 25.9812C26.7665 25.6071 26.6463 25.233 26.5339 24.8512C26.4254 24.8011 26.3052 24.7779 26.185 24.7856C25.9873 26.2935 26.0183 27.8092 26.2083 29.3132C26.5378 30.6129 26.9448 32.0205 28.1971 33.4204C29.205 34.5272 29.899 34.909 30.3332 35.2638C31.345 35.9889 32.4228 36.6522 33.6129 37.0379C34.2643 37.2268 34.9427 37.304 35.6134 37.3849C35.6173 37.3849 35.6211 37.3849 35.625 37.3888C36.3577 37.5199 37.1021 37.5238 37.8387 37.4428C38.4163 37.3965 38.9746 37.2268 39.5328 37.0764C40.692 36.7949 41.8473 36.4401 42.9056 35.8847C43.336 35.6225 43.4833 35.5184 43.6849 35.368C44.9836 34.562 46.325 33.4436 47.0112 32.6645C47.1895 32.2982 47.364 31.9279 47.5229 31.5539C47.7245 30.9947 47.93 30.4355 48.1277 29.8763C47.9765 29.8184 47.7943 29.8223 47.6431 29.9148Z" fill="black"/>
</g>
<g opacity="0.1294">
<path d="M50.035 34.6817C49.4768 34.5236 49.1007 34.9093 48.8255 35.3335C48.8138 35.3489 48.8022 35.3605 48.7867 35.3798C48.2982 35.9467 48.1625 35.8965 47.3562 36.6216C47.3523 36.6254 47.3484 36.6254 47.3445 36.6293C47.1856 36.7411 46.9956 36.8182 46.8948 36.9918C46.2164 37.8209 47.2515 38.9779 48.1703 38.438C48.81 38.087 49.3605 37.5896 49.8024 37.0111C50.0854 36.7026 50.3607 36.3825 50.5778 36.0238C50.8918 35.5225 50.601 34.8321 50.035 34.6817Z" fill="black"/>
</g>
<g opacity="0.1294">
<path d="M18.4818 22.0633C16.8962 21.9938 15.3105 22.017 13.7288 21.9553C13.1861 21.9206 12.6394 21.9476 12.0967 21.9167C11.7516 21.9244 11.3756 21.7779 11.0538 21.9399C10.1583 22.2792 10.4452 23.6522 11.3989 23.6406C13.1395 23.8257 14.8919 23.6252 16.6364 23.7524C17.1714 23.8026 17.7064 23.8103 18.2453 23.791C18.5516 23.8103 18.8811 23.7717 19.1021 23.5365C19.6409 23.0313 19.23 22.0401 18.4818 22.0633Z" fill="black"/>
</g>
</g>
<defs>
<clipPath id="clip0_4800_1841">
<rect width="61.9048" height="50" fill="white" transform="translate(0.0476074)"/>
</clipPath>
</defs>
</svg>
