<svg width="141" height="101" viewBox="0 0 141 101" fill="none" xmlns="http://www.w3.org/2000/svg">
<path d="M108.815 1.42815C109.126 31.014 108.815 61.0397 108.815 91.2177C26.493 91.2177 25.3255 91.4522 0.660125 91.0946C0.21821 61.1041 0.070905 26.8863 0.791062 1.72718C26.7004 1.72718 74.5963 1.00013 108.815 1.42815Z" fill="white"/>
<path d="M27.9661 85.0852C17.6112 85.0852 11.3316 85.0417 0.65472 84.9002C0.496503 84.9002 0.371022 84.7697 0.365566 84.6119C0.0600445 65.2305 -0.332769 28.6816 0.501959 1.68468C0.507415 1.52693 0.638353 1.40182 0.796569 1.40182C9.80945 1.40182 21.7139 1.32023 34.3166 1.22775C58.7802 1.05369 86.5062 0.863298 108.82 1.1244C108.978 1.1244 109.109 1.25495 109.109 1.4127C109.317 19.6899 109.246 38.5056 109.18 56.7066C109.148 65.8778 109.109 75.3646 109.109 84.7207C109.109 84.8839 108.978 85.0145 108.815 85.0145C78.4754 85.0145 59.4894 85.0417 45.6264 85.0634C38.332 85.0743 32.7181 85.0852 27.9661 85.0852ZM0.943874 84.3182C16.3072 84.5249 22.5977 84.514 45.6209 84.4814C59.4403 84.4596 78.3499 84.4324 108.52 84.4324C108.52 75.1687 108.558 65.7854 108.591 56.7066C108.656 38.6035 108.727 19.8911 108.526 1.70644C86.2662 1.45078 58.671 1.64661 34.3166 1.81523C21.8448 1.90227 10.055 1.98386 1.07481 1.98386C0.256451 28.8121 0.638353 64.9368 0.943874 84.3182Z" fill="black"/>
<path d="M108.897 12.0991H108.891C83.4946 11.0468 33.8747 11.0556 4.23368 11.0556H0.654717C0.491045 11.0556 0.360107 10.8434 0.360107 10.5781C0.360107 10.3128 0.491045 10.1005 0.654717 10.1005H4.22823C33.8747 10.0917 83.5001 10.0917 108.902 11.144C109.066 11.1529 109.191 11.3651 109.186 11.6304C109.186 11.8957 109.055 12.0991 108.897 12.0991Z" fill="black"/>
<path d="M102.868 8.85407C101.389 8.85407 100.184 7.65191 100.184 6.17777C100.184 4.70362 101.389 3.50146 102.868 3.50146C104.346 3.50146 105.552 4.70362 105.552 6.17777C105.552 7.65191 104.346 8.85407 102.868 8.85407ZM102.868 4.08351C101.711 4.08351 100.767 5.02456 100.767 6.17777C100.767 7.33097 101.711 8.27203 102.868 8.27203C104.024 8.27203 104.968 7.33097 104.968 6.17777C104.968 5.02456 104.024 4.08351 102.868 4.08351Z" fill="black"/>
<path d="M92.4367 8.85407C90.9582 8.85407 89.7524 7.65191 89.7524 6.17777C89.7524 4.70362 90.9582 3.50146 92.4367 3.50146C93.9152 3.50146 95.1209 4.70362 95.1209 6.17777C95.1209 7.65191 93.9152 8.85407 92.4367 8.85407ZM92.4367 4.08351C91.28 4.08351 90.3362 5.02456 90.3362 6.17777C90.3362 7.33097 91.28 8.27203 92.4367 8.27203C93.5933 8.27203 94.5371 7.33097 94.5371 6.17777C94.5371 5.02456 93.5933 4.08351 92.4367 4.08351Z" fill="#FFB217"/>
<path d="M81.4379 8.85407C79.9594 8.85407 78.7537 7.65191 78.7537 6.17777C78.7537 4.70362 79.9594 3.50146 81.4379 3.50146C82.9164 3.50146 84.1221 4.70362 84.1221 6.17777C84.1221 7.65191 82.9164 8.85407 81.4379 8.85407ZM81.4379 4.08351C80.2813 4.08351 79.3374 5.02456 79.3374 6.17777C79.3374 7.33097 80.2813 8.27203 81.4379 8.27203C82.5945 8.27203 83.5383 7.33097 83.5383 6.17777C83.5383 5.02456 82.5945 4.08351 81.4379 4.08351Z" fill="black"/>
<path d="M12.2533 43.684C12.2042 43.684 12.1551 43.6731 12.106 43.6459C11.9642 43.5643 11.9205 43.3902 11.9969 43.2488C15.925 36.4438 19.6077 29.7694 23.2576 22.8393C23.3067 22.7468 23.4049 22.687 23.5085 22.6815C23.6231 22.6761 23.7158 22.7359 23.7649 22.8284L23.8031 22.8991C25.98 26.6253 28.2277 30.482 30.4973 34.4094C34.6382 29.6116 38.7573 24.9118 43.1164 19.9399L44.2349 18.6671C44.3003 18.5909 44.3985 18.5528 44.4967 18.5692C44.5949 18.5855 44.6822 18.6508 44.7204 18.7378C46.6899 23.2092 48.7249 27.8274 50.9072 32.6252L58.5507 25.5917C58.7089 25.4503 58.9217 25.2545 59.2163 25.2055C59.8601 25.1076 60.2747 25.7821 60.4111 25.9997C62.0097 28.589 63.5209 31.2272 64.9776 33.7838C65.8232 35.2634 66.6252 36.6668 67.4272 38.0322C70.3624 32.6959 73.4722 27.3759 76.6856 22.2083C76.7729 22.0723 76.9529 22.0288 77.0893 22.1158C77.2257 22.2028 77.2693 22.3823 77.1821 22.5183C73.8868 27.822 70.6897 33.2888 67.6891 38.7665C67.64 38.859 67.5418 38.9188 67.4381 38.9188C67.3235 38.9134 67.2362 38.8644 67.1817 38.7774C66.2924 37.2706 65.4031 35.7203 64.4647 34.0776C63.0081 31.5264 61.5023 28.8936 59.9092 26.3098C59.68 25.9344 59.4727 25.7604 59.2982 25.7821C59.189 25.7984 59.069 25.9018 58.9435 26.0215L51.0163 33.3378C50.9454 33.403 50.8527 33.4302 50.7599 33.4085C50.6672 33.3922 50.5908 33.3269 50.5526 33.2453C48.3758 28.4584 46.3462 23.8565 44.3822 19.4014L43.5693 20.3316C39.1174 25.4122 34.911 30.2045 30.6828 35.1111C30.6228 35.1818 30.53 35.2199 30.4318 35.209C30.3391 35.1981 30.2518 35.1437 30.2082 35.0621C27.9495 31.1456 25.7072 27.3052 23.5358 23.5845C19.9677 30.3514 16.356 36.8844 12.5097 43.5425C12.4552 43.635 12.357 43.684 12.2533 43.684Z" fill="#FFB217"/>
<path d="M24.447 47.6604C24.3488 47.6604 24.2561 47.6115 24.2015 47.5244C23.7869 46.8608 23.3722 46.2026 22.9631 45.5498C22.8758 45.4139 22.9194 45.2343 23.0558 45.1473C23.1922 45.0603 23.3722 45.1038 23.4595 45.2398C23.8742 45.8925 24.2888 46.5507 24.7034 47.2144C24.7907 47.3504 24.7471 47.5299 24.6107 47.6169C24.5507 47.6495 24.4961 47.6604 24.447 47.6604ZM32.4288 47.6332C32.3578 47.6332 32.2869 47.606 32.2269 47.5516C32.1123 47.4428 32.1069 47.2579 32.216 47.1382C32.7507 46.5725 33.2853 46.0068 33.82 45.441C33.9291 45.3214 34.1146 45.3159 34.2346 45.4302C34.3546 45.539 34.3601 45.7239 34.2455 45.8436C33.7109 46.4093 33.1762 46.975 32.6415 47.5407C32.5815 47.606 32.5051 47.6332 32.4288 47.6332ZM25.4618 46.7085C25.4236 46.7085 25.3799 46.703 25.3418 46.6813C25.1945 46.616 25.129 46.4419 25.1945 46.2951C25.5109 45.5879 25.8382 44.8753 26.1765 44.1736C26.2474 44.0267 26.422 43.9669 26.5638 44.0376C26.7111 44.1083 26.7712 44.2824 26.7002 44.4238C26.3674 45.1201 26.0401 45.8327 25.7237 46.5344C25.68 46.6432 25.5764 46.7085 25.4618 46.7085ZM63.5592 46.5562C63.4555 46.5562 63.3573 46.5018 63.3028 46.4039L62.7081 45.3268C62.6317 45.1854 62.6808 45.0113 62.8227 44.9297C62.9645 44.8536 63.1391 44.9025 63.2209 45.044L63.8156 46.121C63.892 46.2624 63.8429 46.4365 63.7011 46.5181C63.6574 46.5453 63.6083 46.5562 63.5592 46.5562ZM31.1739 46.0013C31.0757 46.0013 30.983 45.9524 30.9284 45.8653C30.492 45.1745 30.061 44.5163 29.6627 43.9125C29.5754 43.7765 29.6136 43.597 29.7445 43.51C29.8809 43.4229 30.061 43.461 30.1483 43.5916C30.5465 44.2008 30.983 44.859 31.4195 45.5553C31.5067 45.6913 31.4631 45.8708 31.3267 45.9578C31.2831 45.9905 31.2285 46.0013 31.1739 46.0013ZM35.6258 44.2334C35.5549 44.2334 35.484 44.2062 35.4294 44.1573C35.3094 44.0485 35.3039 43.8636 35.4131 43.7439C35.9423 43.1727 36.4715 42.6016 37.0007 42.0358C37.1098 41.9162 37.2953 41.9107 37.4153 42.0195C37.5353 42.1283 37.5408 42.3133 37.4317 42.4329C36.9025 43.0041 36.3733 43.5753 35.8441 44.1464C35.784 44.2008 35.7022 44.2334 35.6258 44.2334ZM21.9592 43.7167C21.861 43.7167 21.7682 43.6677 21.7137 43.5807C21.2936 42.9225 20.879 42.2643 20.4643 41.6115C20.377 41.4756 20.4152 41.296 20.5516 41.209C20.688 41.122 20.8681 41.1655 20.9553 41.296C21.37 41.9488 21.7901 42.607 22.2102 43.2652C22.2975 43.4012 22.2538 43.5807 22.1174 43.6677C22.0629 43.7004 22.0083 43.7167 21.9592 43.7167ZM61.8352 43.4393C61.7315 43.4393 61.6333 43.3849 61.5788 43.287L60.4494 41.2471C60.3731 41.1057 60.4222 40.9316 60.564 40.85C60.7059 40.7738 60.8859 40.8228 60.9623 40.9642L62.0916 43.0041C62.168 43.1455 62.1189 43.3196 61.977 43.4012C61.9334 43.4284 61.8843 43.4393 61.8352 43.4393ZM27.4804 42.4982C27.4368 42.4982 27.3877 42.4873 27.3495 42.4656C27.2076 42.3949 27.1476 42.2153 27.224 42.0739C27.4313 41.6659 27.6441 41.258 27.8623 40.8554C27.9114 40.763 28.0042 40.7031 28.1078 40.7031C28.2224 40.6977 28.3097 40.7521 28.3642 40.8391C28.5334 41.1111 28.7025 41.3776 28.8771 41.6442C28.9644 41.7802 28.9262 41.9597 28.7898 42.0467C28.6534 42.1337 28.4734 42.0957 28.3861 41.9597C28.3042 41.8291 28.2224 41.704 28.1406 41.5735C28.0096 41.8291 27.8732 42.0848 27.7423 42.3405C27.6877 42.4384 27.5841 42.4982 27.4804 42.4982ZM38.7956 40.8065C38.7247 40.8065 38.6538 40.7793 38.5992 40.7303C38.4792 40.6215 38.4737 40.4366 38.5828 40.3169C39.112 39.7457 39.6358 39.1691 40.165 38.598C40.2741 38.4783 40.4596 38.4729 40.5796 38.5817C40.6997 38.6905 40.7051 38.8754 40.596 38.9951C40.0723 39.5662 39.543 40.1428 39.0138 40.714C38.9538 40.7738 38.8774 40.8065 38.7956 40.8065ZM19.4496 39.7784C19.3514 39.7784 19.2586 39.7294 19.2041 39.6424C18.784 38.9842 18.3639 38.3314 17.9438 37.6787C17.8565 37.5427 17.8947 37.3632 18.0311 37.2762C18.1675 37.1891 18.3475 37.2272 18.4348 37.3632C18.8549 38.0159 19.275 38.6687 19.6951 39.3269C19.7824 39.4629 19.7442 39.6424 19.6078 39.7294C19.5587 39.7675 19.5041 39.7784 19.4496 39.7784ZM59.582 39.3541C59.4783 39.3541 59.3801 39.2997 59.3256 39.2018L58.1962 37.1619C58.1198 37.0205 58.1689 36.8464 58.3108 36.7648C58.4526 36.6887 58.6272 36.7376 58.7091 36.8791L59.8384 38.9189C59.9148 39.0604 59.8657 39.2344 59.7238 39.316C59.6747 39.3432 59.6256 39.3541 59.582 39.3541ZM41.9545 37.3632C41.8836 37.3632 41.8126 37.336 41.7581 37.287C41.6381 37.1782 41.6326 36.9933 41.7417 36.8736L43.3184 35.1493C43.4275 35.0296 43.613 35.0241 43.7331 35.1329C43.8531 35.2417 43.8585 35.4267 43.7494 35.5463L42.1727 37.2707C42.1127 37.3306 42.0363 37.3632 41.9545 37.3632ZM16.929 35.8564C16.8308 35.8564 16.7381 35.8075 16.6835 35.7204L15.4232 33.7567C15.3359 33.6207 15.3741 33.4412 15.5105 33.3542C15.6469 33.2671 15.827 33.3052 15.9142 33.4412L17.1745 35.4049C17.2618 35.5409 17.2236 35.7204 17.0872 35.8075C17.0381 35.8401 16.9836 35.8564 16.929 35.8564ZM57.3233 35.2744C57.2196 35.2744 57.1214 35.22 57.0669 35.1221L55.9375 33.0822C55.8612 32.9408 55.9103 32.7667 56.0521 32.6851C56.194 32.6089 56.3685 32.6579 56.4504 32.7993L57.5797 34.8392C57.6561 34.9806 57.607 35.1547 57.4651 35.2363C57.4215 35.258 57.3724 35.2744 57.3233 35.2744ZM45.1079 33.9199C45.037 33.9199 44.966 33.8927 44.9115 33.8437C44.7915 33.735 44.786 33.55 44.8951 33.4303C45.4243 32.8537 45.9481 32.2826 46.4718 31.706C46.5809 31.5863 46.7664 31.5809 46.8865 31.6896C47.0065 31.7984 47.012 31.9834 46.9028 32.1031C46.3791 32.6742 45.8499 33.2508 45.3261 33.8274C45.2661 33.8873 45.1843 33.9199 45.1079 33.9199ZM55.0646 31.1892C54.961 31.1892 54.8628 31.1348 54.8082 31.0369L53.6789 28.997C53.6025 28.8556 53.6516 28.6815 53.7934 28.5999C53.9353 28.5238 54.1153 28.5727 54.1917 28.7142L55.321 30.754C55.3974 30.8955 55.3483 31.0695 55.2065 31.1511C55.1628 31.1783 55.1137 31.1892 55.0646 31.1892ZM48.2613 30.4766C48.1904 30.4766 48.1195 30.4494 48.0649 30.4005C47.9449 30.2917 47.9394 30.1067 48.0485 29.987C48.5777 29.4104 49.107 28.8393 49.6307 28.2681C49.7398 28.1484 49.9253 28.143 50.0453 28.2518C50.1654 28.3606 50.1708 28.5455 50.0617 28.6652C49.5325 29.2364 49.0088 29.8075 48.4795 30.3787C48.4195 30.444 48.3432 30.4766 48.2613 30.4766ZM52.8114 27.104C52.7077 27.104 52.6095 27.0496 52.555 26.9517L52.2167 26.3425C52.0258 26.5438 51.8403 26.7505 51.6493 26.9517C51.5402 27.0714 51.3547 27.0768 51.2347 26.968C51.1147 26.8593 51.1092 26.6743 51.2183 26.5546C51.502 26.25 51.7803 25.9508 52.064 25.6517C52.1294 25.5809 52.2222 25.5483 52.3149 25.5592C52.4077 25.5701 52.4895 25.6245 52.5332 25.706L53.0624 26.6689C53.1387 26.8103 53.0896 26.9844 52.9478 27.066C52.9042 27.0932 52.855 27.104 52.8114 27.104Z" fill="#1DC8E6"/>
<path d="M83.4893 54.6995H83.4839L62.4247 54.2317C62.2611 54.2263 62.1356 54.0957 62.141 53.9325C62.1465 53.7748 62.2774 53.6497 62.4357 53.6497H62.4411L83.5003 54.1175C83.6639 54.1229 83.7894 54.2535 83.784 54.4166C83.7785 54.569 83.6476 54.6995 83.4893 54.6995Z" fill="black"/>
<path d="M59.0969 61.5642C58.9332 61.5642 58.8022 61.4337 58.8022 61.2759C58.8022 61.1127 58.9332 60.9822 59.0914 60.9822L73.9092 60.9441C74.0729 60.9441 74.2038 61.0746 74.2038 61.2324C74.2038 61.3956 74.0729 61.5261 73.9146 61.5261L59.0969 61.5642Z" fill="black"/>
<path d="M78.83 69.2994C73.347 69.2994 67.8312 69.1797 62.381 68.9512C62.2173 68.9458 62.0973 68.8098 62.1027 68.6466C62.1082 68.4834 62.2446 68.3583 62.4082 68.3692C69.2443 68.6629 76.184 68.7717 83.0309 68.6956C83.0309 68.6956 83.0309 68.6956 83.0364 68.6956C83.1946 68.6956 83.3255 68.8261 83.331 68.9839C83.331 69.1471 83.2055 69.2776 83.0418 69.2776C81.6343 69.2885 80.2321 69.2994 78.83 69.2994Z" fill="black"/>
<path d="M42.5217 70.2407C43.0836 69.8763 43.6565 69.5281 44.2293 69.18C40.1048 61.6787 32.2431 59.4104 27.382 59.0623C22.761 59.2091 19.5803 59.2091 14.0918 62.3859C12.7061 63.1855 10.5456 65.171 8.72339 68.1791C9.38899 68.6034 10.0491 69.0277 10.7093 69.452C12.3187 70.4909 13.9336 71.5299 15.5431 72.5798C17.769 68.4891 22.1772 66.4058 27.3984 66.4058C32.6413 66.4058 36.0239 69.8327 37.8625 73.5099C39.3792 72.3676 40.9286 71.2688 42.5217 70.2407Z" fill="white"/>
<path d="M37.8683 73.8035C37.8465 73.8035 37.8246 73.8035 37.8028 73.798C37.7155 73.7763 37.6446 73.7219 37.6064 73.6457C36.3079 71.051 33.2582 66.7047 27.4042 66.7047C22.1176 66.7047 17.8894 68.8969 15.8053 72.7264C15.7671 72.7971 15.7016 72.8515 15.6198 72.8678C15.5434 72.8896 15.4561 72.8733 15.3906 72.8298C14.0704 71.9703 12.7446 71.1108 11.4189 70.2568L10.5569 69.702C9.89672 69.2777 9.23112 68.8534 8.57098 68.4291C8.44004 68.3421 8.39639 68.168 8.47823 68.032C10.355 64.9314 12.5373 62.9514 13.9503 62.1354C19.3242 59.024 22.5158 58.9261 26.935 58.7846L27.3769 58.7683C27.3878 58.7683 27.3987 58.7683 27.4096 58.7683C30.203 58.9696 39.685 60.2969 44.4916 69.0383C44.5679 69.1743 44.5188 69.3484 44.3879 69.43C43.7605 69.8108 43.204 70.1589 42.6857 70.4853C41.2454 71.41 39.7287 72.4762 38.0483 73.7436C37.9938 73.7817 37.9283 73.8035 37.8683 73.8035ZM27.3987 66.1173C33.34 66.1173 36.5262 70.333 37.9665 73.0691C39.5487 71.8833 40.989 70.8769 42.3584 69.9957C42.8112 69.702 43.2967 69.4028 43.8314 69.0764C39.134 60.8299 30.083 59.5516 27.3715 59.3558L26.9459 59.3667C22.614 59.5027 19.4879 59.6006 14.2395 62.6359C12.9847 63.3648 10.9115 65.2197 9.12201 68.0864C9.70577 68.4617 10.2895 68.8316 10.8678 69.207L11.7298 69.7618C12.9683 70.5614 14.2068 71.3611 15.4398 72.1661C17.6821 68.3203 22.0194 66.1173 27.3987 66.1173Z" fill="black"/>
<path d="M23.2959 98.0101C23.596 96.2585 23.9342 94.5178 24.2998 92.7826C22.9849 92.6466 21.6319 92.4181 20.4098 91.9177C19.2805 91.4553 18.2603 90.672 17.4037 89.7962C15.5979 87.9413 14.3703 85.488 14.0103 82.8879C13.8029 81.4083 13.9339 79.9342 14.0048 78.4437C14.043 77.5625 14.1576 76.7302 14.3267 75.9469C11.6316 75.305 8.98007 74.4565 6.27402 73.8527C5.15014 77.8617 4.94283 82.7846 6.74867 88.4798C9.27468 96.4435 16.6945 99.3809 22.7394 100.338C22.9086 99.5549 23.0941 98.7825 23.2959 98.0101Z" fill="#FFB217"/>
<path d="M22.7395 100.626C22.7232 100.626 22.7068 100.626 22.6959 100.621C16.7382 99.6744 9.08928 96.8186 6.47053 88.5612C4.83926 83.4207 4.68105 78.4435 5.99043 73.7654C6.03407 73.6185 6.18138 73.526 6.33414 73.5587C7.8181 73.8905 9.30206 74.2985 10.7369 74.6956C11.9317 75.0274 13.1702 75.3646 14.3923 75.6584C14.545 75.6965 14.6432 75.8488 14.6105 76.0011C14.4359 76.8007 14.3322 77.6221 14.2941 78.4489C14.2831 78.6774 14.2722 78.9113 14.2613 79.1397C14.1959 80.4126 14.1304 81.6148 14.2995 82.8441C14.6487 85.3573 15.8217 87.7507 17.6111 89.5893C18.5277 90.5303 19.5316 91.2429 20.5191 91.6455C21.5338 92.0589 22.745 92.3309 24.3272 92.4886C24.409 92.4995 24.4854 92.5376 24.5345 92.6083C24.5836 92.6736 24.5999 92.7606 24.5836 92.8422C24.1962 94.6808 23.8689 96.3888 23.5797 98.0588C23.5797 98.0642 23.5743 98.0751 23.5743 98.0806C23.3615 98.8965 23.1815 99.6526 23.0178 100.392C22.996 100.534 22.8759 100.626 22.7395 100.626ZM6.48144 74.1951C5.28118 78.6828 5.46122 83.4588 7.02702 88.3871C9.51483 96.2365 16.7601 99.0434 22.5159 100.001C22.6632 99.3426 22.8268 98.668 23.0123 97.9446C23.2797 96.3671 23.5906 94.7569 23.9507 93.0326C22.4668 92.8639 21.2992 92.592 20.3008 92.184C19.226 91.7434 18.184 91.009 17.1965 89.9973C15.3252 88.0716 14.0922 85.5585 13.7267 82.9257C13.5466 81.6474 13.6175 80.3582 13.683 79.1125C13.6939 78.8841 13.7048 78.6556 13.7157 78.4271C13.7485 77.6656 13.8412 76.9041 13.9885 76.1588C12.8483 75.8814 11.6971 75.5659 10.5896 75.2558C9.24205 74.8914 7.85629 74.5106 6.48144 74.1951Z" fill="black"/>
<path d="M46.4611 75.528C44.0114 75.9468 41.5673 76.3765 39.1504 76.964C39.3631 77.8017 39.4941 78.5959 39.5486 79.3031C39.5923 79.8851 39.5377 80.8534 39.4068 81.6258C39.1613 83.0183 38.7303 84.4109 38.1956 85.7164C37.2354 88.0772 35.746 90.3836 33.4546 91.5368C32.1398 92.2004 30.7431 92.5431 29.2973 92.7226C29.1009 92.7498 28.899 92.7662 28.7026 92.7879C28.8008 93.6909 28.8936 94.5939 28.9918 95.4969C29.1827 97.2375 29.3791 98.9728 29.5756 100.713C29.7283 100.703 29.8756 100.692 30.012 100.681C41.5618 99.6908 46.963 87.4516 46.963 81.0329C46.9575 79.0202 46.7775 77.1925 46.4611 75.528Z" fill="white"/>
<path d="M29.5701 100.996C29.4228 100.996 29.2973 100.887 29.281 100.735L29.2701 100.621C29.0791 98.9183 28.8827 97.2211 28.7027 95.5185C28.6208 94.7733 28.5445 94.0281 28.4626 93.2828L28.4135 92.8096C28.4026 92.7334 28.4299 92.6573 28.479 92.5975C28.5281 92.5376 28.599 92.4995 28.6754 92.4887C28.8718 92.4669 29.0682 92.4506 29.2646 92.4234C30.8686 92.2221 32.1616 91.8522 33.3291 91.2647C35.2496 90.2965 36.799 88.3926 37.9338 85.5966C38.5012 84.1987 38.8994 82.8442 39.1231 81.5659C39.2486 80.8533 39.3086 79.9068 39.265 79.3139C39.2159 78.6067 39.0849 77.8343 38.8776 77.0292C38.8558 76.9531 38.8722 76.8715 38.9104 76.8062C38.9486 76.7409 39.014 76.692 39.0904 76.6756C41.5346 76.0827 44.0497 75.6421 46.4175 75.2396C46.5757 75.2124 46.723 75.3157 46.7557 75.4735C47.0885 77.2142 47.2522 79.08 47.2522 81.0219C47.2522 84.6937 45.6046 89.4153 43.0567 93.0489C40.7435 96.3454 36.608 100.398 30.0339 100.964C29.8975 100.974 29.7502 100.985 29.592 100.996C29.5865 100.996 29.5756 100.996 29.5701 100.996ZM29.0246 93.0381L29.0464 93.2176C29.1228 93.9628 29.2046 94.708 29.2864 95.4533C29.4665 97.1015 29.652 98.7442 29.8375 100.392C29.8866 100.387 29.9411 100.387 29.9902 100.382C36.3407 99.8376 40.3398 95.9102 42.5821 92.7171C45.5991 88.4089 46.6739 83.7254 46.6739 81.0219C46.6739 79.2159 46.5266 77.4861 46.2374 75.8597C44.0551 76.235 41.7528 76.643 39.5159 77.1706C39.6905 77.905 39.7996 78.6121 39.8487 79.2703C39.8924 79.9068 39.8324 80.9131 39.7014 81.6638C39.4723 82.9856 39.0577 84.3782 38.4739 85.8142C37.2845 88.7407 35.6424 90.7534 33.591 91.7815C32.3635 92.4016 31.0105 92.7878 29.3355 92.9945C29.2319 93.0163 29.1282 93.0272 29.0246 93.0381Z" fill="#88E0EF"/>
<path d="M32.1453 99.125C32.118 99.125 32.0962 99.1141 32.0798 99.0978L30.6068 97.6617C30.5686 97.6237 30.5686 97.5638 30.6068 97.5258C30.645 97.4877 30.705 97.4877 30.7432 97.5258L32.2162 98.9618C32.2544 98.9999 32.2544 99.0597 32.2162 99.0978C32.1944 99.1141 32.1671 99.125 32.1453 99.125Z" fill="black"/>
<path d="M34.104 98.7331C34.0822 98.7331 34.0604 98.7277 34.0385 98.7114C32.7073 97.5854 31.398 96.3995 30.1431 95.181C30.105 95.143 30.105 95.0831 30.1431 95.045C30.1813 95.007 30.2413 95.007 30.2795 95.045C31.5289 96.2581 32.8383 97.4439 34.164 98.5645C34.2077 98.5971 34.2077 98.6624 34.1749 98.7005C34.1586 98.7222 34.1313 98.7331 34.104 98.7331Z" fill="black"/>
<path d="M35.8716 97.9934C35.8498 97.9934 35.8225 97.9879 35.8062 97.9662L30.9287 93.5927C30.8905 93.5546 30.8851 93.4948 30.9233 93.4567C30.9615 93.4186 31.0215 93.4132 31.0597 93.4513L35.9371 97.8247C35.9753 97.8628 35.9807 97.9227 35.9426 97.9607C35.9262 97.9825 35.8989 97.9934 35.8716 97.9934Z" fill="black"/>
<path d="M37.7973 96.7477C37.7755 96.7477 37.7537 96.7423 37.7373 96.726C36.1933 95.5347 34.6876 94.2618 33.2527 92.94C33.2145 92.9019 33.2091 92.8421 33.2473 92.804C33.2854 92.7659 33.3455 92.7605 33.3836 92.7986C34.813 94.115 36.3188 95.3824 37.8573 96.5737C37.901 96.6063 37.9065 96.6661 37.8737 96.7097C37.8519 96.7369 37.8246 96.7477 37.7973 96.7477Z" fill="black"/>
<path d="M39.3684 95.2954C39.352 95.2954 39.3302 95.2899 39.3138 95.2791C37.7371 94.2183 36.1932 93.0651 34.731 91.8575C34.6874 91.8249 34.6819 91.7596 34.7201 91.7215C34.7529 91.678 34.8183 91.6726 34.8565 91.7106C36.3187 92.9182 37.8572 94.0606 39.4284 95.1213C39.4721 95.1539 39.483 95.2138 39.4557 95.2573C39.4284 95.279 39.4011 95.2954 39.3684 95.2954Z" fill="black"/>
<path d="M40.7817 93.8648C40.7598 93.8648 40.7435 93.8593 40.7271 93.8485C39.2541 92.8258 37.7865 91.7542 36.368 90.6608C36.3243 90.6282 36.3189 90.5684 36.3516 90.5248C36.3843 90.4813 36.4444 90.4759 36.488 90.5085C37.9065 91.6019 39.3686 92.6681 40.8417 93.6907C40.8853 93.7234 40.8962 93.7832 40.8635 93.8267C40.8417 93.8485 40.8144 93.8648 40.7817 93.8648Z" fill="black"/>
<path d="M41.971 92.222C41.9546 92.222 41.9328 92.2166 41.9164 92.2057C40.427 91.2701 38.9321 90.3072 37.4645 89.339C37.4209 89.3118 37.41 89.2465 37.4372 89.203C37.4645 89.1595 37.53 89.1432 37.5736 89.1758C39.0412 90.1441 40.5361 91.1069 42.0255 92.0425C42.0692 92.0697 42.0855 92.1295 42.0582 92.1785C42.0364 92.2057 42.0037 92.222 41.971 92.222Z" fill="black"/>
<path d="M42.9748 90.4106C42.9584 90.4106 42.9421 90.4051 42.9257 90.3997L38.7084 87.9138C38.6648 87.8866 38.6484 87.8268 38.6757 87.7832C38.703 87.7397 38.763 87.7234 38.8066 87.7506L43.0239 90.2365C43.0676 90.2637 43.0839 90.3235 43.0566 90.3671C43.0403 90.3943 43.0075 90.4106 42.9748 90.4106Z" fill="black"/>
<path d="M43.7444 88.7461C43.728 88.7461 43.7116 88.7407 43.6953 88.7353L39.3743 86.3364C39.3252 86.3092 39.3089 86.2494 39.3361 86.2058C39.3634 86.1569 39.4234 86.1406 39.4671 86.1678L43.788 88.5666C43.8371 88.5938 43.8535 88.6537 43.8262 88.6972C43.8098 88.7298 43.7771 88.7461 43.7444 88.7461Z" fill="black"/>
<path d="M44.5517 86.9023C44.5353 86.9023 44.5189 86.8968 44.5026 86.8914L40.1544 84.5143C40.1053 84.4871 40.0889 84.4272 40.1162 84.3837C40.1434 84.3347 40.2035 84.3184 40.2471 84.3456L44.5953 86.7227C44.6444 86.7499 44.6608 86.8098 44.6335 86.8533C44.6172 86.8859 44.5844 86.9023 44.5517 86.9023Z" fill="black"/>
<path d="M45.1901 85.1178C45.1737 85.1178 45.1573 85.1123 45.141 85.1069C43.6079 84.2148 42.0366 83.339 40.4654 82.5013C40.4163 82.4741 40.3999 82.4197 40.4272 82.3708C40.4545 82.3218 40.5145 82.3055 40.5581 82.3327C42.1294 83.1704 43.7006 84.0516 45.2392 84.9437C45.2883 84.9709 45.2992 85.0307 45.2719 85.0743C45.261 85.1015 45.2283 85.1178 45.1901 85.1178Z" fill="black"/>
<path d="M45.5718 82.9855C45.5555 82.9855 45.5445 82.9801 45.5282 82.9746L40.6344 80.6193C40.5853 80.5975 40.5635 80.5377 40.5907 80.4887C40.6126 80.4398 40.6726 80.418 40.7217 80.4452L45.6155 82.8006C45.6646 82.8223 45.6864 82.8822 45.6591 82.9311C45.6428 82.9637 45.61 82.9855 45.5718 82.9855Z" fill="black"/>
<path d="M45.6102 80.989C45.5938 80.989 45.5829 80.9836 45.5665 80.9782C43.908 80.2003 42.2331 79.3952 40.5963 78.5793C40.5472 78.5575 40.5309 78.4977 40.5527 78.4487C40.5745 78.3998 40.6345 78.3834 40.6836 78.4052C42.3258 79.2212 43.9953 80.0262 45.6538 80.8041C45.7029 80.8258 45.7247 80.8857 45.7029 80.9346C45.6865 80.9727 45.6484 80.989 45.6102 80.989Z" fill="black"/>
<path d="M45.6101 79.0256C45.5992 79.0256 45.5829 79.0256 45.5719 79.0148C44.4972 78.5361 43.4333 77.9921 42.4131 77.3992C42.364 77.372 42.3531 77.3122 42.3803 77.2686C42.4076 77.2197 42.4676 77.2088 42.5113 77.236C43.526 77.8235 44.5845 78.362 45.6538 78.8407C45.7029 78.8625 45.7247 78.9223 45.7029 78.9712C45.6811 79.0039 45.6429 79.0256 45.6101 79.0256Z" fill="black"/>
<path d="M45.5011 77.334C45.4902 77.334 45.4738 77.334 45.4629 77.3231L44.579 76.9315C44.5299 76.9097 44.5081 76.8499 44.5299 76.8009C44.5518 76.752 44.6118 76.7302 44.6609 76.752L45.5447 77.1436C45.5938 77.1654 45.6156 77.2252 45.5938 77.2742C45.5774 77.3122 45.5393 77.334 45.5011 77.334Z" fill="black"/>
<g opacity="0.1294">
<path d="M48.2832 80.1241C48.1741 78.9002 47.994 77.6763 47.6012 76.5068C47.4703 76.1804 47.443 75.7561 47.1048 75.5657C46.9083 75.4406 46.6847 75.446 46.4883 75.5276C46.4719 75.5059 46.461 75.4841 46.4392 75.4678C46.1282 75.136 45.5335 75.3644 45.5008 75.805C44.9988 75.7778 44.5678 76.3164 44.7206 76.8114C45.037 78.0516 45.0152 78.7044 44.9879 80.2492C44.977 81.8648 44.4915 84.2528 43.4876 86.8257C43.0621 87.9898 42.9802 88.1476 42.3692 89.3552C41.7581 90.6716 40.7379 92.5265 40.2142 93.0704C39.9905 93.3424 39.7668 93.609 39.5322 93.8755C38.3592 95.0831 37.5463 95.7141 36.1496 96.5518C34.6766 97.4113 33.7327 97.8954 32.3306 98.3143C31.1085 98.6298 30.7048 98.6406 30.1974 98.6624C29.8646 98.5754 29.4391 98.7005 29.319 99.0377C29.2427 99.19 29.2481 99.375 29.319 99.5382C29.0026 100.115 29.5918 100.871 30.2411 100.67C30.5848 100.55 30.4866 100.55 30.7157 100.457C31.0158 100.349 31.3377 100.316 31.6486 100.234C32.0087 100.131 32.3579 99.9842 32.7234 99.8972C32.7889 99.8809 32.8489 99.87 32.9144 99.8591C33.4545 99.8102 34.0001 99.7938 34.5238 99.6307C35.9969 99.1683 38.1628 97.7703 39.6631 96.2254C40.6288 95.2681 41.5672 94.2672 42.331 93.1357C43.0348 92.0968 43.5422 90.949 44.115 89.8339C44.6824 88.7731 45.108 87.6471 45.5117 86.5157C45.9427 85.3462 46.33 84.1549 46.5319 82.9255C46.7501 81.6962 46.7938 80.4342 46.701 79.1885C46.7229 79.145 46.7338 79.1015 46.7501 79.0525C46.8047 79.4986 46.8429 79.9772 46.8702 80.5538C46.9029 81.5711 46.892 82.9962 46.761 83.4858C46.7283 83.5348 46.6956 83.5892 46.6738 83.6436C46.521 83.9319 46.521 84.3018 46.7447 84.552C47.3339 85.2918 48.3759 84.6716 48.2505 83.8666C48.2505 83.8611 48.2505 83.8611 48.2505 83.8557C48.2559 83.7632 48.2559 83.6708 48.2559 83.5783C48.2668 83.4967 48.2777 83.4205 48.2887 83.3389C48.3923 82.2728 48.365 81.1957 48.2832 80.1241Z" fill="#88E0EF"/>
</g>
<g opacity="0.1294">
<path d="M43.6186 68.8968C42.9966 67.2105 42.0528 65.5405 40.6889 64.3438C40.0724 63.7454 39.1667 64.6484 39.7614 65.2685C40.5743 65.8614 41.2617 67.4389 41.4854 67.9775C41.7091 68.5541 41.9437 69.1307 42.1128 69.7236C42.4838 70.9693 44.3115 70.36 43.6186 68.8968Z" fill="black"/>
</g>
<g opacity="0.1294">
<path d="M22.5757 98.4342C21.3918 98.5485 21.3318 98.4179 20.1643 98.1786C19.1713 97.9175 18.1675 97.6999 17.18 97.4116C16.3398 97.2049 15.0795 96.6936 14.714 96.612C14.0975 96.4977 13.7974 97.3898 14.343 97.689C14.9486 98.0154 15.5378 98.3744 16.1761 98.6464C16.7054 98.8749 17.2673 99 17.8074 99.1958C18.9749 99.6582 20.1916 99.99 21.4464 100.093C21.8228 100.126 22.1993 100.11 22.5703 100.05C22.7449 100.028 22.9358 100.006 23.0667 99.8757C23.6832 99.446 23.3232 98.4125 22.5757 98.4342Z" fill="black"/>
</g>
<g opacity="0.1294">
<path d="M15.576 83.3011C15.456 82.6756 15.3032 81.7563 15.3087 81.7073C15.1614 79.9449 15.1341 78.1715 15.1996 76.3982C15.1832 75.5823 13.983 75.5823 13.9557 76.3982C13.912 77.9757 13.8193 79.5586 13.8357 81.1361C13.8848 82.1914 14.103 83.2304 14.2885 84.2694C14.4467 84.8895 15.336 85.0037 15.647 84.4489C15.8761 84.0735 15.636 83.6819 15.576 83.3011Z" fill="black"/>
</g>
<path d="M139.242 71.0433L128.602 60.4038C128.447 60.2489 128.234 60.1581 128.015 60.1581C127.796 60.1581 127.582 60.2436 127.427 60.4038L127 60.8311L124.084 57.9149C130.231 49.289 129.441 37.202 121.707 29.4734C117.536 25.302 111.986 23 106.084 23C100.182 23 94.6328 25.2967 90.4614 29.4734C81.8462 38.0886 81.8462 52.1091 90.4614 60.7243C94.6328 64.8957 100.182 67.1977 106.084 67.1977C110.742 67.1977 115.18 65.7663 118.897 63.1064L121.808 66.0173L121.381 66.4446C121.226 66.5995 121.135 66.8131 121.135 67.0321C121.135 67.2511 121.221 67.4648 121.381 67.6197L132.021 78.2592C132.987 79.2259 134.269 79.7547 135.631 79.7547C136.993 79.7547 138.275 79.2259 139.242 78.2592C140.209 77.2924 140.737 76.0105 140.737 74.6486C140.737 73.2919 140.203 72.0101 139.242 71.0433ZM118.465 61.3492C118.443 61.3652 118.427 61.3812 118.406 61.3973C114.876 64.0785 110.587 65.5366 106.073 65.5366C100.615 65.5366 95.4821 63.4109 91.6258 59.5492C83.6568 51.5803 83.6568 38.6174 91.6258 30.6538C95.4874 26.7922 100.615 24.6664 106.073 24.6664C111.532 24.6664 116.665 26.7922 120.521 30.6538C127.822 37.9551 128.431 49.4492 122.353 57.4555C122.343 57.4715 122.326 57.4822 122.316 57.4983C121.76 58.2193 121.157 58.9136 120.516 59.5546C119.886 60.1902 119.191 60.7937 118.465 61.3492ZM120.222 62.0809C120.735 61.6536 121.232 61.1996 121.707 60.7243C122.182 60.2489 122.631 59.7522 123.058 59.2448L125.82 62.0061L122.983 64.8423L120.222 62.0809ZM138.067 77.0895C138.061 77.0895 138.061 77.0895 138.067 77.0895C136.726 78.4301 134.542 78.4301 133.201 77.0895L123.149 67.0375L123.576 66.6102L127.587 62.599L128.015 62.1717L138.067 72.2237C138.718 72.8753 139.076 73.7352 139.076 74.6592C139.071 75.5726 138.713 76.4378 138.067 77.0895Z" fill="black"/>
<circle cx="106" cy="45" r="21" fill="#FBFBFB"/>
</svg>
