<svg width="66" height="50" viewBox="0 0 66 50" fill="none" xmlns="http://www.w3.org/2000/svg">
<g clip-path="url(#clip0_4800_1756)">
<path d="M11.1253 28.3677L10.9131 27.7699L10.6604 28.3518C9.8598 30.1957 9.41149 32.2372 9.41149 34.3771C9.41149 40.2368 12.7257 45.2932 17.5333 47.6988L18.0886 47.9766L17.8808 47.3916L11.1253 28.3677ZM19.5812 48.2539L19.4996 48.4976L19.7454 48.5725C21.0437 48.968 22.4067 49.1824 23.818 49.1824C25.5012 49.1824 27.1057 48.8857 28.5986 48.3245L28.8894 48.2152L28.7204 47.9545C28.7157 47.9472 28.7065 47.9299 28.6907 47.8954C28.6894 47.8925 28.688 47.8895 28.6866 47.8863C28.6758 47.8625 28.6611 47.8293 28.6473 47.8002L24.3056 35.5564L24.0632 34.8729L23.8329 35.5605L19.5812 48.2539ZM25.7564 27.2951L25.4325 27.3136L25.5329 27.6221L30.635 43.2945L30.8857 44.0649L31.1127 43.2872L32.5296 38.4308C32.5297 38.4308 32.5297 38.4307 32.5297 38.4306C32.592 38.22 32.6531 38.0151 32.7127 37.8155C33.2192 36.1177 33.6107 34.8053 33.6107 33.6485C33.6107 31.7867 32.9555 30.4943 32.4144 29.5126L32.4145 29.5125L32.4106 29.506C32.3506 29.4045 32.2912 29.3049 32.2329 29.2069C31.5867 28.1226 31.0597 27.2381 31.0597 26.217C31.0597 24.9798 31.9693 23.8766 33.1875 23.8766C33.2003 23.8766 33.2158 23.8782 33.2501 23.8826L33.2543 23.8831C33.2833 23.8869 33.3286 23.8927 33.3764 23.8927H34.0052L33.5481 23.461C30.9844 21.0393 27.5697 19.5718 23.818 19.5718C18.7825 19.5718 14.3599 22.2268 11.7663 26.2433L11.5311 26.6075L11.9641 26.6286C12.3009 26.6451 12.6209 26.6451 12.8876 26.6451H12.8896C13.6374 26.6451 14.5883 26.6002 15.349 26.5557C15.73 26.5333 16.0646 26.511 16.304 26.4943C16.4237 26.4859 16.5196 26.4789 16.5857 26.474L16.6616 26.4683L16.6814 26.4668L16.6862 26.4664C16.8109 26.459 16.8895 26.4984 16.9401 26.5483C16.9953 26.6026 17.0326 26.6851 17.0396 26.7798C17.0536 26.9696 16.9509 27.139 16.7315 27.1672L16.7303 27.1673L16.724 27.1681L16.6989 27.1711C16.6767 27.1738 16.6438 27.1777 16.6016 27.1824C16.5173 27.1919 16.3957 27.2049 16.2477 27.2189C15.9515 27.2469 15.5509 27.2789 15.1319 27.2948L14.8011 27.3074L14.9038 27.6222L20.053 43.408L20.2912 44.1382L20.5285 43.4077L23.6306 33.8553L23.6569 33.7745L23.6285 33.6945L21.4239 27.4773L21.3688 27.3219L21.2043 27.3114C20.8315 27.2874 20.4655 27.2514 20.1921 27.2213C20.0556 27.2063 19.9425 27.1927 19.8638 27.183L19.7727 27.1715L19.749 27.1684L19.7431 27.1676L19.7417 27.1674L19.7414 27.1674L19.7413 27.1674L19.7326 27.1662L19.7238 27.1656C19.6019 27.158 19.532 27.109 19.4895 27.0516C19.4426 26.9883 19.4167 26.8966 19.424 26.7955C19.4312 26.6946 19.4703 26.6034 19.5284 26.5423C19.5814 26.4865 19.6581 26.4465 19.7725 26.4505L19.7748 26.4507L19.7949 26.4522L19.8722 26.4578C19.9393 26.4627 20.0367 26.4697 20.1578 26.4781C20.4001 26.4948 20.7376 26.5171 21.1185 26.5395C21.8789 26.584 22.8181 26.6289 23.5188 26.6289C24.2666 26.6289 25.2175 26.584 25.9782 26.5395C26.3592 26.5171 26.6938 26.4948 26.9332 26.4781C27.0529 26.4697 27.1488 26.4627 27.2149 26.4578L27.2908 26.4521L27.3106 26.4506L27.3138 26.4504C27.3144 26.4503 27.3149 26.4503 27.3154 26.4503C27.4401 26.4428 27.5187 26.4822 27.5693 26.5321C27.6245 26.5864 27.6618 26.6689 27.6688 26.7637C27.6828 26.9534 27.5801 27.1228 27.3607 27.151L27.3594 27.1512L27.3531 27.1519L27.3278 27.155C27.3055 27.1577 27.2725 27.1617 27.2301 27.1665C27.1455 27.1763 27.0236 27.1898 26.8753 27.2049C26.5784 27.235 26.1768 27.2711 25.7564 27.2951ZM36.4632 27.2816L35.9948 27.4334C36.0559 27.8734 36.0869 28.3637 36.0869 28.8885C36.0869 30.3285 35.8258 31.9656 35.033 34.0115L35.0327 34.0114L35.0292 34.022L30.6987 46.8773L30.4825 47.5193L31.0639 47.1717C34.3096 45.2317 36.6885 42.0667 37.6963 38.3524C38.704 34.6382 38.2618 30.6662 36.4632 27.2816ZM8.32104 34.3771C8.32104 25.5876 15.286 18.4365 23.818 18.4365C32.35 18.4365 39.315 25.5876 39.315 34.3771C39.315 43.1666 32.35 50.3176 23.818 50.3176C15.286 50.3176 8.32104 43.1666 8.32104 34.3771Z" fill="#FFB217" stroke="black" stroke-width="0.5"/>
<path d="M47.7266 29.7013C50.4191 32.3539 53.116 35.002 55.8085 37.6546C57.2324 39.0563 58.6563 40.458 60.2088 41.6734C61.0472 42.3299 61.9743 42.9465 62.9945 42.9465C64.0103 42.9465 65.0926 42.0904 65.0837 40.9371C65.0793 40.0411 64.4583 39.318 63.8772 38.7059C59.5878 34.1814 55.1032 29.892 50.4457 25.8555C49.594 27.1064 48.7379 28.3572 47.7266 29.7013Z" fill="white"/>
<path d="M62.9946 43.3282C61.859 43.3282 60.8698 42.6762 59.9694 41.9709C58.3991 40.7422 56.9442 39.3094 55.538 37.9254L47.4561 29.9721C47.3186 29.8346 47.3008 29.6173 47.4206 29.462C48.4275 28.1268 49.2925 26.8626 50.1308 25.6384C50.1929 25.5452 50.2905 25.4875 50.4014 25.4698C50.5123 25.4565 50.6232 25.4875 50.7031 25.5585C55.3517 29.5862 59.8807 33.9199 64.1612 38.4356C64.7911 39.1009 65.4653 39.8994 65.4742 40.9285C65.4786 41.5273 65.2346 42.1084 64.7866 42.5564C64.3031 43.0443 63.6378 43.3282 62.9946 43.3282ZM48.2368 29.6616L56.0792 37.3754C57.472 38.7461 58.9137 40.1611 60.4484 41.3632C61.238 41.9842 62.0941 42.5564 62.9946 42.5564C63.4337 42.5564 63.8995 42.3523 64.2366 42.0152C64.5382 41.7136 64.7023 41.3277 64.6979 40.9373C64.6935 40.1877 64.1523 39.5534 63.5978 38.9723C59.4326 34.5809 55.0368 30.3625 50.5212 26.4324C49.8115 27.4703 49.0751 28.5394 48.2368 29.6616Z" fill="black"/>
<path d="M37.2097 0.385742C27.93 0.385742 20.407 7.90881 20.407 17.1884C20.407 26.4681 27.93 33.9911 37.2097 33.9911C46.4893 33.9911 54.0124 26.4681 54.0124 17.1884C54.0124 7.90881 46.4893 0.385742 37.2097 0.385742ZM37.2097 29.9501C30.1612 29.9501 24.448 24.2369 24.448 17.1884C24.448 10.14 30.1612 4.42673 37.2097 4.42673C44.2581 4.42673 49.9714 10.14 49.9714 17.1884C49.9714 24.2369 44.2581 29.9501 37.2097 29.9501ZM37.2097 29.9501C30.1612 29.9501 24.448 24.2369 24.448 17.1884C24.448 10.14 30.1612 4.42673 37.2097 4.42673C44.2581 4.42673 49.9714 10.14 49.9714 17.1884C49.9714 24.2369 44.2581 29.9501 37.2097 29.9501Z" fill="white"/>
<path d="M37.2096 34.3817C27.7304 34.3817 20.021 26.6723 20.021 17.193C20.021 7.70937 27.7304 0 37.2096 0C46.6888 0 54.3982 7.70937 54.3982 17.1886C54.3982 26.6678 46.6888 34.3817 37.2096 34.3817ZM37.2096 0.771824C28.1562 0.771824 20.7928 8.1352 20.7928 17.1886C20.7928 26.242 28.1562 33.6054 37.2096 33.6054C46.263 33.6054 53.6264 26.242 53.6264 17.1886C53.6264 8.1352 46.263 0.771824 37.2096 0.771824ZM37.2096 30.3362C29.9616 30.3362 24.062 24.4367 24.062 17.1886C24.062 9.94056 29.9616 4.04099 37.2096 4.04099C44.4577 4.04099 50.3572 9.94056 50.3572 17.1886C50.3572 24.4411 44.4577 30.3362 37.2096 30.3362ZM24.8338 17.1886C24.8338 24.0153 30.3874 29.5644 37.2096 29.5644C44.0363 29.5644 49.5854 24.0108 49.5854 17.1886C49.5854 10.362 44.0318 4.81281 37.2096 4.81281C30.383 4.81281 24.8338 10.3664 24.8338 17.1886Z" fill="black"/>
<path d="M30.6536 18.3331C31.3812 18.3331 31.971 17.7433 31.971 17.0157C31.971 16.2881 31.3812 15.6982 30.6536 15.6982C29.926 15.6982 29.3362 16.2881 29.3362 17.0157C29.3362 17.7433 29.926 18.3331 30.6536 18.3331Z" fill="white"/>
<path d="M30.6535 18.7192C29.7131 18.7192 28.9502 17.9562 28.9502 17.0158C28.9502 16.0755 29.7131 15.3125 30.6535 15.3125C31.5939 15.3125 32.3569 16.0755 32.3569 17.0158C32.3569 17.9562 31.5939 18.7192 30.6535 18.7192ZM30.6535 16.0843C30.139 16.0843 29.722 16.5013 29.722 17.0158C29.722 17.5304 30.139 17.9473 30.6535 17.9473C31.1681 17.9473 31.585 17.5304 31.585 17.0158C31.585 16.5013 31.1681 16.0843 30.6535 16.0843Z" fill="black"/>
<path d="M37.0367 18.3331C37.7643 18.3331 38.3541 17.7433 38.3541 17.0157C38.3541 16.2881 37.7643 15.6982 37.0367 15.6982C36.3091 15.6982 35.7192 16.2881 35.7192 17.0157C35.7192 17.7433 36.3091 18.3331 37.0367 18.3331Z" fill="white"/>
<path d="M37.0366 18.7192C36.0962 18.7192 35.3333 17.9562 35.3333 17.0158C35.3333 16.0755 36.0962 15.3125 37.0366 15.3125C37.977 15.3125 38.7399 16.0755 38.7399 17.0158C38.7444 17.9562 37.977 18.7192 37.0366 18.7192ZM37.0366 16.0843C36.522 16.0843 36.1051 16.5013 36.1051 17.0158C36.1051 17.5304 36.522 17.9473 37.0366 17.9473C37.5511 17.9473 37.9681 17.5304 37.9681 17.0158C37.9725 16.5013 37.5511 16.0843 37.0366 16.0843Z" fill="black"/>
<path d="M43.4241 18.3331C44.1517 18.3331 44.7415 17.7433 44.7415 17.0157C44.7415 16.2881 44.1517 15.6982 43.4241 15.6982C42.6965 15.6982 42.1067 16.2881 42.1067 17.0157C42.1067 17.7433 42.6965 18.3331 43.4241 18.3331Z" fill="white"/>
<path d="M43.424 18.7192C42.4837 18.7192 41.7207 17.9562 41.7207 17.0158C41.7207 16.0755 42.4837 15.3125 43.424 15.3125C44.3644 15.3125 45.1274 16.0755 45.1274 17.0158C45.1274 17.9562 44.3644 18.7192 43.424 18.7192ZM43.424 16.0843C42.9095 16.0843 42.4925 16.5013 42.4925 17.0158C42.4925 17.5304 42.9095 17.9473 43.424 17.9473C43.9386 17.9473 44.3556 17.5304 44.3556 17.0158C44.3556 16.5013 43.9386 16.0843 43.424 16.0843Z" fill="black"/>
<path d="M49.8914 30.1808C49.878 30.1808 49.8692 30.1808 49.8559 30.1764C49.7893 30.1586 49.7494 30.0877 49.7672 30.0167L50.0644 28.9832C50.0821 28.9166 50.1531 28.8723 50.224 28.8944C50.2906 28.9122 50.3305 28.9832 50.3128 29.0541L50.0156 30.0877C49.9978 30.1453 49.949 30.1808 49.8914 30.1808Z" fill="black"/>
<path d="M51.3064 31.9954C51.302 31.9954 51.2931 31.9954 51.2887 31.9954C51.2177 31.9866 51.1689 31.92 51.1778 31.849C51.3375 30.6425 51.5282 29.4182 51.7456 28.2206C51.7589 28.1496 51.8254 28.1053 51.8964 28.1186C51.9674 28.1319 52.0117 28.1984 51.9984 28.2694C51.7811 29.467 51.5903 30.6824 51.4351 31.889C51.4262 31.9466 51.3685 31.9954 51.3064 31.9954Z" fill="black"/>
<path d="M53.1428 33.7521C53.0718 33.7521 53.0142 33.6944 53.0142 33.6235C53.0142 33.0202 53.1073 32.0044 53.1872 31.1084C53.2359 30.5628 53.2803 30.0926 53.2936 29.7954C53.298 29.7244 53.3513 29.6623 53.4267 29.6756C53.4977 29.6801 53.5509 29.7377 53.5465 29.8087C53.5331 30.1103 53.4888 30.585 53.4356 31.135C53.3557 32.0266 53.2626 33.0335 53.2626 33.6279C53.2714 33.6944 53.2138 33.7521 53.1428 33.7521Z" fill="black"/>
<path d="M55.0192 35.4866C54.9482 35.4866 54.8906 35.429 54.8906 35.3624L54.793 31.0686C54.793 30.9976 54.8462 30.94 54.9172 30.9355C54.9881 30.94 55.0458 30.9888 55.0502 31.0597L55.1478 35.3536C55.1523 35.4245 55.0946 35.4822 55.0192 35.4866Z" fill="black"/>
<path d="M56.807 37.3845C56.736 37.3845 56.6828 37.3313 56.6783 37.2603L56.5098 32.7669C56.5053 32.6959 56.563 32.6382 56.634 32.6338C56.7005 32.6338 56.7626 32.687 56.767 32.758L56.9356 37.2514C56.94 37.3224 56.8824 37.3801 56.8114 37.3845C56.8114 37.3845 56.8114 37.3845 56.807 37.3845Z" fill="black"/>
<path d="M58.63 38.9816C58.5635 38.9816 58.5058 38.9284 58.5014 38.8619L58.2752 34.6612C58.2707 34.5902 58.324 34.5281 58.3949 34.5237C58.4748 34.5193 58.528 34.5725 58.5324 34.6435L58.7587 38.8441C58.7631 38.9151 58.7099 38.9772 58.6389 38.9816C58.6345 38.9816 58.63 38.9816 58.63 38.9816Z" fill="black"/>
<path d="M60.4307 40.4627C60.3641 40.4627 60.3065 40.4094 60.302 40.3429L59.9871 36.2576C59.9826 36.1866 60.0359 36.1245 60.1068 36.12C60.1734 36.1112 60.2399 36.1688 60.2444 36.2398L60.5593 40.3252C60.5637 40.3961 60.5105 40.4582 60.4395 40.4627C60.4351 40.4627 60.4351 40.4627 60.4307 40.4627Z" fill="black"/>
<path d="M62.1386 41.7896C62.0721 41.7896 62.0189 41.7408 62.01 41.6743L61.6418 38.0902C61.633 38.0192 61.6862 37.9571 61.7572 37.9482C61.8237 37.9394 61.8902 37.9926 61.8991 38.0636L62.2673 41.6477C62.2761 41.7186 62.2229 41.7807 62.1519 41.7896C62.1475 41.7896 62.1431 41.7896 62.1386 41.7896Z" fill="black"/>
<path d="M63.8066 41.5985C63.7445 41.5985 63.6912 41.5542 63.6779 41.4921L63.4206 39.8908C63.4073 39.8198 63.4561 39.7532 63.5271 39.7444C63.5981 39.7311 63.6646 39.7799 63.6735 39.8508L63.9308 41.4521C63.9441 41.5231 63.8953 41.5897 63.8243 41.5985C63.8199 41.5985 63.8154 41.5985 63.8066 41.5985Z" fill="black"/>
<g opacity="0.1294">
<path d="M49.0974 21.2557C48.676 21.6106 48.4809 22.1873 48.1216 22.6086C48.055 22.7284 47.1945 23.6998 46.7066 24.1656C46.2852 24.5426 45.8815 24.8753 45.469 25.1858C45.398 25.1991 45.3226 25.2258 45.2516 25.2701C43.1491 26.7916 41.5699 27.3461 38.9173 27.834C37.6576 28.0691 36.2027 28.2687 34.2199 27.7763C32.827 27.4525 32.1572 27.071 30.7023 26.0907C30.0857 25.656 28.7106 24.4451 27.7747 23.3139C26.7678 21.9388 26.4262 20.7368 26.2177 20.1912C26.0093 19.6278 25.8496 19.0512 25.6854 18.4745C25.4415 17.6849 25.3661 17.4055 25.3661 16.7313C25.2108 16.301 25.0733 15.8707 24.9447 15.4316C24.8205 15.3739 24.683 15.3473 24.5454 15.3562C24.3192 17.0906 24.3547 18.8338 24.5721 20.5638C24.9491 22.0586 25.4149 23.6777 26.8476 25.2879C28.0009 26.5609 28.7949 27.0001 29.2917 27.4082C30.4495 28.2421 31.6826 29.005 33.0444 29.4486C33.7896 29.666 34.5659 29.7547 35.3332 29.8478C35.3377 29.8478 35.3421 29.8478 35.3465 29.8523C36.1849 30.0031 37.0366 30.0075 37.8794 29.9144C38.5403 29.8611 39.1791 29.666 39.8178 29.493C41.1441 29.1692 42.466 28.7611 43.6769 28.1223C44.1693 27.8207 44.3379 27.7009 44.5685 27.5279C46.0545 26.6008 47.5893 25.3145 48.3744 24.4184C48.5785 23.997 48.7781 23.5712 48.9599 23.1409C49.1906 22.4978 49.4257 21.8546 49.6519 21.2114C49.4789 21.1448 49.2704 21.1493 49.0974 21.2557Z" fill="black"/>
</g>
<g opacity="0.1294">
<path d="M51.8389 26.7389C51.2001 26.5571 50.7699 27.0006 50.4549 27.4886C50.4416 27.5063 50.4283 27.5196 50.4106 27.5418C49.8517 28.1939 49.6964 28.1362 48.7738 28.9701C48.7693 28.9746 48.7649 28.9746 48.7605 28.979C48.5786 29.1076 48.3612 29.1963 48.2459 29.3959C47.4696 30.3496 48.654 31.6804 49.7053 31.0594C50.4372 30.6557 51.0671 30.0835 51.5727 29.4181C51.8965 29.0633 52.2115 28.6951 52.4599 28.2826C52.8192 27.7059 52.4865 26.9075 51.8389 26.7389Z" fill="black"/>
</g>
<path d="M14.7071 7.34199L14.0639 5.1729L15.4168 3.22116L12.0811 0.861328C11.6509 1.57992 11.2206 2.29408 10.7903 3.01268C10.7681 3.0526 10.7415 3.08808 10.706 3.1147C10.6572 3.15019 10.5951 3.15019 10.533 3.14575C9.79227 3.13688 9.04706 3.12357 8.30629 3.10583C7.93812 2.3961 7.58326 1.72187 7.18404 1.07425C7.15299 1.02102 7.11307 0.967787 7.0554 0.954479C6.99774 0.941172 6.94007 0.972222 6.88684 1.00327C6.00413 1.54444 5.12141 2.0856 4.23869 2.6312C4.22095 2.64007 4.19433 2.65338 4.18102 2.67556C4.1411 2.73322 4.17659 2.80863 4.20764 2.87073C4.54032 3.474 4.93954 4.03734 5.39199 4.55189C4.99277 5.30153 4.57137 6.00239 4.11449 6.67219C4.00359 6.83187 3.87939 7.00487 3.69309 7.0581C3.53784 7.10246 3.37371 7.06253 3.2229 7.01818C2.60189 6.84075 1.98532 6.6367 1.38205 6.41048C0.863067 7.66136 0.76548 9.08968 1.10703 10.3982C1.15139 10.4958 3.45799 10.1587 3.45799 10.1587L4.83308 12.5939L3.72857 14.4481L6.25696 16.3289L7.56995 14.3682L9.88542 14.417L10.7814 16.4841L14.2369 15.2643L13.3986 13.144L14.6406 11.0858L16.9827 10.895L17.0536 7.9763L14.7071 7.34199ZM10.7193 8.4465C10.7415 8.54852 10.6528 8.75256 10.6173 8.84571C10.5863 8.92556 10.5508 9.0054 10.502 9.07637C10.4133 9.21388 10.3024 9.34696 10.1826 9.45785C9.93422 9.69295 9.6592 9.86151 9.34426 9.98127C9.21562 10.0301 9.08255 10.0611 8.94504 10.0833C8.82527 10.1055 8.71882 10.1143 8.59905 10.101C8.52364 10.0922 8.44823 10.07 8.37726 10.07C8.58131 10.07 8.35952 10.0744 8.27967 10.0478C7.92481 9.94578 7.57439 9.64859 7.40139 9.32034C7.29493 9.12073 7.20178 8.89894 7.19291 8.66828C7.18404 8.46424 7.23727 8.24688 7.31711 8.06058C7.42801 7.79 7.55664 7.51942 7.72077 7.27545C7.90707 7.00487 8.13773 6.72098 8.43493 6.57016C8.73656 6.41935 9.05593 6.39273 9.34869 6.50806C9.46846 6.4504 9.60597 6.43265 9.7213 6.47701C9.93865 6.56129 10.1205 6.66332 10.2713 6.84962C10.4177 7.03148 10.5153 7.20448 10.5996 7.42627C10.6262 7.4928 10.6484 7.56378 10.6661 7.63475C10.675 7.67467 10.6839 7.71903 10.6883 7.75895C10.6972 7.82549 10.706 7.88759 10.7149 7.95412C10.7149 7.94082 10.7105 7.92307 10.7105 7.90977C10.706 7.8521 10.706 7.8521 10.7149 7.90533C10.7238 7.97187 10.7327 8.0384 10.7415 8.10494C10.746 8.14043 10.746 8.17148 10.746 8.20696C10.746 8.27794 10.7415 8.36665 10.7193 8.4465Z" fill="white"/>
<g opacity="0.1294">
<path d="M11.1849 8.87647C11.1583 8.51273 10.6083 8.47725 10.5285 8.83211C10.4176 9.17366 10.4619 9.116 10.1026 9.47086C9.75663 9.75475 9.88083 9.67047 9.33967 9.87452C8.83399 10.0298 9.03804 9.99872 8.6122 9.99428C8.55454 9.98541 8.49687 9.96767 8.43921 9.94992C8.23073 9.87008 8.29726 9.91 7.89804 9.68821C7.73392 9.60393 7.58754 9.44868 7.3968 9.43981C6.82015 9.33335 6.53626 10.185 7.04638 10.4778C7.95127 11.1121 8.86061 11.396 9.89414 10.8726C10.4264 10.5754 10.8168 10.0741 11.0075 9.4886C11.0874 9.28899 11.1983 9.08495 11.1849 8.87647Z" fill="black"/>
</g>
<g opacity="0.1294">
<path d="M13.0658 14.6432C12.7286 14.7674 12.6044 14.8517 11.9657 14.967C11.6641 15.0646 11.2959 15.0158 11.0342 15.2154C10.493 15.6102 10.941 16.5151 11.5709 16.3244C12.3294 16.1647 13.1988 16.1292 13.7888 15.5614C14.259 15.0291 13.669 14.3327 13.0658 14.6432Z" fill="black"/>
</g>
<g opacity="0.1294">
<path d="M17.2575 9.71505C17.2575 9.71062 17.2575 9.70175 17.2619 9.69731C17.2619 9.70175 17.2619 9.71062 17.2575 9.71505C17.2619 9.58642 17.2309 9.45778 17.1688 9.34689C16.9071 8.84564 16.1397 8.92992 15.9578 9.44447C15.9445 9.46665 15.9312 9.4977 15.9179 9.52875C15.8691 9.63077 15.8336 9.73723 15.7937 9.84369C15.7582 9.92354 15.7138 10.0344 15.6828 10.0965C15.6163 10.2119 15.5852 10.3361 15.5852 10.4691C15.5941 11.3208 16.774 11.4849 17.0002 10.6643C17.1155 10.3982 17.2087 10.1276 17.2442 9.84369C17.2531 9.79933 17.2575 9.75941 17.2575 9.71505Z" fill="black"/>
</g>
<path d="M10.7502 16.8431C10.5949 16.8431 10.4485 16.7455 10.3909 16.5991C10.1469 15.9781 9.91181 15.3882 9.56138 14.7982C8.88271 14.8692 8.1996 14.8337 7.55198 14.7716C7.36124 15.1132 7.17937 15.468 6.98864 15.8362C6.86887 16.0668 6.74467 16.3019 6.61603 16.5415C6.52288 16.7145 6.31883 16.7899 6.13253 16.7189C4.99254 16.2709 3.99893 15.5345 3.25815 14.603C3.15169 14.47 3.14726 14.2792 3.24485 14.1417C3.60858 13.6272 3.98562 13.0993 4.3804 12.4694C3.97231 11.915 3.60414 11.2629 3.26259 10.4866C3.13395 10.5133 3.00531 10.5399 2.87224 10.5709C2.32664 10.6863 1.7633 10.806 1.1556 10.8947C0.960424 10.9213 0.778557 10.8016 0.729764 10.6108C0.379338 9.31116 0.476925 7.84292 1.01809 6.24605C1.08463 6.05531 1.28423 5.94885 1.47941 5.99764C2.21575 6.18395 2.95652 6.37468 3.73278 6.56099C4.04328 5.91336 4.41589 5.30566 4.81067 4.67578C4.44694 4.17898 4.04772 3.6112 3.68842 2.95027C3.59971 2.79502 3.63519 2.59984 3.76383 2.48008C4.60663 1.70825 5.66678 1.03845 6.91323 0.488417C7.09509 0.408573 7.30801 0.479545 7.4056 0.65254C7.76933 1.3046 8.10201 1.98327 8.39034 2.67082C9.1178 2.56436 9.85414 2.53774 10.586 2.59541C10.9276 1.93448 11.2869 1.25581 11.7349 0.546082C11.8414 0.377522 12.0632 0.315422 12.2406 0.408573C13.1588 0.887636 14.0238 1.46872 14.8133 2.13409C15.0263 2.31152 15.2303 2.49782 15.4388 2.68412C15.5452 2.78171 15.6961 2.91478 15.7493 3.12326C15.7759 3.22972 15.7582 3.34062 15.6961 3.43377C15.5186 3.69991 15.3323 3.96606 15.146 4.23664C14.9021 4.58707 14.6536 4.94637 14.3964 5.33671C14.6093 5.87344 14.8266 6.41904 15.0307 6.97351C15.6872 7.04005 16.5122 7.17756 17.395 7.54129C17.5325 7.59896 17.6256 7.72759 17.6345 7.87397C17.7055 9.07163 17.5502 10.1673 17.1554 11.223C17.0978 11.3782 16.9558 11.4847 16.7784 11.4714L16.5211 11.4625C15.9622 11.4403 15.3855 11.4182 14.7778 11.4581C14.5339 12.0214 14.1835 12.5936 13.6866 13.2191C14.0193 13.809 14.3565 14.43 14.6581 15.1575C14.7335 15.3394 14.6581 15.5479 14.4851 15.6454C13.2786 16.3019 12.041 16.7056 10.799 16.8387C10.7768 16.8431 10.7635 16.8431 10.7502 16.8431ZM9.76099 13.9998C9.88963 13.9998 10.0138 14.0663 10.0848 14.1772C10.4885 14.8026 10.759 15.4281 11.003 16.0402C11.9434 15.9027 12.8793 15.6011 13.802 15.1353C13.5137 14.4921 13.1943 13.9288 12.8838 13.3788C12.8039 13.2413 12.8217 13.0683 12.9237 12.9441C13.5225 12.2166 13.9129 11.5867 14.148 10.9657C14.2012 10.8282 14.3254 10.7306 14.4718 10.7173C15.2081 10.6463 15.8779 10.6729 16.5255 10.6996C16.7917 9.90112 16.907 9.0672 16.876 8.17117C16.0598 7.86954 15.3013 7.77195 14.7202 7.72316C14.5694 7.70985 14.4407 7.61226 14.3875 7.46588C14.148 6.78277 13.873 6.09967 13.6068 5.43874C13.5624 5.32341 13.5713 5.19033 13.6423 5.08387C13.9439 4.61368 14.2322 4.19672 14.5117 3.79307C14.6448 3.60233 14.7734 3.41603 14.8976 3.23416C14.7069 3.06116 14.5117 2.88817 14.3165 2.71961C13.66 2.16957 12.9503 1.68164 12.2051 1.26468C11.8103 1.92117 11.4776 2.55992 11.1583 3.18093C11.0873 3.32287 10.932 3.40272 10.7768 3.38941C9.92512 3.3007 9.06458 3.33618 8.22178 3.487C8.04435 3.51805 7.86248 3.42046 7.79595 3.2519C7.53424 2.60428 7.23704 1.96109 6.90436 1.34452C5.98172 1.77923 5.17884 2.2849 4.51348 2.84825C4.8639 3.44708 5.24538 3.9705 5.5825 4.42295C5.68008 4.55158 5.68452 4.72458 5.60024 4.85765C5.11231 5.63835 4.64655 6.37912 4.30056 7.16425C4.22515 7.33725 4.03885 7.42596 3.85698 7.3816C3.08959 7.1953 2.36213 7.01344 1.64353 6.82713C1.28867 8.00261 1.20883 9.09381 1.39956 10.0697C1.85645 9.99427 2.29115 9.90112 2.71255 9.81241C2.95652 9.76361 3.19162 9.71482 3.42671 9.66603C3.60858 9.63054 3.79045 9.72813 3.85698 9.89669C4.24733 10.8415 4.67316 11.6 5.15666 12.2033C5.25869 12.3319 5.26756 12.5094 5.18328 12.6469C4.78406 13.2989 4.41145 13.8357 4.04772 14.3458C4.60663 14.9845 5.30748 15.5035 6.09705 15.8672C6.16802 15.7342 6.23455 15.6055 6.30109 15.4769C6.53619 15.0244 6.76241 14.5942 7.00194 14.1728C7.07735 14.0397 7.22373 13.9643 7.37898 13.9776C8.12863 14.0574 8.9315 14.1151 9.70333 13.9998C9.72107 13.9998 9.73881 13.9998 9.76099 13.9998Z" fill="black"/>
<path d="M8.69652 10.2694C8.36383 10.2694 8.03115 10.2028 7.72065 10.0653C7.44563 9.94113 7.24602 9.79031 7.11295 9.59514C6.93108 9.33343 6.88672 9.0318 6.86898 8.7967C6.80688 7.99383 7.00205 7.26193 7.41458 6.73407C7.92913 6.07758 8.7808 5.78925 9.49496 6.03322C9.54818 6.05096 9.59254 6.08201 9.63246 6.1175C10.3732 6.37477 10.9188 7.11998 10.9632 7.93616C11.0076 8.72573 10.5995 9.50642 9.92079 9.93226C9.55706 10.154 9.13122 10.2694 8.69652 10.2694ZM8.97153 6.71189C8.62998 6.71189 8.26625 6.89376 8.02672 7.20426C7.73395 7.5813 7.59645 8.1269 7.6408 8.7346C7.64968 8.87211 7.67185 9.0451 7.74726 9.15156C7.80049 9.22697 7.89364 9.29351 8.03559 9.36004C8.51909 9.57296 9.08243 9.54191 9.5127 9.27133C9.9474 8.99631 10.2224 8.47289 10.1958 7.97165C10.1692 7.46597 9.8232 6.98691 9.37519 6.83609L9.32196 6.81835C9.23768 6.79173 9.17114 6.76068 9.11792 6.7252C9.06469 6.71633 9.02033 6.71189 8.97153 6.71189Z" fill="black"/>
<path d="M14.7071 7.34199L14.0639 5.1729L15.4168 3.22116L12.0811 0.861328C11.6509 1.57992 11.2206 2.29408 10.7903 3.01268C10.7681 3.0526 10.7415 3.08808 10.706 3.1147C10.6572 3.15019 10.5951 3.15019 10.533 3.14575C9.79227 3.13688 9.04706 3.12357 8.30629 3.10583C7.93812 2.3961 7.58326 1.72187 7.18404 1.07425C7.15299 1.02102 7.11307 0.967787 7.0554 0.954479C6.99774 0.941172 6.94007 0.972222 6.88684 1.00327C6.00413 1.54444 5.12141 2.0856 4.23869 2.6312C4.22095 2.64007 4.19433 2.65338 4.18102 2.67556C4.1411 2.73322 4.17659 2.80863 4.20764 2.87073C4.54032 3.474 4.93954 4.03734 5.39199 4.55189C4.99277 5.30153 4.57137 6.00239 4.11449 6.67219C4.00359 6.83187 3.87939 7.00487 3.69309 7.0581C3.53784 7.10246 3.37371 7.06253 3.2229 7.01818C2.60189 6.84075 1.98532 6.6367 1.38205 6.41048C0.863067 7.66136 0.76548 9.08968 1.10703 10.3982C1.15139 10.4958 3.45799 10.1587 3.45799 10.1587L4.83308 12.5939L3.72857 14.4481L6.25696 16.3289L7.56995 14.3682L9.88542 14.417L10.7814 16.4841L14.2369 15.2643L13.3986 13.144L14.6406 11.0858L16.9827 10.895L17.0536 7.9763L14.7071 7.34199ZM10.7193 8.4465C10.7415 8.54852 10.6528 8.75256 10.6173 8.84571C10.5863 8.92556 10.5508 9.0054 10.502 9.07637C10.4133 9.21388 10.3024 9.34696 10.1826 9.45785C9.93422 9.69295 9.6592 9.86151 9.34426 9.98127C9.21562 10.0301 9.08255 10.0611 8.94504 10.0833C8.82527 10.1055 8.71882 10.1143 8.59905 10.101C8.52364 10.0922 8.44823 10.07 8.37726 10.07C8.58131 10.07 8.35952 10.0744 8.27967 10.0478C7.92481 9.94578 7.57439 9.64859 7.40139 9.32034C7.29493 9.12073 7.20178 8.89894 7.19291 8.66828C7.18404 8.46424 7.23727 8.24688 7.31711 8.06058C7.42801 7.79 7.55664 7.51942 7.72077 7.27545C7.90707 7.00487 8.13773 6.72098 8.43493 6.57016C8.73656 6.41935 9.05593 6.39273 9.34869 6.50806C9.46846 6.4504 9.60597 6.43265 9.7213 6.47701C9.93865 6.56129 10.1205 6.66332 10.2713 6.84962C10.4177 7.03148 10.5153 7.20448 10.5996 7.42627C10.6262 7.4928 10.6484 7.56378 10.6661 7.63475C10.675 7.67467 10.6839 7.71903 10.6883 7.75895C10.6972 7.82549 10.706 7.88759 10.7149 7.95412C10.7149 7.94082 10.7105 7.92307 10.7105 7.90977C10.706 7.8521 10.706 7.8521 10.7149 7.90533C10.7238 7.97187 10.7327 8.0384 10.7415 8.10494C10.746 8.14043 10.746 8.17148 10.746 8.20696C10.746 8.27794 10.7415 8.36665 10.7193 8.4465Z" fill="white"/>
<g opacity="0.1294">
<path d="M11.1849 8.87647C11.1583 8.51273 10.6083 8.47725 10.5285 8.83211C10.4176 9.17366 10.4619 9.116 10.1026 9.47086C9.75663 9.75475 9.88083 9.67047 9.33967 9.87452C8.83399 10.0298 9.03804 9.99872 8.6122 9.99428C8.55454 9.98541 8.49687 9.96767 8.43921 9.94992C8.23073 9.87008 8.29726 9.91 7.89804 9.68821C7.73392 9.60393 7.58754 9.44868 7.3968 9.43981C6.82015 9.33335 6.53626 10.185 7.04638 10.4778C7.95127 11.1121 8.86061 11.396 9.89414 10.8726C10.4264 10.5754 10.8168 10.0741 11.0075 9.4886C11.0874 9.28899 11.1983 9.08495 11.1849 8.87647Z" fill="black"/>
</g>
<g opacity="0.1294">
<path d="M13.0658 14.6432C12.7286 14.7674 12.6044 14.8517 11.9657 14.967C11.6641 15.0646 11.2959 15.0158 11.0342 15.2154C10.493 15.6102 10.941 16.5151 11.5709 16.3244C12.3294 16.1647 13.1988 16.1292 13.7888 15.5614C14.259 15.0291 13.669 14.3327 13.0658 14.6432Z" fill="black"/>
</g>
<g opacity="0.1294">
<path d="M17.2575 9.71505C17.2575 9.71062 17.2575 9.70175 17.2619 9.69731C17.2619 9.70175 17.2619 9.71062 17.2575 9.71505C17.2619 9.58642 17.2309 9.45778 17.1688 9.34689C16.9071 8.84564 16.1397 8.92992 15.9578 9.44447C15.9445 9.46665 15.9312 9.4977 15.9179 9.52875C15.8691 9.63077 15.8336 9.73723 15.7937 9.84369C15.7582 9.92354 15.7138 10.0344 15.6828 10.0965C15.6163 10.2119 15.5852 10.3361 15.5852 10.4691C15.5941 11.3208 16.774 11.4849 17.0002 10.6643C17.1155 10.3982 17.2087 10.1276 17.2442 9.84369C17.2531 9.79933 17.2575 9.75941 17.2575 9.71505Z" fill="black"/>
</g>
<path d="M10.7502 16.8431C10.5949 16.8431 10.4485 16.7455 10.3909 16.5991C10.1469 15.9781 9.91181 15.3882 9.56138 14.7982C8.88271 14.8692 8.1996 14.8337 7.55198 14.7716C7.36124 15.1132 7.17937 15.468 6.98864 15.8362C6.86887 16.0668 6.74467 16.3019 6.61603 16.5415C6.52288 16.7145 6.31883 16.7899 6.13253 16.7189C4.99254 16.2709 3.99893 15.5345 3.25815 14.603C3.15169 14.47 3.14726 14.2792 3.24485 14.1417C3.60858 13.6272 3.98562 13.0993 4.3804 12.4694C3.97231 11.915 3.60414 11.2629 3.26259 10.4866C3.13395 10.5133 3.00531 10.5399 2.87224 10.5709C2.32664 10.6863 1.7633 10.806 1.1556 10.8947C0.960424 10.9213 0.778557 10.8016 0.729764 10.6108C0.379338 9.31116 0.476925 7.84292 1.01809 6.24605C1.08463 6.05531 1.28423 5.94885 1.47941 5.99764C2.21575 6.18395 2.95652 6.37468 3.73278 6.56099C4.04328 5.91336 4.41589 5.30566 4.81067 4.67578C4.44694 4.17898 4.04772 3.6112 3.68842 2.95027C3.59971 2.79502 3.63519 2.59984 3.76383 2.48008C4.60663 1.70825 5.66678 1.03845 6.91323 0.488417C7.09509 0.408573 7.30801 0.479545 7.4056 0.65254C7.76933 1.3046 8.10201 1.98327 8.39034 2.67082C9.1178 2.56436 9.85414 2.53774 10.586 2.59541C10.9276 1.93448 11.2869 1.25581 11.7349 0.546082C11.8414 0.377522 12.0632 0.315422 12.2406 0.408573C13.1588 0.887636 14.0238 1.46872 14.8133 2.13409C15.0263 2.31152 15.2303 2.49782 15.4388 2.68412C15.5452 2.78171 15.6961 2.91478 15.7493 3.12326C15.7759 3.22972 15.7582 3.34062 15.6961 3.43377C15.5186 3.69991 15.3323 3.96606 15.146 4.23664C14.9021 4.58707 14.6536 4.94637 14.3964 5.33671C14.6093 5.87344 14.8266 6.41904 15.0307 6.97351C15.6872 7.04005 16.5122 7.17756 17.395 7.54129C17.5325 7.59896 17.6256 7.72759 17.6345 7.87397C17.7055 9.07163 17.5502 10.1673 17.1554 11.223C17.0978 11.3782 16.9558 11.4847 16.7784 11.4714L16.5211 11.4625C15.9622 11.4403 15.3855 11.4182 14.7778 11.4581C14.5339 12.0214 14.1835 12.5936 13.6866 13.2191C14.0193 13.809 14.3565 14.43 14.6581 15.1575C14.7335 15.3394 14.6581 15.5479 14.4851 15.6454C13.2786 16.3019 12.041 16.7056 10.799 16.8387C10.7768 16.8431 10.7635 16.8431 10.7502 16.8431ZM9.76099 13.9998C9.88963 13.9998 10.0138 14.0663 10.0848 14.1772C10.4885 14.8026 10.759 15.4281 11.003 16.0402C11.9434 15.9027 12.8793 15.6011 13.802 15.1353C13.5137 14.4921 13.1943 13.9288 12.8838 13.3788C12.8039 13.2413 12.8217 13.0683 12.9237 12.9441C13.5225 12.2166 13.9129 11.5867 14.148 10.9657C14.2012 10.8282 14.3254 10.7306 14.4718 10.7173C15.2081 10.6463 15.8779 10.6729 16.5255 10.6996C16.7917 9.90112 16.907 9.0672 16.876 8.17117C16.0598 7.86954 15.3013 7.77195 14.7202 7.72316C14.5694 7.70985 14.4407 7.61226 14.3875 7.46588C14.148 6.78277 13.873 6.09967 13.6068 5.43874C13.5624 5.32341 13.5713 5.19033 13.6423 5.08387C13.9439 4.61368 14.2322 4.19672 14.5117 3.79307C14.6448 3.60233 14.7734 3.41603 14.8976 3.23416C14.7069 3.06116 14.5117 2.88817 14.3165 2.71961C13.66 2.16957 12.9503 1.68164 12.2051 1.26468C11.8103 1.92117 11.4776 2.55992 11.1583 3.18093C11.0873 3.32287 10.932 3.40272 10.7768 3.38941C9.92512 3.3007 9.06458 3.33618 8.22178 3.487C8.04435 3.51805 7.86248 3.42046 7.79595 3.2519C7.53424 2.60428 7.23704 1.96109 6.90436 1.34452C5.98172 1.77923 5.17884 2.2849 4.51348 2.84825C4.8639 3.44708 5.24538 3.9705 5.5825 4.42295C5.68008 4.55158 5.68452 4.72458 5.60024 4.85765C5.11231 5.63835 4.64655 6.37912 4.30056 7.16425C4.22515 7.33725 4.03885 7.42596 3.85698 7.3816C3.08959 7.1953 2.36213 7.01344 1.64353 6.82713C1.28867 8.00261 1.20883 9.09381 1.39956 10.0697C1.85645 9.99427 2.29115 9.90112 2.71255 9.81241C2.95652 9.76361 3.19162 9.71482 3.42671 9.66603C3.60858 9.63054 3.79045 9.72813 3.85698 9.89669C4.24733 10.8415 4.67316 11.6 5.15666 12.2033C5.25869 12.3319 5.26756 12.5094 5.18328 12.6469C4.78406 13.2989 4.41145 13.8357 4.04772 14.3458C4.60663 14.9845 5.30748 15.5035 6.09705 15.8672C6.16802 15.7342 6.23455 15.6055 6.30109 15.4769C6.53619 15.0244 6.76241 14.5942 7.00194 14.1728C7.07735 14.0397 7.22373 13.9643 7.37898 13.9776C8.12863 14.0574 8.9315 14.1151 9.70333 13.9998C9.72107 13.9998 9.73881 13.9998 9.76099 13.9998Z" fill="black"/>
<path d="M8.69652 10.2694C8.36383 10.2694 8.03115 10.2028 7.72065 10.0653C7.44563 9.94113 7.24602 9.79031 7.11295 9.59514C6.93108 9.33343 6.88672 9.0318 6.86898 8.7967C6.80688 7.99383 7.00205 7.26193 7.41458 6.73407C7.92913 6.07758 8.7808 5.78925 9.49496 6.03322C9.54818 6.05096 9.59254 6.08201 9.63246 6.1175C10.3732 6.37477 10.9188 7.11998 10.9632 7.93616C11.0076 8.72573 10.5995 9.50642 9.92079 9.93226C9.55706 10.154 9.13122 10.2694 8.69652 10.2694ZM8.97153 6.71189C8.62998 6.71189 8.26625 6.89376 8.02672 7.20426C7.73395 7.5813 7.59645 8.1269 7.6408 8.7346C7.64968 8.87211 7.67185 9.0451 7.74726 9.15156C7.80049 9.22697 7.89364 9.29351 8.03559 9.36004C8.51909 9.57296 9.08243 9.54191 9.5127 9.27133C9.9474 8.99631 10.2224 8.47289 10.1958 7.97165C10.1692 7.46597 9.8232 6.98691 9.37519 6.83609L9.32196 6.81835C9.23768 6.79173 9.17114 6.76068 9.11792 6.7252C9.06469 6.71633 9.02033 6.71189 8.97153 6.71189Z" fill="black"/>
<path d="M14.7071 7.34199L14.0639 5.1729L15.4168 3.22116L12.0811 0.861328C11.6509 1.57992 11.2206 2.29408 10.7903 3.01268C10.7681 3.0526 10.7415 3.08808 10.706 3.1147C10.6572 3.15019 10.5951 3.15019 10.533 3.14575C9.79227 3.13688 9.04706 3.12357 8.30629 3.10583C7.93812 2.3961 7.58326 1.72187 7.18404 1.07425C7.15299 1.02102 7.11307 0.967787 7.0554 0.954479C6.99774 0.941172 6.94007 0.972222 6.88684 1.00327C6.00413 1.54444 5.12141 2.0856 4.23869 2.6312C4.22095 2.64007 4.19433 2.65338 4.18102 2.67556C4.1411 2.73322 4.17659 2.80863 4.20764 2.87073C4.54032 3.474 4.93954 4.03734 5.39199 4.55189C4.99277 5.30153 4.57137 6.00239 4.11449 6.67219C4.00359 6.83187 3.87939 7.00487 3.69309 7.0581C3.53784 7.10246 3.37371 7.06253 3.2229 7.01818C2.60189 6.84075 1.98532 6.6367 1.38205 6.41048C0.863067 7.66136 0.76548 9.08968 1.10703 10.3982C1.15139 10.4958 3.45799 10.1587 3.45799 10.1587L4.83308 12.5939L3.72857 14.4481L6.25696 16.3289L7.56995 14.3682L9.88542 14.417L10.7814 16.4841L14.2369 15.2643L13.3986 13.144L14.6406 11.0858L16.9827 10.895L17.0536 7.9763L14.7071 7.34199ZM10.7193 8.4465C10.7415 8.54852 10.6528 8.75256 10.6173 8.84571C10.5863 8.92556 10.5508 9.0054 10.502 9.07637C10.4133 9.21388 10.3024 9.34696 10.1826 9.45785C9.93422 9.69295 9.6592 9.86151 9.34426 9.98127C9.21562 10.0301 9.08255 10.0611 8.94504 10.0833C8.82527 10.1055 8.71882 10.1143 8.59905 10.101C8.52364 10.0922 8.44823 10.07 8.37726 10.07C8.58131 10.07 8.35952 10.0744 8.27967 10.0478C7.92481 9.94578 7.57439 9.64859 7.40139 9.32034C7.29493 9.12073 7.20178 8.89894 7.19291 8.66828C7.18404 8.46424 7.23727 8.24688 7.31711 8.06058C7.42801 7.79 7.55664 7.51942 7.72077 7.27545C7.90707 7.00487 8.13773 6.72098 8.43493 6.57016C8.73656 6.41935 9.05593 6.39273 9.34869 6.50806C9.46846 6.4504 9.60597 6.43265 9.7213 6.47701C9.93865 6.56129 10.1205 6.66332 10.2713 6.84962C10.4177 7.03148 10.5153 7.20448 10.5996 7.42627C10.6262 7.4928 10.6484 7.56378 10.6661 7.63475C10.675 7.67467 10.6839 7.71903 10.6883 7.75895C10.6972 7.82549 10.706 7.88759 10.7149 7.95412C10.7149 7.94082 10.7105 7.92307 10.7105 7.90977C10.706 7.8521 10.706 7.8521 10.7149 7.90533C10.7238 7.97187 10.7327 8.0384 10.7415 8.10494C10.746 8.14043 10.746 8.17148 10.746 8.20696C10.746 8.27794 10.7415 8.36665 10.7193 8.4465Z" fill="#88E0EF"/>
<g opacity="0.1294">
<path d="M11.1849 8.87647C11.1583 8.51273 10.6083 8.47725 10.5285 8.83211C10.4176 9.17366 10.4619 9.116 10.1026 9.47086C9.75663 9.75475 9.88083 9.67047 9.33967 9.87452C8.83399 10.0298 9.03804 9.99872 8.6122 9.99428C8.55454 9.98541 8.49687 9.96767 8.43921 9.94992C8.23073 9.87008 8.29726 9.91 7.89804 9.68821C7.73392 9.60393 7.58754 9.44868 7.3968 9.43981C6.82015 9.33335 6.53626 10.185 7.04638 10.4778C7.95127 11.1121 8.86061 11.396 9.89414 10.8726C10.4264 10.5754 10.8168 10.0741 11.0075 9.4886C11.0874 9.28899 11.1983 9.08495 11.1849 8.87647Z" fill="black"/>
</g>
<g opacity="0.1294">
<path d="M13.0658 14.6432C12.7286 14.7674 12.6044 14.8517 11.9657 14.967C11.6641 15.0646 11.2959 15.0158 11.0342 15.2154C10.493 15.6102 10.941 16.5151 11.5709 16.3244C12.3294 16.1647 13.1988 16.1292 13.7888 15.5614C14.259 15.0291 13.669 14.3327 13.0658 14.6432Z" fill="black"/>
</g>
<g opacity="0.1294">
<path d="M17.2575 9.71505C17.2575 9.71062 17.2575 9.70175 17.2619 9.69731C17.2619 9.70175 17.2619 9.71062 17.2575 9.71505C17.2619 9.58642 17.2309 9.45778 17.1688 9.34689C16.9071 8.84564 16.1397 8.92992 15.9578 9.44447C15.9445 9.46665 15.9312 9.4977 15.9179 9.52875C15.8691 9.63077 15.8336 9.73723 15.7937 9.84369C15.7582 9.92354 15.7138 10.0344 15.6828 10.0965C15.6163 10.2119 15.5852 10.3361 15.5852 10.4691C15.5941 11.3208 16.774 11.4849 17.0002 10.6643C17.1155 10.3982 17.2087 10.1276 17.2442 9.84369C17.2531 9.79933 17.2575 9.75941 17.2575 9.71505Z" fill="black"/>
</g>
<path d="M10.7502 16.8431C10.5949 16.8431 10.4485 16.7455 10.3909 16.5991C10.1469 15.9781 9.91181 15.3882 9.56138 14.7982C8.88271 14.8692 8.1996 14.8337 7.55198 14.7716C7.36124 15.1132 7.17937 15.468 6.98864 15.8362C6.86887 16.0668 6.74467 16.3019 6.61603 16.5415C6.52288 16.7145 6.31883 16.7899 6.13253 16.7189C4.99254 16.2709 3.99893 15.5345 3.25815 14.603C3.15169 14.47 3.14726 14.2792 3.24485 14.1417C3.60858 13.6272 3.98562 13.0993 4.3804 12.4694C3.97231 11.915 3.60414 11.2629 3.26259 10.4866C3.13395 10.5133 3.00531 10.5399 2.87224 10.5709C2.32664 10.6863 1.7633 10.806 1.1556 10.8947C0.960424 10.9213 0.778557 10.8016 0.729764 10.6108C0.379338 9.31116 0.476925 7.84292 1.01809 6.24605C1.08463 6.05531 1.28423 5.94885 1.47941 5.99764C2.21575 6.18395 2.95652 6.37468 3.73278 6.56099C4.04328 5.91336 4.41589 5.30566 4.81067 4.67578C4.44694 4.17898 4.04772 3.6112 3.68842 2.95027C3.59971 2.79502 3.63519 2.59984 3.76383 2.48008C4.60663 1.70825 5.66678 1.03845 6.91323 0.488417C7.09509 0.408573 7.30801 0.479545 7.4056 0.65254C7.76933 1.3046 8.10201 1.98327 8.39034 2.67082C9.1178 2.56436 9.85414 2.53774 10.586 2.59541C10.9276 1.93448 11.2869 1.25581 11.7349 0.546082C11.8414 0.377522 12.0632 0.315422 12.2406 0.408573C13.1588 0.887636 14.0238 1.46872 14.8133 2.13409C15.0263 2.31152 15.2303 2.49782 15.4388 2.68412C15.5452 2.78171 15.6961 2.91478 15.7493 3.12326C15.7759 3.22972 15.7582 3.34062 15.6961 3.43377C15.5186 3.69991 15.3323 3.96606 15.146 4.23664C14.9021 4.58707 14.6536 4.94637 14.3964 5.33671C14.6093 5.87344 14.8266 6.41904 15.0307 6.97351C15.6872 7.04005 16.5122 7.17756 17.395 7.54129C17.5325 7.59896 17.6256 7.72759 17.6345 7.87397C17.7055 9.07163 17.5502 10.1673 17.1554 11.223C17.0978 11.3782 16.9558 11.4847 16.7784 11.4714L16.5211 11.4625C15.9622 11.4403 15.3855 11.4182 14.7778 11.4581C14.5339 12.0214 14.1835 12.5936 13.6866 13.2191C14.0193 13.809 14.3565 14.43 14.6581 15.1575C14.7335 15.3394 14.6581 15.5479 14.4851 15.6454C13.2786 16.3019 12.041 16.7056 10.799 16.8387C10.7768 16.8431 10.7635 16.8431 10.7502 16.8431ZM9.76099 13.9998C9.88963 13.9998 10.0138 14.0663 10.0848 14.1772C10.4885 14.8026 10.759 15.4281 11.003 16.0402C11.9434 15.9027 12.8793 15.6011 13.802 15.1353C13.5137 14.4921 13.1943 13.9288 12.8838 13.3788C12.8039 13.2413 12.8217 13.0683 12.9237 12.9441C13.5225 12.2166 13.9129 11.5867 14.148 10.9657C14.2012 10.8282 14.3254 10.7306 14.4718 10.7173C15.2081 10.6463 15.8779 10.6729 16.5255 10.6996C16.7917 9.90112 16.907 9.0672 16.876 8.17117C16.0598 7.86954 15.3013 7.77195 14.7202 7.72316C14.5694 7.70985 14.4407 7.61226 14.3875 7.46588C14.148 6.78277 13.873 6.09967 13.6068 5.43874C13.5624 5.32341 13.5713 5.19033 13.6423 5.08387C13.9439 4.61368 14.2322 4.19672 14.5117 3.79307C14.6448 3.60233 14.7734 3.41603 14.8976 3.23416C14.7069 3.06116 14.5117 2.88817 14.3165 2.71961C13.66 2.16957 12.9503 1.68164 12.2051 1.26468C11.8103 1.92117 11.4776 2.55992 11.1583 3.18093C11.0873 3.32287 10.932 3.40272 10.7768 3.38941C9.92512 3.3007 9.06458 3.33618 8.22178 3.487C8.04435 3.51805 7.86248 3.42046 7.79595 3.2519C7.53424 2.60428 7.23704 1.96109 6.90436 1.34452C5.98172 1.77923 5.17884 2.2849 4.51348 2.84825C4.8639 3.44708 5.24538 3.9705 5.5825 4.42295C5.68008 4.55158 5.68452 4.72458 5.60024 4.85765C5.11231 5.63835 4.64655 6.37912 4.30056 7.16425C4.22515 7.33725 4.03885 7.42596 3.85698 7.3816C3.08959 7.1953 2.36213 7.01344 1.64353 6.82713C1.28867 8.00261 1.20883 9.09381 1.39956 10.0697C1.85645 9.99427 2.29115 9.90112 2.71255 9.81241C2.95652 9.76361 3.19162 9.71482 3.42671 9.66603C3.60858 9.63054 3.79045 9.72813 3.85698 9.89669C4.24733 10.8415 4.67316 11.6 5.15666 12.2033C5.25869 12.3319 5.26756 12.5094 5.18328 12.6469C4.78406 13.2989 4.41145 13.8357 4.04772 14.3458C4.60663 14.9845 5.30748 15.5035 6.09705 15.8672C6.16802 15.7342 6.23455 15.6055 6.30109 15.4769C6.53619 15.0244 6.76241 14.5942 7.00194 14.1728C7.07735 14.0397 7.22373 13.9643 7.37898 13.9776C8.12863 14.0574 8.9315 14.1151 9.70333 13.9998C9.72107 13.9998 9.73881 13.9998 9.76099 13.9998Z" fill="black"/>
<path d="M8.69652 10.2694C8.36383 10.2694 8.03115 10.2028 7.72065 10.0653C7.44563 9.94113 7.24602 9.79031 7.11295 9.59514C6.93108 9.33343 6.88672 9.0318 6.86898 8.7967C6.80688 7.99383 7.00205 7.26193 7.41458 6.73407C7.92913 6.07758 8.7808 5.78925 9.49496 6.03322C9.54818 6.05096 9.59254 6.08201 9.63246 6.1175C10.3732 6.37477 10.9188 7.11998 10.9632 7.93616C11.0076 8.72573 10.5995 9.50642 9.92079 9.93226C9.55706 10.154 9.13122 10.2694 8.69652 10.2694ZM8.97153 6.71189C8.62998 6.71189 8.26625 6.89376 8.02672 7.20426C7.73395 7.5813 7.59645 8.1269 7.6408 8.7346C7.64968 8.87211 7.67185 9.0451 7.74726 9.15156C7.80049 9.22697 7.89364 9.29351 8.03559 9.36004C8.51909 9.57296 9.08243 9.54191 9.5127 9.27133C9.9474 8.99631 10.2224 8.47289 10.1958 7.97165C10.1692 7.46597 9.8232 6.98691 9.37519 6.83609L9.32196 6.81835C9.23768 6.79173 9.17114 6.76068 9.11792 6.7252C9.06469 6.71633 9.02033 6.71189 8.97153 6.71189Z" fill="black"/>
<g opacity="0.1294">
<path d="M23.8578 27.577C23.2279 26.9294 22.4916 25.7938 21.8528 24.4941C21.2495 23.2033 20.9479 22.7154 20.6906 21.1318C20.5797 20.3245 20.5664 20.5064 20.5442 19.6592C20.6152 19.291 20.6418 18.8785 20.3402 18.6034C19.8035 18.049 18.8276 18.497 18.8808 19.2644C18.872 19.3353 18.8897 19.4063 18.8986 19.4729C18.903 19.5216 18.9119 19.5704 18.9163 19.6192C18.9119 19.6015 18.9119 19.6148 18.9119 19.6991C18.8808 20.0451 19.0671 21.3581 19.0671 21.3226C19.1958 22.5779 19.6527 23.7534 20.1805 24.8889C20.8193 26.2906 21.5867 27.6524 22.6291 28.7968C23.463 29.5775 24.6385 28.4021 23.8578 27.577Z" fill="black"/>
</g>
<g opacity="0.1294">
<path d="M39.1079 33.7387C37.9324 34.0492 37.4667 34.0182 36.0206 33.9428C34.4016 33.792 33.5632 33.7964 31.9353 33.131C31.9175 33.1222 31.8998 33.1133 31.8732 33.1C31.23 32.7008 30.3783 33.4282 30.7154 34.1202C30.8884 34.6037 31.4828 34.6569 31.8954 34.8477C33.7273 35.482 35.7101 35.4909 37.6264 35.6106C38.0966 35.6017 38.5668 35.5263 39.0281 35.4465C39.2987 35.3755 39.6136 35.3755 39.831 35.1848C40.554 34.6658 39.964 33.4948 39.1079 33.7387Z" fill="black"/>
</g>
</g>
<defs>
<clipPath id="clip0_4800_1756">
<rect width="64.9397" height="50" fill="white" transform="translate(0.530273)"/>
</clipPath>
</defs>
</svg>
