<svg width="70" height="50" viewBox="0 0 70 50" fill="none" xmlns="http://www.w3.org/2000/svg">
<path d="M0.918564 49.5698L69.084 49.5698V2.43904L0.918564 2.43904V49.5698Z" fill="white"/>
<path d="M69.0825 49.9999H0.917078C0.678076 49.9999 0.483887 49.806 0.483887 49.5673V2.43653C0.483887 2.19784 0.678076 2.00391 0.917078 2.00391H69.0825C69.3215 2.00391 69.5157 2.19784 69.5157 2.43653V49.5673C69.5157 49.806 69.3215 49.9999 69.0825 49.9999ZM1.35027 49.1347H68.6493V2.86915H1.35027V49.1347Z" fill="black"/>
<path d="M0.918564 6.64697L69.084 6.64697V0.426186L0.918564 0.426186V6.64697Z" fill="#FFB217"/>
<path d="M69.0825 7.08106H0.917078C0.678076 7.08106 0.483887 6.88712 0.483887 6.64843V0.432621C0.483887 0.193934 0.678076 0 0.917078 0H69.0825C69.3215 0 69.5157 0.193934 69.5157 0.432621V6.65341C69.5157 6.88712 69.3215 7.08106 69.0825 7.08106ZM1.35027 6.21581H68.6493V0.865241H1.35027V6.21581Z" fill="black"/>
<path d="M50.2162 3.97315H46.6212C46.3822 3.97315 46.188 3.77922 46.188 3.54053C46.188 3.30184 46.3822 3.10791 46.6212 3.10791H50.2162C50.4552 3.10791 50.6494 3.30184 50.6494 3.54053C50.6494 3.77922 50.4552 3.97315 50.2162 3.97315Z" fill="black"/>
<path d="M57.5106 3.97315H53.9156C53.6766 3.97315 53.4824 3.77922 53.4824 3.54053C53.4824 3.30184 53.6766 3.10791 53.9156 3.10791H57.5106C57.7496 3.10791 57.9438 3.30184 57.9438 3.54053C57.9438 3.77922 57.7496 3.97315 57.5106 3.97315Z" fill="black"/>
<path d="M64.805 3.97315H61.21C60.971 3.97315 60.7769 3.77922 60.7769 3.54053C60.7769 3.30184 60.971 3.10791 61.21 3.10791H64.805C65.044 3.10791 65.2382 3.30184 65.2382 3.54053C65.2382 3.77922 65.044 3.97315 64.805 3.97315Z" fill="black"/>
<g opacity="0.1294">
<path d="M69.0824 7.12061H0.916992V9.1395H69.0824V7.12061Z" fill="black"/>
</g>
<path d="M11.5276 35.0873C11.3832 35.0873 11.2438 35.0177 11.1592 34.8884C11.0297 34.6845 11.0895 34.421 11.2936 34.2917L22.8504 26.9819C22.9748 26.9023 23.1342 26.8924 23.2636 26.957L35.1142 32.4966L53.2036 16.5194C53.363 16.3802 53.597 16.3752 53.7613 16.5045L61.4641 22.6805C61.6484 22.8297 61.6783 23.1032 61.5289 23.2872C61.3795 23.4712 61.1056 23.501 60.9214 23.3518L53.5024 17.4046L35.4776 33.327C35.3482 33.4414 35.1639 33.4662 35.0046 33.3966L23.1143 27.8372L11.7567 35.0227C11.687 35.0674 11.6023 35.0873 11.5276 35.0873Z" fill="black"/>
<path d="M22.9999 43.1481C22.9202 43.1481 22.8555 43.0834 22.8555 43.0039V27.7179C22.8555 27.6384 22.9202 27.5737 22.9999 27.5737C23.0795 27.5737 23.1443 27.6384 23.1443 27.7179V43.0039C23.1443 43.0834 23.0795 43.1481 22.9999 43.1481Z" fill="black"/>
<path d="M13.0716 43.1478C12.992 43.1478 12.9272 43.0831 12.9272 43.0036L13.0517 33.297C13.0517 33.2174 13.1214 33.1428 13.1961 33.1527C13.2758 33.1527 13.3405 33.2174 13.3405 33.297L13.216 43.0036C13.216 43.0881 13.1513 43.1478 13.0716 43.1478Z" fill="black"/>
<path d="M35.0897 43.1926C35.01 43.1926 34.9453 43.128 34.9453 43.0484L35.0698 32.7301C35.0698 32.6506 35.1345 32.5859 35.2142 32.5859C35.2939 32.5859 35.3586 32.6506 35.3586 32.7301L35.2341 43.0484C35.2341 43.128 35.1694 43.1926 35.0897 43.1926Z" fill="black"/>
<path d="M53.433 43.0284C53.3533 43.0284 53.2886 42.9638 53.2886 42.8842L53.4131 16.8424C53.4131 16.7629 53.4778 16.6982 53.5574 16.6982C53.6371 16.6982 53.7018 16.7629 53.7018 16.8424L53.5774 42.8842C53.5774 42.9638 53.5126 43.0284 53.433 43.0284Z" fill="black"/>
<path d="M36.3589 34.9282C36.3191 34.9282 36.2792 34.9133 36.2494 34.8785C36.1946 34.8188 36.2045 34.7293 36.2643 34.6746L51.914 20.8904C51.9737 20.8357 52.0633 20.8457 52.1181 20.9053C52.1729 20.965 52.1629 21.0545 52.1032 21.1092L36.4585 34.8884C36.4286 34.9133 36.3938 34.9282 36.3589 34.9282Z" fill="black"/>
<path d="M36.3589 37.3794C36.3191 37.3794 36.2792 37.3645 36.2494 37.3297C36.1946 37.27 36.2045 37.1805 36.2643 37.1258L51.914 23.3416C51.9737 23.2869 52.0633 23.2968 52.1181 23.3565C52.1729 23.4162 52.1629 23.5057 52.1032 23.5604L36.4585 37.3396C36.4286 37.3645 36.3938 37.3794 36.3589 37.3794Z" fill="black"/>
<path d="M36.3589 39.8311C36.3191 39.8311 36.2792 39.8161 36.2494 39.7813C36.1946 39.7217 36.2045 39.6321 36.2643 39.5774L51.914 25.7933C51.9737 25.7386 52.0633 25.7485 52.1181 25.8082C52.1729 25.8678 52.1629 25.9574 52.1032 26.0121L36.4535 39.7962C36.4286 39.8161 36.3938 39.8311 36.3589 39.8311Z" fill="black"/>
<path d="M36.3589 42.1387C36.3191 42.1387 36.2792 42.1238 36.2494 42.0889C36.1946 42.0293 36.2045 41.9398 36.2643 41.8851L51.914 28.1009C51.9737 28.0462 52.0633 28.0561 52.1181 28.1158C52.1729 28.1755 52.1629 28.265 52.1032 28.3197L36.4535 42.1039C36.4286 42.1238 36.3938 42.1387 36.3589 42.1387Z" fill="black"/>
<path d="M37.5292 43.3367C37.4894 43.3367 37.4496 43.3218 37.4197 43.287C37.3699 43.2273 37.3749 43.1378 37.4346 43.0831L51.9142 30.5222C51.9739 30.4725 52.0636 30.4774 52.1183 30.5371C52.1681 30.5968 52.1631 30.6863 52.1034 30.741L37.6238 43.3019C37.5989 43.3218 37.5641 43.3367 37.5292 43.3367Z" fill="black"/>
<path d="M40.0185 43.3366C39.9787 43.3366 39.9388 43.3217 39.9089 43.2869C39.8592 43.2272 39.8641 43.1328 39.9239 43.083L51.9188 32.904C51.9786 32.8543 52.0732 32.8593 52.123 32.9189C52.1727 32.9786 52.1678 33.0731 52.108 33.1228L40.1131 43.3018C40.0832 43.3217 40.0484 43.3366 40.0185 43.3366Z" fill="black"/>
<path d="M42.762 43.337C42.7222 43.337 42.6774 43.3172 42.6525 43.2823C42.6027 43.2227 42.6127 43.1282 42.6724 43.0785L51.9238 35.4703C51.9835 35.4206 52.0781 35.4305 52.1279 35.4902C52.1777 35.5499 52.1678 35.6444 52.108 35.6941L42.8566 43.3022C42.8268 43.3221 42.7919 43.337 42.762 43.337Z" fill="black"/>
<path d="M46.0136 43.3365C45.9738 43.3365 45.9339 43.3216 45.9041 43.2868C45.8543 43.2271 45.8593 43.1327 45.919 43.0829L51.914 37.9909C51.9737 37.9412 52.0683 37.9462 52.1181 38.0059C52.1679 38.0655 52.1629 38.16 52.1032 38.2097L46.1082 43.3017C46.0783 43.3216 46.0485 43.3365 46.0136 43.3365Z" fill="black"/>
<path d="M49.0111 43.337C48.9712 43.337 48.9264 43.3171 48.9015 43.2823C48.8517 43.2226 48.8617 43.1281 48.9214 43.0784L51.9189 40.6368C51.9787 40.5871 52.0733 40.597 52.1231 40.6567C52.1729 40.7164 52.1629 40.8109 52.1031 40.8606L49.1057 43.2972C49.0758 43.3221 49.0459 43.337 49.0111 43.337Z" fill="black"/>
</svg>
