<svg width="52" height="50" viewBox="0 0 52 50" fill="none" xmlns="http://www.w3.org/2000/svg">
<g clip-path="url(#clip0_4800_1894)">
<path d="M38.9382 37.3213H0.596924V49.6592H38.9382V37.3213Z" fill="white"/>
<path d="M38.9382 49.9994H0.596841C0.407501 49.9994 0.253662 49.8452 0.253662 49.6554V37.3215C0.253662 37.1317 0.407501 36.9775 0.596841 36.9775H38.9382C39.1275 36.9775 39.2813 37.1317 39.2813 37.3215V49.6594C39.2813 49.8491 39.1275 49.9994 38.9382 49.9994ZM0.940019 49.3115H38.595V37.6654H0.940019V49.3115Z" fill="black"/>
<path d="M38.9382 4.77441H0.596924V17.1123H38.9382V4.77441Z" fill="white"/>
<path d="M38.9382 17.4525H0.596841C0.407501 17.4525 0.253662 17.2983 0.253662 17.1086V4.77459C0.253662 4.58484 0.407501 4.43066 0.596841 4.43066H38.9382C39.1275 4.43066 39.2813 4.58484 39.2813 4.77459V17.1086C39.2813 17.2983 39.1275 17.4525 38.9382 17.4525ZM0.940019 16.7646H38.595V5.11852H0.940019V16.7646Z" fill="black"/>
<path d="M38.9382 21.0459H0.596924V33.3838H38.9382V21.0459Z" fill="white"/>
<path d="M38.9382 33.7279H0.596841C0.407501 33.7279 0.253662 33.5737 0.253662 33.3839V21.05C0.253662 20.8602 0.407501 20.7061 0.596841 20.7061H38.9382C39.1275 20.7061 39.2813 20.8602 39.2813 21.05V33.3839C39.2813 33.5737 39.1275 33.7279 38.9382 33.7279ZM0.940019 33.04H38.595V21.39H0.940019V33.04Z" fill="black"/>
<path d="M5.40161 27.2163C5.40161 26.3743 6.08008 25.6943 6.92027 25.6943C7.76047 25.6943 8.43894 26.3743 8.43894 27.2163C8.43894 28.0583 7.76047 28.7383 6.92027 28.7383C6.08008 28.7383 5.40161 28.0544 5.40161 27.2163Z" fill="white"/>
<path d="M6.92019 29.0824C5.8946 29.0824 5.05835 28.2443 5.05835 27.2165C5.05835 26.1887 5.8946 25.3506 6.92019 25.3506C7.94578 25.3506 8.78203 26.1887 8.78203 27.2165C8.78203 28.2443 7.94578 29.0824 6.92019 29.0824ZM6.92019 26.0345C6.27328 26.0345 5.74471 26.5642 5.74471 27.2125C5.74471 27.8609 6.27328 28.3906 6.92019 28.3906C7.5671 28.3906 8.09568 27.8609 8.09568 27.2125C8.09568 26.5642 7.5671 26.0345 6.92019 26.0345Z" fill="black"/>
<path d="M5.40161 43.4878C5.40161 42.6458 6.08008 41.9658 6.92027 41.9658C7.76047 41.9658 8.43894 42.6458 8.43894 43.4878C8.43894 44.3298 7.76047 45.0098 6.92027 45.0098C6.08008 45.0098 5.40161 44.3298 5.40161 43.4878Z" fill="white"/>
<path d="M6.92019 45.3539C5.8946 45.3539 5.05835 44.5158 5.05835 43.488C5.05835 42.4601 5.8946 41.6221 6.92019 41.6221C7.94578 41.6221 8.78203 42.4601 8.78203 43.488C8.78203 44.5158 7.94578 45.3539 6.92019 45.3539ZM6.92019 42.3099C6.27328 42.3099 5.74471 42.8397 5.74471 43.488C5.74471 44.1363 6.27328 44.666 6.92019 44.666C7.5671 44.666 8.09568 44.1363 8.09568 43.488C8.09568 42.8397 7.5671 42.3099 6.92019 42.3099Z" fill="black"/>
<path d="M5.40161 43.4878C5.40161 42.6458 6.08008 41.9658 6.92027 41.9658C7.76047 41.9658 8.43894 42.6458 8.43894 43.4878C8.43894 44.3298 7.76047 45.0098 6.92027 45.0098C6.08008 45.0098 5.40161 44.3298 5.40161 43.4878Z" fill="white"/>
<path d="M6.92019 45.3539C5.8946 45.3539 5.05835 44.5158 5.05835 43.488C5.05835 42.4601 5.8946 41.6221 6.92019 41.6221C7.94578 41.6221 8.78203 42.4601 8.78203 43.488C8.78203 44.5158 7.94578 45.3539 6.92019 45.3539ZM6.92019 42.3099C6.27328 42.3099 5.74471 42.8397 5.74471 43.488C5.74471 44.1363 6.27328 44.666 6.92019 44.666C7.5671 44.666 8.09568 44.1363 8.09568 43.488C8.09568 42.8397 7.5671 42.3099 6.92019 42.3099Z" fill="black"/>
<path d="M13.1921 43.4878C13.1921 42.6458 13.8706 41.9658 14.7108 41.9658C15.551 41.9658 16.2295 42.6458 16.2295 43.4878C16.2295 44.3298 15.551 45.0098 14.7108 45.0098C13.8706 45.0098 13.1921 44.3298 13.1921 43.4878Z" fill="white"/>
<path d="M14.7107 45.3539C13.6851 45.3539 12.8489 44.5158 12.8489 43.488C12.8489 42.4601 13.6851 41.6221 14.7107 41.6221C15.7363 41.6221 16.5726 42.4601 16.5726 43.488C16.5726 44.5158 15.7363 45.3539 14.7107 45.3539ZM14.7107 42.3099C14.0638 42.3099 13.5352 42.8397 13.5352 43.488C13.5352 44.1363 14.0638 44.666 14.7107 44.666C15.3576 44.666 15.8862 44.1363 15.8862 43.488C15.8862 42.8397 15.3576 42.3099 14.7107 42.3099Z" fill="black"/>
<path d="M5.40161 10.9409C5.40161 10.0989 6.08008 9.41895 6.92027 9.41895C7.76047 9.41895 8.43894 10.0989 8.43894 10.9409C8.43894 11.783 7.76047 12.4629 6.92027 12.4629C6.08008 12.4629 5.40161 11.783 5.40161 10.9409Z" fill="white"/>
<path d="M6.92019 12.807C5.8946 12.807 5.05835 11.9689 5.05835 10.9411C5.05835 9.91327 5.8946 9.0752 6.92019 9.0752C7.94578 9.0752 8.78203 9.91327 8.78203 10.9411C8.78203 11.9689 7.94578 12.807 6.92019 12.807ZM6.92019 9.76305C6.27328 9.76305 5.74471 10.2928 5.74471 10.9411C5.74471 11.5894 6.27328 12.1192 6.92019 12.1192C7.5671 12.1192 8.09568 11.5894 8.09568 10.9411C8.09568 10.2928 7.5671 9.76305 6.92019 9.76305Z" fill="black"/>
<path d="M13.1921 10.9409C13.1921 10.0989 13.8706 9.41895 14.7108 9.41895C15.551 9.41895 16.2295 10.0989 16.2295 10.9409C16.2295 11.783 15.551 12.4629 14.7108 12.4629C13.8706 12.4629 13.1921 11.783 13.1921 10.9409Z" fill="white"/>
<path d="M14.7107 12.807C13.6851 12.807 12.8489 11.9689 12.8489 10.9411C12.8489 9.91327 13.6851 9.0752 14.7107 9.0752C15.7363 9.0752 16.5726 9.91327 16.5726 10.9411C16.5726 11.9689 15.7363 12.807 14.7107 12.807ZM14.7107 9.76305C14.0638 9.76305 13.5352 10.2928 13.5352 10.9411C13.5352 11.5894 14.0638 12.1192 14.7107 12.1192C15.3576 12.1192 15.8862 11.5894 15.8862 10.9411C15.8862 10.2928 15.3576 9.76305 14.7107 9.76305Z" fill="black"/>
<path d="M43.7642 26.8509C50.7732 23.013 53.4421 14.3753 49.7254 7.55794C46.0086 0.740617 37.3138 -1.67469 30.3048 2.16319C23.2959 6.00108 20.627 14.6388 24.3437 21.4562C28.0604 28.2735 36.7553 30.6888 43.7642 26.8509Z" fill="white"/>
<path d="M36.6463 29.0163C34.1809 29.0163 31.6998 28.4035 29.4395 27.1148C26.1064 25.2133 23.7396 22.1298 22.7811 18.4336C21.8028 14.6622 22.3906 10.7169 24.4417 7.31323C28.6309 0.371418 37.6837 -2.05584 44.6262 1.9013C47.9593 3.80279 50.3261 6.88628 51.2846 10.5825C52.2629 14.3539 51.6751 18.2992 49.6239 21.6989C46.7957 26.3834 41.7585 29.0163 36.6463 29.0163ZM25.0295 7.67297C23.0769 10.9146 22.5128 14.6741 23.4438 18.2636C24.3589 21.778 26.6073 24.7112 29.7788 26.5178C31.9325 27.7473 34.2993 28.3284 36.6502 28.3284C41.5297 28.3284 46.3381 25.8181 49.0362 21.3431C50.9888 18.1015 51.5528 14.342 50.6219 10.7525C49.7068 7.23812 47.4584 4.30485 44.2869 2.49824C37.6679 -1.27706 29.0254 1.04346 25.0295 7.67297Z" fill="black"/>
<path d="M48.6378 5.87012C46.772 6.98887 44.9062 8.10367 43.0483 9.23824C40.2516 10.946 37.5338 13.0135 34.8081 14.836C36.378 16.3935 41.7782 21.5406 43.8057 23.5923C44.4526 24.2446 45.0956 24.9008 45.7425 25.5531C47.1389 24.4699 48.3656 23.1219 49.3281 21.5248C52.4128 16.4133 51.9434 10.2582 48.6378 5.87012Z" fill="white"/>
<path d="M45.7426 25.8967C45.6519 25.8967 45.5651 25.8612 45.4981 25.794C44.8551 25.1417 44.2082 24.4855 43.5613 23.8332C42.3661 22.6235 40.0033 20.3425 37.9205 18.3343C36.465 16.9309 35.2106 15.7173 34.5676 15.0808C34.4927 15.0096 34.4572 14.9069 34.469 14.8041C34.4809 14.7013 34.5361 14.6104 34.6189 14.5511C35.6445 13.8672 36.6898 13.1319 37.6996 12.4203C39.38 11.2383 41.1196 10.0168 42.871 8.94545C44.7289 7.81088 46.6262 6.67631 48.4605 5.57337C48.6103 5.48245 48.8036 5.52198 48.9101 5.66034C52.4169 10.3093 52.6969 16.6067 49.6241 21.6985C48.6656 23.2876 47.4309 24.6752 45.9556 25.8216C45.8925 25.873 45.8176 25.8967 45.7426 25.8967ZM35.3487 14.8831C36.039 15.5631 37.1435 16.6265 38.3978 17.8362C40.4845 19.8484 42.8473 22.1333 44.0504 23.3469C44.6224 23.9281 45.1983 24.5092 45.7703 25.0903C47.072 24.0348 48.1686 22.7777 49.0324 21.3427C51.9041 16.583 51.7029 10.7204 48.5433 6.32053C46.7919 7.36812 44.9892 8.4513 43.226 9.52657C41.4943 10.586 39.7627 11.7997 38.0902 12.9777C37.1947 13.6142 36.2678 14.2625 35.3487 14.8831Z" fill="black"/>
<path d="M34.8081 14.8362C36.9816 13.5949 39.1826 12.4049 41.4153 11.2783C43.5414 10.203 45.6951 9.17914 47.8686 8.2027C48.4564 7.93784 49.0441 7.67297 49.6358 7.41206C48.4564 5.30896 46.7128 3.49049 44.4526 2.20175C42.2989 0.972308 39.9439 0.375376 37.5969 0.34375C37.1354 2.5773 36.7173 4.81877 36.2755 7.05627C35.7706 9.64562 35.2893 12.2389 34.8081 14.8362Z" fill="#FFB217"/>
<path d="M34.808 15.1803C34.737 15.1803 34.6699 15.1605 34.6108 15.117C34.5003 15.038 34.449 14.9075 34.4727 14.7731C34.9263 12.3063 35.4194 9.65765 35.944 6.9932C36.0979 6.21837 36.2478 5.44355 36.3977 4.66872C36.6738 3.22976 36.9617 1.73941 37.2655 0.276724C37.297 0.114643 37.439 0 37.6008 0H37.6047C40.074 0.0316256 42.4999 0.691809 44.6261 1.90149C46.8587 3.17442 48.6929 5.02056 49.9394 7.24225C49.9867 7.32527 49.9946 7.42805 49.967 7.51898C49.9355 7.6099 49.8684 7.68501 49.7777 7.72454C49.2807 7.94197 48.7836 8.1673 48.2906 8.38868L48.0105 8.51518C45.8489 9.48371 43.6833 10.5155 41.573 11.5829C39.4389 12.6581 37.2181 13.8559 34.9816 15.1328C34.9263 15.1645 34.8672 15.1803 34.808 15.1803ZM37.8808 0.695762C37.6008 2.06357 37.3325 3.45114 37.0722 4.79918C36.9223 5.574 36.7724 6.35278 36.6186 7.12761C36.1452 9.53115 35.6995 11.9189 35.2814 14.1762C37.3128 13.0297 39.3245 11.9545 41.2653 10.9741C43.3875 9.90275 45.5609 8.86701 47.7344 7.89453L48.0145 7.76803C48.3931 7.59804 48.7718 7.42805 49.1544 7.25807C47.979 5.28937 46.3025 3.65275 44.2908 2.50633C42.3421 1.39152 40.1332 0.770873 37.8808 0.695762Z" fill="black"/>
<path d="M36.9108 15.6981C36.8911 15.6981 36.8714 15.6941 36.8517 15.6823C36.7964 15.6506 36.7807 15.5795 36.8122 15.5241L37.6366 14.1484C37.6682 14.0931 37.7392 14.0773 37.7944 14.1089C37.8496 14.1405 37.8654 14.2117 37.8339 14.267L37.0095 15.6427C36.9897 15.6744 36.9503 15.6981 36.9108 15.6981Z" fill="black"/>
<path d="M38.0624 16.8756C38.0427 16.8756 38.023 16.8717 38.0072 16.8598C37.952 16.8282 37.9322 16.757 37.9638 16.7017L40.1649 12.875C40.1964 12.8196 40.2674 12.7999 40.3227 12.8315C40.3779 12.8631 40.3976 12.9343 40.366 12.9896L38.165 16.8163C38.1413 16.8559 38.1019 16.8756 38.0624 16.8756Z" fill="black"/>
<path d="M39.4392 18.0739C39.4195 18.0739 39.4037 18.07 39.384 18.0621C39.3288 18.0344 39.3051 17.9632 39.3366 17.9079C40.3898 15.9036 41.4194 13.848 42.4016 11.8042C42.4292 11.7449 42.4963 11.7211 42.5554 11.7488C42.6106 11.7765 42.6383 11.8437 42.6106 11.903C41.6284 13.9507 40.595 16.0104 39.5418 18.0146C39.5181 18.0502 39.4786 18.0739 39.4392 18.0739Z" fill="black"/>
<path d="M40.6935 19.4689C40.6777 19.4689 40.662 19.4649 40.6422 19.457C40.587 19.4293 40.5594 19.3621 40.587 19.3028L44.6499 10.8074C44.6775 10.7521 44.7446 10.7244 44.8038 10.7521C44.859 10.7797 44.8866 10.8469 44.859 10.9062L40.7961 19.4017C40.7763 19.4451 40.7369 19.4689 40.6935 19.4689Z" fill="black"/>
<path d="M42.1373 20.7775C42.1215 20.7775 42.1057 20.7735 42.09 20.7656C42.0308 20.738 42.0071 20.6708 42.0308 20.6154L46.9102 9.74807C46.9379 9.68878 47.0049 9.66506 47.0601 9.68878C47.1193 9.71645 47.143 9.78365 47.1193 9.839L42.2399 20.7063C42.2241 20.7498 42.1807 20.7775 42.1373 20.7775Z" fill="black"/>
<path d="M43.6084 22.252C43.5927 22.252 43.5769 22.2481 43.565 22.2441C43.5059 22.2204 43.4783 22.1532 43.5059 22.0939L49.1151 8.74C49.1387 8.6807 49.2058 8.65303 49.265 8.6807C49.3241 8.70442 49.3517 8.77163 49.3241 8.83092L43.7149 22.1848C43.6952 22.2243 43.6518 22.252 43.6084 22.252Z" fill="black"/>
<path d="M45.0442 23.2922C45.0284 23.2922 45.0127 23.2883 45.0008 23.2843C44.9417 23.2606 44.9141 23.1934 44.9417 23.1341L49.8842 11.575C49.9079 11.5157 49.9749 11.488 50.0341 11.5157C50.0933 11.5394 50.1209 11.6066 50.0933 11.6659L45.1547 23.225C45.1271 23.2646 45.0876 23.2922 45.0442 23.2922Z" fill="black"/>
<path d="M47.5926 21.9795C47.5768 21.9795 47.5611 21.9755 47.5453 21.9716C47.4861 21.9439 47.4625 21.8767 47.4861 21.8213C48.417 19.7262 49.3559 17.5875 50.271 15.4646C50.2947 15.4053 50.3617 15.3776 50.4209 15.4053C50.4801 15.429 50.5037 15.4962 50.4801 15.5555C49.5649 17.6784 48.6261 19.8171 47.6952 21.9123C47.6794 21.9558 47.636 21.9795 47.5926 21.9795Z" fill="black"/>
<g opacity="0.1294">
<path d="M50.0105 17.8364C49.5569 17.8285 49.4583 18.291 49.3202 18.6309C49.1585 19.0144 48.9652 19.386 48.7443 19.7418C48.3617 20.315 48.3459 20.3822 47.9712 20.8013C48.0225 20.7459 47.5531 21.3231 47.0442 21.8647C46.5748 22.347 46.6537 22.2521 46.3381 22.5565C45.64 23.2601 44.8076 23.7622 43.2732 24.5054C41.8374 25.1537 41.1629 25.5688 39.1077 26.0748C38.5792 26.1657 38.2123 26.2448 37.2341 26.2329C36.1651 26.1657 36.1809 26.1143 35.317 25.9958C35.3209 25.9958 35.3249 25.9958 35.3288 25.9958C34.7805 25.893 34.2243 25.8297 33.68 25.7032C33.2342 25.6044 32.7885 25.4858 32.3625 25.3198C31.3842 24.8691 28.8755 23.4064 28.1142 22.683C27.5383 22.1572 26.9387 21.663 26.3983 21.1017C25.9447 20.655 26.2326 20.8526 25.7593 20.3743C25.7474 20.3664 25.7395 20.3624 25.7277 20.3545C24.9743 19.4137 24.5759 19.0658 24.0473 17.9708C23.9763 17.8087 24.0079 17.8838 23.8659 17.4924C23.8264 17.3422 23.7239 17.2118 23.5898 17.1327C23.2663 16.9311 22.8087 17.1208 22.7101 17.4924C22.6352 17.7494 22.7772 17.9984 22.86 18.2356C23.073 18.7812 23.3767 19.2872 23.6923 19.7813C23.8974 20.0976 24.1144 20.398 24.3392 20.6945C24.1893 20.8131 24.0907 20.9989 24.0828 21.2005C24.0355 21.1768 23.9882 21.161 23.929 21.1452C23.499 21.0187 23.0099 21.2954 22.8995 21.7303C22.8166 22.0386 22.935 22.3074 23.0809 22.5723C23.0927 22.6 23.1046 22.6237 23.1164 22.6553C23.2584 22.9992 23.4793 23.2997 23.6647 23.6199C25.1163 26.0353 27.4515 27.8458 29.9602 29.0634C32.0509 30.0596 34.3663 30.4668 36.6739 30.3561C37.1749 30.3482 37.6758 30.3245 38.1729 30.285C38.4569 30.2612 38.7685 30.2533 38.9776 30.028C39.4746 29.5576 39.0998 28.6444 38.4135 28.6681C36.0625 28.8737 34.1099 28.7788 32.2639 28.2174C32.9581 28.3005 33.6642 28.3123 34.3585 28.3677C35.1631 28.4151 35.96 28.5574 36.7686 28.5772C37.6325 28.5574 38.5042 28.6049 39.3602 28.4744C40.8433 28.1384 42.3068 27.6284 43.6874 26.988C44.5434 26.5729 45.3717 26.0788 46.0896 25.4502C46.2514 25.2921 46.4762 25.1735 46.5512 24.9521C46.6537 24.7544 46.6103 24.5014 46.4841 24.3235C46.918 23.9559 47.2888 23.5883 47.5728 23.2483C47.774 23.0229 48.4051 22.3588 48.8745 21.7342C49.2059 21.248 49.5096 20.7459 49.8094 20.2399C50.0658 19.7813 50.2748 19.299 50.4602 18.8088C50.6772 18.3819 50.547 17.868 50.0105 17.8364ZM25.2228 23.1099C25.1281 22.9399 25.0295 22.7699 24.9349 22.6C25.1636 22.8727 25.3924 23.1495 25.633 23.4183C25.8816 23.8492 26.1735 24.2682 26.4851 24.6556C26.4535 24.624 26.418 24.5963 26.3865 24.5647C25.7119 23.8096 25.6922 23.8057 25.2228 23.1099Z" fill="black"/>
</g>
</g>
<defs>
<clipPath id="clip0_4800_1894">
<rect width="51.4925" height="50" fill="white" transform="translate(0.253662)"/>
</clipPath>
</defs>
</svg>
