<svg width="48" height="48" viewBox="0 0 48 48" fill="none" xmlns="http://www.w3.org/2000/svg">
<path d="M23.9994 0C20.5171 0.070781 19.8087 4.83702 23.0619 5.94626V14.4375C23.108 15.6801 24.8913 15.6792 24.937 14.4375V5.94626C28.1924 4.83542 27.4793 0.0698435 23.9994 0V0ZM23.9994 4.21883C23.3532 4.21883 22.8276 3.69308 22.8276 3.04696C22.8864 1.49446 25.1127 1.49493 25.1714 3.04696C25.1713 3.69308 24.6456 4.21883 23.9994 4.21883Z" fill="#001042"/>
<path d="M17.2026 4.72009C13.7202 4.79087 13.0118 9.55702 16.2651 10.6663V15.4691C16.3112 16.7116 18.0945 16.7107 18.1401 15.4691V10.6664C21.3956 9.55561 20.6825 4.78994 17.2026 4.72009V4.72009ZM17.2026 8.93883C16.5564 8.93883 16.0307 8.41317 16.0307 7.76696C16.0897 6.21446 18.3159 6.21484 18.3746 7.76696C18.3745 8.41317 17.8488 8.93883 17.2026 8.93883Z" fill="#001042"/>
<path d="M29.8588 10.6663V15.4691C29.9049 16.7116 31.6882 16.7107 31.7338 15.4691V10.6663C34.9883 9.55608 34.277 4.79012 30.7963 4.72009C27.315 4.79031 26.6048 9.55664 29.8588 10.6663V10.6663ZM30.7963 6.59499C31.4425 6.59499 31.9682 7.12065 31.9682 7.76686C31.9093 9.31936 29.6831 9.31898 29.6244 7.76686C29.6244 7.12074 30.1502 6.59499 30.7963 6.59499Z" fill="#001042"/>
<path d="M15.469 31.7343C16.7115 31.6882 16.7106 29.905 15.469 29.8593H10.6663C9.55598 26.6047 4.79012 27.3162 4.72009 30.7968C4.79041 34.278 9.55664 34.9884 10.6663 31.7343H15.469ZM7.76696 31.9687C7.12074 31.9687 6.59509 31.443 6.59509 30.7968C6.65396 29.2443 8.88014 29.2447 8.93883 30.7968C8.93883 31.443 8.41317 31.9687 7.76696 31.9687Z" fill="#001042"/>
<path d="M5.94617 24.9374H14.4375C15.68 24.8913 15.6791 23.1081 14.4375 23.0624H5.94617C4.83589 19.8078 0.070031 20.5193 0 23.9999C0.0703123 27.4812 4.83655 28.1915 5.94617 24.9374ZM3.04687 25.1718C2.40065 25.1718 1.87499 24.6462 1.87499 23.9999C1.93387 22.4474 4.16005 22.4478 4.21874 23.9999C4.21874 24.6462 3.69308 25.1718 3.04687 25.1718Z" fill="#001042"/>
<path d="M7.76696 20.25C9.12005 20.25 10.27 19.3634 10.6663 18.1406H15.469C16.7115 18.0945 16.7106 16.3113 15.469 16.2656H10.6663C9.55561 13.0106 4.79012 13.7228 4.72009 17.2031C4.72009 18.8832 6.08696 20.25 7.76696 20.25ZM7.76696 16.0312C8.41317 16.0312 8.93883 16.5569 8.93883 17.2031C8.87995 18.7556 6.65377 18.7552 6.59509 17.2031C6.59509 16.557 7.12084 16.0312 7.76696 16.0312Z" fill="#001042"/>
<path d="M24.937 42.054V33.5627C24.8909 32.3201 23.1076 32.321 23.062 33.5627V42.054C19.8073 43.1642 20.5188 47.9301 23.9995 48.0001C27.4808 47.9298 28.191 43.1637 24.937 42.054V42.054ZM23.9996 46.1251C23.3533 46.1251 22.8277 45.5995 22.8277 44.9533C22.8866 43.4008 25.1127 43.4011 25.1714 44.9533C25.1713 45.5995 24.6457 46.1251 23.9996 46.1251Z" fill="#001042"/>
<path d="M31.7338 37.3341V32.5314C31.6877 31.2889 29.9045 31.2898 29.8588 32.5314V37.3341C26.6043 38.4443 27.3156 43.2103 30.7963 43.2803C34.2777 43.21 34.9879 38.4437 31.7338 37.3341ZM30.7963 41.4053C30.1501 41.4053 29.6245 40.8796 29.6245 40.2334C29.6833 38.6809 31.9095 38.6813 31.9682 40.2334C31.9682 40.8796 31.4425 41.4053 30.7963 41.4053Z" fill="#001042"/>
<path d="M18.1401 37.3341V32.5314C18.094 31.2889 16.3107 31.2898 16.2651 32.5314V37.3341C13.0105 38.4444 13.7219 43.2103 17.2026 43.2803C20.6839 43.21 21.3941 38.4437 18.1401 37.3341ZM17.2026 41.4053C16.5564 41.4053 16.0307 40.8796 16.0307 40.2334C16.0896 38.6809 18.3158 38.6813 18.3745 40.2334C18.3745 40.8796 17.8488 41.4053 17.2026 41.4053Z" fill="#001042"/>
<path d="M32.5314 16.2655C31.2889 16.3116 31.2898 18.0949 32.5314 18.1405H37.3341C38.4443 21.3951 43.2104 20.6837 43.2803 17.203C43.21 13.7218 38.4437 13.0115 37.3341 16.2655H32.5314ZM40.2335 16.0311C40.8797 16.0311 41.4054 16.5568 41.4054 17.203C41.3465 18.7555 39.1203 18.7551 39.0617 17.203C39.0617 16.5569 39.5873 16.0311 40.2335 16.0311Z" fill="#001042"/>
<path d="M44.9534 20.9531C43.6003 20.9531 42.4503 21.8397 42.054 23.0625H33.5627C32.3201 23.1086 32.321 24.8918 33.5627 24.9375H42.054C43.1647 28.1925 47.9303 27.4803 48.0002 24C48.0002 22.32 46.6334 20.9531 44.9534 20.9531V20.9531ZM44.9534 25.1719C44.3071 25.1719 43.7815 24.6462 43.7815 24C43.8404 22.4475 46.0665 22.4479 46.1252 24C46.1252 24.6462 45.5996 25.1719 44.9534 25.1719Z" fill="#001042"/>
<path d="M40.2334 27.75C38.8803 27.75 37.7304 28.6366 37.3341 29.8594H32.5314C31.2889 29.9055 31.2898 31.6887 32.5314 31.7344H37.3341C38.4448 34.9894 43.2104 34.2771 43.2803 30.7969C43.2803 29.1169 41.9135 27.75 40.2334 27.75ZM40.2334 31.9687C39.5872 31.9687 39.0616 31.4431 39.0616 30.7969C39.1204 29.2444 41.3466 29.2447 41.4053 30.7969C41.4053 31.4431 40.8796 31.9687 40.2334 31.9687Z" fill="#001042"/>
<path fill-rule="evenodd" clip-rule="evenodd" d="M17.2031 13.4534H30.7968L34.5468 17.2034V30.797L30.7968 34.547H17.2031L13.4531 30.797V17.2034L17.2031 13.4534Z" fill="url(#paint0_linear_1_16787)"/>
<path d="M22.6465 27.2811C22.4874 27.2811 22.3262 27.2405 22.1786 27.1553C21.7302 26.8965 21.5765 26.3231 21.8354 25.8747L24.5418 21.1872C25.2029 20.1342 26.7469 21.0266 26.1656 22.1247L23.4592 26.8122C23.2856 27.113 22.9705 27.2811 22.6465 27.2811V27.2811Z" fill="white"/>
<path d="M19.5487 27.2812C19.3088 27.2812 19.0688 27.1897 18.8858 27.0066L16.542 24.6628C16.1789 24.3137 16.1789 23.6861 16.542 23.3369L18.8858 20.9932C19.252 20.6272 19.8455 20.6272 20.2117 20.9932C20.5778 21.3594 20.5778 21.9529 20.2117 22.3191L18.5308 23.9998L20.2117 25.6807C20.8036 26.2638 20.3685 27.2902 19.5487 27.2812Z" fill="white"/>
<path d="M28.4553 27.281C28.2153 27.281 27.9755 27.1895 27.7924 27.0064C27.4263 26.6403 27.4263 26.0467 27.7924 25.6805L29.4732 23.9997L27.7924 22.3189C27.4263 21.9528 27.4263 21.3592 27.7924 20.993C28.1586 20.6269 28.752 20.6269 29.1183 20.993L31.462 23.3368C31.8251 23.6859 31.8251 24.3135 31.462 24.6627L29.1183 27.0064C28.9352 27.1895 28.6953 27.281 28.4553 27.281Z" fill="white"/>
<defs>
<linearGradient id="paint0_linear_1_16787" x1="13.4531" y1="14.9968" x2="35.8009" y2="17.1305" gradientUnits="userSpaceOnUse">
<stop stop-color="#0082F8"/>
<stop offset="1" stop-color="#00C0FD"/>
</linearGradient>
</defs>
</svg>
