<svg width="37" height="48" viewBox="0 0 37 48" fill="none" xmlns="http://www.w3.org/2000/svg">
<path d="M18.365 41.405C24.0861 41.405 28.724 36.7671 28.724 31.046C28.724 25.3249 24.0861 20.687 18.365 20.687C12.6439 20.687 8.00598 25.3249 8.00598 31.046C8.00598 36.7671 12.6439 41.405 18.365 41.405Z" fill="url(#paint0_linear_1_16809)"/>
<path d="M18.3152 37.6362C18.8328 37.6362 19.2527 37.2164 19.2527 36.6987V35.8472C20.4792 35.4707 21.2637 34.3939 21.4422 33.3315C21.6827 31.9009 20.9072 30.6085 19.5125 30.1155C18.7691 29.8527 17.948 29.5361 17.4939 29.18C17.2306 28.9734 17.3481 28.1684 17.9315 27.9669C18.3432 27.8473 18.9137 27.7885 19.3252 28.1715C19.3255 28.1718 19.3314 28.1773 19.3317 28.1776C19.711 28.5298 20.3011 28.5052 20.6534 28.1262C21.0058 27.7472 20.9815 27.1516 20.6027 26.799C20.2141 26.4374 19.7565 26.1979 19.2527 26.0817V25.3928C19.2527 24.8751 18.8328 24.4553 18.3152 24.4553C17.7975 24.4553 17.3777 24.8751 17.3777 25.3928V26.1755C17.3709 26.1776 17.3641 26.1797 17.3574 26.1818C16.4078 26.4939 15.707 27.319 15.5286 28.335C15.3681 29.2493 15.6778 30.1384 16.3367 30.6554C17.0025 31.1774 17.9561 31.5541 18.8877 31.8834C19.624 32.1437 19.6457 32.7077 19.5932 33.0207C19.5052 33.543 19.0659 34.1074 18.3087 34.1124C17.5204 34.118 17.294 34.082 16.6977 33.6919C16.2645 33.4085 15.6835 33.5299 15.3999 33.9633C15.1165 34.3965 15.2378 34.9775 15.6712 35.261C16.3197 35.6853 16.8054 35.87 17.3776 35.9439V36.6988C17.3777 37.2165 17.7975 37.6362 18.3152 37.6362V37.6362Z" fill="white"/>
<path d="M27.3118 14.2788C26.8975 13.9681 26.31 14.0525 25.9994 14.467C25.6889 14.8813 25.7732 15.4689 26.1876 15.7794C31.5344 19.7859 34.856 26.3581 34.856 32.9311C34.8559 42.4533 27.927 46.125 18.3654 46.125C8.80669 46.125 1.875 42.4557 1.875 32.9311C1.875 26.3574 5.19656 19.7852 10.5434 15.7794C10.9578 15.4689 11.042 14.8814 10.7316 14.467C10.4213 14.0527 9.83362 13.9683 9.41916 14.2788C3.60919 18.6316 0 25.7788 0 32.9311C0 43.4821 7.64953 48 18.3654 48C29.0867 48 36.7309 43.4782 36.7309 32.9311C36.7309 25.7794 33.1217 18.6324 27.3118 14.2788V14.2788Z" fill="#001042"/>
<path d="M11.3163 11.3697C11.4559 11.7487 11.8145 11.9834 12.1961 11.9834C12.8459 11.9834 13.3015 11.3343 13.0758 10.7215L9.96205 2.26875C10.7311 2.73581 11.5383 3.59634 13.4189 3.59634C14.9495 3.59634 15.769 3.02597 16.4276 2.56763C17.0053 2.16553 17.4228 1.875 18.3652 1.875C19.3077 1.875 19.7252 2.16553 20.3029 2.56772C20.9614 3.02606 21.7809 3.59644 23.3116 3.59644C25.1904 3.59644 25.9931 2.73975 26.7684 2.26884C26.0622 4.18622 23.6739 10.6685 23.6503 10.7353C23.4138 11.4081 23.9903 12.0943 24.6984 11.9688L35.0169 10.1353C35.5267 10.0448 35.8665 9.55809 35.776 9.04828C35.6854 8.53847 35.1988 8.19844 34.689 8.28919L27.7115 9.52894L33.5832 4.43138C33.9742 4.09191 34.016 3.49978 33.6766 3.10875C33.3369 2.71762 32.7449 2.676 32.354 3.01538L26.6756 7.94522L29.1377 1.2615C29.3627 0.650438 28.9099 0 28.2579 0C26.7272 0 25.9077 0.570375 25.2491 1.02881C24.6714 1.43091 24.254 1.72144 23.3116 1.72144C22.3691 1.72144 21.9517 1.43091 21.374 1.02881C20.7155 0.570375 19.896 0 18.3652 0C16.8345 0 16.015 0.570375 15.3564 1.02881C14.7787 1.43091 14.3614 1.72144 13.4189 1.72144C12.4764 1.72144 12.059 1.43091 11.4814 1.02881C10.8229 0.570375 10.0034 0 8.47264 0C7.82145 0 7.36761 0.649781 7.59289 1.26159L11.3163 11.3697Z" fill="#001042"/>
<path d="M9.40221 15.9667C7.78699 15.9667 6.4729 14.6526 6.4729 13.0374C6.4729 11.4222 7.78699 10.1081 9.40221 10.1081H26.8305C28.4458 10.1081 29.7598 11.4222 29.7598 13.0374C29.7598 14.6526 28.4457 15.9667 26.8305 15.9667H9.40221Z" fill="url(#paint1_linear_1_16809)"/>
<defs>
<linearGradient id="paint0_linear_1_16809" x1="8.00598" y1="22.203" x2="29.9557" y2="24.2986" gradientUnits="userSpaceOnUse">
<stop stop-color="#0082F8"/>
<stop offset="1" stop-color="#00C0FD"/>
</linearGradient>
<linearGradient id="paint1_linear_1_16809" x1="6.4729" y1="10.5368" x2="28.2351" y2="18.7954" gradientUnits="userSpaceOnUse">
<stop stop-color="#0082F8"/>
<stop offset="1" stop-color="#00C0FD"/>
</linearGradient>
</defs>
</svg>
