<svg width="62" height="55" viewBox="0 0 62 55" fill="none" xmlns="http://www.w3.org/2000/svg">
<path d="M42.3627 12.2535V3.32566C42.3627 1.49187 40.8707 0 39.037 0H3.32577C1.49187 0 0 1.49187 0 3.32566V12.2534C0 13.7042 0.933734 14.941 2.23191 15.3943V18.0404C0.933844 18.4938 0 19.7305 0 21.1813V30.1091C0 31.5599 0.933844 32.7966 2.23202 33.25V35.8961C0.933844 36.3494 0 37.5862 0 39.0369V47.9647C0 49.7984 1.49187 51.2903 3.32566 51.2903H29.7138C31.1588 51.2403 31.1645 49.1545 29.7138 49.1028H3.32566C2.69806 49.1028 2.1875 48.5922 2.1875 47.9647V39.0369C2.1875 38.4093 2.69806 37.8988 3.32566 37.8988H39.0369C39.6645 37.8988 40.1751 38.4093 40.1751 39.0369V42.5605C40.1751 43.1646 40.6649 43.6543 41.2688 43.6543C41.8728 43.6543 42.3626 43.1646 42.3626 42.5605V39.0369C42.3626 37.5862 41.4287 36.3494 40.1307 35.896V33.25C41.4287 32.7966 42.3626 31.5599 42.3626 30.1091V21.1813C42.3626 19.7306 41.4287 18.4938 40.1307 18.0404V15.3943C41.4288 14.9411 42.3627 13.7042 42.3627 12.2535V12.2535ZM2.1875 3.32566C2.1875 2.69806 2.69806 2.1875 3.32577 2.1875H39.037C39.6646 2.1875 40.1752 2.69806 40.1752 3.32566V12.2534C40.1752 12.881 39.6646 13.3915 39.037 13.3915H3.32577C2.69817 13.3915 2.18761 12.881 2.18761 12.2534V3.32566H2.1875ZM4.41952 17.8556V15.5792H37.9433V17.8556H4.41952ZM37.9433 33.4347V35.7112H4.41952V33.4347H37.9433ZM40.1752 30.1091C40.1752 30.7367 39.6646 31.2472 39.037 31.2472H3.32577C2.69817 31.2472 2.18761 30.7367 2.18761 30.1091V21.1813C2.18761 20.5538 2.69817 20.0432 3.32577 20.0432H39.037C39.6646 20.0432 40.1752 20.5538 40.1752 21.1813V30.1091Z" fill="#001042"/>
<path d="M5.55764 11.1152H36.805C38.2446 11.0661 38.2627 8.98439 36.805 8.92773H5.55764C4.11805 8.97695 4.09989 11.0587 5.55764 11.1152V11.1152Z" fill="#001042"/>
<path d="M5.55854 6.65137C6.16251 6.65137 6.65229 6.1617 6.65229 5.55762C6.5987 4.10829 4.51751 4.10851 4.46436 5.55762C4.46436 6.1617 4.95446 6.65137 5.55854 6.65137V6.65137Z" fill="#001042"/>
<path d="M10.5804 6.65137C11.1844 6.65137 11.6741 6.1617 11.6741 5.55762C11.6205 4.10829 9.53936 4.10851 9.48621 5.55762C9.48621 6.1617 9.97632 6.65137 10.5804 6.65137Z" fill="#001042"/>
<path d="M15.6024 6.65137C16.2063 6.65137 16.6961 6.1617 16.6961 5.55762C16.6425 4.10829 14.5613 4.10851 14.5082 5.55762C14.5082 6.1617 14.9983 6.65137 15.6024 6.65137Z" fill="#001042"/>
<path d="M36.805 26.7834H5.55764C4.11805 26.8326 4.09989 28.9143 5.55764 28.9709H36.805C38.2447 28.9218 38.2627 26.8401 36.805 26.7834Z" fill="#001042"/>
<path d="M5.55854 24.5068C6.16251 24.5068 6.65229 24.0172 6.65229 23.4131C6.5987 21.9638 4.51751 21.964 4.46436 23.4131C4.46436 24.0172 4.95446 24.5068 5.55854 24.5068V24.5068Z" fill="#001042"/>
<path d="M10.5804 24.5068C11.1844 24.5068 11.6741 24.0172 11.6741 23.4131C11.6205 21.9638 9.53936 21.964 9.48621 23.4131C9.48621 24.0172 9.97632 24.5068 10.5804 24.5068Z" fill="#001042"/>
<path d="M15.6024 24.5068C16.2063 24.5068 16.6961 24.0172 16.6961 23.4131C16.6425 21.9638 14.5613 21.964 14.5082 23.4131C14.5082 24.0172 14.9983 24.5068 15.6024 24.5068Z" fill="#001042"/>
<path d="M32.6269 44.6389H5.55768C4.95371 44.6389 4.46393 45.1286 4.46393 45.7327C4.46393 46.3367 4.95371 46.8264 5.55768 46.8264H32.6269C34.068 46.7767 34.0833 44.695 32.6269 44.6389Z" fill="#001042"/>
<path d="M5.55854 42.3625C6.16251 42.3625 6.65229 41.8729 6.65229 41.2688C6.5987 39.8195 4.51751 39.8197 4.46436 41.2688C4.46436 41.8729 4.95446 42.3625 5.55854 42.3625V42.3625Z" fill="#001042"/>
<path d="M11.6741 41.2688C11.6741 40.6644 11.1838 40.1745 10.5795 40.175C9.1303 40.2289 9.1315 42.3093 10.5804 42.3625C11.1844 42.3625 11.6741 41.8729 11.6741 41.2688Z" fill="#001042"/>
<path d="M16.6961 41.2688C16.6961 40.6644 16.2058 40.1745 15.6015 40.175C14.1523 40.2289 14.1535 42.3093 15.6024 42.3625C16.2063 42.3625 16.6961 41.8729 16.6961 41.2688Z" fill="#001042"/>
<path fill-rule="evenodd" clip-rule="evenodd" d="M26.3051 55H56.6604C59.5972 55 62 52.6643 62 49.8094C62 46.9546 59.5972 44.6189 56.6604 44.6189C56.7365 40.4094 52.2759 37.2558 48.1841 38.5717C41.2578 30.1795 26.9952 33.9983 25.4825 44.6809C19.0522 45.8271 19.7283 54.8134 26.3051 55Z" fill="url(#paint0_linear_1_616)"/>
<defs>
<linearGradient id="paint0_linear_1_616" x1="21" y1="35.5366" x2="63.3616" y2="43.4329" gradientUnits="userSpaceOnUse">
<stop stop-color="#0082F8"/>
<stop offset="1" stop-color="#1C40F2"/>
</linearGradient>
</defs>
</svg>
