<svg width="52" height="56" viewBox="0 0 52 56" fill="none" xmlns="http://www.w3.org/2000/svg">
<path d="M1.09436 48.344H36.0944V54.9065H1.09436V48.344Z" fill="url(#paint0_linear_1_98)"/>
<path d="M39.3746 38.5V25.375L50.3121 21V34.125L39.3746 38.5Z" fill="url(#paint1_linear_1_98)"/>
<path d="M50.7614 20.0035C50.6959 19.9744 41.6925 16.3744 39.7811 15.6096C39.5204 15.5052 39.2294 15.5052 38.9687 15.6096L37.1875 16.322C37.1872 14.5999 37.1889 8.80578 37.1856 8.71336C37.176 8.43139 37.0592 8.16867 36.8671 7.97661L29.2109 0.320359C29.0154 0.124906 28.7357 0 28.4375 0H1.09375C0.489672 0 0 0.489672 0 1.09375V54.9062C0 55.5103 0.489672 56 1.09375 56H36.0938C36.6978 56 37.1875 55.5103 37.1875 54.9062V38.8031L38.9688 39.5155C39.2293 39.6199 39.5205 39.6199 39.7812 39.5155L50.7187 35.1405C51.134 34.9744 51.4062 34.5722 51.4062 34.125V21.0222C51.4062 20.5506 51.1436 20.176 50.7614 20.0035V20.0035ZM39.375 17.803L47.3675 21L39.375 24.197L31.3825 21C33.072 20.3242 37.7202 18.4649 39.375 17.803ZM33.4532 7.65625H29.5312V3.73428L33.4532 7.65625ZM35 53.8125H2.1875V2.1875H27.3438V8.75C27.3438 9.35408 27.8334 9.84375 28.4375 9.84375H35V17.197C27.5773 20.1667 28.0138 19.9881 27.9292 20.0324C27.581 20.2159 27.3438 20.5697 27.3438 21.0222V34.125C27.3438 34.5722 27.616 34.9744 28.0313 35.1405L35 37.9281V53.8125ZM39.375 37.3219C38.3534 36.9133 30.3929 33.7291 29.5312 33.3844V22.6155L38.9688 26.3904C39.2293 26.4948 39.5205 26.4948 39.7812 26.3904L49.2188 22.6155V33.3844L39.375 37.3219Z" fill="#001042"/>
<path d="M12.351 8.19541L7.6556 12.8908L6.24149 11.4767C5.81438 11.0496 5.12182 11.0496 4.6946 11.4767C4.26749 11.9038 4.26749 12.5963 4.6946 13.0236L6.8821 15.2111C7.3091 15.6381 8.00177 15.6382 8.42899 15.2111L13.8977 9.7423C14.3248 9.3152 14.3248 8.62263 13.8977 8.19541C13.4706 7.7682 12.7781 7.7682 12.351 8.19541Z" fill="#001042"/>
<path d="M15.3125 15.531H31.7188C32.3228 15.531 32.8125 15.0413 32.8125 14.4373C32.8125 13.8333 32.3228 13.3435 31.7188 13.3435H15.3125C14.7084 13.3435 14.2188 13.8333 14.2188 14.4373C14.2188 15.0413 14.7084 15.531 15.3125 15.531Z" fill="#001042"/>
<path d="M12.351 18.0389L7.6556 22.7343L6.24149 21.3202C5.81438 20.8931 5.12182 20.8931 4.6946 21.3202C4.26749 21.7473 4.26749 22.4398 4.6946 22.8671L6.8821 25.0546C7.3091 25.4816 8.00177 25.4817 8.42899 25.0546L13.8977 19.5858C14.3248 19.1587 14.3248 18.4661 13.8977 18.0389C13.4706 17.6117 12.7781 17.6117 12.351 18.0389Z" fill="#001042"/>
<path d="M15.3125 25.3748H24.0625C24.6666 25.3748 25.1562 24.8851 25.1562 24.281C25.1562 23.6769 24.6666 23.1873 24.0625 23.1873H15.3125C14.7084 23.1873 14.2188 23.6769 14.2188 24.281C14.2188 24.8851 14.7084 25.3748 15.3125 25.3748Z" fill="#001042"/>
<path d="M12.351 27.8827L7.6556 32.578L6.24149 31.1639C5.81438 30.7368 5.12182 30.7368 4.6946 31.1639C4.26749 31.591 4.26749 32.2836 4.6946 32.7108L6.8821 34.8983C7.3091 35.3253 8.00177 35.3254 8.42899 34.8983L13.8977 29.4296C14.3248 29.0025 14.3248 28.3099 13.8977 27.8827C13.4706 27.4555 12.7781 27.4555 12.351 27.8827Z" fill="#001042"/>
<path d="M15.3125 35.2183H24.0625C24.6666 35.2183 25.1562 34.7286 25.1562 34.1245C25.1562 33.5205 24.6666 33.0308 24.0625 33.0308H15.3125C14.7084 33.0308 14.2188 33.5205 14.2188 34.1245C14.2188 34.7286 14.7084 35.2183 15.3125 35.2183Z" fill="#001042"/>
<path d="M12.351 37.7264L7.6556 42.4218L6.24149 41.0077C5.81438 40.5806 5.12182 40.5806 4.6946 41.0077C4.26749 41.4348 4.26749 42.1273 4.6946 42.5546L6.8821 44.7421C7.3091 45.1691 8.00177 45.1692 8.42899 44.7421L13.8977 39.2733C14.3248 38.8462 14.3248 38.1536 13.8977 37.7264C13.4706 37.2992 12.7781 37.2992 12.351 37.7264Z" fill="#001042"/>
<path d="M14.2188 43.9683C14.2188 44.5723 14.7084 45.062 15.3125 45.062H31.7188C32.3228 45.062 32.8125 44.5723 32.8125 43.9683C32.8125 43.3643 32.3228 42.8745 31.7188 42.8745H15.3125C14.7084 42.8745 14.2188 43.3643 14.2188 43.9683Z" fill="#001042"/>
<defs>
<linearGradient id="paint0_linear_1_98" x1="1.09436" y1="48.8242" x2="30.8088" y2="63.9547" gradientUnits="userSpaceOnUse">
<stop stop-color="#0082F8"/>
<stop offset="1" stop-color="#1C40F2"/>
</linearGradient>
<linearGradient id="paint1_linear_1_98" x1="39.3746" y1="22.2805" x2="51.0265" y2="22.9758" gradientUnits="userSpaceOnUse">
<stop stop-color="#0082F8"/>
<stop offset="1" stop-color="#1C40F2"/>
</linearGradient>
</defs>
</svg>
