<svg width="57" height="56" viewBox="0 0 57 56" fill="none" xmlns="http://www.w3.org/2000/svg">
<path d="M17.512 26.9335C18.6635 25.4493 18.3634 23.3244 17.3004 21.745C16.188 20.0924 13.0737 15.3956 11.5877 14.4098C10.3481 13.5873 8.51156 13.6157 7.18479 14.4194C6.95672 14.5582 6.44064 15.0159 5.83221 15.5888L15.0601 29.0919C16.2752 28.0399 17.4459 27.0189 17.512 26.9335V26.9335Z" fill="url(#paint0_linear_1_73)"/>
<path d="M41.5957 48.8302C42.4012 47.5055 42.4296 45.6688 41.6071 44.4292C40.6214 42.9432 36.0749 39.968 34.2718 38.7166C32.7078 37.631 30.5658 37.3519 29.0813 38.5032C28.9978 38.568 28.0196 39.689 26.9927 40.8746L40.3988 50.2146C40.9849 49.5928 41.4552 49.0628 41.5957 48.8302V48.8302Z" fill="url(#paint1_linear_1_73)"/>
<path d="M39.7466 0C30.6647 0 23.2759 7.38875 23.2759 16.4707C23.2759 25.5526 30.6647 32.9414 39.7466 32.9414C48.8286 32.9414 56.2173 25.5526 56.2173 16.4707C56.2173 7.38875 48.8286 0 39.7466 0V0ZM39.7466 30.7453C31.8755 30.7453 25.472 24.3418 25.472 16.4707C25.472 8.59957 31.8755 2.19609 39.7466 2.19609C47.6178 2.19609 54.0212 8.59957 54.0212 16.4707C54.0212 24.3418 47.6176 30.7453 39.7466 30.7453Z" fill="#001042"/>
<path d="M39.7453 4.39185C39.1388 4.39185 38.6472 4.88344 38.6472 5.48989V6.58794C38.6472 7.19428 39.1388 7.68598 39.7453 7.68598C40.3516 7.68598 40.8433 7.19428 40.8433 6.58794V5.48989C40.8433 4.88344 40.3516 4.39185 39.7453 4.39185V4.39185Z" fill="#001042"/>
<path d="M32.7584 7.92942C32.3295 7.50074 31.6344 7.50074 31.2054 7.92942C30.7767 8.35821 30.7767 9.05349 31.2054 9.48238L31.9819 10.2588C32.4109 10.6876 33.1058 10.6875 33.5347 10.2588C33.9635 9.83003 33.9635 9.13474 33.5347 8.70585L32.7584 7.92942Z" fill="#001042"/>
<path d="M29.8644 15.3723H28.7664C28.1599 15.3723 27.6683 15.8639 27.6683 16.4704C27.6683 17.0767 28.1599 17.5684 28.7664 17.5684H29.8644C30.4708 17.5684 30.9625 17.0767 30.9625 16.4704C30.9625 15.8639 30.4708 15.3723 29.8644 15.3723Z" fill="#001042"/>
<path d="M31.9819 22.6821L31.2054 23.4585C30.7767 23.8873 30.7767 24.5826 31.2054 25.0115C31.6344 25.4403 32.3294 25.4402 32.7584 25.0115L33.5348 24.2351C33.9636 23.8063 33.9636 23.111 33.5348 22.6821C33.1058 22.2534 32.4108 22.2534 31.9819 22.6821V22.6821Z" fill="#001042"/>
<path d="M39.7453 25.2546C39.1388 25.2546 38.6472 25.7462 38.6472 26.3527V27.4507C38.6472 28.0572 39.1388 28.5488 39.7453 28.5488C40.3516 28.5488 40.8433 28.0572 40.8433 27.4507V26.3527C40.8433 25.7462 40.3516 25.2546 39.7453 25.2546V25.2546Z" fill="#001042"/>
<path d="M47.5109 22.6821C47.082 22.2534 46.387 22.2534 45.9581 22.6821C45.5293 23.1109 45.5293 23.8062 45.9581 24.2351L46.7345 25.0115C47.1635 25.4403 47.8585 25.4402 48.2875 25.0115C48.7162 24.5827 48.7162 23.8874 48.2875 23.4585L47.5109 22.6821Z" fill="#001042"/>
<path d="M50.7272 15.3723H49.6291C49.0227 15.3723 48.5311 15.8639 48.5311 16.4704C48.5311 17.0767 49.0227 17.5684 49.6291 17.5684H50.7272C51.3335 17.5684 51.8252 17.0767 51.8252 16.4704C51.8252 15.8639 51.3335 15.3723 50.7272 15.3723Z" fill="#001042"/>
<path d="M47.511 10.2588L48.2875 9.48238C48.7162 9.0536 48.7162 8.35832 48.2875 7.92942C47.8586 7.50074 47.1635 7.50074 46.7345 7.92942L45.9581 8.70585C45.5293 9.13463 45.5293 9.82992 45.9581 10.2588C46.3871 10.6877 47.082 10.6876 47.511 10.2588V10.2588Z" fill="#001042"/>
<path d="M39.7461 9.88232C39.1396 9.88232 38.648 10.374 38.648 10.9804V15.3726H35.3539C34.7475 15.3726 34.2559 15.8642 34.2559 16.4706C34.2559 17.0769 34.7475 17.5686 35.3539 17.5686H39.7461C40.3524 17.5686 40.8441 17.0769 40.8441 16.4706V10.9804C40.8441 10.3739 40.3524 9.88232 39.7461 9.88232Z" fill="#001042"/>
<path d="M34.899 37.8135C32.9281 36.4454 30.2753 36.1873 28.4095 37.6343C28.3066 37.7141 28.1527 37.8333 24.1694 42.4648C20.2487 41.137 14.8798 35.768 13.5507 31.8456C18.1823 27.8621 18.3015 27.7083 18.3808 27.6058C19.7228 25.8763 19.655 23.2743 18.2127 21.1311C17.0235 19.4023 13.9525 14.6592 12.196 13.4939C10.5697 12.415 8.27358 12.4759 6.61531 13.4805C5.92332 13.9016 1.65148 17.953 1.10202 19.0311C-1.28041 23.7423 0.638972 32.4043 2.71944 37.2614C5.3239 43.3487 12.6669 50.6916 18.7533 53.2955C21.8945 54.6418 27.0269 56.0002 31.4119 56.0002C33.684 56.0002 35.559 55.6344 36.9796 54.9155C38.0274 54.3918 42.0967 50.1248 42.5348 49.3995C43.5737 47.6911 43.5688 45.3971 42.5232 43.8211C41.3936 42.1181 36.9686 39.2494 34.899 37.8135V37.8135ZM40.6583 48.259C40.2757 48.8621 36.4546 52.7227 35.9929 52.9537C32.0343 54.9569 23.708 53.0299 19.6178 51.2768C14.0666 48.9018 7.1136 41.9489 4.73831 36.3972C2.8422 31.9705 1.06853 23.9637 3.06016 20.0253C3.32545 19.5041 7.21254 15.7034 7.75508 15.3578C8.7453 14.758 10.1226 14.7538 10.982 15.3239C12.2745 16.1813 15.5284 21.0736 16.3909 22.3574C17.1391 23.4689 17.5123 25.0822 16.6821 26.2115C16.2571 26.6117 13.3665 29.1087 11.5862 30.6384C11.2759 30.9052 11.1396 31.3224 11.2325 31.7209C12.388 36.6712 19.3465 43.6294 24.2946 44.7829C24.6934 44.8759 25.1103 44.7394 25.3766 44.4291C26.9067 42.6487 29.4037 39.758 29.8036 39.3331C30.9012 38.5258 32.514 38.8314 33.6468 39.6174C34.9532 40.5245 39.8386 43.7467 40.6931 45.0351C41.2659 45.8984 41.251 47.2841 40.6583 48.259Z" fill="#001042"/>
<defs>
<linearGradient id="paint0_linear_1_73" x1="5.83221" y1="14.9233" x2="19.0263" y2="15.9463" gradientUnits="userSpaceOnUse">
<stop stop-color="#0082F8"/>
<stop offset="1" stop-color="#1C40F2"/>
</linearGradient>
<linearGradient id="paint1_linear_1_73" x1="26.9927" y1="38.6722" x2="43.0452" y2="40.5452" gradientUnits="userSpaceOnUse">
<stop stop-color="#0082F8"/>
<stop offset="1" stop-color="#1C40F2"/>
</linearGradient>
</defs>
</svg>
