<svg width="57" height="48" viewBox="0 0 57 48" fill="none" xmlns="http://www.w3.org/2000/svg">
<path d="M38.2132 29.6487C39.1304 27.5727 39.6401 25.2776 39.6401 22.8654C39.6401 13.5891 32.1025 6.04224 22.8376 6.04224C13.5727 6.04224 6.03516 13.5891 6.03516 22.8654C6.03516 32.1417 13.5727 39.6885 22.8376 39.6885C27.8987 39.6885 32.4443 37.4365 35.5273 33.8808C36.0528 32.2452 36.9885 30.7939 38.2132 29.6487Z" fill="url(#paint0_linear_1_385)"/>
<path d="M22.8381 22.5294C25.7527 22.5294 28.1238 20.1576 28.1238 17.2424C28.1238 14.3271 25.7527 11.9553 22.8381 11.9553C19.9235 11.9553 17.5524 14.3271 17.5524 17.2424C17.5524 20.1576 19.9235 22.5294 22.8381 22.5294ZM22.8381 14.1448C24.5454 14.1448 25.9344 15.5344 25.9344 17.2424C25.9344 18.9503 24.5454 20.34 22.8381 20.34C21.1308 20.34 19.7418 18.9503 19.7418 17.2424C19.7418 15.5344 21.1308 14.1448 22.8381 14.1448Z" fill="white"/>
<path d="M22.8367 24.3281C18.3625 24.3281 14.7224 27.9681 14.7224 32.4423V32.6799C14.7224 33.2845 15.2127 33.7746 15.8172 33.7746H29.8562C30.4607 33.7746 30.9509 33.2845 30.9509 32.6799V32.4423C30.9509 27.9681 27.3109 24.3281 22.8367 24.3281ZM16.9736 31.5853C17.39 28.7229 19.8606 26.5176 22.8367 26.5176C25.8128 26.5176 28.2833 28.7229 28.6998 31.5853H16.9736Z" fill="white"/>
<path d="M45.4788 25.8836C45.61 24.8862 45.6764 23.875 45.6764 22.8651C45.6764 10.2573 35.4311 0 22.8382 0C10.2452 0 0 10.2573 0 22.8651C0 35.473 10.2452 45.7301 22.8382 45.7301C27.2751 45.7301 31.5335 44.4712 35.2241 42.0789C37.0757 45.5966 40.7644 48 45.0031 48C51.0941 48 56.0494 43.037 56.0494 36.9367C56.0494 30.996 51.3499 26.1339 45.4788 25.8836V25.8836ZM22.8382 43.5407C11.4524 43.5407 2.18943 34.2656 2.18943 22.8651C2.18943 11.4645 11.4524 2.18943 22.8382 2.18943C34.224 2.18943 43.4869 11.4645 43.4869 22.8651C43.4869 23.9202 43.4071 24.9763 43.2493 26.0127C37.9888 26.8568 33.9568 31.434 33.9568 36.9367C33.9568 38.0012 34.1077 39.031 34.3892 40.0058C30.9728 42.3204 26.9923 43.5407 22.8382 43.5407V43.5407ZM45.0031 45.8106C40.1194 45.8106 36.1462 41.8297 36.1462 36.9367C36.1462 32.0436 40.1194 28.0628 45.0031 28.0628C49.8869 28.0628 53.86 32.0436 53.86 36.9367C53.86 41.8297 49.8869 45.8106 45.0031 45.8106Z" fill="#020288"/>
<path d="M47.273 35.8419H46.0972V34.6661C46.0972 34.0615 45.607 33.5714 45.0025 33.5714C44.398 33.5714 43.9078 34.0615 43.9078 34.6661V35.8419H42.7319C42.1274 35.8419 41.6372 36.332 41.6372 36.9366C41.6372 37.5412 42.1274 38.0313 42.7319 38.0313H43.9078V39.2072C43.9078 39.8118 44.398 40.3019 45.0025 40.3019C45.607 40.3019 46.0972 39.8118 46.0972 39.2072V38.0313H47.273C47.8775 38.0313 48.3677 37.5412 48.3677 36.9366C48.3677 36.332 47.8775 35.8419 47.273 35.8419Z" fill="#020288"/>
<defs>
<linearGradient id="paint0_linear_1_385" x1="6.03516" y1="8.50416" x2="41.6387" y2="11.8992" gradientUnits="userSpaceOnUse">
<stop stop-color="#0082F8"/>
<stop offset="1" stop-color="#00C0FD"/>
</linearGradient>
</defs>
</svg>
