<svg width="532" height="385" viewBox="0 0 532 385" fill="none" xmlns="http://www.w3.org/2000/svg">
<path d="M393.019 56.3164L238.87 145.387L192.811 65.2708L305.562 0.0296013L393.019 0V56.3164Z" fill="url(#paint0_linear_1_526)"/>
<path d="M239.432 88.9373L196.51 64.161C196.289 63.9963 196.026 63.8966 195.752 63.8731C195.477 63.8495 195.202 63.9031 194.956 64.0278L193.357 64.9602L194.127 66.3071V114.676C194.147 115.568 194.372 116.443 194.786 117.233C195.199 118.024 195.789 118.709 196.51 119.234L238.544 143.463L239.447 145.047L241.03 144.129C241.327 143.907 241.56 143.611 241.705 143.271C241.851 142.93 241.904 142.558 241.859 142.19V93.4959C241.837 92.5995 241.607 91.7206 241.185 90.9292C240.764 90.1377 240.163 89.4556 239.432 88.9373Z" fill="#1C40F2"/>
<path d="M237.569 145.046L194.647 120.27C193.921 119.749 193.327 119.066 192.913 118.274C192.499 117.482 192.277 116.604 192.264 115.711V67.0615C192.264 65.3002 193.329 64.501 194.647 65.2558L237.569 90.0321C238.306 90.5472 238.912 91.2279 239.338 92.0195C239.765 92.8112 240 93.6917 240.025 94.5907V143.314C239.922 145.046 238.886 145.89 237.569 145.046Z" fill="white"/>
<path d="M435.246 330.484L364.203 281.923L389.971 179.206C392.324 169.763 403.144 165.619 412.379 170.799L462.997 199.143C470.087 203.065 473.787 211.131 470.265 227.264L445.325 326.65C445.126 327.489 444.762 328.281 444.255 328.979C443.749 329.677 443.109 330.267 442.373 330.717C441.637 331.167 440.82 331.467 439.967 331.6C439.115 331.732 438.245 331.695 437.407 331.49C436.63 331.294 435.897 330.952 435.246 330.484V330.484Z" fill="#00113A"/>
<path d="M300.383 317.992C297.645 303.931 296.209 287.28 301.004 273.59C304.971 262.208 313.807 258.005 324.685 253.727C331.208 251.168 337.899 249.062 344.711 247.422L351.578 245.809C352.347 245.55 353.141 245.371 353.946 245.276C355.219 245.276 354.746 244.418 353.354 246.342C353.206 247.334 353.088 248.325 352.955 249.302L353.828 250.782C350.542 247.955 354.908 242.139 358.549 244.714C363.937 248.547 364.262 256.673 364.706 262.697C365.254 270.275 364.973 277.852 364.943 285.43C364.882 286.412 364.45 287.333 363.733 288.006C363.017 288.679 362.071 289.054 361.088 289.054C360.104 289.054 359.158 288.679 358.442 288.006C357.726 287.333 357.293 286.412 357.232 285.43C357.232 279.436 357.439 273.442 357.232 267.433C357.156 264.164 356.894 260.903 356.448 257.664C356.24 256.318 355.9 252.277 354.657 251.374L359.378 245.306C366.926 251.803 347.33 254.749 345.199 255.281C337.93 257.045 330.821 259.411 323.945 262.356C318.558 264.724 313.289 266.796 310.388 272.169C305.948 280.28 306.066 290.744 306.495 299.698C306.717 305.112 307.325 310.504 308.316 315.831C309.263 320.7 301.818 322.772 300.916 317.888L300.383 317.992Z" fill="#00113A"/>
<path d="M437.109 333.666L358.089 281.863L383.857 179.147C386.21 169.704 397.059 165.56 406.265 170.74L456.913 199.083C460.292 200.884 462.994 203.735 464.612 207.205C466.229 210.676 466.675 214.578 465.882 218.324L437.109 333.666Z" fill="#00165B"/>
<path d="M440.262 333.532V327.612L432.033 327.331L367.68 290.093C365.382 289.056 362.874 288.57 360.355 288.676C357.837 288.781 355.378 289.474 353.175 290.699L297.746 322.654L292.581 322.462V328.382C292.618 329.157 292.868 329.908 293.304 330.55C293.741 331.193 294.346 331.702 295.053 332.023L365.134 372.488C367.435 373.513 369.942 373.991 372.459 373.883C374.976 373.775 377.434 373.085 379.638 371.866L436.873 338.935C437.691 338.542 438.42 337.984 439.014 337.296C439.607 336.609 440.052 335.806 440.321 334.938V334.938C440.388 334.47 440.368 333.993 440.262 333.532V333.532Z" fill="#00165B"/>
<path d="M342.149 287.739C343.822 290.3 356.151 257.028 349.239 211.161L410.972 240.762C409.256 270.615 408.16 278.163 400.494 314.765L342.149 287.739Z" fill="#1C40F2"/>
<path d="M374.147 371.496C372.723 364.008 371.93 356.413 371.779 348.792C371.453 337.41 372.134 324.089 378.868 314.454C383.235 308.194 390.354 305.263 396.866 301.74C403.643 297.877 410.658 294.446 417.868 291.469C427.755 287.65 438.841 287.532 444.583 298.04C451.288 310.266 445.309 323.068 444.864 335.826C444.672 341.288 436.191 341.303 436.384 335.826C436.695 326.591 440.306 317.858 439.003 308.401C438.382 304.035 436.473 298.958 431.781 297.655C428.169 296.664 423.981 298.292 420.651 299.565C414.507 302.099 408.526 305.01 402.742 308.282C397.177 311.242 389.732 313.862 385.928 319.22C380.215 327.257 380.008 338.89 380.26 348.318C380.367 355.298 381.04 362.257 382.273 369.128C383.309 374.486 375.183 376.75 374.103 371.496H374.147Z" fill="#00113A"/>
<path d="M0 385L231.47 226.731C233.717 225.48 236.225 224.771 238.795 224.661C241.365 224.55 243.924 225.041 246.271 226.095L531.5 385H503H130.5H0Z" fill="#FDFFFF"/>
<path d="M383.503 321.558L305.4 281.715C305.187 281.604 304.951 281.545 304.711 281.545C304.472 281.545 304.235 281.604 304.023 281.715L281.585 294.962C281.274 295.134 281.044 295.421 280.944 295.762C280.844 296.103 280.883 296.47 281.053 296.782C281.17 297.011 281.356 297.198 281.585 297.315L355.248 339.837C355.453 339.954 355.685 340.015 355.922 340.015C356.158 340.015 356.39 339.954 356.595 339.837L382.274 325.185C383.059 324.667 384.405 322.076 383.503 321.558Z" fill="url(#paint1_linear_1_526)"/>
<path d="M355.248 337.055L281.585 294.533C281.304 294.284 281.127 293.938 281.092 293.564C281.056 293.19 281.164 292.817 281.393 292.52C281.534 292.385 281.694 292.27 281.866 292.179L307.56 277.63C307.785 277.5 308.041 277.432 308.3 277.432C308.56 277.432 308.815 277.5 309.04 277.63L382.97 320.286C383.151 320.438 383.291 320.633 383.377 320.854C383.463 321.074 383.492 321.313 383.461 321.548C383.43 321.782 383.34 322.005 383.2 322.196C383.06 322.387 382.874 322.539 382.659 322.639L356.684 337.055C356.461 337.167 356.215 337.225 355.966 337.225C355.717 337.225 355.471 337.167 355.248 337.055V337.055Z" fill="white"/>
<path d="M304.333 288.982C304.249 289.026 304.155 289.049 304.059 289.049C303.964 289.049 303.87 289.026 303.786 288.982L298.827 286.126C298.635 286.126 298.591 285.889 298.827 285.815L302.113 283.905C302.2 283.869 302.293 283.851 302.387 283.851C302.481 283.851 302.574 283.869 302.661 283.905L307.634 286.762C307.797 286.88 307.856 287.028 307.634 287.088L304.333 288.982Z" fill="url(#paint2_linear_1_526)"/>
<path d="M310.002 297.493C309.915 297.529 309.822 297.547 309.728 297.547C309.634 297.547 309.541 297.529 309.455 297.493L304.496 294.636C304.304 294.518 304.26 294.384 304.496 294.31L307.797 292.416C307.969 292.356 308.157 292.356 308.33 292.416L313.303 295.302C313.466 295.302 313.525 295.539 313.303 295.613L310.002 297.493Z" fill="url(#paint3_linear_1_526)"/>
<path d="M307.101 301.104C307.017 301.148 306.923 301.171 306.828 301.171C306.732 301.171 306.638 301.148 306.554 301.104L301.566 298.248C301.403 298.248 301.359 298.011 301.566 297.937L304.852 296.013C304.938 295.977 305.032 295.958 305.126 295.958C305.22 295.958 305.313 295.977 305.399 296.013L310.358 298.869C310.55 298.988 310.594 299.121 310.358 299.195L307.101 301.104Z" fill="url(#paint4_linear_1_526)"/>
<path d="M299.227 301.785C299.14 301.821 299.047 301.84 298.953 301.84C298.859 301.84 298.766 301.821 298.68 301.785L293.721 298.825C293.68 298.835 293.637 298.83 293.598 298.811C293.56 298.792 293.531 298.76 293.514 298.721C293.504 298.684 293.507 298.644 293.523 298.609C293.539 298.573 293.568 298.545 293.603 298.529L296.889 296.605C297.061 296.545 297.249 296.545 297.421 296.605L302.409 299.461C302.572 299.58 302.617 299.728 302.409 299.802L299.227 301.785Z" fill="url(#paint5_linear_1_526)"/>
<path d="M373.23 323.231C373.12 323.256 373.005 323.255 372.895 323.23C372.785 323.204 372.682 323.154 372.594 323.083L366.067 319.339C365.859 319.22 365.771 319.057 365.889 318.983L369.737 316.734C369.957 316.69 370.184 316.733 370.374 316.852L376.886 320.611C377.123 320.745 377.226 320.922 377.108 320.982L373.23 323.231Z" fill="url(#paint6_linear_1_526)"/>
<path d="M312.785 283.625C312.709 283.662 312.626 283.681 312.541 283.681C312.457 283.681 312.373 283.662 312.297 283.625L307.339 280.768C307.146 280.768 307.072 280.531 307.191 280.487L308.671 279.658H309.115L314.073 282.53C314.236 282.53 314.31 282.752 314.221 282.826L312.785 283.625Z" fill="url(#paint7_linear_1_526)"/>
<path d="M319.445 287.547C319.363 287.583 319.275 287.602 319.186 287.602C319.096 287.602 319.008 287.583 318.927 287.547L314.028 284.661C313.835 284.661 313.791 284.424 313.88 284.38L315.36 283.551C315.441 283.515 315.529 283.496 315.619 283.496C315.708 283.496 315.796 283.515 315.878 283.551L320.836 286.407C321.028 286.407 321.073 286.644 320.984 286.689L319.445 287.547Z" fill="url(#paint8_linear_1_526)"/>
<path d="M326.49 291.572H325.986L320.999 288.612C320.836 288.612 320.777 288.375 320.865 288.331L322.227 287.532C322.306 287.495 322.392 287.476 322.479 287.476C322.566 287.476 322.652 287.495 322.73 287.532L327.688 290.403C327.881 290.403 327.955 290.625 327.851 290.699L326.49 291.572Z" fill="url(#paint9_linear_1_526)"/>
<path d="M316.425 289.486C316.262 289.545 316.084 289.545 315.922 289.486L310.949 286.437C310.771 286.318 310.712 286.2 310.801 286.126L312.177 285.342H312.666L317.654 288.302C317.816 288.302 317.89 288.538 317.787 288.583L316.425 289.486Z" fill="url(#paint10_linear_1_526)"/>
<path d="M363.95 316.733C363.772 316.792 363.58 316.792 363.403 316.733L331.063 298.07C330.886 297.951 330.826 297.818 331.063 297.744L334.941 295.524C335.028 295.488 335.121 295.469 335.215 295.469C335.309 295.469 335.402 295.488 335.489 295.524L367.813 314.203C367.976 314.203 368.035 314.439 367.813 314.513L363.95 316.733Z" fill="url(#paint11_linear_1_526)"/>
<path d="M358.651 313.774C358.473 313.832 358.281 313.832 358.104 313.774L325.779 295.125C325.616 295.125 325.542 294.888 325.661 294.814L329.538 292.579C329.622 292.542 329.713 292.523 329.805 292.523C329.897 292.523 329.987 292.542 330.071 292.579L362.411 311.228C362.603 311.228 362.647 311.465 362.411 311.539L358.651 313.774Z" fill="url(#paint12_linear_1_526)"/>
<path d="M306.007 305.707C305.92 305.743 305.827 305.762 305.733 305.762C305.639 305.762 305.546 305.743 305.459 305.707L300.501 302.747C300.323 302.747 300.264 302.51 300.501 302.451L303.816 300.556C303.9 300.52 303.991 300.501 304.083 300.501C304.174 300.501 304.265 300.52 304.349 300.556L309.322 303.442C309.361 303.459 309.391 303.49 309.408 303.528C309.425 303.567 309.426 303.61 309.411 303.65C309.393 303.689 309.361 303.721 309.322 303.738L306.007 305.707Z" fill="url(#paint13_linear_1_526)"/>
<path d="M312.859 309.674C312.773 309.71 312.68 309.729 312.586 309.729C312.492 309.729 312.399 309.71 312.312 309.674L307.354 306.817C307.161 306.699 307.117 306.551 307.235 306.492L310.521 304.597C310.606 304.553 310.699 304.53 310.795 304.53C310.89 304.53 310.984 304.553 311.069 304.597L316.145 307.454C316.308 307.454 316.352 307.691 316.145 307.765L312.859 309.674Z" fill="url(#paint14_linear_1_526)"/>
<path d="M319.712 313.625C319.534 313.684 319.342 313.684 319.164 313.625L314.176 310.813C314.138 310.797 314.107 310.766 314.09 310.728C314.074 310.689 314.073 310.645 314.088 310.606C314.094 310.585 314.105 310.566 314.121 310.551C314.136 310.535 314.155 310.524 314.176 310.517L317.462 308.593C317.547 308.549 317.641 308.526 317.736 308.526C317.831 308.526 317.925 308.549 318.01 308.593L322.909 311.405C322.929 311.398 322.951 311.396 322.972 311.397C322.994 311.399 323.015 311.404 323.034 311.414C323.053 311.424 323.07 311.437 323.085 311.453C323.099 311.47 323.109 311.488 323.116 311.509C323.127 311.546 323.123 311.586 323.107 311.622C323.091 311.657 323.062 311.685 323.027 311.701L319.712 313.625Z" fill="url(#paint15_linear_1_526)"/>
<path d="M326.534 317.562C326.45 317.606 326.356 317.629 326.261 317.629C326.165 317.629 326.071 317.606 325.987 317.562L321.029 314.706C320.836 314.706 320.792 314.469 321.029 314.395L324.329 312.486C324.414 312.442 324.508 312.418 324.603 312.418C324.698 312.418 324.792 312.442 324.877 312.486L329.835 315.342C330.027 315.461 330.072 315.609 329.835 315.653L326.534 317.562Z" fill="url(#paint16_linear_1_526)"/>
<path d="M333.387 321.514C333.302 321.558 333.208 321.581 333.113 321.581C333.017 321.581 332.923 321.558 332.839 321.514L327.881 318.643C327.844 318.649 327.806 318.643 327.773 318.625C327.74 318.607 327.715 318.578 327.701 318.543C327.687 318.508 327.686 318.47 327.697 318.434C327.708 318.398 327.731 318.368 327.762 318.347L331.048 316.423C331.221 316.363 331.408 316.363 331.581 316.423L336.569 319.294C336.732 319.294 336.776 319.546 336.569 319.62L333.387 321.514Z" fill="url(#paint17_linear_1_526)"/>
<path d="M340.226 325.451C340.142 325.488 340.051 325.507 339.959 325.507C339.868 325.507 339.777 325.488 339.693 325.451L334.75 322.565C334.587 322.565 334.542 322.328 334.75 322.269L338.035 320.345C338.213 320.286 338.405 320.286 338.583 320.345L343.541 323.201C343.719 323.32 343.778 323.468 343.541 323.542L340.226 325.451Z" fill="url(#paint18_linear_1_526)"/>
<path d="M355.633 334.361C355.455 334.42 355.263 334.42 355.085 334.361L341.557 326.591C341.394 326.591 341.335 326.354 341.557 326.28L344.843 324.385C344.927 324.349 345.018 324.33 345.109 324.33C345.201 324.33 345.292 324.349 345.376 324.385L358.918 332.2C358.956 332.222 358.985 332.255 359.001 332.296C359.018 332.336 359.02 332.381 359.007 332.422C359.001 332.443 358.989 332.462 358.974 332.478C358.958 332.493 358.939 332.505 358.918 332.511L355.633 334.361Z" fill="url(#paint19_linear_1_526)"/>
<path d="M313.896 305.027C313.718 305.085 313.526 305.085 313.348 305.027L308.39 302.066C308.369 302.073 308.348 302.075 308.326 302.073C308.305 302.07 308.285 302.063 308.266 302.052C308.248 302.041 308.232 302.025 308.22 302.007C308.209 301.99 308.201 301.969 308.197 301.948C308.177 301.92 308.166 301.886 308.166 301.852C308.166 301.817 308.177 301.783 308.197 301.756L311.513 299.876C311.594 299.84 311.683 299.821 311.772 299.821C311.861 299.821 311.949 299.84 312.031 299.876L317.019 302.747C317.181 302.747 317.226 302.984 317.019 303.058L313.896 305.027Z" fill="url(#paint20_linear_1_526)"/>
<path d="M320.866 308.993C320.688 309.052 320.496 309.052 320.318 308.993L315.331 306.033C315.168 306.033 315.123 305.796 315.331 305.722L318.616 303.842C318.703 303.806 318.796 303.788 318.89 303.788C318.984 303.788 319.077 303.806 319.164 303.842L324.122 306.714C324.165 306.704 324.21 306.711 324.249 306.733C324.287 306.755 324.316 306.79 324.329 306.832C324.34 306.87 324.337 306.91 324.321 306.945C324.304 306.98 324.276 307.008 324.241 307.025L320.866 308.993Z" fill="url(#paint21_linear_1_526)"/>
<path d="M327.571 312.93C327.484 312.966 327.391 312.985 327.297 312.985C327.203 312.985 327.11 312.966 327.023 312.93L322.065 310.073C321.902 309.955 321.828 309.822 322.065 309.748L325.38 307.853C325.462 307.809 325.554 307.786 325.647 307.786C325.74 307.786 325.831 307.809 325.913 307.853L330.871 310.71C330.914 310.726 330.948 310.759 330.968 310.8C330.987 310.841 330.99 310.889 330.975 310.932C330.965 310.953 330.951 310.972 330.933 310.988C330.915 311.003 330.894 311.014 330.871 311.021L327.571 312.93Z" fill="url(#paint22_linear_1_526)"/>
<path d="M334.423 316.882C334.339 316.926 334.245 316.949 334.149 316.949C334.054 316.949 333.96 316.926 333.875 316.882L328.917 314.025C328.725 314.025 328.68 313.788 328.917 313.714L332.218 311.805C332.297 311.754 332.39 311.726 332.484 311.726C332.579 311.726 332.671 311.754 332.751 311.805L337.709 314.662C337.872 314.78 337.931 314.898 337.709 314.958L334.423 316.882Z" fill="url(#paint23_linear_1_526)"/>
<path d="M341.275 320.819C341.191 320.863 341.097 320.886 341.001 320.886C340.906 320.886 340.812 320.863 340.728 320.819L335.769 317.962C335.577 317.844 335.533 317.725 335.651 317.651L338.937 315.742C339.019 315.698 339.11 315.675 339.203 315.675C339.296 315.675 339.388 315.698 339.47 315.742L344.457 318.599C344.62 318.717 344.665 318.865 344.457 318.909L341.275 320.819Z" fill="url(#paint24_linear_1_526)"/>
<path d="M348.069 324.771C347.99 324.815 347.901 324.838 347.81 324.838C347.719 324.838 347.63 324.815 347.551 324.771L342.563 321.811C342.4 321.811 342.356 321.574 342.563 321.515L345.849 319.59C346.027 319.532 346.219 319.532 346.396 319.59L351.355 322.462C351.379 322.462 351.404 322.467 351.426 322.477C351.449 322.486 351.469 322.501 351.486 322.519C351.502 322.537 351.515 322.558 351.523 322.582C351.531 322.605 351.534 322.63 351.532 322.654C351.546 322.698 351.546 322.744 351.532 322.787L348.069 324.771Z" fill="url(#paint25_linear_1_526)"/>
<path d="M354.952 328.707C354.865 328.743 354.772 328.762 354.678 328.762C354.584 328.762 354.491 328.743 354.405 328.707L349.446 325.836C349.254 325.836 349.209 325.599 349.446 325.525L352.747 323.631C352.828 323.594 352.917 323.575 353.006 323.575C353.095 323.575 353.183 323.594 353.265 323.631L358.253 326.591C358.287 326.627 358.306 326.674 358.306 326.724C358.306 326.774 358.287 326.821 358.253 326.857V326.857L354.952 328.707Z" fill="url(#paint26_linear_1_526)"/>
<path d="M316.796 301.475C316.716 301.526 316.624 301.554 316.529 301.554C316.435 301.554 316.342 301.526 316.263 301.475L311.305 298.618C311.127 298.5 311.068 298.381 311.305 298.307L314.576 296.398C314.66 296.354 314.754 296.331 314.849 296.331C314.945 296.331 315.039 296.354 315.123 296.398L320.081 299.255C320.274 299.373 320.318 299.492 320.2 299.566L316.796 301.475Z" fill="url(#paint27_linear_1_526)"/>
<path d="M323.648 305.322C323.566 305.373 323.471 305.401 323.375 305.401C323.278 305.401 323.183 305.373 323.101 305.322L318.143 302.466C317.965 302.466 317.906 302.229 318.143 302.17L321.458 300.246C321.626 300.187 321.808 300.187 321.976 300.246L326.964 303.102C327.001 303.124 327.031 303.157 327.047 303.198C327.063 303.238 327.065 303.283 327.053 303.324C327.035 303.364 327.003 303.395 326.964 303.413L323.648 305.322Z" fill="url(#paint28_linear_1_526)"/>
<path d="M330.502 309.333C330.415 309.37 330.322 309.388 330.228 309.388C330.134 309.388 330.041 309.37 329.954 309.333L324.981 306.462C324.804 306.462 324.759 306.225 324.981 306.151L328.252 304.242C328.339 304.206 328.432 304.187 328.526 304.187C328.62 304.187 328.713 304.206 328.8 304.242L333.758 307.098C333.951 307.217 333.995 307.35 333.758 307.424L330.502 309.333Z" fill="url(#paint29_linear_1_526)"/>
<path d="M337.398 313.315C337.22 313.374 337.028 313.374 336.85 313.315L331.892 310.429C331.699 310.429 331.655 310.192 331.892 310.118L335.207 308.239C335.291 308.202 335.382 308.183 335.474 308.183C335.565 308.183 335.656 308.202 335.74 308.239L340.669 311.11C340.711 311.127 340.746 311.159 340.765 311.2C340.784 311.242 340.787 311.289 340.772 311.332C340.75 311.373 340.713 311.405 340.669 311.421L337.398 313.315Z" fill="url(#paint30_linear_1_526)"/>
<path d="M344.177 317.252C344.09 317.288 343.997 317.306 343.903 317.306C343.809 317.306 343.716 317.288 343.629 317.252L338.671 314.38C338.479 314.38 338.434 314.143 338.671 314.069L341.987 312.175C342.071 312.138 342.161 312.119 342.253 312.119C342.345 312.119 342.435 312.138 342.519 312.175L347.478 315.135C347.512 315.171 347.531 315.219 347.531 315.268C347.531 315.318 347.512 315.366 347.478 315.402V315.402L344.177 317.252Z" fill="url(#paint31_linear_1_526)"/>
<path d="M351.03 321.173C350.943 321.21 350.85 321.228 350.756 321.228C350.662 321.228 350.569 321.21 350.483 321.173L345.495 318.317C345.332 318.317 345.288 318.065 345.495 317.991L348.78 316.097C348.958 316.038 349.15 316.038 349.328 316.097L354.316 319.057C354.479 319.057 354.523 319.294 354.316 319.368L351.03 321.173Z" fill="url(#paint32_linear_1_526)"/>
<path d="M357.852 325.17C357.773 325.214 357.684 325.237 357.593 325.237C357.502 325.237 357.413 325.214 357.334 325.17L352.346 322.314C352.183 322.195 352.139 322.077 352.346 322.003L355.632 320.093C355.717 320.049 355.81 320.026 355.906 320.026C356.001 320.026 356.095 320.049 356.18 320.093L361.138 322.95C361.174 322.969 361.203 323 361.219 323.038C361.236 323.076 361.238 323.118 361.227 323.157C361.211 323.201 361.179 323.238 361.138 323.261L357.852 325.17Z" fill="url(#paint33_linear_1_526)"/>
<path d="M303.15 293.526C302.972 293.585 302.78 293.585 302.602 293.526L294.195 288.79C294.176 288.797 294.155 288.8 294.135 288.798C294.114 288.796 294.095 288.791 294.076 288.781C294.058 288.771 294.042 288.758 294.03 288.741C294.017 288.725 294.008 288.706 294.003 288.687C293.98 288.66 293.968 288.626 293.968 288.59C293.968 288.555 293.98 288.521 294.003 288.494L297.289 286.57C297.373 286.526 297.467 286.503 297.563 286.503C297.658 286.503 297.752 286.526 297.836 286.57L306.258 291.439C306.279 291.433 306.302 291.431 306.324 291.433C306.346 291.435 306.368 291.442 306.387 291.453C306.407 291.465 306.424 291.48 306.437 291.498C306.451 291.516 306.46 291.536 306.465 291.558C306.476 291.595 306.473 291.635 306.456 291.671C306.44 291.706 306.412 291.734 306.376 291.75L303.15 293.526Z" fill="url(#paint34_linear_1_526)"/>
<path d="M369.235 326.591C369.15 326.635 369.056 326.658 368.961 326.658C368.866 326.658 368.772 326.635 368.687 326.591L360.28 321.855C360.088 321.737 360.044 321.603 360.162 321.529L363.374 319.502C363.46 319.465 363.554 319.447 363.648 319.447C363.742 319.447 363.835 319.465 363.921 319.502L372.358 324.371C372.521 324.489 372.595 324.623 372.358 324.697L369.235 326.591Z" fill="url(#paint35_linear_1_526)"/>
<path d="M300.248 297.152C300.166 297.204 300.071 297.231 299.974 297.231C299.877 297.231 299.782 297.204 299.7 297.152L289.665 291.365C289.473 291.365 289.428 291.129 289.665 291.069L292.951 289.145C293.033 289.101 293.124 289.078 293.217 289.078C293.31 289.078 293.402 289.101 293.484 289.145L303.548 294.932C303.711 294.932 303.77 295.169 303.548 295.243L300.248 297.152Z" fill="url(#paint36_linear_1_526)"/>
<path d="M292.36 297.848C292.276 297.892 292.182 297.915 292.087 297.915C291.991 297.915 291.897 297.892 291.813 297.848L285.123 293.985C284.945 293.867 284.901 293.733 285.019 293.659L288.29 291.765C288.375 291.721 288.469 291.698 288.564 291.698C288.659 291.698 288.753 291.721 288.838 291.765L295.542 295.628C295.705 295.746 295.779 295.879 295.661 295.924L292.36 297.848Z" fill="url(#paint37_linear_1_526)"/>
<path d="M311.067 292.934C310.894 292.994 310.707 292.994 310.534 292.934L305.561 290.093C305.398 290.093 305.339 289.856 305.561 289.782L308.847 287.872C308.931 287.836 309.022 287.817 309.113 287.817C309.205 287.817 309.296 287.836 309.38 287.872L314.338 290.729C314.53 290.847 314.575 290.995 314.338 291.055L311.067 292.934Z" fill="url(#paint38_linear_1_526)"/>
<path d="M317.892 296.872C317.805 296.908 317.712 296.926 317.618 296.926C317.524 296.926 317.431 296.908 317.344 296.872L312.386 293.911C312.194 293.911 312.149 293.675 312.386 293.615L315.672 291.721C315.758 291.685 315.852 291.666 315.946 291.666C316.04 291.666 316.133 291.685 316.219 291.721L321.192 294.607C321.355 294.607 321.414 294.844 321.192 294.903L317.892 296.872Z" fill="url(#paint39_linear_1_526)"/>
<path d="M324.715 300.823C324.547 300.882 324.364 300.882 324.197 300.823L319.209 297.966C319.046 297.848 319.002 297.7 319.209 297.626L322.494 295.746C322.577 295.695 322.671 295.668 322.768 295.668C322.865 295.668 322.96 295.695 323.042 295.746L328 298.603C328.021 298.609 328.04 298.62 328.056 298.634C328.071 298.649 328.084 298.666 328.093 298.686C328.101 298.706 328.105 298.727 328.104 298.748C328.104 298.77 328.099 298.791 328.089 298.81C328.083 298.831 328.071 298.85 328.056 298.866C328.04 298.881 328.021 298.892 328 298.899L324.715 300.823Z" fill="url(#paint40_linear_1_526)"/>
<path d="M331.567 304.76C331.483 304.804 331.389 304.827 331.293 304.827C331.198 304.827 331.104 304.804 331.019 304.76L326.061 301.933C325.898 301.933 325.824 301.696 326.061 301.622L329.362 299.713C329.446 299.669 329.54 299.646 329.636 299.646C329.731 299.646 329.825 299.669 329.909 299.713L334.868 302.57C334.889 302.578 334.908 302.59 334.924 302.606C334.94 302.621 334.952 302.64 334.961 302.661C334.969 302.682 334.973 302.704 334.972 302.727C334.971 302.749 334.966 302.771 334.956 302.792C334.939 302.831 334.907 302.863 334.868 302.88L331.567 304.76Z" fill="url(#paint41_linear_1_526)"/>
<path d="M338.42 308.712C338.335 308.756 338.242 308.779 338.146 308.779C338.051 308.779 337.957 308.756 337.872 308.712L332.914 305.855C332.722 305.855 332.677 305.618 332.914 305.544L336.2 303.635C336.284 303.598 336.375 303.579 336.466 303.579C336.558 303.579 336.649 303.598 336.733 303.635L341.721 306.491C341.883 306.61 341.928 306.743 341.721 306.787L338.42 308.712Z" fill="url(#paint42_linear_1_526)"/>
<path d="M345.257 312.649C345.175 312.693 345.083 312.716 344.99 312.716C344.897 312.716 344.806 312.693 344.724 312.649L339.766 309.689C339.588 309.689 339.544 309.452 339.766 309.378L343.037 307.469C343.215 307.41 343.407 307.41 343.584 307.469L348.572 310.325C348.735 310.325 348.779 310.592 348.572 310.666L345.257 312.649Z" fill="url(#paint43_linear_1_526)"/>
<path d="M352.095 316.6C351.922 316.66 351.734 316.66 351.562 316.6L346.589 313.774C346.426 313.774 346.352 313.537 346.589 313.463L349.889 311.553C349.976 311.517 350.069 311.499 350.163 311.499C350.257 311.499 350.35 311.517 350.437 311.553L355.395 314.44C355.416 314.446 355.434 314.457 355.45 314.471C355.466 314.485 355.479 314.503 355.487 314.523C355.496 314.542 355.5 314.564 355.499 314.585C355.499 314.606 355.493 314.628 355.484 314.647C355.478 314.668 355.466 314.687 355.451 314.702C355.435 314.718 355.416 314.729 355.395 314.736L352.095 316.6Z" fill="url(#paint44_linear_1_526)"/>
<path d="M358.934 320.537C358.849 320.574 358.759 320.593 358.667 320.593C358.575 320.593 358.485 320.574 358.401 320.537L353.428 317.651C353.25 317.651 353.206 317.414 353.428 317.355L356.743 315.46C356.825 315.424 356.913 315.405 357.002 315.405C357.091 315.405 357.18 315.424 357.261 315.46L362.249 318.42C362.412 318.42 362.456 318.657 362.249 318.716L358.934 320.537Z" fill="url(#paint45_linear_1_526)"/>
<path d="M362.869 324.031H362.321L359.021 325.955M359.021 326.088C359.036 326.125 359.058 326.158 359.086 326.186C359.114 326.214 359.147 326.236 359.184 326.251L360.486 327.006L356.238 329.374V329.507C356.238 329.655 356.238 329.625 356.401 329.685L359.731 331.623H360.264L368.108 327.08M368.108 326.946L367.946 326.769L368.108 326.946Z" fill="url(#paint46_linear_1_526)"/>
<path d="M286.025 320.375C293.722 312.249 306.924 343.612 314.813 357.924C317.773 363.149 319.919 361.683 320.91 360.485C321.102 360.229 321.239 359.937 321.316 359.627C321.392 359.317 321.405 358.994 321.354 358.679L312.548 300.601V300.35C312.42 299.913 312.225 299.499 311.971 299.121L286.025 320.375Z" fill="url(#paint47_linear_1_526)"/>
<path d="M280.267 354.12L265.022 345.314C263.794 344.603 263.735 343.538 264.86 342.946L284.189 333.503C284.829 333.255 285.514 333.147 286.198 333.188C286.883 333.229 287.551 333.417 288.156 333.74L301.876 341.673C303.031 342.339 303.179 343.331 302.187 343.923L284.426 354.283C283.767 354.577 283.049 354.715 282.328 354.686C281.607 354.658 280.902 354.464 280.267 354.12V354.12Z" fill="url(#paint48_linear_1_526)"/>
<path d="M280.075 352.256L264.845 343.375C263.616 342.68 263.542 341.614 264.682 341.022L283.923 331.564C284.564 331.321 285.251 331.218 285.935 331.264C286.62 331.31 287.286 331.503 287.889 331.831L301.61 339.749C302.764 340.43 302.882 341.421 301.891 342.102L284.13 352.463C283.481 352.732 282.78 352.853 282.079 352.817C281.377 352.782 280.693 352.59 280.075 352.256V352.256Z" fill="#C3CFE2"/>
<path d="M325.749 308.327L325.113 306.67L248.15 260.788L247.439 260.255C247.317 260.177 247.181 260.122 247.04 260.092L234.622 252.692L233.911 252.174C233.55 251.97 233.142 251.863 232.727 251.863C232.312 251.863 231.905 251.97 231.543 252.174L228.583 253.846L242.348 314.84C242.454 315.616 242.864 316.318 243.487 316.793L257.237 323.883C257.354 324.584 257.742 325.211 258.318 325.629C258.318 325.629 334.541 365.073 334.423 364.392L325.749 308.327Z" fill="url(#paint49_linear_1_526)"/>
<path d="M299.228 327.953C306.939 319.827 320.141 351.19 328.03 365.502C330.901 370.756 333.121 369.261 334.113 368.062C334.306 367.807 334.446 367.516 334.525 367.206C334.603 366.896 334.619 366.573 334.571 366.257L325.81 308.164V307.853C325.688 307.414 325.493 306.999 325.232 306.625L299.228 327.953Z" fill="url(#paint50_linear_1_526)"/>
<path d="M322.582 310.399C322.46 309.824 322.153 309.305 321.709 308.919C321.546 308.746 321.368 308.587 321.176 308.445L306.524 299.743L306.317 299.565L229.205 253.683C228.613 253.357 228.214 253.565 228.302 254.186L236.265 304.612C236.327 304.847 236.411 305.075 236.517 305.293L237.73 312.974C237.819 313.359 237.984 313.723 238.215 314.043C238.447 314.363 238.74 314.634 239.077 314.839L253.434 323.335C253.581 323.476 253.74 323.604 253.907 323.72L330.693 369.113C331.3 369.498 331.759 369.261 331.655 368.61L322.582 310.399Z" fill="url(#paint51_linear_1_526)"/>
<path d="M264.179 327.094L265.023 313.966C265.127 312.974 265.62 312.064 266.394 311.434C267.168 310.804 268.159 310.507 269.152 310.606V310.606C269.777 310.692 270.375 310.92 270.898 311.272L284.767 318.673C285.629 319.117 286.345 319.799 286.831 320.639C287.316 321.479 287.55 322.44 287.505 323.409L285.906 340.03C285.861 340.541 285.671 341.029 285.359 341.436L284.426 352.255C284.282 352.988 283.867 353.639 283.263 354.078C282.659 354.517 281.911 354.712 281.17 354.623C280.689 354.548 280.233 354.36 279.838 354.076L265.437 345.743C264.765 345.385 264.208 344.846 263.828 344.186C263.449 343.527 263.263 342.774 263.291 342.013L264.179 327.094Z" fill="url(#paint52_linear_1_526)"/>
<path d="M368.953 195.976C364.289 205.514 358.25 214.315 351.03 222.099C348.05 225.324 345.291 228.746 342.771 232.341C340.713 235.301 339.159 238.823 336.85 241.636C333.89 245.217 330.93 245.617 325.469 246.549C315.44 248.116 305.545 250.442 295.868 253.506C287.875 256.125 291.309 268.795 299.36 266.145C309.324 263.022 319.505 260.637 329.82 259.012C335.779 258.343 341.338 255.683 345.598 251.463C351.266 245.336 354.656 237.565 360.31 231.334C368.318 222.76 375.039 213.068 380.261 202.562C383.931 195.014 372.609 188.398 368.953 195.961V195.976Z" fill="#FFBA7C"/>
<path d="M348.618 204.781L336.229 236.44C334.749 246.282 356.773 250.205 358.697 242.271L367.992 210.85C368.571 208.396 368.216 205.815 366.996 203.61C365.775 201.404 363.777 199.732 361.39 198.92V198.92C358.916 198.065 356.208 198.197 353.828 199.289C351.449 200.381 349.583 202.348 348.618 204.781Z" fill="#1C40F2"/>
<path d="M280.46 271.429C280.071 270.555 279.857 269.612 279.833 268.655C279.808 267.698 279.972 266.745 280.315 265.852C280.659 264.958 281.176 264.141 281.835 263.447C282.495 262.754 283.285 262.197 284.161 261.809V261.809L298.636 255.444C300.414 254.678 302.422 254.639 304.229 255.336C306.036 256.033 307.498 257.411 308.3 259.174V259.174C309.056 260.953 309.086 262.957 308.383 264.758C307.681 266.558 306.302 268.012 304.541 268.809L290.066 275.188C288.294 275.963 286.286 276.002 284.485 275.297C282.684 274.592 281.236 273.201 280.46 271.429Z" fill="url(#paint53_linear_1_526)"/>
<path d="M336.229 322.787C335.648 320.936 335.818 318.931 336.701 317.204C337.584 315.476 339.11 314.165 340.95 313.551L354.271 309.2C356.122 308.619 358.127 308.789 359.854 309.672C361.582 310.555 362.893 312.081 363.506 313.921C364.088 315.769 363.923 317.77 363.046 319.497C362.169 321.224 360.65 322.538 358.815 323.157V323.157L345.583 327.508C343.73 328.094 341.721 327.926 339.99 327.043C338.26 326.16 336.946 324.631 336.333 322.787H336.229Z" fill="#FFBA7C"/>
<path d="M403.528 265.301C405.008 294.903 377.79 307.143 352.436 310.71C344.133 311.894 347.715 324.533 355.944 323.349C372.476 320.981 389.171 315.698 401.515 304.109C406.731 299.138 410.791 293.081 413.405 286.367C416.019 279.653 417.124 272.446 416.641 265.257C416.212 256.865 403.099 256.821 403.528 265.257V265.301Z" fill="#FFBA7C"/>
<path d="M278.936 267.536C278.174 265.757 278.14 263.751 278.84 261.947C279.54 260.144 280.918 258.686 282.68 257.886V257.886L297.14 251.536C298.917 250.774 300.922 250.738 302.725 251.435C304.529 252.132 305.988 253.507 306.79 255.266L314.309 261.409L288.586 271.31C286.803 272.069 284.794 272.099 282.99 271.394C281.185 270.688 279.73 269.303 278.936 267.536V267.536Z" fill="#FFBA7C"/>
<path d="M353.487 200.386C349.372 204.589 349.461 207.476 348.928 213.825C348.666 216.838 349.376 219.855 350.952 222.436C352.529 225.017 354.89 227.025 357.69 228.167L416.375 252.144C416.375 252.144 422.547 229.203 411.402 220.826C405.378 216.282 396.083 208.985 388.772 203.42C378.041 195.058 362.974 190.662 353.487 200.386Z" fill="#1C40F2"/>
<path d="M398.023 233.08L402.093 266.856C405.497 276.298 426.706 269.209 424.619 261.32L417.915 229.247C417.267 226.81 415.735 224.701 413.617 223.333C411.499 221.965 408.947 221.435 406.459 221.847V221.847C403.877 222.274 401.56 223.68 399.989 225.772C398.417 227.865 397.713 230.482 398.023 233.08Z" fill="#1C40F2"/>
<path d="M377.048 208.023L373.999 181.515L389.332 188.915L391.701 210.554C392.47 214.047 380.023 221.773 377.048 208.023Z" fill="#FFBA7C"/>
<path d="M374.908 149.941L369.899 150.224C362.121 150.665 356.173 157.326 356.614 165.104L358.06 190.653C358.5 198.431 365.162 204.379 372.94 203.939L377.949 203.655C385.727 203.215 391.675 196.553 391.234 188.775L389.788 163.226C389.348 155.448 382.686 149.5 374.908 149.941Z" fill="#FFBA7C"/>
<path d="M358.844 160.691C357.439 163.156 356.59 165.899 356.357 168.727C356.579 176.409 352.968 166.256 353.649 161.031C354.877 151.44 362.766 150.848 368.449 148.391C384.538 141.317 401.159 146.556 402.979 167.173C404.8 187.791 402.313 197.011 395.298 196.775C392.945 196.775 390.31 199.942 390.369 196.538L389.378 192.867C389.378 192.867 387.631 191.52 385.663 183.602C384.745 179.991 386.684 179.073 382.377 178.614C373.644 177.608 363.92 175.61 358.844 160.691Z" fill="#0D1116"/>
<path d="M393.256 189.285C392.994 189.647 392.662 189.953 392.281 190.186C391.9 190.419 391.476 190.575 391.035 190.643C390.593 190.712 390.142 190.693 389.708 190.587C389.274 190.481 388.865 190.29 388.505 190.025C387.991 189.647 387.592 189.135 387.351 188.545C386.781 187.139 386.618 185.602 386.879 184.107C387.141 182.613 387.817 181.222 388.831 180.094C389.342 179.365 390.12 178.867 390.996 178.709C391.872 178.551 392.775 178.746 393.508 179.25V179.25C394.065 179.629 394.489 180.172 394.721 180.804C395.306 182.211 395.479 183.756 395.22 185.257C394.96 186.759 394.279 188.156 393.256 189.285V189.285Z" fill="#FFAA82"/>
<path d="M376.442 203.583C376.679 204.264 384.42 201.689 384.183 200.845C382.346 203.566 379.871 205.797 376.975 207.343L376.442 203.583Z" fill="#DB8C4B"/>
<path d="M395.37 187.237C397.789 183.046 397.794 178.519 395.38 177.125C392.966 175.731 389.048 177.999 386.628 182.19C384.209 186.381 384.204 190.908 386.618 192.301C389.032 193.695 392.95 191.428 395.37 187.237Z" fill="#656593"/>
<path d="M361.894 207.816C363.578 207.816 364.943 206.451 364.943 204.767C364.943 203.083 363.578 201.718 361.894 201.718C360.21 201.718 358.845 203.083 358.845 204.767C358.845 206.451 360.21 207.816 361.894 207.816Z" fill="#656593"/>
<path d="M362.293 204.737C362.293 204.737 378.381 215.453 391.894 185.393" stroke="#656593" stroke-width="1.6" stroke-miterlimit="10"/>
<path d="M394.884 182.507L392.516 182.344C392.516 182.107 393.996 159.595 379.847 151.144C370.73 146.423 364.869 149.664 364.602 149.827H364.158C364.779 148.683 365.702 147.731 366.827 147.076C367.952 146.421 369.236 146.087 370.537 146.112C374.24 146.05 377.88 147.079 381.001 149.072C387.38 152.891 391.761 159.891 393.73 169.305C394.675 173.638 395.063 178.075 394.884 182.507V182.507Z" fill="#656593"/>
<path fill-rule="evenodd" clip-rule="evenodd" d="M362.958 181.826C363.091 182.447 362.499 182.181 361.478 181.826C360.457 181.471 358.621 180.864 358.666 179.991C358.71 179.117 360.916 179.251 361.626 179.813C362.297 180.302 362.77 181.017 362.958 181.826V181.826Z" fill="#2A180A"/>
<path fill-rule="evenodd" clip-rule="evenodd" d="M372.831 185.467C372.831 186.34 371.247 185.718 370.255 185.467C369.264 185.215 368.39 184.727 368.316 184.357C368.242 183.987 369.56 183.617 370.433 183.691C371.306 183.765 372.831 184.564 372.831 185.467Z" fill="#2A180A"/>
<path fill-rule="evenodd" clip-rule="evenodd" d="M363.995 195.649C361.627 194.362 361.109 192.615 361.494 192.097C361.879 191.579 361.982 192.097 363.714 192.245C364.604 192.454 365.444 192.836 366.186 193.37C367.222 194.421 367.858 194.436 367.858 194.85C367.425 195.435 366.792 195.84 366.079 195.987C365.367 196.134 364.625 196.014 363.995 195.649Z" fill="#EA826E"/>
<path fill-rule="evenodd" clip-rule="evenodd" d="M218.964 115.445L216.003 117.177C212.604 113.154 209.948 108.558 208.159 103.605L211.119 101.858L210.424 94.295L203.896 90.5356V91.8973C204.165 98.9065 206.202 105.734 209.817 111.745C213.23 117.871 218.132 123.037 224.07 126.768L225.254 127.448V119.885L218.964 115.445Z" fill="#1C40F2"/>
<defs>
<linearGradient id="paint0_linear_1_526" x1="220.088" y1="106.402" x2="356" y2="26" gradientUnits="userSpaceOnUse">
<stop stop-color="#4500E9"/>
<stop offset="0.05" stop-color="#4008EA" stop-opacity="0.87"/>
<stop offset="0.14" stop-color="#3715EC" stop-opacity="0.67"/>
<stop offset="0.23" stop-color="#3021EE" stop-opacity="0.49"/>
<stop offset="0.33" stop-color="#2A2AEF" stop-opacity="0.34"/>
<stop offset="0.44" stop-color="#2532F0" stop-opacity="0.21"/>
<stop offset="0.55" stop-color="#2138F1" stop-opacity="0.12"/>
<stop offset="0.67" stop-color="#1E3DF2" stop-opacity="0.05"/>
<stop offset="0.81" stop-color="#1D3FF2" stop-opacity="0.01"/>
<stop offset="1" stop-color="#1C40F2" stop-opacity="0"/>
</linearGradient>
<linearGradient id="paint1_linear_1_526" x1="383.799" y1="310.769" x2="280.89" y2="310.769" gradientUnits="userSpaceOnUse">
<stop stop-color="#F5F7FA"/>
<stop offset="1" stop-color="#C3CFE2"/>
</linearGradient>
<linearGradient id="paint2_linear_1_526" x1="313.539" y1="291.898" x2="410.039" y2="342.886" gradientUnits="userSpaceOnUse">
<stop stop-color="#F5F7FA"/>
<stop offset="1" stop-color="#C3CFE2"/>
</linearGradient>
<linearGradient id="paint3_linear_1_526" x1="311.216" y1="296.249" x2="407.716" y2="347.238" gradientUnits="userSpaceOnUse">
<stop stop-color="#F5F7FA"/>
<stop offset="1" stop-color="#C3CFE2"/>
</linearGradient>
<linearGradient id="paint4_linear_1_526" x1="309.129" y1="300.231" x2="405.629" y2="351.219" gradientUnits="userSpaceOnUse">
<stop stop-color="#F5F7FA"/>
<stop offset="1" stop-color="#C3CFE2"/>
</linearGradient>
<linearGradient id="paint5_linear_1_526" x1="307.116" y1="304.035" x2="403.616" y2="355.023" gradientUnits="userSpaceOnUse">
<stop stop-color="#F5F7FA"/>
<stop offset="1" stop-color="#C3CFE2"/>
</linearGradient>
<linearGradient id="paint6_linear_1_526" x1="314.546" y1="289.93" x2="411.06" y2="340.933" gradientUnits="userSpaceOnUse">
<stop stop-color="#F5F7FA"/>
<stop offset="1" stop-color="#C3CFE2"/>
</linearGradient>
<linearGradient id="paint7_linear_1_526" x1="317.137" y1="285.06" x2="413.652" y2="336.049" gradientUnits="userSpaceOnUse">
<stop stop-color="#F5F7FA"/>
<stop offset="1" stop-color="#C3CFE2"/>
</linearGradient>
<linearGradient id="paint8_linear_1_526" x1="316.988" y1="285.357" x2="413.488" y2="336.345" gradientUnits="userSpaceOnUse">
<stop stop-color="#F5F7FA"/>
<stop offset="1" stop-color="#C3CFE2"/>
</linearGradient>
<linearGradient id="paint9_linear_1_526" x1="316.869" y1="285.563" x2="413.369" y2="336.566" gradientUnits="userSpaceOnUse">
<stop stop-color="#F5F7FA"/>
<stop offset="1" stop-color="#C3CFE2"/>
</linearGradient>
<linearGradient id="paint10_linear_1_526" x1="315.537" y1="288.08" x2="412.052" y2="339.068" gradientUnits="userSpaceOnUse">
<stop stop-color="#F5F7FA"/>
<stop offset="1" stop-color="#C3CFE2"/>
</linearGradient>
<linearGradient id="paint11_linear_1_526" x1="315.478" y1="288.198" x2="411.963" y2="339.201" gradientUnits="userSpaceOnUse">
<stop stop-color="#F5F7FA"/>
<stop offset="1" stop-color="#C3CFE2"/>
</linearGradient>
<linearGradient id="paint12_linear_1_526" x1="315.537" y1="288.094" x2="412.052" y2="339.083" gradientUnits="userSpaceOnUse">
<stop stop-color="#F5F7FA"/>
<stop offset="1" stop-color="#C3CFE2"/>
</linearGradient>
<linearGradient id="paint13_linear_1_526" x1="306.998" y1="304.271" x2="403.498" y2="355.259" gradientUnits="userSpaceOnUse">
<stop stop-color="#F5F7FA"/>
<stop offset="1" stop-color="#C3CFE2"/>
</linearGradient>
<linearGradient id="paint14_linear_1_526" x1="306.821" y1="304.568" x2="403.336" y2="355.556" gradientUnits="userSpaceOnUse">
<stop stop-color="#F5F7FA"/>
<stop offset="1" stop-color="#C3CFE2"/>
</linearGradient>
<linearGradient id="paint15_linear_1_526" x1="306.717" y1="304.804" x2="403.202" y2="355.793" gradientUnits="userSpaceOnUse">
<stop stop-color="#F5F7FA"/>
<stop offset="1" stop-color="#C3CFE2"/>
</linearGradient>
<linearGradient id="paint16_linear_1_526" x1="306.568" y1="305.056" x2="403.054" y2="356.044" gradientUnits="userSpaceOnUse">
<stop stop-color="#F5F7FA"/>
<stop offset="1" stop-color="#C3CFE2"/>
</linearGradient>
<linearGradient id="paint17_linear_1_526" x1="306.42" y1="305.337" x2="402.92" y2="356.34" gradientUnits="userSpaceOnUse">
<stop stop-color="#F5F7FA"/>
<stop offset="1" stop-color="#C3CFE2"/>
</linearGradient>
<linearGradient id="paint18_linear_1_526" x1="306.318" y1="305.574" x2="402.818" y2="356.562" gradientUnits="userSpaceOnUse">
<stop stop-color="#F5F7FA"/>
<stop offset="1" stop-color="#C3CFE2"/>
</linearGradient>
<linearGradient id="paint19_linear_1_526" x1="306.065" y1="306.033" x2="402.551" y2="357.021" gradientUnits="userSpaceOnUse">
<stop stop-color="#F5F7FA"/>
<stop offset="1" stop-color="#C3CFE2"/>
</linearGradient>
<linearGradient id="paint20_linear_1_526" x1="308.982" y1="300.498" x2="405.482" y2="351.486" gradientUnits="userSpaceOnUse">
<stop stop-color="#F5F7FA"/>
<stop offset="1" stop-color="#C3CFE2"/>
</linearGradient>
<linearGradient id="paint21_linear_1_526" x1="308.863" y1="300.705" x2="405.363" y2="351.693" gradientUnits="userSpaceOnUse">
<stop stop-color="#F5F7FA"/>
<stop offset="1" stop-color="#C3CFE2"/>
</linearGradient>
<linearGradient id="paint22_linear_1_526" x1="308.715" y1="301.015" x2="405.23" y2="352.004" gradientUnits="userSpaceOnUse">
<stop stop-color="#F5F7FA"/>
<stop offset="1" stop-color="#C3CFE2"/>
</linearGradient>
<linearGradient id="paint23_linear_1_526" x1="308.581" y1="301.267" x2="405.067" y2="352.255" gradientUnits="userSpaceOnUse">
<stop stop-color="#F5F7FA"/>
<stop offset="1" stop-color="#C3CFE2"/>
</linearGradient>
<linearGradient id="paint24_linear_1_526" x1="308.433" y1="301.548" x2="404.948" y2="352.551" gradientUnits="userSpaceOnUse">
<stop stop-color="#F5F7FA"/>
<stop offset="1" stop-color="#C3CFE2"/>
</linearGradient>
<linearGradient id="paint25_linear_1_526" x1="308.314" y1="301.77" x2="404.83" y2="352.758" gradientUnits="userSpaceOnUse">
<stop stop-color="#F5F7FA"/>
<stop offset="1" stop-color="#C3CFE2"/>
</linearGradient>
<linearGradient id="paint26_linear_1_526" x1="308.167" y1="302.036" x2="404.668" y2="353.039" gradientUnits="userSpaceOnUse">
<stop stop-color="#F5F7FA"/>
<stop offset="1" stop-color="#C3CFE2"/>
</linearGradient>
<linearGradient id="paint27_linear_1_526" x1="311.083" y1="296.502" x2="407.583" y2="347.49" gradientUnits="userSpaceOnUse">
<stop stop-color="#F5F7FA"/>
<stop offset="1" stop-color="#C3CFE2"/>
</linearGradient>
<linearGradient id="paint28_linear_1_526" x1="310.994" y1="296.693" x2="407.494" y2="347.682" gradientUnits="userSpaceOnUse">
<stop stop-color="#F5F7FA"/>
<stop offset="1" stop-color="#C3CFE2"/>
</linearGradient>
<linearGradient id="paint29_linear_1_526" x1="310.847" y1="297.019" x2="407.332" y2="348.008" gradientUnits="userSpaceOnUse">
<stop stop-color="#F5F7FA"/>
<stop offset="1" stop-color="#C3CFE2"/>
</linearGradient>
<linearGradient id="paint30_linear_1_526" x1="310.697" y1="297.242" x2="407.183" y2="348.23" gradientUnits="userSpaceOnUse">
<stop stop-color="#F5F7FA"/>
<stop offset="1" stop-color="#C3CFE2"/>
</linearGradient>
<linearGradient id="paint31_linear_1_526" x1="310.565" y1="297.537" x2="407.065" y2="348.525" gradientUnits="userSpaceOnUse">
<stop stop-color="#F5F7FA"/>
<stop offset="1" stop-color="#C3CFE2"/>
</linearGradient>
<linearGradient id="paint32_linear_1_526" x1="310.388" y1="297.803" x2="406.902" y2="348.806" gradientUnits="userSpaceOnUse">
<stop stop-color="#F5F7FA"/>
<stop offset="1" stop-color="#C3CFE2"/>
</linearGradient>
<linearGradient id="paint33_linear_1_526" x1="310.253" y1="298.055" x2="406.753" y2="349.059" gradientUnits="userSpaceOnUse">
<stop stop-color="#F5F7FA"/>
<stop offset="1" stop-color="#C3CFE2"/>
</linearGradient>
<linearGradient id="paint34_linear_1_526" x1="311.394" y1="295.924" x2="407.894" y2="346.927" gradientUnits="userSpaceOnUse">
<stop stop-color="#F5F7FA"/>
<stop offset="1" stop-color="#C3CFE2"/>
</linearGradient>
<linearGradient id="paint35_linear_1_526" x1="312.178" y1="294.444" x2="408.664" y2="345.432" gradientUnits="userSpaceOnUse">
<stop stop-color="#F5F7FA"/>
<stop offset="1" stop-color="#C3CFE2"/>
</linearGradient>
<linearGradient id="paint36_linear_1_526" x1="309.306" y1="299.876" x2="405.821" y2="350.864" gradientUnits="userSpaceOnUse">
<stop stop-color="#F5F7FA"/>
<stop offset="1" stop-color="#C3CFE2"/>
</linearGradient>
<linearGradient id="paint37_linear_1_526" x1="307.265" y1="303.768" x2="403.75" y2="354.756" gradientUnits="userSpaceOnUse">
<stop stop-color="#F5F7FA"/>
<stop offset="1" stop-color="#C3CFE2"/>
</linearGradient>
<linearGradient id="paint38_linear_1_526" x1="313.391" y1="292.194" x2="409.876" y2="343.183" gradientUnits="userSpaceOnUse">
<stop stop-color="#F5F7FA"/>
<stop offset="1" stop-color="#C3CFE2"/>
</linearGradient>
<linearGradient id="paint39_linear_1_526" x1="313.23" y1="292.461" x2="409.73" y2="343.449" gradientUnits="userSpaceOnUse">
<stop stop-color="#F5F7FA"/>
<stop offset="1" stop-color="#C3CFE2"/>
</linearGradient>
<linearGradient id="paint40_linear_1_526" x1="313.096" y1="292.712" x2="409.596" y2="343.715" gradientUnits="userSpaceOnUse">
<stop stop-color="#F5F7FA"/>
<stop offset="1" stop-color="#C3CFE2"/>
</linearGradient>
<linearGradient id="paint41_linear_1_526" x1="312.948" y1="292.964" x2="409.448" y2="343.952" gradientUnits="userSpaceOnUse">
<stop stop-color="#F5F7FA"/>
<stop offset="1" stop-color="#C3CFE2"/>
</linearGradient>
<linearGradient id="paint42_linear_1_526" x1="312.83" y1="293.245" x2="409.33" y2="344.204" gradientUnits="userSpaceOnUse">
<stop stop-color="#F5F7FA"/>
<stop offset="1" stop-color="#C3CFE2"/>
</linearGradient>
<linearGradient id="paint43_linear_1_526" x1="312.71" y1="293.453" x2="409.196" y2="344.456" gradientUnits="userSpaceOnUse">
<stop stop-color="#F5F7FA"/>
<stop offset="1" stop-color="#C3CFE2"/>
</linearGradient>
<linearGradient id="paint44_linear_1_526" x1="312.562" y1="293.733" x2="409.047" y2="344.722" gradientUnits="userSpaceOnUse">
<stop stop-color="#F5F7FA"/>
<stop offset="1" stop-color="#C3CFE2"/>
</linearGradient>
<linearGradient id="paint45_linear_1_526" x1="312.4" y1="293.999" x2="408.915" y2="344.988" gradientUnits="userSpaceOnUse">
<stop stop-color="#F5F7FA"/>
<stop offset="1" stop-color="#C3CFE2"/>
</linearGradient>
<linearGradient id="paint46_linear_1_526" x1="309.128" y1="300.217" x2="405.613" y2="351.219" gradientUnits="userSpaceOnUse">
<stop stop-color="#F5F7FA"/>
<stop offset="1" stop-color="#C3CFE2"/>
</linearGradient>
<linearGradient id="paint47_linear_1_526" x1="277.64" y1="327.388" x2="306.544" y2="323.009" gradientUnits="userSpaceOnUse">
<stop offset="0.04" stop-color="white"/>
<stop offset="0.32" stop-color="#FCFDFE"/>
<stop offset="0.51" stop-color="#F3F7FB"/>
<stop offset="0.67" stop-color="#E4EDF7"/>
<stop offset="0.82" stop-color="#CEDEF0"/>
<stop offset="0.96" stop-color="#B3CBE8"/>
<stop offset="1" stop-color="#A8C4E5"/>
</linearGradient>
<linearGradient id="paint48_linear_1_526" x1="302.838" y1="343.937" x2="264.06" y2="343.937" gradientUnits="userSpaceOnUse">
<stop stop-color="#F5F7FA"/>
<stop offset="1" stop-color="#C3CFE2"/>
</linearGradient>
<linearGradient id="paint49_linear_1_526" x1="282.591" y1="261.912" x2="281.436" y2="309.674" gradientUnits="userSpaceOnUse">
<stop stop-color="#F5F7FA"/>
<stop offset="1" stop-color="#C3CFE2"/>
</linearGradient>
<linearGradient id="paint50_linear_1_526" x1="290.705" y1="334.952" x2="319.595" y2="330.575" gradientUnits="userSpaceOnUse">
<stop stop-color="#F5F7FA"/>
<stop offset="1" stop-color="#C3CFE2"/>
</linearGradient>
<linearGradient id="paint51_linear_1_526" x1="315.597" y1="291.676" x2="131.684" y2="393.49" gradientUnits="userSpaceOnUse">
<stop stop-color="#F5F7FA"/>
<stop offset="1" stop-color="#C3CFE2"/>
</linearGradient>
<linearGradient id="paint52_linear_1_526" x1="310.52" y1="300.512" x2="237.345" y2="366.686" gradientUnits="userSpaceOnUse">
<stop stop-color="#F5F7FA"/>
<stop offset="1" stop-color="#C3CFE2"/>
</linearGradient>
<linearGradient id="paint53_linear_1_526" x1="279.824" y1="265.302" x2="308.937" y2="265.302" gradientUnits="userSpaceOnUse">
<stop stop-color="#F5F7FA"/>
<stop offset="1" stop-color="#C3CFE2"/>
</linearGradient>
</defs>
</svg>
