<svg width="56" height="56" viewBox="0 0 56 56" fill="none" xmlns="http://www.w3.org/2000/svg">
<path d="M55.9977 4.09325L51.1296 11.1302L48.718 11.9341L34.5928 26.0593L34.634 27.5621L33.0463 27.6058L27.6051 33.047L26.8307 33.8201L25.2841 32.2736C24.933 31.9225 22.3367 29.3261 22.1781 29.1675L22.9512 28.3931L28.3924 22.9519L28.4362 21.5648L29.9389 21.4054L44.0641 7.2802L44.868 4.86858L51.9049 0.000488281L55.9977 4.09325Z" fill="url(#paint0_linear_1_61)"/>
<path d="M55.766 43.9801C54.67 39.0211 49.9486 35.6679 44.8574 36.3229L34.594 26.0596L33.0475 27.6062L43.7045 38.2632C43.9604 38.5191 44.3257 38.6318 44.6812 38.565C49.7145 37.6124 54.2523 41.7543 53.7863 46.8039L50.7754 43.7931C48.8516 41.8691 45.7192 41.8691 43.7932 43.7942C41.8716 45.7191 41.8716 48.8503 43.7932 50.7764L46.8031 53.7863C41.7436 54.2544 37.6138 49.7036 38.5653 44.6812C38.632 44.3257 38.5194 43.9604 38.2634 43.7045L22.9526 28.3937C17.6548 23.0948 12.885 18.325 12.2956 17.7367C12.0397 17.4808 11.6744 17.3681 11.319 17.4348C6.28671 18.3885 1.74783 14.2456 2.21385 9.19704L5.22374 12.2069C7.14866 14.1297 10.281 14.1297 12.2071 12.2058C14.1287 10.2809 14.1287 7.14972 12.2071 5.2236L9.19717 2.21371C14.2512 1.74659 18.3876 6.29204 17.435 11.3188C17.3683 11.6743 17.4809 12.0396 17.7368 12.2955L28.3938 22.9525L29.9404 21.406L19.6771 11.1426C20.0664 8.11415 19.0382 5.06709 16.8652 2.89498C14.1428 0.17056 10.1673 -0.6705 6.65431 0.540234C5.89199 0.803817 5.66559 1.77623 6.23749 2.34813L10.6595 6.76999C11.7302 7.84303 11.7302 9.58749 10.6606 10.6593C9.58763 11.7312 7.84316 11.7312 6.77024 10.6593L2.34838 6.23735C1.77965 5.66874 0.80516 5.88857 0.540483 6.65417C-0.66697 10.1595 0.166435 14.1373 2.89523 16.865C5.06734 19.037 8.11331 20.0663 11.1429 19.6769L19.805 28.339L1.60783 46.6334C-0.535944 48.7771 -0.535944 52.2474 1.60783 54.3921C3.7504 56.5348 7.22063 56.5379 9.36878 54.3899C12.0768 51.6677 24.6413 39.0364 27.5636 36.0976L36.3231 44.8571C35.9337 47.8856 36.9619 50.9327 39.135 53.1048C41.8573 55.8281 45.8329 56.6703 49.3458 55.4595C50.1071 55.196 50.3346 54.2235 49.7627 53.6516L45.3407 49.2298C44.27 48.1567 44.27 46.4123 45.3396 45.3404C46.4125 44.2686 48.157 44.2686 49.2288 45.3404L53.6518 49.7624C54.226 50.3366 55.1972 50.1058 55.4597 49.3456C56.0537 47.6198 56.1596 45.7649 55.766 43.9801V43.9801ZM17.5288 33.7287L19.1267 35.3266L6.26363 48.1886L4.70073 46.6257L17.5288 33.7287ZM5.48721 53.8113C4.60678 53.8113 3.77775 53.4679 3.15543 52.8445C1.86704 51.5571 1.86387 49.4715 3.15772 48.1776L3.15882 48.1765C4.75126 49.769 6.06808 51.0868 7.82337 52.8411C7.79165 52.8632 6.96032 53.8113 5.48721 53.8113ZM9.36648 51.2914L7.81123 49.7362L20.6732 36.8731L22.1946 38.3944L9.36648 51.2914ZM23.7367 36.8437C22.1192 35.2249 20.811 33.918 19.0711 32.1779L21.3503 29.8866L26.0161 34.5523L23.7367 36.8437Z" fill="#001042"/>
<defs>
<linearGradient id="paint0_linear_1_61" x1="22.1781" y1="2.4751" x2="58.0083" y2="5.89597" gradientUnits="userSpaceOnUse">
<stop stop-color="#0082F8"/>
<stop offset="1" stop-color="#1C40F2"/>
</linearGradient>
</defs>
</svg>
