<svg width="56" height="56" viewBox="0 0 56 56" fill="none" xmlns="http://www.w3.org/2000/svg">
<path d="M28 45.5C37.665 45.5 45.5 37.665 45.5 28C45.5 18.335 37.665 10.5 28 10.5C18.335 10.5 10.5 18.335 10.5 28C10.5 37.665 18.335 45.5 28 45.5Z" fill="url(#paint0_linear_1_632)"/>
<path d="M36.2031 19.25C34.105 19.25 21.7715 19.25 19.7969 19.25C19.1928 19.25 18.7031 19.7397 18.7031 20.3438V35.6562C18.7031 36.2602 19.1928 36.75 19.7969 36.75H36.2031C36.8072 36.75 37.2969 36.2602 37.2969 35.6562V20.3438C37.2969 19.7397 36.8072 19.25 36.2031 19.25ZM29.6406 21.4375V24.6305L28.6833 23.8646C28.2838 23.545 27.7162 23.545 27.3167 23.8646L26.3594 24.6305V21.4375H29.6406ZM24.1719 21.4375V26.9062C24.1719 27.3267 24.4129 27.7099 24.7918 27.892C25.1707 28.0742 25.6205 28.023 25.9489 27.7604L28 26.1195L30.0511 27.7604C30.3789 28.0225 30.8284 28.0745 31.2082 27.892C31.5871 27.7099 31.8281 27.3267 31.8281 26.9062V21.4375H35.1094V30.1875H20.8906V21.4375H24.1719ZM20.8906 34.5625V32.375H35.1094V34.5625H20.8906Z" fill="white"/>
<path d="M54.9062 26.9062H52.0372C51.4849 14.4794 41.519 4.51489 29.0938 3.96277V1.09375C29.0938 0.489672 28.6041 0 28 0C27.3959 0 26.9062 0.489672 26.9062 1.09375V3.96277C14.4793 4.515 4.515 14.481 3.96277 26.9062H1.09375C0.489672 26.9062 0 27.3959 0 28C0 28.604 0.489672 29.0938 1.09375 29.0938H3.96277C4.51511 41.5206 14.481 51.4851 26.9062 52.0372V54.9062C26.9062 55.5102 27.3959 56 28 56C28.6041 56 29.0938 55.5102 29.0938 54.9062V52.0372C41.5207 51.485 51.485 41.519 52.0372 29.0938H54.9062C55.5103 29.0938 56 28.604 56 28C56 27.3959 55.5103 26.9062 54.9062 26.9062ZM28 49.875C15.9381 49.875 6.125 40.0619 6.125 28C6.125 15.9381 15.9381 6.125 28 6.125C40.0619 6.125 49.875 15.9381 49.875 28C49.875 40.0619 40.0619 49.875 28 49.875Z" fill="#001042"/>
<defs>
<linearGradient id="paint0_linear_1_632" x1="10.5" y1="13.061" x2="47.5808" y2="16.6012" gradientUnits="userSpaceOnUse">
<stop stop-color="#0082F8"/>
<stop offset="1" stop-color="#1C40F2"/>
</linearGradient>
</defs>
</svg>
