<svg width="60" height="56" viewBox="0 0 60 56" fill="none" xmlns="http://www.w3.org/2000/svg">
<path d="M17.6445 16.4683H42.3543V39.5307H17.6445V16.4683Z" fill="url(#paint0_linear_1_51)"/>
<path d="M58.8281 41.1831H53.7894L52.8798 38.6363C52.7203 38.1897 52.2724 37.8884 51.768 37.8884H48.2333V35.683H56.4748C57.122 35.683 57.6466 35.1934 57.6466 34.5893C57.6466 33.9852 57.122 33.4955 56.4748 33.4955H48.2333V31.2901H52.9447C53.592 31.2901 54.1166 30.8004 54.1166 30.1964C54.1166 29.5923 53.592 29.1026 52.9447 29.1026H48.2333V26.8973H52.9447C53.592 26.8973 54.1166 26.4076 54.1166 25.8035C54.1166 25.1995 53.592 24.7098 52.9447 24.7098H48.2333V22.5043H56.4748C57.122 22.5043 57.6466 22.0147 57.6466 21.4106C57.6466 20.8065 57.122 20.3168 56.4748 20.3168H48.2333V18.1115H51.768C52.2724 18.1115 52.7202 17.8103 52.8798 17.3636L53.7894 14.8168H58.8281C59.4754 14.8168 60 14.3271 60 13.7231C60 13.119 59.4754 12.6293 58.8281 12.6293H52.9448C52.4405 12.6293 51.9927 12.9305 51.8331 13.3772L50.9235 15.924H48.2333V12.0758C48.2333 11.4717 47.7087 10.982 47.0614 10.982H42.9383V8.47142L45.667 7.62245C46.1455 7.47359 46.4684 7.05556 46.4684 6.58481V1.09375C46.4684 0.489672 45.9437 0 45.2965 0C44.6493 0 44.1246 0.489672 44.1246 1.09375V5.79655L41.3959 6.64552C40.9174 6.79437 40.5946 7.21241 40.5946 7.68316V10.9822H38.2317V3.29011C38.2317 2.68603 37.7071 2.19636 37.0598 2.19636C36.4126 2.19636 35.888 2.68603 35.888 3.29011V10.9821H33.525V6.58481C33.525 5.98073 33.0003 5.49106 32.3531 5.49106C31.7059 5.49106 31.1812 5.98073 31.1812 6.58481V10.9821H28.8184V6.58481C28.8184 5.98073 28.2938 5.49106 27.6465 5.49106C26.9993 5.49106 26.4746 5.98073 26.4746 6.58481V10.9821H24.1117V3.29011C24.1117 2.68603 23.587 2.19636 22.9398 2.19636C22.2926 2.19636 21.7679 2.68603 21.7679 3.29011V10.9821H19.4051V7.68305C19.4051 7.2123 19.0823 6.79427 18.6037 6.64541L15.875 5.79644V1.09375C15.875 0.489672 15.3504 0 14.7032 0C14.0559 0 13.5313 0.489672 13.5313 1.09375V6.58481C13.5313 7.05556 13.854 7.47348 14.3326 7.62245L17.0613 8.47142V10.9822H12.9382C12.291 10.9822 11.7663 11.4719 11.7663 12.076V15.9242H9.07652L8.16691 13.3774C8.00742 12.9309 7.55953 12.6295 7.05516 12.6295H1.17188C0.524648 12.6295 0 13.1192 0 13.7233C0 14.3274 0.524648 14.817 1.17188 14.817H6.21059L7.1202 17.3638C7.27969 17.8104 7.72758 18.1117 8.23195 18.1117H11.7667V20.3171H3.52512C2.87789 20.3171 2.35324 20.8067 2.35324 21.4108C2.35324 22.0149 2.87789 22.5046 3.52512 22.5046H11.7666V24.71H7.05516C6.40793 24.71 5.88328 25.1997 5.88328 25.8037C5.88328 26.4078 6.40793 26.8975 7.05516 26.8975H11.7666V29.1028H7.05516C6.40793 29.1028 5.88328 29.5925 5.88328 30.1966C5.88328 30.8007 6.40793 31.2903 7.05516 31.2903H11.7666V33.4958H3.52512C2.87789 33.4958 2.35324 33.9854 2.35324 34.5895C2.35324 35.1936 2.87789 35.6833 3.52512 35.6833H11.7666V37.8886H8.23184C7.72746 37.8886 7.27957 38.1898 7.12008 38.6365L6.21047 41.1833H1.17188C0.524648 41.1833 0 41.673 0 42.277C0 42.8811 0.524648 43.3708 1.17188 43.3708H7.05516C7.55953 43.3708 8.0073 43.0696 8.16691 42.6229L9.07652 40.0761H11.7667V43.9243C11.7667 44.5284 12.2913 45.0181 12.9386 45.0181H17.0617V47.5289L14.333 48.3779C13.8545 48.5267 13.5316 48.9448 13.5316 49.4155V54.9062C13.5316 55.5103 14.0563 56 14.7035 56C15.3507 56 15.8754 55.5103 15.8754 54.9062V50.2035L18.6041 49.3545C19.0826 49.2056 19.4054 48.7876 19.4054 48.3168V45.0178H21.7683V52.7098C21.7683 53.3139 22.2929 53.8035 22.9402 53.8035C23.5874 53.8035 24.112 53.3139 24.112 52.7098V45.0178H26.475V49.4151C26.475 50.0192 26.9996 50.5088 27.6469 50.5088C28.2941 50.5088 28.8187 50.0192 28.8187 49.4151V45.0178H31.1816V49.4151C31.1816 50.0192 31.7063 50.5088 32.3535 50.5088C33.0007 50.5088 33.5254 50.0192 33.5254 49.4151V45.0178H35.8883V52.7098C35.8883 53.3139 36.413 53.8035 37.0602 53.8035C37.7074 53.8035 38.2321 53.3139 38.2321 52.7098V45.0178H40.5949V48.3168C40.5949 48.7876 40.9177 49.2055 41.3962 49.3545L44.125 50.2035V54.9062C44.125 55.5103 44.6496 56 45.2968 56C45.9441 56 46.4687 55.5103 46.4687 54.9062V49.4152C46.4687 48.9444 46.146 48.5265 45.6674 48.3775L42.9387 47.5286V45.0178H47.0618C47.709 45.0178 48.2337 44.5281 48.2337 43.924V40.0758H50.9238L51.8334 42.6226C51.9929 43.0691 52.4408 43.3705 52.9452 43.3705H58.8281C59.4754 43.3705 60 42.8808 60 42.2767C60 41.6727 59.4754 41.1831 58.8281 41.1831V41.1831ZM45.8897 42.8304H14.1103V13.1696H45.8897V42.8304Z" fill="#001042"/>
<path d="M37.648 19.7681H22.3516C21.7043 19.7681 21.1797 20.2577 21.1797 20.8618V35.1385C21.1797 35.7426 21.7043 36.2323 22.3516 36.2323H37.648C38.2953 36.2323 38.8199 35.7426 38.8199 35.1385V20.8618C38.8199 20.2577 38.2953 19.7681 37.648 19.7681V19.7681ZM36.4762 34.0448H23.5234V21.9556H36.4762V34.0448Z" fill="white"/>
<defs>
<linearGradient id="paint0_linear_1_51" x1="17.6445" y1="18.1558" x2="43.7884" y2="20.8301" gradientUnits="userSpaceOnUse">
<stop stop-color="#0082F8"/>
<stop offset="1" stop-color="#1C40F2"/>
</linearGradient>
</defs>
</svg>
