<svg width="41" height="58" viewBox="0 0 41 58" fill="none" xmlns="http://www.w3.org/2000/svg">
<path d="M38.72 28.86C38.72 34.1724 37.1447 39.3655 34.1933 43.7826C31.2419 48.1997 27.0469 51.6424 22.1389 53.6754C17.2309 55.7084 11.8302 56.2403 6.61989 55.2039C1.40956 54.1675 -3.37644 51.6093 -7.13288 47.8529C-10.8893 44.0964 -13.4475 39.3104 -14.4839 34.1001C-15.5203 28.8898 -14.9884 23.4891 -12.9554 18.5811C-10.9224 13.6731 -7.47971 9.47813 -3.0626 6.52672C1.3545 3.57531 6.54761 2 11.86 2C15.3877 1.99869 18.881 2.69254 22.1404 4.04192C25.3998 5.39129 28.3614 7.36972 30.8558 9.86417C33.3503 12.3586 35.3287 15.3202 36.6781 18.5796C38.0275 21.839 38.7213 25.3323 38.72 28.86V28.86Z" stroke="url(#paint0_linear_1855_26275)" stroke-width="2.58" stroke-miterlimit="10"/>
<defs>
<linearGradient id="paint0_linear_1855_26275" x1="-15.2706" y1="28.8633" x2="38.2463" y2="28.8633" gradientUnits="userSpaceOnUse">
<stop stop-color="#1C40F2"/>
<stop offset="0.9833" stop-color="#03F8FB"/>
</linearGradient>
</defs>
</svg>
