<svg width="122" height="120" viewBox="0 0 122 120" fill="none" xmlns="http://www.w3.org/2000/svg">
<path opacity="0.8" d="M71.1904 1C78.7224 2.30962 85.9411 5.02341 92.4704 9L71.1904 1Z" fill="white" stroke="url(#paint0_linear_1855_200)"/>
<path opacity="0.8" d="M44.3799 2.48C44.9665 2.31333 45.5565 2.15333 46.1499 2L110.62 26.3C110.97 26.8 111.3 27.3 111.62 27.83L44.3799 2.48Z" fill="white" stroke="url(#paint1_linear_1855_200)"/>
<path opacity="0.8" d="M30.0996 8.67999C30.4896 8.43999 30.8896 8.20999 31.2896 7.98999L117.83 40.6C117.98 41.03 118.13 41.47 118.27 41.91L30.0996 8.67999Z" fill="white" stroke="url(#paint2_linear_1855_200)"/>
<path opacity="0.8" d="M19.8398 16.4001L20.7298 15.5901L120.73 53.2801C120.73 53.6801 120.82 54.0801 120.86 54.4801L19.8398 16.4001Z" fill="white" stroke="url(#paint3_linear_1855_200)"/>
<path opacity="0.8" d="M12.1904 25.1C12.4004 24.8 12.6304 24.5 12.8504 24.2L121 65C121 65.37 120.94 65.74 120.91 66.11L12.1904 25.1Z" fill="white" stroke="url(#paint4_linear_1855_200)"/>
<path opacity="0.8" d="M6.61035 34.5801C6.76035 34.2601 6.91035 33.9301 7.07035 33.5801L119.07 75.8101C118.98 76.1501 118.88 76.5001 118.78 76.8101L6.61035 34.5801Z" fill="white" stroke="url(#paint5_linear_1855_200)"/>
<path opacity="0.8" d="M2.87012 44.76C2.96012 44.41 3.06012 44.07 3.16012 43.76L115.38 86C115.23 86.33 115.07 86.65 114.91 87L2.87012 44.76Z" fill="white" stroke="url(#paint6_linear_1855_200)"/>
<path opacity="0.8" d="M1 55.64C1 55.27 1.06 54.9 1.1 54.53L109.8 95.53C109.58 95.8434 109.36 96.1434 109.14 96.43L1 55.64Z" fill="white" stroke="url(#paint7_linear_1855_200)"/>
<path opacity="0.8" d="M1.23035 67.3101C1.23035 66.9201 1.14035 66.5201 1.11035 66.1201L102.11 104.2L101.23 105.01L1.23035 67.3101Z" fill="white" stroke="url(#paint8_linear_1855_200)"/>
<path opacity="0.8" d="M4.14996 79.9999C3.99996 79.5599 3.85996 79.1199 3.70996 78.6799L91.89 111.92L90.69 112.61L4.14996 79.9999Z" fill="white" stroke="url(#paint9_linear_1855_200)"/>
<path opacity="0.8" d="M11.3604 94.3C11.0204 93.8 10.6804 93.3 10.3604 92.77L77.6003 118.12C77.0203 118.29 76.4303 118.45 75.8403 118.6L11.3604 94.3Z" fill="white" stroke="url(#paint10_linear_1855_200)"/>
<path opacity="0.8" d="M39.9547 116.122C39.032 115.777 38.1186 115.409 37.2151 115.019L42.6677 117.07C41.7567 116.775 40.8524 116.46 39.9556 116.122L39.7795 116.59L39.9547 116.122Z" fill="white" stroke="url(#paint11_linear_1855_200)"/>
<defs>
<linearGradient id="paint0_linear_1855_200" x1="71.0832" y1="5.0005" x2="92.2828" y2="5.0005" gradientUnits="userSpaceOnUse">
<stop stop-color="#1C40F2"/>
<stop offset="0.9833" stop-color="#03F8FB"/>
</linearGradient>
<linearGradient id="paint1_linear_1855_200" x1="44.0412" y1="14.9166" x2="111.027" y2="14.9166" gradientUnits="userSpaceOnUse">
<stop stop-color="#1C40F2"/>
<stop offset="0.9833" stop-color="#03F8FB"/>
</linearGradient>
<linearGradient id="paint2_linear_1855_200" x1="29.6555" y1="24.9521" x2="117.492" y2="24.9521" gradientUnits="userSpaceOnUse">
<stop stop-color="#1C40F2"/>
<stop offset="0.9833" stop-color="#03F8FB"/>
</linearGradient>
<linearGradient id="paint3_linear_1855_200" x1="19.331" y1="35.0375" x2="119.969" y2="35.0375" gradientUnits="userSpaceOnUse">
<stop stop-color="#1C40F2"/>
<stop offset="0.9833" stop-color="#03F8FB"/>
</linearGradient>
<linearGradient id="paint4_linear_1855_200" x1="11.6423" y1="45.1575" x2="120.041" y2="45.1575" gradientUnits="userSpaceOnUse">
<stop stop-color="#1C40F2"/>
<stop offset="0.9833" stop-color="#03F8FB"/>
</linearGradient>
<linearGradient id="paint5_linear_1855_200" x1="6.04388" y1="55.1978" x2="118.079" y2="55.1978" gradientUnits="userSpaceOnUse">
<stop stop-color="#1C40F2"/>
<stop offset="0.9833" stop-color="#03F8FB"/>
</linearGradient>
<linearGradient id="paint6_linear_1855_200" x1="2.3034" y1="65.3827" x2="114.388" y2="65.3827" gradientUnits="userSpaceOnUse">
<stop stop-color="#1C40F2"/>
<stop offset="0.9833" stop-color="#03F8FB"/>
</linearGradient>
<linearGradient id="paint7_linear_1855_200" x1="0.451967" y1="75.4826" x2="108.841" y2="75.4826" gradientUnits="userSpaceOnUse">
<stop stop-color="#1C40F2"/>
<stop offset="0.9833" stop-color="#03F8FB"/>
</linearGradient>
<linearGradient id="paint8_linear_1855_200" x1="0.601608" y1="85.5675" x2="101.22" y2="85.5675" gradientUnits="userSpaceOnUse">
<stop stop-color="#1C40F2"/>
<stop offset="0.9833" stop-color="#03F8FB"/>
</linearGradient>
<linearGradient id="paint9_linear_1855_200" x1="3.26579" y1="95.647" x2="91.1124" y2="95.647" gradientUnits="userSpaceOnUse">
<stop stop-color="#1C40F2"/>
<stop offset="0.9833" stop-color="#03F8FB"/>
</linearGradient>
<linearGradient id="paint10_linear_1855_200" x1="10.0217" y1="105.687" x2="77.0074" y2="105.687" gradientUnits="userSpaceOnUse">
<stop stop-color="#1C40F2"/>
<stop offset="0.9833" stop-color="#03F8FB"/>
</linearGradient>
<linearGradient id="paint11_linear_1855_200" x1="29.4124" y1="115.591" x2="50.602" y2="115.591" gradientUnits="userSpaceOnUse">
<stop stop-color="#1C40F2"/>
<stop offset="0.9833" stop-color="#03F8FB"/>
</linearGradient>
</defs>
</svg>
