<svg width="387" height="27" viewBox="0 0 387 27" fill="none" xmlns="http://www.w3.org/2000/svg">
<g clip-path="url(#clip0_1893_2295)">
<path d="M355.682 12.0456C347.271 11.3955 338.857 10.8569 330.43 10.2683C327.654 10.0689 324.876 9.99341 322.099 9.85595L304.012 8.96769C300.645 8.8018 297.293 8.61153 293.939 8.47081C292.975 8.44459 291.996 8.41798 291.06 8.39255L284.495 8.21414L254.634 7.40265C252.273 7.33849 249.897 7.27393 247.534 7.28409L229.876 7.03979C223.252 6.93415 216.628 6.79133 210.016 6.74802L177.862 6.53133C171.668 6.49936 165.461 6.40506 159.264 6.44743L127.2 6.66709C121.349 6.70646 115.514 6.70906 109.675 6.83554L76.5038 7.49624C70.5931 7.62077 64.6844 7.67096 58.784 7.94455L25.7464 9.52634L18.6055 9.853C13.8449 10.0708 9.09329 10.4872 4.35845 10.8172L3.46277 10.9045C2.91374 11.0218 2.41075 11.2602 2.00316 11.5963C1.35151 12.1147 0.96459 12.8344 0.925717 13.6003C0.908522 14.362 1.24037 15.1014 1.84953 15.6587C2.14765 15.9424 2.51104 16.1697 2.91626 16.3259C3.32149 16.4822 3.75956 16.5638 4.20223 16.5657C9.97604 16.1771 15.636 15.7358 21.3773 15.4827L37.3326 14.7508L54.7297 13.9838C57.0668 13.8738 59.4053 13.7141 61.7551 13.6664L88.8293 13.088L105.739 12.7417C108.06 12.7055 110.397 12.6203 112.717 12.6089L139.578 12.4462L155.861 12.3556C157.69 12.4053 159.508 12.3183 161.337 12.3309L190.335 12.5486L206.526 12.6787C208.455 12.7311 210.373 12.684 212.288 12.7237L242.229 13.2398C248.448 13.4088 254.656 13.4783 260.876 13.6597L292.55 14.5205C294.638 14.5772 296.724 14.7083 298.81 14.827L316.404 15.8258L329.539 16.5176C332.632 16.6884 335.737 16.9711 338.843 17.1919C347.974 17.874 357.09 18.5557 366.161 19.2981C368.476 19.485 370.79 19.6967 373.118 19.9087C375.447 20.1208 378.077 20.341 380.547 20.6561C380.93 20.7161 381.317 20.7886 381.708 20.8736C382.646 21.1025 383.646 21.019 384.51 20.6398C385.131 20.3438 385.636 19.8969 385.963 19.3543C386.289 18.8117 386.423 18.1973 386.348 17.587C386.272 16.9768 385.991 16.3975 385.538 15.9208C385.086 15.4441 384.482 15.091 383.801 14.905C382.131 14.5108 380.428 14.2324 378.709 14.0724L375.19 13.6668C372.935 13.4071 370.663 13.2462 368.392 13.0357C364.181 12.6485 359.924 12.3717 355.682 12.0456Z" fill="#FFB800"/>
</g>
<defs>
<clipPath id="clip0_1893_2295">
<rect width="385.448" height="16" fill="white" transform="translate(1.28125 0.493164) rotate(1.55668)"/>
</clipPath>
</defs>
</svg>
