<svg width="157" height="92" viewBox="0 0 157 92" fill="none" xmlns="http://www.w3.org/2000/svg">
<g opacity="0.2">
<path d="M73.405 73.5144C73.405 75.3401 71.9534 76.795 70.1317 76.795C68.3101 76.795 66.8301 75.3401 66.8301 73.5144C66.8301 71.7172 68.3101 70.2338 70.1317 70.2338C71.9534 70.2053 73.4334 71.6887 73.405 73.5144ZM90.141 73.5144C90.141 75.3401 88.6609 76.795 86.8678 76.795C85.0462 76.795 83.5946 75.3401 83.5946 73.5144C83.5946 71.7172 85.0462 70.2338 86.8678 70.2338C88.6609 70.2053 90.141 71.6887 90.141 73.5144Z" fill="#01A6FF"/>
<path d="M56.6968 55.3998C56.6968 57.2255 55.2452 58.6804 53.4236 58.7089C51.6304 58.7089 50.1504 57.2255 50.1504 55.3998C50.1504 53.6026 51.6304 52.1191 53.4236 52.1191C55.2452 52.1191 56.6968 53.574 56.6968 55.3998ZM73.4328 55.3998C73.4328 57.2255 71.9812 58.7089 70.1596 58.7089C68.338 58.7089 66.8864 57.2255 66.8864 55.3998C66.8864 53.6026 68.338 52.1191 70.1596 52.1191C71.9528 52.1191 73.4328 53.574 73.4328 55.3998ZM90.1404 55.3998C90.1404 57.2255 88.6604 58.7089 86.8672 58.6804C85.0456 58.6804 83.594 57.2255 83.594 55.3998C83.594 53.6026 85.0456 52.1191 86.8672 52.1191C88.6604 52.1191 90.1404 53.574 90.1404 55.3998ZM106.876 55.3998C106.876 57.2255 105.396 58.6804 103.603 58.7089C101.782 58.7089 100.33 57.2255 100.33 55.3998C100.33 53.6026 101.782 52.1191 103.603 52.1191C105.396 52.1191 106.876 53.574 106.876 55.3998Z" fill="#01A6FF"/>
<path d="M39.9898 37.8555C39.9898 39.6527 38.5382 41.1362 36.7166 41.1362C34.9234 41.1362 33.4434 39.6527 33.4434 37.8555C33.4434 36.0298 34.9234 34.5464 36.7166 34.5749C38.5382 34.5749 39.9898 36.0298 39.9898 37.8555ZM56.6973 37.8555C56.6973 39.6527 55.2458 41.1362 53.4241 41.1362C51.631 41.1362 50.1509 39.6527 50.1509 37.8555C50.1509 36.0298 51.631 34.5749 53.4241 34.5749C55.2458 34.5749 56.6973 36.0298 56.6973 37.8555ZM73.4334 37.8555C73.4334 39.6527 71.9533 41.1362 70.1602 41.1362C68.3386 41.1362 66.887 39.6527 66.887 37.8555C66.887 36.0298 68.3386 34.5749 70.1602 34.5749C71.9533 34.5749 73.4334 36.0298 73.4334 37.8555ZM90.141 37.8555C90.141 39.6527 88.6609 41.1362 86.8678 41.1362C85.0462 41.1362 83.5946 39.6527 83.5946 37.8555C83.5946 36.0298 85.0462 34.5749 86.8678 34.5749C88.6609 34.5749 90.141 36.0298 90.141 37.8555ZM106.877 37.8555C106.877 39.6527 105.397 41.1362 103.604 41.1362C101.782 41.1362 100.302 39.6527 100.302 37.8555C100.302 36.0298 101.754 34.5749 103.604 34.5749C105.368 34.5749 106.877 36.0298 106.877 37.8555ZM123.585 37.8555C123.585 39.6527 122.105 41.1362 120.311 41.1362C118.518 41.1362 117.038 39.6527 117.038 37.8555C117.038 36.0298 118.518 34.5749 120.311 34.5464C122.105 34.5749 123.585 36.0298 123.585 37.8555Z" fill="#01A6FF"/>
<path d="M23.2827 19.7408C23.2827 21.5665 21.8311 23.0499 20.0095 23.0499C18.2164 23.0499 16.7363 21.5951 16.7363 19.7408C16.7363 17.9436 18.2164 16.4602 20.0095 16.4602C21.8311 16.4316 23.2827 17.9151 23.2827 19.7408ZM39.9903 19.7408C39.9903 21.5665 38.5387 23.0499 36.7171 23.0499C34.924 23.0499 33.4439 21.5951 33.4439 19.7408C33.4439 17.9436 34.924 16.4602 36.7171 16.4602C38.5387 16.4316 39.9903 17.9151 39.9903 19.7408ZM56.6979 19.7408C56.6979 21.5665 55.2463 23.0499 53.4247 23.0499C51.6315 23.0499 50.1515 21.5951 50.1515 19.7408C50.1515 17.9436 51.6315 16.4602 53.4247 16.4602C55.2463 16.4316 56.6979 17.9151 56.6979 19.7408ZM73.4339 19.7408C73.4339 21.5665 71.9539 23.0499 70.1607 23.0499C68.3391 23.0499 66.8591 21.5951 66.8591 19.7408C66.8591 17.9436 68.3391 16.4602 70.1607 16.4602C71.9539 16.4316 73.4339 17.9151 73.4339 19.7408ZM90.1415 19.7408C90.1415 21.5665 88.6615 23.0499 86.8683 23.0499C85.0467 23.0499 83.5951 21.5951 83.5951 19.7408C83.5951 17.9436 85.0467 16.4602 86.8683 16.4602C88.6615 16.4316 90.1415 17.9151 90.1415 19.7408ZM106.878 19.7408C106.878 21.5665 105.397 23.0499 103.604 23.0499C101.783 23.0499 100.303 21.5951 100.303 19.7408C100.303 17.9436 101.783 16.4602 103.576 16.4602C105.397 16.4316 106.878 17.9151 106.878 19.7408ZM123.585 19.7408C123.585 21.5665 122.134 23.0214 120.312 23.0214C118.49 23.0214 117.039 21.5665 117.039 19.7123C117.039 17.9151 118.519 16.4316 120.312 16.4316C122.105 16.4316 123.585 17.9151 123.585 19.7408ZM140.293 19.7408C140.293 21.5665 138.841 23.0499 137.019 23.0499C135.226 23.0499 133.746 21.5951 133.746 19.7408C133.746 17.9436 135.226 16.4602 137.019 16.4602C138.841 16.4316 140.293 17.9151 140.293 19.7408Z" fill="#01A6FF"/>
<path d="M6.57487 3.30915C6.57487 5.10636 5.09481 6.58977 3.30167 6.58977C1.4516 6.58977 0 5.10636 0 3.30915C0 1.48341 1.4516 0 3.27321 0C5.09481 0 6.57487 1.48341 6.57487 3.30915ZM23.2825 3.30915C23.2825 5.10636 21.8309 6.58977 20.0092 6.58977C18.1876 6.58977 16.736 5.10636 16.736 3.30915C16.7076 1.48341 18.1876 0 20.0092 0C21.8309 0 23.2825 1.48341 23.2825 3.30915ZM39.99 3.30915C39.99 5.10636 38.5384 6.58977 36.7168 6.58977C34.9237 6.58977 33.4436 5.10636 33.4436 3.30915C33.4152 1.48341 34.8952 0 36.7168 0C38.5384 0 39.99 1.48341 39.99 3.30915ZM56.6976 3.30915C56.6976 5.10636 55.246 6.58977 53.4244 6.58977C51.6313 6.58977 50.1512 5.10636 50.1512 3.30915C50.1512 1.48341 51.6313 0 53.4244 0C55.246 0 56.6976 1.48341 56.6976 3.30915ZM73.4336 3.30915C73.4336 5.10636 71.9536 6.58977 70.132 6.58977C68.3104 6.58977 66.8588 5.10636 66.8588 3.30915C66.8588 1.48341 68.3104 0 70.132 0C71.9536 0 73.4336 1.48341 73.4336 3.30915ZM90.1412 3.30915C90.1412 5.10636 88.6612 6.58977 86.868 6.58977C85.0464 6.58977 83.5948 5.10636 83.5948 3.30915C83.5948 1.48341 85.0464 0 86.868 0C88.6612 0 90.1412 1.48341 90.1412 3.30915ZM106.877 3.30915C106.877 5.10636 105.397 6.58977 103.604 6.58977C101.782 6.58977 100.331 5.10636 100.331 3.30915C100.331 1.48341 101.782 0 103.633 0C105.397 0 106.877 1.48341 106.877 3.30915ZM123.585 3.30915C123.585 5.10636 122.133 6.58977 120.312 6.58977C118.518 6.58977 117.038 5.10636 117.038 3.30915C117.038 1.48341 118.518 0 120.312 0C122.105 0 123.585 1.48341 123.585 3.30915ZM140.292 3.30915C140.292 5.10636 138.841 6.58977 137.019 6.58977C135.226 6.58977 133.746 5.10636 133.746 3.30915C133.718 1.48341 135.198 0 136.991 0C138.841 0 140.292 1.48341 140.292 3.30915ZM157 3.30915C157 5.10636 155.548 6.58977 153.727 6.58977C151.905 6.58977 150.425 5.10636 150.425 3.30915C150.425 1.48341 151.905 0 153.727 0C155.548 0 157 1.48341 157 3.30915Z" fill="#01A6FF"/>
<path d="M81.773 88.6908C81.773 90.5165 80.2929 91.9999 78.4998 91.9999C76.6782 91.9999 75.2266 90.545 75.2266 88.6908C75.2266 86.8936 76.6782 85.4102 78.4998 85.4102C80.2929 85.4102 81.773 86.8936 81.773 88.6908Z" fill="#01A6FF"/>
</g>
</svg>
