<svg width="174" height="167" viewBox="0 0 174 167" fill="none" xmlns="http://www.w3.org/2000/svg">
<g opacity="0.2">
<path d="M164.917 45.9758C164.917 44.1995 163.47 42.7715 161.671 42.7715C159.872 42.7715 158.426 44.1995 158.426 45.9758C158.426 47.7522 159.872 49.1802 161.671 49.1802C163.47 49.1802 164.917 47.7522 164.917 45.9758Z" fill="#FF0766"/>
<path d="M150.843 53.4644C149.044 53.4644 147.598 54.8924 147.598 56.6687C147.598 58.4451 149.044 59.8731 150.843 59.8731C152.642 59.8731 154.089 58.4451 154.089 56.6687C154.089 54.8924 152.642 53.4644 150.843 53.4644Z" fill="#FF0766"/>
<path d="M169.258 78.0541C169.258 79.8304 170.704 81.2585 172.503 81.2585C173.032 81.2585 173.491 81.1191 173.914 80.9102C173.879 78.9248 173.808 76.9744 173.632 75.0587C173.279 74.9194 172.891 74.8497 172.468 74.8497C170.704 74.8149 169.258 76.2778 169.258 78.0541Z" fill="#FF0766"/>
<path d="M164.917 88.7122C164.917 86.9358 163.47 85.5078 161.671 85.5078C159.872 85.5078 158.426 86.9358 158.426 88.7122C158.426 90.4885 159.872 91.9165 161.671 91.9165C163.47 91.9514 164.917 90.4885 164.917 88.7122Z" fill="#FF0766"/>
<path d="M161.671 64.1567C159.872 64.1567 158.426 65.5848 158.426 67.3611C158.426 69.1374 159.872 70.5655 161.671 70.5655C163.47 70.5655 164.917 69.1374 164.917 67.3611C164.917 65.5848 163.47 64.1567 161.671 64.1567Z" fill="#FF0766"/>
<path d="M150.843 74.8149C149.044 74.8149 147.598 76.243 147.598 78.0193C147.598 79.7956 149.044 81.2237 150.843 81.2237C152.642 81.2237 154.089 79.7956 154.089 78.0193C154.089 76.2778 152.642 74.8149 150.843 74.8149Z" fill="#FF0766"/>
<path d="M170.951 59.455C170.563 57.9921 170.104 56.5641 169.646 55.1709C169.399 55.6237 169.258 56.1113 169.258 56.6686C169.258 57.8528 169.928 58.8977 170.951 59.455Z" fill="#FF0766"/>
<path d="M158.568 130.578C158.921 130.056 159.274 129.533 159.662 129.011C159.133 129.394 158.78 129.951 158.568 130.578Z" fill="#FF0766"/>
<path d="M158.426 110.097C158.426 111.874 159.872 113.302 161.671 113.302C163.47 113.302 164.917 111.874 164.917 110.097C164.917 108.321 163.47 106.893 161.671 106.893C159.872 106.893 158.426 108.356 158.426 110.097Z" fill="#FF0766"/>
<path d="M172.715 96.2355C172.644 96.2355 172.574 96.2007 172.503 96.2007C170.704 96.2007 169.258 97.6287 169.258 99.4051C169.258 100.798 170.175 101.982 171.41 102.4C171.939 100.38 172.362 98.3253 172.715 96.2355Z" fill="#FF0766"/>
<path d="M129.183 10.693C127.384 10.693 125.938 12.121 125.938 13.8974C125.938 15.6737 127.384 17.1017 129.183 17.1017C130.982 17.1017 132.428 15.6737 132.428 13.8974C132.428 12.121 130.982 10.693 129.183 10.693Z" fill="#FF0766"/>
<path d="M115.107 3.20406C115.107 4.98039 116.554 6.40843 118.353 6.40843C120.152 6.40843 121.598 4.98039 121.598 3.20406C121.598 3.16923 121.598 3.09957 121.598 3.06474C119.799 2.29848 117.965 1.56704 116.095 0.905273C115.495 1.49738 115.107 2.29848 115.107 3.20406Z" fill="#FF0766"/>
<path d="M107.525 10.693C105.726 10.693 104.279 12.121 104.279 13.8974C104.279 15.6737 105.726 17.1017 107.525 17.1017C109.324 17.1017 110.77 15.6737 110.77 13.8974C110.77 12.121 109.324 10.693 107.525 10.693Z" fill="#FF0766"/>
<path d="M129.183 53.4644C127.384 53.4644 125.938 54.8924 125.938 56.6688C125.938 58.4451 127.384 59.8731 129.183 59.8731C130.982 59.8731 132.428 58.4451 132.428 56.6688C132.428 54.8924 130.982 53.4644 129.183 53.4644Z" fill="#FF0766"/>
<path d="M150.843 38.4873C152.636 38.4873 154.089 37.0527 154.089 35.283C154.089 33.5133 152.636 32.0786 150.843 32.0786C149.051 32.0786 147.598 33.5133 147.598 35.283C147.598 37.0527 149.051 38.4873 150.843 38.4873Z" fill="#FF0766"/>
<path d="M129.183 38.4871C130.982 38.4871 132.428 37.0591 132.428 35.2828C132.428 33.5064 130.982 32.0784 129.183 32.0784C127.384 32.0784 125.938 33.5064 125.938 35.2828C125.938 37.0591 127.384 38.4871 129.183 38.4871Z" fill="#FF0766"/>
<path d="M118.353 49.1802C120.152 49.1802 121.598 47.7522 121.598 45.9758C121.598 44.1995 120.152 42.7715 118.353 42.7715C116.554 42.7715 115.107 44.1995 115.107 45.9758C115.107 47.7522 116.554 49.1802 118.353 49.1802Z" fill="#FF0766"/>
<path d="M143.258 45.9758C143.258 44.1995 141.812 42.7715 140.013 42.7715C138.214 42.7715 136.768 44.1995 136.768 45.9758C136.768 47.7522 138.214 49.1802 140.013 49.1802C141.812 49.1802 143.258 47.7522 143.258 45.9758Z" fill="#FF0766"/>
<path d="M118.353 27.794C120.152 27.794 121.598 26.366 121.598 24.5896C121.598 22.8133 120.152 21.3853 118.353 21.3853C116.554 21.3853 115.107 22.8133 115.107 24.5896C115.107 26.366 116.554 27.794 118.353 27.794Z" fill="#FF0766"/>
<path d="M136.768 24.5896C136.768 26.366 138.214 27.794 140.013 27.794C141.812 27.794 143.258 26.366 143.258 24.5896C143.258 22.8133 141.812 21.3853 140.013 21.3853C138.214 21.3853 136.768 22.8133 136.768 24.5896Z" fill="#FF0766"/>
<path d="M107.525 53.4644C105.726 53.4644 104.279 54.8924 104.279 56.6688C104.279 58.4451 105.726 59.8731 107.525 59.8731C109.324 59.8731 110.77 58.4451 110.77 56.6688C110.77 54.8924 109.324 53.4644 107.525 53.4644Z" fill="#FF0766"/>
<path d="M129.183 96.2008C127.384 96.2008 125.938 97.6288 125.938 99.4052C125.938 101.182 127.384 102.61 129.183 102.61C130.982 102.61 132.428 101.182 132.428 99.4052C132.428 97.6637 130.982 96.2008 129.183 96.2008Z" fill="#FF0766"/>
<path d="M129.183 74.8148C127.384 74.8148 125.938 76.2429 125.938 78.0192C125.938 79.7955 127.384 81.2236 129.183 81.2236C130.982 81.2236 132.428 79.7955 132.428 78.0192C132.428 76.2777 130.982 74.8148 129.183 74.8148Z" fill="#FF0766"/>
<path d="M121.598 88.7122C121.598 86.9358 120.152 85.5078 118.353 85.5078C116.554 85.5078 115.107 86.9358 115.107 88.7122C115.107 90.4885 116.554 91.9165 118.353 91.9165C120.152 91.9514 121.598 90.4885 121.598 88.7122Z" fill="#FF0766"/>
<path d="M140.013 85.5078C138.214 85.5078 136.768 86.9358 136.768 88.7122C136.768 90.4885 138.214 91.9166 140.013 91.9166C141.812 91.9166 143.258 90.4885 143.258 88.7122C143.258 86.9707 141.812 85.5078 140.013 85.5078Z" fill="#FF0766"/>
<path d="M118.353 64.1567C116.554 64.1567 115.107 65.5848 115.107 67.3611C115.107 69.1374 116.554 70.5655 118.353 70.5655C120.152 70.5655 121.598 69.1374 121.598 67.3611C121.598 65.5848 120.152 64.1567 118.353 64.1567Z" fill="#FF0766"/>
<path d="M140.013 64.1567C138.214 64.1567 136.768 65.5848 136.768 67.3611C136.768 69.1374 138.214 70.5655 140.013 70.5655C141.812 70.5655 143.258 69.1374 143.258 67.3611C143.258 65.5848 141.812 64.1567 140.013 64.1567Z" fill="#FF0766"/>
<path d="M107.525 96.2008C105.726 96.2008 104.279 97.6288 104.279 99.4052C104.279 101.182 105.726 102.61 107.525 102.61C109.324 102.61 110.77 101.182 110.77 99.4052C110.77 97.6637 109.324 96.2008 107.525 96.2008Z" fill="#FF0766"/>
<path d="M150.843 123.995C152.642 123.995 154.089 122.567 154.089 120.791C154.089 119.014 152.642 117.586 150.843 117.586C149.044 117.586 147.598 119.014 147.598 120.791C147.598 122.567 149.044 123.995 150.843 123.995Z" fill="#FF0766"/>
<path d="M129.183 123.995C130.982 123.995 132.428 122.567 132.428 120.791C132.428 119.014 130.982 117.586 129.183 117.586C127.384 117.586 125.938 119.014 125.938 120.791C125.938 122.567 127.384 123.995 129.183 123.995Z" fill="#FF0766"/>
<path d="M118.353 128.279C116.554 128.279 115.107 129.707 115.107 131.484C115.107 133.26 116.554 134.688 118.353 134.688C120.152 134.688 121.598 133.26 121.598 131.484C121.598 129.707 120.152 128.279 118.353 128.279Z" fill="#FF0766"/>
<path d="M143.258 131.484C143.258 129.707 141.812 128.279 140.013 128.279C138.214 128.279 136.768 129.707 136.768 131.484C136.768 133.26 138.214 134.688 140.013 134.688C141.812 134.688 143.258 133.26 143.258 131.484Z" fill="#FF0766"/>
<path d="M118.353 106.893C116.554 106.893 115.107 108.321 115.107 110.097C115.107 111.874 116.554 113.302 118.353 113.302C120.152 113.302 121.598 111.874 121.598 110.097C121.598 108.356 120.152 106.893 118.353 106.893Z" fill="#FF0766"/>
<path d="M140.013 106.893C138.214 106.893 136.768 108.321 136.768 110.097C136.768 111.874 138.214 113.302 140.013 113.302C141.812 113.302 143.258 111.874 143.258 110.097C143.258 108.356 141.812 106.893 140.013 106.893Z" fill="#FF0766"/>
<path d="M107.525 117.586C105.726 117.586 104.279 119.014 104.279 120.791C104.279 122.567 105.726 123.995 107.525 123.995C109.324 123.995 110.77 122.567 110.77 120.791C110.77 119.014 109.324 117.586 107.525 117.586Z" fill="#FF0766"/>
<path d="M150.843 102.645C152.642 102.645 154.089 101.217 154.089 99.4402C154.089 97.6639 152.642 96.2358 150.843 96.2358C149.044 96.2358 147.598 97.6639 147.598 99.4402C147.598 101.182 149.044 102.645 150.843 102.645Z" fill="#FF0766"/>
<path d="M115.107 152.869C115.107 154.646 116.554 156.074 118.353 156.074C120.152 156.074 121.598 154.646 121.598 152.869C121.598 151.093 120.152 149.665 118.353 149.665C116.554 149.665 115.107 151.093 115.107 152.869Z" fill="#FF0766"/>
<path d="M136.838 152.173C138.002 151.372 139.131 150.536 140.26 149.7C140.189 149.7 140.083 149.665 140.013 149.665C138.461 149.665 137.191 150.745 136.838 152.173Z" fill="#FF0766"/>
<path d="M107.525 160.358C105.726 160.358 104.279 161.786 104.279 163.562C104.279 164.433 104.632 165.234 105.232 165.826C107.066 165.443 108.865 164.99 110.629 164.502C110.735 164.224 110.77 163.91 110.77 163.597C110.77 161.786 109.324 160.358 107.525 160.358Z" fill="#FF0766"/>
<path d="M151.76 139.111C151.478 139.042 151.161 138.972 150.843 138.972C149.044 138.972 147.598 140.4 147.598 142.177C147.598 142.525 147.668 142.873 147.774 143.221C149.15 141.898 150.49 140.54 151.76 139.111Z" fill="#FF0766"/>
<path d="M129.183 145.381C130.982 145.381 132.428 143.953 132.428 142.177C132.428 140.4 130.982 138.972 129.183 138.972C127.384 138.972 125.938 140.4 125.938 142.177C125.938 143.953 127.384 145.381 129.183 145.381Z" fill="#FF0766"/>
<path d="M85.8626 10.693C84.0635 10.693 82.6172 12.121 82.6172 13.8974C82.6172 15.6737 84.0635 17.1017 85.8626 17.1017C87.6617 17.1017 89.1081 15.6737 89.1081 13.8974C89.1081 12.121 87.6617 10.693 85.8626 10.693Z" fill="#FF0766"/>
<path d="M78.3132 3.20437C78.3132 1.42803 76.8315 0 75.0677 0C73.2686 0 71.8223 1.42803 71.8223 3.20437C71.8223 4.9807 73.2686 6.40873 75.0677 6.40873C76.8315 6.40873 78.3132 4.9807 78.3132 3.20437Z" fill="#FF0766"/>
<path d="M99.9401 3.20437C99.9401 1.42803 98.4938 0 96.6947 0C94.8956 0 93.4492 1.42803 93.4492 3.20437C93.4492 4.9807 94.8956 6.40873 96.6947 6.40873C98.4938 6.40873 99.9401 4.9807 99.9401 3.20437Z" fill="#FF0766"/>
<path d="M107.525 38.4871C109.324 38.4871 110.77 37.0591 110.77 35.2828C110.77 33.5064 109.324 32.0784 107.525 32.0784C105.726 32.0784 104.279 33.5064 104.279 35.2828C104.279 37.0591 105.726 38.4871 107.525 38.4871Z" fill="#FF0766"/>
<path d="M85.8626 38.4871C87.6617 38.4871 89.1081 37.0591 89.1081 35.2828C89.1081 33.5064 87.6617 32.0784 85.8626 32.0784C84.0635 32.0784 82.6172 33.5064 82.6172 35.2828C82.6172 37.0591 84.0988 38.4871 85.8626 38.4871Z" fill="#FF0766"/>
<path d="M75.0683 49.1802C76.8674 49.1802 78.3138 47.7522 78.3138 45.9758C78.3138 44.1995 76.8674 42.7715 75.0683 42.7715C73.2692 42.7715 71.8229 44.1995 71.8229 45.9758C71.7876 47.7522 73.2692 49.1802 75.0683 49.1802Z" fill="#FF0766"/>
<path d="M96.6947 49.1802C98.4938 49.1802 99.9401 47.7522 99.9401 45.9758C99.9401 44.1995 98.4938 42.7715 96.6947 42.7715C94.8956 42.7715 93.4492 44.1995 93.4492 45.9758C93.4492 47.7522 94.9308 49.1802 96.6947 49.1802Z" fill="#FF0766"/>
<path d="M75.0683 27.794C76.8674 27.794 78.3138 26.366 78.3138 24.5896C78.3138 22.8133 76.8674 21.3853 75.0683 21.3853C73.2692 21.3853 71.8229 22.8133 71.8229 24.5896C71.7876 26.366 73.2692 27.794 75.0683 27.794Z" fill="#FF0766"/>
<path d="M96.6947 27.794C98.4938 27.794 99.9401 26.366 99.9401 24.5896C99.9401 22.8133 98.4938 21.3853 96.6947 21.3853C94.8956 21.3853 93.4492 22.8133 93.4492 24.5896C93.4492 26.366 94.9308 27.794 96.6947 27.794Z" fill="#FF0766"/>
<path d="M85.8626 96.2008C84.0635 96.2008 82.6172 97.6288 82.6172 99.4052C82.6172 101.182 84.0635 102.61 85.8626 102.61C87.6617 102.61 89.1081 101.182 89.1081 99.4052C89.1081 97.6637 87.6617 96.2008 85.8626 96.2008Z" fill="#FF0766"/>
<path d="M107.525 81.2585C109.324 81.2585 110.77 79.8305 110.77 78.0542C110.77 76.2778 109.324 74.8498 107.525 74.8498C105.726 74.8498 104.279 76.2778 104.279 78.0542C104.279 79.8305 105.726 81.2585 107.525 81.2585Z" fill="#FF0766"/>
<path d="M85.8626 74.8148C84.0635 74.8148 82.6172 76.2429 82.6172 78.0192C82.6172 79.7955 84.0635 81.2236 85.8626 81.2236C87.6617 81.2236 89.1081 79.7955 89.1081 78.0192C89.1081 76.2777 87.6617 74.8148 85.8626 74.8148Z" fill="#FF0766"/>
<path d="M75.0677 85.5078C73.2686 85.5078 71.8223 86.9358 71.8223 88.7122C71.8223 90.4885 73.2686 91.9166 75.0677 91.9166C76.8668 91.9166 78.3132 90.4885 78.3132 88.7122C78.3132 86.9707 76.8315 85.5078 75.0677 85.5078Z" fill="#FF0766"/>
<path d="M96.6947 85.5078C94.8956 85.5078 93.4492 86.9358 93.4492 88.7122C93.4492 90.4885 94.8956 91.9166 96.6947 91.9166C98.4938 91.9166 99.9401 90.4885 99.9401 88.7122C99.9401 86.9707 98.4938 85.5078 96.6947 85.5078Z" fill="#FF0766"/>
<path d="M75.0677 64.1567C73.2686 64.1567 71.8223 65.5848 71.8223 67.3611C71.8223 69.1374 73.2686 70.5655 75.0677 70.5655C76.8668 70.5655 78.3132 69.1374 78.3132 67.3611C78.3132 65.5848 76.8315 64.1567 75.0677 64.1567Z" fill="#FF0766"/>
<path d="M96.6947 64.1567C94.8956 64.1567 93.4492 65.5848 93.4492 67.3611C93.4492 69.1374 94.8956 70.5655 96.6947 70.5655C98.4938 70.5655 99.9401 69.1374 99.9401 67.3611C99.9401 65.5848 98.4938 64.1567 96.6947 64.1567Z" fill="#FF0766"/>
<path d="M64.2396 96.2007C62.4405 96.2007 60.9941 97.6287 60.9941 99.4051C60.9941 101.181 62.4405 102.609 64.2396 102.609C66.0387 102.609 67.485 101.181 67.485 99.4051C67.485 97.6635 66.0034 96.2007 64.2396 96.2007Z" fill="#FF0766"/>
<path d="M64.2396 74.8154C62.4405 74.8154 60.9941 76.2435 60.9941 78.0198C60.9941 79.7961 62.4405 81.2242 64.2396 81.2242C66.0387 81.2242 67.485 79.7961 67.485 78.0198C67.485 76.2783 66.0034 74.8154 64.2396 74.8154Z" fill="#FF0766"/>
<path d="M85.8626 59.8731C87.6617 59.8731 89.1081 58.4451 89.1081 56.6688C89.1081 54.8924 87.6617 53.4644 85.8626 53.4644C84.0635 53.4644 82.6172 54.8924 82.6172 56.6688C82.6172 58.4103 84.0988 59.8731 85.8626 59.8731Z" fill="#FF0766"/>
<path d="M85.8626 138.972C84.0635 138.972 82.6172 140.4 82.6172 142.176C82.6172 143.952 84.0635 145.38 85.8626 145.38C87.6617 145.38 89.1081 143.952 89.1081 142.176C89.1081 140.4 87.6617 138.972 85.8626 138.972Z" fill="#FF0766"/>
<path d="M85.8626 117.586C84.0635 117.586 82.6172 119.014 82.6172 120.791C82.6172 122.567 84.0635 123.995 85.8626 123.995C87.6617 123.995 89.1081 122.567 89.1081 120.791C89.1081 119.014 87.6617 117.586 85.8626 117.586Z" fill="#FF0766"/>
<path d="M75.0677 128.279C73.2686 128.279 71.8223 129.707 71.8223 131.484C71.8223 133.26 73.2686 134.688 75.0677 134.688C76.8668 134.688 78.3132 133.26 78.3132 131.484C78.3132 129.707 76.8315 128.279 75.0677 128.279Z" fill="#FF0766"/>
<path d="M96.6947 128.279C94.8956 128.279 93.4492 129.707 93.4492 131.484C93.4492 133.26 94.8956 134.688 96.6947 134.688C98.4938 134.688 99.9401 133.26 99.9401 131.484C99.9401 129.707 98.4938 128.279 96.6947 128.279Z" fill="#FF0766"/>
<path d="M75.0677 106.893C73.2686 106.893 71.8223 108.321 71.8223 110.097C71.8223 111.874 73.2686 113.302 75.0677 113.302C76.8668 113.302 78.3132 111.874 78.3132 110.097C78.3132 108.356 76.8315 106.893 75.0677 106.893Z" fill="#FF0766"/>
<path d="M96.6947 106.893C94.8956 106.893 93.4492 108.321 93.4492 110.097C93.4492 111.874 94.8956 113.302 96.6947 113.302C98.4938 113.302 99.9401 111.874 99.9401 110.097C99.9401 108.356 98.4938 106.893 96.6947 106.893Z" fill="#FF0766"/>
<path d="M64.2396 117.586C62.4405 117.586 60.9941 119.014 60.9941 120.791C60.9941 122.567 62.4405 123.995 64.2396 123.995C66.0387 123.995 67.485 122.567 67.485 120.791C67.485 119.014 66.0034 117.586 64.2396 117.586Z" fill="#FF0766"/>
<path d="M85.8626 160.358C84.0635 160.358 82.6172 161.786 82.6172 163.562C82.6172 165.338 84.0635 166.766 85.8626 166.766C87.6617 166.766 89.1081 165.338 89.1081 163.562C89.1081 161.786 87.6617 160.358 85.8626 160.358Z" fill="#FF0766"/>
<path d="M71.7891 152.869C71.7891 154.646 73.2354 156.074 75.0345 156.074C76.8336 156.074 78.28 154.646 78.28 152.869C78.28 151.093 76.8336 149.665 75.0345 149.665C73.2707 149.665 71.7891 151.093 71.7891 152.869Z" fill="#FF0766"/>
<path d="M93.4492 152.869C93.4492 154.646 94.8956 156.074 96.6947 156.074C98.4938 156.074 99.9401 154.646 99.9401 152.869C99.9401 151.093 98.4938 149.665 96.6947 149.665C94.9308 149.665 93.4492 151.093 93.4492 152.869Z" fill="#FF0766"/>
<path d="M64.2396 160.357C62.4405 160.357 60.9941 161.785 60.9941 163.562C60.9941 163.666 61.0294 163.736 61.0294 163.84C62.9696 164.433 64.9098 164.955 66.9206 165.408C67.2734 164.885 67.5203 164.258 67.5203 163.562C67.485 161.785 66.0034 160.357 64.2396 160.357Z" fill="#FF0766"/>
<path d="M107.525 145.381C109.324 145.381 110.77 143.953 110.77 142.177C110.77 140.4 109.324 138.972 107.525 138.972C105.726 138.972 104.279 140.4 104.279 142.177C104.279 143.953 105.726 145.381 107.525 145.381Z" fill="#FF0766"/>
<path d="M42.5794 10.6929C40.7803 10.6929 39.334 12.1209 39.334 13.8972C39.334 15.6736 40.7803 17.1016 42.5794 17.1016C44.3785 17.1016 45.8249 15.6736 45.8249 13.8972C45.8249 12.1209 44.3785 10.6929 42.5794 10.6929Z" fill="#FF0766"/>
<path d="M53.4091 6.40893C55.2083 6.40893 56.6546 4.98089 56.6546 3.20456C56.6546 2.57762 56.4782 2.02034 56.1607 1.53271C54.15 2.29898 52.1745 3.10007 50.2695 4.00565C50.6223 5.36402 51.8923 6.40893 53.4091 6.40893Z" fill="#FF0766"/>
<path d="M64.2396 38.4873C66.0387 38.4873 67.485 37.0593 67.485 35.283C67.485 33.5066 66.0387 32.0786 64.2396 32.0786C62.4405 32.0786 60.9941 33.5066 60.9941 35.283C60.9941 37.0593 62.4405 38.4873 64.2396 38.4873Z" fill="#FF0766"/>
<path d="M42.5794 38.4873C44.3718 38.4873 45.8249 37.0527 45.8249 35.283C45.8249 33.5133 44.3718 32.0786 42.5794 32.0786C40.787 32.0786 39.334 33.5133 39.334 35.283C39.334 37.0527 40.787 38.4873 42.5794 38.4873Z" fill="#FF0766"/>
<path d="M34.9948 45.9758C34.9948 44.1995 33.5485 42.7715 31.7494 42.7715C29.9502 42.7715 28.5039 44.1995 28.5039 45.9758C28.5039 47.7522 29.9502 49.1802 31.7494 49.1802C33.5485 49.1802 34.9948 47.7522 34.9948 45.9758Z" fill="#FF0766"/>
<path d="M53.4095 49.1802C55.2086 49.1802 56.655 47.7522 56.655 45.9758C56.655 44.1995 55.2086 42.7715 53.4095 42.7715C51.6104 42.7715 50.1641 44.1995 50.1641 45.9758C50.1641 47.7522 51.6104 49.1802 53.4095 49.1802Z" fill="#FF0766"/>
<path d="M28.5039 24.5896C28.5039 26.366 29.9502 27.794 31.7494 27.794C33.5485 27.794 34.9948 26.366 34.9948 24.5896C34.9948 22.8133 33.5485 21.3853 31.7494 21.3853C29.9502 21.3853 28.5039 22.8133 28.5039 24.5896Z" fill="#FF0766"/>
<path d="M53.4095 27.794C55.2086 27.794 56.655 26.366 56.655 24.5896C56.655 22.8133 55.2086 21.3853 53.4095 21.3853C51.6104 21.3853 50.1641 22.8133 50.1641 24.5896C50.1641 26.366 51.6104 27.794 53.4095 27.794Z" fill="#FF0766"/>
<path d="M64.2396 17.1016C66.0387 17.1016 67.485 15.6736 67.485 13.8972C67.485 12.1209 66.0387 10.6929 64.2396 10.6929C62.4405 10.6929 60.9941 12.1209 60.9941 13.8972C60.9941 15.6736 62.4405 17.1016 64.2396 17.1016Z" fill="#FF0766"/>
<path d="M42.5794 96.2007C40.7803 96.2007 39.334 97.6287 39.334 99.4051C39.334 101.181 40.7803 102.609 42.5794 102.609C44.3785 102.609 45.8249 101.181 45.8249 99.4051C45.8249 97.6635 44.3785 96.2007 42.5794 96.2007Z" fill="#FF0766"/>
<path d="M42.5794 74.8154C40.7803 74.8154 39.334 76.2435 39.334 78.0198C39.334 79.7961 40.7803 81.2242 42.5794 81.2242C44.3785 81.2242 45.8249 79.7961 45.8249 78.0198C45.8249 76.2783 44.3785 74.8154 42.5794 74.8154Z" fill="#FF0766"/>
<path d="M31.7494 85.5078C29.9502 85.5078 28.5039 86.9358 28.5039 88.7122C28.5039 90.4885 29.9502 91.9166 31.7494 91.9166C33.5485 91.9166 34.9948 90.4885 34.9948 88.7122C34.9948 86.9707 33.5485 85.5078 31.7494 85.5078Z" fill="#FF0766"/>
<path d="M53.4095 85.5078C51.6104 85.5078 50.1641 86.9358 50.1641 88.7122C50.1641 90.4885 51.6104 91.9166 53.4095 91.9166C55.2086 91.9166 56.655 90.4885 56.655 88.7122C56.655 86.9707 55.1733 85.5078 53.4095 85.5078Z" fill="#FF0766"/>
<path d="M31.7494 64.1567C29.9502 64.1567 28.5039 65.5848 28.5039 67.3611C28.5039 69.1374 29.9502 70.5655 31.7494 70.5655C33.5485 70.5655 34.9948 69.1374 34.9948 67.3611C34.9948 65.5848 33.5485 64.1567 31.7494 64.1567Z" fill="#FF0766"/>
<path d="M53.4095 64.1567C51.6104 64.1567 50.1641 65.5848 50.1641 67.3611C50.1641 69.1374 51.6104 70.5655 53.4095 70.5655C55.2086 70.5655 56.655 69.1374 56.655 67.3611C56.655 65.5848 55.1733 64.1567 53.4095 64.1567Z" fill="#FF0766"/>
<path d="M20.9193 96.2007C19.1202 96.2007 17.6738 97.6287 17.6738 99.4051C17.6738 101.181 19.1202 102.609 20.9193 102.609C22.7184 102.609 24.1647 101.181 24.1647 99.4051C24.1647 97.6635 22.7184 96.2007 20.9193 96.2007Z" fill="#FF0766"/>
<path d="M20.9193 74.8154C19.1202 74.8154 17.6738 76.2435 17.6738 78.0198C17.6738 79.7961 19.1202 81.2242 20.9193 81.2242C22.7184 81.2242 24.1647 79.7961 24.1647 78.0198C24.1647 76.2783 22.7184 74.8154 20.9193 74.8154Z" fill="#FF0766"/>
<path d="M64.2396 59.8731C66.0387 59.8731 67.485 58.4451 67.485 56.6687C67.485 54.8924 66.0387 53.4644 64.2396 53.4644C62.4405 53.4644 60.9941 54.8924 60.9941 56.6687C60.9941 58.4102 62.4405 59.8731 64.2396 59.8731Z" fill="#FF0766"/>
<path d="M42.5794 59.8731C44.3785 59.8731 45.8249 58.4451 45.8249 56.6687C45.8249 54.8924 44.3785 53.4644 42.5794 53.4644C40.7803 53.4644 39.334 54.8924 39.334 56.6687C39.334 58.4102 40.7803 59.8731 42.5794 59.8731Z" fill="#FF0766"/>
<path d="M42.5794 117.586C40.7803 117.586 39.334 119.014 39.334 120.791C39.334 122.567 40.7803 123.995 42.5794 123.995C44.3785 123.995 45.8249 122.567 45.8249 120.791C45.8249 119.014 44.3785 117.586 42.5794 117.586Z" fill="#FF0766"/>
<path d="M31.7494 128.279C29.9502 128.279 28.5039 129.707 28.5039 131.484C28.5039 133.26 29.9502 134.688 31.7494 134.688C33.5485 134.688 34.9948 133.26 34.9948 131.484C34.9948 129.707 33.5485 128.279 31.7494 128.279Z" fill="#FF0766"/>
<path d="M53.4095 128.279C51.6104 128.279 50.1641 129.707 50.1641 131.484C50.1641 133.26 51.6104 134.688 53.4095 134.688C55.2086 134.688 56.655 133.26 56.655 131.484C56.655 129.707 55.1733 128.279 53.4095 128.279Z" fill="#FF0766"/>
<path d="M31.7494 106.893C29.9502 106.893 28.5039 108.321 28.5039 110.097C28.5039 111.874 29.9502 113.302 31.7494 113.302C33.5485 113.302 34.9948 111.874 34.9948 110.097C34.9948 108.356 33.5485 106.893 31.7494 106.893Z" fill="#FF0766"/>
<path d="M53.4095 106.893C51.6104 106.893 50.1641 108.321 50.1641 110.097C50.1641 111.874 51.6104 113.302 53.4095 113.302C55.2086 113.302 56.655 111.874 56.655 110.097C56.655 108.356 55.1733 106.893 53.4095 106.893Z" fill="#FF0766"/>
<path d="M23.9175 140.992C23.6353 140.261 23.0356 139.669 22.3301 139.32C22.8592 139.878 23.3884 140.435 23.9175 140.992Z" fill="#FF0766"/>
<path d="M24.1647 120.791C24.1647 119.014 22.7184 117.586 20.9193 117.586C19.1202 117.586 17.6738 119.014 17.6738 120.791C17.6738 122.567 19.1202 123.995 20.9193 123.995C22.7184 123.995 24.1647 122.567 24.1647 120.791Z" fill="#FF0766"/>
<path d="M50.1641 152.869C50.1641 154.645 51.6104 156.073 53.4095 156.073C55.2086 156.073 56.655 154.645 56.655 152.869C56.655 151.093 55.2086 149.665 53.4095 149.665C51.6104 149.665 50.1641 151.093 50.1641 152.869Z" fill="#FF0766"/>
<path d="M64.2396 145.381C66.0387 145.381 67.485 143.953 67.485 142.177C67.485 140.4 66.0387 138.972 64.2396 138.972C62.4405 138.972 60.9941 140.4 60.9941 142.177C60.9941 143.953 62.4405 145.381 64.2396 145.381Z" fill="#FF0766"/>
<path d="M42.5794 145.381C44.3785 145.381 45.8249 143.953 45.8249 142.177C45.8249 140.4 44.3785 138.972 42.5794 138.972C40.7803 138.972 39.334 140.4 39.334 142.177C39.334 143.953 40.7803 145.381 42.5794 145.381Z" fill="#FF0766"/>
<path d="M20.9193 38.4873C22.7184 38.4873 24.1647 37.0593 24.1647 35.283C24.1647 33.5066 22.7184 32.0786 20.9193 32.0786C19.1202 32.0786 17.6738 33.5066 17.6738 35.283C17.6738 37.0593 19.1202 38.4873 20.9193 38.4873Z" fill="#FF0766"/>
<path d="M10.0898 49.1801C11.8889 49.1801 13.3353 47.7521 13.3353 45.9758C13.3353 44.1994 11.8889 42.7714 10.0898 42.7714C9.87817 42.7714 9.70178 42.8062 9.49012 42.8411C8.71404 44.3736 7.93795 45.9409 7.23242 47.5083C7.79685 48.4835 8.85514 49.1801 10.0898 49.1801Z" fill="#FF0766"/>
<path d="M1.37695 97.002C1.62389 98.2907 1.87083 99.5794 2.15304 100.868C2.3647 100.45 2.5058 99.9625 2.5058 99.4401C2.5058 98.43 2.04721 97.5941 1.37695 97.002Z" fill="#FF0766"/>
<path d="M2.50464 78.0543C2.50464 76.6263 1.55217 75.4421 0.282213 75.0241C0.10583 77.0443 0 79.0992 0 81.1542C1.44634 80.8059 2.50464 79.552 2.50464 78.0543Z" fill="#FF0766"/>
<path d="M10.0892 91.9517C11.8883 91.9517 13.3346 90.5237 13.3346 88.7473C13.3346 86.971 11.8883 85.543 10.0892 85.543C8.29009 85.543 6.84375 86.971 6.84375 88.7473C6.84375 90.4888 8.29009 91.9517 10.0892 91.9517Z" fill="#FF0766"/>
<path d="M6.84375 67.3611C6.84375 69.1374 8.29009 70.5655 10.0892 70.5655C11.8883 70.5655 13.3346 69.1374 13.3346 67.3611C13.3346 65.5848 11.8883 64.1567 10.0892 64.1567C8.29009 64.1567 6.84375 65.5848 6.84375 67.3611Z" fill="#FF0766"/>
<path d="M20.9193 59.8731C22.7184 59.8731 24.1647 58.4451 24.1647 56.6687C24.1647 54.8924 22.7184 53.4644 20.9193 53.4644C19.1202 53.4644 17.6738 54.8924 17.6738 56.6687C17.6738 58.4102 19.1202 59.8731 20.9193 59.8731Z" fill="#FF0766"/>
<path d="M6.84375 110.097C6.84375 111.874 8.29009 113.302 10.0892 113.302C11.8883 113.302 13.3346 111.874 13.3346 110.097C13.3346 108.321 11.8883 106.893 10.0892 106.893C8.29009 106.893 6.84375 108.356 6.84375 110.097Z" fill="#FF0766"/>
</g>
</svg>
