<svg width="660" height="361" viewBox="0 0 660 361" fill="none" xmlns="http://www.w3.org/2000/svg">
<path opacity="0.4" d="M827.103 151.274C828.798 142.112 821.585 133.933 814.884 127.452C794.429 107.69 773.45 88.4805 751.945 69.8234C727.979 49.0463 703.07 28.7814 674.393 15.2669C645.716 1.75237 612.585 -4.5535 581.984 3.69263C548.341 12.7203 520.997 38.6039 504.647 69.3248C488.296 100.046 482.066 135.24 480.612 170.017C479.496 196.385 480.612 224.384 467.263 247.142C447.401 281.029 402.508 290.919 363.375 287.995C324.242 285.072 285.607 272.824 246.501 276.192C194.261 280.706 146.422 314.405 120.706 360.163C94.9893 405.921 61.6429 483.033 104.826 512.824C108.621 515.451 375.312 725 375.312 725L829 155.047" fill="url(#paint0_linear_1865_48204)"/>
<path opacity="0.4" d="M965 346.326C946.962 326.286 715.7 120.637 689.722 113.414C663.744 106.191 633.768 110.157 613.482 127.915C595.322 143.811 586.098 169.013 565.524 181.62C543.521 195.102 515.096 190.216 490.668 181.908C466.241 173.6 441.747 162.156 416.001 163.807C373.768 166.521 341.877 203.432 322.454 241.052C311.06 263.142 301.526 287.269 282.767 303.576C257.709 325.377 221.355 328.512 188.368 324.623C149.611 320.115 108.983 307.763 73.0172 322.762C54.7352 330.384 39.886 344.397 26.8749 359.319C14.207 373.864 2.51364 390.481 0 409.612L123.534 617L965 346.326Z" fill="url(#paint1_linear_1865_48204)"/>
<defs>
<linearGradient id="paint0_linear_1865_48204" x1="829" y1="571.411" x2="22.8434" y2="435.742" gradientUnits="userSpaceOnUse">
<stop stop-color="#001DAC"/>
<stop offset="1" stop-color="#000F57"/>
</linearGradient>
<linearGradient id="paint1_linear_1865_48204" x1="-4.86077" y1="363.531" x2="956.491" y2="363.531" gradientUnits="userSpaceOnUse">
<stop stop-color="#1C40F2"/>
<stop offset="0.9833" stop-color="#03F8FB"/>
</linearGradient>
</defs>
</svg>
