<svg width="13" height="13" viewBox="0 0 13 13" fill="none" xmlns="http://www.w3.org/2000/svg">
<path d="M6.34 12.68C5.08606 12.68 3.86029 12.3082 2.81769 11.6115C1.77508 10.9149 0.962464 9.9247 0.482604 8.76622C0.00274435 7.60774 -0.122805 6.33297 0.121825 5.10313C0.366455 3.87329 0.970268 2.74361 1.85693 1.85695C2.7436 0.970283 3.87328 0.366455 5.10312 0.121825C6.33296 -0.122805 7.60772 0.00274435 8.7662 0.482604C9.92469 0.962464 10.9149 1.77508 11.6115 2.81769C12.3082 3.86029 12.68 5.08608 12.68 6.34001C12.68 8.02148 12.012 9.63408 10.8231 10.8231C9.63408 12.012 8.02147 12.68 6.34 12.68V12.68ZM6.34 2.47C5.57458 2.47 4.82636 2.69698 4.18994 3.12222C3.55352 3.54746 3.0575 4.15187 2.76459 4.85902C2.47168 5.56617 2.39502 6.34429 2.54434 7.095C2.69367 7.84571 3.06225 8.53528 3.60348 9.07651C4.14471 9.61774 4.83428 9.98632 5.58499 10.1356C6.3357 10.285 7.11383 10.2083 7.82098 9.91542C8.52813 9.62251 9.13253 9.12648 9.55777 8.49007C9.98301 7.85365 10.21 7.10542 10.21 6.34001C10.21 5.31362 9.80227 4.32927 9.07651 3.6035C8.35074 2.87773 7.36638 2.47 6.34 2.47Z" fill="url(#paint0_linear_1855_26276)"/>
<defs>
<linearGradient id="paint0_linear_1855_26276" x1="-0.06387" y1="6.34079" x2="12.5682" y2="6.34079" gradientUnits="userSpaceOnUse">
<stop stop-color="#1C40F2"/>
<stop offset="0.9833" stop-color="#03F8FB"/>
</linearGradient>
</defs>
</svg>
