<svg width="15" height="15" viewBox="0 0 15 15" fill="none" xmlns="http://www.w3.org/2000/svg">
<path d="M1.10053 13.8513L1.10053 13.8513L1.09363 13.8513C1.01472 13.8516 0.936522 13.8364 0.863516 13.8064C0.792461 13.7773 0.727676 13.7348 0.672701 13.6812C0.600014 13.6036 0.54781 13.509 0.520854 13.406C0.493543 13.3016 0.493054 13.192 0.519408 13.0875L3.76794 0.942991C3.79608 0.842658 3.84992 0.751335 3.92414 0.678061C3.99881 0.604354 4.09145 0.551531 4.19288 0.524828L4.1929 0.524913L4.20192 0.522358C4.3032 0.493653 4.41035 0.492569 4.51219 0.519218C4.61401 0.545863 4.70685 0.599267 4.7811 0.673917L4.78184 0.674658L13.6719 9.57466L13.6722 9.57504C13.7467 9.64938 13.8002 9.74201 13.8276 9.84363C13.8549 9.94524 13.855 10.0522 13.828 10.1539C13.8009 10.2556 13.7476 10.3484 13.6733 10.4229C13.5992 10.4973 13.5069 10.551 13.4055 10.5785C13.4053 10.5786 13.4051 10.5786 13.4049 10.5787L1.25639 13.8283L1.25636 13.8282L1.24551 13.8313C1.19838 13.8451 1.14954 13.8518 1.10053 13.8513ZM5.27887 2.87746L4.66682 2.2664L4.44268 3.10172L2.17269 11.5617L1.94816 12.3986L2.78505 12.1743L11.255 9.90426L12.0923 9.67987L11.4789 9.06746L5.27887 2.87746Z" fill="white" stroke="url(#paint0_linear_1855_26278)"/>
<defs>
<linearGradient id="paint0_linear_1855_26278" x1="-0.0722727" y1="7.17657" x2="14.2217" y2="7.17657" gradientUnits="userSpaceOnUse">
<stop stop-color="#1C40F2"/>
<stop offset="0.9833" stop-color="#03F8FB"/>
</linearGradient>
</defs>
</svg>
