<svg width="70" height="32" viewBox="0 0 70 32" fill="none" xmlns="http://www.w3.org/2000/svg">
<g opacity="0.8">
<path opacity="0.8" d="M57.3498 31.15C53.9998 31.15 52.3498 28.15 50.9298 25.46C49.5998 23 48.3498 20.69 46.0598 20.69C43.7698 20.69 42.5098 23 41.1898 25.45C39.7498 28.12 38.1098 31.15 34.7598 31.15C31.4098 31.15 29.7598 28.15 28.3398 25.45C26.9998 23 25.7598 20.69 23.4698 20.69C21.1798 20.69 19.9198 23 18.5998 25.46C17.1598 28.13 15.5298 31.15 12.1798 31.15C8.82978 31.15 7.17978 28.15 5.74978 25.45C4.42978 23 3.17978 20.69 0.879777 20.69C0.66128 20.6668 0.45911 20.5635 0.31219 20.4001C0.165269 20.2367 0.0839844 20.0248 0.0839844 19.805C0.0839844 19.5853 0.165269 19.3733 0.31219 19.21C0.45911 19.0466 0.66128 18.9433 0.879777 18.92C4.23978 18.92 5.87978 21.92 7.30978 24.61C8.62978 27.07 9.87978 29.38 12.1798 29.38C14.4798 29.38 15.7198 27.07 17.0398 24.61C18.4898 21.94 20.1198 18.92 23.4698 18.92C26.8198 18.92 28.4698 21.92 29.8898 24.61C31.2198 27.07 32.4698 29.38 34.7598 29.38C37.0498 29.38 38.3098 27.07 39.6298 24.61C41.0698 21.94 42.7098 18.92 46.0598 18.92C49.4098 18.92 51.0598 21.92 52.4798 24.61C53.8098 27.07 55.0598 29.38 57.3498 29.38C59.6398 29.38 60.8998 27.07 62.2198 24.61C63.6598 21.94 65.2898 18.92 68.6498 18.92C68.8683 18.9433 69.0704 19.0466 69.2174 19.21C69.3643 19.3733 69.4456 19.5853 69.4456 19.805C69.4456 20.0248 69.3643 20.2367 69.2174 20.4001C69.0704 20.5635 68.8683 20.6668 68.6498 20.69C66.3498 20.69 65.0998 23 63.7798 25.45C62.3398 28.13 60.6998 31.15 57.3498 31.15Z" fill="url(#paint0_linear_1865_37983)"/>
<path opacity="0.8" d="M34.7598 12.23C31.4098 12.23 29.7598 9.23 28.3398 6.54C26.9998 4.09 25.7598 1.77 23.4698 1.77C21.1798 1.77 19.9198 4.09 18.5998 6.54C17.1598 9.21 15.5298 12.23 12.1798 12.23C8.82978 12.23 7.17978 9.23 5.74978 6.54C4.42978 4.09 3.17978 1.77 0.879777 1.77C0.66128 1.74674 0.45911 1.64348 0.31219 1.48009C0.165269 1.3167 0.0839844 1.10473 0.0839844 0.885C0.0839844 0.665268 0.165269 0.453304 0.31219 0.289914C0.45911 0.126523 0.66128 0.0232588 0.879777 0C4.23978 0 5.87978 3 7.30978 5.7C8.62978 8.15 9.87978 10.46 12.1798 10.46C14.4798 10.46 15.7198 8.15 16.9998 5.7C18.4898 3 20.1198 0 23.4698 0C26.8198 0 28.4698 3 29.8898 5.7C31.2198 8.15 32.4698 10.46 34.7598 10.46C34.8839 10.4468 35.0094 10.4598 35.1282 10.4983C35.2469 10.5367 35.3563 10.5997 35.4491 10.6832C35.5419 10.7667 35.6161 10.8687 35.6669 10.9827C35.7177 11.0967 35.744 11.2202 35.744 11.345C35.744 11.4698 35.7177 11.5933 35.6669 11.7073C35.6161 11.8213 35.5419 11.9233 35.4491 12.0068C35.3563 12.0903 35.2469 12.1533 35.1282 12.1917C35.0094 12.2302 34.8839 12.2432 34.7598 12.23Z" fill="url(#paint1_linear_1865_37983)"/>
</g>
<defs>
<linearGradient id="paint0_linear_1865_37983" x1="-0.265395" y1="25.0358" x2="68.834" y2="25.0358" gradientUnits="userSpaceOnUse">
<stop stop-color="#1C40F2"/>
<stop offset="0.9833" stop-color="#03F8FB"/>
</linearGradient>
<linearGradient id="paint1_linear_1865_37983" x1="-0.0956374" y1="6.11826" x2="35.4295" y2="6.11826" gradientUnits="userSpaceOnUse">
<stop stop-color="#1C40F2"/>
<stop offset="0.9833" stop-color="#03F8FB"/>
</linearGradient>
</defs>
</svg>
