<svg width="133" height="135" viewBox="0 0 133 135" fill="none" xmlns="http://www.w3.org/2000/svg">
<g opacity="0.15">
<path d="M65.678 128.638C66.1144 129.167 66.3335 129.875 66.2663 130.584C66.2019 131.265 65.8538 131.918 65.3261 132.354C64.7829 132.802 64.091 133.007 63.4104 132.942C62.0209 132.808 60.8914 131.44 61.0075 130.063C61.0875 129.369 61.4355 128.716 61.9632 128.28C62.491 127.845 63.1984 127.627 63.879 127.692C64.575 127.745 65.2287 128.094 65.678 128.638Z" fill="url(#paint0_linear_1932_622)"/>
<path d="M5.39619 59.7659C4.26312 60.7013 2.61842 60.5429 1.68144 59.408C0.757288 58.2886 0.900246 56.6281 2.03331 55.6926C3.15086 54.77 4.82392 54.9312 5.74806 56.0506C6.68505 57.1855 6.51373 58.8432 5.39619 59.7659ZM13.9574 70.1356C12.8243 71.071 11.1668 70.897 10.2555 69.7932C9.31849 68.6583 9.46145 66.9978 10.5945 66.0623C11.7121 65.1397 13.3851 65.3009 14.3221 66.4358C15.2334 67.5396 15.0749 69.2129 13.9574 70.1356ZM22.5186 80.5053C21.3855 81.4407 19.728 81.2667 18.8038 80.1474C17.8669 79.0124 18.0227 77.3675 19.1557 76.432C20.2733 75.5094 21.9335 75.655 22.8705 76.79C23.7946 77.9093 23.6361 79.5826 22.5186 80.5053ZM31.0798 90.875C29.9467 91.8104 28.2892 91.6364 27.3651 90.5171C26.4281 89.3821 26.5839 87.7372 27.7169 86.8017C28.8345 85.8791 30.4947 86.0247 31.4317 87.1596C32.3558 88.279 32.1973 89.9523 31.0798 90.875ZM39.641 101.245C38.5079 102.18 36.8504 102.006 35.9263 100.887C35.0021 99.7674 35.1451 98.1069 36.2781 97.1714C37.3957 96.2488 39.0687 96.41 39.9929 97.5293C40.917 98.6487 40.7586 100.322 39.641 101.245ZM48.1894 111.599C47.0563 112.534 45.4116 112.376 44.4746 111.241C43.5505 110.122 43.6934 108.461 44.8265 107.526C45.944 106.603 47.6171 106.764 48.5413 107.883C49.4782 109.018 49.3069 110.676 48.1894 111.599ZM56.7506 121.969C55.6175 122.904 53.9728 122.746 53.0358 121.611C52.1117 120.491 52.2546 118.831 53.3877 117.895C54.5053 116.973 56.1783 117.134 57.1025 118.253C58.0394 119.388 57.8681 121.046 56.7506 121.969Z" fill="url(#paint1_linear_1932_622)"/>
<path d="M76.8724 119.399C77.3088 119.928 77.5279 120.636 77.4608 121.345C77.3835 122.01 77.0355 122.663 76.5077 123.099C75.9645 123.547 75.257 123.765 74.5765 123.7C73.2025 123.553 72.0858 122.201 72.1891 120.808C72.2691 120.115 72.6016 119.474 73.1448 119.026C73.6726 118.59 74.38 118.372 75.0606 118.437C75.7823 118.521 76.4232 118.855 76.8724 119.399Z" fill="url(#paint2_linear_1932_622)"/>
<path d="M16.5935 50.5254C15.4604 51.4609 13.8157 51.3024 12.8787 50.1675C11.9546 49.0481 12.0975 47.3876 13.2306 46.4522C14.3481 45.5295 16.0212 45.6907 16.9453 46.8101C17.8823 47.945 17.711 49.6028 16.5935 50.5254ZM25.1547 60.8951C24.0216 61.8306 22.3769 61.6721 21.4527 60.5527C20.5158 59.4178 20.6716 57.7729 21.8046 56.8374C22.9222 55.9148 24.5824 56.0604 25.5194 57.1953C26.4307 58.2991 26.2722 59.9725 25.1547 60.8951ZM33.7159 71.2648C32.5828 72.2003 30.9253 72.0262 30.0011 70.9069C29.0641 69.772 29.2199 68.127 30.353 67.1915C31.4705 66.2689 33.1308 66.4146 34.0677 67.5495C34.9919 68.6688 34.8334 70.3422 33.7159 71.2648ZM42.2771 81.6345C41.144 82.57 39.4865 82.3959 38.5623 81.2766C37.6253 80.1417 37.7811 78.4967 38.9142 77.5612C40.0317 76.6386 41.692 76.7843 42.6289 77.9192C43.5531 79.0385 43.3946 80.7118 42.2771 81.6345ZM50.8383 92.0042C49.7052 92.9397 48.0605 92.7812 47.1235 91.6463C46.1994 90.5269 46.3423 88.8664 47.4754 87.9309C48.5929 87.0083 50.266 87.1695 51.1901 88.2889C52.1143 89.4082 51.9558 91.0815 50.8383 92.0042ZM59.3866 102.358C58.2536 103.294 56.6089 103.135 55.6719 102C54.7477 100.881 54.8907 99.2205 56.0238 98.2851C57.1413 97.3624 58.8144 97.5236 59.7385 98.643C60.6755 99.7779 60.5042 101.436 59.3866 102.358ZM67.9478 112.728C66.8148 113.663 65.1701 113.505 64.2331 112.37C63.3089 111.251 63.4519 109.59 64.585 108.655C65.7025 107.732 67.3756 107.893 68.2997 109.013C69.2367 110.148 69.0654 111.805 67.9478 112.728Z" fill="url(#paint3_linear_1932_622)"/>
<path d="M87.6878 110.438C88.137 110.982 88.3433 111.674 88.2916 112.37C88.2272 113.051 87.892 113.72 87.3487 114.168C86.821 114.604 86.1007 114.807 85.4201 114.741C84.0307 114.607 82.914 113.255 83.0328 111.849C83.0972 111.169 83.4453 110.515 83.973 110.08C84.5163 109.631 85.2237 109.413 85.9042 109.479C86.626 109.563 87.2513 109.909 87.6878 110.438Z" fill="url(#paint4_linear_1932_622)"/>
<path d="M27.4216 41.5821C26.304 42.5047 24.6438 42.359 23.7068 41.2241C22.7827 40.1048 22.9412 38.4314 24.0587 37.5088C25.1918 36.5733 26.8493 36.7474 27.7735 37.8667C28.7104 39.0016 28.5546 40.6466 27.4216 41.5821ZM35.9828 51.9517C34.8652 52.8744 33.1922 52.7132 32.268 51.5938C31.331 50.4589 31.5024 48.8011 32.6199 47.8785C33.753 46.943 35.3977 47.1015 36.3347 48.2364C37.2588 49.3558 37.1158 51.0163 35.9828 51.9517ZM44.544 62.3214C43.4264 63.2441 41.7534 63.0829 40.8292 61.9635C39.8923 60.8286 40.0636 59.1708 41.1811 58.2482C42.3142 57.3127 43.9589 57.4712 44.8959 58.6061C45.82 59.7255 45.6771 61.386 44.544 62.3214ZM53.1052 72.6911C51.9876 73.6138 50.3146 73.4526 49.3904 72.3332C48.4535 71.1983 48.6248 69.5405 49.7423 68.6179C50.8754 67.6824 52.5201 67.8409 53.4571 68.9758C54.3812 70.0952 54.2383 71.7557 53.1052 72.6911ZM61.6664 83.0608C60.5488 83.9835 58.8758 83.8223 57.9516 82.7029C57.0275 81.5835 57.186 79.9102 58.3035 78.9876C59.4366 78.0521 61.0941 78.2261 62.0183 79.3455C62.9424 80.4649 62.7995 82.1254 61.6664 83.0608ZM70.2148 93.415C69.0972 94.3376 67.437 94.192 66.5 93.0571C65.5759 91.9377 65.7343 90.2644 66.8519 89.3417C67.985 88.4063 69.6425 88.5803 70.5666 89.6997C71.5036 90.8346 71.3478 92.4795 70.2148 93.415ZM78.776 103.785C77.6584 104.707 75.9982 104.562 75.0612 103.427C74.1371 102.307 74.2956 100.634 75.4131 99.7114C76.5462 98.776 78.2037 98.95 79.1278 100.069C80.0648 101.204 79.909 102.849 78.776 103.785Z" fill="url(#paint5_linear_1932_622)"/>
<path d="M98.8849 101.199C99.3342 101.743 99.5404 102.435 99.4888 103.132C99.4088 103.825 99.0891 104.481 98.5459 104.93C98.0026 105.378 97.2979 105.568 96.6018 105.515C95.2123 105.381 94.0956 104.029 94.2144 102.624C94.2944 101.93 94.6269 101.289 95.1702 100.841C95.7134 100.392 96.4053 100.187 97.0859 100.253C97.8232 100.324 98.4485 100.67 98.8849 101.199Z" fill="url(#paint6_linear_1932_622)"/>
<path d="M38.6188 32.3418C37.4858 33.2773 35.8411 33.1188 34.9041 31.9839C33.9799 30.8645 34.1384 29.1912 35.256 28.2686C36.3735 27.3459 38.0466 27.5071 38.9707 28.6265C39.9077 29.7614 39.7364 31.4192 38.6188 32.3418ZM47.18 42.7115C46.047 43.647 44.3894 43.473 43.4653 42.3536C42.5283 41.2187 42.6713 39.5582 43.8043 38.6227C44.9219 37.7001 46.5949 37.8613 47.5319 38.9962C48.4561 40.1156 48.2976 41.7889 47.18 42.7115ZM55.7412 53.0812C54.6082 54.0167 52.9507 53.8426 52.0265 52.7233C51.0895 51.5884 51.2453 49.9434 52.3784 49.008C53.4959 48.0853 55.1561 48.231 56.0931 49.3659C57.0173 50.4852 56.8588 52.1586 55.7412 53.0812ZM64.3025 63.4509C63.1694 64.3864 61.5119 64.2123 60.5877 63.093C59.6507 61.9581 59.8065 60.3131 60.9396 59.3777C62.0571 58.455 63.7173 58.6007 64.6543 59.7356C65.5785 60.8549 65.42 62.5283 64.3025 63.4509ZM72.8637 73.8206C71.7306 74.7561 70.0859 74.5976 69.1489 73.4627C68.2248 72.3433 68.3677 70.6828 69.5008 69.7473C70.6183 68.8247 72.2914 68.9859 73.2155 70.1053C74.1397 71.2246 73.9812 72.898 72.8637 73.8206ZM81.412 84.1747C80.279 85.1102 78.6343 84.9517 77.6973 83.8168C76.7731 82.6975 76.9161 81.037 78.0492 80.1015C79.1667 79.1788 80.8398 79.3401 81.7639 80.4594C82.7009 81.5943 82.5296 83.2521 81.412 84.1747ZM89.9732 94.5444C88.8402 95.4799 87.1955 95.3214 86.2585 94.1865C85.3343 93.0671 85.4773 91.4066 86.6104 90.4712C87.7279 89.5485 89.401 89.7097 90.3251 90.8291C91.2621 91.964 91.0908 93.6218 89.9732 94.5444Z" fill="url(#paint7_linear_1932_622)"/>
<path d="M109.065 92.8212C109.501 93.3498 109.72 94.0578 109.669 94.7541C109.589 95.4475 109.256 96.0881 108.713 96.5366C108.185 96.9723 107.478 97.1903 106.797 97.1247C105.423 96.978 104.291 95.6383 104.41 94.233C104.474 93.5524 104.822 92.899 105.35 92.4633C105.893 92.0148 106.585 91.8096 107.281 91.8624C107.975 91.9435 108.616 92.2771 109.065 92.8212Z" fill="url(#paint8_linear_1932_622)"/>
<path d="M48.7829 23.9483C47.6654 24.8709 46.0051 24.7253 45.0682 23.5903C44.144 22.471 44.3025 20.7977 45.42 19.875C46.5531 18.9396 48.2106 19.1136 49.1348 20.2329C50.0718 21.3679 49.9005 23.0256 48.7829 23.9483ZM57.3441 34.318C56.2266 35.2406 54.5535 35.0794 53.6165 33.9445C52.6924 32.8251 52.8637 31.1674 53.9812 30.2447C55.1143 29.3092 56.759 29.4677 57.6832 30.5871C58.6201 31.722 58.4617 33.3953 57.3441 34.318ZM65.9053 44.6877C64.7878 45.6103 63.1147 45.4491 62.1906 44.3297C61.2536 43.1948 61.4249 41.537 62.5424 40.6144C63.6755 39.6789 65.3202 39.8374 66.2572 40.9723C67.1813 42.0917 67.0229 43.765 65.9053 44.6877ZM74.4665 55.0573C73.349 55.98 71.6759 55.8188 70.7518 54.6994C69.8148 53.5645 69.9861 51.9067 71.1036 50.9841C72.2367 50.0486 73.8814 50.2071 74.8184 51.342C75.7425 52.4614 75.5841 54.1347 74.4665 55.0573ZM83.0277 65.427C81.9102 66.3497 80.25 66.204 79.313 65.0691C78.3888 63.9498 78.5473 62.2764 79.6649 61.3538C80.7979 60.4183 82.4555 60.5923 83.3796 61.7117C84.3037 62.8311 84.1453 64.5044 83.0277 65.427ZM91.5761 75.7812C90.4585 76.7038 88.7983 76.5582 87.8613 75.4233C86.9372 74.3039 87.0957 72.6306 88.2132 71.7079C89.3463 70.7725 91.0038 70.9465 91.928 72.0659C92.865 73.2008 92.6936 74.8585 91.5761 75.7812ZM100.137 86.1509C99.0197 87.0735 97.3595 86.9279 96.4354 85.8085C95.4984 84.6736 95.6569 83.0003 96.7744 82.0776C97.9075 81.1422 99.565 81.3162 100.502 82.4511C101.426 83.5705 101.255 85.2282 100.137 86.1509Z" fill="url(#paint9_linear_1932_622)"/>
<path d="M120.251 83.5823C120.688 84.1109 120.907 84.8189 120.84 85.528C120.775 86.2086 120.44 86.8775 119.912 87.3132C119.369 87.7617 118.664 87.9514 117.984 87.8858C116.594 87.7519 115.478 86.3994 115.581 85.0069C115.661 84.3135 115.981 83.6574 116.524 83.2089C117.052 82.7732 117.759 82.5551 118.452 82.6363C119.161 82.7046 119.802 83.0382 120.251 83.5823Z" fill="url(#paint10_linear_1932_622)"/>
<path d="M59.9704 14.709C58.8373 15.6445 57.1926 15.486 56.2557 14.3511C55.3315 13.2317 55.4745 11.5712 56.6075 10.6358C57.7251 9.71311 59.3981 9.87431 60.3223 10.9937C61.2593 12.1286 61.088 13.7864 59.9704 14.709ZM68.5316 25.0787C67.3985 26.0142 65.741 25.8401 64.8169 24.7208C63.8799 23.5859 64.0228 21.9254 65.1559 20.9899C66.2735 20.0673 67.9465 20.2285 68.8835 21.3634C69.8076 22.4827 69.6492 24.1561 68.5316 25.0787ZM77.0928 35.4484C75.9597 36.3839 74.3022 36.2098 73.3781 35.0905C72.4411 33.9556 72.5969 32.3106 73.7299 31.3751C74.8475 30.4525 76.5077 30.5982 77.4447 31.7331C78.3688 32.8524 78.2104 34.5257 77.0928 35.4484ZM85.654 45.8181C84.521 46.7535 82.8634 46.5795 81.9393 45.4602C81.0023 44.3252 81.1581 42.6803 82.2912 41.7448C83.4087 40.8222 85.0689 40.9678 86.0059 42.1028C86.93 43.2221 86.7716 44.8954 85.654 45.8181ZM94.2152 56.1878C93.0822 57.1232 91.4375 56.9648 90.5005 55.8299C89.5763 54.7105 89.7193 53.05 90.8524 52.1145C91.9699 51.1919 93.643 51.3531 94.5671 52.4725C95.4912 53.5918 95.3328 55.2651 94.2152 56.1878ZM102.764 66.5419C101.631 67.4774 99.9858 67.3189 99.0488 66.184C98.1247 65.0646 98.2677 63.4041 99.4007 62.4687C100.518 61.546 102.191 61.7072 103.115 62.8266C104.052 63.9615 103.881 65.6193 102.764 66.5419ZM111.325 76.9116C110.192 77.8471 108.547 77.6886 107.61 76.5537C106.686 75.4343 106.829 73.7738 107.962 72.8384C109.079 71.9157 110.753 72.0769 111.677 73.1963C112.614 74.3312 112.442 75.989 111.325 76.9116Z" fill="url(#paint11_linear_1932_622)"/>
<path d="M131.074 74.6211C131.524 75.1653 131.743 75.8733 131.678 76.5539C131.614 77.2346 131.279 77.9035 130.751 78.3392C130.208 78.7877 129.487 78.9902 128.807 78.9246C127.417 78.7907 126.301 77.4382 126.419 76.0329C126.484 75.3523 126.832 74.6989 127.375 74.2504C127.903 73.8147 128.61 73.5967 129.291 73.6622C129.997 73.7589 130.638 74.0926 131.074 74.6211Z" fill="url(#paint12_linear_1932_622)"/>
<path d="M70.82 5.75198C69.6869 6.68744 68.0422 6.52896 67.1053 5.39405C66.1811 4.27468 66.3241 2.61418 67.4571 1.67872C68.5747 0.756079 70.2477 0.91728 71.1719 2.03665C72.0934 3.18438 71.9376 4.82933 70.82 5.75198ZM79.3812 16.1217C78.2481 17.0571 76.5906 16.8831 75.6665 15.7637C74.7295 14.6288 74.8853 12.9839 76.0183 12.0484C77.1359 11.1258 78.7961 11.2714 79.7331 12.4063C80.6417 13.5385 80.4988 15.199 79.3812 16.1217ZM87.9424 26.4914C86.8094 27.4268 85.1518 27.2528 84.2277 26.1334C83.2907 24.9985 83.4465 23.3536 84.5795 22.4181C85.6971 21.4955 87.3573 21.6411 88.2943 22.776C89.2029 23.9082 89.06 25.5687 87.9424 26.4914ZM96.5036 36.8611C95.3706 37.7965 93.713 37.6225 92.7889 36.5031C91.8519 35.3682 92.0077 33.7233 93.1408 32.7878C94.2583 31.8652 95.9185 32.0108 96.8555 33.1457C97.7641 34.2779 97.6212 35.9384 96.5036 36.8611ZM105.065 47.2308C103.932 48.1662 102.287 48.0077 101.35 46.8728C100.426 45.7535 100.569 44.093 101.702 43.1575C102.82 42.2349 104.493 42.3961 105.417 43.5154C106.325 44.6476 106.182 46.3081 105.065 47.2308ZM113.613 57.5849C112.48 58.5204 110.835 58.3619 109.898 57.227C108.974 56.1076 109.117 54.4471 110.25 53.5116C111.368 52.589 113.041 52.7502 113.965 53.8696C114.887 55.0173 114.731 56.6623 113.613 57.5849ZM122.174 67.9546C121.041 68.8901 119.397 68.7316 118.46 67.5967C117.536 66.4773 117.678 64.8168 118.812 63.8813C119.929 62.9587 121.602 63.1199 122.526 64.2393C123.448 65.387 123.292 67.032 122.174 67.9546Z" fill="url(#paint13_linear_1932_622)"/>
</g>
<defs>
<linearGradient id="paint0_linear_1932_622" x1="67.3594" y1="130.675" x2="61.531" y2="133.013" gradientUnits="userSpaceOnUse">
<stop stop-color="#FF0766"/>
<stop offset="1" stop-color="#FF7E5D"/>
</linearGradient>
<linearGradient id="paint1_linear_1932_622" x1="58.7839" y1="120.29" x2="53.5778" y2="124.418" gradientUnits="userSpaceOnUse">
<stop stop-color="#FF0766"/>
<stop offset="1" stop-color="#FF7E5D"/>
</linearGradient>
<linearGradient id="paint2_linear_1932_622" x1="78.541" y1="121.42" x2="72.7097" y2="123.758" gradientUnits="userSpaceOnUse">
<stop stop-color="#FF0766"/>
<stop offset="1" stop-color="#FF7E5D"/>
</linearGradient>
<linearGradient id="paint3_linear_1932_622" x1="69.9812" y1="111.049" x2="64.7751" y2="115.177" gradientUnits="userSpaceOnUse">
<stop stop-color="#FF0766"/>
<stop offset="1" stop-color="#FF7E5D"/>
</linearGradient>
<linearGradient id="paint4_linear_1932_622" x1="89.382" y1="112.49" x2="83.557" y2="114.835" gradientUnits="userSpaceOnUse">
<stop stop-color="#FF0766"/>
<stop offset="1" stop-color="#FF7E5D"/>
</linearGradient>
<linearGradient id="paint5_linear_1932_622" x1="80.8093" y1="102.106" x2="75.6032" y2="106.234" gradientUnits="userSpaceOnUse">
<stop stop-color="#FF0766"/>
<stop offset="1" stop-color="#FF7E5D"/>
</linearGradient>
<linearGradient id="paint6_linear_1932_622" x1="100.579" y1="103.251" x2="94.7312" y2="105.598" gradientUnits="userSpaceOnUse">
<stop stop-color="#FF0766"/>
<stop offset="1" stop-color="#FF7E5D"/>
</linearGradient>
<linearGradient id="paint7_linear_1932_622" x1="92.0066" y1="92.8657" x2="86.8005" y2="96.9937" gradientUnits="userSpaceOnUse">
<stop stop-color="#FF0766"/>
<stop offset="1" stop-color="#FF7E5D"/>
</linearGradient>
<linearGradient id="paint8_linear_1932_622" x1="110.746" y1="94.8579" x2="104.929" y2="97.195" gradientUnits="userSpaceOnUse">
<stop stop-color="#FF0766"/>
<stop offset="1" stop-color="#FF7E5D"/>
</linearGradient>
<linearGradient id="paint9_linear_1932_622" x1="102.171" y1="84.4722" x2="96.9645" y2="88.6001" gradientUnits="userSpaceOnUse">
<stop stop-color="#FF0766"/>
<stop offset="1" stop-color="#FF7E5D"/>
</linearGradient>
<linearGradient id="paint10_linear_1932_622" x1="121.946" y1="85.6345" x2="116.118" y2="87.9869" gradientUnits="userSpaceOnUse">
<stop stop-color="#FF0766"/>
<stop offset="1" stop-color="#FF7E5D"/>
</linearGradient>
<linearGradient id="paint11_linear_1932_622" x1="113.358" y1="75.2329" x2="108.152" y2="79.3609" gradientUnits="userSpaceOnUse">
<stop stop-color="#FF0766"/>
<stop offset="1" stop-color="#FF7E5D"/>
</linearGradient>
<linearGradient id="paint12_linear_1932_622" x1="132.769" y1="76.6733" x2="126.944" y2="79.0183" gradientUnits="userSpaceOnUse">
<stop stop-color="#FF0766"/>
<stop offset="1" stop-color="#FF7E5D"/>
</linearGradient>
<linearGradient id="paint13_linear_1932_622" x1="124.208" y1="66.2759" x2="119.002" y2="70.4038" gradientUnits="userSpaceOnUse">
<stop stop-color="#FF0766"/>
<stop offset="1" stop-color="#FF7E5D"/>
</linearGradient>
</defs>
</svg>
