<svg width="53" height="49" viewBox="0 0 53 49" fill="none" xmlns="http://www.w3.org/2000/svg">
<path d="M45.6061 39.4126C37.97 49.0322 22.9951 46.6521 19.5241 34.6524C19.3258 34.0574 19.2266 33.3632 19.1274 32.7682C27.1603 30.9831 34.9948 25.132 35.689 18.0908C36.284 11.7439 29.8379 9.85963 25.5736 13.4298C20.5158 17.6941 16.9457 23.9419 16.6482 30.5862C11.4913 31.2804 6.43354 29.892 3.65675 24.8343C-1.00429 16.3058 5.24349 4.80174 13.5739 1.42992C14.4664 1.13241 14.0697 -0.255985 13.1772 0.0415287C1.67333 3.31434 -4.27694 19.3801 3.55758 28.9003C6.63189 32.5698 11.5904 33.7597 16.7473 33.1647C17.4415 39.9083 22.6976 45.2635 28.9452 47.3461C36.1847 49.7262 42.8292 46.2554 47.0935 40.6025C47.7879 39.71 46.3002 38.6193 45.6061 39.4126ZM23.3918 19.3801C24.9785 17.1983 27.0611 14.719 29.7388 13.8265C32.317 12.9339 33.2097 16.5041 33.3088 18.0908C33.4079 20.0743 32.0195 21.8593 30.7303 23.2477C28.0528 26.3219 23.5901 28.9997 19.0283 30.1895C19.3258 26.3219 21.21 22.5535 23.3918 19.3801Z" fill="#001042"/>
<path d="M51.1602 35.7432C48.3834 35.7432 45.5074 35.9415 42.8298 36.6357C41.7391 36.9332 42.2348 38.4208 43.3258 38.2224C45.5076 37.8258 47.7885 37.9249 49.9703 38.0241C49.8711 39.3132 49.772 40.7016 49.5736 41.9908C49.3753 42.9825 48.6811 44.4701 49.2761 45.4618C49.5736 45.9578 50.0695 45.9578 50.5653 45.7593C51.7554 45.2635 51.7554 43.1809 51.9537 42.09C52.2512 40.3047 52.3503 38.619 52.3503 36.8337C52.3503 36.239 51.7552 35.7432 51.1602 35.7432Z" fill="#001042"/>
</svg>
