<svg width="126" height="41" viewBox="0 0 126 41" fill="none" xmlns="http://www.w3.org/2000/svg">
<g clip-path="url(#clip0_1_404)">
<path d="M0.000548624 34.6562C6.06033 22.2743 36.2171 6.87609 57.2564 4.8578C80.0256 2.66596 92.8153 6.10115 118.657 21.5354C118.359 19.518 118.074 17.9517 117.923 16.3521C117.722 14.6249 117.652 12.8795 117.715 11.1351C117.742 10.5958 118.618 9.75867 119.144 9.70496C119.472 9.73975 119.786 9.86799 120.057 10.0777C120.327 10.2874 120.545 10.5717 120.69 10.9039C122.025 15.7769 123.26 20.685 124.45 25.6108C124.576 25.9435 124.629 26.3062 124.605 26.6687C124.581 27.0312 124.481 27.3831 124.312 27.695C124.144 28.0069 123.912 28.2698 123.637 28.4618C123.361 28.6537 123.05 28.7692 122.729 28.7986C116.878 30.1171 111.058 31.5272 105.179 32.7041C103.79 32.9848 102.297 32.5094 100.45 32.3467C102.115 28.1649 105.277 28.8141 107.599 27.7892C110.067 26.7015 112.688 26.102 115.816 25.1175C109.173 19.5021 101.682 15.2781 93.6937 12.6434C65.2341 3.05528 38.4011 8.43749 12.9483 25.3934C9.63422 27.6101 6.54745 30.2488 3.32225 32.6402C2.4553 33.2975 1.48232 33.7694 0.000548624 34.6562Z" fill="#EAEAEA"/>
</g>
<defs>
<clipPath id="clip0_1_404">
<rect width="124.017" height="33.9" fill="white" transform="translate(1.69922 0.798828) rotate(2.87218)"/>
</clipPath>
</defs>
</svg>
