<svg width="330" height="15" viewBox="0 0 330 15" fill="none" xmlns="http://www.w3.org/2000/svg">
<path d="M303.277 5.31748C296.108 4.70112 288.936 4.19626 281.753 3.64151C279.387 3.45325 277.018 3.38887 274.651 3.26255L259.233 2.44681C256.363 2.29442 253.506 2.11759 250.647 1.99032C249.825 1.96797 248.99 1.94528 248.192 1.9236L242.595 1.7715L217.138 1.07969C215.125 1.02498 213.1 0.969943 211.085 0.989572L196.03 0.816013C190.382 0.736907 184.735 0.620634 179.097 0.603807L151.683 0.515904C146.402 0.50875 141.109 0.439318 135.826 0.506497L108.486 0.854542C103.497 0.917337 98.5215 0.9433 93.5427 1.09315L65.2571 1.88662C60.2169 2.03481 55.1787 2.10866 50.1467 2.40584L21.9713 4.11977L15.8814 4.47499C11.8214 4.7118 7.76837 5.14717 3.72995 5.49615L2.96591 5.58697C2.49732 5.70646 2.06749 5.94686 1.71862 6.28456C1.16092 6.80557 0.82814 7.5267 0.791928 8.29266C0.774216 9.05437 1.0542 9.79237 1.57136 10.3471C1.82442 10.6296 2.13334 10.8555 2.47823 11.01C2.82311 11.1646 3.1963 11.2445 3.57373 11.2446C8.49826 10.8329 13.3259 10.369 18.2222 10.0929L31.8292 9.2973L46.6657 8.46068C48.6588 8.34128 50.6533 8.17231 52.6571 8.11519L75.7439 7.42839L90.1635 7.01438C92.1424 6.96898 94.1348 6.87435 96.113 6.85372L119.017 6.58348L132.901 6.42768C134.46 6.47004 136.01 6.3758 137.57 6.38099L162.294 6.48257L176.098 6.54777C177.743 6.59247 179.378 6.53772 181.011 6.56969L206.537 6.96584C211.84 7.10994 217.133 7.15459 222.435 7.31108L249.438 8.04492C251.218 8.09329 252.996 8.21599 254.774 8.3263L269.771 9.25458L280.969 9.89363C283.605 10.0521 286.251 10.3223 288.899 10.5307C296.681 11.1761 304.451 11.8212 312.183 12.5272C314.156 12.7048 316.128 12.9072 318.112 13.1099C320.096 13.3126 322.339 13.5223 324.443 13.8275C324.769 13.8859 325.099 13.9569 325.432 14.0403C326.231 14.2654 327.084 14.1779 327.822 13.7953C328.353 13.4968 328.785 13.0479 329.066 12.5041C329.347 11.9603 329.463 11.3454 329.401 10.7355C329.34 10.1256 329.102 9.54747 328.718 9.07266C328.334 8.59784 327.82 8.24716 327.241 8.06399C325.818 7.6765 324.368 7.4049 322.902 7.25179L319.903 6.86035C317.982 6.60976 316.045 6.45794 314.11 6.25657C310.521 5.88628 306.892 5.62649 303.277 5.31748Z" fill="#FF0766"/>
</svg>
