<svg width="674" height="823" viewBox="0 0 674 823" fill="none" xmlns="http://www.w3.org/2000/svg">
<g style="mix-blend-mode:soft-light">
<path d="M234.724 774.245C235.212 772.532 235.762 770.839 236.373 769.164C239.488 760.625 246.667 752.15 258.316 743.256C268.733 735.303 282.586 727.139 300.667 718.297C334.397 701.802 377.583 685.528 423.306 668.298C476.378 648.296 531.259 627.614 576.998 604.484C628.868 578.253 660.361 552.923 673.285 527.046C712.103 449.308 687.845 320.991 668.352 217.885C661.118 179.619 654.283 143.473 651.908 115.651C649.267 84.7546 652.332 66.6781 661.553 58.7586L662.159 59.4627C653.185 67.1722 650.222 85.0001 652.833 115.569C655.205 143.345 662.034 179.467 669.264 217.711C686.53 309.03 707.53 420.118 685.182 498.544C682.264 508.784 678.613 518.45 674.115 527.459C667.225 541.253 654.893 555.115 637.456 568.659C621.847 580.785 602.207 592.774 577.415 605.311C531.631 628.464 476.728 649.156 423.631 669.166C377.93 686.388 334.766 702.655 301.075 719.13C283.048 727.945 269.247 736.078 258.879 743.994C247.375 752.777 240.298 761.114 237.246 769.482C227.648 795.795 233.459 825.659 255.014 860.777C273.998 891.704 302.035 922.135 329.151 951.564L329.578 952.027C360.076 985.127 395.267 1024.47 425.05 1065.28C455.938 1107.6 477.443 1146.6 490.796 1184.51C504.911 1224.58 511.273 1264.85 509.707 1304.21C508.188 1342.38 499.273 1378.68 483.215 1412.09C476.483 1426.09 468.34 1439.43 459.018 1451.74C450.046 1463.58 439.695 1474.84 428.25 1485.21C406.67 1504.75 381.061 1521.54 349.961 1536.53C287.577 1566.62 212.324 1584.34 146.939 1597.71L146.751 1596.8C279.088 1569.74 425.077 1530.89 482.375 1411.69C514.923 1343.97 517.603 1263.41 489.917 1184.82C459.712 1099.08 390.961 1020.02 328.891 952.657L328.464 952.192C301.319 922.73 273.248 892.265 254.219 861.26C243.896 844.439 237.306 829.232 234.078 814.766C230.896 800.512 231.116 786.905 234.724 774.245Z" fill="white"/>
<path d="M244.198 776.131C245.144 772.81 246.31 769.533 247.698 766.292C251.634 757.101 259.176 747.862 270.756 738.051C281.119 729.269 294.569 720.171 311.873 710.238C344.152 691.709 384.751 673.197 427.731 653.598C474.672 632.195 523.213 610.061 565.094 585.972C597.915 567.096 637.783 541.689 654.917 512.547C692.764 448.185 686.853 349.585 676.076 261.62C674.241 246.627 672.256 231.87 670.338 217.599C665.64 182.649 661.202 149.635 660.427 123.543C659.562 94.505 663.308 76.8155 672.213 67.874L672.834 68.4907C664.11 77.2494 660.447 94.7353 661.302 123.517C662.076 149.562 666.51 182.554 671.205 217.482C673.125 231.756 675.106 246.516 676.946 261.513C681.593 299.458 686.659 349.068 684.566 396.298C683.54 419.406 680.823 440.493 676.492 458.977C671.676 479.515 664.675 497.689 655.676 512.99C648.266 525.591 636.538 538.094 619.822 551.213C605.861 562.172 588.61 573.455 565.534 586.73C523.614 610.842 475.057 632.983 428.096 654.395C385.133 673.985 344.554 692.488 312.309 710.997C276.14 731.759 255.865 749.44 248.501 766.637C227.55 815.568 261.223 866.859 296.923 910.58C307.77 923.806 319.218 936.688 330.013 948.751C372.03 995.64 409.151 1038.1 437.946 1082.95C448.421 1099.34 457.478 1115.97 464.871 1132.35C472.242 1148.7 478.216 1165.39 482.634 1181.98C489.002 1205.88 492.651 1230.27 493.482 1254.47C494.429 1280.14 491.972 1305.71 486.179 1330.44C480.52 1354.61 471.648 1378.14 459.809 1400.37C452.097 1414.93 442.861 1428.92 432.357 1441.94C422.39 1454.31 410.93 1466.23 398.297 1477.4C372.595 1500.18 342.261 1520.05 305.565 1538.14C274.518 1553.45 238.385 1567.66 195.102 1581.59C176.117 1587.7 157.261 1593.45 139.055 1598.69L138.811 1597.85C157.007 1592.61 175.856 1586.86 194.832 1580.76C287.701 1550.87 350.272 1518.79 397.716 1476.74C423.84 1453.65 443.897 1428.54 459.034 1399.96C483.198 1354.59 494.491 1305.65 492.605 1254.51C491.777 1230.37 488.137 1206.04 481.787 1182.2C472.871 1148.73 458.289 1116.42 437.208 1083.42C408.448 1038.63 371.35 996.194 329.361 949.333C318.559 937.263 307.106 924.372 296.246 911.131C272.786 882.401 257.918 859.069 249.457 837.705C240.565 815.258 238.82 795.004 244.198 776.131Z" fill="white"/>
<path d="M253.278 778.325C254.716 773.28 256.629 768.322 259.025 763.425C263.966 753.329 272.083 743.065 283.849 732.041C294.384 722.169 307.686 711.853 324.511 700.506C355.898 679.339 394.564 657.949 435.499 635.305C472.971 614.576 511.717 593.143 547.237 570.52C585.733 546.002 619.026 523.626 636.559 498.053C679.699 435.136 680.452 340.468 676.289 265.025C675.372 248.443 674.168 232.091 673.001 216.279C668.336 153 664.307 98.3489 682.884 76.9875L683.506 77.527C665.155 98.6315 669.172 153.122 673.825 216.219C674.991 232.036 676.197 248.391 677.113 264.982C679.892 315.344 679.044 355.04 674.443 389.912C671.632 411.229 667.317 430.791 661.62 448.058C655.334 467.116 647.131 484.096 637.241 498.52C629.192 510.258 617.013 522.352 600.008 535.495C585.39 546.79 568.518 557.946 547.679 571.216C512.139 593.852 473.379 615.291 435.898 636.027C394.979 658.664 356.329 680.042 324.971 701.19C289.766 724.931 269.044 744.821 259.764 763.79C240.47 803.218 252.336 847.308 298.237 906.743C308.872 920.517 320.443 933.96 330.455 945.479C333.24 948.675 336.026 951.869 338.812 955.059C373.988 995.359 410.361 1037.03 436.814 1080.67C456.073 1112.44 468.39 1144.75 474.474 1179.45C478.458 1202.17 479.874 1224.93 478.804 1249.03C477.725 1273.36 473.475 1297.7 466.17 1321.4C459.104 1344.33 449.09 1366.96 436.406 1388.65C420.347 1416.11 399.904 1440.99 373.908 1464.7C348.33 1488.16 319.211 1509.24 284.891 1529.14C255.551 1546.15 222.109 1562.41 182.654 1578.85C166.504 1585.58 149.09 1592.76 131.173 1599.67L130.877 1598.91C148.785 1592 166.191 1584.82 182.336 1578.09C266.892 1542.85 325.804 1507.7 373.352 1464.1C399.287 1440.44 419.679 1415.62 435.695 1388.24C461.621 1343.9 475.848 1297.05 477.98 1249C479.047 1224.96 477.635 1202.25 473.66 1179.59C467.595 1145 455.309 1112.78 436.108 1081.1C409.691 1037.52 373.341 995.873 338.189 955.601C335.403 952.409 332.617 949.217 329.83 946.018C319.811 934.49 308.233 921.037 297.581 907.245C275.654 878.854 262.223 855.456 255.307 833.608C249.046 813.814 248.359 795.586 253.278 778.325Z" fill="white"/>
<path d="M261.823 781.105C263.805 774.151 266.647 767.318 270.35 760.564C276.772 748.858 286.081 736.806 298.806 723.72C310.211 711.993 324.184 699.635 341.525 685.935C373.878 660.379 412.807 634.232 454.02 606.55C478.809 589.9 504.442 572.684 529.381 555.07C534.211 551.658 539.074 548.263 543.777 544.977C573.414 524.278 601.404 504.725 618.204 483.567C655.189 436.981 674.26 366.612 676.509 268.434C676.933 249.965 676.808 231.675 676.69 213.988C676.308 157.592 675.978 108.889 693.559 86.0947L694.167 86.5628C676.746 109.147 677.074 157.728 677.454 213.979C677.573 231.671 677.697 249.965 677.274 268.447C676.254 312.988 671.998 350.62 664.269 383.494C659.679 403.012 653.765 421.052 646.69 437.117C638.95 454.694 629.567 470.48 618.802 484.039C601.933 505.286 573.898 524.87 544.215 545.602C539.513 548.886 534.652 552.281 529.823 555.691C504.875 573.31 479.239 590.53 454.446 607.181C413.246 634.854 374.329 660.993 341.998 686.531C305.684 715.218 283.13 738.858 271.023 760.925C248.781 801.469 257.578 845.252 299.543 902.89C309.581 916.676 320.542 929.927 330.89 942.189C336.213 948.474 341.651 954.836 346.91 960.99C378.978 998.513 412.138 1037.31 435.676 1078.37C445.222 1095.03 452.36 1111.52 457.497 1128.79C462.092 1144.23 464.974 1159.97 466.306 1176.9C467.976 1198.11 467.26 1219.92 464.12 1243.57C458.156 1288.51 440.957 1333.37 413.002 1376.91C396.282 1402.95 375.514 1427.51 349.516 1451.99C302.055 1496.99 245.076 1536.43 170.202 1576.09C167.511 1577.52 164.823 1578.95 162.129 1580.38C149.486 1587.09 136.413 1594.04 123.29 1600.64L122.944 1599.95C136.058 1593.36 149.128 1586.41 161.768 1579.7C164.462 1578.27 167.151 1576.84 169.841 1575.42C244.652 1535.78 301.577 1496.39 348.988 1451.43C374.941 1427 395.667 1402.49 412.353 1376.5C440.247 1333.05 457.406 1288.3 463.355 1243.48C466.487 1219.87 467.202 1198.12 465.536 1176.97C462.738 1141.42 453.036 1110.21 435.005 1078.76C411.503 1037.76 378.367 998.988 346.322 961.492C341.063 955.338 335.625 948.976 330.301 942.687C319.944 930.413 308.972 917.15 298.92 903.345C278.712 875.589 266.387 851.432 261.242 829.492C257.26 812.498 257.435 796.506 261.823 781.105Z" fill="white"/>
<path d="M269.705 784.636C272.293 775.555 276.276 766.607 281.675 757.702C321.9 691.356 413.353 616.684 511.523 539.615C521.948 531.43 532.555 523.657 542.812 516.139C564.628 500.151 585.233 485.05 599.839 469.079C641.014 424.056 666.881 357.695 676.725 271.835C679.087 251.219 680.453 230.642 681.775 210.743C683.388 186.429 684.912 163.463 688.075 143.627C691.618 121.396 696.755 106.008 704.241 95.2018L704.828 95.6082C688.576 119.069 685.755 161.576 682.488 210.792C681.166 230.7 679.801 251.284 677.435 271.919C667.575 357.931 641.646 424.427 600.368 469.563C585.716 485.586 565.081 500.708 543.234 516.718C532.981 524.233 522.38 532.003 511.964 540.18C413.846 617.208 322.448 691.833 282.287 758.077C256.935 799.888 262.661 843.368 300.853 899.057C310.733 913.465 321.802 927.294 331.328 938.921C338.215 947.292 345.299 955.733 352.15 963.899C382.137 999.635 413.145 1036.59 434.54 1076.1C451.495 1107.41 458.994 1138.64 458.138 1174.38C457.661 1194.23 454.897 1214.49 449.439 1238.14C444.474 1259.64 436.678 1281.57 426.262 1303.31C416.537 1323.61 404.203 1344.43 389.603 1365.19C372.473 1389.55 351.987 1413.09 325.13 1439.3C299.297 1464.5 272.582 1488 243.459 1511.14C216.751 1532.36 188.717 1552.71 157.753 1573.35C152.921 1576.57 148.02 1579.88 143.283 1583.08C134.203 1589.2 124.812 1595.54 115.407 1601.61L115.02 1601.01C124.419 1594.94 133.807 1588.61 142.883 1582.48C147.623 1579.29 152.522 1575.98 157.356 1572.76C221.023 1530.31 275.738 1486.49 324.631 1438.78C351.455 1412.61 371.914 1389.1 389.02 1364.78C419.52 1321.42 439.055 1279.94 448.744 1237.97C454.193 1214.37 456.952 1194.15 457.426 1174.35C458.279 1138.75 450.808 1107.63 433.915 1076.44C412.553 1036.99 381.57 1000.06 351.605 964.354C344.751 956.188 337.668 947.745 330.778 939.37C321.242 927.731 310.161 913.886 300.265 899.457C281.37 871.901 270.563 847.677 267.233 825.4C265.13 811.361 265.937 797.859 269.705 784.636Z" fill="white"/>
<path d="M276.787 789.003C280.033 777.611 285.42 766.283 292.998 754.849C319.651 714.625 346.295 678.814 374.449 645.371C410.761 602.237 449.757 562.59 493.667 524.164C507.951 511.663 523.074 500.463 537.699 489.633C553.86 477.665 569.125 466.361 581.476 454.598C639.588 399.253 665.469 326.516 676.948 275.241C682.09 252.265 685.45 229.009 688.7 206.516C691.686 185.843 694.507 166.315 698.456 148.877C702.893 129.287 708.126 115.121 714.925 104.3L715.484 104.653C700.678 128.213 695.178 166.294 689.354 206.613C686.103 229.118 682.742 252.388 677.593 275.386C669.968 309.447 658.606 341.463 643.824 370.543C627.092 403.46 606.268 431.903 581.934 455.076C569.554 466.867 554.273 478.183 538.096 490.164C523.482 500.987 508.37 512.178 494.105 524.66C392.165 613.872 330.823 698.967 293.551 755.212C264.532 799.004 267.106 840.873 302.162 895.209C311.86 910.244 323.079 924.712 331.768 935.639C339.673 945.534 347.878 955.478 355.812 965.094C384.278 999.598 413.715 1035.28 433.406 1073.81C442.161 1090.94 447.628 1107.75 450.125 1125.2C452.236 1139.95 452.182 1155.2 449.964 1171.83C446.822 1195.39 440.184 1216.72 434.75 1232.68C421.737 1270.9 399.314 1310.41 366.2 1353.46C344.421 1381.78 319.773 1407.42 300.737 1426.6C245.491 1482.24 194.643 1529.35 145.292 1570.6C139.746 1575.24 134.165 1580.01 128.77 1584.63C121.846 1590.55 114.683 1596.68 107.514 1602.58L107.094 1602.07C114.26 1596.17 121.419 1590.05 128.34 1584.13C133.735 1579.51 139.316 1574.73 144.868 1570.1C194.201 1528.86 245.032 1481.77 300.265 1426.13C319.291 1406.97 343.916 1381.35 365.674 1353.06C398.745 1310.06 421.134 1270.62 434.124 1232.47C439.548 1216.54 446.175 1195.24 449.308 1171.75C454.022 1136.39 448.781 1105.36 432.812 1074.11C413.157 1035.64 383.743 999.993 355.298 965.515C347.362 955.897 339.155 945.949 331.247 936.051C322.547 925.111 311.317 910.625 301.603 895.567C283.919 868.153 274.645 843.868 273.258 821.322C272.582 810.401 273.746 799.674 276.787 789.003Z" fill="white"/>
<path d="M282.936 794.018C283.856 790.789 284.952 787.554 286.229 784.294C290.344 773.782 296.26 763.216 304.316 751.995C320.755 729.094 335.2 704.537 350.493 678.538C366.182 651.863 382.408 624.278 402.345 595.785C424.98 563.438 449.011 534.955 475.812 508.71C492.814 492.06 512.081 478.113 530.716 464.623C542.324 456.22 553.288 448.283 563.109 440.121C614.913 397.071 655.421 339.725 677.169 278.648C686.242 253.171 692.175 226.761 697.912 201.216C705.428 167.757 712.527 136.154 725.605 113.4L726.133 113.702C713.099 136.377 706.01 167.938 698.505 201.349C692.763 226.911 686.824 253.342 677.741 278.853C667.3 308.173 652.445 336.817 633.583 363.989C613.602 392.773 590.022 418.545 563.497 440.59C553.66 448.766 542.688 456.708 531.072 465.118C512.456 478.594 493.207 492.529 476.239 509.146C416.326 567.817 381.63 626.804 351.018 678.85C335.719 704.861 321.268 729.429 304.812 752.351C271.841 798.279 271.451 838.555 303.463 891.367C312.883 906.912 323.77 921.44 332.199 932.363C340.789 943.436 349.791 954.527 358.499 965.252C385.79 998.868 414.01 1033.63 432.261 1071.53C440.663 1088.98 445.302 1105.94 446.447 1123.41C447.399 1137.94 445.874 1152.95 441.784 1169.29C436.477 1190.51 427.825 1210.48 420.059 1227.23C411.375 1245.96 400.36 1264.92 386.385 1285.21C374.47 1302.51 360.212 1321 342.795 1341.73C322.352 1366.08 299.702 1389.62 277.797 1412.39L276.341 1413.9C247.587 1443.79 220.896 1472.83 195.086 1500.9C173.635 1524.23 153.371 1546.27 132.827 1567.86C127.187 1573.78 121.579 1579.88 116.157 1585.77C110.77 1591.63 105.199 1597.69 99.6159 1603.56L99.1742 1603.14C104.753 1597.28 110.322 1591.22 115.708 1585.37C121.133 1579.47 126.744 1573.37 132.387 1567.44C152.93 1545.86 173.19 1523.82 194.639 1500.49C220.452 1472.41 247.144 1443.38 275.904 1413.48L277.361 1411.97C299.258 1389.21 321.901 1365.67 342.33 1341.35C379.606 1296.96 403.408 1261.69 419.508 1226.97C427.262 1210.26 435.901 1190.31 441.195 1169.15C450.038 1133.8 447.113 1103.77 431.714 1071.79C413.493 1033.96 385.295 999.224 358.027 965.637C349.317 954.909 340.313 943.817 331.718 932.738C323.278 921.802 312.379 907.256 302.942 891.685C294.496 877.75 288.485 864.942 284.566 852.525C280.697 840.26 278.977 828.728 279.315 817.27C279.545 809.413 280.737 801.736 282.936 794.018Z" fill="white"/>
<path d="M288.283 799.108C289.995 793.101 292.336 787.067 295.341 780.897C300.197 770.93 306.837 760.541 315.637 749.143C339.453 718.3 353.72 683.594 368.826 646.853C378.876 622.407 389.27 597.13 403.109 571.367C418.784 542.188 436.726 516.638 457.96 493.255C476.893 472.408 500.516 456.222 523.36 440.571C530.848 435.441 537.919 430.594 544.741 425.646C604.828 382.056 651.939 331.061 677.397 282.058C691.936 254.074 701.035 223.884 709.835 194.688C717.834 168.156 725.387 143.098 736.294 122.494L736.783 122.752C725.903 143.308 718.355 168.343 710.368 194.847C701.56 224.067 692.452 254.282 677.89 282.312C665.03 307.067 646.685 332.324 623.366 357.383C600.744 381.694 574.402 404.81 545.068 426.092C538.242 431.046 531.167 435.892 523.675 441.025C500.857 456.66 477.262 472.827 458.372 493.625C410.958 545.833 389.801 597.296 369.34 647.062C354.218 683.84 339.937 718.578 316.075 749.48C285.033 789.682 271.23 828.543 304.766 887.517C311.882 900.029 320.477 912.847 332.633 929.08C341.686 941.105 351.277 953.106 360.551 964.712C386.889 997.662 414.122 1031.74 431.119 1069.24C439.183 1087.03 442.997 1104.16 442.78 1121.59C442.6 1135.98 439.598 1150.75 433.599 1166.74C426.07 1186.81 415.522 1204.92 405.363 1221.76C384.248 1256.75 355.724 1290.34 319.391 1329.99C307.214 1343.29 294.423 1356.62 282.052 1369.51C272.159 1379.82 261.93 1390.49 251.943 1401.2C206.251 1450.2 169.812 1498.95 134.572 1546.1C129.9 1552.35 125.065 1558.82 120.348 1565.1C114.954 1572.28 109.66 1579.66 104.542 1586.8C100.361 1592.63 96.0384 1598.66 91.7016 1604.52L91.2565 1604.19C95.5921 1598.33 99.9128 1592.31 104.092 1586.48C109.213 1579.34 114.505 1571.96 119.906 1564.77C124.622 1558.49 129.455 1552.02 134.13 1545.77C169.377 1498.61 205.825 1449.85 251.538 1400.82C261.528 1390.11 271.758 1379.44 281.653 1369.13C294.021 1356.24 306.811 1342.91 318.985 1329.62C355.294 1289.99 383.8 1256.43 404.892 1221.47C415.037 1204.66 425.572 1186.57 433.084 1166.54C446.092 1131.87 445.331 1101.93 430.617 1069.46C413.65 1032.03 386.438 997.98 360.122 965.055C350.844 953.446 341.25 941.445 332.193 929.411C320.02 913.159 311.414 900.323 304.287 887.789C296.265 873.681 290.86 860.724 287.757 848.175C284.765 836.071 283.997 824.636 285.407 813.223C285.988 808.504 286.943 803.814 288.283 799.108Z" fill="white"/>
<path d="M292.823 804.05C299.074 782.112 313.462 762.641 326.96 746.294C355.661 711.531 365.331 671.048 375.572 628.19C381.324 604.111 387.274 579.212 396.879 553.978C407.748 525.422 421.892 500.504 440.117 477.799C460.421 452.503 489.137 434.519 516.906 417.125C520.028 415.17 523.255 413.149 526.375 411.174C601 363.956 650.477 322.84 677.634 285.474C699.605 255.243 712.355 220.418 724.683 186.741C731.864 167.121 738.649 148.588 746.989 131.585L747.439 131.805C739.113 148.783 732.331 167.305 725.154 186.912C712.814 220.621 700.053 255.476 678.041 285.766C663.21 306.173 641.391 328.038 613.193 350.753C589.513 369.829 561.201 389.73 526.646 411.597C523.526 413.571 520.299 415.593 517.177 417.547C489.443 434.918 460.763 452.879 440.512 478.109C399.844 528.772 387.755 579.371 376.064 628.304C365.809 671.22 356.124 711.757 327.351 746.61C291.059 790.569 275.942 827.087 306.077 883.67C312.846 896.38 321.426 909.768 333.076 925.798C342.439 938.62 352.473 951.367 362.174 963.693C387.711 996.138 414.12 1029.69 429.987 1066.94C437.722 1085.1 440.714 1102.39 439.136 1119.8C437.838 1134.1 433.355 1148.62 425.43 1164.18C416.129 1182.44 404.191 1198.58 390.683 1216.29C366.96 1247.38 337.366 1276.94 306.032 1308.23C302.705 1311.55 299.36 1314.89 296.004 1318.26C292.026 1322.24 287.958 1326.3 284.026 1330.21C265.277 1348.9 245.891 1368.22 227.56 1388.5C175.957 1445.59 141.35 1504.95 107.883 1562.36C102.947 1570.82 98.1814 1579.5 93.572 1587.89C90.3928 1593.67 87.1046 1599.66 83.8019 1605.5L83.3665 1605.25C86.6685 1599.41 89.9539 1593.43 93.1331 1587.65C97.7437 1579.25 102.512 1570.58 107.45 1562.1C123.885 1533.92 140.878 1504.77 160.31 1475.38C182.242 1442.22 204.118 1413.69 227.189 1388.17C245.528 1367.88 264.919 1348.55 283.672 1329.86C287.605 1325.94 291.673 1321.89 295.65 1317.9C299.006 1314.54 302.351 1311.2 305.679 1307.88C336.999 1276.6 366.586 1247.05 390.287 1215.98C403.779 1198.3 415.702 1182.18 424.985 1163.95C442.224 1130.1 443.626 1100.24 429.528 1067.14C413.687 1029.94 387.299 996.421 361.782 964.002C352.077 951.67 342.039 938.919 332.671 926.091C321.007 910.04 312.416 896.634 305.635 883.904C298.018 869.605 293.22 856.5 290.961 843.841C288.83 831.887 289.013 820.559 291.523 809.204C291.9 807.474 292.337 805.754 292.823 804.05Z" fill="white"/>
<path d="M296.788 808.036C297.057 807.092 297.343 806.149 297.648 805.207C304.213 784.823 318.062 766.463 338.277 743.449C371.111 706.068 374.691 661.229 378.48 613.758C380.422 589.427 382.43 564.269 388.421 538.853C395.198 510.099 406.272 485.074 422.273 462.343C431.414 449.357 444.005 437.245 460.763 425.318C475.644 414.726 492.26 405.377 508.004 396.711C515.759 392.442 523.704 388.107 531.389 383.915C587.113 353.521 644.736 322.09 677.869 288.902C709.585 257.133 726.179 216.467 742.224 177.141C747.162 165.039 752.268 152.525 757.679 140.678L758.085 140.864C752.679 152.702 747.574 165.212 742.638 177.31C726.574 216.676 709.963 257.383 678.185 289.217C663.298 304.13 642.211 319.966 613.715 337.629C588.31 353.376 559.482 369.1 531.603 384.307C523.919 388.499 515.974 392.832 508.22 397.1C472.957 416.513 442.178 434.841 422.637 462.599C386.948 513.299 382.871 564.387 378.927 613.792C375.133 661.339 371.547 706.25 338.614 743.742C301.622 785.857 277.726 820.272 307.375 879.822C313.884 892.895 322.185 906.462 333.507 922.519C343.067 936.022 353.438 949.399 363.469 962.336C388.318 994.387 414.011 1027.53 428.845 1064.66C436.253 1083.2 438.425 1100.65 435.488 1118.01C433.073 1132.26 427.109 1146.53 417.247 1161.62C405.368 1179.79 389.815 1196.22 376.092 1210.71L375.992 1210.81C355.381 1232.58 331.989 1253.38 307.223 1275.4C295.903 1285.46 284.196 1295.87 272.603 1306.52C249.605 1327.66 225.275 1350.68 203.162 1375.81C153.136 1433.11 123.639 1495.45 95.3955 1559.62C91.0682 1569.45 86.9643 1579.49 82.9974 1589.2C80.6804 1594.88 78.2867 1600.74 75.8779 1606.48L75.4656 1606.31C77.8715 1600.57 80.2675 1594.7 82.5838 1589.04C86.5513 1579.32 90.6558 1569.28 94.9872 1559.44C107.387 1531.27 122.097 1498.54 139.772 1466.67C159.139 1431.75 179.765 1401.93 202.828 1375.51C224.955 1350.37 249.295 1327.34 272.303 1306.19C283.899 1295.54 295.607 1285.13 306.929 1275.06C331.687 1253.05 355.073 1232.26 375.671 1210.51L375.77 1210.4C389.48 1195.93 405.019 1179.52 416.877 1161.37C430.234 1140.94 445.962 1108.7 428.434 1064.82C413.625 1027.76 387.949 994.639 363.122 962.612C353.09 949.672 342.715 936.289 333.15 922.78C321.817 906.702 313.501 893.116 306.984 880.024C293.689 853.342 290.423 830.374 296.788 808.036Z" fill="white"/>
<path d="M385.561 489.997C389.944 474.616 396.201 460.344 404.426 446.884C412.678 433.382 424.629 421.208 440.961 409.665C457.159 398.216 475.476 388.996 489.625 382.247C512.492 371.335 536.771 361.034 560.249 351.074C606.169 331.591 649.54 313.188 678.096 292.34C721.958 260.316 741.27 214.274 761.719 165.529C763.887 160.361 766.128 155.016 768.371 149.768L768.733 149.922C766.49 155.17 764.25 160.513 762.081 165.68C752.266 189.082 742.114 213.281 729.177 235.04C722.218 246.747 715.009 256.87 707.143 265.992C698.321 276.217 688.896 284.941 678.33 292.655C649.737 313.531 606.344 331.943 560.402 351.434C536.927 361.393 512.654 371.692 489.793 382.599C456.346 398.559 422.896 417.416 404.762 447.089C373.315 498.542 376.747 550.736 380.068 601.213C381.791 627.4 383.417 652.136 380.045 675.63C378.238 688.234 375.146 699.363 370.594 709.654C365.516 721.139 358.741 731.351 349.881 740.871C311.139 782.506 280.538 815.39 308.675 875.974C314.911 889.401 322.938 903.151 333.939 919.24C343.614 933.339 354.242 947.259 364.524 960.72C388.765 992.462 413.83 1025.28 427.701 1062.37C431.333 1072.08 433.483 1081.68 434.085 1090.9C434.645 1099.45 433.891 1107.98 431.843 1116.23C428.306 1130.47 420.858 1144.48 409.066 1159.05C395.27 1176.09 377.807 1191.13 362.399 1204.39L361.303 1205.33C343.759 1220.44 325.027 1234.9 305.193 1250.22C286.79 1264.43 267.762 1279.13 249.202 1294.78C219.229 1320.06 197.506 1341.13 178.762 1363.11C128.058 1422.95 103.602 1491.65 82.9009 1556.88C79.2957 1568.24 75.9567 1579.81 72.7304 1591.01C71.1731 1596.41 69.5651 1601.99 67.9501 1607.46L67.5735 1607.35C69.1885 1601.88 70.7981 1596.3 72.3554 1590.9C75.5847 1579.7 78.922 1568.13 82.5285 1556.76C92.6007 1525.02 104.018 1491.08 119.222 1457.91C136.114 1421.06 155.494 1389.97 178.464 1362.86C197.223 1340.86 218.963 1319.77 248.952 1294.48C267.52 1278.82 286.552 1264.12 304.956 1249.91C324.784 1234.6 343.513 1220.13 361.046 1205.03L362.142 1204.09C377.535 1190.83 394.984 1175.81 408.758 1158.79C434.229 1127.33 440.13 1096.73 427.331 1062.5C413.482 1025.47 388.434 992.674 364.21 960.956C353.927 947.491 343.295 933.569 333.615 919.459C322.603 903.352 314.566 889.585 308.319 876.138C280.072 815.315 310.752 782.345 349.593 740.603C386.251 701.209 383.058 652.649 379.676 601.239C378.04 576.376 376.349 550.664 379.005 524.744C380.257 512.53 382.432 500.98 385.561 489.997Z" fill="white"/>
<path d="M375.318 459.626C378.118 449.802 381.866 440.432 386.584 431.422C393.9 417.455 405.218 405.212 421.182 393.994C434.35 384.741 450.259 376.412 471.246 367.781C503.231 354.628 538.671 343.911 572.946 333.547C613.438 321.302 651.683 309.737 678.323 295.78C732.054 267.633 754.846 219.22 779.063 158.854L779.377 158.98C768.106 187.081 756.719 214.244 741.4 237.668C733.166 250.261 724.407 260.912 714.625 270.234C703.785 280.563 691.963 289.019 678.481 296.082C651.813 310.052 613.553 321.622 573.046 333.873C538.78 344.234 503.347 354.949 471.376 368.096C440.974 380.597 403.894 399.112 386.888 431.579C359.341 484.167 370.004 537.804 380.316 589.677C385.89 617.71 391.155 644.19 390.044 669.176C389.449 682.579 387.069 694.375 382.768 705.234C377.969 717.352 370.898 728.07 361.149 737.995C358.337 740.857 355.515 743.696 352.786 746.444C315.018 784.444 285.187 814.459 309.973 872.118C315.937 885.847 323.918 900.185 334.369 915.954C344.087 930.574 354.898 944.962 365.352 958.874C389.031 990.389 413.52 1022.97 426.554 1060.07C430.001 1069.99 431.83 1079.74 431.989 1089.05C432.139 1097.69 430.851 1106.24 428.165 1114.46C423.501 1128.72 414.577 1142.46 400.883 1156.46C384.97 1172.73 365.324 1186.62 347.988 1198.87L346.614 1199.84C331.919 1210.22 316.823 1220.19 300.843 1230.73C275.984 1247.13 250.278 1264.1 225.803 1283.04C195.985 1306.11 173.283 1327.52 154.361 1350.41C119.615 1392.64 99.6746 1441.33 86.0907 1489C79.7681 1511.18 74.8252 1533.14 70.4018 1554.15C67.6202 1567.35 65.141 1580.78 62.7426 1593.77C61.8546 1598.59 60.9348 1603.56 60.0155 1608.45L59.6808 1608.38C60.6023 1603.5 61.5199 1598.52 62.408 1593.71C64.8069 1580.72 67.2891 1567.28 70.0697 1554.07C77.1217 1520.58 85.4722 1484.69 98.7029 1449.12C113.141 1410.31 131.26 1377.95 154.099 1350.19C173.037 1327.28 195.755 1305.86 225.594 1282.77C250.079 1263.82 275.79 1246.85 300.655 1230.45C316.635 1219.9 331.728 1209.95 346.418 1199.56L347.791 1198.59C365.115 1186.35 384.749 1172.47 400.639 1156.22C430.315 1125.88 438.446 1095.36 426.228 1060.18C413.211 1023.13 388.74 990.571 365.076 959.078C354.619 945.162 343.804 930.771 334.081 916.142C323.62 900.356 315.63 886.001 309.657 872.253C298.245 845.705 297.658 823.243 307.815 801.564C316.992 781.972 334.258 764.598 352.54 746.204C355.268 743.459 358.09 740.62 360.902 737.758C401.239 696.689 390.911 644.741 379.976 589.742C374.896 564.192 369.643 537.771 369.115 511.176C368.749 492.585 370.79 475.516 375.318 459.626Z" fill="white"/>
<path d="M362.533 433.133C364.198 427.291 366.264 421.587 368.749 415.959C375.107 401.554 385.798 389.239 401.432 378.311C414.8 368.968 431.623 360.792 452.866 353.324C491.54 339.725 536.258 331.084 579.5 322.728C617.167 315.449 652.745 308.576 678.543 299.235C737.958 277.725 765.145 233.049 789.756 167.94L790.025 168.041C780.288 193.802 767.85 223.398 749.434 247.597C740.381 259.49 730.546 269.355 719.367 277.752C707.256 286.85 693.936 293.966 678.644 299.501C652.824 308.85 617.236 315.724 579.559 323.006C536.325 331.359 491.62 339.997 452.964 353.589C407.44 369.596 380.763 389.451 369.015 416.071C345.209 470.008 362.926 525.29 380.058 578.754C389.601 608.534 398.614 636.661 399.856 663.042C400.523 677.191 398.891 689.601 394.873 700.981C390.387 713.676 383.048 724.843 372.428 735.119C367.242 740.139 362.005 745.002 356.94 749.706C320.524 783.524 289.075 812.729 311.282 868.267C316.917 882.277 324.614 896.802 334.81 912.672C344.533 927.781 355.505 942.597 366.116 956.923C389.303 988.232 413.281 1020.61 425.42 1057.78C428.703 1067.89 430.226 1077.79 429.95 1087.19C429.693 1095.92 427.873 1104.5 424.541 1112.69C418.726 1126.97 408.319 1140.44 392.722 1153.88C374.177 1169.85 351.741 1182.87 331.948 1194.35C319.517 1201.61 306.462 1208.89 293.832 1215.93C263.277 1232.97 231.681 1250.59 202.42 1271.3C172.333 1292.7 148.635 1314.43 129.975 1337.72C79.09 1401.4 66.0977 1481.42 57.9153 1551.43C56.0723 1567.19 54.5639 1583.21 53.1064 1598.71C52.7699 1602.29 52.4317 1605.87 52.0907 1609.45L51.8062 1609.42C52.1472 1605.84 52.4854 1602.26 52.8219 1598.68C54.28 1583.18 55.7891 1567.16 57.6327 1551.39C61.4557 1518.68 66.7816 1480.44 77.2844 1443.57C77.5937 1442.49 77.9068 1441.4 78.225 1440.32C90.2138 1399.55 107.068 1365.93 129.753 1337.54C148.431 1314.23 172.146 1292.49 202.254 1271.07C231.527 1250.35 263.13 1232.72 293.693 1215.68C306.32 1208.64 319.375 1201.36 331.803 1194.1C351.587 1182.63 374.009 1169.62 392.534 1153.66C426.496 1124.41 436.86 1093.97 425.147 1057.87C413.023 1020.74 389.061 988.386 365.886 957.097C355.273 942.767 344.297 927.948 334.569 912.83C324.362 896.943 316.658 882.404 311.014 868.377C300.809 842.854 301.033 821.396 311.726 800.852C321.341 782.378 338.537 766.406 356.745 749.501C361.807 744.798 367.043 739.937 372.229 734.92C416.173 692.394 398.498 637.239 379.785 578.845C371.347 552.517 362.625 525.291 358.995 497.918C357.035 483.125 356.722 469.678 358.04 456.807C358.876 448.587 360.365 440.744 362.533 433.133Z" fill="white"/>
<path d="M348.252 408.708C349.039 405.948 349.925 403.211 350.913 400.491C361.362 371.729 390.467 351.062 439.895 337.304C483.019 325.301 536.145 320.09 583.018 315.492C619.126 311.951 653.235 308.605 678.757 302.692C748.249 286.593 777.664 240.811 800.452 177.025L800.671 177.104C787.667 213.503 774.331 238.316 757.427 257.556C737.278 280.492 711.562 295.33 678.809 302.919C653.271 308.835 619.157 312.181 583.039 315.723C536.177 320.319 483.062 325.531 439.957 337.527C390.609 351.262 361.553 371.882 351.132 400.571C331.007 455.967 355.644 513.021 379.472 568.2C393.062 599.671 405.9 629.398 409.547 657.114C411.502 671.975 410.644 684.968 406.923 696.838C402.774 710.075 395.176 721.659 383.696 732.248C376.479 738.905 369.073 745.207 361.909 751.303C324.673 782.987 292.516 810.349 312.577 864.419C324.816 897.403 346.133 926.605 366.747 954.846C378.119 970.423 389.876 986.529 399.954 1003.07C411.258 1021.61 419.211 1038.76 424.271 1055.49C429.354 1072.29 429.341 1088.25 424.238 1102.92C419.736 1115.85 411.491 1127.78 399.028 1139.38C376.184 1160.65 343.516 1176.29 317.268 1188.86C307.261 1193.65 296.912 1198.46 286.905 1203.12C220.197 1234.16 151.216 1266.25 105.575 1325.03C84.9786 1351.56 71.6012 1381.24 62.8119 1412.08C49.9592 1457.19 46.9085 1504.78 45.4131 1548.72C44.7204 1569.03 44.4372 1589.71 44.164 1609.7L44.1545 1610.46L43.9211 1610.46L43.9306 1609.7C44.2044 1589.7 44.4883 1569.03 45.181 1548.71C46.3898 1513.17 48.83 1471.45 57.7477 1431.5C67.2876 1388.77 82.8717 1353.89 105.392 1324.89C151.068 1266.07 220.074 1233.96 286.808 1202.91C296.814 1198.26 307.161 1193.44 317.167 1188.65C343.401 1176.09 376.051 1160.46 398.868 1139.22C425.373 1114.54 433.61 1087.17 424.049 1055.56C412.784 1018.31 389.283 986.116 366.558 954.985C345.935 926.732 324.607 897.517 312.357 864.503C305.202 845.217 304.669 829.317 308.628 815.414C315.802 790.231 337.725 771.581 361.757 751.132C368.918 745.038 376.323 738.738 383.537 732.084C405.221 712.084 413.41 688.274 409.316 657.152C405.672 629.468 392.842 599.756 379.259 568.301C367.528 541.135 355.397 513.042 348.726 484.829C345.12 469.584 343.423 455.733 343.538 442.488C343.637 430.588 345.188 419.462 348.252 408.708Z" fill="white"/>
</g>
</svg>
