<svg width="1714" height="640" viewBox="0 0 1714 640" fill="none" xmlns="http://www.w3.org/2000/svg">
<g style="mix-blend-mode:soft-light">
<path d="M557.266 900.419C555.348 899.423 553.468 898.357 551.623 897.224C542.224 891.445 533.888 880.848 526.14 864.832C519.212 850.51 512.867 832.05 506.743 808.397C495.318 764.272 486.454 708.956 477.068 650.388C466.171 582.406 454.905 512.108 438.506 452.089C419.908 384.024 397.432 340.413 369.794 318.756C286.765 253.702 128.255 251.382 0.889046 249.519C-46.3808 248.826 -91.0319 248.174 -124.7 244.241C-162.089 239.876 -182.844 231.839 -190.023 218.949L-189.039 218.398C-182.049 230.945 -161.565 238.8 -124.573 243.121C-90.9611 247.047 -46.3389 247.7 0.903147 248.391C113.711 250.04 250.937 252.049 338.785 297.682C350.255 303.64 360.864 310.33 370.487 317.869C385.22 329.415 398.71 347.45 410.583 371.479C421.214 392.989 430.702 419.261 439.591 451.794C456.006 511.872 467.279 582.199 478.179 650.212C487.561 708.751 496.422 764.041 507.833 808.114C513.937 831.696 520.258 850.087 527.154 864.341C534.806 880.157 543.003 890.6 552.215 896.263C581.178 914.071 618.109 914.414 665.114 897.308C706.509 882.242 749.514 856.289 791.104 831.187L791.757 830.792C838.535 802.559 893.872 770.26 949.647 744.752C1007.49 718.297 1059.1 702.194 1107.43 695.52C1158.52 688.466 1207.96 690.683 1254.39 702.107C1299.43 713.188 1340.43 732.608 1376.26 759.822C1391.29 771.231 1405.18 784.157 1417.55 798.235C1429.45 811.782 1440.33 826.829 1449.87 842.959C1467.88 873.373 1481.63 907.91 1491.91 948.542C1512.53 1030.05 1515.33 1123.86 1515.34 1204.87L1514.21 1204.87C1514.18 1040.9 1503.44 857.829 1375.58 760.724C1302.95 705.562 1207.78 682.803 1107.58 696.641C998.267 711.737 887.545 774.303 792.34 831.762L791.684 832.156C750.048 857.285 706.995 883.271 665.495 898.371C642.981 906.563 623.294 910.706 605.304 911.032C587.577 911.353 571.448 907.786 557.266 900.419Z" fill="white"/>
<path d="M561.81 889.609C558.09 887.677 554.475 885.494 550.958 883.056C540.982 876.142 531.827 864.928 522.97 848.771C515.043 834.313 507.49 816.105 499.879 793.111C485.683 750.218 473.528 697.434 460.659 641.554C446.605 580.524 432.073 517.413 413.596 461.749C399.118 418.127 378.585 364.537 348.087 337.079C280.73 276.429 162.022 259.507 54.7822 250.956C36.5031 249.496 18.47 248.273 1.03025 247.087C-41.6797 244.184 -82.024 241.441 -113.245 236.026C-147.992 230 -168.121 221.248 -176.593 208.484L-175.708 207.894C-167.411 220.399 -147.503 229.004 -113.063 234.979C-81.8975 240.385 -41.581 243.126 1.10128 246.027C18.5448 247.211 36.5817 248.44 54.8658 249.896C101.125 253.586 161.361 259.612 217.026 273.576C244.261 280.409 268.682 288.763 289.613 298.405C312.871 309.122 332.785 321.865 348.799 336.285C361.985 348.159 374.007 365.145 385.55 388.213C395.192 407.48 404.421 430.74 414.604 461.411C433.099 517.126 447.636 580.258 461.696 641.313C474.557 697.17 486.707 749.929 500.888 792.777C516.796 840.839 532.898 869.249 551.563 882.185C604.671 918.99 673.855 891.4 734.529 859.562C752.894 849.873 770.996 839.386 787.966 829.478C853.941 790.895 913.464 757.059 973.796 733.705C995.838 725.23 1017.81 718.496 1039.1 713.684C1060.33 708.888 1081.63 705.837 1102.43 704.612C1132.41 702.845 1162.31 704.431 1191.3 709.322C1222.06 714.432 1251.86 723.564 1279.88 736.463C1307.25 749.065 1333.07 765.332 1356.64 784.813C1372.08 797.523 1386.48 811.906 1399.42 827.564C1411.7 842.422 1423.1 858.949 1433.31 876.686C1454.16 912.791 1470.43 953.695 1483.03 1001.74C1493.7 1042.38 1501.82 1088.81 1507.87 1143.67C1510.53 1167.74 1512.79 1191.56 1514.59 1214.49L1513.53 1214.57C1511.73 1191.66 1509.47 1167.84 1506.82 1143.79C1493.83 1026.08 1470.88 943.862 1432.39 877.219C1411.28 840.539 1386.28 810.582 1355.96 785.635C1307.87 745.874 1252.41 720.554 1191.12 710.372C1162.21 705.493 1132.4 703.913 1102.49 705.674C1060.52 708.147 1018.54 717.64 974.177 734.698C913.916 758.023 854.436 791.839 788.5 830.395C771.52 840.31 753.406 850.8 735.02 860.5C695.149 881.423 663.787 893.439 636.323 898.313C607.465 903.435 582.951 900.591 561.81 889.609Z" fill="white"/>
<path d="M566.626 879.343C560.975 876.408 555.543 872.928 550.3 868.888C539.494 860.559 529.257 848.412 519.004 831.74C509.821 816.81 500.783 798.484 491.375 775.716C473.825 733.243 457.777 682.059 440.789 627.871C425.237 578.267 409.158 526.977 390.88 479.235C371.071 427.493 352.546 382.459 326.39 355.393C262.037 288.8 149.625 264.906 58.8836 251.531C38.9394 248.593 19.1982 246.053 0.107626 243.599C-76.2874 233.775 -142.267 225.291 -163.161 198.007L-162.368 197.398C-141.725 224.351 -75.9392 232.811 0.236907 242.604C19.3325 245.06 39.0775 247.599 59.033 250.54C119.607 259.469 166.614 270.122 206.972 284.064C231.643 292.587 253.862 302.472 273.014 313.441C294.155 325.548 312.357 339.429 327.11 354.696C339.116 367.12 350.541 384.544 362.042 407.963C371.925 428.093 381.094 450.869 391.815 478.878C410.104 526.648 426.187 577.956 441.744 627.572C458.728 681.739 474.765 732.902 492.3 775.335C511.985 822.974 530.608 852.452 550.914 868.098C593.122 900.624 648.443 897.222 730.285 857.067C749.25 847.763 768.051 837.267 784.183 828.158C788.661 825.622 793.137 823.085 797.607 820.545C854.085 788.498 912.483 755.36 970.815 734.5C1013.28 719.311 1054.7 712.512 1097.45 713.704C1125.44 714.486 1152.85 718.331 1181.26 725.458C1209.93 732.65 1237.85 743.62 1264.27 758.066C1289.82 772.04 1314.3 789.447 1337.02 809.802C1365.78 835.574 1390.4 865.932 1412.29 902.611C1433.98 938.732 1451.97 978.484 1467.3 1024.14C1480.4 1063.17 1491.62 1106.89 1501.59 1157.81C1505.68 1178.66 1509.99 1201.11 1513.85 1224.1L1512.87 1224.27C1509 1201.29 1504.7 1178.84 1500.61 1158.01C1479.24 1048.88 1451.74 970.269 1411.43 903.125C1389.6 866.532 1365.04 836.249 1336.35 810.547C1289.92 768.941 1237.65 740.639 1181.02 726.43C1152.68 719.32 1125.34 715.485 1097.42 714.707C1054.8 713.516 1013.49 720.302 971.15 735.444C912.899 756.276 854.538 789.392 798.1 821.418C793.627 823.957 789.154 826.495 784.672 829.032C768.527 838.148 749.714 848.65 730.722 857.969C691.628 877.152 660.537 887.442 632.872 890.36C607.807 892.998 585.961 889.387 566.626 879.343Z" fill="white"/>
<path d="M572.009 869.856C564.219 865.809 556.782 860.77 549.65 854.724C537.287 844.242 525.213 830.243 512.741 811.929C501.563 795.515 490.259 775.894 478.178 751.941C455.642 707.254 434 654.601 411.088 598.859C397.308 565.33 383.058 530.661 368.167 496.72C365.282 490.147 362.426 483.537 359.659 477.146C342.24 436.868 325.784 398.827 304.701 373.706C258.278 318.401 179.215 278.623 62.9921 252.098C41.1283 247.106 19.3442 242.812 -1.72079 238.656C-68.8896 225.41 -126.895 213.971 -149.735 187.523L-149.031 186.913C-126.402 213.12 -68.5415 224.532 -1.54619 237.745C19.5251 241.901 41.3142 246.198 63.1931 251.191C115.922 263.225 159.645 277.428 196.868 294.607C218.967 304.808 238.986 316.224 256.374 328.541C275.4 342.017 291.896 357.013 305.408 373.11C326.58 398.334 343.062 436.436 360.509 476.776C363.273 483.166 366.13 489.773 369.012 496.345C383.908 530.297 398.161 564.972 411.943 598.504C434.847 654.23 456.482 706.866 479.002 751.523C504.299 801.684 526.936 834.252 550.242 854.012C593.061 890.315 647.271 890.488 726.019 854.578C744.855 845.989 763.277 836.171 780.375 826.842C789.144 822.038 798.032 817.115 806.629 812.356C859.047 783.33 913.249 753.316 967.806 735.296C989.934 727.988 1011.28 723.505 1033.07 721.59C1052.55 719.876 1071.97 720.273 1092.43 722.801C1118.06 725.966 1143.82 732.115 1171.2 741.598C1223.19 759.607 1272.37 790.961 1317.37 834.787C1344.28 861 1368.44 891.667 1391.24 928.535C1433.24 995.916 1466.3 1073.26 1495.29 1171.95C1496.33 1175.5 1497.38 1179.05 1498.42 1182.6C1503.34 1199.27 1508.42 1216.5 1513.08 1233.71L1512.18 1233.96C1507.52 1216.76 1502.44 1199.53 1497.53 1182.86C1496.48 1179.31 1495.44 1175.76 1494.39 1172.22C1465.43 1073.61 1432.4 996.337 1390.45 929.028C1367.7 892.223 1343.58 861.618 1316.72 835.459C1271.82 791.729 1222.76 760.447 1170.9 742.484C1143.59 733.025 1117.88 726.888 1092.32 723.732C1049.37 718.425 1009.89 722.384 968.102 736.188C913.626 754.18 859.464 784.173 807.082 813.177C798.486 817.936 789.598 822.859 780.825 827.663C763.711 837 745.27 846.828 726.409 855.429C688.488 872.722 656.762 881.513 629.418 882.302C608.238 882.91 589.259 878.817 572.009 869.856Z" fill="white"/>
<path d="M578.122 861.339C567.95 856.056 558.275 849.144 548.996 840.559C479.858 776.599 413.261 649.688 345.447 514.205C338.244 499.818 331.576 485.314 325.126 471.288C311.41 441.456 298.454 413.281 283.007 392.029C239.461 332.12 166.817 285.233 67.0888 252.668C43.1423 244.849 19.0003 238.226 -4.34562 231.82C-32.8723 223.994 -59.8169 216.603 -82.6403 208.022C-108.22 198.408 -125.274 188.56 -136.309 177.031L-135.683 176.431C-111.728 201.46 -61.8569 215.142 -4.11419 230.983C19.243 237.392 43.3938 244.016 67.3617 251.843C167.266 284.465 240.056 331.458 283.711 391.517C299.209 412.837 312.182 441.053 325.917 470.927C332.364 484.947 339.03 499.443 346.226 513.818C414.005 649.229 480.559 776.064 549.59 839.923C593.161 880.233 646.265 883.985 721.778 852.089C741.314 843.839 760.452 834.033 776.595 825.527C788.224 819.37 799.985 812.995 811.361 806.83C861.149 779.846 912.631 751.943 964.824 736.094C1006.18 723.536 1045.15 722.203 1087.44 731.903C1110.94 737.292 1134.36 745.501 1161.16 757.737C1185.54 768.867 1209.72 783.467 1233.05 801.136C1254.84 817.636 1276.6 837.362 1297.74 859.77C1322.55 886.061 1345.58 916.147 1370.22 954.455C1393.93 991.304 1415.39 1028.79 1435.83 1069.05C1454.58 1105.96 1471.97 1144.25 1489 1186.09C1491.66 1192.62 1494.4 1199.26 1497.05 1205.67C1502.13 1217.95 1507.39 1230.66 1512.33 1243.32L1511.52 1243.64C1506.58 1230.99 1501.33 1218.28 1496.25 1206C1493.6 1199.58 1490.86 1192.95 1488.2 1186.42C1453.18 1100.39 1414.35 1024.66 1369.49 954.924C1344.88 916.662 1321.88 886.616 1297.11 860.364C1252.95 813.554 1208.36 780.243 1160.8 758.524C1134.05 746.309 1110.68 738.118 1087.25 732.744C1045.1 723.08 1006.28 724.407 965.072 736.92C912.961 752.744 861.52 780.624 811.77 807.589C800.393 813.757 788.629 820.13 776.995 826.291C760.836 834.804 741.677 844.622 722.111 852.885C684.747 868.665 653.31 875.634 626.005 874.183C608.797 873.273 592.934 869.033 578.122 861.339Z" fill="white"/>
<path d="M585.037 853.977C572.276 847.348 560.112 838.19 548.352 826.399C506.986 784.926 470.867 744.538 437.93 702.928C395.449 649.261 357.767 593.249 322.731 531.689C311.333 511.662 301.686 490.955 292.358 470.93C282.049 448.801 272.313 427.898 261.323 410.351C209.614 327.79 129.39 279.338 71.1933 253.229C45.1165 241.531 18.272 231.886 -7.69103 222.556C-31.5537 213.982 -54.0934 205.883 -73.8745 196.95C-96.0973 186.914 -111.674 177.249 -122.893 166.533L-122.338 165.954C-97.9118 189.288 -53.9558 205.08 -7.41677 221.801C18.56 231.136 45.4209 240.786 71.5227 252.497C110.181 269.84 145.5 291.131 176.497 315.776C211.582 343.674 240.352 375.352 262.003 409.922C273.019 427.511 282.766 448.436 293.086 470.586C302.409 490.597 312.047 511.289 323.428 531.288C404.77 674.205 491.078 767.835 548.919 825.828C593.954 870.982 644.377 878.091 717.519 849.597C737.758 841.715 757.691 831.886 772.798 824.207C786.487 817.208 800.308 809.865 813.672 802.765C861.625 777.289 911.214 750.946 961.826 736.887C984.33 730.636 1005.65 728.217 1027.01 729.487C1045.07 730.559 1063.2 734.328 1082.44 741.006C1109.69 750.464 1133.45 763.543 1151.11 773.883C1193.4 798.644 1234.94 834.911 1278.11 884.755C1306.5 917.538 1331.01 953.082 1349.19 980.381C1401.95 1059.61 1445.63 1131.53 1482.7 1200.25C1486.87 1207.97 1491.19 1215.77 1495.37 1223.31C1500.74 1232.98 1506.28 1242.99 1511.57 1252.95L1510.86 1253.32C1505.58 1243.37 1500.03 1233.36 1494.67 1223.69C1490.49 1216.16 1486.17 1208.36 1482 1200.63C1444.93 1131.93 1401.27 1060.04 1348.52 980.829C1330.35 953.546 1305.86 918.033 1277.5 885.282C1234.4 835.504 1192.92 799.293 1150.7 774.575C1133.07 764.254 1109.36 751.2 1082.17 741.765C1041.26 727.568 1003.09 726.265 962.041 737.667C911.512 751.699 861.965 778.022 814.048 803.478C800.68 810.58 786.856 817.924 773.161 824.926C758.036 832.616 738.079 842.454 717.809 850.349C680.909 864.722 649.772 869.853 622.618 866.026C609.465 864.176 596.989 860.186 585.037 853.977Z" fill="white"/>
<path d="M592.496 847.879C588.879 846 585.298 843.911 581.73 841.6C570.227 834.153 559.098 824.549 547.709 812.242C524.465 787.127 498.766 763.981 471.56 739.476C443.644 714.335 414.777 688.335 385.732 657.702C352.757 622.921 324.718 587.421 300.014 549.169C284.342 524.902 272.434 498.598 260.916 473.158C253.742 457.31 246.965 442.342 239.644 428.678C201.025 356.605 142.66 294.495 75.3013 253.792C47.2034 236.812 17.2328 223.339 -11.755 210.31C-49.7245 193.242 -85.5879 177.122 -109.474 156.04L-108.986 155.485C-85.1832 176.496 -49.3687 192.594 -11.453 209.637C17.5548 222.676 47.5479 236.161 75.6833 253.16C108.019 272.701 138.479 297.329 166.214 326.363C195.596 357.12 220.52 391.426 240.295 428.33C247.63 442.016 254.41 456.995 261.592 472.854C273.097 498.269 284.995 524.549 300.636 548.767C355.864 634.278 417.593 689.874 472.058 738.927C499.278 763.442 524.988 786.598 548.253 811.739C594.869 862.111 642.677 872.359 713.267 847.115C734.044 839.686 753.968 830.267 769.007 822.895C784.264 815.369 799.642 807.357 814.513 799.605C861.125 775.312 909.322 750.192 958.835 737.693C981.627 731.938 1002.94 730.542 1023.98 733.422C1041.5 735.82 1058.98 741.281 1077.43 750.116C1101.37 761.581 1123.03 776.724 1141.06 790.029C1161.22 804.908 1181.1 822.615 1201.83 844.165C1219.51 862.538 1238.04 883.988 1258.47 909.741C1282.46 939.97 1304.96 972.628 1326.72 1004.21L1328.17 1006.31C1356.73 1047.77 1384.78 1086.57 1411.9 1124.09C1434.44 1155.27 1455.73 1184.73 1476.41 1214.4C1482.09 1222.55 1487.98 1230.7 1493.67 1238.58C1499.33 1246.41 1505.18 1254.51 1510.81 1262.58L1510.2 1263C1504.58 1254.94 1498.73 1246.85 1493.08 1239.02C1487.38 1231.13 1481.49 1222.98 1475.81 1214.83C1455.14 1185.15 1433.85 1155.7 1411.31 1124.52C1384.18 1087 1356.13 1048.2 1327.56 1006.73L1326.12 1004.63C1304.36 973.055 1281.87 940.408 1257.9 910.2C1214.17 855.083 1178 818.205 1140.62 790.623C1122.62 777.339 1101 762.219 1077.11 750.781C1037.21 731.675 1000.79 727.86 959.017 738.407C909.587 750.886 861.428 775.988 814.856 800.26C799.981 808.013 784.601 816.028 769.336 823.559C754.279 830.941 734.33 840.37 713.518 847.811C694.893 854.471 678.199 858.51 662.479 860.154C646.951 861.777 632.817 861.02 619.272 857.835C609.983 855.653 601.142 852.37 592.496 847.879Z" fill="white"/>
<path d="M599.849 842.757C593.12 839.261 586.513 835.012 579.904 829.938C569.229 821.741 558.486 811.321 547.067 798.085C516.169 762.267 478.357 736.866 438.327 709.974C411.694 692.082 384.155 673.58 356.875 650.862C325.979 625.13 299.949 597.583 277.296 566.647C257.1 539.065 243.588 507.037 230.522 476.064C226.24 465.912 222.193 456.324 217.966 447.009C180.717 364.954 131.511 296.532 79.4115 254.349C49.6609 230.259 15.9635 212.103 -16.6235 194.543C-46.2369 178.585 -74.2049 163.514 -96.0609 145.537L-95.6352 145.017C-73.8302 162.951 -45.8873 178.01 -16.3051 193.949C16.3094 211.523 50.033 229.696 79.8335 253.825C106.153 275.134 131.736 303.089 155.876 336.911C179.295 369.722 200.389 406.668 218.576 446.728C222.809 456.05 226.854 465.643 231.139 475.799C244.192 506.737 257.688 538.728 277.837 566.248C328.412 635.323 384.481 672.989 438.701 709.414C478.77 736.334 516.617 761.758 547.575 797.646C587.849 844.333 630.716 870.19 709.005 844.63C725.615 839.207 742.948 832.098 765.207 821.583C781.71 813.737 798.313 805.245 814.369 797.034C859.958 773.713 907.101 749.601 955.83 738.494C978.952 733.225 1000.25 732.85 1020.94 737.345C1038.01 741.054 1054.84 748.212 1072.4 759.23C1094.44 773.061 1113.42 790.008 1130.98 806.18C1167.47 839.795 1200.48 881.879 1238.83 934.726C1251.68 952.439 1264.43 970.891 1276.76 988.737C1286.62 1003.01 1296.82 1017.76 1307.13 1032.24C1354.32 1098.49 1403.45 1153.68 1450.96 1207.04C1457.26 1214.12 1463.78 1221.44 1470.1 1228.58C1477.33 1236.74 1484.83 1244.83 1492.07 1252.65C1497.99 1259.04 1504.11 1265.64 1510.03 1272.22L1509.53 1272.67C1503.61 1266.09 1497.5 1259.49 1491.58 1253.11C1484.33 1245.28 1476.84 1237.19 1469.6 1229.02C1463.28 1221.89 1456.76 1214.57 1450.46 1207.49C1402.94 1154.11 1353.79 1098.91 1306.58 1032.63C1296.27 1018.15 1286.07 1003.39 1276.21 989.118C1263.88 971.276 1251.13 952.825 1238.28 935.118C1199.96 882.305 1166.98 840.249 1130.52 806.671C1112.99 790.52 1094.03 773.595 1072.04 759.795C1033.96 735.902 998.166 729.533 955.978 739.146C907.33 750.232 860.227 774.327 814.674 797.628C798.612 805.842 782.008 814.337 765.494 822.187C743.208 832.716 725.851 839.835 709.212 845.266C690.483 851.379 673.76 854.661 658.081 855.303C642.957 855.921 629.17 854.057 615.938 849.607C610.467 847.769 605.12 845.495 599.849 842.757Z" fill="white"/>
<path d="M606.829 838.56C582.256 825.795 562.592 803.953 546.428 783.928C512.055 741.346 466.255 720.01 417.769 697.419C390.527 684.728 362.358 671.603 334.679 654.048C303.356 634.184 277.155 611.308 254.577 584.117C229.424 553.823 215.01 515.3 201.068 478.046C199.501 473.859 197.881 469.529 196.291 465.338C158.259 365.111 121.377 296.276 83.5313 254.9C52.9129 221.423 14.5908 197.8 -22.4688 174.956C-44.0596 161.648 -64.4539 149.077 -82.6507 135.026L-82.2799 134.545C-64.1092 148.572 -43.7274 161.137 -22.1516 174.437C14.9442 197.303 53.3 220.947 83.9779 254.486C104.647 277.083 125.352 308.345 145.518 347.401C162.454 380.2 179.246 418.708 196.859 465.119C198.45 469.309 200.07 473.639 201.636 477.827C215.559 515.032 229.954 553.506 255.042 583.723C305.42 644.399 362.664 671.069 418.023 696.861C466.576 719.484 512.436 740.851 546.9 783.54C590.366 837.383 630.128 864.234 704.746 842.138C721.508 837.175 739.515 830.223 761.412 820.26C778.936 812.239 796.534 803.402 813.552 794.857C858.344 772.366 904.661 749.106 952.83 739.286C976.308 734.498 997.595 735.138 1017.91 741.243C1034.61 746.261 1050.79 755.12 1067.37 768.327C1086.83 783.826 1103.13 801.946 1120.91 822.312C1152.13 858.082 1180.09 900.461 1209.7 945.329C1212.84 950.095 1216 954.884 1219.19 959.693C1222.96 965.392 1226.79 971.215 1230.5 976.844C1248.16 1003.68 1266.44 1031.43 1286.1 1058.16C1341.47 1133.41 1403.66 1188.99 1463.81 1242.74C1472.68 1250.66 1481.84 1258.44 1490.7 1265.96C1496.81 1271.15 1503.13 1276.51 1509.27 1281.86L1508.87 1282.32C1502.73 1276.97 1496.42 1271.61 1490.3 1266.42C1481.44 1258.9 1472.28 1251.12 1463.41 1243.19C1433.87 1216.8 1403.33 1189.5 1373.1 1159.25C1338.98 1125.11 1310.37 1092.16 1285.62 1058.52C1265.94 1031.78 1247.66 1004.02 1229.99 977.178C1226.28 971.549 1222.45 965.726 1218.68 960.028C1215.5 955.22 1212.33 950.429 1209.19 945.664C1179.59 900.813 1151.64 858.447 1120.45 822.71C1102.69 802.366 1086.41 784.269 1066.99 768.801C1030.92 740.074 995.745 731.153 952.951 739.879C904.862 749.685 858.581 772.925 813.823 795.399C796.798 803.946 779.195 812.787 761.662 820.813C739.737 830.786 721.706 837.748 704.917 842.72C686.06 848.306 669.308 850.829 653.703 850.44C638.968 850.071 625.539 847.102 612.644 841.358C610.677 840.489 608.738 839.551 606.829 838.56Z" fill="white"/>
<path d="M612.534 834.811C611.476 834.261 610.424 833.693 609.378 833.102C586.728 820.341 568.256 799.409 545.794 769.775C509.31 721.643 456.851 706.492 401.31 690.454C372.843 682.233 343.409 673.732 314.635 660.433C282.082 645.387 255.008 626.137 231.86 601.584C218.635 587.557 207.288 569.64 197.174 546.811C188.191 526.538 181.108 504.504 174.625 483.673C171.432 473.413 168.206 462.91 165.087 452.752C142.474 379.091 119.09 302.921 87.6661 255.451C57.5854 210.012 13.2495 180.396 -29.6251 151.759C-42.8202 142.946 -56.4633 133.834 -69.2393 124.52L-68.9196 124.082C-56.1523 133.388 -42.5142 142.498 -29.3242 151.308C13.5941 179.977 57.9749 209.623 88.1172 255.151C102.238 276.481 115.95 305.408 130.035 343.591C142.593 377.633 154.291 415.74 165.606 452.592C168.725 462.75 171.948 473.252 175.141 483.512C189.664 530.168 203.986 571.228 232.253 601.213C283.884 655.977 343.656 673.237 401.459 689.929C457.088 705.992 509.633 721.168 546.225 769.446C587.328 823.674 622.456 860.456 700.485 839.658C717.615 835.093 735.768 828.515 757.616 818.95C775.999 810.86 794.429 801.774 812.252 792.987C856.409 771.218 902.068 748.71 949.831 740.087C973.684 735.781 994.968 737.437 1014.9 745.146C1031.27 751.482 1046.78 762.04 1062.33 777.435C1081.07 795.98 1096.82 818.468 1110.73 838.311L1110.83 838.455C1131.71 868.256 1150.76 901.131 1170.93 935.936C1180.15 951.845 1189.69 968.296 1199.55 984.673C1219.1 1017.16 1240.56 1051.69 1265.08 1084.09C1321.08 1157.52 1388.06 1207.74 1457.52 1256.92C1468.16 1264.46 1479.11 1271.78 1489.7 1278.86C1495.88 1282.99 1502.27 1287.26 1508.51 1291.52L1508.21 1291.97C1501.97 1287.71 1495.58 1283.44 1489.4 1279.31C1478.8 1272.23 1467.86 1264.91 1457.2 1257.36C1426.71 1235.77 1391.37 1210.33 1357.75 1181.56C1320.92 1150.05 1290.47 1118.27 1264.65 1084.42C1240.12 1052 1218.64 1017.45 1199.08 984.95C1189.22 968.569 1179.69 952.115 1170.47 936.205C1150.3 901.41 1131.25 868.544 1110.38 838.763L1110.29 838.619C1096.4 818.796 1080.65 796.328 1061.96 777.817C1040.9 756.966 1006.37 730.428 949.931 740.616C902.245 749.225 856.619 771.719 812.495 793.466C794.668 802.255 776.231 811.343 757.839 819.438C735.964 829.011 717.786 835.601 700.631 840.172C665.666 849.503 637.555 847.808 612.534 834.811Z" fill="white"/>
<path d="M255.832 651.965C238.604 643.016 223.149 632.107 209.139 619.055C195.083 605.96 183.507 588.789 173.746 566.56C164.065 544.513 157.548 520.487 152.958 502.019C145.534 472.171 139.182 440.793 133.038 410.449C121.021 351.1 109.669 295.044 91.8102 256.017C64.377 196.069 14.3083 161.914 -38.701 125.752C-44.3202 121.917 -50.1328 117.954 -55.8297 114.012L-55.5587 113.618C-49.8617 117.56 -44.0516 121.523 -38.4325 125.357C-12.9839 142.717 13.3318 160.669 36.0682 181.342C48.3023 192.464 58.5907 203.497 67.5288 215.068C77.548 228.044 85.6335 241.374 92.2422 255.815C110.126 294.894 121.482 350.977 133.503 410.354C139.646 440.694 145.999 472.066 153.418 501.905C164.275 545.563 178.576 589.929 209.463 618.705C263.02 668.606 325.932 677.205 386.775 685.517C418.34 689.83 448.155 693.904 475.279 703.622C489.83 708.834 502.316 715.214 513.45 723.128C525.877 731.959 536.377 742.498 545.547 755.347C585.655 811.541 617.332 855.924 696.224 837.177C713.709 833.022 732.013 826.815 753.821 817.64C772.94 809.557 792.079 800.299 810.586 791.339C854.228 770.219 899.352 748.38 946.831 740.892C959.268 738.932 971.208 738.708 982.317 740.23C992.628 741.643 1002.58 744.609 1011.89 749.049C1027.97 756.715 1042.83 768.978 1057.29 786.542C1074.21 807.092 1087.85 831.513 1099.88 853.061L1100.74 854.594C1114.44 879.13 1127.1 904.923 1140.5 932.234C1152.93 957.575 1165.78 983.776 1179.9 1009.65C1202.68 1051.44 1222.47 1082.4 1244.05 1110.03C1302.91 1184.87 1378.67 1230.65 1451.23 1271.12C1463.86 1278.17 1476.82 1284.95 1489.35 1291.51C1495.39 1294.67 1501.64 1297.94 1507.76 1301.19L1507.53 1301.61C1501.41 1298.36 1495.17 1295.09 1489.13 1291.93C1476.6 1285.37 1463.64 1278.58 1451 1271.53C1415.69 1251.84 1378.09 1230.02 1342.34 1203.88C1302.61 1174.83 1270.34 1144.23 1243.67 1110.32C1222.07 1082.67 1202.27 1051.69 1179.48 1009.88C1165.36 983.989 1152.5 957.783 1140.07 932.441C1126.67 905.137 1114.02 879.348 1100.32 854.826L1099.46 853.293C1087.44 831.765 1073.81 807.363 1056.92 786.847C1025.68 748.908 990.717 734.455 946.903 741.365C899.497 748.84 854.4 770.664 810.791 791.77C792.278 800.73 773.136 809.993 754.004 818.078C732.171 827.263 713.845 833.477 696.333 837.641C617.129 856.461 585.369 811.962 545.158 755.625C507.21 702.455 448.678 694.456 386.711 685.989C356.742 681.895 325.75 677.66 295.567 668.204C281.344 663.748 268.135 658.356 255.832 651.965Z" fill="white"/>
<path d="M217.223 656.77C206.218 651.053 195.984 644.319 186.415 636.518C171.58 624.424 159.768 607.989 150.303 586.276C142.497 568.367 136.455 547.421 131.289 520.364C123.415 479.127 119.278 434.371 115.278 391.089C110.551 339.953 106.086 291.657 95.9584 256.582C75.5339 185.838 23.4893 146.968 -42.4249 103.501L-42.1988 103.158C-11.5143 123.389 18.0253 143.532 42.1644 167.442C55.1416 180.295 65.6825 193.3 74.3933 207.199C84.0449 222.601 91.23 238.716 96.3549 256.466C106.492 291.578 110.959 339.895 115.689 391.048C119.689 434.321 123.824 479.066 131.695 520.286C139.177 559.482 152.191 608.082 186.675 636.195C242.529 681.735 308.914 682.082 373.116 682.418C407.812 682.599 440.585 682.77 470.033 690.161C485.829 694.125 499.281 699.821 511.152 707.574C524.399 716.226 535.428 727.24 544.865 741.246C547.585 745.286 550.276 749.332 552.881 753.245C588.904 807.397 617.356 850.168 691.955 834.696C709.733 830.937 728.724 824.929 750.018 816.328C769.767 808.322 789.507 798.959 808.593 789.906C851.828 769.398 896.533 748.188 943.821 741.697C956.461 740.008 968.501 740.201 979.608 742.272C989.925 744.194 999.781 747.803 1008.9 752.993C1024.73 762.004 1038.9 775.956 1052.23 795.646C1067.72 818.525 1079.46 845.265 1089.82 868.859L1090.64 870.729C1099.42 890.73 1107.6 911.105 1116.26 932.672C1129.73 966.224 1143.66 1000.92 1160.24 1034.63C1180.44 1075.7 1200.39 1107.9 1223.02 1135.97C1264.81 1187.55 1317.87 1223.1 1371.26 1250.83C1396.12 1263.74 1421.04 1274.96 1444.94 1285.32C1459.97 1291.84 1475.34 1298.05 1490.21 1304.06C1495.72 1306.28 1501.41 1308.58 1507 1310.86L1506.85 1311.25C1501.26 1308.96 1495.56 1306.66 1490.05 1304.44C1475.19 1298.43 1459.81 1292.21 1444.77 1285.7C1406.65 1269.17 1365.99 1250.52 1326.9 1226.15C1284.25 1199.54 1250.16 1170.13 1222.7 1136.23C1200.05 1108.14 1180.08 1075.91 1159.87 1034.81C1143.29 1001.09 1129.35 966.386 1115.88 932.827C1107.22 911.259 1099.04 890.89 1090.26 870.895L1089.44 869.025C1079.09 845.447 1067.35 818.724 1051.89 795.878C1023 753.21 988.678 736.125 943.872 742.111C896.649 748.594 851.974 769.789 808.769 790.283C789.677 799.34 769.933 808.707 750.172 816.717C728.855 825.324 709.841 831.34 692.038 835.104C657.69 842.228 630.833 837.469 607.515 820.123C586.442 804.449 569.973 779.692 552.537 753.48C549.935 749.568 547.243 745.522 544.523 741.482C505.475 683.53 441.181 683.194 373.11 682.838C341.487 682.674 308.788 682.503 277.027 676.67C254.827 672.589 235.022 666.015 217.223 656.77Z" fill="white"/>
<path d="M182.606 665.541C176.062 662.141 169.78 658.299 163.69 653.975C148.102 642.915 136.052 627.208 126.852 605.957C118.987 587.788 113.351 565.794 109.628 538.714C102.849 489.413 103.436 434.127 104.002 380.666C104.494 334.098 104.963 290.113 100.12 257.16C88.9708 181.269 42.4389 138.079 -29.0212 92.9909L-28.8362 92.6959C-0.561544 110.534 31.6173 132.518 55.9246 160.3C67.8714 173.956 77.2146 188.05 84.4864 203.386C92.3647 220.001 97.5921 237.572 100.46 257.105C105.307 290.085 104.838 334.083 104.346 380.663C103.779 434.115 103.192 489.384 109.967 538.661C117.947 596.695 135.081 633.247 163.888 653.687C222.256 695.103 292.31 687.462 360.061 680.073C397.799 675.958 433.442 672.07 465.121 677.002C482.111 679.646 496.475 684.601 509.033 692.145C523.042 700.564 534.541 712.006 544.184 727.133C548.894 734.522 553.406 741.931 557.77 749.098C589.146 800.625 616.242 845.125 687.692 832.205C705.724 828.906 724.869 823.28 746.221 815.008C766.554 807.114 786.841 797.664 806.458 788.524C849.329 768.552 893.659 747.897 940.816 742.49C953.648 741.043 965.79 741.636 976.901 744.247C987.223 746.673 996.982 750.922 1005.91 756.874C1021.49 767.26 1034.98 782.911 1047.17 804.726C1061.67 830.663 1071.7 860.51 1080.55 886.84C1086.16 903.388 1091.65 920.685 1096.95 937.417C1109.8 977.897 1123.08 1019.76 1140.6 1059.59C1158.75 1100.57 1178.83 1134.04 1202 1161.89C1265.38 1237.88 1357.4 1272.77 1438.67 1299.51C1456.97 1305.53 1475.66 1311.22 1493.74 1316.72C1497.92 1317.99 1502.09 1319.26 1506.27 1320.53L1506.17 1320.87C1501.99 1319.59 1497.82 1318.32 1493.64 1317.05C1475.56 1311.55 1456.86 1305.86 1438.56 1299.84C1400.58 1287.34 1356.39 1271.72 1315.1 1250.27C1313.88 1249.64 1312.67 1249.01 1311.46 1248.36C1265.88 1224.2 1229.98 1195.99 1201.73 1162.11C1178.55 1134.23 1158.45 1100.74 1140.28 1059.73C1122.75 1019.88 1109.47 978.012 1096.62 937.522C1091.32 920.793 1085.83 903.497 1080.22 886.953C1071.37 860.635 1061.35 830.807 1046.87 804.897C1020.33 757.397 986.643 737.675 940.859 742.836C893.756 748.237 849.452 768.876 806.608 788.84C786.987 797.981 766.695 807.436 746.351 815.333C724.975 823.614 705.812 829.244 687.757 832.551C654.922 838.488 629.455 833.008 607.619 815.299C587.981 799.375 573.162 775.043 557.479 749.28C553.115 742.117 548.606 734.709 543.898 727.322C503.994 664.725 434.101 672.349 360.103 680.42C326.739 684.06 292.239 687.819 258.801 685.487C240.73 684.225 224.661 681.331 209.673 676.636C200.099 673.645 191.132 669.969 182.606 665.541Z" fill="white"/>
<path d="M150.087 676.593C146.995 674.987 143.955 673.268 140.96 671.432C109.289 652.017 91.779 612.379 87.423 550.25C83.6237 496.044 90.3315 431.591 96.2494 374.724C100.809 330.918 105.116 289.537 104.283 257.745C102.018 171.183 54.7111 125.076 -15.6182 82.4765L-15.4706 82.2352C24.6617 106.545 50.9339 128.434 69.711 153.212C92.0963 182.749 103.497 216.94 104.565 257.739C105.398 289.55 101.091 330.938 96.5289 374.755C90.6111 431.609 83.9073 496.048 87.7033 550.23C92.0508 612.26 109.518 651.828 141.108 671.191C202.105 708.584 275.949 693.142 347.365 678.207C388.098 669.688 426.573 661.64 460.423 664.036C478.574 665.321 493.819 669.497 507.032 676.806C521.769 684.957 533.7 696.809 543.505 713.034C549.67 723.236 555.367 733.575 560.877 743.576C589.515 795.561 614.247 840.454 683.429 829.729C725.633 823.186 765.543 804.926 804.14 787.268C825.429 777.528 847.442 767.457 869.558 759.487C894.36 750.547 916.687 745.254 937.816 743.3C959.039 741.337 978.014 745.229 994.22 754.862C1008.51 763.358 1020.69 776.062 1031.47 793.705C1051.22 826.041 1061.88 868.694 1070.45 902.966C1073.71 916.032 1076.93 929.51 1080.03 942.543C1100.75 1029.42 1122.16 1119.26 1180.98 1187.83C1207.52 1218.77 1239.58 1241.89 1274.13 1259.84C1324.65 1286.08 1380.52 1301.27 1432.41 1313.72C1456.41 1319.48 1480.93 1324.84 1504.64 1330.02L1505.54 1330.22L1505.48 1330.5L1504.58 1330.3C1480.86 1325.12 1456.34 1319.76 1432.34 1314C1390.36 1303.92 1341.34 1290.89 1295.99 1270.58C1247.49 1248.85 1209.79 1221.84 1180.77 1188.01C1121.9 1119.4 1100.48 1029.52 1079.76 942.609C1076.66 929.576 1073.44 916.101 1070.18 903.036C1061.61 868.783 1050.95 826.153 1031.23 793.854C1008.31 756.334 977.77 739.89 937.844 743.582C890.802 747.93 846.807 768.062 804.259 787.528C765.646 805.193 725.718 823.463 683.476 830.012C658.799 833.837 639.758 830.608 624.185 822.521C595.975 807.871 579.119 777.267 560.636 743.715C555.127 733.718 549.434 723.38 543.272 713.184C524.752 682.535 498.423 667.011 460.412 664.32C426.601 661.928 388.146 669.97 347.434 678.484C312.274 685.837 275.914 693.441 240.737 694.522C221.73 695.107 204.844 693.76 189.118 690.406C174.988 687.398 162.132 682.85 150.087 676.593Z" fill="white"/>
</g>
</svg>
