<svg width="129" height="122" viewBox="0 0 129 122" fill="none" xmlns="http://www.w3.org/2000/svg">
<g clip-path="url(#clip0_1893_13)">
<path d="M5.51103 119.247C5.51103 119.977 5.22072 120.677 4.70396 121.194C4.1872 121.71 3.48632 122 2.75551 122C2.02471 122 1.32383 121.71 0.807071 121.194C0.290312 120.677 4.66137e-09 119.977 4.66137e-09 119.247C-4.24056e-05 118.513 0.28931 117.81 0.805226 117.289C1.32114 116.768 2.02197 116.471 2.75551 116.463C3.48906 116.471 4.18989 116.768 4.7058 117.289C5.22172 117.81 5.51107 118.513 5.51103 119.247Z" fill="#042EFF" fill-opacity="0.15"/>
<path d="M23.1515 119.247C23.1456 119.79 22.979 120.319 22.6726 120.768C22.3663 121.217 21.9339 121.565 21.4299 121.769C20.9259 121.973 20.3728 122.023 19.8403 121.914C19.3077 121.804 18.8196 121.539 18.4372 121.153C18.0548 120.767 17.7953 120.276 17.6914 119.743C17.5875 119.21 17.6438 118.657 17.8532 118.156C18.0626 117.655 18.4158 117.226 18.8683 116.925C19.3207 116.624 19.8523 116.463 20.396 116.463C20.7604 116.463 21.1211 116.535 21.4574 116.675C21.7937 116.816 22.0988 117.021 22.3551 117.28C22.6114 117.539 22.8137 117.846 22.9504 118.184C23.0871 118.521 23.1555 118.882 23.1515 119.247Z" fill="#042EFF" fill-opacity="0.15"/>
<path d="M40.7921 119.247C40.7862 119.79 40.6196 120.319 40.3132 120.768C40.0069 121.217 39.5745 121.565 39.0705 121.769C38.5665 121.973 38.0134 122.023 37.4809 121.914C36.9484 121.804 36.4602 121.539 36.0778 121.153C35.6954 120.767 35.436 120.276 35.332 119.743C35.2281 119.21 35.2844 118.657 35.4938 118.156C35.7032 117.655 36.0564 117.226 36.5089 116.925C36.9613 116.624 37.4929 116.463 38.0366 116.463C38.401 116.463 38.7618 116.535 39.0981 116.675C39.4343 116.816 39.7394 117.021 39.9957 117.28C40.252 117.539 40.4543 117.846 40.591 118.184C40.7277 118.521 40.7961 118.882 40.7921 119.247Z" fill="#042EFF" fill-opacity="0.15"/>
<path d="M58.4367 119.247C58.4307 119.79 58.2641 120.319 57.9578 120.768C57.6514 121.217 57.219 121.565 56.715 121.769C56.211 121.973 55.658 122.023 55.1254 121.914C54.5929 121.804 54.1047 121.539 53.7223 121.153C53.34 120.767 53.0805 120.276 52.9766 119.743C52.8727 119.21 52.929 118.657 53.1384 118.156C53.3478 117.655 53.7009 117.226 54.1534 116.925C54.6059 116.624 55.1374 116.463 55.6811 116.463C56.0455 116.463 56.4063 116.535 56.7426 116.675C57.0789 116.816 57.384 117.021 57.6402 117.28C57.8965 117.539 58.0989 117.846 58.2356 118.184C58.3723 118.521 58.4406 118.882 58.4367 119.247Z" fill="#042EFF" fill-opacity="0.15"/>
<path d="M76.0773 119.247C76.0714 119.79 75.9047 120.319 75.5984 120.768C75.292 121.217 74.8597 121.565 74.3557 121.769C73.8517 121.973 73.2986 122.023 72.7661 121.914C72.2335 121.804 71.7454 121.539 71.363 121.153C70.9806 120.767 70.7211 120.276 70.6172 119.743C70.5133 119.21 70.5696 118.657 70.779 118.156C70.9884 117.655 71.3416 117.226 71.794 116.925C72.2465 116.624 72.778 116.463 73.3218 116.463C73.6861 116.463 74.0469 116.535 74.3832 116.675C74.7195 116.816 75.0246 117.021 75.2809 117.28C75.5371 117.539 75.7395 117.846 75.8762 118.184C76.0129 118.521 76.0812 118.882 76.0773 119.247Z" fill="#042EFF" fill-opacity="0.15"/>
<path d="M93.7179 119.247C93.712 119.79 93.5454 120.319 93.239 120.768C92.9327 121.217 92.5003 121.565 91.9963 121.769C91.4923 121.973 90.9392 122.023 90.4067 121.914C89.8742 121.804 89.386 121.539 89.0036 121.153C88.6212 120.767 88.3617 120.276 88.2578 119.743C88.1539 119.21 88.2102 118.657 88.4196 118.156C88.629 117.655 88.9822 117.226 89.4347 116.925C89.8871 116.624 90.4187 116.463 90.9624 116.463C91.3268 116.463 91.6876 116.535 92.0238 116.675C92.3601 116.816 92.6652 117.021 92.9215 117.28C93.1778 117.539 93.3801 117.846 93.5168 118.184C93.6535 118.521 93.7219 118.882 93.7179 119.247Z" fill="#042EFF" fill-opacity="0.15"/>
<path d="M111.359 119.247C111.353 119.79 111.186 120.319 110.88 120.768C110.573 121.217 110.141 121.565 109.637 121.769C109.133 121.973 108.58 122.023 108.047 121.914C107.515 121.804 107.027 121.539 106.644 121.153C106.262 120.767 106.002 120.276 105.898 119.743C105.795 119.21 105.851 118.657 106.06 118.156C106.27 117.655 106.623 117.226 107.075 116.925C107.528 116.624 108.059 116.463 108.603 116.463C108.967 116.463 109.328 116.535 109.664 116.675C110.001 116.816 110.306 117.021 110.562 117.28C110.818 117.539 111.021 117.846 111.157 118.184C111.294 118.521 111.362 118.882 111.359 119.247Z" fill="#042EFF" fill-opacity="0.15"/>
<path d="M128.999 119.247C128.993 119.79 128.827 120.319 128.52 120.768C128.214 121.217 127.782 121.565 127.278 121.769C126.774 121.973 126.22 122.023 125.688 121.914C125.155 121.804 124.667 121.539 124.285 121.153C123.902 120.767 123.643 120.276 123.539 119.743C123.435 119.21 123.491 118.657 123.701 118.156C123.91 117.655 124.263 117.226 124.716 116.925C125.168 116.624 125.7 116.463 126.244 116.463C126.608 116.463 126.969 116.535 127.305 116.675C127.641 116.816 127.946 117.021 128.203 117.28C128.459 117.539 128.661 117.846 128.798 118.184C128.935 118.521 129.003 118.882 128.999 119.247Z" fill="#042EFF" fill-opacity="0.15"/>
<path d="M5.51103 102.605C5.51103 103.149 5.34942 103.682 5.04664 104.135C4.74386 104.587 4.31351 104.94 3.81 105.149C3.3065 105.357 2.75246 105.412 2.21794 105.306C1.68342 105.199 1.19244 104.937 0.807073 104.552C0.421707 104.167 0.15927 103.676 0.0529477 103.142C-0.0533745 102.608 0.00119392 102.054 0.209752 101.551C0.418311 101.048 0.771492 100.618 1.22463 100.315C1.67778 100.013 2.21053 99.8511 2.75552 99.8511C3.48632 99.8511 4.1872 100.141 4.70396 100.658C5.22072 101.174 5.51103 101.874 5.51103 102.605Z" fill="#042EFF" fill-opacity="0.15"/>
<path d="M23.1517 102.605C23.1517 103.149 22.99 103.682 22.6873 104.135C22.3845 104.587 21.9541 104.94 21.4506 105.149C20.9471 105.357 20.3931 105.412 19.8586 105.306C19.324 105.199 18.8331 104.937 18.4477 104.552C18.0623 104.167 17.7999 103.676 17.6936 103.142C17.5873 102.608 17.6418 102.054 17.8504 101.551C18.0589 101.048 18.4121 100.618 18.8653 100.315C19.3184 100.013 19.8512 99.8511 20.3961 99.8511C21.1269 99.8511 21.8278 100.141 22.3446 100.658C22.8613 101.174 23.1517 101.874 23.1517 102.605Z" fill="#042EFF" fill-opacity="0.15"/>
<path d="M40.7923 102.605C40.7923 103.149 40.6307 103.682 40.3279 104.135C40.0251 104.587 39.5948 104.94 39.0913 105.149C38.5877 105.357 38.0337 105.412 37.4992 105.306C36.9647 105.199 36.4737 104.937 36.0883 104.552C35.703 104.167 35.4405 103.676 35.3342 103.142C35.2279 102.608 35.2824 102.054 35.491 101.551C35.6996 101.048 36.0527 100.618 36.5059 100.315C36.959 100.013 37.4918 99.8511 38.0368 99.8511C38.7676 99.8511 39.4684 100.141 39.9852 100.658C40.502 101.174 40.7923 101.874 40.7923 102.605Z" fill="#042EFF" fill-opacity="0.15"/>
<path d="M58.4368 102.605C58.4368 103.149 58.2752 103.682 57.9724 104.135C57.6696 104.587 57.2393 104.94 56.7358 105.149C56.2323 105.357 55.6782 105.412 55.1437 105.306C54.6092 105.199 54.1182 104.937 53.7329 104.552C53.3475 104.167 53.0851 103.676 52.9787 103.142C52.8724 102.608 52.927 102.054 53.1355 101.551C53.3441 101.048 53.6973 100.618 54.1504 100.315C54.6036 100.013 55.1363 99.8511 55.6813 99.8511C56.4121 99.8511 57.113 100.141 57.6297 100.658C58.1465 101.174 58.4368 101.874 58.4368 102.605Z" fill="#042EFF" fill-opacity="0.15"/>
<path d="M76.0774 102.605C76.0774 103.149 75.9158 103.682 75.613 104.135C75.3103 104.587 74.8799 104.94 74.3764 105.149C73.8729 105.357 73.3189 105.412 72.7843 105.306C72.2498 105.199 71.7588 104.937 71.3735 104.552C70.9881 104.167 70.7257 103.676 70.6194 103.142C70.513 102.608 70.5676 102.054 70.7762 101.551C70.9847 101.048 71.3379 100.618 71.791 100.315C72.2442 100.013 72.7769 99.8511 73.3219 99.8511C74.0527 99.8511 74.7536 100.141 75.2704 100.658C75.7871 101.174 76.0774 101.874 76.0774 102.605Z" fill="#042EFF" fill-opacity="0.15"/>
<path d="M93.7181 102.605C93.7181 103.149 93.5565 103.682 93.2537 104.135C92.9509 104.587 92.5205 104.94 92.017 105.149C91.5135 105.357 90.9595 105.412 90.425 105.306C89.8905 105.199 89.3995 104.937 89.0141 104.552C88.6287 104.167 88.3663 103.676 88.26 103.142C88.1537 102.608 88.2082 102.054 88.4168 101.551C88.6253 101.048 88.9785 100.618 89.4317 100.315C89.8848 100.013 90.4176 99.8511 90.9625 99.8511C91.3244 99.8511 91.6827 99.9223 92.017 100.061C92.3513 100.199 92.6551 100.402 92.911 100.658C93.1669 100.913 93.3698 101.217 93.5083 101.551C93.6468 101.885 93.7181 102.243 93.7181 102.605Z" fill="#042EFF" fill-opacity="0.15"/>
<path d="M111.359 102.605C111.359 103.149 111.197 103.682 110.894 104.135C110.592 104.587 110.161 104.94 109.658 105.149C109.154 105.357 108.6 105.412 108.066 105.306C107.531 105.199 107.04 104.937 106.655 104.552C106.269 104.167 106.007 103.676 105.901 103.142C105.794 102.608 105.849 102.054 106.057 101.551C106.266 101.048 106.619 100.618 107.072 100.315C107.525 100.013 108.058 99.8511 108.603 99.8511C109.334 99.8511 110.035 100.141 110.552 100.658C111.068 101.174 111.359 101.874 111.359 102.605Z" fill="#042EFF" fill-opacity="0.15"/>
<path d="M128.999 102.605C128.999 103.149 128.838 103.682 128.535 104.135C128.232 104.587 127.802 104.94 127.298 105.149C126.795 105.357 126.241 105.412 125.706 105.306C125.172 105.199 124.681 104.937 124.295 104.552C123.91 104.167 123.648 103.676 123.541 103.142C123.435 102.608 123.489 102.054 123.698 101.551C123.907 101.048 124.26 100.618 124.713 100.315C125.166 100.013 125.699 99.8511 126.244 99.8511C126.975 99.8511 127.675 100.141 128.192 100.658C128.709 101.174 128.999 101.874 128.999 102.605Z" fill="#042EFF" fill-opacity="0.15"/>
<path d="M5.51103 85.9627C5.51103 86.5073 5.34942 87.0397 5.04664 87.4925C4.74386 87.9454 4.31351 88.2983 3.81 88.5067C3.3065 88.7152 2.75246 88.7697 2.21794 88.6634C1.68342 88.5572 1.19244 88.2949 0.807073 87.9098C0.421707 87.5247 0.15927 87.034 0.0529477 86.4999C-0.0533745 85.9657 0.00119392 85.412 0.209752 84.9089C0.418311 84.4057 0.771492 83.9756 1.22463 83.6731C1.67778 83.3705 2.21053 83.209 2.75552 83.209C3.11737 83.209 3.47569 83.2802 3.81 83.4186C4.14432 83.557 4.44808 83.7598 4.70396 84.0155C4.95983 84.2712 5.1628 84.5748 5.30128 84.9089C5.43976 85.243 5.51103 85.601 5.51103 85.9627Z" fill="#042EFF" fill-opacity="0.15"/>
<path d="M23.1517 85.9627C23.1517 86.5073 22.99 87.0397 22.6873 87.4925C22.3845 87.9454 21.9541 88.2983 21.4506 88.5067C20.9471 88.7152 20.3931 88.7697 19.8586 88.6634C19.324 88.5572 18.8331 88.2949 18.4477 87.9098C18.0623 87.5247 17.7999 87.034 17.6936 86.4999C17.5873 85.9657 17.6418 85.412 17.8504 84.9089C18.0589 84.4057 18.4121 83.9756 18.8653 83.6731C19.3184 83.3705 19.8512 83.209 20.3961 83.209C20.758 83.209 21.1163 83.2802 21.4506 83.4186C21.7849 83.557 22.0887 83.7598 22.3446 84.0155C22.6005 84.2712 22.8034 84.5748 22.9419 84.9089C23.0804 85.243 23.1517 85.601 23.1517 85.9627Z" fill="#042EFF" fill-opacity="0.15"/>
<path d="M40.7923 85.9627C40.7923 86.5073 40.6307 87.0397 40.3279 87.4925C40.0251 87.9454 39.5948 88.2983 39.0913 88.5067C38.5877 88.7152 38.0337 88.7697 37.4992 88.6634C36.9647 88.5572 36.4737 88.2949 36.0883 87.9098C35.703 87.5247 35.4405 87.034 35.3342 86.4999C35.2279 85.9657 35.2824 85.412 35.491 84.9089C35.6996 84.4057 36.0527 83.9756 36.5059 83.6731C36.959 83.3705 37.4918 83.209 38.0368 83.209C38.3986 83.209 38.7569 83.2802 39.0913 83.4186C39.4256 83.557 39.7293 83.7598 39.9852 84.0155C40.2411 84.2712 40.444 84.5748 40.5825 84.9089C40.721 85.243 40.7923 85.601 40.7923 85.9627Z" fill="#042EFF" fill-opacity="0.15"/>
<path d="M58.4368 85.9627C58.4368 86.5073 58.2752 87.0397 57.9724 87.4925C57.6696 87.9454 57.2393 88.2983 56.7358 88.5067C56.2323 88.7152 55.6782 88.7697 55.1437 88.6634C54.6092 88.5572 54.1182 88.2949 53.7329 87.9098C53.3475 87.5247 53.0851 87.034 52.9787 86.4999C52.8724 85.9657 52.927 85.412 53.1355 84.9089C53.3441 84.4057 53.6973 83.9756 54.1504 83.6731C54.6036 83.3705 55.1363 83.209 55.6813 83.209C56.0432 83.209 56.4015 83.2802 56.7358 83.4186C57.0701 83.557 57.3739 83.7598 57.6297 84.0155C57.8856 84.2712 58.0886 84.5748 58.2271 84.9089C58.3655 85.243 58.4368 85.601 58.4368 85.9627Z" fill="#042EFF" fill-opacity="0.15"/>
<path d="M76.0774 85.9627C76.0774 86.5073 75.9158 87.0397 75.613 87.4925C75.3103 87.9454 74.8799 88.2983 74.3764 88.5067C73.8729 88.7152 73.3189 88.7697 72.7843 88.6634C72.2498 88.5572 71.7588 88.2949 71.3735 87.9098C70.9881 87.5247 70.7257 87.034 70.6194 86.4999C70.513 85.9657 70.5676 85.412 70.7762 84.9089C70.9847 84.4057 71.3379 83.9756 71.791 83.6731C72.2442 83.3705 72.7769 83.209 73.3219 83.209C73.6838 83.209 74.0421 83.2802 74.3764 83.4186C74.7107 83.557 75.0145 83.7598 75.2704 84.0155C75.5262 84.2712 75.7292 84.5748 75.8677 84.9089C76.0062 85.243 76.0774 85.601 76.0774 85.9627Z" fill="#042EFF" fill-opacity="0.15"/>
<path d="M93.7181 85.9627C93.7181 86.5073 93.5565 87.0397 93.2537 87.4925C92.9509 87.9454 92.5205 88.2983 92.017 88.5067C91.5135 88.7152 90.9595 88.7697 90.425 88.6634C89.8905 88.5572 89.3995 88.2949 89.0141 87.9098C88.6287 87.5247 88.3663 87.034 88.26 86.4999C88.1537 85.9657 88.2082 85.412 88.4168 84.9089C88.6253 84.4057 88.9785 83.9756 89.4317 83.6731C89.8848 83.3705 90.4176 83.209 90.9625 83.209C91.3244 83.209 91.6827 83.2802 92.017 83.4186C92.3513 83.557 92.6551 83.7598 92.911 84.0155C93.1669 84.2712 93.3698 84.5748 93.5083 84.9089C93.6468 85.243 93.7181 85.601 93.7181 85.9627Z" fill="#042EFF" fill-opacity="0.15"/>
<path d="M111.359 85.9627C111.359 86.5073 111.197 87.0397 110.894 87.4925C110.592 87.9454 110.161 88.2983 109.658 88.5067C109.154 88.7152 108.6 88.7697 108.066 88.6634C107.531 88.5572 107.04 88.2949 106.655 87.9098C106.269 87.5247 106.007 87.034 105.901 86.4999C105.794 85.9657 105.849 85.412 106.057 84.9089C106.266 84.4057 106.619 83.9756 107.072 83.6731C107.525 83.3705 108.058 83.209 108.603 83.209C108.965 83.209 109.323 83.2802 109.658 83.4186C109.992 83.557 110.296 83.7598 110.552 84.0155C110.807 84.2712 111.01 84.5748 111.149 84.9089C111.287 85.243 111.359 85.601 111.359 85.9627Z" fill="#042EFF" fill-opacity="0.15"/>
<path d="M128.999 85.9627C128.999 86.5073 128.838 87.0397 128.535 87.4925C128.232 87.9454 127.802 88.2983 127.298 88.5067C126.795 88.7152 126.241 88.7697 125.706 88.6634C125.172 88.5572 124.681 88.2949 124.295 87.9098C123.91 87.5247 123.648 87.034 123.541 86.4999C123.435 85.9657 123.489 85.412 123.698 84.9089C123.907 84.4057 124.26 83.9756 124.713 83.6731C125.166 83.3705 125.699 83.209 126.244 83.209C126.606 83.209 126.964 83.2802 127.298 83.4186C127.633 83.557 127.936 83.7598 128.192 84.0155C128.448 84.2712 128.651 84.5748 128.79 84.9089C128.928 85.243 128.999 85.601 128.999 85.9627Z" fill="#042EFF" fill-opacity="0.15"/>
<path d="M5.51103 69.3211C5.51103 69.8657 5.34942 70.3981 5.04664 70.8509C4.74386 71.3038 4.31351 71.6567 3.81 71.8651C3.3065 72.0736 2.75246 72.1281 2.21794 72.0218C1.68342 71.9156 1.19244 71.6533 0.807073 71.2682C0.421707 70.8831 0.15927 70.3924 0.0529477 69.8583C-0.0533745 69.3241 0.00119392 68.7704 0.209752 68.2673C0.418311 67.7641 0.771492 67.334 1.22463 67.0315C1.67778 66.7289 2.21053 66.5674 2.75552 66.5674C3.48632 66.5674 4.1872 66.8575 4.70396 67.3739C5.22072 67.8903 5.51103 68.5907 5.51103 69.3211Z" fill="#042EFF" fill-opacity="0.15"/>
<path d="M23.1517 69.3211C23.1517 69.8657 22.99 70.3981 22.6873 70.8509C22.3845 71.3038 21.9541 71.6567 21.4506 71.8651C20.9471 72.0736 20.3931 72.1281 19.8586 72.0218C19.324 71.9156 18.8331 71.6533 18.4477 71.2682C18.0623 70.8831 17.7999 70.3924 17.6936 69.8583C17.5873 69.3241 17.6418 68.7704 17.8504 68.2673C18.0589 67.7641 18.4121 67.334 18.8653 67.0315C19.3184 66.7289 19.8512 66.5674 20.3961 66.5674C21.1269 66.5674 21.8278 66.8575 22.3446 67.3739C22.8613 67.8903 23.1517 68.5907 23.1517 69.3211Z" fill="#042EFF" fill-opacity="0.15"/>
<path d="M40.7923 69.3211C40.7923 69.8657 40.6307 70.3981 40.3279 70.8509C40.0251 71.3038 39.5948 71.6567 39.0913 71.8651C38.5877 72.0736 38.0337 72.1281 37.4992 72.0218C36.9647 71.9156 36.4737 71.6533 36.0883 71.2682C35.703 70.8831 35.4405 70.3924 35.3342 69.8583C35.2279 69.3241 35.2824 68.7704 35.491 68.2673C35.6996 67.7641 36.0527 67.334 36.5059 67.0315C36.959 66.7289 37.4918 66.5674 38.0368 66.5674C38.7676 66.5674 39.4684 66.8575 39.9852 67.3739C40.502 67.8903 40.7923 68.5907 40.7923 69.3211Z" fill="#042EFF" fill-opacity="0.15"/>
<path d="M58.4368 69.3211C58.4368 69.8657 58.2752 70.3981 57.9724 70.8509C57.6696 71.3038 57.2393 71.6567 56.7358 71.8651C56.2323 72.0736 55.6782 72.1281 55.1437 72.0218C54.6092 71.9156 54.1182 71.6533 53.7329 71.2682C53.3475 70.8831 53.0851 70.3924 52.9787 69.8583C52.8724 69.3241 52.927 68.7704 53.1355 68.2673C53.3441 67.7641 53.6973 67.334 54.1504 67.0315C54.6036 66.7289 55.1363 66.5674 55.6813 66.5674C56.4121 66.5674 57.113 66.8575 57.6297 67.3739C58.1465 67.8903 58.4368 68.5907 58.4368 69.3211Z" fill="#042EFF" fill-opacity="0.15"/>
<path d="M76.0774 69.3211C76.0774 69.8657 75.9158 70.3981 75.613 70.8509C75.3103 71.3038 74.8799 71.6567 74.3764 71.8651C73.8729 72.0736 73.3189 72.1281 72.7843 72.0218C72.2498 71.9156 71.7588 71.6533 71.3735 71.2682C70.9881 70.8831 70.7257 70.3924 70.6194 69.8583C70.513 69.3241 70.5676 68.7704 70.7762 68.2673C70.9847 67.7641 71.3379 67.334 71.791 67.0315C72.2442 66.7289 72.7769 66.5674 73.3219 66.5674C74.0527 66.5674 74.7536 66.8575 75.2704 67.3739C75.7871 67.8903 76.0774 68.5907 76.0774 69.3211Z" fill="#042EFF" fill-opacity="0.15"/>
<path d="M93.7181 69.3211C93.7181 69.8657 93.5565 70.3981 93.2537 70.8509C92.9509 71.3038 92.5205 71.6567 92.017 71.8651C91.5135 72.0736 90.9595 72.1281 90.425 72.0218C89.8905 71.9156 89.3995 71.6533 89.0141 71.2682C88.6287 70.8831 88.3663 70.3924 88.26 69.8583C88.1537 69.3241 88.2082 68.7704 88.4168 68.2673C88.6253 67.7641 88.9785 67.334 89.4317 67.0315C89.8848 66.7289 90.4176 66.5674 90.9625 66.5674C91.3244 66.5674 91.6827 66.6386 92.017 66.777C92.3513 66.9154 92.6551 67.1182 92.911 67.3739C93.1669 67.6296 93.3698 67.9332 93.5083 68.2673C93.6468 68.6014 93.7181 68.9594 93.7181 69.3211Z" fill="#042EFF" fill-opacity="0.15"/>
<path d="M111.359 69.3211C111.359 69.8657 111.197 70.3981 110.894 70.8509C110.592 71.3038 110.161 71.6567 109.658 71.8651C109.154 72.0736 108.6 72.1281 108.066 72.0218C107.531 71.9156 107.04 71.6533 106.655 71.2682C106.269 70.8831 106.007 70.3924 105.901 69.8583C105.794 69.3241 105.849 68.7704 106.057 68.2673C106.266 67.7641 106.619 67.334 107.072 67.0315C107.525 66.7289 108.058 66.5674 108.603 66.5674C109.334 66.5674 110.035 66.8575 110.552 67.3739C111.068 67.8903 111.359 68.5907 111.359 69.3211Z" fill="#042EFF" fill-opacity="0.15"/>
<path d="M128.999 69.3211C128.999 69.8657 128.838 70.3981 128.535 70.8509C128.232 71.3038 127.802 71.6567 127.298 71.8651C126.795 72.0736 126.241 72.1281 125.706 72.0218C125.172 71.9156 124.681 71.6533 124.295 71.2682C123.91 70.8831 123.648 70.3924 123.541 69.8583C123.435 69.3241 123.489 68.7704 123.698 68.2673C123.907 67.7641 124.26 67.334 124.713 67.0315C125.166 66.7289 125.699 66.5674 126.244 66.5674C126.975 66.5674 127.675 66.8575 128.192 67.3739C128.709 67.8903 128.999 68.5907 128.999 69.3211Z" fill="#042EFF" fill-opacity="0.15"/>
<path d="M5.51103 52.679C5.51103 53.2236 5.34942 53.756 5.04664 54.2088C4.74386 54.6617 4.31351 55.0146 3.81 55.223C3.3065 55.4315 2.75246 55.486 2.21794 55.3797C1.68342 55.2735 1.19244 55.0112 0.807073 54.6261C0.421707 54.241 0.15927 53.7504 0.0529477 53.2162C-0.0533745 52.682 0.00119392 52.1284 0.209752 51.6252C0.418311 51.122 0.771492 50.692 1.22463 50.3894C1.67778 50.0868 2.21053 49.9253 2.75552 49.9253C3.48632 49.9253 4.1872 50.2154 4.70396 50.7318C5.22072 51.2482 5.51103 51.9487 5.51103 52.679Z" fill="#042EFF" fill-opacity="0.15"/>
<path d="M23.1517 52.6795C23.1517 53.2241 22.99 53.7565 22.6873 54.2093C22.3845 54.6622 21.9541 55.0151 21.4506 55.2235C20.9471 55.4319 20.3931 55.4865 19.8586 55.3802C19.324 55.274 18.8331 55.0117 18.4477 54.6266C18.0623 54.2415 17.7999 53.7508 17.6936 53.2167C17.5873 52.6825 17.6418 52.1288 17.8504 51.6257C18.0589 51.1225 18.4121 50.6924 18.8653 50.3899C19.3184 50.0873 19.8512 49.9258 20.3961 49.9258C21.1269 49.9258 21.8278 50.2159 22.3446 50.7323C22.8613 51.2487 23.1517 51.9491 23.1517 52.6795Z" fill="#042EFF" fill-opacity="0.15"/>
<path d="M40.7923 52.6795C40.7923 53.2241 40.6307 53.7565 40.3279 54.2093C40.0251 54.6622 39.5948 55.0151 39.0913 55.2235C38.5877 55.4319 38.0337 55.4865 37.4992 55.3802C36.9647 55.274 36.4737 55.0117 36.0883 54.6266C35.703 54.2415 35.4405 53.7508 35.3342 53.2167C35.2279 52.6825 35.2824 52.1288 35.491 51.6257C35.6996 51.1225 36.0527 50.6924 36.5059 50.3899C36.959 50.0873 37.4918 49.9258 38.0368 49.9258C38.7676 49.9258 39.4684 50.2159 39.9852 50.7323C40.502 51.2487 40.7923 51.9491 40.7923 52.6795Z" fill="#042EFF" fill-opacity="0.15"/>
<path d="M58.4368 52.6795C58.4368 53.2241 58.2752 53.7565 57.9724 54.2093C57.6696 54.6622 57.2393 55.0151 56.7358 55.2235C56.2323 55.4319 55.6782 55.4865 55.1437 55.3802C54.6092 55.274 54.1182 55.0117 53.7329 54.6266C53.3475 54.2415 53.0851 53.7508 52.9787 53.2167C52.8724 52.6825 52.927 52.1288 53.1355 51.6257C53.3441 51.1225 53.6973 50.6924 54.1504 50.3899C54.6036 50.0873 55.1363 49.9258 55.6813 49.9258C56.4121 49.9258 57.113 50.2159 57.6297 50.7323C58.1465 51.2487 58.4368 51.9491 58.4368 52.6795Z" fill="#042EFF" fill-opacity="0.15"/>
<path d="M76.0774 52.6795C76.0774 53.2241 75.9158 53.7565 75.613 54.2093C75.3103 54.6622 74.8799 55.0151 74.3764 55.2235C73.8729 55.4319 73.3189 55.4865 72.7843 55.3802C72.2498 55.274 71.7588 55.0117 71.3735 54.6266C70.9881 54.2415 70.7257 53.7508 70.6194 53.2167C70.513 52.6825 70.5676 52.1288 70.7762 51.6257C70.9847 51.1225 71.3379 50.6924 71.791 50.3899C72.2442 50.0873 72.7769 49.9258 73.3219 49.9258C74.0527 49.9258 74.7536 50.2159 75.2704 50.7323C75.7871 51.2487 76.0774 51.9491 76.0774 52.6795Z" fill="#042EFF" fill-opacity="0.15"/>
<path d="M93.7181 52.6795C93.7181 53.2241 93.5565 53.7565 93.2537 54.2093C92.9509 54.6622 92.5205 55.0151 92.017 55.2235C91.5135 55.4319 90.9595 55.4865 90.425 55.3802C89.8905 55.274 89.3995 55.0117 89.0141 54.6266C88.6287 54.2415 88.3663 53.7508 88.26 53.2167C88.1537 52.6825 88.2082 52.1288 88.4168 51.6257C88.6253 51.1225 88.9785 50.6924 89.4317 50.3899C89.8848 50.0873 90.4176 49.9258 90.9625 49.9258C91.3244 49.9258 91.6827 49.997 92.017 50.1354C92.3513 50.2738 92.6551 50.4766 92.911 50.7323C93.1669 50.988 93.3698 51.2916 93.5083 51.6257C93.6468 51.9598 93.7181 52.3178 93.7181 52.6795Z" fill="#042EFF" fill-opacity="0.15"/>
<path d="M111.359 52.679C111.359 53.2236 111.197 53.756 110.894 54.2088C110.592 54.6617 110.161 55.0146 109.658 55.223C109.154 55.4315 108.6 55.486 108.066 55.3797C107.531 55.2735 107.04 55.0112 106.655 54.6261C106.269 54.241 106.007 53.7504 105.901 53.2162C105.794 52.682 105.849 52.1284 106.057 51.6252C106.266 51.122 106.619 50.692 107.072 50.3894C107.525 50.0868 108.058 49.9253 108.603 49.9253C109.334 49.9253 110.035 50.2154 110.552 50.7318C111.068 51.2482 111.359 51.9487 111.359 52.679Z" fill="#042EFF" fill-opacity="0.15"/>
<path d="M128.999 52.6795C128.999 53.2241 128.838 53.7565 128.535 54.2093C128.232 54.6622 127.802 55.0151 127.298 55.2235C126.795 55.4319 126.241 55.4865 125.706 55.3802C125.172 55.274 124.681 55.0117 124.295 54.6266C123.91 54.2415 123.648 53.7508 123.541 53.2167C123.435 52.6825 123.489 52.1288 123.698 51.6257C123.907 51.1225 124.26 50.6924 124.713 50.3899C125.166 50.0873 125.699 49.9258 126.244 49.9258C126.975 49.9258 127.675 50.2159 128.192 50.7323C128.709 51.2487 128.999 51.9491 128.999 52.6795Z" fill="#042EFF" fill-opacity="0.15"/>
<path d="M5.51103 35.9177C5.51103 36.4624 5.34942 36.9948 5.04664 37.4476C4.74386 37.9004 4.31351 38.2534 3.81 38.4618C3.3065 38.6702 2.75246 38.7248 2.21794 38.6185C1.68342 38.5123 1.19244 38.25 0.807073 37.8649C0.421707 37.4798 0.15927 36.9891 0.0529477 36.455C-0.0533745 35.9208 0.00119392 35.3671 0.209752 34.864C0.418311 34.3608 0.771492 33.9307 1.22463 33.6281C1.67778 33.3256 2.21053 33.1641 2.75552 33.1641C3.48632 33.1641 4.1872 33.4542 4.70396 33.9706C5.22072 34.487 5.51103 35.1874 5.51103 35.9177Z" fill="#042EFF" fill-opacity="0.15"/>
<path d="M23.1517 35.9177C23.1517 36.4624 22.99 36.9948 22.6873 37.4476C22.3845 37.9004 21.9541 38.2534 21.4506 38.4618C20.9471 38.6702 20.3931 38.7248 19.8586 38.6185C19.324 38.5123 18.8331 38.25 18.4477 37.8649C18.0623 37.4798 17.7999 36.9891 17.6936 36.455C17.5873 35.9208 17.6418 35.3671 17.8504 34.864C18.0589 34.3608 18.4121 33.9307 18.8653 33.6281C19.3184 33.3256 19.8512 33.1641 20.3961 33.1641C21.1269 33.1641 21.8278 33.4542 22.3446 33.9706C22.8613 34.487 23.1517 35.1874 23.1517 35.9177Z" fill="#042EFF" fill-opacity="0.15"/>
<path d="M40.7923 35.9177C40.7923 36.4624 40.6307 36.9948 40.3279 37.4476C40.0251 37.9004 39.5948 38.2534 39.0913 38.4618C38.5877 38.6702 38.0337 38.7248 37.4992 38.6185C36.9647 38.5123 36.4737 38.25 36.0883 37.8649C35.703 37.4798 35.4405 36.9891 35.3342 36.455C35.2279 35.9208 35.2824 35.3671 35.491 34.864C35.6996 34.3608 36.0527 33.9307 36.5059 33.6281C36.959 33.3256 37.4918 33.1641 38.0368 33.1641C38.7676 33.1641 39.4684 33.4542 39.9852 33.9706C40.502 34.487 40.7923 35.1874 40.7923 35.9177Z" fill="#042EFF" fill-opacity="0.15"/>
<path d="M58.4368 35.9177C58.4368 36.4624 58.2752 36.9948 57.9724 37.4476C57.6696 37.9004 57.2393 38.2534 56.7358 38.4618C56.2323 38.6702 55.6782 38.7248 55.1437 38.6185C54.6092 38.5123 54.1182 38.25 53.7329 37.8649C53.3475 37.4798 53.0851 36.9891 52.9787 36.455C52.8724 35.9208 52.927 35.3671 53.1355 34.864C53.3441 34.3608 53.6973 33.9307 54.1504 33.6281C54.6036 33.3256 55.1363 33.1641 55.6813 33.1641C56.4121 33.1641 57.113 33.4542 57.6297 33.9706C58.1465 34.487 58.4368 35.1874 58.4368 35.9177Z" fill="#042EFF" fill-opacity="0.15"/>
<path d="M76.0774 35.9177C76.0774 36.4624 75.9158 36.9948 75.613 37.4476C75.3103 37.9004 74.8799 38.2534 74.3764 38.4618C73.8729 38.6702 73.3189 38.7248 72.7843 38.6185C72.2498 38.5123 71.7588 38.25 71.3735 37.8649C70.9881 37.4798 70.7257 36.9891 70.6194 36.455C70.513 35.9208 70.5676 35.3671 70.7762 34.864C70.9847 34.3608 71.3379 33.9307 71.791 33.6281C72.2442 33.3256 72.7769 33.1641 73.3219 33.1641C74.0527 33.1641 74.7536 33.4542 75.2704 33.9706C75.7871 34.487 76.0774 35.1874 76.0774 35.9177Z" fill="#042EFF" fill-opacity="0.15"/>
<path d="M93.7181 35.9177C93.7181 36.4624 93.5565 36.9948 93.2537 37.4476C92.9509 37.9004 92.5205 38.2534 92.017 38.4618C91.5135 38.6702 90.9595 38.7248 90.425 38.6185C89.8905 38.5123 89.3995 38.25 89.0141 37.8649C88.6287 37.4798 88.3663 36.9891 88.26 36.455C88.1537 35.9208 88.2082 35.3671 88.4168 34.864C88.6253 34.3608 88.9785 33.9307 89.4317 33.6281C89.8848 33.3256 90.4176 33.1641 90.9625 33.1641C91.3244 33.1641 91.6827 33.2353 92.017 33.3737C92.3513 33.5121 92.6551 33.7149 92.911 33.9706C93.1669 34.2263 93.3698 34.5299 93.5083 34.864C93.6468 35.198 93.7181 35.5561 93.7181 35.9177Z" fill="#042EFF" fill-opacity="0.15"/>
<path d="M111.359 35.9177C111.359 36.4624 111.197 36.9948 110.894 37.4476C110.592 37.9004 110.161 38.2534 109.658 38.4618C109.154 38.6702 108.6 38.7248 108.066 38.6185C107.531 38.5123 107.04 38.25 106.655 37.8649C106.269 37.4798 106.007 36.9891 105.901 36.455C105.794 35.9208 105.849 35.3671 106.057 34.864C106.266 34.3608 106.619 33.9307 107.072 33.6281C107.525 33.3256 108.058 33.1641 108.603 33.1641C109.334 33.1641 110.035 33.4542 110.552 33.9706C111.068 34.487 111.359 35.1874 111.359 35.9177Z" fill="#042EFF" fill-opacity="0.15"/>
<path d="M128.999 35.9177C128.999 36.4624 128.838 36.9948 128.535 37.4476C128.232 37.9004 127.802 38.2534 127.298 38.4618C126.795 38.6702 126.241 38.7248 125.706 38.6185C125.172 38.5123 124.681 38.25 124.295 37.8649C123.91 37.4798 123.648 36.9891 123.541 36.455C123.435 35.9208 123.489 35.3671 123.698 34.864C123.907 34.3608 124.26 33.9307 124.713 33.6281C125.166 33.3256 125.699 33.1641 126.244 33.1641C126.975 33.1641 127.675 33.4542 128.192 33.9706C128.709 34.487 128.999 35.1874 128.999 35.9177Z" fill="#042EFF" fill-opacity="0.15"/>
<path d="M5.51103 19.3953C5.51103 19.9399 5.34942 20.4723 5.04664 20.9251C4.74386 21.378 4.31351 21.7309 3.81 21.9394C3.3065 22.1478 2.75246 22.2023 2.21794 22.0961C1.68342 21.9898 1.19244 21.7275 0.807073 21.3424C0.421707 20.9573 0.15927 20.4667 0.0529477 19.9325C-0.0533745 19.3983 0.00119392 18.8447 0.209752 18.3415C0.418311 17.8383 0.771492 17.4083 1.22463 17.1057C1.67778 16.8031 2.21053 16.6416 2.75552 16.6416C3.48632 16.6416 4.1872 16.9317 4.70396 17.4481C5.22072 17.9646 5.51103 18.665 5.51103 19.3953Z" fill="#042EFF" fill-opacity="0.15"/>
<path d="M23.1517 19.3953C23.1517 19.9399 22.99 20.4723 22.6873 20.9251C22.3845 21.378 21.9541 21.7309 21.4506 21.9394C20.9471 22.1478 20.3931 22.2023 19.8586 22.0961C19.324 21.9898 18.8331 21.7275 18.4477 21.3424C18.0623 20.9573 17.7999 20.4667 17.6936 19.9325C17.5873 19.3983 17.6418 18.8447 17.8504 18.3415C18.0589 17.8383 18.4121 17.4083 18.8653 17.1057C19.3184 16.8031 19.8512 16.6416 20.3961 16.6416C21.1269 16.6416 21.8278 16.9317 22.3446 17.4481C22.8613 17.9646 23.1517 18.665 23.1517 19.3953Z" fill="#042EFF" fill-opacity="0.15"/>
<path d="M40.7923 19.3953C40.7923 19.9399 40.6307 20.4723 40.3279 20.9251C40.0251 21.378 39.5948 21.7309 39.0913 21.9394C38.5877 22.1478 38.0337 22.2023 37.4992 22.0961C36.9647 21.9898 36.4737 21.7275 36.0883 21.3424C35.703 20.9573 35.4405 20.4667 35.3342 19.9325C35.2279 19.3983 35.2824 18.8447 35.491 18.3415C35.6996 17.8383 36.0527 17.4083 36.5059 17.1057C36.959 16.8031 37.4918 16.6416 38.0368 16.6416C38.7676 16.6416 39.4684 16.9317 39.9852 17.4481C40.502 17.9646 40.7923 18.665 40.7923 19.3953Z" fill="#042EFF" fill-opacity="0.15"/>
<path d="M58.4368 19.3953C58.4368 19.9399 58.2752 20.4723 57.9724 20.9251C57.6696 21.378 57.2393 21.7309 56.7358 21.9394C56.2323 22.1478 55.6782 22.2023 55.1437 22.0961C54.6092 21.9898 54.1182 21.7275 53.7329 21.3424C53.3475 20.9573 53.0851 20.4667 52.9787 19.9325C52.8724 19.3983 52.927 18.8447 53.1355 18.3415C53.3441 17.8383 53.6973 17.4083 54.1504 17.1057C54.6036 16.8031 55.1363 16.6416 55.6813 16.6416C56.4121 16.6416 57.113 16.9317 57.6297 17.4481C58.1465 17.9646 58.4368 18.665 58.4368 19.3953Z" fill="#042EFF" fill-opacity="0.15"/>
<path d="M76.0774 19.3953C76.0774 19.9399 75.9158 20.4723 75.613 20.9251C75.3103 21.378 74.8799 21.7309 74.3764 21.9394C73.8729 22.1478 73.3189 22.2023 72.7843 22.0961C72.2498 21.9898 71.7588 21.7275 71.3735 21.3424C70.9881 20.9573 70.7257 20.4667 70.6194 19.9325C70.513 19.3983 70.5676 18.8447 70.7762 18.3415C70.9847 17.8383 71.3379 17.4083 71.791 17.1057C72.2442 16.8031 72.7769 16.6416 73.3219 16.6416C74.0527 16.6416 74.7536 16.9317 75.2704 17.4481C75.7871 17.9646 76.0774 18.665 76.0774 19.3953Z" fill="#042EFF" fill-opacity="0.15"/>
<path d="M93.7181 19.3953C93.7181 19.9399 93.5565 20.4723 93.2537 20.9251C92.9509 21.378 92.5205 21.7309 92.017 21.9394C91.5135 22.1478 90.9595 22.2023 90.425 22.0961C89.8905 21.9898 89.3995 21.7275 89.0141 21.3424C88.6287 20.9573 88.3663 20.4667 88.26 19.9325C88.1537 19.3983 88.2082 18.8447 88.4168 18.3415C88.6253 17.8383 88.9785 17.4083 89.4317 17.1057C89.8848 16.8031 90.4176 16.6416 90.9625 16.6416C91.3244 16.6416 91.6827 16.7128 92.017 16.8512C92.3513 16.9896 92.6551 17.1924 92.911 17.4481C93.1669 17.7038 93.3698 18.0074 93.5083 18.3415C93.6468 18.6756 93.7181 19.0337 93.7181 19.3953Z" fill="#042EFF" fill-opacity="0.15"/>
<path d="M111.359 19.3953C111.359 19.9399 111.197 20.4723 110.894 20.9251C110.592 21.378 110.161 21.7309 109.658 21.9394C109.154 22.1478 108.6 22.2023 108.066 22.0961C107.531 21.9898 107.04 21.7275 106.655 21.3424C106.269 20.9573 106.007 20.4667 105.901 19.9325C105.794 19.3983 105.849 18.8447 106.057 18.3415C106.266 17.8383 106.619 17.4083 107.072 17.1057C107.525 16.8031 108.058 16.6416 108.603 16.6416C109.334 16.6416 110.035 16.9317 110.552 17.4481C111.068 17.9646 111.359 18.665 111.359 19.3953Z" fill="#042EFF" fill-opacity="0.15"/>
<path d="M128.999 19.3953C128.999 19.9399 128.838 20.4723 128.535 20.9251C128.232 21.378 127.802 21.7309 127.298 21.9394C126.795 22.1478 126.241 22.2023 125.706 22.0961C125.172 21.9898 124.681 21.7275 124.295 21.3424C123.91 20.9573 123.648 20.4667 123.541 19.9325C123.435 19.3983 123.489 18.8447 123.698 18.3415C123.907 17.8383 124.26 17.4083 124.713 17.1057C125.166 16.8031 125.699 16.6416 126.244 16.6416C126.975 16.6416 127.675 16.9317 128.192 17.4481C128.709 17.9646 128.999 18.665 128.999 19.3953Z" fill="#042EFF" fill-opacity="0.15"/>
<path d="M5.51103 2.75368C5.51103 3.29831 5.34942 3.8307 5.04664 4.28354C4.74386 4.73638 4.31351 5.08933 3.81 5.29775C3.3065 5.50617 2.75246 5.5607 2.21794 5.45445C1.68342 5.3482 1.19244 5.08594 0.807073 4.70083C0.421707 4.31572 0.15927 3.82506 0.0529477 3.2909C-0.0533745 2.75674 0.00119392 2.20306 0.209752 1.69989C0.418311 1.19672 0.771492 0.766657 1.22463 0.464079C1.67778 0.161501 2.21053 0 2.75552 0C3.48632 0 4.1872 0.290119 4.70396 0.806534C5.22072 1.32295 5.51103 2.02336 5.51103 2.75368Z" fill="#042EFF" fill-opacity="0.15"/>
<path d="M23.1517 2.75368C23.1517 3.29831 22.99 3.8307 22.6873 4.28354C22.3845 4.73638 21.9541 5.08933 21.4506 5.29775C20.9471 5.50617 20.3931 5.5607 19.8586 5.45445C19.324 5.3482 18.8331 5.08594 18.4477 4.70083C18.0623 4.31572 17.7999 3.82506 17.6936 3.2909C17.5873 2.75674 17.6418 2.20306 17.8504 1.69989C18.0589 1.19672 18.4121 0.766657 18.8653 0.464079C19.3184 0.161501 19.8512 0 20.3961 0C20.758 0 21.1163 0.071226 21.4506 0.209611C21.7849 0.347997 22.0887 0.550831 22.3446 0.806534C22.6005 1.06224 22.8034 1.3658 22.9419 1.69989C23.0804 2.03398 23.1517 2.39206 23.1517 2.75368Z" fill="#042EFF" fill-opacity="0.15"/>
<path d="M40.7923 2.75368C40.7923 3.29831 40.6307 3.8307 40.3279 4.28354C40.0251 4.73638 39.5948 5.08933 39.0913 5.29775C38.5877 5.50617 38.0337 5.5607 37.4992 5.45445C36.9647 5.3482 36.4737 5.08594 36.0883 4.70083C35.703 4.31572 35.4405 3.82506 35.3342 3.2909C35.2279 2.75674 35.2824 2.20306 35.491 1.69989C35.6996 1.19672 36.0527 0.766657 36.5059 0.464079C36.959 0.161501 37.4918 0 38.0368 0C38.7676 0 39.4684 0.290119 39.9852 0.806534C40.502 1.32295 40.7923 2.02336 40.7923 2.75368Z" fill="#042EFF" fill-opacity="0.15"/>
<path d="M58.4368 2.75368C58.4368 3.29831 58.2752 3.8307 57.9724 4.28354C57.6696 4.73638 57.2393 5.08933 56.7358 5.29775C56.2323 5.50617 55.6782 5.5607 55.1437 5.45445C54.6092 5.3482 54.1182 5.08594 53.7329 4.70083C53.3475 4.31572 53.0851 3.82506 52.9787 3.2909C52.8724 2.75674 52.927 2.20306 53.1355 1.69989C53.3441 1.19672 53.6973 0.766657 54.1504 0.464079C54.6036 0.161501 55.1363 0 55.6813 0C56.4121 0 57.113 0.290119 57.6297 0.806534C58.1465 1.32295 58.4368 2.02336 58.4368 2.75368Z" fill="#042EFF" fill-opacity="0.15"/>
<path d="M76.0774 2.75368C76.0774 3.29831 75.9158 3.8307 75.613 4.28354C75.3103 4.73638 74.8799 5.08933 74.3764 5.29775C73.8729 5.50617 73.3189 5.5607 72.7843 5.45445C72.2498 5.3482 71.7588 5.08594 71.3735 4.70083C70.9881 4.31572 70.7257 3.82506 70.6194 3.2909C70.513 2.75674 70.5676 2.20306 70.7762 1.69989C70.9847 1.19672 71.3379 0.766657 71.791 0.464079C72.2442 0.161501 72.7769 0 73.3219 0C74.0527 0 74.7536 0.290119 75.2704 0.806534C75.7871 1.32295 76.0774 2.02336 76.0774 2.75368Z" fill="#042EFF" fill-opacity="0.15"/>
<path d="M93.7181 2.75368C93.7181 3.29831 93.5565 3.8307 93.2537 4.28354C92.9509 4.73638 92.5205 5.08933 92.017 5.29775C91.5135 5.50617 90.9595 5.5607 90.425 5.45445C89.8905 5.3482 89.3995 5.08594 89.0141 4.70083C88.6287 4.31572 88.3663 3.82506 88.26 3.2909C88.1537 2.75674 88.2082 2.20306 88.4168 1.69989C88.6253 1.19672 88.9785 0.766657 89.4317 0.464079C89.8848 0.161501 90.4176 0 90.9625 0C91.6934 0 92.3942 0.290119 92.911 0.806534C93.4277 1.32295 93.7181 2.02336 93.7181 2.75368Z" fill="#042EFF" fill-opacity="0.15"/>
<path d="M111.359 2.75368C111.359 3.29831 111.197 3.8307 110.894 4.28354C110.592 4.73638 110.161 5.08933 109.658 5.29775C109.154 5.50617 108.6 5.5607 108.066 5.45445C107.531 5.3482 107.04 5.08594 106.655 4.70083C106.269 4.31572 106.007 3.82506 105.901 3.2909C105.794 2.75674 105.849 2.20306 106.057 1.69989C106.266 1.19672 106.619 0.766657 107.072 0.464079C107.525 0.161501 108.058 0 108.603 0C109.334 0 110.035 0.290119 110.552 0.806534C111.068 1.32295 111.359 2.02336 111.359 2.75368Z" fill="#042EFF" fill-opacity="0.15"/>
<path d="M128.999 2.75368C128.999 3.29831 128.838 3.8307 128.535 4.28354C128.232 4.73638 127.802 5.08933 127.298 5.29775C126.795 5.50617 126.241 5.5607 125.706 5.45445C125.172 5.3482 124.681 5.08594 124.295 4.70083C123.91 4.31572 123.648 3.82506 123.541 3.2909C123.435 2.75674 123.489 2.20306 123.698 1.69989C123.907 1.19672 124.26 0.766657 124.713 0.464079C125.166 0.161501 125.699 0 126.244 0C126.975 0 127.675 0.290119 128.192 0.806534C128.709 1.32295 128.999 2.02336 128.999 2.75368Z" fill="#042EFF" fill-opacity="0.15"/>
</g>
<defs>
<clipPath id="clip0_1893_13">
<rect width="129" height="122" fill="white"/>
</clipPath>
</defs>
</svg>
