<svg width="763" height="365" viewBox="0 0 763 365" fill="none" xmlns="http://www.w3.org/2000/svg">
<g style="mix-blend-mode:soft-light">
<path d="M779 0C760.722 2.15303 742.559 5.62707 724.604 10.4046C639.177 33.0855 559.61 82.5868 486.362 141.922C384.383 224.524 290.02 328.587 173.536 372.108C116.483 393.409 55.7309 399.452 1.27123 429.302L0 430H779V0Z" fill="url(#paint0_linear_249_968)"/>
</g>
<g style="mix-blend-mode:soft-light">
<path d="M779 143.207C741.522 140.235 703.811 142.759 667.066 150.7C594.687 166.092 527.183 199.678 465.089 239.933C378.615 295.998 298.617 366.581 199.864 396.16C155.788 409.321 108.958 413.911 66 430H779V143.207Z" fill="url(#paint1_linear_249_968)"/>
</g>
<defs>
<linearGradient id="paint0_linear_249_968" x1="-64.8203" y1="1426.5" x2="979.639" y2="-45.1544" gradientUnits="userSpaceOnUse">
<stop stop-opacity="0"/>
<stop offset="0.19" stop-color="#000204" stop-opacity="0.03"/>
<stop offset="0.36" stop-color="#00060F" stop-opacity="0.11"/>
<stop offset="0.53" stop-color="#000F21" stop-opacity="0.25"/>
<stop offset="0.69" stop-color="#001A3B" stop-opacity="0.44"/>
<stop offset="0.84" stop-color="#00295C" stop-opacity="0.69"/>
<stop offset="0.99" stop-color="#003B84" stop-opacity="0.99"/>
<stop offset="1" stop-color="#003C86"/>
</linearGradient>
<linearGradient id="paint1_linear_249_968" x1="25.3406" y1="1127.13" x2="670.121" y2="-8.09854" gradientUnits="userSpaceOnUse">
<stop stop-opacity="0"/>
<stop offset="0.19" stop-color="#000204" stop-opacity="0.03"/>
<stop offset="0.36" stop-color="#00060F" stop-opacity="0.11"/>
<stop offset="0.53" stop-color="#000F21" stop-opacity="0.25"/>
<stop offset="0.69" stop-color="#001A3B" stop-opacity="0.44"/>
<stop offset="0.84" stop-color="#00295C" stop-opacity="0.69"/>
<stop offset="0.99" stop-color="#003B84" stop-opacity="0.99"/>
<stop offset="1" stop-color="#003C86"/>
</linearGradient>
</defs>
</svg>
