<svg width="70" height="34" viewBox="0 0 70 34" fill="none" xmlns="http://www.w3.org/2000/svg">
<g style="mix-blend-mode:soft-light" opacity="0.8">
<path d="M34.8542 12.245C31.5042 12.245 29.8542 9.24501 28.4342 6.54501C27.1142 4.09501 25.8642 1.775 23.5642 1.775C21.2642 1.775 20.0242 4.09501 18.6942 6.54501C17.2542 9.21501 15.6242 12.245 12.2742 12.245C8.9242 12.245 7.27421 9.24501 5.84421 6.54501C4.52421 4.09501 3.27419 1.775 0.984192 1.775C0.86007 1.78822 0.734567 1.77517 0.615814 1.73671C0.497062 1.69826 0.387739 1.63526 0.294922 1.5518C0.202104 1.46834 0.127865 1.36628 0.0770569 1.25227C0.0262487 1.13825 0 1.01483 0 0.890002C0 0.765179 0.0262487 0.641751 0.0770569 0.527736C0.127865 0.413721 0.202104 0.311667 0.294922 0.228206C0.387739 0.144744 0.497062 0.0817388 0.615814 0.0432846C0.734567 0.00483049 0.86007 -0.00821233 0.984192 0.00500033C4.33419 0.00500033 5.98421 3.005 7.40421 5.705C8.72421 8.155 9.9742 10.475 12.2742 10.475C14.5742 10.475 15.8142 8.155 17.1442 5.705C18.5842 3.035 20.2142 0.00500033 23.5642 0.00500033C26.9142 0.00500033 28.5642 3.005 29.9942 5.705C31.3142 8.155 32.5642 10.475 34.8542 10.475C34.9783 10.4618 35.1038 10.4748 35.2226 10.5133C35.3413 10.5517 35.4507 10.6147 35.5435 10.6982C35.6363 10.7817 35.7105 10.8837 35.7614 10.9977C35.8122 11.1118 35.8384 11.2352 35.8384 11.36C35.8384 11.4848 35.8122 11.6083 35.7614 11.7223C35.7105 11.8363 35.6363 11.9383 35.5435 12.0218C35.4507 12.1053 35.3413 12.1683 35.2226 12.2067C35.1038 12.2452 34.9783 12.2582 34.8542 12.245V12.245Z" fill="white"/>
</g>
<g style="mix-blend-mode:soft-light" opacity="0.8">
<path d="M57.4442 33.245C54.0942 33.245 52.4442 30.245 51.0242 27.545C49.6942 25.095 48.4442 22.775 46.1542 22.775C43.8642 22.775 42.6042 25.095 41.2842 27.545C39.8442 30.215 38.2142 33.245 34.8542 33.245C31.4942 33.245 29.8542 30.245 28.4342 27.545C27.1142 25.095 25.8642 22.775 23.5642 22.775C21.2642 22.775 20.0242 25.095 18.6942 27.545C17.2542 30.215 15.6242 33.245 12.2742 33.245C8.9242 33.245 7.27421 30.245 5.84421 27.545C4.52421 25.095 3.27419 22.775 0.984192 22.775C0.86007 22.7882 0.734567 22.7752 0.615814 22.7367C0.497062 22.6983 0.387739 22.6353 0.294922 22.5518C0.202104 22.4683 0.127865 22.3663 0.0770569 22.2523C0.0262487 22.1383 0 22.0148 0 21.89C0 21.7652 0.0262487 21.6418 0.0770569 21.5277C0.127865 21.4137 0.202104 21.3117 0.294922 21.2282C0.387739 21.1447 0.497062 21.0817 0.615814 21.0433C0.734567 21.0048 0.86007 20.9918 0.984192 21.005C4.33419 21.005 5.98421 24.005 7.40421 26.705C8.72421 29.155 9.9742 31.475 12.2742 31.475C14.5742 31.475 15.8142 29.155 17.1442 26.705C18.5842 24.035 20.2142 21.005 23.5642 21.005C26.9142 21.005 28.5642 24.005 29.9942 26.705C31.3142 29.155 32.5642 31.475 34.8542 31.475C37.1442 31.475 38.4042 29.155 39.7242 26.705C41.1642 24.035 42.8042 21.005 46.1542 21.005C49.5042 21.005 51.1542 24.005 52.5742 26.705C53.9042 29.155 55.1542 31.475 57.4442 31.475C59.7342 31.475 60.9942 29.155 62.3142 26.705C63.7542 24.035 65.3942 21.005 68.7442 21.005C68.9627 21.0283 69.1649 21.1315 69.3118 21.2949C69.4587 21.4583 69.54 21.6703 69.54 21.89C69.54 22.1097 69.4587 22.3217 69.3118 22.4851C69.1649 22.6485 68.9627 22.7517 68.7442 22.775C66.4442 22.775 65.1942 25.095 63.8742 27.545C62.4342 30.215 60.7942 33.245 57.4442 33.245Z" fill="white"/>
</g>
</svg>
