<svg width="80" height="108" viewBox="0 0 80 108" fill="none" xmlns="http://www.w3.org/2000/svg">
<g clip-path="url(#clip0_1929_4)">
<path d="M44.48 104.42C44.7727 104.42 45.0589 104.507 45.3022 104.669C45.5456 104.832 45.7353 105.063 45.8473 105.334C45.9594 105.604 45.9887 105.902 45.9316 106.189C45.8745 106.476 45.7335 106.739 45.5265 106.946C45.3195 107.153 45.0558 107.294 44.7687 107.351C44.4816 107.409 44.1841 107.379 43.9136 107.267C43.6432 107.155 43.412 106.966 43.2494 106.722C43.0868 106.479 43 106.193 43 105.9C43 105.507 43.1559 105.131 43.4335 104.853C43.711 104.576 44.0875 104.42 44.48 104.42Z" fill="#E5575E"/>
<path d="M44.4801 89.5C44.772 89.5 45.0573 89.5863 45.3003 89.7481C45.5432 89.9099 45.7329 90.1398 45.8455 90.4091C45.958 90.6784 45.9885 90.9749 45.933 91.2615C45.8775 91.548 45.7385 91.8117 45.5335 92.0195C45.3285 92.2272 45.0667 92.3697 44.7809 92.4291C44.4952 92.4884 44.1982 92.462 43.9275 92.353C43.6567 92.244 43.4242 92.0575 43.2592 91.8167C43.0942 91.576 43.0041 91.2918 43.0001 91C42.9975 90.804 43.0338 90.6094 43.107 90.4275C43.1802 90.2456 43.2888 90.0801 43.4265 89.9405C43.5642 89.801 43.7282 89.6902 43.9091 89.6145C44.09 89.5389 44.2841 89.5 44.4801 89.5Z" fill="#E5575E"/>
<path d="M44.48 77.5401C45.2974 77.5401 45.96 76.8775 45.96 76.0601C45.96 75.2427 45.2974 74.5801 44.48 74.5801C43.6626 74.5801 43 75.2427 43 76.0601C43 76.8775 43.6626 77.5401 44.48 77.5401Z" fill="#E4E4E4"/>
<path d="M44.48 62.6299C45.2974 62.6299 45.96 61.9673 45.96 61.1499C45.96 60.3325 45.2974 59.6699 44.48 59.6699C43.6626 59.6699 43 60.3325 43 61.1499C43 61.9673 43.6626 62.6299 44.48 62.6299Z" fill="#E4E4E4"/>
<path d="M44.48 47.71C45.2974 47.71 45.96 47.0474 45.96 46.23C45.96 45.4126 45.2974 44.75 44.48 44.75C43.6626 44.75 43 45.4126 43 46.23C43 47.0474 43.6626 47.71 44.48 47.71Z" fill="#E4E4E4"/>
<path d="M44.48 32.7901C45.2974 32.7901 45.96 32.1275 45.96 31.3101C45.96 30.4927 45.2974 29.8301 44.48 29.8301C43.6626 29.8301 43 30.4927 43 31.3101C43 32.1275 43.6626 32.7901 44.48 32.7901Z" fill="#E4E4E4"/>
<path d="M44.48 17.8799C45.2974 17.8799 45.96 17.2173 45.96 16.3999C45.96 15.5825 45.2974 14.9199 44.48 14.9199C43.6626 14.9199 43 15.5825 43 16.3999C43 17.2173 43.6626 17.8799 44.48 17.8799Z" fill="#E4E4E4"/>
<path d="M44.48 2.96C45.2974 2.96 45.96 2.29738 45.96 1.48C45.96 0.662619 45.2974 0 44.48 0C43.6626 0 43 0.662619 43 1.48C43 2.29738 43.6626 2.96 44.48 2.96Z" fill="#E4E4E4"/>
<path d="M55.7808 104.42C56.0735 104.42 56.3597 104.507 56.6031 104.669C56.8464 104.832 57.0361 105.063 57.1482 105.334C57.2602 105.604 57.2895 105.902 57.2324 106.189C57.1753 106.476 57.0343 106.739 56.8273 106.946C56.6204 107.153 56.3566 107.294 56.0695 107.352C55.7825 107.409 55.4849 107.379 55.2144 107.267C54.944 107.155 54.7129 106.966 54.5502 106.722C54.3876 106.479 54.3008 106.193 54.3008 105.9C54.2995 105.705 54.3369 105.512 54.4108 105.332C54.4847 105.152 54.5936 104.988 54.7313 104.85C54.869 104.713 55.0327 104.604 55.2129 104.53C55.393 104.456 55.5861 104.419 55.7808 104.42Z" fill="#E5575E"/>
<path d="M55.7791 89.5C56.071 89.5001 56.3563 89.5864 56.5993 89.7481C56.8422 89.9099 57.0319 90.1399 57.1445 90.4091C57.257 90.6784 57.2875 90.975 57.232 91.2615C57.1765 91.548 57.0375 91.8118 56.8325 92.0195C56.6275 92.2273 56.3657 92.3698 56.0799 92.4291C55.7942 92.4885 55.4972 92.462 55.2265 92.353C54.9557 92.2441 54.7232 92.0575 54.5582 91.8168C54.3932 91.576 54.3031 91.2919 54.2991 91C54.2951 90.8036 54.3305 90.6084 54.4032 90.4259C54.4759 90.2435 54.5845 90.0774 54.7224 89.9376C54.8604 89.7977 55.025 89.687 55.2065 89.6118C55.388 89.5367 55.5827 89.4987 55.7791 89.5Z" fill="#E5575E"/>
<path d="M55.7808 77.5401C56.5982 77.5401 57.2608 76.8775 57.2608 76.0601C57.2608 75.2427 56.5982 74.5801 55.7808 74.5801C54.9634 74.5801 54.3008 75.2427 54.3008 76.0601C54.3008 76.8775 54.9634 77.5401 55.7808 77.5401Z" fill="#E4E4E4"/>
<path d="M55.7808 62.6299C56.5982 62.6299 57.2608 61.9673 57.2608 61.1499C57.2608 60.3325 56.5982 59.6699 55.7808 59.6699C54.9634 59.6699 54.3008 60.3325 54.3008 61.1499C54.3008 61.9673 54.9634 62.6299 55.7808 62.6299Z" fill="#E4E4E4"/>
<path d="M55.7808 47.71C56.5982 47.71 57.2608 47.0474 57.2608 46.23C57.2608 45.4126 56.5982 44.75 55.7808 44.75C54.9634 44.75 54.3008 45.4126 54.3008 46.23C54.3008 47.0474 54.9634 47.71 55.7808 47.71Z" fill="#E4E4E4"/>
<path d="M55.7808 32.7901C56.5982 32.7901 57.2608 32.1275 57.2608 31.3101C57.2608 30.4927 56.5982 29.8301 55.7808 29.8301C54.9634 29.8301 54.3008 30.4927 54.3008 31.3101C54.3008 32.1275 54.9634 32.7901 55.7808 32.7901Z" fill="#E4E4E4"/>
<path d="M55.7808 17.8799C56.5982 17.8799 57.2608 17.2173 57.2608 16.3999C57.2608 15.5825 56.5982 14.9199 55.7808 14.9199C54.9634 14.9199 54.3008 15.5825 54.3008 16.3999C54.3008 17.2173 54.9634 17.8799 55.7808 17.8799Z" fill="#E4E4E4"/>
<path d="M55.7808 2.96C56.5982 2.96 57.2608 2.29738 57.2608 1.48C57.2608 0.662619 56.5982 0 55.7808 0C54.9634 0 54.3008 0.662619 54.3008 1.48C54.3008 2.29738 54.9634 2.96 55.7808 2.96Z" fill="#E4E4E4"/>
<path d="M67.0698 104.42C67.3626 104.42 67.6487 104.507 67.8921 104.669C68.1355 104.832 68.3252 105.063 68.4372 105.334C68.5492 105.604 68.5785 105.902 68.5214 106.189C68.4643 106.476 68.3233 106.739 68.1164 106.946C67.9094 107.153 67.6457 107.294 67.3586 107.351C67.0715 107.409 66.7739 107.379 66.5035 107.267C66.233 107.155 66.0019 106.966 65.8393 106.722C65.6766 106.479 65.5898 106.193 65.5898 105.9C65.5898 105.507 65.7458 105.131 66.0233 104.853C66.3009 104.576 66.6773 104.42 67.0698 104.42Z" fill="#E5575E"/>
<path d="M67.07 89.5C67.3618 89.5 67.6472 89.5863 67.8901 89.7481C68.133 89.9099 68.3227 90.1398 68.4353 90.4091C68.5479 90.6784 68.5783 90.9749 68.5228 91.2615C68.4673 91.548 68.3283 91.8117 68.1234 92.0195C67.9184 92.2272 67.6565 92.3697 67.3708 92.4291C67.085 92.4884 66.7881 92.462 66.5173 92.353C66.2466 92.244 66.0141 92.0575 65.8491 91.8167C65.6841 91.576 65.5939 91.2918 65.59 91C65.5873 90.804 65.6237 90.6094 65.6968 90.4275C65.77 90.2456 65.8786 90.0801 66.0163 89.9405C66.154 89.801 66.3181 89.6902 66.4989 89.6145C66.6798 89.5389 66.8739 89.5 67.07 89.5Z" fill="#E5575E"/>
<path d="M67.0699 74.5899C67.363 74.5899 67.6496 74.6769 67.8932 74.84C68.1367 75.0031 68.3264 75.2348 68.4381 75.5058C68.5499 75.7769 68.5786 76.075 68.5207 76.3623C68.4627 76.6497 68.3208 76.9134 68.1128 77.1199C67.9048 77.3265 67.6402 77.4667 67.3524 77.5227C67.0647 77.5786 66.7668 77.5479 66.4965 77.4343C66.2263 77.3208 65.9958 77.1295 65.8344 76.8848C65.673 76.6401 65.5879 76.353 65.5899 76.0599C65.5899 75.866 65.6282 75.674 65.7027 75.495C65.7772 75.316 65.8864 75.1535 66.024 75.0169C66.1615 74.8802 66.3248 74.7722 66.5043 74.6989C66.6838 74.6256 66.876 74.5886 67.0699 74.5899Z" fill="#E4E4E4"/>
<path d="M67.0698 59.6699C67.3626 59.6699 67.6487 59.7567 67.8921 59.9193C68.1355 60.082 68.3252 60.3131 68.4372 60.5836C68.5492 60.854 68.5785 61.1516 68.5214 61.4387C68.4643 61.7257 68.3233 61.9895 68.1164 62.1964C67.9094 62.4034 67.6457 62.5444 67.3586 62.6015C67.0715 62.6586 66.7739 62.6293 66.5035 62.5173C66.233 62.4052 66.0019 62.2156 65.8393 61.9722C65.6766 61.7288 65.5898 61.4426 65.5898 61.1499C65.5898 60.7574 65.7458 60.381 66.0233 60.1034C66.3009 59.8259 66.6773 59.6699 67.0698 59.6699Z" fill="#E4E4E4"/>
<path d="M67.0698 44.75C67.3626 44.75 67.6487 44.8368 67.8921 44.9994C68.1355 45.162 68.3252 45.3932 68.4372 45.6636C68.5492 45.9341 68.5785 46.2316 68.5214 46.5187C68.4643 46.8058 68.3233 47.0695 68.1164 47.2765C67.9094 47.4835 67.6457 47.6245 67.3586 47.6816C67.0715 47.7387 66.7739 47.7094 66.5035 47.5973C66.233 47.4853 66.0019 47.2956 65.8393 47.0522C65.6766 46.8089 65.5898 46.5227 65.5898 46.23C65.5898 45.8375 65.7458 45.461 66.0233 45.1835C66.3009 44.9059 66.6773 44.75 67.0698 44.75Z" fill="#E4E4E4"/>
<path d="M67.0698 29.8301C67.3626 29.8301 67.6487 29.9169 67.8921 30.0795C68.1355 30.2421 68.3252 30.4733 68.4372 30.7437C68.5492 31.0141 68.5785 31.3117 68.5214 31.5988C68.4643 31.8859 68.3233 32.1496 68.1164 32.3566C67.9094 32.5636 67.6457 32.7045 67.3586 32.7616C67.0715 32.8187 66.7739 32.7894 66.5035 32.6774C66.233 32.5654 66.0019 32.3757 65.8393 32.1323C65.6766 31.8889 65.5898 31.6028 65.5898 31.3101C65.5898 30.9176 65.7458 30.5411 66.0233 30.2636C66.3009 29.986 66.6773 29.8301 67.0698 29.8301Z" fill="#E4E4E4"/>
<path d="M67.0698 14.9199C67.3626 14.9199 67.6487 15.0067 67.8921 15.1693C68.1355 15.332 68.3252 15.5631 68.4372 15.8336C68.5492 16.104 68.5785 16.4016 68.5214 16.6887C68.4643 16.9757 68.3233 17.2395 68.1164 17.4464C67.9094 17.6534 67.6457 17.7944 67.3586 17.8515C67.0715 17.9086 66.7739 17.8793 66.5035 17.7673C66.233 17.6552 66.0019 17.4656 65.8393 17.2222C65.6766 16.9788 65.5898 16.6926 65.5898 16.3999C65.5898 16.0074 65.7458 15.631 66.0233 15.3534C66.3009 15.0759 66.6773 14.9199 67.0698 14.9199Z" fill="#E4E4E4"/>
<path d="M67.0698 0C67.3626 0 67.6487 0.0868005 67.8921 0.249425C68.1355 0.412049 68.3252 0.643194 68.4372 0.913629C68.5492 1.18406 68.5785 1.48164 68.5214 1.76873C68.4643 2.05583 68.3233 2.31954 68.1164 2.52652C67.9094 2.7335 67.6457 2.87446 67.3586 2.93156C67.0715 2.98867 66.7739 2.95936 66.5035 2.84734C66.233 2.73532 66.0019 2.54563 65.8393 2.30224C65.6766 2.05886 65.5898 1.77272 65.5898 1.48C65.5898 1.08748 65.7458 0.711036 66.0233 0.433482C66.3009 0.155928 66.6773 0 67.0698 0V0Z" fill="#E4E4E4"/>
<path d="M78.3706 104.42C78.6633 104.42 78.9495 104.507 79.1929 104.669C79.4363 104.832 79.626 105.063 79.738 105.334C79.85 105.604 79.8793 105.902 79.8222 106.189C79.7651 106.476 79.6241 106.739 79.4171 106.946C79.2102 107.153 78.9465 107.294 78.6594 107.351C78.3723 107.409 78.0747 107.379 77.8043 107.267C77.5338 107.155 77.3027 106.966 77.14 106.722C76.9774 106.479 76.8906 106.193 76.8906 105.9C76.8906 105.507 77.0466 105.131 77.3241 104.853C77.6017 104.576 77.9781 104.42 78.3706 104.42Z" fill="#E5575E"/>
<path d="M78.3708 89.5C78.6626 89.5 78.948 89.5863 79.1909 89.7481C79.4338 89.9099 79.6235 90.1398 79.7361 90.4091C79.8487 90.6784 79.8791 90.9749 79.8236 91.2615C79.7681 91.548 79.6291 91.8117 79.4241 92.0195C79.2192 92.2272 78.9573 92.3697 78.6716 92.4291C78.3858 92.4884 78.0889 92.462 77.8181 92.353C77.5474 92.244 77.3149 92.0575 77.1499 91.8167C76.9848 91.576 76.8947 91.2918 76.8908 91C76.8881 90.804 76.9244 90.6094 76.9976 90.4275C77.0708 90.2456 77.1794 90.0801 77.3171 89.9405C77.4548 89.801 77.6189 89.6902 77.7997 89.6145C77.9806 89.5389 78.1747 89.5 78.3708 89.5Z" fill="#E5575E"/>
<path d="M78.3707 74.5899C78.6638 74.5899 78.9503 74.6769 79.1939 74.84C79.4375 75.0031 79.6272 75.2348 79.7389 75.5058C79.8507 75.7769 79.8794 76.075 79.8214 76.3623C79.7635 76.6497 79.6216 76.9134 79.4136 77.1199C79.2056 77.3265 78.941 77.4667 78.6532 77.5227C78.3655 77.5786 78.0676 77.5479 77.7973 77.4343C77.5271 77.3208 77.2966 77.1295 77.1352 76.8848C76.9738 76.6401 76.8887 76.353 76.8907 76.0599C76.8907 75.866 76.929 75.674 77.0035 75.495C77.078 75.316 77.1872 75.1535 77.3247 75.0169C77.4623 74.8802 77.6255 74.7722 77.805 74.6989C77.9845 74.6256 78.1768 74.5886 78.3707 74.5899Z" fill="#E4E4E4"/>
<path d="M78.3706 59.6699C78.6633 59.6699 78.9495 59.7567 79.1929 59.9193C79.4363 60.082 79.626 60.3131 79.738 60.5836C79.85 60.854 79.8793 61.1516 79.8222 61.4387C79.7651 61.7257 79.6241 61.9895 79.4171 62.1964C79.2102 62.4034 78.9465 62.5444 78.6594 62.6015C78.3723 62.6586 78.0747 62.6293 77.8043 62.5173C77.5338 62.4052 77.3027 62.2156 77.14 61.9722C76.9774 61.7288 76.8906 61.4426 76.8906 61.1499C76.8906 60.7574 77.0466 60.381 77.3241 60.1034C77.6017 59.8259 77.9781 59.6699 78.3706 59.6699Z" fill="#E4E4E4"/>
<path d="M78.3706 44.75C78.6633 44.75 78.9495 44.8368 79.1929 44.9994C79.4363 45.162 79.626 45.3932 79.738 45.6636C79.85 45.9341 79.8793 46.2316 79.8222 46.5187C79.7651 46.8058 79.6241 47.0695 79.4171 47.2765C79.2102 47.4835 78.9465 47.6245 78.6594 47.6816C78.3723 47.7387 78.0747 47.7094 77.8043 47.5973C77.5338 47.4853 77.3027 47.2956 77.14 47.0522C76.9774 46.8089 76.8906 46.5227 76.8906 46.23C76.8906 45.8375 77.0466 45.461 77.3241 45.1835C77.6017 44.9059 77.9781 44.75 78.3706 44.75Z" fill="#E4E4E4"/>
<path d="M78.3706 29.8301C78.6633 29.8301 78.9495 29.9169 79.1929 30.0795C79.4363 30.2421 79.626 30.4733 79.738 30.7437C79.85 31.0141 79.8793 31.3117 79.8222 31.5988C79.7651 31.8859 79.6241 32.1496 79.4171 32.3566C79.2102 32.5636 78.9465 32.7045 78.6594 32.7616C78.3723 32.8187 78.0747 32.7894 77.8043 32.6774C77.5338 32.5654 77.3027 32.3757 77.14 32.1323C76.9774 31.8889 76.8906 31.6028 76.8906 31.3101C76.8906 30.9176 77.0466 30.5411 77.3241 30.2636C77.6017 29.986 77.9781 29.8301 78.3706 29.8301Z" fill="#E4E4E4"/>
<path d="M78.3706 14.9199C78.6633 14.9199 78.9495 15.0067 79.1929 15.1693C79.4363 15.332 79.626 15.5631 79.738 15.8336C79.85 16.104 79.8793 16.4016 79.8222 16.6887C79.7651 16.9757 79.6241 17.2395 79.4171 17.4464C79.2102 17.6534 78.9465 17.7944 78.6594 17.8515C78.3723 17.9086 78.0747 17.8793 77.8043 17.7673C77.5338 17.6552 77.3027 17.4656 77.14 17.2222C76.9774 16.9788 76.8906 16.6926 76.8906 16.3999C76.8906 16.0074 77.0466 15.631 77.3241 15.3534C77.6017 15.0759 77.9781 14.9199 78.3706 14.9199Z" fill="#E4E4E4"/>
<path d="M78.3706 0C78.6633 0 78.9495 0.0868005 79.1929 0.249425C79.4363 0.412049 79.626 0.643194 79.738 0.913629C79.85 1.18406 79.8793 1.48164 79.8222 1.76873C79.7651 2.05583 79.6241 2.31954 79.4171 2.52652C79.2102 2.7335 78.9465 2.87446 78.6594 2.93156C78.3723 2.98867 78.0747 2.95936 77.8043 2.84734C77.5338 2.73532 77.3027 2.54563 77.14 2.30224C76.9774 2.05886 76.8906 1.77272 76.8906 1.48C76.8906 1.08748 77.0466 0.711036 77.3241 0.433482C77.6017 0.155928 77.9781 0 78.3706 0V0Z" fill="#E4E4E4"/>
</g>
<g clip-path="url(#clip1_1929_4)">
<path d="M1.48 104.42C1.77272 104.42 2.05886 104.507 2.30224 104.669C2.54563 104.832 2.73532 105.063 2.84734 105.334C2.95936 105.604 2.98867 105.902 2.93156 106.189C2.87446 106.476 2.7335 106.739 2.52652 106.946C2.31954 107.153 2.05583 107.294 1.76873 107.351C1.48164 107.409 1.18406 107.379 0.913629 107.267C0.643194 107.155 0.412049 106.966 0.249425 106.722C0.0868005 106.479 0 106.193 0 105.9C0 105.507 0.155928 105.131 0.433482 104.853C0.711036 104.576 1.08748 104.42 1.48 104.42Z" fill="#E5575E"/>
<path d="M1.48014 89.5C1.77199 89.5 2.05733 89.5863 2.30026 89.7481C2.5432 89.9099 2.73288 90.1398 2.84546 90.4091C2.95804 90.6784 2.98849 90.9749 2.93299 91.2615C2.87749 91.548 2.7385 91.8117 2.53352 92.0195C2.32853 92.2272 2.0667 92.3697 1.78093 92.4291C1.49517 92.4884 1.19824 92.462 0.927485 92.353C0.656726 92.244 0.424228 92.0575 0.259224 91.8167C0.0942205 91.576 0.00407919 91.2918 0.000135152 91C-0.00251418 90.804 0.0338109 90.6094 0.107001 90.4275C0.180191 90.2456 0.288787 90.0801 0.426482 89.9405C0.564177 89.801 0.728228 89.6902 0.909106 89.6145C1.08998 89.5389 1.28408 89.5 1.48014 89.5Z" fill="#E5575E"/>
<path d="M1.48 77.5401C2.29738 77.5401 2.96 76.8775 2.96 76.0601C2.96 75.2427 2.29738 74.5801 1.48 74.5801C0.662619 74.5801 0 75.2427 0 76.0601C0 76.8775 0.662619 77.5401 1.48 77.5401Z" fill="#E4E4E4"/>
<path d="M1.48 62.6299C2.29738 62.6299 2.96 61.9673 2.96 61.1499C2.96 60.3325 2.29738 59.6699 1.48 59.6699C0.662619 59.6699 0 60.3325 0 61.1499C0 61.9673 0.662619 62.6299 1.48 62.6299Z" fill="#E4E4E4"/>
<path d="M1.48 47.71C2.29738 47.71 2.96 47.0474 2.96 46.23C2.96 45.4126 2.29738 44.75 1.48 44.75C0.662619 44.75 0 45.4126 0 46.23C0 47.0474 0.662619 47.71 1.48 47.71Z" fill="#E4E4E4"/>
<path d="M1.48 32.7901C2.29738 32.7901 2.96 32.1275 2.96 31.3101C2.96 30.4927 2.29738 29.8301 1.48 29.8301C0.662619 29.8301 0 30.4927 0 31.3101C0 32.1275 0.662619 32.7901 1.48 32.7901Z" fill="#E4E4E4"/>
<path d="M1.48 17.8799C2.29738 17.8799 2.96 17.2173 2.96 16.3999C2.96 15.5825 2.29738 14.9199 1.48 14.9199C0.662619 14.9199 0 15.5825 0 16.3999C0 17.2173 0.662619 17.8799 1.48 17.8799Z" fill="#E4E4E4"/>
<path d="M1.48 2.96C2.29738 2.96 2.96 2.29738 2.96 1.48C2.96 0.662619 2.29738 0 1.48 0C0.662619 0 0 0.662619 0 1.48C0 2.29738 0.662619 2.96 1.48 2.96Z" fill="#E4E4E4"/>
<path d="M12.7808 104.42C13.0735 104.42 13.3597 104.507 13.6031 104.669C13.8464 104.832 14.0361 105.063 14.1482 105.334C14.2602 105.604 14.2895 105.902 14.2324 106.189C14.1753 106.476 14.0343 106.739 13.8273 106.946C13.6204 107.153 13.3566 107.294 13.0695 107.352C12.7825 107.409 12.4849 107.379 12.2144 107.267C11.944 107.155 11.7129 106.966 11.5502 106.722C11.3876 106.479 11.3008 106.193 11.3008 105.9C11.2995 105.705 11.3369 105.512 11.4108 105.332C11.4847 105.152 11.5936 104.988 11.7313 104.85C11.869 104.713 12.0327 104.604 12.2129 104.53C12.393 104.456 12.5861 104.419 12.7808 104.42Z" fill="#E5575E"/>
<path d="M12.7791 89.5C13.071 89.5001 13.3563 89.5864 13.5993 89.7481C13.8422 89.9099 14.0319 90.1399 14.1445 90.4091C14.257 90.6784 14.2875 90.975 14.232 91.2615C14.1765 91.548 14.0375 91.8118 13.8325 92.0195C13.6275 92.2273 13.3657 92.3698 13.0799 92.4291C12.7942 92.4885 12.4972 92.462 12.2265 92.353C11.9557 92.2441 11.7232 92.0575 11.5582 91.8168C11.3932 91.576 11.3031 91.2919 11.2991 91C11.2951 90.8036 11.3305 90.6084 11.4032 90.4259C11.4759 90.2435 11.5845 90.0774 11.7224 89.9376C11.8604 89.7977 12.025 89.687 12.2065 89.6118C12.388 89.5367 12.5827 89.4987 12.7791 89.5Z" fill="#E5575E"/>
<path d="M12.7808 77.5401C13.5982 77.5401 14.2608 76.8775 14.2608 76.0601C14.2608 75.2427 13.5982 74.5801 12.7808 74.5801C11.9634 74.5801 11.3008 75.2427 11.3008 76.0601C11.3008 76.8775 11.9634 77.5401 12.7808 77.5401Z" fill="#E4E4E4"/>
<path d="M12.7808 62.6299C13.5982 62.6299 14.2608 61.9673 14.2608 61.1499C14.2608 60.3325 13.5982 59.6699 12.7808 59.6699C11.9634 59.6699 11.3008 60.3325 11.3008 61.1499C11.3008 61.9673 11.9634 62.6299 12.7808 62.6299Z" fill="#E4E4E4"/>
<path d="M12.7808 47.71C13.5982 47.71 14.2608 47.0474 14.2608 46.23C14.2608 45.4126 13.5982 44.75 12.7808 44.75C11.9634 44.75 11.3008 45.4126 11.3008 46.23C11.3008 47.0474 11.9634 47.71 12.7808 47.71Z" fill="#E4E4E4"/>
<path d="M12.7808 32.7901C13.5982 32.7901 14.2608 32.1275 14.2608 31.3101C14.2608 30.4927 13.5982 29.8301 12.7808 29.8301C11.9634 29.8301 11.3008 30.4927 11.3008 31.3101C11.3008 32.1275 11.9634 32.7901 12.7808 32.7901Z" fill="#E4E4E4"/>
<path d="M12.7808 17.8799C13.5982 17.8799 14.2608 17.2173 14.2608 16.3999C14.2608 15.5825 13.5982 14.9199 12.7808 14.9199C11.9634 14.9199 11.3008 15.5825 11.3008 16.3999C11.3008 17.2173 11.9634 17.8799 12.7808 17.8799Z" fill="#E4E4E4"/>
<path d="M12.7808 2.96C13.5982 2.96 14.2608 2.29738 14.2608 1.48C14.2608 0.662619 13.5982 0 12.7808 0C11.9634 0 11.3008 0.662619 11.3008 1.48C11.3008 2.29738 11.9634 2.96 12.7808 2.96Z" fill="#E4E4E4"/>
<path d="M24.0698 104.42C24.3626 104.42 24.6487 104.507 24.8921 104.669C25.1355 104.832 25.3252 105.063 25.4372 105.334C25.5492 105.604 25.5785 105.902 25.5214 106.189C25.4643 106.476 25.3233 106.739 25.1164 106.946C24.9094 107.153 24.6457 107.294 24.3586 107.351C24.0715 107.409 23.7739 107.379 23.5035 107.267C23.233 107.155 23.0019 106.966 22.8393 106.722C22.6766 106.479 22.5898 106.193 22.5898 105.9C22.5898 105.507 22.7458 105.131 23.0233 104.853C23.3009 104.576 23.6773 104.42 24.0698 104.42Z" fill="#E5575E"/>
<path d="M24.07 89.5C24.3618 89.5 24.6472 89.5863 24.8901 89.7481C25.133 89.9099 25.3227 90.1398 25.4353 90.4091C25.5479 90.6784 25.5783 90.9749 25.5228 91.2615C25.4673 91.548 25.3283 91.8117 25.1234 92.0195C24.9184 92.2272 24.6565 92.3697 24.3708 92.4291C24.085 92.4884 23.7881 92.462 23.5173 92.353C23.2466 92.244 23.0141 92.0575 22.8491 91.8167C22.6841 91.576 22.5939 91.2918 22.59 91C22.5873 90.804 22.6237 90.6094 22.6968 90.4275C22.77 90.2456 22.8786 90.0801 23.0163 89.9405C23.154 89.801 23.3181 89.6902 23.4989 89.6145C23.6798 89.5389 23.8739 89.5 24.07 89.5Z" fill="#E5575E"/>
<path d="M24.0699 74.5899C24.363 74.5899 24.6496 74.6769 24.8932 74.84C25.1367 75.0031 25.3264 75.2348 25.4381 75.5058C25.5499 75.7769 25.5786 76.075 25.5207 76.3623C25.4627 76.6497 25.3208 76.9134 25.1128 77.1199C24.9048 77.3265 24.6402 77.4667 24.3524 77.5227C24.0647 77.5786 23.7668 77.5479 23.4965 77.4343C23.2263 77.3208 22.9958 77.1295 22.8344 76.8848C22.673 76.6401 22.5879 76.353 22.5899 76.0599C22.5899 75.866 22.6282 75.674 22.7027 75.495C22.7772 75.316 22.8864 75.1535 23.024 75.0169C23.1615 74.8802 23.3248 74.7722 23.5043 74.6989C23.6838 74.6256 23.876 74.5886 24.0699 74.5899Z" fill="#E4E4E4"/>
<path d="M24.0698 59.6699C24.3626 59.6699 24.6487 59.7567 24.8921 59.9193C25.1355 60.082 25.3252 60.3131 25.4372 60.5836C25.5492 60.854 25.5785 61.1516 25.5214 61.4387C25.4643 61.7257 25.3233 61.9895 25.1164 62.1964C24.9094 62.4034 24.6457 62.5444 24.3586 62.6015C24.0715 62.6586 23.7739 62.6293 23.5035 62.5173C23.233 62.4052 23.0019 62.2156 22.8393 61.9722C22.6766 61.7288 22.5898 61.4426 22.5898 61.1499C22.5898 60.7574 22.7458 60.381 23.0233 60.1034C23.3009 59.8259 23.6773 59.6699 24.0698 59.6699Z" fill="#E4E4E4"/>
<path d="M24.0698 44.75C24.3626 44.75 24.6487 44.8368 24.8921 44.9994C25.1355 45.162 25.3252 45.3932 25.4372 45.6636C25.5492 45.9341 25.5785 46.2316 25.5214 46.5187C25.4643 46.8058 25.3233 47.0695 25.1164 47.2765C24.9094 47.4835 24.6457 47.6245 24.3586 47.6816C24.0715 47.7387 23.7739 47.7094 23.5035 47.5973C23.233 47.4853 23.0019 47.2956 22.8393 47.0522C22.6766 46.8089 22.5898 46.5227 22.5898 46.23C22.5898 45.8375 22.7458 45.461 23.0233 45.1835C23.3009 44.9059 23.6773 44.75 24.0698 44.75Z" fill="#E4E4E4"/>
<path d="M24.0698 29.8301C24.3626 29.8301 24.6487 29.9169 24.8921 30.0795C25.1355 30.2421 25.3252 30.4733 25.4372 30.7437C25.5492 31.0141 25.5785 31.3117 25.5214 31.5988C25.4643 31.8859 25.3233 32.1496 25.1164 32.3566C24.9094 32.5636 24.6457 32.7045 24.3586 32.7616C24.0715 32.8187 23.7739 32.7894 23.5035 32.6774C23.233 32.5654 23.0019 32.3757 22.8393 32.1323C22.6766 31.8889 22.5898 31.6028 22.5898 31.3101C22.5898 30.9176 22.7458 30.5411 23.0233 30.2636C23.3009 29.986 23.6773 29.8301 24.0698 29.8301Z" fill="#E4E4E4"/>
<path d="M24.0698 14.9199C24.3626 14.9199 24.6487 15.0067 24.8921 15.1693C25.1355 15.332 25.3252 15.5631 25.4372 15.8336C25.5492 16.104 25.5785 16.4016 25.5214 16.6887C25.4643 16.9757 25.3233 17.2395 25.1164 17.4464C24.9094 17.6534 24.6457 17.7944 24.3586 17.8515C24.0715 17.9086 23.7739 17.8793 23.5035 17.7673C23.233 17.6552 23.0019 17.4656 22.8393 17.2222C22.6766 16.9788 22.5898 16.6926 22.5898 16.3999C22.5898 16.0074 22.7458 15.631 23.0233 15.3534C23.3009 15.0759 23.6773 14.9199 24.0698 14.9199Z" fill="#E4E4E4"/>
<path d="M24.0698 0C24.3626 0 24.6487 0.0868005 24.8921 0.249425C25.1355 0.412049 25.3252 0.643194 25.4372 0.913629C25.5492 1.18406 25.5785 1.48164 25.5214 1.76873C25.4643 2.05583 25.3233 2.31954 25.1164 2.52652C24.9094 2.7335 24.6457 2.87446 24.3586 2.93156C24.0715 2.98867 23.7739 2.95936 23.5035 2.84734C23.233 2.73532 23.0019 2.54563 22.8393 2.30224C22.6766 2.05886 22.5898 1.77272 22.5898 1.48C22.5898 1.08748 22.7458 0.711036 23.0233 0.433482C23.3009 0.155928 23.6773 0 24.0698 0V0Z" fill="#E4E4E4"/>
<path d="M35.3706 104.42C35.6633 104.42 35.9495 104.507 36.1929 104.669C36.4363 104.832 36.626 105.063 36.738 105.334C36.85 105.604 36.8793 105.902 36.8222 106.189C36.7651 106.476 36.6241 106.739 36.4171 106.946C36.2102 107.153 35.9465 107.294 35.6594 107.351C35.3723 107.409 35.0747 107.379 34.8043 107.267C34.5338 107.155 34.3027 106.966 34.14 106.722C33.9774 106.479 33.8906 106.193 33.8906 105.9C33.8906 105.507 34.0466 105.131 34.3241 104.853C34.6017 104.576 34.9781 104.42 35.3706 104.42Z" fill="#E5575E"/>
<path d="M35.3708 89.5C35.6626 89.5 35.948 89.5863 36.1909 89.7481C36.4338 89.9099 36.6235 90.1398 36.7361 90.4091C36.8487 90.6784 36.8791 90.9749 36.8236 91.2615C36.7681 91.548 36.6291 91.8117 36.4241 92.0195C36.2192 92.2272 35.9573 92.3697 35.6716 92.4291C35.3858 92.4884 35.0889 92.462 34.8181 92.353C34.5474 92.244 34.3149 92.0575 34.1499 91.8167C33.9848 91.576 33.8947 91.2918 33.8908 91C33.8881 90.804 33.9244 90.6094 33.9976 90.4275C34.0708 90.2456 34.1794 90.0801 34.3171 89.9405C34.4548 89.801 34.6189 89.6902 34.7997 89.6145C34.9806 89.5389 35.1747 89.5 35.3708 89.5Z" fill="#E5575E"/>
<path d="M35.3707 74.5899C35.6638 74.5899 35.9503 74.6769 36.1939 74.84C36.4375 75.0031 36.6272 75.2348 36.7389 75.5058C36.8507 75.7769 36.8794 76.075 36.8214 76.3623C36.7635 76.6497 36.6216 76.9134 36.4136 77.1199C36.2056 77.3265 35.941 77.4667 35.6532 77.5227C35.3655 77.5786 35.0676 77.5479 34.7973 77.4343C34.5271 77.3208 34.2966 77.1295 34.1352 76.8848C33.9738 76.6401 33.8887 76.353 33.8907 76.0599C33.8907 75.866 33.929 75.674 34.0035 75.495C34.078 75.316 34.1872 75.1535 34.3247 75.0169C34.4623 74.8802 34.6255 74.7722 34.805 74.6989C34.9845 74.6256 35.1768 74.5886 35.3707 74.5899Z" fill="#E4E4E4"/>
<path d="M35.3706 59.6699C35.6633 59.6699 35.9495 59.7567 36.1929 59.9193C36.4363 60.082 36.626 60.3131 36.738 60.5836C36.85 60.854 36.8793 61.1516 36.8222 61.4387C36.7651 61.7257 36.6241 61.9895 36.4171 62.1964C36.2102 62.4034 35.9465 62.5444 35.6594 62.6015C35.3723 62.6586 35.0747 62.6293 34.8043 62.5173C34.5338 62.4052 34.3027 62.2156 34.14 61.9722C33.9774 61.7288 33.8906 61.4426 33.8906 61.1499C33.8906 60.7574 34.0466 60.381 34.3241 60.1034C34.6017 59.8259 34.9781 59.6699 35.3706 59.6699Z" fill="#E4E4E4"/>
<path d="M35.3706 44.75C35.6633 44.75 35.9495 44.8368 36.1929 44.9994C36.4363 45.162 36.626 45.3932 36.738 45.6636C36.85 45.9341 36.8793 46.2316 36.8222 46.5187C36.7651 46.8058 36.6241 47.0695 36.4171 47.2765C36.2102 47.4835 35.9465 47.6245 35.6594 47.6816C35.3723 47.7387 35.0747 47.7094 34.8043 47.5973C34.5338 47.4853 34.3027 47.2956 34.14 47.0522C33.9774 46.8089 33.8906 46.5227 33.8906 46.23C33.8906 45.8375 34.0466 45.461 34.3241 45.1835C34.6017 44.9059 34.9781 44.75 35.3706 44.75Z" fill="#E4E4E4"/>
<path d="M35.3706 29.8301C35.6633 29.8301 35.9495 29.9169 36.1929 30.0795C36.4363 30.2421 36.626 30.4733 36.738 30.7437C36.85 31.0141 36.8793 31.3117 36.8222 31.5988C36.7651 31.8859 36.6241 32.1496 36.4171 32.3566C36.2102 32.5636 35.9465 32.7045 35.6594 32.7616C35.3723 32.8187 35.0747 32.7894 34.8043 32.6774C34.5338 32.5654 34.3027 32.3757 34.14 32.1323C33.9774 31.8889 33.8906 31.6028 33.8906 31.3101C33.8906 30.9176 34.0466 30.5411 34.3241 30.2636C34.6017 29.986 34.9781 29.8301 35.3706 29.8301Z" fill="#E4E4E4"/>
<path d="M35.3706 14.9199C35.6633 14.9199 35.9495 15.0067 36.1929 15.1693C36.4363 15.332 36.626 15.5631 36.738 15.8336C36.85 16.104 36.8793 16.4016 36.8222 16.6887C36.7651 16.9757 36.6241 17.2395 36.4171 17.4464C36.2102 17.6534 35.9465 17.7944 35.6594 17.8515C35.3723 17.9086 35.0747 17.8793 34.8043 17.7673C34.5338 17.6552 34.3027 17.4656 34.14 17.2222C33.9774 16.9788 33.8906 16.6926 33.8906 16.3999C33.8906 16.0074 34.0466 15.631 34.3241 15.3534C34.6017 15.0759 34.9781 14.9199 35.3706 14.9199Z" fill="#E4E4E4"/>
<path d="M35.3706 0C35.6633 0 35.9495 0.0868005 36.1929 0.249425C36.4363 0.412049 36.626 0.643194 36.738 0.913629C36.85 1.18406 36.8793 1.48164 36.8222 1.76873C36.7651 2.05583 36.6241 2.31954 36.4171 2.52652C36.2102 2.7335 35.9465 2.87446 35.6594 2.93156C35.3723 2.98867 35.0747 2.95936 34.8043 2.84734C34.5338 2.73532 34.3027 2.54563 34.14 2.30224C33.9774 2.05886 33.8906 1.77272 33.8906 1.48C33.8906 1.08748 34.0466 0.711036 34.3241 0.433482C34.6017 0.155928 34.9781 0 35.3706 0V0Z" fill="#E4E4E4"/>
</g>
<defs>
<clipPath id="clip0_1929_4">
<rect width="36.85" height="107.38" fill="white" transform="translate(43)"/>
</clipPath>
<clipPath id="clip1_1929_4">
<rect width="36.85" height="107.38" fill="white"/>
</clipPath>
</defs>
</svg>
