<svg width="55" height="40" viewBox="0 0 55 40" fill="none" xmlns="http://www.w3.org/2000/svg">
<path d="M15.7714 13.9758C17.0603 14.5334 18.3536 14.9558 19.5153 15.6187C23.9651 18.156 26.3476 23.441 25.4611 28.6134C24.5851 33.7316 20.6163 37.8396 15.6678 38.8287C8.23322 40.3153 2.0639 35.0288 0.949609 28.3518C0.341409 24.7082 0.875618 21.1112 1.88189 17.6104C4.26438 9.32052 9.73375 4.052 17.6714 1.2757C18.105 1.12389 18.5549 0.975074 19.0062 0.932987C20.156 0.826263 21.035 1.32831 21.553 2.36398C22.0694 3.39964 21.9185 4.40073 21.2052 5.31164C20.4239 6.31123 19.613 7.28978 18.8716 8.31943C17.596 10.0991 16.5453 12.0142 15.7714 13.9758Z" fill="#BDBDBD" fill-opacity="0.2"/>
<path d="M44.9938 13.959C46.3698 14.5462 47.6303 14.9502 48.7607 15.5915C53.2215 18.1191 55.685 23.4025 54.8268 28.411C53.908 33.7665 50.0361 37.8259 44.9346 38.8352C37.6434 40.2784 31.6305 35.1707 30.3315 28.6889C29.821 26.1448 30.0711 23.6022 30.4558 21.0762C31.1304 16.6398 32.7224 12.5864 35.5558 9.09163C38.8211 5.06676 43.0201 2.49715 47.9026 1.02086C48.9841 0.693466 50.1278 1.17705 50.7537 2.14873C51.3899 3.13692 51.3144 4.31736 50.5746 5.29354C49.5271 6.67521 48.4115 8.01333 47.475 9.4701C46.5414 10.9224 45.7927 12.4963 44.9938 13.959Z" fill="#BDBDBD" fill-opacity="0.2"/>
</svg>
