<svg width="145" height="22" viewBox="0 0 145 22" fill="none" xmlns="http://www.w3.org/2000/svg">
<path d="M21.8805 0H0V22H21.8805V0Z" fill="#F8B800"/>
<path d="M10.9394 14.8255L14.2671 13.9776L15.6574 18.2859L10.9394 14.8255ZM18.5976 9.25677H12.74L10.9394 3.71094L9.13884 9.25677H3.28125L8.02202 12.6943L6.22144 18.2401L10.9622 14.8026L13.8796 12.6943L18.5976 9.25677Z" fill="white"/>
<path d="M52.568 0H30.6875V22H52.568V0Z" fill="#F8B800"/>
<path d="M41.6269 14.8255L44.9546 13.9776L46.3449 18.2859L41.6269 14.8255ZM49.2851 9.25677H43.4275L41.6269 3.71094L39.8263 9.25677H33.9688L38.7095 12.6943L36.9089 18.2401L41.6497 14.8026L44.5671 12.6943L49.2851 9.25677Z" fill="white"/>
<path d="M83.2555 0H61.375V22H83.2555V0Z" fill="#F8B800"/>
<path d="M72.3164 14.8255L75.644 13.9776L77.0344 18.2859L72.3164 14.8255ZM79.9745 9.25677H74.117L72.3164 3.71094L70.5158 9.25677H64.6582L69.399 12.6943L67.5984 18.2401L72.3392 14.8026L75.2566 12.6943L79.9745 9.25677Z" fill="white"/>
<path d="M113.943 0H92.0625V22H113.943V0Z" fill="#F8B800"/>
<path d="M103.004 14.8255L106.332 13.9776L107.722 18.2859L103.004 14.8255ZM110.662 9.25677H104.804L103.004 3.71094L101.203 9.25677H95.3457L100.086 12.6943L98.2859 18.2401L103.027 14.8026L105.944 12.6943L110.662 9.25677Z" fill="white"/>
<path d="M144.631 0H122.751V22H144.631V0Z" fill="#F8B800"/>
<path d="M133.69 14.8255L137.018 13.9776L138.408 18.2859L133.69 14.8255ZM141.349 9.25677H135.491L133.69 3.71094L131.89 9.25677H126.032L130.773 12.6943L128.972 18.2401L133.713 14.8026L136.631 12.6943L141.349 9.25677Z" fill="white"/>
</svg>
