<svg width="646" height="894" viewBox="0 0 646 894" fill="none" xmlns="http://www.w3.org/2000/svg">
<g style="mix-blend-mode:soft-light">
<path fill-rule="evenodd" clip-rule="evenodd" d="M-95.6312 870.4L-273.991 763.473L335.258 -332.275L513.618 -225.347L-95.6312 870.4Z" fill="url(#paint0_radial_1233_273)"/>
<path fill-rule="evenodd" clip-rule="evenodd" d="M323.915 -403.093L437.015 -335.289L-215.376 838.054L-328.476 770.25L323.915 -403.093Z" fill="url(#paint1_radial_1233_273)"/>
<path fill-rule="evenodd" clip-rule="evenodd" d="M378.38 -370.712L646 -210.272L-6.39099 963.071L-274.011 802.631L378.38 -370.712Z" fill="url(#paint2_radial_1233_273)"/>
<path fill-rule="evenodd" clip-rule="evenodd" d="M-287.188 792.493L-465.548 685.565L143.702 -410.182L322.062 -303.254L-287.188 792.493Z" fill="url(#paint3_radial_1233_273)"/>
<path fill-rule="evenodd" clip-rule="evenodd" d="M132.359 -481L245.458 -413.196L-406.932 760.147L-520.032 692.343L132.359 -481Z" fill="url(#paint4_radial_1233_273)"/>
<path fill-rule="evenodd" clip-rule="evenodd" d="M186.824 -448.62L454.443 -288.179L-197.948 885.164L-465.567 724.723L186.824 -448.62Z" fill="url(#paint5_radial_1233_273)"/>
<path fill-rule="evenodd" clip-rule="evenodd" d="M-83.3688 1018.91L94.9912 911.983L-514.259 -183.764L-692.619 -76.8359L-83.3688 1018.91Z" fill="url(#paint6_radial_1233_273)"/>
<path fill-rule="evenodd" clip-rule="evenodd" d="M-502.915 -254.582L-616.015 -186.778L36.3758 986.565L149.476 918.762L-502.915 -254.582Z" fill="url(#paint7_radial_1233_273)"/>
<path fill-rule="evenodd" clip-rule="evenodd" d="M-557.38 -222.201L-825 -61.7607L-172.609 1111.58L95.0107 951.142L-557.38 -222.201Z" fill="url(#paint8_radial_1233_273)"/>
<path fill-rule="evenodd" clip-rule="evenodd" d="M172.665 974.601L351.025 867.673L-258.225 -228.074L-436.585 -121.146L172.665 974.601Z" fill="url(#paint9_radial_1233_273)"/>
<path fill-rule="evenodd" clip-rule="evenodd" d="M-246.881 -298.892L-359.981 -231.088L292.41 942.255L405.51 874.451L-246.881 -298.892Z" fill="url(#paint10_radial_1233_273)"/>
<path fill-rule="evenodd" clip-rule="evenodd" d="M-330.888 -319.644L-598.508 -159.204L83.4252 1067.27L351.045 906.832L-330.888 -319.644Z" fill="url(#paint11_radial_1233_273)"/>
<path fill-rule="evenodd" clip-rule="evenodd" d="M424.202 -342.371L422.577 -343.345L-290.891 939.845L-289.266 940.819L424.202 -342.371Z" fill="url(#paint12_linear_1233_273)"/>
<path fill-rule="evenodd" clip-rule="evenodd" d="M419.275 -345.296L417.65 -346.27L-295.818 936.92L-294.193 937.894L419.275 -345.296Z" fill="url(#paint13_linear_1233_273)"/>
<path fill-rule="evenodd" clip-rule="evenodd" d="M414.353 -348.214L412.729 -349.188L-300.74 934.002L-299.115 934.976L414.353 -348.214Z" fill="url(#paint14_linear_1233_273)"/>
<path fill-rule="evenodd" clip-rule="evenodd" d="M409.663 -351.137L408.038 -352.111L-305.43 931.079L-303.806 932.053L409.663 -351.137Z" fill="url(#paint15_linear_1233_273)"/>
<path fill-rule="evenodd" clip-rule="evenodd" d="M404.975 -354.06L403.351 -355.034L-310.12 928.16L-308.495 929.134L404.975 -354.06Z" fill="url(#paint16_linear_1233_273)"/>
<path fill-rule="evenodd" clip-rule="evenodd" d="M400.051 -356.979L398.427 -357.953L-315.041 925.238L-313.417 926.212L400.051 -356.979Z" fill="url(#paint17_linear_1233_273)"/>
<path fill-rule="evenodd" clip-rule="evenodd" d="M395.124 -359.657L393.499 -360.631L-319.969 922.559L-318.345 923.533L395.124 -359.657Z" fill="url(#paint18_linear_1233_273)"/>
<path fill-rule="evenodd" clip-rule="evenodd" d="M390.435 -362.58L388.811 -363.554L-324.658 919.636L-323.033 920.61L390.435 -362.58Z" fill="url(#paint19_linear_1233_273)"/>
<path fill-rule="evenodd" clip-rule="evenodd" d="M385.748 -365.503L384.123 -366.477L-329.345 916.713L-327.72 917.687L385.748 -365.503Z" fill="url(#paint20_linear_1233_273)"/>
<path fill-rule="evenodd" clip-rule="evenodd" d="M380.824 -368.421L379.199 -369.395L-334.269 913.795L-332.645 914.769L380.824 -368.421Z" fill="url(#paint21_linear_1233_273)"/>
<path fill-rule="evenodd" clip-rule="evenodd" d="M376.135 -371.344L374.511 -372.318L-338.958 910.872L-337.333 911.846L376.135 -371.344Z" fill="url(#paint22_linear_1233_273)"/>
<path fill-rule="evenodd" clip-rule="evenodd" d="M371.214 -374.267L369.59 -375.241L-343.881 907.954L-342.256 908.928L371.214 -374.267Z" fill="url(#paint23_linear_1233_273)"/>
<path fill-rule="evenodd" clip-rule="evenodd" d="M366.286 -377.187L364.661 -378.161L-348.807 905.029L-347.182 906.003L366.286 -377.187Z" fill="url(#paint24_linear_1233_273)"/>
<path fill-rule="evenodd" clip-rule="evenodd" d="M361.597 -379.864L359.973 -380.838L-353.496 902.353L-351.871 903.326L361.597 -379.864Z" fill="url(#paint25_linear_1233_273)"/>
<path fill-rule="evenodd" clip-rule="evenodd" d="M356.908 -382.787L355.283 -383.761L-358.185 899.429L-356.56 900.403L356.908 -382.787Z" fill="url(#paint26_linear_1233_273)"/>
<path fill-rule="evenodd" clip-rule="evenodd" d="M351.752 -385.462L350.127 -386.436L-363.341 896.754L-361.717 897.728L351.752 -385.462Z" fill="url(#paint27_linear_1233_273)"/>
<path fill-rule="evenodd" clip-rule="evenodd" d="M130.459 -364.801L128.834 -365.775L-584.637 917.419L-583.012 918.393L130.459 -364.801Z" fill="url(#paint28_linear_1233_273)"/>
<path fill-rule="evenodd" clip-rule="evenodd" d="M125.531 -367.722L123.906 -368.696L-589.562 914.494L-587.937 915.468L125.531 -367.722Z" fill="url(#paint29_linear_1233_273)"/>
<path fill-rule="evenodd" clip-rule="evenodd" d="M120.609 -370.644L118.984 -371.618L-594.484 911.572L-592.859 912.546L120.609 -370.644Z" fill="url(#paint30_linear_1233_273)"/>
<path fill-rule="evenodd" clip-rule="evenodd" d="M115.919 -373.563L114.294 -374.537L-599.174 908.653L-597.55 909.627L115.919 -373.563Z" fill="url(#paint31_linear_1233_273)"/>
<path fill-rule="evenodd" clip-rule="evenodd" d="M111.23 -376.486L109.605 -377.46L-603.863 905.73L-602.238 906.704L111.23 -376.486Z" fill="url(#paint32_linear_1233_273)"/>
<path fill-rule="evenodd" clip-rule="evenodd" d="M106.311 -379.409L104.687 -380.383L-608.782 902.808L-607.157 903.781L106.311 -379.409Z" fill="url(#paint33_linear_1233_273)"/>
<path fill-rule="evenodd" clip-rule="evenodd" d="M101.381 -382.087L99.7568 -383.061L-613.711 900.129L-612.087 901.103L101.381 -382.087Z" fill="url(#paint34_linear_1233_273)"/>
<path fill-rule="evenodd" clip-rule="evenodd" d="M96.6949 -385.01L95.0703 -385.984L-618.4 897.21L-616.776 898.184L96.6949 -385.01Z" fill="url(#paint35_linear_1233_273)"/>
<path fill-rule="evenodd" clip-rule="evenodd" d="M92.0035 -387.929L90.3789 -388.903L-623.089 894.288L-621.465 895.262L92.0035 -387.929Z" fill="url(#paint36_linear_1233_273)"/>
<path fill-rule="evenodd" clip-rule="evenodd" d="M87.0816 -390.851L85.457 -391.825L-628.011 891.365L-626.387 892.339L87.0816 -390.851Z" fill="url(#paint37_linear_1233_273)"/>
<path fill-rule="evenodd" clip-rule="evenodd" d="M82.3912 -393.77L80.7666 -394.744L-632.702 888.446L-631.077 889.42L82.3912 -393.77Z" fill="url(#paint38_linear_1233_273)"/>
<path fill-rule="evenodd" clip-rule="evenodd" d="M77.4693 -396.692L75.8447 -397.666L-637.623 885.524L-635.999 886.498L77.4693 -396.692Z" fill="url(#paint39_linear_1233_273)"/>
<path fill-rule="evenodd" clip-rule="evenodd" d="M72.5435 -399.617L70.9189 -400.591L-642.549 882.599L-640.925 883.573L72.5435 -399.617Z" fill="url(#paint40_linear_1233_273)"/>
<path fill-rule="evenodd" clip-rule="evenodd" d="M67.8531 -402.294L66.2285 -403.268L-647.24 879.922L-645.615 880.896L67.8531 -402.294Z" fill="url(#paint41_linear_1233_273)"/>
<path fill-rule="evenodd" clip-rule="evenodd" d="M63.1675 -405.217L61.543 -406.191L-651.925 876.999L-650.301 877.973L63.1675 -405.217Z" fill="url(#paint42_linear_1233_273)"/>
<path fill-rule="evenodd" clip-rule="evenodd" d="M58.0113 -407.892L56.3867 -408.866L-657.081 874.324L-655.457 875.298L58.0113 -407.892Z" fill="url(#paint43_linear_1233_273)"/>
<path fill-rule="evenodd" clip-rule="evenodd" d="M-259.05 -320.25L-257.426 -321.224L456.045 961.971L454.42 962.944L-259.05 -320.25Z" fill="url(#paint44_linear_1233_273)"/>
<path fill-rule="evenodd" clip-rule="evenodd" d="M-254.128 -323.168L-252.503 -324.142L460.965 959.048L459.341 960.022L-254.128 -323.168Z" fill="url(#paint45_linear_1233_273)"/>
<path fill-rule="evenodd" clip-rule="evenodd" d="M-249.201 -326.093L-247.576 -327.067L465.892 956.123L464.267 957.097L-249.201 -326.093Z" fill="url(#paint46_linear_1233_273)"/>
<path fill-rule="evenodd" clip-rule="evenodd" d="M-244.509 -329.012L-242.885 -329.986L470.583 953.204L468.959 954.178L-244.509 -329.012Z" fill="url(#paint47_linear_1233_273)"/>
<path fill-rule="evenodd" clip-rule="evenodd" d="M-239.823 -331.935L-238.198 -332.909L475.27 950.281L473.645 951.255L-239.823 -331.935Z" fill="url(#paint48_linear_1233_273)"/>
<path fill-rule="evenodd" clip-rule="evenodd" d="M-234.903 -334.857L-233.278 -335.831L480.19 947.359L478.565 948.333L-234.903 -334.857Z" fill="url(#paint49_linear_1233_273)"/>
<path fill-rule="evenodd" clip-rule="evenodd" d="M-229.979 -337.533L-228.354 -338.507L485.114 944.683L483.489 945.657L-229.979 -337.533Z" fill="url(#paint50_linear_1233_273)"/>
<path fill-rule="evenodd" clip-rule="evenodd" d="M-225.29 -340.456L-223.665 -341.43L489.805 941.764L488.181 942.738L-225.29 -340.456Z" fill="url(#paint51_linear_1233_273)"/>
<path fill-rule="evenodd" clip-rule="evenodd" d="M-220.598 -343.375L-218.974 -344.349L494.495 938.841L492.87 939.815L-220.598 -343.375Z" fill="url(#paint52_linear_1233_273)"/>
<path fill-rule="evenodd" clip-rule="evenodd" d="M-215.673 -346.3L-214.049 -347.274L499.419 935.916L497.795 936.89L-215.673 -346.3Z" fill="url(#paint53_linear_1233_273)"/>
<path fill-rule="evenodd" clip-rule="evenodd" d="M-210.984 -349.219L-209.359 -350.193L504.109 932.997L502.484 933.971L-210.984 -349.219Z" fill="url(#paint54_linear_1233_273)"/>
<path fill-rule="evenodd" clip-rule="evenodd" d="M-206.062 -352.141L-204.438 -353.115L509.031 930.075L507.406 931.049L-206.062 -352.141Z" fill="url(#paint55_linear_1233_273)"/>
<path fill-rule="evenodd" clip-rule="evenodd" d="M-713.91 -22.4968L-712.285 -23.4707L1.18299 1259.72L-0.441581 1260.69L-713.91 -22.4968Z" fill="url(#paint56_linear_1233_273)"/>
<path fill-rule="evenodd" clip-rule="evenodd" d="M-709.218 -25.4154L-707.594 -26.3893L5.87434 1256.8L4.24977 1257.77L-709.218 -25.4154Z" fill="url(#paint57_linear_1233_273)"/>
<path fill-rule="evenodd" clip-rule="evenodd" d="M-704.294 -28.3402L-702.669 -29.3141L10.7951 1253.88L9.17049 1254.85L-704.294 -28.3402Z" fill="url(#paint58_linear_1233_273)"/>
<path fill-rule="evenodd" clip-rule="evenodd" d="M-699.37 -31.2584L-697.745 -32.2324L15.7232 1250.96L14.0986 1251.93L-699.37 -31.2584Z" fill="url(#paint59_linear_1233_273)"/>
<path fill-rule="evenodd" clip-rule="evenodd" d="M-694.683 -33.9392L-693.059 -34.9131L20.4095 1248.28L18.7849 1249.25L-694.683 -33.9392Z" fill="url(#paint60_linear_1233_273)"/>
<path fill-rule="evenodd" clip-rule="evenodd" d="M-689.992 -36.8581L-688.367 -37.8321L25.101 1245.36L23.4765 1246.33L-689.992 -36.8581Z" fill="url(#paint61_linear_1233_273)"/>
<path fill-rule="evenodd" clip-rule="evenodd" d="M-684.836 -39.5399L-683.211 -40.5139L30.2533 1242.68L28.6287 1243.65L-684.836 -39.5399Z" fill="url(#paint62_linear_1233_273)"/>
</g>
<defs>
<radialGradient id="paint0_radial_1233_273" cx="0" cy="0" r="1" gradientUnits="userSpaceOnUse" gradientTransform="translate(209.123 322.53) rotate(-60.9255) scale(644.157 206.117)">
<stop stop-color="white"/>
<stop offset="1" stop-color="white" stop-opacity="0"/>
</radialGradient>
<radialGradient id="paint1_radial_1233_273" cx="0" cy="0" r="1" gradientUnits="userSpaceOnUse" gradientTransform="translate(-2.39249 183.625) rotate(119.075) scale(689.786 220.717)">
<stop stop-color="white"/>
<stop offset="1" stop-color="#CDCDCD" stop-opacity="0"/>
</radialGradient>
<radialGradient id="paint2_radial_1233_273" cx="0" cy="0" r="1" gradientUnits="userSpaceOnUse" gradientTransform="translate(-66.1813 428.945) rotate(119.075) scale(689.776 220.714)">
<stop stop-color="white"/>
<stop offset="1" stop-color="#CDCDCD" stop-opacity="0"/>
</radialGradient>
<radialGradient id="paint3_radial_1233_273" cx="0" cy="0" r="1" gradientUnits="userSpaceOnUse" gradientTransform="translate(17.4682 244.685) rotate(-60.9254) scale(644.157 206.118)">
<stop stop-color="white"/>
<stop offset="1" stop-color="white" stop-opacity="0"/>
</radialGradient>
<radialGradient id="paint4_radial_1233_273" cx="0" cy="0" r="1" gradientUnits="userSpaceOnUse" gradientTransform="translate(-193.911 105.62) rotate(119.075) scale(689.786 220.717)">
<stop stop-color="white"/>
<stop offset="1" stop-color="#CDCDCD" stop-opacity="0"/>
</radialGradient>
<radialGradient id="paint5_radial_1233_273" cx="0" cy="0" r="1" gradientUnits="userSpaceOnUse" gradientTransform="translate(-257.594 350.839) rotate(119.075) scale(689.776 220.714)">
<stop stop-color="white"/>
<stop offset="1" stop-color="#CDCDCD" stop-opacity="0"/>
</radialGradient>
<radialGradient id="paint6_radial_1233_273" cx="0" cy="0" r="1" gradientUnits="userSpaceOnUse" gradientTransform="translate(-388.246 470.817) rotate(60.9254) scale(644.157 206.118)">
<stop stop-color="white"/>
<stop offset="1" stop-color="white" stop-opacity="0"/>
</radialGradient>
<radialGradient id="paint7_radial_1233_273" cx="0" cy="0" r="1" gradientUnits="userSpaceOnUse" gradientTransform="translate(-176.492 332.084) rotate(-119.075) scale(689.786 220.717)">
<stop stop-color="white"/>
<stop offset="1" stop-color="#CDCDCD" stop-opacity="0"/>
</radialGradient>
<radialGradient id="paint8_radial_1233_273" cx="0" cy="0" r="1" gradientUnits="userSpaceOnUse" gradientTransform="translate(-112.922 577.2) rotate(-119.075) scale(689.776 220.714)">
<stop stop-color="white"/>
<stop offset="1" stop-color="#CDCDCD" stop-opacity="0"/>
</radialGradient>
<radialGradient id="paint9_radial_1233_273" cx="0" cy="0" r="1" gradientUnits="userSpaceOnUse" gradientTransform="translate(-132.116 426.539) rotate(60.9254) scale(644.157 206.117)">
<stop stop-color="white"/>
<stop offset="1" stop-color="white" stop-opacity="0"/>
</radialGradient>
<radialGradient id="paint10_radial_1233_273" cx="0" cy="0" r="1" gradientUnits="userSpaceOnUse" gradientTransform="translate(79.5141 287.691) rotate(-119.075) scale(689.786 220.717)">
<stop stop-color="white"/>
<stop offset="1" stop-color="#CDCDCD" stop-opacity="0"/>
</radialGradient>
<radialGradient id="paint11_radial_1233_273" cx="0" cy="0" r="1" gradientUnits="userSpaceOnUse" gradientTransform="translate(133.751 516.756) rotate(-119.075) scale(720.999 230.705)">
<stop stop-color="white"/>
<stop offset="1" stop-color="#CDCDCD" stop-opacity="0"/>
</radialGradient>
<linearGradient id="paint12_linear_1233_273" x1="-289.744" y1="939.896" x2="-286.431" y2="941.728" gradientUnits="userSpaceOnUse">
<stop stop-color="white" stop-opacity="0.271"/>
<stop offset="1" stop-color="white"/>
</linearGradient>
<linearGradient id="paint13_linear_1233_273" x1="-295.164" y1="937.861" x2="-291.851" y2="939.694" gradientUnits="userSpaceOnUse">
<stop stop-color="white" stop-opacity="0.271"/>
<stop offset="1" stop-color="white"/>
</linearGradient>
<linearGradient id="paint14_linear_1233_273" x1="-299.962" y1="934.716" x2="-296.649" y2="936.548" gradientUnits="userSpaceOnUse">
<stop stop-color="white" stop-opacity="0.271"/>
<stop offset="1" stop-color="white"/>
</linearGradient>
<linearGradient id="paint15_linear_1233_273" x1="-304.25" y1="931.07" x2="-300.937" y2="932.903" gradientUnits="userSpaceOnUse">
<stop stop-color="white" stop-opacity="0.271"/>
<stop offset="1" stop-color="white"/>
</linearGradient>
<linearGradient id="paint16_linear_1233_273" x1="-309.51" y1="929.178" x2="-306.197" y2="931.01" gradientUnits="userSpaceOnUse">
<stop stop-color="white" stop-opacity="0.271"/>
<stop offset="1" stop-color="white"/>
</linearGradient>
<linearGradient id="paint17_linear_1233_273" x1="-314.55" y1="926.466" x2="-311.237" y2="928.298" gradientUnits="userSpaceOnUse">
<stop stop-color="white" stop-opacity="0.271"/>
<stop offset="1" stop-color="white"/>
</linearGradient>
<linearGradient id="paint18_linear_1233_273" x1="-319.214" y1="923.315" x2="-315.901" y2="925.147" gradientUnits="userSpaceOnUse">
<stop stop-color="white" stop-opacity="0.271"/>
<stop offset="1" stop-color="white"/>
</linearGradient>
<linearGradient id="paint19_linear_1233_273" x1="-323.5" y1="919.67" x2="-320.187" y2="921.502" gradientUnits="userSpaceOnUse">
<stop stop-color="white" stop-opacity="0.271"/>
<stop offset="1" stop-color="white"/>
</linearGradient>
<linearGradient id="paint20_linear_1233_273" x1="-328.76" y1="917.777" x2="-325.447" y2="919.61" gradientUnits="userSpaceOnUse">
<stop stop-color="white" stop-opacity="0.271"/>
<stop offset="1" stop-color="white"/>
</linearGradient>
<linearGradient id="paint21_linear_1233_273" x1="-333.56" y1="914.632" x2="-330.247" y2="916.464" gradientUnits="userSpaceOnUse">
<stop stop-color="white" stop-opacity="0.271"/>
<stop offset="1" stop-color="white"/>
</linearGradient>
<linearGradient id="paint22_linear_1233_273" x1="-337.846" y1="910.986" x2="-334.533" y2="912.819" gradientUnits="userSpaceOnUse">
<stop stop-color="white" stop-opacity="0.271"/>
<stop offset="1" stop-color="white"/>
</linearGradient>
<linearGradient id="paint23_linear_1233_273" x1="-342.886" y1="908.274" x2="-339.573" y2="910.106" gradientUnits="userSpaceOnUse">
<stop stop-color="white" stop-opacity="0.271"/>
<stop offset="1" stop-color="white"/>
</linearGradient>
<linearGradient id="paint24_linear_1233_273" x1="-347.687" y1="905.128" x2="-344.374" y2="906.961" gradientUnits="userSpaceOnUse">
<stop stop-color="white" stop-opacity="0.271"/>
<stop offset="1" stop-color="white"/>
</linearGradient>
<linearGradient id="paint25_linear_1233_273" x1="-352.809" y1="903.231" x2="-349.496" y2="905.063" gradientUnits="userSpaceOnUse">
<stop stop-color="white" stop-opacity="0.271"/>
<stop offset="1" stop-color="white"/>
</linearGradient>
<linearGradient id="paint26_linear_1233_273" x1="-357.096" y1="899.585" x2="-353.783" y2="901.418" gradientUnits="userSpaceOnUse">
<stop stop-color="white" stop-opacity="0.271"/>
<stop offset="1" stop-color="white"/>
</linearGradient>
<linearGradient id="paint27_linear_1233_273" x1="-362.392" y1="897.158" x2="-359.079" y2="898.99" gradientUnits="userSpaceOnUse">
<stop stop-color="white" stop-opacity="0.271"/>
<stop offset="1" stop-color="white"/>
</linearGradient>
<linearGradient id="paint28_linear_1233_273" x1="-583.64" y1="917.753" x2="-580.327" y2="919.585" gradientUnits="userSpaceOnUse">
<stop stop-color="white" stop-opacity="0.271"/>
<stop offset="1" stop-color="white"/>
</linearGradient>
<linearGradient id="paint29_linear_1233_273" x1="-588.724" y1="915.121" x2="-585.411" y2="916.953" gradientUnits="userSpaceOnUse">
<stop stop-color="white" stop-opacity="0.271"/>
<stop offset="1" stop-color="white"/>
</linearGradient>
<linearGradient id="paint30_linear_1233_273" x1="-593.165" y1="911.335" x2="-589.852" y2="913.167" gradientUnits="userSpaceOnUse">
<stop stop-color="white" stop-opacity="0.271"/>
<stop offset="1" stop-color="white"/>
</linearGradient>
<linearGradient id="paint31_linear_1233_273" x1="-598.546" y1="909.652" x2="-595.233" y2="911.484" gradientUnits="userSpaceOnUse">
<stop stop-color="white" stop-opacity="0.271"/>
<stop offset="1" stop-color="white"/>
</linearGradient>
<linearGradient id="paint32_linear_1233_273" x1="-603.188" y1="906.648" x2="-599.875" y2="908.481" gradientUnits="userSpaceOnUse">
<stop stop-color="white" stop-opacity="0.271"/>
<stop offset="1" stop-color="white"/>
</linearGradient>
<linearGradient id="paint33_linear_1233_273" x1="-607.75" y1="903.085" x2="-604.437" y2="904.917" gradientUnits="userSpaceOnUse">
<stop stop-color="white" stop-opacity="0.271"/>
<stop offset="1" stop-color="white"/>
</linearGradient>
<linearGradient id="paint34_linear_1233_273" x1="-612.841" y1="900.705" x2="-609.528" y2="902.537" gradientUnits="userSpaceOnUse">
<stop stop-color="white" stop-opacity="0.271"/>
<stop offset="1" stop-color="white"/>
</linearGradient>
<linearGradient id="paint35_linear_1233_273" x1="-617.39" y1="897.528" x2="-614.077" y2="899.36" gradientUnits="userSpaceOnUse">
<stop stop-color="white" stop-opacity="0.271"/>
<stop offset="1" stop-color="white"/>
</linearGradient>
<linearGradient id="paint36_linear_1233_273" x1="-622.032" y1="894.525" x2="-618.719" y2="896.357" gradientUnits="userSpaceOnUse">
<stop stop-color="white" stop-opacity="0.271"/>
<stop offset="1" stop-color="white"/>
</linearGradient>
<linearGradient id="paint37_linear_1233_273" x1="-627.234" y1="892.104" x2="-623.921" y2="893.936" gradientUnits="userSpaceOnUse">
<stop stop-color="white" stop-opacity="0.271"/>
<stop offset="1" stop-color="white"/>
</linearGradient>
<linearGradient id="paint38_linear_1233_273" x1="-631.854" y1="889.055" x2="-628.541" y2="890.888" gradientUnits="userSpaceOnUse">
<stop stop-color="white" stop-opacity="0.271"/>
<stop offset="1" stop-color="white"/>
</linearGradient>
<linearGradient id="paint39_linear_1233_273" x1="-637.062" y1="886.646" x2="-633.749" y2="888.478" gradientUnits="userSpaceOnUse">
<stop stop-color="white" stop-opacity="0.271"/>
<stop offset="1" stop-color="white"/>
</linearGradient>
<linearGradient id="paint40_linear_1233_273" x1="-641.507" y1="882.858" x2="-638.194" y2="884.691" gradientUnits="userSpaceOnUse">
<stop stop-color="white" stop-opacity="0.271"/>
<stop offset="1" stop-color="white"/>
</linearGradient>
<linearGradient id="paint41_linear_1233_273" x1="-646.083" y1="879.978" x2="-642.77" y2="881.81" gradientUnits="userSpaceOnUse">
<stop stop-color="white" stop-opacity="0.271"/>
<stop offset="1" stop-color="white"/>
</linearGradient>
<linearGradient id="paint42_linear_1233_273" x1="-651.341" y1="878.086" x2="-648.028" y2="879.918" gradientUnits="userSpaceOnUse">
<stop stop-color="white" stop-opacity="0.271"/>
<stop offset="1" stop-color="white"/>
</linearGradient>
<linearGradient id="paint43_linear_1233_273" x1="-655.666" y1="873.904" x2="-652.353" y2="875.736" gradientUnits="userSpaceOnUse">
<stop stop-color="white" stop-opacity="0.271"/>
<stop offset="1" stop-color="white"/>
</linearGradient>
<linearGradient id="paint44_linear_1233_273" x1="455.315" y1="962.493" x2="458.62" y2="960.646" gradientUnits="userSpaceOnUse">
<stop stop-color="white" stop-opacity="0.271"/>
<stop offset="1" stop-color="white"/>
</linearGradient>
<linearGradient id="paint45_linear_1233_273" x1="459.967" y1="959.083" x2="463.272" y2="957.235" gradientUnits="userSpaceOnUse">
<stop stop-color="white" stop-opacity="0.271"/>
<stop offset="1" stop-color="white"/>
</linearGradient>
<linearGradient id="paint46_linear_1233_273" x1="465.18" y1="956.678" x2="468.485" y2="954.831" gradientUnits="userSpaceOnUse">
<stop stop-color="white" stop-opacity="0.271"/>
<stop offset="1" stop-color="white"/>
</linearGradient>
<linearGradient id="paint47_linear_1233_273" x1="469.883" y1="953.78" x2="473.188" y2="951.932" gradientUnits="userSpaceOnUse">
<stop stop-color="white" stop-opacity="0.271"/>
<stop offset="1" stop-color="white"/>
</linearGradient>
<linearGradient id="paint48_linear_1233_273" x1="474.759" y1="951.198" x2="478.064" y2="949.351" gradientUnits="userSpaceOnUse">
<stop stop-color="white" stop-opacity="0.271"/>
<stop offset="1" stop-color="white"/>
</linearGradient>
<linearGradient id="paint49_linear_1233_273" x1="479.482" y1="947.916" x2="482.787" y2="946.068" gradientUnits="userSpaceOnUse">
<stop stop-color="white" stop-opacity="0.271"/>
<stop offset="1" stop-color="white"/>
</linearGradient>
<linearGradient id="paint50_linear_1233_273" x1="484.357" y1="945.151" x2="487.663" y2="943.303" gradientUnits="userSpaceOnUse">
<stop stop-color="white" stop-opacity="0.271"/>
<stop offset="1" stop-color="white"/>
</linearGradient>
<linearGradient id="paint51_linear_1233_273" x1="489.061" y1="942.252" x2="492.366" y2="940.405" gradientUnits="userSpaceOnUse">
<stop stop-color="white" stop-opacity="0.271"/>
<stop offset="1" stop-color="white"/>
</linearGradient>
<linearGradient id="paint52_linear_1233_273" x1="493.758" y1="939.343" x2="497.063" y2="937.495" gradientUnits="userSpaceOnUse">
<stop stop-color="white" stop-opacity="0.271"/>
<stop offset="1" stop-color="white"/>
</linearGradient>
<linearGradient id="paint53_linear_1233_273" x1="498.779" y1="936.6" x2="502.084" y2="934.753" gradientUnits="userSpaceOnUse">
<stop stop-color="white" stop-opacity="0.271"/>
<stop offset="1" stop-color="white"/>
</linearGradient>
<linearGradient id="paint54_linear_1233_273" x1="503.357" y1="933.48" x2="506.662" y2="931.632" gradientUnits="userSpaceOnUse">
<stop stop-color="white" stop-opacity="0.271"/>
<stop offset="1" stop-color="white"/>
</linearGradient>
<linearGradient id="paint55_linear_1233_273" x1="508.094" y1="930.224" x2="511.399" y2="928.376" gradientUnits="userSpaceOnUse">
<stop stop-color="white" stop-opacity="0.271"/>
<stop offset="1" stop-color="white"/>
</linearGradient>
<linearGradient id="paint56_linear_1233_273" x1="0.542629" y1="1260.38" x2="3.8479" y2="1258.53" gradientUnits="userSpaceOnUse">
<stop stop-color="white" stop-opacity="0.271"/>
<stop offset="1" stop-color="white"/>
</linearGradient>
<linearGradient id="paint57_linear_1233_273" x1="5.00505" y1="1257.05" x2="8.31032" y2="1255.2" gradientUnits="userSpaceOnUse">
<stop stop-color="white" stop-opacity="0.271"/>
<stop offset="1" stop-color="white"/>
</linearGradient>
<linearGradient id="paint58_linear_1233_273" x1="10.0991" y1="1254.43" x2="13.4042" y2="1252.58" gradientUnits="userSpaceOnUse">
<stop stop-color="white" stop-opacity="0.271"/>
<stop offset="1" stop-color="white"/>
</linearGradient>
<linearGradient id="paint59_linear_1233_273" x1="15.2336" y1="1251.89" x2="18.5388" y2="1250.04" gradientUnits="userSpaceOnUse">
<stop stop-color="white" stop-opacity="0.271"/>
<stop offset="1" stop-color="white"/>
</linearGradient>
<linearGradient id="paint60_linear_1233_273" x1="19.5458" y1="1248.53" x2="22.8511" y2="1246.69" gradientUnits="userSpaceOnUse">
<stop stop-color="white" stop-opacity="0.271"/>
<stop offset="1" stop-color="white"/>
</linearGradient>
<linearGradient id="paint61_linear_1233_273" x1="24.4897" y1="1246.07" x2="27.795" y2="1244.22" gradientUnits="userSpaceOnUse">
<stop stop-color="white" stop-opacity="0.271"/>
<stop offset="1" stop-color="white"/>
</linearGradient>
<linearGradient id="paint62_linear_1233_273" x1="29.3898" y1="1242.93" x2="32.6949" y2="1241.08" gradientUnits="userSpaceOnUse">
<stop stop-color="white" stop-opacity="0.271"/>
<stop offset="1" stop-color="white"/>
</linearGradient>
</defs>
</svg>
