<svg width="1920" height="1522" viewBox="0 0 1920 1522" fill="none" xmlns="http://www.w3.org/2000/svg">
<path d="M705.511 1105.65C702.681 1106.57 699.822 1107.38 696.93 1108.1C682.19 1111.74 663.753 1109.68 640.568 1101.82C619.837 1094.79 595.61 1083.19 566.503 1066.37C512.205 1034.98 449.404 990.282 382.911 942.956C305.728 888.023 225.917 831.218 151.231 789.367C66.5331 741.906 2.0724 721.853 -45.8423 728.052C-189.779 746.681 -345.052 899.882 -469.816 1022.98C-516.122 1068.67 -559.86 1111.83 -596.214 1141.05C-636.583 1173.5 -664.498 1186.09 -684.068 1180.69L-683.658 1179.19C-664.607 1184.45 -637.133 1171.95 -597.189 1139.84C-560.896 1110.67 -517.186 1067.54 -470.909 1021.88C-360.407 912.85 -225.982 780.22 -96.4396 738.119C-79.5261 732.622 -62.7244 728.676 -46.0434 726.517C-20.5009 723.212 10.2062 727.392 45.23 738.941C76.5846 749.279 111.506 765.333 151.988 788.018C226.748 829.91 306.595 886.737 383.811 941.696C450.272 989 513.045 1033.68 567.278 1065.03C596.296 1081.8 620.431 1093.36 641.066 1100.35C663.961 1108.12 682.113 1110.16 696.558 1106.59C741.978 1095.38 777.961 1059.49 806.556 996.885C831.739 941.75 847.797 874.526 863.325 809.513L863.568 808.491C881.033 735.368 902.774 649.926 931.595 570.61C961.486 488.35 995.511 422.195 1035.61 368.364C1078.01 311.456 1127.9 265.108 1183.93 230.603C1238.26 197.136 1296.88 175.671 1358.15 166.801C1383.84 163.082 1409.93 161.938 1435.67 163.393C1460.45 164.797 1485.7 168.654 1510.73 174.861C1557.94 186.564 1605.08 206.416 1654.84 235.556C1754.67 294.004 1849.37 381.808 1928.83 459.99L1927.74 461.098C1766.91 302.863 1577.01 136.691 1358.38 168.34C1234.19 186.318 1120 257.682 1036.86 369.293C946.148 491.064 900.63 660.034 865.082 808.856L864.835 809.879C849.289 874.964 833.216 942.266 807.967 997.537C794.269 1027.52 779.33 1050.83 762.285 1068.78C745.49 1086.48 726.423 1098.85 705.511 1105.65Z" fill="#BFBFBF" fill-opacity="0.3"/>
<path d="M699.297 1090.76C693.812 1092.54 688.182 1093.98 682.396 1095.07C665.987 1098.18 646.152 1096.34 621.76 1089.43C599.93 1083.25 574.785 1073.08 544.89 1058.35C489.125 1030.87 425.63 991.837 358.411 950.52C284.998 905.393 209.082 858.729 136.661 823.119C79.9098 795.212 7.53875 763.62 -48.8252 767.024C-173.315 774.536 -304.49 874.612 -416.387 971.521C-435.462 988.038 -454.068 1004.54 -472.064 1020.5C-516.135 1059.58 -557.766 1096.49 -593.212 1121.88C-632.66 1150.14 -660.672 1161.43 -681.366 1157.42L-681.09 1155.98C-660.818 1159.92 -633.165 1148.7 -594.063 1120.69C-558.68 1095.35 -517.078 1058.46 -473.035 1019.4C-455.036 1003.44 -436.422 986.941 -417.346 970.416C-369.076 928.615 -305.025 875.362 -237.603 834.252C-204.614 814.141 -172.85 798.257 -143.191 787.037C-110.233 774.574 -78.5147 767.344 -48.9177 765.56C-24.5452 764.09 3.71524 768.696 37.4785 779.644C65.6793 788.785 97.397 802.185 137.303 821.804C209.79 857.445 285.732 904.126 359.175 949.271C426.366 990.573 489.83 1029.58 545.536 1057.03C608.021 1087.83 651.424 1099.46 682.125 1093.64C769.478 1077.09 809.202 982.611 836.544 892.381C844.769 865.019 851.959 837.145 858.622 810.94C884.467 709.002 908.739 617.973 944.072 536.267C957.037 506.471 971.642 478.424 987.472 452.902C1003.26 427.456 1020.83 403.617 1039.71 382.038C1066.91 350.933 1097.32 323.147 1130.1 299.442C1164.8 274.21 1202.52 253.796 1242.22 238.773C1280.99 224.097 1321.87 214.473 1363.72 210.168C1391.09 207.291 1419.09 207.06 1446.94 209.482C1473.36 211.778 1500.57 216.55 1527.82 223.657C1583.36 238.059 1639.16 261.593 1698.44 295.603C1748.59 324.377 1801.97 361.221 1861.61 408.244C1887.77 428.867 1913.31 449.646 1937.54 470.005L1936.6 471.127C1912.39 450.78 1886.85 430.011 1860.7 409.394C1732.73 308.506 1629.96 251.66 1527.46 225.075C1471.11 210.375 1417.6 205.976 1363.87 211.626C1278.46 220.407 1200.1 250.354 1130.96 300.629C1098.27 324.268 1067.94 351.983 1040.81 383.003C1002.72 426.555 971.511 476.878 945.413 536.852C910.121 618.458 885.87 709.428 860.036 811.301C853.37 837.523 846.173 865.412 837.938 892.805C819.972 952.099 801.484 994.453 779.753 1026.09C756.922 1059.33 730.472 1080.63 699.297 1090.76Z" fill="#BFBFBF" fill-opacity="0.3"/>
<path d="M693.878 1076.13C685.545 1078.83 676.89 1080.8 667.868 1082.04C649.269 1084.6 627.476 1082.92 601.23 1076.88C577.727 1071.47 551.031 1062.65 519.623 1049.9C461.033 1026.11 395.35 992.443 325.813 956.798C262.16 924.169 196.343 890.431 131.883 862.273C62.0227 831.756 -0.0203001 806.455 -51.8088 805.979C-179.227 804.807 -311.161 891.98 -411.864 968.054C-433.996 984.776 -455.542 1001.68 -476.374 1018.04C-559.747 1083.47 -631.752 1139.98 -678.674 1134.14L-678.506 1132.77C-632.15 1138.54 -560.356 1082.2 -477.225 1016.95C-456.385 1000.59 -434.837 983.682 -412.691 966.951C-345.468 916.169 -289.649 880.354 -237.021 854.235C-204.851 838.268 -173.711 826.021 -144.468 817.827C-112.19 808.782 -81.0082 804.331 -51.7964 804.599C-28.0249 804.818 0.0896239 810.432 34.1557 821.758C63.4353 831.497 94.6211 844.49 132.435 861.012C196.933 889.186 262.771 922.938 326.443 955.573C395.954 991.201 461.605 1024.86 520.143 1048.62C585.859 1075.3 632.742 1085.49 667.685 1080.68C740.321 1070.68 790.383 1013.15 830.002 894.135C839.184 866.556 847.038 837.989 853.676 813.376C855.512 806.537 857.344 799.699 859.168 792.864C882.256 706.548 906.126 617.294 941.974 539.957C968.066 483.656 1001.38 436.472 1043.81 395.704C1071.6 369.008 1101.83 345.836 1136.24 324.859C1170.96 303.69 1208.67 286.894 1248.33 274.934C1286.7 263.362 1327.4 256.163 1369.29 253.53C1422.32 250.2 1475.86 255.358 1532.95 269.295C1589.31 282.896 1645.66 303.621 1705.22 332.654C1756.15 357.474 1809.85 388.677 1869.41 428.05C1893.79 444.166 1919.97 461.615 1946.25 480.014L1945.46 481.14C1919.2 462.748 1893.03 445.308 1868.66 429.198C1741.01 344.821 1637.38 295.917 1532.63 270.634C1475.67 256.725 1422.27 251.582 1369.37 254.902C1283.76 260.278 1205.55 284.211 1136.96 326.033C1102.63 346.958 1072.48 370.073 1044.77 396.7C1002.46 437.346 969.246 484.4 943.223 540.539C907.427 617.77 883.57 706.966 860.5 793.223C858.672 800.06 856.844 806.896 855.006 813.74C848.361 838.371 840.501 866.957 831.308 894.576C812.385 951.429 792.466 991.851 768.624 1021.8C747.018 1048.92 722.389 1066.86 693.878 1076.13Z" fill="#BFBFBF" fill-opacity="0.3"/>
<path d="M689.765 1061.69C678.278 1065.42 666.159 1067.85 653.346 1069.01C631.133 1071.02 605.752 1069.34 575.754 1063.9C548.868 1059.02 518.717 1051.16 483.567 1039.89C417.992 1018.85 345.469 989.255 268.691 957.92C222.51 939.071 174.758 919.581 127.102 901.423C117.871 897.907 108.632 894.329 99.6948 890.872C43.3836 869.077 -9.80436 848.496 -54.7891 844.924C-153.833 837.065 -269.154 876.202 -407.347 964.572C-433.345 981.195 -458.583 998.412 -482.991 1015.06C-560.814 1068.14 -628.02 1113.98 -676.001 1110.85L-675.92 1109.57C-628.379 1112.68 -561.339 1066.95 -483.716 1014.01C-459.302 997.355 -434.056 980.136 -408.042 963.499C-345.346 923.408 -289.215 894.24 -236.44 874.32C-205.106 862.495 -174.588 853.883 -145.726 848.72C-114.146 843.07 -83.5196 841.368 -54.6916 843.655C-9.51931 847.24 43.7531 867.855 100.152 889.683C109.086 893.14 118.324 896.715 127.551 900.232C175.222 918.397 222.982 937.888 269.168 956.74C345.923 988.067 418.423 1017.66 483.952 1038.68C557.558 1062.29 611.346 1071.52 653.219 1067.74C730.149 1060.79 782.644 1007.8 823.439 895.915C833.197 869.154 841.351 841.611 848.706 815.839C852.459 802.604 856.211 789.136 859.841 776.112C881.973 696.692 904.857 614.57 939.846 543.676C954.038 514.923 970.246 489.662 989.396 466.45C1006.52 445.687 1025.66 427.024 1047.89 409.402C1075.73 387.326 1106.62 367.996 1142.35 350.303C1210.19 316.698 1288.41 298.738 1374.82 296.915C1426.5 295.824 1479.9 301.73 1538.06 314.959C1644.66 338.816 1752.43 381.055 1877.19 447.882C1881.67 450.283 1886.16 452.68 1890.65 455.082C1911.74 466.351 1933.55 478.003 1954.92 490.045L1954.3 491.163C1932.93 479.13 1911.13 467.479 1890.05 456.213C1885.56 453.81 1881.07 451.414 1876.59 449.013C1751.93 382.241 1644.27 340.042 1537.78 316.209C1479.72 302.999 1426.43 297.109 1374.85 298.198C1288.63 300.017 1210.6 317.934 1142.93 351.454C1107.29 369.108 1076.46 388.39 1048.69 410.41C1002.03 447.41 967.808 489.94 941.006 544.246C906.068 615.033 883.202 697.097 861.084 776.46C857.453 789.484 853.702 802.951 849.946 816.191C842.582 841.987 834.421 869.556 824.65 896.354C805.006 950.233 783.003 989.829 757.384 1017.41C737.537 1038.76 715.204 1053.42 689.765 1061.69Z" fill="#BFBFBF" fill-opacity="0.3"/>
<path d="M687.321 1047.47C672.322 1052.35 656.206 1055.17 638.83 1055.98C509.375 1062.04 320.64 1004.85 122.324 940.58C101.264 933.756 80.6039 926.295 60.6244 919.083C18.1314 903.738 -22.0038 889.249 -57.7542 883.883C-158.535 868.759 -274.633 894.741 -402.827 961.105C-433.608 977.041 -463.405 994.323 -492.222 1011.03C-527.431 1031.45 -560.687 1050.74 -591.131 1064.84C-625.25 1080.65 -651.368 1087.86 -673.325 1087.56L-673.309 1086.36C-625.642 1087.03 -564.088 1051.33 -492.819 1010C-463.989 993.279 -434.182 975.99 -403.373 960.041C-274.952 893.558 -158.61 867.538 -57.5764 882.699C-21.7108 888.08 18.4807 902.592 61.0336 917.958C81.0046 925.169 101.655 932.625 122.697 939.443C320.908 1003.68 509.526 1060.84 638.78 1054.78C720.365 1050.96 775.302 1002.51 816.911 897.671C827.677 870.55 836.533 842.318 843.774 818.277C848.96 800.93 854.061 783.244 858.996 766.138C880.591 691.269 902.92 613.85 937.757 547.371C965.364 494.688 1001.67 455.193 1052 423.078C1079.96 405.242 1110.63 390.194 1148.49 375.723C1182.93 362.567 1220.6 352.939 1260.44 347.118C1297.65 341.68 1338 339.376 1380.38 340.271C1430.11 341.324 1481.84 347.778 1543.19 360.591C1602.21 372.913 1659.68 388.048 1718.89 406.859C1773.19 424.111 1827.52 444.008 1884.99 467.697C1893.96 471.392 1903.11 475.106 1911.96 478.694C1928.91 485.571 1946.45 492.683 1963.63 500.062L1963.16 501.158C1945.99 493.785 1928.46 486.674 1911.51 479.799C1902.66 476.208 1893.51 472.498 1884.54 468.8C1766.37 420.095 1654.63 385.085 1542.95 361.76C1481.67 348.965 1430.01 342.516 1380.35 341.465C1291.82 339.593 1216.12 351.165 1148.91 376.839C1111.12 391.279 1080.53 406.292 1052.64 424.085C1002.48 456.083 966.312 495.434 938.806 547.924C904.025 614.299 881.712 691.656 860.135 766.47C855.202 783.579 850.098 801.267 844.91 818.623C837.66 842.686 828.795 870.95 818.013 898.114C797.422 949.985 773.912 987.54 746.134 1012.92C728.632 1028.91 709.163 1040.38 687.321 1047.47Z" fill="#BFBFBF" fill-opacity="0.3"/>
<path d="M686.771 1033.59C667.954 1039.7 647.231 1042.79 624.318 1042.94C543.721 1043.48 469.251 1039.91 396.655 1032.05C303.024 1021.91 211.724 1004.79 117.538 979.732C86.8979 971.579 57.2804 961.053 28.6395 950.87C-3.01167 939.62 -32.9069 928.992 -60.7218 922.832C-191.595 893.849 -316.544 925.753 -398.32 957.621C-434.962 971.902 -470.331 988.917 -504.541 1005.37C-535.981 1020.5 -565.679 1034.78 -593.533 1045.56C-624.825 1057.66 -649.337 1063.61 -670.674 1064.27L-670.707 1063.16C-624.248 1061.73 -566.334 1033.87 -505.016 1004.37C-470.789 987.91 -435.398 970.884 -398.72 956.592C-344.398 935.422 -289.429 921.338 -235.342 914.73C-174.119 907.252 -115.285 909.614 -60.4859 921.751C-32.6047 927.926 -2.67776 938.565 29.0052 949.824C57.6266 959.997 87.2221 970.518 117.819 978.661C336.481 1036.84 511.605 1042.58 624.305 1041.84C712.054 1041.26 767.695 998.671 810.352 899.442C822.156 871.987 831.759 842.954 838.809 820.726C845.16 800.547 851.299 779.906 857.235 759.948C878.539 688.333 900.57 614.278 935.636 551.076C951.227 522.974 969.436 499.729 991.299 480.008C1009.78 463.338 1030.97 449.199 1056.09 436.777C1091.67 419.184 1127.43 408.504 1154.62 401.167C1219.72 383.593 1295.38 377.861 1385.92 383.644C1445.48 387.447 1503.99 397.72 1548.31 406.24C1676.93 430.97 1789.61 457.561 1892.79 487.532C1904.38 490.899 1916.2 494.188 1927.63 497.365C1942.29 501.442 1957.46 505.662 1972.33 510.098L1972.01 511.156C1957.15 506.722 1941.99 502.504 1927.33 498.428C1915.91 495.251 1904.09 491.964 1892.48 488.59C1789.34 458.633 1676.7 432.051 1548.1 407.327C1503.81 398.81 1445.34 388.551 1385.86 384.748C1295.44 378.97 1219.89 384.693 1154.9 402.234C1127.77 409.559 1092.07 420.216 1056.58 437.769C1003.17 464.183 965.048 500.359 936.607 551.617C901.596 614.712 879.586 688.707 858.298 760.268C852.359 780.231 846.217 800.877 839.866 821.065C832.807 843.319 823.191 872.386 811.368 899.884C789.846 949.943 764.823 985.43 734.86 1008.36C720.351 1019.48 704.396 1027.86 686.771 1033.59Z" fill="#BFBFBF" fill-opacity="0.3"/>
<path d="M687.995 1020.39C682.661 1022.12 677.156 1023.62 671.446 1024.88C653.04 1028.98 632.88 1030.62 609.817 1029.91C562.754 1028.46 515.251 1031.32 464.959 1034.35C413.361 1037.46 360.001 1040.67 301.925 1039.58C235.991 1038.35 174.113 1031.58 112.757 1018.88C73.833 1010.83 36.5444 997.115 0.479252 983.855C-21.9867 975.593 -43.2059 967.791 -63.6713 961.782C-171.624 930.086 -288.867 927.37 -393.799 954.137C-437.572 965.301 -479.712 981.687 -520.468 997.538C-573.855 1018.3 -624.279 1037.91 -668.009 1040.98L-668.081 1039.97C-624.503 1036.91 -574.147 1017.32 -520.837 996.592C-480.051 980.732 -437.877 964.335 -394.05 953.153C-343.675 940.304 -290.125 934.205 -234.882 935.032C-176.36 935.907 -118.661 944.579 -63.3845 960.807C-42.8836 966.825 -21.6498 974.634 0.833328 982.898C36.8617 996.147 74.1173 1009.85 112.963 1017.88C250.126 1046.26 364.228 1039.39 464.902 1033.33C515.216 1030.3 562.739 1027.44 609.849 1028.89C704.241 1031.8 760.436 994.806 803.816 901.217C816.586 873.673 826.581 845.042 833.868 823.179C841.213 800.954 848.2 778.139 854.953 756.073C876.121 686.916 898.009 615.406 933.543 554.787C949.899 526.881 969.098 504.637 992.236 486.78C1011.49 471.919 1033.72 460.044 1060.19 450.482C1094.54 438.073 1130.3 431.449 1160.75 426.612C1194.8 421.198 1231.36 418.795 1272.5 419.263C1307.58 419.66 1346.5 422.196 1391.48 427.015C1444.28 432.671 1498.02 442.131 1549.99 451.278L1553.45 451.886C1621.68 463.891 1686.8 473.838 1749.77 483.455C1802.1 491.448 1851.54 499 1900.6 507.367C1914.07 509.666 1927.75 511.757 1940.97 513.778C1954.11 515.786 1967.7 517.866 1981.04 520.137L1980.87 521.139C1967.55 518.868 1953.96 516.792 1940.83 514.781C1927.59 512.757 1913.91 510.665 1900.44 508.364C1851.38 499.995 1801.95 492.445 1749.62 484.454C1686.64 474.836 1621.52 464.89 1553.28 452.881L1549.82 452.274C1497.86 443.129 1444.14 433.672 1391.37 428.021C1295.11 417.707 1224.04 417.581 1160.91 427.612C1130.51 432.442 1094.81 439.051 1060.54 451.435C1003.3 472.118 964.397 504.152 934.419 555.298C898.945 615.816 877.076 687.271 855.926 756.37C849.171 778.44 842.185 801.258 834.836 823.497C827.541 845.387 817.533 874.051 804.742 901.643C793.296 926.336 781.142 946.604 767.581 963.607C754.184 980.401 739.8 993.531 723.602 1003.74C712.496 1010.74 700.744 1016.24 687.995 1020.39Z" fill="#BFBFBF" fill-opacity="0.3"/>
<path d="M690.068 1008.23C680.145 1011.46 669.6 1013.83 658.246 1015.42C639.903 1017.97 619.315 1018.45 595.314 1016.87C530.366 1012.6 468.96 1025.16 403.951 1038.46C360.698 1047.31 315.973 1056.45 267.362 1061.28C212.307 1066.74 160.169 1065.68 107.967 1058.03C61.4254 1051.21 16.9753 1033.55 -26.0093 1016.46C-40.0974 1010.87 -53.4062 1005.58 -66.6214 1000.73C-183.041 958.059 -297.633 940.27 -389.287 950.644C-441.627 956.566 -491.957 972.087 -540.63 987.093C-584.863 1000.73 -626.638 1013.61 -665.363 1017.69L-665.462 1016.77C-626.828 1012.7 -585.09 999.832 -540.906 986.207C-492.192 971.187 -441.82 955.658 -389.394 949.724C-343.093 944.483 -290.986 946.378 -234.519 955.351C-179.738 964.056 -123.147 979.032 -66.3084 999.864C-53.081 1004.71 -39.7698 1010 -25.6731 1015.6C17.2638 1032.67 61.6625 1050.31 108.097 1057.11C224.652 1074.19 315.708 1055.56 403.762 1037.55C468.836 1024.24 530.3 1011.67 595.374 1015.95C680.03 1021.52 746.763 1004.44 797.265 902.998C807.979 881.475 817.738 857.616 828.912 825.638C837.146 801.883 844.844 777.404 852.291 753.733C873.425 686.517 895.284 617.013 931.427 558.507C948.577 530.748 968.765 509.501 993.143 493.552C1013.26 480.393 1036.52 470.793 1064.28 464.211C1099.11 455.947 1134.06 453.687 1166.86 452.081C1235.05 448.741 1308.18 456.989 1397.01 470.4C1426.79 474.894 1457.19 480.202 1486.59 485.335C1510.1 489.44 1534.42 493.684 1558.57 497.548C1669.09 515.22 1770.62 520.304 1868.81 525.221C1881.84 525.872 1895.31 526.549 1908.41 527.235C1923.39 528.021 1938.56 528.481 1953.22 528.924C1965.2 529.286 1977.58 529.663 1989.75 530.211L1989.71 531.135C1977.55 530.585 1965.16 530.211 1953.19 529.848C1938.53 529.401 1923.36 528.946 1908.36 528.157C1895.26 527.47 1881.79 526.796 1868.77 526.142C1770.55 521.225 1668.99 516.141 1558.43 498.46C1534.26 494.595 1509.95 490.352 1486.43 486.244C1457.04 481.113 1426.64 475.804 1396.87 471.311C1308.1 457.911 1235.02 449.667 1166.9 453.002C1134.14 454.607 1099.25 456.859 1064.49 465.107C1004.3 479.383 963.502 508.341 932.209 558.992C896.122 617.398 874.286 686.846 853.167 754.007C845.719 777.687 838.023 802.169 829.781 825.939C818.595 857.958 808.822 881.85 798.087 903.409C786.006 927.675 773.082 947.243 758.577 963.238C744.585 978.665 729.45 990.386 712.315 999.066C705.231 1002.66 697.84 1005.71 690.068 1008.23Z" fill="#BFBFBF" fill-opacity="0.3"/>
<path d="M692.687 997.336C656.451 1009.11 616.052 1007.31 580.813 1003.83C505.878 996.441 440.747 1020.76 371.793 1046.5C333.054 1060.97 292.993 1075.92 249.062 1086.12C199.349 1097.66 151.626 1101.28 103.168 1097.17C49.1825 1092.6 -2.50699 1069.55 -52.4969 1047.26C-58.1157 1044.76 -63.9253 1042.17 -69.57 1039.68C-204.565 980.233 -307.667 949.961 -384.772 947.135C-447.154 944.848 -507.31 959.626 -565.482 973.919C-599.372 982.247 -631.386 990.111 -662.728 994.394L-662.842 993.566C-631.548 989.286 -599.553 981.427 -565.685 973.107C-507.456 958.8 -447.248 944.009 -384.747 946.298C-342.636 947.841 -291.995 957.712 -234.231 975.634C-185.72 990.684 -131.75 1011.39 -69.2369 1038.91C-63.5922 1041.4 -57.7826 1043.99 -52.1637 1046.49C-2.23994 1068.75 49.3835 1091.77 103.23 1096.33C211.357 1105.5 292.765 1075.11 371.492 1045.71C440.541 1019.94 505.76 995.589 580.887 1003C675.643 1012.34 740.353 999.27 790.709 904.769C802.02 883.541 812.584 859.172 823.949 828.083C832.999 803.156 841.319 777.369 849.366 752.433C870.545 686.799 892.441 618.928 929.305 562.213C947.272 534.568 968.446 514.311 994.043 500.281C1015.08 488.753 1039.38 481.438 1068.34 477.921C1102.33 473.797 1135.83 475.304 1172.96 477.531C1238.17 481.442 1306.72 494.923 1379.29 509.199C1387 510.716 1394.75 512.24 1402.54 513.758C1411.77 515.56 1421.18 517.422 1430.27 519.221C1473.65 527.8 1518.5 536.667 1563.69 543.181C1690.92 561.517 1805.45 554.174 1916.22 547.073C1932.56 546.026 1949.02 544.549 1964.95 543.122C1975.93 542.136 1987.29 541.119 1998.46 540.256L1998.53 541.088C1987.36 541.949 1976.01 542.969 1965.02 543.955C1949.09 545.385 1932.62 546.859 1916.27 547.909C1861.88 551.394 1805.64 555 1746.8 555.445C1680.39 555.946 1620.45 552.206 1563.57 544.007C1518.36 537.492 1473.5 528.621 1430.11 520.042C1421.02 518.242 1411.61 516.38 1402.38 514.578C1394.59 513.059 1386.84 511.536 1379.13 510.019C1306.58 495.751 1238.06 482.27 1172.9 478.364C1135.81 476.141 1102.35 474.637 1068.44 478.751C1005.45 486.399 962.753 512.279 930.004 562.668C893.203 619.289 871.322 687.106 850.159 752.69C842.107 777.635 833.785 803.431 824.732 828.371C813.351 859.498 802.773 883.901 791.444 905.163C778.72 929.046 765.025 947.909 749.582 962.837C734.997 976.93 719.124 987.234 701.043 994.335C698.294 995.424 695.502 996.421 692.687 997.336Z" fill="#BFBFBF" fill-opacity="0.3"/>
<path d="M694.518 988.123C692.958 988.63 691.386 989.113 689.796 989.568C655.42 999.462 617.064 997.373 566.323 990.797C483.907 980.115 418.415 1016.93 349.078 1055.92C313.538 1075.9 276.792 1096.56 235.977 1111.94C189.802 1129.34 144.791 1137.31 98.3712 1136.31C71.8506 1135.74 43.3279 1129.57 11.1789 1117.45C-17.3721 1106.69 -45.8164 1092.37 -72.5008 1078.62C-85.6444 1071.85 -99.0577 1064.88 -112.03 1058.13C-206.091 1009.21 -303.357 958.617 -380.239 943.613C-453.833 929.252 -525.67 944.143 -595.136 958.546C-616.515 962.979 -638.619 967.563 -660.085 971.101L-660.206 970.365C-638.756 966.828 -616.659 962.247 -595.288 957.816C-525.748 943.401 -453.839 928.494 -380.098 942.881C-345.552 949.622 -303.949 964.096 -252.91 987.14C-207.406 1007.68 -158.746 1032.99 -111.686 1057.47C-98.7143 1064.21 -85.3047 1071.19 -72.1612 1077.96C-12.3916 1108.75 41.6975 1134.34 98.3864 1135.56C201.926 1137.79 276.546 1095.84 348.707 1055.27C418.154 1016.22 483.754 979.34 566.416 990.056C659.268 1002.09 729.244 1003.15 784.165 906.554C796.222 885.349 807.293 861.198 819.002 830.541C828.813 804.706 837.691 777.863 846.278 751.902C867.552 687.589 889.551 621.089 927.198 565.928C945.999 538.379 968.166 519.106 994.961 507.005C1016.98 497.066 1042.31 492.043 1072.41 491.652C1108.68 491.183 1145.94 497.437 1178.82 502.955L1179.06 502.996C1228.44 511.286 1279.07 524.333 1332.67 538.145C1357.17 544.46 1382.5 550.989 1408.08 557.13C1458.81 569.316 1513.39 581.592 1568.83 588.83C1694.88 604.78 1808.79 587.578 1924.06 566.937C1941.72 563.772 1959.47 560.104 1976.63 556.551C1986.65 554.479 1997.01 552.332 2007.21 550.324L2007.35 551.057C1997.16 553.068 1986.8 555.21 1976.78 557.282C1959.61 560.835 1941.87 564.505 1924.19 567.669C1873.58 576.731 1814.51 586.832 1753.86 592.03C1687.4 597.727 1626.85 596.92 1568.73 589.568C1513.26 582.325 1458.65 570.044 1407.9 557.853C1382.32 551.709 1356.99 545.177 1332.48 538.863C1278.9 525.054 1228.28 512.01 1178.93 503.727L1178.7 503.686C1145.85 498.173 1108.62 491.924 1072.42 492.392C1031.65 492.918 972.301 501.158 927.813 566.341C890.227 621.412 868.246 687.866 846.983 752.126C838.394 778.092 829.51 804.944 819.696 830.793C807.969 861.485 796.885 885.672 784.81 906.908C760.212 950.201 731.415 976.132 694.518 988.123Z" fill="#BFBFBF" fill-opacity="0.3"/>
<path d="M170.912 1161.43C145.507 1169.69 119.893 1174.31 93.5695 1175.45C67.1616 1176.6 39.1498 1171.38 7.92891 1159.49C-23.0362 1147.7 -52.8857 1130.9 -75.4268 1117.58C-111.863 1096.05 -148.765 1071.99 -184.452 1048.73C-254.251 1003.23 -320.178 960.253 -375.687 940.096C-460.953 909.134 -542.775 925.267 -629.403 942.344C-638.587 944.153 -648.084 946.027 -657.449 947.809L-657.573 947.164C-648.209 945.382 -638.715 943.509 -629.531 941.7C-587.944 933.5 -544.938 925.022 -502.72 922.68C-480.005 921.418 -459.255 921.978 -439.28 924.382C-416.884 927.082 -396.009 932.019 -375.468 939.477C-319.885 959.66 -253.926 1002.66 -184.096 1048.18C-148.414 1071.44 -111.518 1095.49 -75.0952 1117.02C-21.803 1148.51 35.5077 1177.31 93.5398 1174.8C194.169 1170.44 263.325 1117.05 330.204 1065.41C364.901 1038.62 397.674 1013.31 433.385 996.093C452.541 986.854 470.85 980.769 489.357 977.49C510.011 973.827 530.481 973.702 551.933 977.113C645.752 992.022 719.852 1003.8 777.616 908.338C790.419 887.181 801.999 863.241 814.052 832.998C824.58 806.448 833.974 778.743 843.051 751.946C864.464 688.763 886.603 623.434 925.087 569.647C935.171 555.558 946.476 543.633 958.691 534.209C970.029 525.461 982.543 518.565 995.887 513.718C1018.93 505.348 1045.29 502.619 1076.47 505.389C1112.96 508.629 1150.07 518.826 1182.82 527.827L1185.15 528.465C1222.43 538.713 1259.94 551.198 1299.66 564.42C1336.51 576.687 1374.61 589.372 1413.61 600.512C1476.58 618.505 1526.03 628.982 1573.96 634.488C1704.17 649.011 1822.18 618.899 1931.9 586.808C1951.01 581.218 1970.17 575.062 1988.69 569.103C1997.63 566.232 2006.86 563.258 2015.96 560.397L2016.15 561.024C2007.06 563.885 1997.82 566.854 1988.89 569.724C1970.36 575.681 1951.2 581.842 1932.09 587.434C1878.7 603.05 1821.01 618.853 1760.86 628.683C1694.04 639.606 1632.88 641.716 1573.89 635.137C1525.92 629.627 1476.43 619.141 1413.42 601.139C1374.41 589.991 1336.3 577.305 1299.45 565.04C1259.74 551.823 1222.24 539.34 1184.97 529.103L1182.64 528.465C1149.92 519.476 1112.84 509.285 1076.41 506.051C1009.05 500.065 961.136 520.398 925.621 570.033C887.195 623.736 865.067 689.025 843.672 752.161C834.588 778.964 825.196 806.676 814.657 833.242C802.591 863.518 790.996 887.487 778.176 908.679C720.183 1004.51 645.889 992.708 551.83 977.763C463.061 963.654 398.721 1013.33 330.605 1065.93C297.663 1091.36 263.596 1117.67 225.19 1138.14C207.092 1147.79 189.054 1155.53 170.912 1161.43Z" fill="#BFBFBF" fill-opacity="0.3"/>
<path d="M138.36 1203.93C122.132 1209.2 105.65 1212.74 88.7641 1214.59C62.5842 1217.47 35.0661 1213.19 4.6387 1201.51C-20.4585 1191.88 -46.8299 1177.59 -78.3502 1156.54C-126.389 1124.46 -174.271 1085.31 -220.577 1047.46C-275.285 1002.74 -326.955 960.497 -371.127 936.573C-460.215 888.319 -548.567 901.837 -654.814 924.52L-654.933 923.966C-605.475 913.404 -557.21 903.879 -510.463 903.286C-485.334 902.966 -462.406 905.182 -440.368 910.056C-415.948 915.457 -393.211 923.966 -370.857 936.073C-326.64 960.023 -274.948 1002.28 -220.219 1047.02C-173.924 1084.86 -126.053 1124 -78.0352 1156.06C-32.376 1186.56 27.8441 1220.71 88.6982 1214.03C187.268 1203.21 251.685 1138.45 313.984 1075.81C347.651 1041.96 379.451 1009.99 415.124 988.246C434.258 976.581 452.827 968.888 471.889 964.73C493.16 960.091 514.606 959.907 537.449 964.172C544.036 965.403 550.603 966.67 556.954 967.892C644.827 984.836 714.233 998.219 771.065 910.13C784.539 889.068 796.978 864.645 809.097 835.463C820.309 808.368 830.18 779.973 839.725 752.518C861.345 690.325 883.697 626.013 922.975 573.376C933.519 559.35 945.331 547.73 958.082 538.837C969.924 530.575 982.977 524.394 996.864 520.464C1020.98 513.639 1048.35 513.205 1080.52 519.141C1117.9 526.037 1155.46 540.332 1188.59 552.949L1191.22 553.949C1219.31 564.641 1247.19 576.284 1276.7 588.61C1322.6 607.786 1370.07 627.613 1419.13 643.893C1478.9 663.726 1529.74 675.245 1579.1 680.147C1670.02 688.958 1756.09 671.233 1834.83 645.642C1871.48 633.732 1906.53 620.12 1939.77 606.681C1960.66 598.232 1981.59 589.15 2001.83 580.372C2009.33 577.118 2017.09 573.757 2024.72 570.476L2024.94 570.999C2017.31 574.277 2009.56 577.642 2002.06 580.895C1981.81 589.675 1960.88 598.754 1939.97 607.209C1886.97 628.643 1829.43 650.516 1767.8 665.316C1700.55 681.466 1638.81 686.504 1579.04 680.713C1529.64 675.809 1478.77 664.281 1418.95 644.433C1369.87 628.146 1322.39 608.315 1276.48 589.134C1246.97 576.808 1219.1 565.166 1191.02 554.48L1188.39 553.48C1155.28 540.872 1117.75 526.586 1080.41 519.702C1010.69 506.841 960.808 524.009 923.431 573.726C884.207 626.292 861.87 690.559 840.264 752.71C830.719 780.174 820.846 808.577 809.627 835.687C797.492 864.898 785.039 889.351 771.546 910.443C745.378 951.001 714.788 972.746 675.271 978.869C639.56 984.404 599.386 976.659 556.852 968.456C550.504 967.233 543.938 965.966 537.351 964.734C442.831 947.089 380.443 1009.81 314.391 1076.22C283.706 1107.07 251.976 1138.98 215.6 1164.49C190.17 1182.32 164.606 1195.4 138.36 1203.93Z" fill="#BFBFBF" fill-opacity="0.3"/>
<path d="M113.549 1246.34C103.899 1249.48 94.0673 1251.93 83.9497 1253.73C58.0566 1258.34 31.0225 1254.99 1.30399 1243.5C-24.1047 1233.68 -51.1136 1217.98 -81.2619 1195.49C-136.152 1154.55 -189.801 1100.61 -241.681 1048.45C-286.872 1003.02 -329.552 960.108 -366.541 933.049C-451.725 870.731 -538.992 874.674 -652.182 901.229L-652.293 900.763C-607.509 890.254 -554.89 879.918 -504.185 882.897C-479.262 884.363 -456.422 888.805 -434.364 896.476C-410.467 904.788 -388.19 916.622 -366.267 932.662C-329.247 959.743 -286.554 1002.67 -241.351 1048.11C-189.482 1100.26 -135.85 1154.19 -80.9868 1195.11C-16.3744 1243.3 36.0082 1261.78 83.8574 1253.26C180.81 1235.99 240.935 1159.92 299.085 1086.35C331.474 1045.37 362.066 1006.67 397.479 980.36C416.471 966.251 435.195 956.948 454.714 951.915C476.493 946.303 498.813 946.071 522.953 951.217C534.745 953.729 546.366 956.456 557.607 959.094C638.421 978.062 708.214 994.442 764.509 911.905C778.679 891.038 791.641 866.832 804.139 837.911C816.023 810.352 826.338 781.336 836.31 753.276C858.104 691.958 880.639 628.55 920.853 577.086C931.821 563.107 944.121 551.773 957.407 543.397C969.749 535.617 983.335 530.148 997.789 527.137C1023.01 521.888 1051.38 523.759 1084.54 532.861C1123.97 543.683 1162.92 562.657 1197.28 579.395C1218.92 589.863 1241.18 601.177 1262.71 612.122C1314.81 638.599 1368.67 665.983 1424.65 687.245C1482.36 709.007 1534.56 721.612 1584.23 725.776C1719.92 736.977 1842.96 680.418 1947.63 626.526C1971.2 614.391 1994.82 601.551 2017.66 589.13C2022.94 586.259 2028.21 583.393 2033.49 580.53L2033.72 580.95C2028.44 583.814 2023.16 586.68 2017.89 589.551C1995.04 601.972 1971.42 614.814 1947.85 626.95C1898.94 652.134 1840.96 680.387 1780.07 700.18C1778.28 700.763 1776.49 701.337 1774.69 701.905C1706.99 723.281 1644.68 731.248 1584.19 726.251C1534.47 722.081 1482.23 709.469 1424.48 687.692C1368.48 666.421 1314.6 639.034 1262.5 612.548C1240.97 601.605 1218.71 590.291 1197.07 579.826C1162.73 563.094 1123.8 544.132 1084.42 533.321C1012.22 513.501 960.365 527.501 921.234 577.379C881.065 628.783 858.542 692.151 836.765 753.435C826.79 781.499 816.475 810.524 804.583 838.097C792.071 867.052 779.095 891.278 764.911 912.174C739.039 950.105 709.085 969.79 670.642 974.11C636.071 977.997 597.907 969.043 557.505 959.556C546.268 956.92 534.651 954.192 522.863 951.679C422.962 930.389 362.975 1006.29 299.465 1086.64C270.831 1122.87 241.217 1160.33 206.654 1190.88C187.974 1207.38 169.626 1220.34 150.555 1230.51C138.381 1237.01 126.121 1242.26 113.549 1246.34Z" fill="#BFBFBF" fill-opacity="0.3"/>
<path d="M92.9988 1288.9C88.4393 1290.38 83.8197 1291.7 79.1289 1292.87C29.52 1305.19 -26.2515 1284.1 -91.3827 1228.4C-148.206 1179.8 -204.937 1111.01 -254.989 1050.32C-293.546 1003.57 -329.969 959.402 -361.949 929.532C-449.021 848.201 -539.898 850.088 -649.556 877.937L-649.65 877.559C-587.074 861.668 -540.251 857.033 -497.828 862.536C-447.256 869.094 -402.723 890.917 -361.682 929.249C-329.684 959.138 -293.255 1003.31 -254.69 1050.08C-204.649 1110.76 -147.928 1179.53 -91.1315 1228.1C-26.1065 1283.71 29.5548 1304.78 79.0346 1292.49C174.58 1268.77 230.712 1181.45 285 1097C315.963 1048.83 345.208 1003.33 380.231 972.452C399.01 955.893 417.82 944.974 437.742 939.071C459.959 932.487 483.097 932.226 508.473 938.273C524.428 942.074 540.065 946.467 555.191 950.717C633.811 972.811 701.707 991.89 757.966 913.696C792.286 865.994 812.903 809.231 832.841 754.338C843.838 724.059 855.21 692.752 868.742 663.372C883.915 630.421 900.274 603.417 918.753 580.811C937.312 558.105 959.444 543.253 984.534 536.658C1006.66 530.849 1030.87 531.164 1058.58 537.626C1109.35 549.471 1161.47 580.186 1203.35 604.863C1219.31 614.27 1235.63 624.13 1251.41 633.662C1356.6 697.212 1465.37 762.93 1589.38 771.425C1645.34 775.26 1698.96 766.144 1749.91 749.586C1824.41 725.373 1893.23 685.251 1955.52 646.383C1984.34 628.408 2013.26 609.536 2041.23 591.285L2042.29 590.587L2042.51 590.914L2041.44 591.612C2013.47 609.865 1984.54 628.737 1955.73 646.712C1905.33 678.156 1845.23 713.65 1781.54 738.513C1713.41 765.108 1650.55 776.002 1589.36 771.809C1465.25 763.307 1356.44 697.565 1251.21 633.992C1235.43 624.459 1219.12 614.602 1203.15 605.196C1161.3 580.531 1109.21 549.836 1058.49 538.005C999.579 524.26 953.973 538.339 919.056 581.055C877.914 631.383 855.19 693.959 833.211 754.471C813.263 809.387 792.64 866.177 758.289 913.922C738.221 941.813 716.676 957.369 693.714 964.836C652.119 978.358 605.837 965.347 555.095 951.087C539.974 946.84 524.34 942.445 508.394 938.645C460.463 927.224 419.827 938.059 380.499 972.736C345.518 1003.58 316.285 1049.06 285.338 1097.2C258.612 1138.78 230.973 1181.77 198.079 1217.31C180.306 1236.51 162.687 1251.77 144.219 1263.96C127.63 1274.91 110.761 1283.13 92.9988 1288.9Z" fill="#BFBFBF" fill-opacity="0.3"/>
</svg>
